<svg fill="none" viewBox="0 0 128 128" xmlns="http://www.w3.org/2000/svg"><path clip-rule="evenodd" d="m7 13h55c1.1046 0 2 .8954 2 2v8h2v-8c0-2.2091-1.7909-4-4-4h-55c-2.20914 0-4 1.7909-4 4v34c0 2.2091 1.79086 4 4 4h30v-2h-30c-1.10457 0-2-.8954-2-2v-34c0-1.1046.89543-2 2-2zm30 61h-14c-2.2091 0-4 1.7909-4 4v27c0 2.209 1.7909 4 4 4h33c2.2091 0 4-1.791 4-4v-17.2252l-1.2986-1.3507-.7014.6776v17.8983c0 1.105-.8954 2-2 2h-33c-1.1046 0-2-.895-2-2v-27c0-1.1046.8954-2 2-2h14zm42.3443 9h5.6557v33c0 2.209 1.7909 4 4 4h31c2.209 0 4-1.791 4-4v-41c0-2.2091-1.791-4-4-4h-4v-7c0-2.2091-1.791-4-4-4h-32.6557v2h32.6557c1.105 0 2 .8954 2 2v7h-25c-2.2091 0-4 1.7909-4 4v6h-5.6557zm16.6557-39h11c2.209 0 4-1.7909 4-4v-12c0-2.2091-1.791-4-4-4h-20.3826c1.2978.4981 2.4741 1.1723 3.5206 2h16.862c1.105 0 2 .8954 2 2v12c0 1.1046-.895 2-2 2h-11zm24 29h-4v6c0 2.2091-1.791 4-4 4h-25v33c0 1.105.8954 2 2 2h31c1.105 0 2-.895 2-2v-41c0-1.1046-.895-2-2-2zm-8 8c1.105 0 2-.8954 2-2v-6h-25c-1.1046 0-2 .8954-2 2v6z" fill="currentColor" fill-opacity=".2" fill-rule="evenodd"/><path clip-rule="evenodd" d="m58.9672 83.8148 14.9823 15.5837c.7293.7555 1.9654.8065 2.7612.1139.4037-.3515.6336-.8476.6336-1.3676v-43.4633h12.7474c2.1574 0 3.9083-1.6584 3.9083-3.7102v-11.1306c0-8.1809-4.44-14.8407-13.0659-14.8407h-2.427-19.5399z" fill="currentColor" fill-opacity=".2" fill-rule="evenodd"/><path d="m80.9341 25c8.6259 0 13.0659 6.6598 13.0659 14.8407v11.1306c0 2.0518-1.7509 3.7102-3.9084 3.7102h-12.7473m3.5898-29.6815c-4.2234 0-3.5898 6.9774-3.5898 11.0735v18.608m3.5898-29.6815h-2.427-23.8736c-10.5827 0-15.6335 5.5938-15.6335 14.8407v58.3041c0 1.0245.875 1.8551 1.9542 1.8551.5477 0 1.0704-.2183 1.4406-.6014l16.3588-15.8059 15.1959 15.8059c.7292.7555 1.9654.8065 2.7612.1139.4036-.3515.6336-.8476.6336-1.3676v-43.4633" stroke="currentColor" stroke-width="2"/></svg>
