<svg fill="none" viewBox="0 0 64 64" xmlns="http://www.w3.org/2000/svg"><g fill="currentColor"><path d="m22.5 31.5c0-2.9782 1.3705-5.6364 3.5151-7.3782.1301-.1056.1529-.2955.0515-.4289l-.8587-1.1299-.0042-.0053c-.0938-.1173-.265-.1364-.3824-.0425-2.6341 2.1074-4.3213 5.349-4.3213 8.9848 0 3.4024 1.4776 6.4598 3.8262 8.5653.0802.0719.1836.1601.3102.2645.0051.0042.0103.0083.0156.0123.2199.1671.5336.1243.7007-.0955l.6057-.7971c.1619-.213.1274-.5158-.0783-.6869-.1121-.0932-.2037-.1723-.2748-.237-1.9079-1.7376-3.1053-4.2418-3.1053-7.0256z"/><path clip-rule="evenodd" d="m31 43.5c0 .2761.2239.5.5.5h1c.2761 0 .5-.2239.5-.5v-8.645c1.4457-.4302 2.5-1.7695 2.5-3.355 0-1.933-1.567-3.5-3.5-3.5s-3.5 1.567-3.5 3.5c0 1.5855 1.0543 2.9248 2.5 3.355zm2.5-12c0 .8284-.6716 1.5-1.5 1.5s-1.5-.6716-1.5-1.5.6716-1.5 1.5-1.5 1.5.6716 1.5 1.5z" fill-rule="evenodd"/><path d="m43.5 31.5c0 3.3811-1.4591 6.4214-3.782 8.5255-.0903.0818-.2085.183-.3546.3036-.2128.1759-.528.1457-.7038-.0672l-.0066-.0081-.006-.0077-.6055-.7967c-.1619-.2131-.1274-.5158.0783-.6869.1165-.0969.2114-.1789.2848-.246 1.9021-1.7372 3.0954-4.2375 3.0954-7.0165 0-2.7853-1.1987-5.2907-3.1083-7.0284-.0704-.064-.161-.1421-.2717-.2342-.2057-.1711-.2403-.4739-.0784-.6869l.6071-.7987c.167-.2199.4807-.2626.7006-.0956.0051.0039.0101.0079.0151.012.054.0444.1008.0837.1404.1179 2.4465 2.1088 3.9952 5.2305 3.9952 8.7139z"/><path d="m28.1272 27.5947c.05-.0496.113-.1078.189-.1747.1969-.1732.2265-.4691.0678-.6779l-.6085-.8006c-.0062-.0083-.0127-.0163-.0195-.0241-.1804-.2091-.4961-.2323-.7052-.0519-.0292.0252-.0555.0483-.0789.0695-1.518 1.3724-2.4719 3.3573-2.4719 5.565 0 2.171.9225 4.1266 2.3968 5.4962.0431.04.0949.086.1555.1381.0076.0065.0154.0128.0233.0188.2198.1671.5334.1243.7005-.0955l.6075-.7991c.1587-.2088.129-.5048-.068-.678-.0623-.0548-.1147-.103-.1573-.1446-1.0231-.9988-1.6583-2.3932-1.6583-3.9359 0-1.5271.6223-2.9088 1.6272-3.9053z"/><path d="m39.5 31.5c0 2.2105-.9563 4.1976-2.4777 5.5702-.0218.0197-.0461.041-.0729.0642-.209.1805-.5247.1574-.7052-.0516-.0068-.0079-.0134-.016-.0197-.0242l-.6093-.8018c-.1586-.2086-.1291-.5043.0674-.6775.0999-.0882.181-.1639.2432-.2273.9737-.9922 1.5742-2.352 1.5742-3.852 0-1.4817-.5859-2.8265-1.5386-3.8155-.0702-.0728-.1634-.1606-.2798-.2634-.1962-.1734-.2254-.4688-.067-.6772l.6089-.8011c.167-.2199.4807-.2626.7006-.0955.0079.006.0157.0123.0232.0188.0727.0624.134.1171.184.164 1.458 1.3682 2.3687 3.3127 2.3687 5.4699z"/><circle cx="32" cy="32" fill-opacity=".2" opacity=".2" r="19" stroke="currentColor" stroke-width="2"/><circle cx="32" cy="32" fill-opacity=".2" opacity=".2" r="15" stroke="currentColor" stroke-width="2"/></g><circle cx="32" cy="32" r="23" stroke="currentColor" stroke-width="2"/></svg>
