<svg fill="none" viewBox="0 0 128 128" xmlns="http://www.w3.org/2000/svg" xmlns:xlink="http://www.w3.org/1999/xlink"><mask id="a" fill="#fff"><path clip-rule="evenodd" d="m44.633 39.4651c-6.857 5.713-11.2386 14.4313-11.2386 24.1994 0 9.1307 3.8283 17.344 9.9282 23.043.2274.2125.5203.4716.8787.7774l-.0002.0002c.6577.5612.7681 1.5541.2505 2.2528l-1.9367 2.6141.0002.0002c-.5343.7212-1.5374.8615-2.2404.3134-.0168-.0132-.0334-.0266-.0497-.0404-.4048-.3425-.7355-.6316-.9919-.8675-7.5088-6.9058-12.2331-16.9335-12.2331-28.0932 0-11.9247 5.3943-22.557 13.8162-29.4689.3751-.3079.9225-.2455 1.2225.1393.0045.0058.009.0116.0134.0175l2.7454 3.7058.0001-.0001c.3242.4377.2514 1.0604-.1646 1.407zm56.367 24.0384c0 11.1511-4.7234 21.1782-12.2431 28.1179-.2921.2696-.6747.6034-1.1476 1.0013l-.0002-.0002c-.6892.5798-1.7092.4807-2.2783-.2214-.0139-.0172-.0274-.0346-.0406-.0523l-1.9602-2.6276c-.5241-.7026-.4124-1.7011.2534-2.2655.3771-.3196.6844-.59.922-.8111 6.1575-5.7294 10.0203-13.9757 10.0203-23.1411 0-9.1862-3.8804-17.449-10.0622-23.1799-.2279-.2113-.521-.4688-.8794-.7725v.0001c-.6661-.5644-.778-1.563-.2537-2.2658l1.965-2.6342v.0001c.5409-.7251 1.5563-.8661 2.268-.3151.0166.0129.0329.0261.049.0396.1747.1464.3261.2759.4544.3885 7.9196 6.9553 12.9332 17.2508 12.9332 28.7392zm-48.5536-13.1163c-.2479.215-.4534.4021-.6164.5614-3.2773 3.2033-5.307 7.6445-5.307 12.5529 0 4.9588 2.0716 9.4408 5.4085 12.6512.1389.1336.31.2886.5133.4647l-.0001.0002c.6423.5566.739 1.5079.2214 2.1791l-1.9809 2.5688-.0002-.0002c-.5449.7066-1.5678.8441-2.2847.3071-.0259-.0194-.0513-.0396-.076-.0606-.1975-.1673-.3666-.3152-.5071-.4438-4.8086-4.4022-7.8172-10.6881-7.8172-17.6665 0-7.0962 3.111-13.4763 8.0622-17.8878.0763-.0679.162-.1424.2572-.2234l.0001.0001c.6818-.5798 1.7115-.5052 2.2998.1667.0221.0252.0434.0511.0638.0776l1.9845 2.5735c.5175.6711.4209 1.6223-.2212 2.179zm35.5536 13.1106c0 7.1053-3.1178 13.4927-8.0783 17.9049-.0709.0631-.15.1319-.2375.2063l.0001.0001c-.6814.5802-1.7109.506-2.2995-.1659-.0222-.0253-.0435-.0514-.0641-.078l-1.9867-2.5772.0002-.0002c-.5169-.6705-.421-1.6207.2197-2.1777.3258-.2832.5901-.5267.7929-.7304 3.1746-3.1894 5.1325-7.5603 5.1325-12.3819 0-4.7627-1.9102-9.0855-5.0165-12.2644-.2288-.2341-.5328-.5164-.9122-.8469l.0001-.0001c-.6396-.5572-.7349-1.5066-.2184-2.1766l1.985-2.5751.0001.0001c.5447-.7067 1.5674-.8442 2.2842-.3071.0259.0194.0512.0396.0758.0604.2369.2007.4368.3764.5998.5271 4.7535 4.3981 7.7228 10.6485 7.7228 17.5826zm-24 5.5022c2.7614 0 5-2.2386 5-5s-2.2386-5-5-5-5 2.2386-5 5 2.2386 5 5 5z" fill="#fff" fill-rule="evenodd"/></mask><mask id="b" fill="#fff"><path clip-rule="evenodd" d="m67 74.5859c4.617-1.3058 8-5.5508 8-10.5859 0-6.0751-4.9249-11-11-11s-11 4.9249-11 11c0 5.0351 3.383 9.2801 8 10.5859v27.4141c0 1.105.8954 2 2 2h2c1.1046 0 2-.895 2-2z" fill="#fff" fill-rule="evenodd"/></mask><g fill="currentColor"><path d="m44.633 39.4651 1.2802 1.5366zm-1.3104 47.2424-1.3654 1.4614zm.8787.7774 1.5543 1.2586c.6825-.8429.5689-2.0761-.2561-2.78zm-.0002.0002-1.5543-1.2586c-.6825.8429-.5688 2.0761.2562 2.78zm.2505 2.2528-1.6071-1.1906zm-1.9367 2.6141-1.607-1.1905c-.6469.8731-.4783 2.1029.3797 2.7697zm.0002.0002 1.607 1.1905c.6469-.8731.4783-2.1029-.3797-2.7697zm-2.2404.3134 1.2297-1.5773zm-.0497-.0404-1.2917 1.5269zm-.9919-.8675-1.3539 1.4721zm1.5831-57.5621-1.2688-1.546zm1.2225.1393-1.5771 1.2299zm.0134.0175-1.6071 1.1906zm2.7454 3.7058-1.607 1.1906c.3184.4297.7957.7141 1.3252.7894.5295.0754 1.0672-.0645 1.4928-.3883zm.0001-.0001 1.607-1.1905c-.3184-.4298-.7957-.7141-1.3252-.7895s-1.0672.0645-1.4928.3884zm43.9593 53.5633 1.3564 1.4697zm-1.1476 1.0013-1.5404 1.2757c.3401.4106.83.6684 1.361.7162.5309.0479 1.059-.1183 1.467-.4615zm-.0002-.0002 1.5403-1.2757c-.34-.4106-.8299-.6684-1.3609-.7162-.531-.0479-1.0591.1183-1.467.4615zm-2.2783-.2214-1.5537 1.2594zm-.0406-.0523 1.6031-1.1958zm-1.9602-2.6276 1.6031-1.1959v-.0001zm.2534-2.2655-1.2933-1.5256zm.922-.8111 1.3624 1.4642zm-.0419-46.321-1.3597 1.4666zm-.8794-.7725 1.293-1.5258c-.4094-.3469-.9411-.5148-1.4755-.4658-.5343.0489-1.0266.3106-1.3662.7261zm0 .0001-1.293 1.5259c.4094.3469.9411.5147 1.4754.4658.5344-.049 1.0267-.3106 1.3662-.7261zm-.2537-2.2658-1.6031-1.1958zm1.965-2.6342 1.2249-1.581c-.4244-.3287-.963-.4731-1.4948-.4007-.5319.0725-1.0123.3556-1.3332.7859zm0 .0001-1.2248 1.581c.4243.3288.9629.4731 1.4948.4007.5318-.0724 1.0122-.3556 1.3331-.7859zm2.268-.3151 1.2244-1.5814zm.049.0396 1.2849-1.5327zm.4544.3885-1.3198 1.5028zm-35.6204 15.6229 1.3102 1.5111zm-.6164.5614-1.3979-1.4303zm.1015 25.2041-1.3867 1.4413zm.5133.4647 1.4977 1.3255c.3539-.3999.5332-.9248.4979-1.4577-.0353-.5328-.2822-1.0295-.6858-1.3792zm-.0001.0002-1.4977-1.3255c-.354.3999-.5333.9248-.498 1.4576.0353.5329.2823 1.0296.6859 1.3793zm.2214 2.1791 1.5838 1.2214zm-1.9809 2.5688-1.1985 1.6012c.8754.6552 2.1146.486 2.7823-.3798zm-.0002-.0002 1.1984-1.6011c-.8753-.6552-2.1145-.486-2.7822.3798zm-2.2847.3071 1.199-1.6008zm-.076-.0606 1.2925-1.5263zm-.5071-.4438-1.3505 1.4752zm.245-35.5543-1.3305-1.4932zm.2572-.2234 1.5013-1.3214c-.7211-.8192-1.9657-.9091-2.797-.2021zm.0001.0001-1.5012 1.3215c.721.8191 1.9656.909 2.7969.202zm2.2998.1667 1.5047-1.3175zm.0638.0776 1.5838-1.2214zm1.9845 2.5735 1.2004 1.5997c.4279-.3211.7094-.8003.7814-1.3304.0721-.5301-.0713-1.067-.398-1.4907zm0 0-1.2004-1.5997c-.4279.3211-.7094.8002-.7814 1.3304-.0721.5301.0713 1.067.398 1.4907zm27.2541 33.1945 1.3292 1.4944zm-.2375.2063-1.2965-1.5228c-.4079.3473-.6594.8437-.6982 1.378s.1384 1.0618.4918 1.4644zm.0001.0001 1.2966 1.5228c.4079-.3473.6594-.8437.6982-1.378s-.1384-1.0618-.4918-1.4643zm-2.2995-.1659 1.5045-1.3178zm-.0641-.078 1.584-1.2211zm-1.9867-2.5772-1.2132-1.5901c-.423.3228-.7.8009-.7696 1.3285s.0739 1.0612.3988 1.4826zm.0002-.0002 1.2131 1.5901c.4231-.3228.7001-.8009.7697-1.3285s-.0739-1.0612-.3988-1.4826zm.2197-2.1777 1.3121 1.5094zm.7929-.7304-1.4175-1.4109zm.116-24.6463-1.4305 1.3978zm-.9122-.8469-1.4896-1.3345c-.3572.3986-.5396.9238-.5066 1.458.0331.5342.2789 1.0329.6824 1.3845zm.0001-.0001 1.4897 1.3345c.3571-.3986.5395-.9238.5065-1.458-.0331-.5342-.2789-1.0329-.6824-1.3845zm-.2184-2.1766-1.584-1.2211zm1.985-2.5751 1.1991-1.6007c-.8754-.6557-2.1153-.4866-2.7831.3797zm.0001.0001-1.1991 1.6007c.8754.6557 2.1153.4866 2.7831-.3797zm2.2842-.3071-1.1993 1.6005zm.0758.0604 1.2926-1.5261zm.5998.5271 1.3583-1.468zm-36.9244-7.9866c-7.3017 6.0834-11.9584 15.3596-11.9584 25.7359h4c0-9.1599 4.1066-17.3204 10.5188-22.6628zm-11.9584 25.7359c0 9.6989 4.0687 18.4371 10.5628 24.5044l2.7308-2.9228c-5.7056-5.3306-9.2936-13.0192-9.2936-21.5816zm10.5628 24.5044c.2574.2405.575.5209.9459.8374l2.5964-3.0428c-.3459-.2951-.6141-.533-.8115-.7174zm.6897-1.9426-.0001.0002 3.1087 2.5172.0001-.0002zm.2561 2.7802c-.0788-.0672-.1157-.1537-.1237-.2256-.0079-.0717.0093-.1581.0652-.2336l3.2141 2.3811c1.1376-1.5355.9055-3.7149-.5593-4.9647zm-.0585-.4592-1.9366 2.6142 3.214 2.3811 1.9367-2.6142zm-1.5569 5.3839.0002.0001 2.4546-3.1583-.0002-.0002zm-.3795-2.7696c.1267-.171.4025-.2244.5963-.0733l-2.4594 3.1546c1.5998 1.2473 3.8818.9133 5.0771-.7002zm.5963-.0733c.0042.0033.0083.0066.0122.0099l-2.5833 3.0539c.0366.031.0738.0612.1117.0908zm.0122.0099c-.3933-.3327-.7011-.6024-.9297-.8126l-2.7077 2.9442c.2843.2615.6378.5702 1.0541.9223zm-.9297-.8126c-7.1076-6.5369-11.5869-16.0352-11.5869-26.6211h-4c0 11.7335 4.9693 22.2905 12.8792 29.5653zm-11.5869-26.6211c0-11.3113 5.1146-21.3816 13.085-27.9229l-2.5376-3.092c-8.8734 7.2824-14.5474 18.4768-14.5474 31.0149zm13.085-27.9229c-.5023.4122-1.239.3162-1.6234-.1768l3.1543-2.4598c-.9846-1.2626-2.816-1.4833-4.0685-.4554zm-1.6234-.1768c-.0056-.0072-.0112-.0145-.0166-.0218l3.2141-2.3812c-.0142-.0191-.0286-.038-.0432-.0568zm-.0166-.0218 2.7455 3.7058 3.214-2.3812-2.7454-3.7058zm5.5635 4.1069.0001-.0001-2.422-3.1833h-.0001zm-2.818-.4012c-.3006-.4059-.2443-.9814.1623-1.3201l2.5604 3.0731c1.2386-1.032 1.4406-2.8529.4914-4.1341zm55.8095 24.2548c0 10.5762-4.4777 20.0756-11.5995 26.6481l2.7128 2.9395c7.9175-7.3068 12.8867-17.8615 12.8867-29.5876zm-11.5995 26.6481c-.261.2409-.618.553-1.0788.9407l2.5752 3.0608c.485-.4081.8931-.7636 1.2164-1.062zm1.7491 1.1954-.0002-.0002-3.0807 2.5514.0002.0002zm-2.8281-.2549c.1722-.1449.4319-.1122.563.0496l-3.1074 2.5188c1.2694 1.566 3.5691 1.7969 5.1196.4924zm.563.0496c.003.0037.006.0075.0088.0113l-3.2062 2.3917c.0292.0392.0592.0778.09.1158zm.0088.0113-1.9602-2.6277-3.2062 2.3917 1.9602 2.6277zm-1.9602-2.6278c.1032.1384.0889.3329-.0564.4561l-2.5866-3.0512c-1.477 1.2521-1.7146 3.4435-.5631 4.987zm-.0564.4561c.3898-.3304.7225-.6226.9911-.8725l-2.7248-2.9284c-.2067.1923-.4886.4409-.8529.7497zm.9911-.8725c6.5518-6.0963 10.6579-14.8678 10.6579-24.6053h-4c0 8.5934-3.6195 16.3144-9.3827 21.6769zm10.6579-24.6053c0-9.7595-4.1248-18.5487-10.7025-24.6466l-2.7194 2.9333c5.7859 5.364 9.4219 13.1005 9.4219 21.7133zm-10.7025-24.6466c-.2577-.239-.5753-.5174-.9461-.8316l-2.5859 3.0517c.3458.2931.6145.5296.8126.7132zm-3.7878-.5713v.0001l3.0973 2.5311.0001-.0001zm2.8416-.2603c.1454.1232.1596.3177.0565.456l-3.2062-2.3917c-1.1516 1.5437-.9138 3.7355.5638 4.9875zm.0565.456 1.965-2.6342-3.2062-2.3917-1.965 2.6342zm-.863-2.249h.0001l2.4497-3.1621zm2.828-.3852c-.1222.1639-.3791.2102-.5596.0705l2.4489-3.1628c-1.6038-1.2418-3.8915-.9133-5.0955.7006zm-.5596.0705c-.0038-.003-.0076-.0061-.0114-.0092l2.5698-3.0653c-.0359-.0301-.0724-.0595-.1095-.0883zm-.0114-.0092c.1665.1396.3058.2588.4195.3587l2.6396-3.0055c-.1429-.1254-.3065-.2653-.4893-.4185zm.4195.3587c7.5003 6.587 12.253 16.3405 12.253 27.2364h4c0-12.081-5.2744-22.9183-13.6134-30.2419zm-35.6108 12.609c-.2661.2308-.5033.446-.7041.6422l2.7959 2.8606c.1252-.1224.2989-.2814.5286-.4806zm-.7041.6422c-3.6433 3.5609-5.9091 8.5103-5.9091 13.9832h4c0-4.3439 1.7935-8.277 4.705-11.1226zm-5.9091 13.9832c0 5.5293 2.3127 10.5239 6.0218 14.0925l2.7733-2.8826c-2.9646-2.8522-4.7951-6.8215-4.7951-11.2099zm6.0218 14.0925c.1715.165.3701.3441.5902.5349l2.6196-3.0229c-.1865-.1616-.3302-.2923-.4365-.3946zm.4023-2.3021-.0001.0002 2.9954 2.651.0001-.0002zm.1878 2.8371c-.1551-.1344-.1854-.3813-.0525-.5536l3.1675 2.4427c1.1681-1.5148.9444-3.6643-.4955-4.912zm-.0525-.5536-1.981 2.5688 3.1676 2.4427 1.9809-2.5688zm.8013 2.189-.0003-.0002-2.3969 3.2023.0002.0002zm-2.7825.3796c.1274-.1652.3455-.1867.4981-.0724l-2.398 3.2015c1.5865 1.1883 3.8503.8918 5.0674-.6864zm.4981-.0724c.0059.0044.0117.009.0175.0139l-2.5849 3.0527c.0552.0467.1117.0917.1694.1349zm.0175.0139c-.1844-.1561-.3329-.2864-.4491-.3927l-2.701 2.9504c.1649.1509.3544.3165.5652.495zm-.4491-.3927c-4.4159-4.0427-7.1677-9.8021-7.1677-16.1913h-4c0 7.5675 3.2655 14.38 8.4667 19.1417zm-7.1677-16.1913c0-6.4969 2.8454-12.3429 7.3927-16.3945l-2.661-2.9865c-5.355 4.7713-8.7317 11.6855-8.7317 19.381zm7.3927-16.3945c.0626-.0558.1365-.12.2225-.1932l-2.5915-3.047c-.1044.0888-.202.1735-.292.2537zm-2.5745-.3952.0001.0001 3.0024-2.643zm2.797.2021c-.148.126-.3661.1144-.5005-.0392l3.0093-2.6351c-1.3112-1.4974-3.5885-1.6583-5.1002-.3727zm-.5005-.0392c-.0053-.006-.0104-.0123-.0154-.0187l3.1676-2.4427c-.0458-.0594-.0935-.1173-.1429-.1737zm-.0154-.0187 1.9846 2.5735 3.1675-2.4427-1.9845-2.5735zm2.368-.2476-.0001.0001 2.4007 3.1995.0001-.0001zm-.3835 2.8212c-.1328-.1723-.1025-.4191.0524-.5535l2.6204 3.0222c1.4392-1.2479 1.6626-3.397.4947-4.9114zm34.9162 14.0682c0 6.5055-2.8517 12.3583-7.4075 16.4106l2.6584 2.9887c5.3652-4.7721 8.7491-11.6941 8.7491-19.3993zm-7.4075 16.4106c-.0582.0517-.1262.1109-.2048.1778l2.5931 3.0456c.0962-.0819.1865-.1603.2701-.2347zm-.4112 3.0202.0001.0001 3.0059-2.6391-.0002-.0002zm.2065-2.8423c.1483-.1263.3669-.1146.5015.0391l-3.0089 2.6356c1.3116 1.4974 3.5893 1.6576 5.1005.3709zm.5015.0391c.0053.006.0104.0123.0154.0187l-3.168 2.4421c.0461.0598.094.1181.1437.1748zm.0154.0187-1.9867-2.5772-3.168 2.4421 1.9867 2.5772zm-2.3575.2339.0001-.0001-2.4263-3.1801-.0002.0001zm.371-2.8112c.1325.1719.1026.4182-.0522.5527l-2.6242-3.0188c-1.4362 1.2485-1.6579 3.3952-.4916 4.9082zm-.0522.5527c.3461-.3008.6493-.5788.8983-.8289l-2.835-2.8218c-.1566.1573-.3819.3663-.6875.6319zm.8983-.8289c3.5295-3.5459 5.715-8.4171 5.715-13.7928h-4c0 4.2676-1.7302 8.1381-4.55 10.971zm5.715-13.7928c0-5.3098-2.1323-10.1277-5.5861-13.6622l-2.8609 2.7956c2.7588 2.8232 4.447 6.651 4.447 10.8666zm-5.5861-13.6622c-.2803-.2869-.628-.6079-1.0288-.9571l-2.6276 3.016c.358.3119.6184.5554.7955.7367zm-.8529 1.8854.0001-.0001-2.9793-2.669-.0001.0001zm-.1758-2.8426c.1545.1346.1842.3807.0518.5524l-3.168-2.4421c-1.1654 1.5118-.9451 3.6566.4886 4.9057zm.0518.5524 1.985-2.575-3.168-2.4421-1.985 2.575zm-.7981-2.1954.0001.0001 2.3981-3.2014v-.0001zm2.7832-.3796c-.1274.1653-.3461.1871-.4991.0724l2.3985-3.2011c-1.5865-1.1888-3.8505-.892-5.0674.6866zm-.4991.0724c-.0059-.0044-.0118-.009-.0175-.0139l2.5852-3.0523c-.055-.0467-.1115-.0916-.1692-.1349zm-.0175-.0139c.2226.1885.3992.3441.5341.469l2.7166-2.9361c-.191-.1767-.4143-.3725-.6655-.5852zm.5341.469c4.3651 4.0387 7.0811 9.7654 7.0811 16.1145h4c0-7.5192-3.2227-14.2932-8.3645-19.0506zm-14.9189 23.6167c3.866 0 7-3.134 7-7h-4c0 1.6569-1.3431 3-3 3zm7-7c0-3.866-3.134-7-7-7v4c1.6569 0 3 1.3431 3 3zm-7-7c-3.866 0-7 3.134-7 7h4c0-1.6569 1.3431-3 3-3zm-7 7c0 3.866 3.134 7 7 7v-4c-1.6569 0-3-1.3431-3-3z" mask="url(#a)"/><path clip-rule="evenodd" d="m124 64c0 11.2393-3.09 21.7568-8.468 30.7492-.905-.4783-1.937-.7492-3.032-.7492-3.59 0-6.5 2.9101-6.5 6.5 0 1.746.688 3.331 1.808 4.498-10.9484 11.694-26.5248 19.002-43.808 19.002-14.1092 0-27.0809-4.87-37.3259-13.021.8435-1.466 1.3259-3.166 1.3259-4.979 0-5.523-4.4772-10-10-10-1.4908 0-2.9054.3262-4.1763.9112-6.21062-9.4495-9.8237-20.7584-9.8237-32.9112 0-33.1371 26.8629-60 60-60 12.1037 0 23.3702 3.58392 32.7965 9.7484-.5161 1.4886-.7965 3.0874-.7965 4.7516 0 8.0081 6.492 14.5 14.5 14.5 1.554 0 3.05-.2444 4.454-.6968 5.733 9.1975 9.046 20.0603 9.046 31.6968zm-60 62c-14.5441 0-27.9185-5.008-38.493-13.393-1.8325 2.08-4.5164 3.393-7.507 3.393-5.5228 0-10-4.477-10-10 0-3.315 1.61332-6.2538 4.0977-8.0732-6.3849-9.7479-10.0977-21.4038-10.0977-33.9268 0-34.2417 27.7583-62 62-62 12.3812 0 23.9148 3.62921 33.595 9.8819 2.405-4.68017 7.281-7.8819 12.905-7.8819 8.008 0 14.5 6.4919 14.5 14.5 0 5.7357-3.33 10.6936-8.163 13.0454 5.811 9.4403 9.163 20.556 9.163 32.4546 0 11.688-3.234 22.6206-8.856 31.9517 1.148 1.1723 1.856 2.7776 1.856 4.5483 0 3.59-2.91 6.5-6.5 6.5-1.12 0-2.174-.283-3.094-.782-11.3204 12.169-27.4742 19.782-45.406 19.782zm-38-20c0 1.329-.324 2.582-.8974 3.685-3.8208-3.256-7.2281-6.983-10.132-11.0915.9344-.3826 1.9573-.5935 3.0294-.5935 4.4183 0 8 3.582 8 8zm-2.0411 5.338c-4.0609-3.439-7.6734-7.39-10.7376-11.7546-1.9552 1.4586-3.2213 3.7896-3.2213 6.4166 0 4.418 3.5817 8 8 8 2.3671 0 4.4942-1.028 5.9589-2.662zm75.3115-98.335c2.0346-4.14758 6.2986-7.003 11.2296-7.003 6.904 0 12.5 5.5964 12.5 12.5 0 5.0274-2.968 9.3616-7.247 11.3461-4.371-6.6099-9.974-12.3334-16.4826-16.8431zm-.7499 1.9161c6.0045 4.2308 11.1975 9.5356 15.3005 15.635-1.058.2907-2.171.4459-3.321.4459-6.904 0-12.5-5.5964-12.5-12.5 0-1.2445.1819-2.4465.5205-3.5809zm13.9795 81.0809c.708 0 1.378.1635 1.973.4547-1.6 2.4837-3.379 4.8413-5.318 7.0563-.718-.798-1.155-1.853-1.155-3.011 0-2.4853 2.015-4.5 4.5-4.5zm3.538 1.7189c-1.584 2.4401-3.336 4.7621-5.238 6.9491.525.214 1.098.332 1.7.332 2.485 0 4.5-2.015 4.5-4.5 0-1.0498-.359-2.0156-.962-2.7811zm-6.038-33.7189c0 25.4051-20.5949 46-46 46s-46-20.5949-46-46c0-23.7542 18.0052-43.303 41.1125-45.7434.592 3.2663 3.4505 5.7434 6.8875 5.7434 3.2319 0 5.9522-2.1902 6.7577-5.1674 21.2166 4.0896 37.2423 22.757 37.2423 45.1674zm-37.0017-47.158c22.2086 4.212 39.0017 23.7239 39.0017 47.158 0 26.5097-21.4903 48-48 48s-48-21.4903-48-48c0-24.8347 18.8605-45.2643 43.0394-47.7468.3727-3.5149 3.3469-6.2532 6.9606-6.2532 3.8132 0 6.9143 3.049 6.9983 6.842zm-11.9152-.7548c.429-2.3256 2.4672-4.0872 4.9169-4.0872 2.5938 0 4.7262 1.975 4.9756 4.5032-2.2773-.3315-4.6064-.5032-6.9756-.5032-.9794 0-1.952.0293-2.9169.0872zm.0358 2.0016c.9528-.0589 1.9135-.0888 2.8811-.0888 2.3009 0 4.5624.1689 6.7726.4951-.6356 2.0311-2.532 3.5049-4.7726 3.5049-2.3875 0-4.3842-1.6734-4.8811-3.9112z" fill-opacity=".2" fill-rule="evenodd"/><path d="m67 74.5859-.5443-1.9245-1.4557.4118v1.5127zm-6 0h2v-1.5127l-1.4557-.4118zm12-10.5859c0 4.1167-2.7657 7.5927-6.5443 8.6614l1.0886 3.849c5.4554-1.5429 9.4557-6.5569 9.4557-12.5104zm-9-9c4.9706 0 9 4.0294 9 9h4c0-7.1797-5.8203-13-13-13zm-9 9c0-4.9706 4.0294-9 9-9v-4c-7.1797 0-13 5.8203-13 13zm6.5443 8.6614c-3.7786-1.0687-6.5443-4.5447-6.5443-8.6614h-4c0 5.9535 4.0003 10.9675 9.4557 12.5104zm1.4557 29.3386v-27.4141h-4v27.4141zm0 0h-4c0 2.209 1.7909 4 4 4zm2 0h-2v4h2zm0 0v4c2.2091 0 4-1.791 4-4zm0-27.4141v27.4141h4v-27.4141z" mask="url(#b)"/></g></svg>
