<svg fill="none" viewBox="0 0 64 64" xmlns="http://www.w3.org/2000/svg"><path clip-rule="evenodd" d="m43 33.5c0 6.3513-5.1487 11.5-11.5 11.5-.1675 0-.3342-.0036-.5-.0107v.0107h-15v-.0153c-.1653.0101-.332.0153-.5.0153-4.1421 0-7.5-3.134-7.5-7s3.3579-7 7.5-7c1.7104 0 3.287.5344 4.5488 1.434.5378-5.8515 5.4594-10.434 11.4512-10.434 6.3513 0 11.5 5.1487 11.5 11.5z" fill="currentColor" fill-opacity=".2" fill-rule="evenodd"/><path d="m16.505 28.4035.9038.1688.244-.8864c1.8579-6.7498 7.9626-11.6859 15.1887-11.6859 5.1597 0 9.7444 2.5141 12.6245 6.4117l.281.3803.4723.0241c6.5494.3339 11.7807 5.8289 11.7807 12.5839 0 6.9718-5.5711 12.6-12.4146 12.6h-30.8537c-5.36177 0-9.7317-4.4104-9.7317-9.88s4.36993-9.88 9.7317-9.88c.6064 0 1.199.0562 1.7733.1635z" stroke="currentColor" stroke-width="2"/></svg>
