<svg fill="none" viewBox="0 0 128 128" xmlns="http://www.w3.org/2000/svg"><path d="m35.8832 52.9376.8987.1656.2457-.8802c3.778-13.5384 16.2027-23.4691 30.9442-23.4691 10.5236 0 19.8653 5.0594 25.7261 12.8828l.2813.3756.4688.0235c13.477.6777 24.196 11.8203 24.196 25.4659 0 14.0824-11.416 25.4985-25.4986 25.4985h-60.9466c-11.1555 0-20.1988-9.0433-20.1988-20.1988s9.0433-20.1988 20.1988-20.1988c1.2591 0 2.4905.1151 3.6844.335z" stroke="currentColor" stroke-width="2"/><g clip-rule="evenodd" fill-rule="evenodd"><path d="m96.5011 93.7897-3.1992-3.1992c8.4741-2.4949 14.6601-10.3321 14.6601-19.6141 0-11.2907-9.1532-20.4437-20.4439-20.4437-4.6198 0-8.8817 1.5323-12.3051 4.1165.0257-.3953.0388-.7941.0388-1.196 0-10.0004-8.1069-18.1073-18.1073-18.1073-5.2494 0-9.9772 2.2338-13.2844 5.8028l-1.3994-1.3994c6.0756-7.328 15.2483-11.9954 25.5111-11.9954 10.852 0 20.485 5.2186 26.5264 13.2832 14.0058.7043 25.1458 12.2835 25.1458 26.4646 0 13.498-10.092 24.6388-23.1429 26.288z" fill="currentColor" fill-opacity=".2"/><path d="m56.7094 119.629c-.4595 1.189.4932 2.371 1.7675 2.371h7.1064 57.4167c1.105 0 2.011-.898 1.896-1.997-1.064-10.108-10.117-18.003-21.127-18.003-8.1826 0-15.2842 4.361-18.8285 10.75-3.1061-2.543-7.1632-4.083-11.6021-4.083-7.6442 0-14.1562 4.567-16.629 10.962z" stroke="currentColor" stroke-opacity=".2" stroke-width="2"/><path d="m54.0314 29.7218c-1.4282-12.7833-12.2714-22.7218-25.4359-22.7218-14.136 0-25.5955 11.4595-25.5955 25.5955 0 10.3071 6.09243 19.1913 14.8726 23.2478-.5472.4628-1.0717.9515-1.5716 1.4643-9.07021-4.5212-15.301-13.889-15.301-24.7121 0-15.2406 12.3549-27.5955 27.5955-27.5955 13.9984 0 25.5623 10.423 27.3543 23.9316-.6491.2444-1.2888.508-1.9184.7902z" fill="currentColor" fill-opacity=".2"/><path d="m48.5 88h-14.5v-.0693c-.4936.0458-.994.0693-1.5.0693-8.5604 0-15.5-6.7157-15.5-15s6.9396-15 15.5-15c5.6581 0 10.608 2.9339 13.3142 7.3153.8616-.2061 1.761-.3153 2.6858-.3153 6.3513 0 11.5 5.1487 11.5 11.5 0 6.1837-4.8807 11.2275-11 11.4893v.0107z" fill="currentColor" fill-opacity=".2"/></g><path d="m94 28h28.627c.924 0 1.763-.4206 2.289-1.0903.538-.6835.744-1.6279.369-2.5622-1.473-3.6719-4.704-6.3475-8.577-6.3475-1.954 0-3.754.6861-5.242 1.8376-1.967-3.4678-5.364-5.8376-9.312-5.8376-5.6582 0-10.1505 4.8313-11.0046 10.8656-.2535 1.7912 1.2386 3.1344 2.8506 3.1344z" stroke="currentColor" stroke-opacity=".2" stroke-width="2"/></svg>
