<svg fill="none" viewBox="0 0 128 128" xmlns="http://www.w3.org/2000/svg"><path clip-rule="evenodd" d="m7 7h55c1.1046 0 2 .89543 2 2v15h2v-15c0-2.20914-1.7909-4-4-4h-55c-2.20914 0-4 1.79086-4 4v41c0 2.2091 1.79086 4 4 4h17v-2h-17c-1.10457 0-2-.8954-2-2v-41c0-1.10457.89543-2 2-2zm17 70h-6c-2.2091 0-4 1.7909-4 4v31c0 2.209 1.7909 4 4 4h36c2.2091 0 4-1.791 4-4v-7h-2v7c0 1.105-.8954 2-2 2h-36c-1.1046 0-2-.895-2-2v-31c0-1.1046.8954-2 2-2h6zm59 28v15c0 2.209 1.7909 4 4 4h35c2.209 0 4-1.791 4-4v-45c0-2.2091-1.791-4-4-4h-6v-7c0-2.2091-1.791-4-4-4h-6v2h6c1.105 0 2 .8954 2 2v7h-8v2h8v6c0 1.1046-.895 2-2 2h-6v2h6c2.209 0 4-1.7909 4-4v-6h6c1.105 0 2 .8954 2 2v45c0 1.105-.895 2-2 2h-35c-1.1046 0-2-.895-2-2v-15zm23-68h5c2.209 0 4-1.7909 4-4v-15c0-2.2091-1.791-4-4-4h-24c-2.2091 0-4 1.7909-4 4v6h2v-6c0-1.1046.8954-2 2-2h24c1.105 0 2 .8954 2 2v15c0 1.1046-.895 2-2 2h-5z" fill="currentColor" fill-opacity=".2" fill-rule="evenodd"/><path d="m26 26h78v16h-78z" fill="currentColor" fill-opacity=".2"/><g stroke="currentColor" stroke-width="2"><path d="m54 63.5-12 6.5882 12 7.4118" stroke-linecap="round" stroke-linejoin="round"/><path d="m76 63.5 12 6.5882-12 7.4118" stroke-linecap="round" stroke-linejoin="round"/><path d="m70.5 58.5-12.5 25" stroke-linecap="round"/><rect height="77" rx="3" width="78" x="26" y="26"/><path d="m27 42h76"/><circle cx="34" cy="34" r="3"/><circle cx="44" cy="34" r="3"/><circle cx="54" cy="34" r="3"/></g></svg>
