<svg fill="none" viewBox="0 0 128 128" xmlns="http://www.w3.org/2000/svg"><path clip-rule="evenodd" d="m63.5 18c31.7688 0 57.5 25.6619 57.5 57.3451 0 8.4584-1.869 16.4868-5.031 23.6549h-16.8722v-59.6976c0-1.7631-1.4201-3.2056-3.1557-3.2056h-62.1669v62.9032h-22.5992c-3.30625-7.1681-5.175-15.1965-5.175-23.6549 0-31.6832 25.7312-57.3451 57.5-57.3451z" fill="currentColor" fill-opacity=".2" fill-rule="evenodd"/><path d="m5 100h118.016" stroke="currentColor" stroke-linecap="round" stroke-linejoin="round" stroke-miterlimit="10" stroke-width="2"/><path d="m33.8571 36.24c0-1.3176-1.1428-2.24-2.4285-2.24-1.4286 0-2.4286 1.0541-2.4286 2.24v63.76h5v-63.76z" stroke="currentColor" stroke-linecap="round" stroke-linejoin="round" stroke-miterlimit="10" stroke-width="2"/><g fill="currentColor"><path clip-rule="evenodd" d="m92.9286 37.2056c0-.5523-.4477-1-1-1s-1 .4477-1 1v5.0794h-5.3741v-4.0794c0-.5523-.4477-1-1-1s-1 .4477-1 1v4.0794h-5.4436v-4.0794c0-.5523-.4477-1-1-1s-1 .4477-1 1v4.0794h-5.4436v-4.0794c0-.5523-.4477-1-1-1s-1 .4477-1 1v4.0794h-5.4436v-4.0794c0-.5523-.4477-1-1-1s-1 .4477-1 1v4.0794h-5.4436v-4.0794c0-.5523-.4477-1-1-1s-1 .4477-1 1v4.0794h-5.4436v-4.0794c0-.5523-.4477-1-1-1s-1 .4477-1 1v4.0794h-5.4436v-4.0794c0-.5523-.4477-1-1-1s-1 .4477-1 1v4.0794h-4.7143c-.5523 0-1 .4477-1 1s.4477 1 1 1h4.7143v5.6393h-3.7143c-.5523 0-1 .4477-1 1s.4477 1 1 1h3.7143v5.6793h-3.7143c-.5523 0-1 .4477-1 1s.4477 1 1 1h3.7143v5.6793h-3.7143c-.5523 0-1 .4477-1 1s.4477 1 1 1h3.7143v5.6793h-3.7143c-.5523 0-1 .4477-1 1s.4477 1 1 1h3.7143v5.6794h-3.7143c-.5523 0-1 .4477-1 1 0 .5522.4477 1 1 1h3.7143v5.6793h-3.7143c-.5523 0-1 .4477-1 1s.4477 1 1 1h3.7143v.6883l4.7431-2.6883h-2.7431v-5.6793h5.4436v4.1487l1.2114-.6866c.2548-.1285.5095-.2111.7886-.2724v-3.1897h5.4436v4.9251l5.4601 2.7542h1.9835v1.0005l2 1.0088v-2.0093h4.7662l2.6774-2.6015v-5.0778h5.226l2.2176-2.1548v-5.5246h5.4436v3.3749c.0027.0014.0053.0027.008.004l1.992.9386v-4.3175h5.3741v5.6794h-2.4836l4.4836 2.1124v-.1124h3.8928c.5523 0 1-.4478 1-1 0-.5523-.4477-1-1-1h-3.8928v-5.6794h3.8928c.5523 0 1-.4477 1-1s-.4477-1-1-1h-3.8928v-5.6793h3.8928c.5523 0 1-.4477 1-1s-.4477-1-1-1h-3.8928v-5.6793h3.8928c.5523 0 1-.4477 1-1s-.4477-1-1-1h-3.8928v-5.6793h3.8928c.5523 0 1-.4477 1-1s-.4477-1-1-1h-3.8928v-5.6393h4.8928c.5523 0 1-.4477 1-1s-.4477-1-1-1h-4.8928zm-52.0357 12.7187v-5.6393h5.4436v5.6393zm0 7.6793v-5.6793h5.4436v5.6793zm0 7.6793v-5.6793h4.3023c.5022-.3788 1.1273-.6034 1.8048-.6034s1.3026.2246 1.8048.6034h4.9753v5.6793h-5.4436v-.5961c-.4024.2006-.8563.3134-1.3365.3134-.228 0-.4501-.0254-.6635-.0736v.3563zm0 7.6793v-5.6793h5.4436v5.6793zm0 7.6794v-5.6794h5.4436v5.6794zm7.4436 0h5.4436v-5.6794h-5.4436zm0-7.6794h5.4436v-5.6793h-5.4436zm0-15.3586h5.4436v-5.6793h-5.4436zm0-7.6793h5.4436v-5.6393h-5.4436zm7.4436 0v-5.6393h5.4436v5.6393zm0 7.6793v-5.6793h5.4436v5.6793zm0 7.6793v-5.6793h5.4436v5.6793zm0 7.6793v-5.6793h5.4436v4.9774c1.0469.4682 1.7763 1.5189 1.7763 2.7399s-.7294 2.2716-1.7763 2.7399v2.9015h-5.4436v-5.6794h1.2202c.0095-.7718.3106-1.4735.7982-2zm0 15.3587v-5.6793h5.4436v5.6793zm7.4436 0h5.4436v-5.6793h-5.4436zm0-7.6793h5.4436v-5.6794h-5.4436zm0-7.6794h5.4436v-5.6793h-5.4436zm0-7.6793h5.4436v-5.6793h-5.4436zm0-7.6793h5.4436v-5.6793h-5.4436zm0-7.6793h5.4436v-5.6393h-5.4436zm7.4436 0v-5.6393h5.4436v3.5835c.549.5437.8891 1.298.8891 2.1317s-.3401 1.588-.8891 2.1317v5.4717h-5.4436v-5.6793h1.0309c-.4358-.5209-.6982-1.1919-.6982-1.9241 0-.0254.0003-.0507.001-.0759zm0 15.3586v-5.6793h5.4436v5.6793zm0 7.6793v-5.6793h5.4436v5.6793zm0 7.6794v-5.6794h5.4436v5.6794zm7.4436-7.6794h5.4436v-5.6793h-5.4436zm0-7.6793h5.4436v-5.6793h-5.4436zm0-7.6793h5.4436v-5.6793h-5.4436zm0-7.6793h5.4436v-5.6393h-5.4436zm7.4436 0v-5.6393h5.3741v5.6393zm0 7.6793v-5.6793h5.3741v5.6793zm4.1013 2c-.5024-.9534-1.5032-1.6034-2.6558-1.6034-1.6568 0-3 1.3431-3 3 0 1.1328.6279 2.1189 1.5545 2.6294v1.6533h5.3741v-5.6793zm-4.1013 13.3586v-5.6793h5.3741v5.6793z" fill-opacity=".2" fill-rule="evenodd"/><path clip-rule="evenodd" d="m33 37c0-.5523.4477-1 1-1h61.3913c2.0018 0 3.6087 1.6551 3.6087 3.65v4.835c.0002.0106.0002.0213 0 .0319v40.6263 14.8568c0 .552-.4477 1-1 1h-64c-.3452 0-.6495-.175-.8292-.441-.1078-.159-.1708-.352-.1708-.559v-6.2179-.0023-17.2756-.0091zm64 2.65v4.5605l-8.3175 13.1595c-.5115-.2375-1.0815-.37-1.6825-.37-.8693 0-1.6739.2773-2.33.7483l-6.8903-6.436c.1428-.4111.2203-.8526.2203-1.3123 0-2.2091-1.7909-4-4-4s-4 1.7909-4 4c0 .866.2752 1.6678.743 2.3226l-9.7592 18.7993c-.3147-.0796-.6443-.1219-.9838-.1219-.5549 0-1.0833.113-1.5637.3172l-7.7535-7.7535c.2042-.4804.3172-1.0088.3172-1.5637 0-2.2091-1.7909-4-4-4s-4 1.7909-4 4c0 .825.2498 1.5916.6778 2.2285l-8.6778 9.6616v-35.8901h60.3913c.8678 0 1.6087.7299 1.6087 1.65zm-62 52.4159v-15.1827l10.1714-11.3247c.5481.2822 1.1697.4415 1.8286.4415.9238 0 1.7744-.3132 2.4516-.8391l7.3875 7.3875c-.5259.6772-.8391 1.5278-.8391 2.4516 0 2.2091 1.7909 4 4 4s4-1.7909 4-4c0-1.1499-.4852-2.1865-1.2621-2.9162l9.5798-18.4537c.5114.2374 1.0814.3699 1.6823.3699 1.0171 0 1.9455-.3796 2.6514-1.0049l6.7339 6.2899c-.2471.5198-.3853 1.1012-.3853 1.715 0 2.2091 1.7909 4 4 4s4-1.7909 4-4c0-.8775-.2825-1.6889-.7616-2.3484l6.7616-10.6978v35.6128l-13.0005-6.1252c-.6311-.3143-1.5836-.508-2.4035-.42-.8059.0146-1.6876.3099-2.2265.8479l-14.5555 14.1429-13.6427-6.8815c-.6624-.3342-1.3084-.4273-2.0369-.4273-.0418 0-.0836.0026-.1251.0079-.6395.0806-1.2683.1748-1.9118.4994-.0144.0073-.0286.0149-.0427.0229zm48.1362-12.8204 13.8638 6.532v13.2225h-62v-4.6352l13.0178-7.3781c.292-.1434.6026-.2088 1.1778-.283.503.005.7966.0722 1.075.2127l14.2789 7.2024c.3808.192.8414.1215 1.1473-.1757l15.0721-14.6449.0134-.0132c.0244-.0247.1194-.0972.303-.1633.1743-.0628.3772-.1009.5733-.1009.0418 0 .0836-.0026.1251-.0078.4299-.0543 1.0234.0669 1.3284.2208.008.004.016.0079.0241.0117zm-34.1374-17.3163c-.0373-1.0718-.9179-1.9292-1.9988-1.9292-1.1046 0-2 .8954-2 2 0 .2238.0368.439.1046.6399.226.6697.7969 1.1806 1.5015 1.3213.1273.0255.2591.0388.3939.0388.3703 0 .7172-.1007 1.0146-.2761.5897-.3478.9854-.9897.9854-1.7239 0-.0237-.0004-.0473-.0012-.0708zm9.0012 13.0708c0-.3703.1007-.7172.2761-1.0146.3478-.5897.9897-.9854 1.7239-.9854.7443 0 1.3937.4066 1.738 1.0098.1667.2919.262.6299.262.9902 0 1.1046-.8954 2-2 2s-2-.8954-2-2zm29.5953-15.9099c-.1881-.0586-.388-.0901-.5953-.0901-.2875 0-.5609.0607-.808.1699-.6448.2851-1.1106.901-1.1824 1.6324-.0063.065-.0096.131-.0096.1977 0 1.1046.8954 2 2 2s2-.8954 2-2c0-.1169-.01-.2314-.0293-.3428-.1284-.7437-.6676-1.3467-1.3754-1.5671zm-13.5953-11.0901c.9758 0 1.7884.6989 1.9646 1.6234.0232.122.0354.2479.0354.3766 0 .6648-.3244 1.2539-.8235 1.6175-.3301.2406-.7367.3825-1.1765.3825-.2686 0-.5248-.0529-.7588-.149-.7283-.2988-1.2412-1.015-1.2412-1.851 0-.0004 0-.0008 0-.0012.0007-1.104.8958-1.9988 2-1.9988z" fill-rule="evenodd"/><path d="m25.4694 103c-.5523 0-1 .448-1 1s.4477 1 1 1zm78.2656 2c.552 0 1-.448 1-1s-.448-1-1-1zm-69.8371 2c-.5523 0-1 .448-1 1s.4477 1 1 1zm60.2041 2c.5523 0 1-.448 1-1s-.4477-1-1-1zm-54.1837 2c-.5522 0-1 .448-1 1s.4478 1 1 1zm49.3674 2c.5523 0 1-.448 1-1s-.4477-1-1-1zm-39.7347 2c-.5523 0-1 .448-1 1s.4477 1 1 1zm30.102 2c.5523 0 1-.448 1-1s-.4477-1-1-1zm-22.8775 2c-.5523 0-1 .448-1 1s.4477 1 1 1zm14.449 2c.5522 0 1-.448 1-1s-.4478-1-1-1zm-45.7551-16h78.2656v-2h-78.2656zm8.4285 4h60.2041v-2h-60.2041zm6.0204 4h49.3674v-2h-49.3674zm9.6327 4h30.102v-2h-30.102zm7.2245 4h14.449v-2h-14.449z" fill-opacity=".2"/></g></svg>
