<svg fill="none" viewBox="0 0 128 128" xmlns="http://www.w3.org/2000/svg"><path d="m98.5763 15.1936h-58.5719c-1.1833 0-1.9721.1184-1.9721.296v9.5104h1.9721 51.4956c1.6569 0 3 1.3431 3 3v71.5h6.661c0-18.5484.339-78.5.339-83l-.952-1.0104c0-.1776-.9856-.296-1.9717-.296z" fill="currentColor" fill-opacity=".2"/><path d="m89.8207 111.9h-60.5825c-1.2239 0-2.0398-.816-2.0398-2.04v-80.369c0-1.2239.8159-2.0398 2.0398-2.0398h60.5825c1.2239 0 2.0398.8159 2.0398 2.0398v80.369c0 1.224-1.0199 2.04-2.0398 2.04z" stroke="currentColor" stroke-linecap="round" stroke-linejoin="round" stroke-miterlimit="10" stroke-width="2"/><path clip-rule="evenodd" d="m39.0322 17.2364c0-.3904.1242-.6359.2657-.7797.1401-.1424.3739-.2633.7451-.2633h59.7204c.3716 0 .6046.1209.7446.2633.142.1438.266.3893.266.7797v80.4946c0 .6241-.507 1.043-1.0106 1.043h-5.1183v2h5.1183c1.5066 0 3.0106-1.2156 3.0106-3.043v-80.4946c0-.8355-.278-1.6114-.84-2.1827-.564-.5726-1.335-.8603-2.1706-.8603h-59.7204c-.8353 0-1.6069.2877-2.1705.8603-.5622.5713-.8403 1.3472-.8403 2.1827v7.5376h2z" fill="currentColor" fill-rule="evenodd"/><g stroke="currentColor" stroke-width="2"><path d="m60 46h21" stroke-linecap="round"/><path d="m38 56h43" stroke-linecap="round"/><path d="m39 66h42" stroke-linecap="round"/><path d="m39 76h42" stroke-linecap="round"/><path d="m39 86h42" stroke-linecap="round"/><path d="m39 96h25" stroke-linecap="round"/><circle cx="77.5" cy="97.5" r="4.5"/><rect fill="currentColor" fill-opacity=".2" height="10" rx="1" width="16" x="36" y="36"/></g><path clip-rule="evenodd" d="m25 54h-18c-1.10457 0-2-.8954-2-2v-27c0-1.1046.89543-2 2-2h29v-2h-29c-2.20914 0-4 1.7909-4 4v27c0 2.2091 1.79086 4 4 4h18zm0 41h-8c-2.2091 0-4 1.7909-4 4v21c0 2.209 1.7909 4 4 4h33c2.2091 0 4-1.791 4-4v-6h-2v6c0 1.105-.8954 2-2 2h-33c-1.1046 0-2-.895-2-2v-21c0-1.1046.8954-2 2-2h8zm79-9h17c2.209 0 4-1.7909 4-4v-24c0-2.2091-1.791-4-4-4h-17v2h17c1.105 0 2 .8954 2 2v24c0 1.1046-.895 2-2 2h-17zm0-40h12c2.209 0 4-1.7909 4-4v-11c0-2.2091-1.791-4-4-4h-12v2h12c1.105 0 2 .8954 2 2v11c0 1.1046-.895 2-2 2h-12z" fill="currentColor" fill-opacity=".2" fill-rule="evenodd"/><path clip-rule="evenodd" d="m27 97.3225v14.7095h63.7419v-55.1611-23.2903zm50.5 7.6775c4.1421 0 7.5-3.358 7.5-7.5001s-3.3579-7.5-7.5-7.5-7.5 3.3579-7.5 7.5 3.3579 7.5001 7.5 7.5001z" fill="currentColor" fill-opacity=".2" fill-rule="evenodd"/></svg>
