<svg fill="none" viewBox="0 0 64 64" xmlns="http://www.w3.org/2000/svg"><path d="m50.5631 43.4626-.0006-.0008-4.6062-6.2542c-.001-.0014-.002-.0027-.003-.0041-.2041-.2813-.4662-.5155-.7686-.6869-.3038-.1722-.6413-.2769-.9892-.3069-.348-.03-.6984.0153-1.0272.1329-.3267.1169-.6246.3023-.8736.5438l-3.9128 3.7242-10.3262-14.0199c-.0001-.0002-.0003-.0004-.0005-.0006-.2326-.3167-.5386-.5723-.8918-.7449-.3534-.1726-.7434-.2569-1.1365-.2456-.3931.0114-.7776.1179-1.1205.3106-.3425.1924-.6332.465-.8472.7944-.0003.0004-.0005.0008-.0008.0012l-10.9988 16.8705-.001.0015c-.241.3711-.3762.8011-.3908 1.2434s.0919.8803.308 1.2665c.216.3862.5335.7062.918.9252.3804.2167.8122.3265 1.2498.318h33.4083c.4494.0098.8928-.1052 1.281-.3325.3927-.23.713-.5657.9243-.9688s.3051-.8574.2708-1.3113c-.0343-.4538-.1954-.8889-.4649-1.2557z" stroke="currentColor" stroke-width="2"/><path clip-rule="evenodd" d="m22.9044 30.3071 12.1893 16.0241h-19.9611c-.2603.0066-.5175-.058-.7438-.1869s-.4132-.3172-.5403-.5445c-.1272-.2273-.1898-.485-.1812-.7453s.0881-.5133.23-.7317z" fill="currentColor" fill-opacity=".2" fill-rule="evenodd"/><path d="m42.2516 27.3689c2.7712 0 5.0177-2.2465 5.0177-5.0177s-2.2465-5.0177-5.0177-5.0177-5.0177 2.2465-5.0177 5.0177 2.2465 5.0177 5.0177 5.0177z" fill="currentColor" fill-opacity=".2"/><g stroke="currentColor" stroke-width="2"><path d="m42.2516 28.3689c3.3235 0 6.0177-2.6942 6.0177-6.0177s-2.6942-6.0177-6.0177-6.0177-6.0177 2.6942-6.0177 6.0177 2.6942 6.0177 6.0177 6.0177z"/><rect height="42" rx="3" width="52" x="6" y="11"/></g></svg>
