<svg fill="none" viewBox="0 0 128 128" xmlns="http://www.w3.org/2000/svg"><g clip-rule="evenodd" fill-rule="evenodd"><path d="m68.4285 17-31.4285 54.25h23.5712l7.8573-15.5z" fill="currentColor" fill-opacity=".2"/><path d="m62.6411 23h-41.6411c-2.2091 0-4 1.7909-4 4v19c0 2.2091 1.7909 4 4 4h25.9993l1.1586-2h-27.1579c-1.1046 0-2-.8954-2-2v-19c0-1.1046.8954-2 2-2h40.4824zm7.7874 25h4.5715c1.1046 0 2-.8954 2-2v-19c0-1.1046-.8954-2-2-2h-4.5715v-2h4.5715c2.2091 0 4 1.7909 4 4v19c0 2.2091-1.7909 4-4 4h-4.5715zm6.9374 37h8.6341v-14.9036l2-3.4522v18.3558h17c2.209 0 4 1.7909 4 4v3h5c1.105 0 2-.8954 2-2v-36c0-1.1046-.895-2-2-2h-24c-1.0199 0-1.8615.7634-1.9845 1.75h-2.0078c.1291-2.0927 1.8671-3.75 3.9923-3.75h24c2.209 0 4 1.7909 4 4v36c0 2.2091-1.791 4-4 4h-5v12c0 2.209-1.791 4-4 4h-33c-2.2091 0-4-1.791-4-4v-4.833l2-3.4526v8.2856c0 1.105.8954 2 2 2h33c1.105 0 2-.895 2-2v-12h-17c-2.2091 0-4-1.7909-4-4v-3h-9.7928zm-39.6359-19h-14.73c-2.2091 0-4 1.7909-4 4v30c0 2.209 1.7909 4 4 4h26c2.2091 0 4-1.791 4-4v-26.7501h-2v26.7501c0 1.105-.8954 2-2 2h-26c-1.1046 0-2-.895-2-2v-30c0-1.1046.8954-2 2-2h13.5714zm69.27 23v3h-17c-1.1046 0-2-.8954-2-2v-3h17c1.105 0 2 .8954 2 2z" fill="currentColor" fill-opacity=".2"/><path d="m68.4285 17-31.4285 54.25h23.5712v38.75l31.4288-54.25h-23.5715z" stroke="currentColor" stroke-linejoin="round" stroke-width="2"/></g></svg>
