<svg fill="none" viewBox="0 0 128 128" xmlns="http://www.w3.org/2000/svg"><path clip-rule="evenodd" d="m3 64c0-33.6894 27.3106-61 61-61 13.8839 0 26.6845 4.63844 36.937 12.4502-1.8328 2.1748-2.937 4.9833-2.937 8.0498 0 6.9036 5.596 12.5 12.5 12.5 2.451 0 4.738-.7057 6.668-1.925 4.987 8.8412 7.832 19.0508 7.832 29.925 0 33.6894-27.3106 61-61 61-10.2351 0-19.8815-2.521-28.3521-6.975.8597-1.477 1.3521-3.193 1.3521-5.025 0-5.523-4.4772-10-10-10-2.8226 0-5.3721 1.169-7.1904 3.05-10.41607-10.9426-16.8096-25.7496-16.8096-42.05zm15.5588 43.636c-10.87455-11.3215-17.5588-26.6981-17.5588-43.636 0-34.7939 28.2061-63 63-63 14.4331 0 27.7326 4.85347 38.355 13.0174 2.188-1.8807 5.034-3.0174 8.145-3.0174 6.904 0 12.5 5.5964 12.5 12.5 0 3.7274-1.631 7.0738-4.219 9.364 5.231 9.1837 8.219 19.8109 8.219 31.136 0 34.7939-28.2061 63-63 63-10.6748 0-20.7295-2.655-29.5399-7.341-1.8312 2.05-4.495 3.341-7.4601 3.341-5.5228 0-10-4.477-10-10 0-1.974.5718-3.814 1.5588-5.364zm14.0947 11.024c-1.4475 1.446-3.4461 2.34-5.6535 2.34-4.4183 0-8-3.582-8-8 0-1.416.3677-2.745 1.0127-3.899 3.7828 3.69 8.0281 6.908 12.6408 9.559zm1.2387-1.596c-4.6407-2.639-8.9014-5.868-12.6797-9.587 1.4568-1.526 3.5111-2.477 5.7875-2.477 4.4183 0 8 3.582 8 8 0 1.484-.4039 2.873-1.1078 4.064zm83.8478-85.9595c2.008-1.9125 3.26-4.6124 3.26-7.6045 0-5.799-4.701-10.5-10.5-10.5-2.475 0-4.75.8562-6.545 2.2886 5.428 4.457 10.097 9.8032 13.785 15.8159zm-15.232-14.4155c-1.564 1.8335-2.508 4.212-2.508 6.811 0 5.799 4.701 10.5 10.5 10.5 2.083 0 4.023-.6063 5.656-1.652-3.63-5.969-8.256-11.2656-13.648-15.659zm-80.508 18.311c0-2.7614 2.2386-5 5-5 .9 0 1.7445.2378 2.474.654-2.2911 2.3716-4.3401 4.9786-6.1071 7.7813-.8473-.8959-1.3669-2.1049-1.3669-3.4353zm8.9803-3.0266c-2.2465 2.3157-4.2515 4.8669-5.9744 7.6131.6109.266 1.2853.4135 1.9941.4135 2.7614 0 5-2.2386 5-5 0-1.1376-.3799-2.1864-1.0197-3.0266zm-3.9803 10.0266c-1.0838 0-2.1101-.2463-3.026-.686-3.8025 6.6945-5.974 14.4367-5.974 22.686 0 9.6694 2.9834 18.642 8.08 26.0474-.3832.6183-.7587 1.3192-1.0248 2.0175-5.6978-7.8927-9.0552-17.5867-9.0552-28.0649 0-8.6622 2.2945-16.7886 6.309-23.8043-1.418-1.281-2.309-3.1343-2.309-5.1957 0-3.866 3.134-7 7-7 1.4576 0 2.8111.4455 3.9318 1.2077 8.6087-8.1847 20.2519-13.2077 33.0682-13.2077 26.5097 0 48 21.4903 48 48 0 9.4039-2.704 18.1763-7.378 25.5817-.041-.0605-.082-.1198-.122-.1778-.365-.5319-.748-1.0516-1.157-1.5554 4.224-6.9542 6.657-15.1173 6.657-23.8485 0-22.8524-16.6642-41.8128-38.5037-45.3922-2.1258-.9844-4.4099-1.5453-6.6838-1.5453-2.038 0-4.1669.4505-6.2258 1.2527-10.0826 1.1819-19.1684 5.6246-26.1746 12.245.9923 1.2082 1.5879 2.7544 1.5879 4.4398 0 3.866-3.134 7-7 7zm3.4774 53.5c8.3905 8.926 20.3056 14.5 33.5226 14.5 13.4621 0 25.5735-5.783 33.9857-15h2.6623c-8.8045 10.399-21.9553 17-36.648 17-14.4558 0-27.419-6.39-36.219-16.5z" fill="currentColor" fill-opacity=".2" fill-rule="evenodd"/><circle cx="44.9998" cy="71.4688" r="12.3751" stroke="currentColor" stroke-width="2"/><path d="m44.9998 83.8438c-9.5402 0-16.875 5.0625-18 9.5625h36c-1.125-4.5-8.4599-9.5625-18-9.5625z" fill="currentColor" fill-opacity=".2"/><path d="m62.0297 93.6488c.134.5358.6769.8616 1.2127.7276.5358-.1339.8615-.6768.7276-1.2126zm-36.0001-.485c-.1339.5358.1918 1.0787.7276 1.2126.5358.134 1.0787-.1918 1.2127-.7276zm1.9403.485c.4697-1.8788 2.3237-4.0843 5.3741-5.8452 3.013-1.7393 7.059-2.9598 11.6558-2.9598v-2c-4.9435 0-9.3349 1.3107-12.6557 3.2277-3.2832 1.8953-5.6592 4.471-6.3145 7.0923zm17.0299-8.805c4.5967 0 8.6427 1.2205 11.6557 2.9598 3.0505 1.7609 4.9045 3.9664 5.3742 5.8452l1.9403-.485c-.6553-2.6213-3.0313-5.197-6.3146-7.0923-3.3207-1.917-7.7122-3.2277-12.6556-3.2277z" fill="currentColor"/><circle cx="85.9998" cy="71.4688" r="12.3751" stroke="currentColor" stroke-width="2"/><path d="m85.9998 83.8438c-9.5402 0-16.875 5.0625-18 9.5625h36.0002c-1.125-4.5-8.4601-9.5625-18.0002-9.5625z" fill="currentColor" fill-opacity=".2"/><path d="m103.03 93.6488c.134.5358.677.8616 1.212.7276.536-.1339.862-.6768.728-1.2126zm-36.0004-.485c-.1339.5358.1918 1.0787.7276 1.2126.5358.134 1.0787-.1918 1.2127-.7276zm1.9403.485c.4697-1.8788 2.3237-4.0843 5.3741-5.8452 3.013-1.7393 7.059-2.9598 11.6558-2.9598v-2c-4.9435 0-9.3349 1.3107-12.6557 3.2277-3.2832 1.8953-5.6592 4.471-6.3145 7.0923zm17.0299-8.805c4.5967 0 8.6427 1.2205 11.6557 2.9598 3.0505 1.7609 4.9045 3.9664 5.3745 5.8452l1.94-.485c-.655-2.6213-3.031-5.197-6.3146-7.0923-3.3207-1.917-7.7122-3.2277-12.6556-3.2277z" fill="currentColor"/><circle cx="64.0001" cy="33.3751" r="12.3751" stroke="currentColor" stroke-width="2"/><g fill="currentColor"><path d="m64 45.75c-9.5401 0-16.875 5.0625-18 9.5626h36.0001c-1.125-4.5001-8.46-9.5626-18.0001-9.5626z" fill-opacity=".2"/><path d="m81.0299 55.5551c.134.5358.6769.8615 1.2127.7276.5358-.134.8616-.6769.7276-1.2127zm-36-.4851c-.134.5358.1918 1.0787.7276 1.2127.5358.1339 1.0787-.1918 1.2126-.7276zm1.9402.4851c.4697-1.8788 2.3237-4.0843 5.3742-5.8453 3.0129-1.7393 7.059-2.9598 11.6557-2.9598v-2c-4.9434 0-9.3349 1.3107-12.6556 3.2277-3.2833 1.8953-5.6592 4.4711-6.3145 7.0923zm17.0299-8.8051c4.5967 0 8.6428 1.2205 11.6558 2.9598 3.0505 1.761 4.9044 3.9665 5.3741 5.8453l1.9403-.4851c-.6553-2.6212-3.0313-5.197-6.3145-7.0923-3.3208-1.917-7.7123-3.2277-12.6557-3.2277z"/></g></svg>
