<svg fill="none" viewBox="0 0 128 128" xmlns="http://www.w3.org/2000/svg"><path d="m27.1539 35.9238-11.0498-11.0537c-3.5458 7.0482-2.5498 15.5313 2.532 21.5667 5.0819 6.0353 13.2717 8.4616 20.8211 6.1683l36.7566 36.7594c-2.2934 7.5491.133 15.7385 6.1686 20.8205 6.0357 5.081 14.5191 6.077 21.5676 2.532l-11.0498-11.05v-8.7655l-56.9801-56.9777z" fill="currentColor" fill-opacity=".2"/><path d="m16.1041 24.8699 11.0498 11.0536h8.7662v-8.7658l-11.0498-11.0536c7.0485-3.5457 15.532-2.5498 21.5676 2.5318s8.462 13.2711 6.1686 20.8202l36.7566 36.7594c7.5494-2.2933 15.7389.1329 20.8209 6.1683s6.078 14.5185 2.532 21.5662l-11.05-11.0488h-8.7658v8.7658l11.0498 11.049c-7.0485 3.546-15.5319 2.55-21.5676-2.532-6.0356-5.081-8.462-13.2707-6.1686-20.8198l-36.7566-36.7594c-7.5494 2.2933-15.7393-.1329-20.8211-6.1683s-6.0778-14.5185-2.532-21.5666z" style="fill-rule:evenodd;clip-rule:evenodd;stroke:currentColor;stroke-width:2;stroke-linecap:round;stroke-linejoin:round"/><g fill="currentColor" fill-opacity=".2"><path d="m50.8933 96.3607-1 .0022c.001.4527.306.8482.7435.9643zm4.6023 1.2212.2582-.9661-.0017-.0004zm-7.1308-10.749-.7071-.7071c-.3183.3183-.3847.8101-.1621 1.2015zm3.381-3.3811-.707-.7072-.0001.0001zm.0083-2.8868-.7072.7071.0003.0002zm-4.3205-4.3213.7071-.707-.0002-.0003zm-2.888.0085.7066.7076.0004-.0004zm-3.382 3.3771-.494.8695c.3911.2222.8823.1559 1.2006-.1619zm-9.5297-2.5192-.9665.2565c.1162.4379.5125.743.9656.7435zm-1.2213-4.6024.9665-.2565zm-2.4969-1.4361.2611.9653zm-5.9223 1.6023.2611.9653zm-1.4513 2.5042-.9665.2565zm1.2203 4.5984.505.8632c.388-.227.5769-.6851.4616-1.1197zm-7.0033 7.0007-.2571.9664c.4346.1156.8929-.0731 1.1201-.4612zm-4.5805-1.2187.2572-.9664-.0009-.0002zm-2.50521 1.4506-.96524-.2613-.00009.0003zm-1.60176 5.9236.96525.2614.00008-.0003zm1.43672 2.4958.25648-.9665-.00018-.0001zm4.60235 1.2213.9999-.0023c-.001-.4527-.3059-.8482-.7435-.9643zm2.5284 9.5282.7071.707c.3184-.319.3847-.811.1621-1.202zm-3.3809 3.381.7069.707h.0002zm-.0084 2.886.7072-.707h-.0002zm4.3206 4.322-.7072.707h.0002zm2.8879-.009-.7066-.707h-.0003zm3.382-3.377.4938-.87c-.391-.222-.8822-.155-1.2004.162zm9.5079 2.517.9665-.257c-.1161-.437-.5119-.742-.9647-.743zm1.2192 4.594-.9665.257zm2.497 1.436-.2612-.965zm5.9223-1.602.2611.965zm1.4512-2.504-.9665.256zm-1.2193-4.595-.5049-.863c-.3881.227-.5769.685-.4616 1.12zm7.0033-7 .2558-.967c-.4342-.115-.8918.074-1.1187.462zm4.6013 1.217.2563-.967h-.0005zm2.5053-1.451.9652.262.0001-.001zm1.6017-5.923.9654.261.0008-.003zm-6.2934-2.7428 4.6023 1.2213.513-1.9331-4.6023-1.2213zm-3.1412-9.9999c1.5645 2.7505 2.3905 5.8625 2.3977 9.0356l2-.0045c-.008-3.5174-.9237-6.9687-2.6592-10.0199zm3.5431-4.5826-3.381 3.3811 1.4143 1.4142 3.3809-3.3811zm.0085-1.4724c.4005.4004.4045 1.0594-.0084 1.4723l1.414 1.4144c1.1865-1.1862 1.198-3.112.0083-4.3012zm-4.3208-4.3216 4.3205 4.3214 1.4144-1.4141-4.3206-4.3213zm-1.4738.0087c.4132-.413 1.0732-.409 1.4741-.0084l1.4138-1.4146c-1.1896-1.1889-3.1155-1.1774-4.3019.0085zm-3.3824 3.3775 3.382-3.3771-1.4132-1.4152-3.382 3.3771zm-10.2372-2.2268c3.1731.0029 6.286.826 9.0366 2.3887l.988-1.739c-3.0521-1.7339-6.5048-2.6465-10.0227-2.6497zm-2.187-5.3459 1.2214 4.6024 1.9331-.513-1.2214-4.6024zm-1.2692-.7273c.5583-.151 1.1234.1778 1.2692.7273l1.9331-.513c-.4317-1.6267-2.1024-2.5838-3.7246-2.1449zm-5.9223 1.6023 5.9223-1.6023-.5223-1.9306-5.9223 1.6023zm-.7458 1.2824c-.1468-.5531.1839-1.1304.7458-1.2824l-.5223-1.9306c-1.6186.4379-2.5874 2.103-2.1566 3.726zm1.2203 4.5984-1.2203-4.5984-1.9331.513 1.2203 4.5984zm-7.1069 7.7624c1.608-2.7467 3.8973-5.0352 6.6453-6.6427l-1.0099-1.7263c-3.0441 1.7807-5.58 4.3157-7.3614 7.3586zm-5.70057-.7575 4.58047 1.2187.5142-1.9328-4.5804-1.2187zm-1.2829.7456c.1519-.561.72936-.8924 1.28376-.7454l.51251-1.9332c-1.62268-.4302-3.28847.5373-3.72675 2.1559zm-1.60167 5.9233 1.60176-5.9236-1.93066-.5221-1.60176 5.9236zm.72769 1.2681c-.5504-.1459-.87859-.7108-.72777-1.2678l-1.9305-.5227c-.43927 1.6225.519 3.2924 2.14567 3.7237zm4.60245 1.2213-4.60227-1.2212-.51296 1.9331 4.60233 1.2212zm3.1412 9.9998c-1.5644-2.75-2.3905-5.8624-2.3977-9.0355l-1.9999.0045c.0079 3.517.9236 6.969 2.6592 10.02zm-3.543 4.583 3.3809-3.381-1.4142-1.415-3.381 3.382zm-.0085 1.472c-.4006-.4-.4046-1.059.0083-1.472l-1.4139-1.415c-1.18661 1.187-1.19808 3.112-.0083 4.302zm4.3207 4.322-4.3205-4.322-1.4143 1.414 4.3205 4.322zm1.4739-.009c-.4132.413-1.0733.409-1.4741.008l-1.4139 1.415c1.1896 1.189 3.1155 1.177 4.3019-.008zm3.3823-3.378-3.382 3.378 1.4132 1.415 3.382-3.377zm10.2163 2.225c-3.1659-.006-6.2712-.828-9.0159-2.387l-.9875 1.74c3.0455 1.729 6.4899 2.64 9.9997 2.647zm2.184 5.338-1.2193-4.595-1.9331.513 1.2193 4.595zm1.2692.727c-.5583.151-1.1234-.178-1.2692-.727l-1.9331.513c.4317 1.627 2.1024 2.584 3.7246 2.145zm5.9223-1.602-5.9223 1.602.5223 1.931 5.9223-1.603zm.7459-1.283c.1468.554-.184 1.131-.7459 1.283l.5223 1.93c1.6186-.437 2.5874-2.103 2.1567-3.726zm-1.2193-4.594 1.2193 4.594 1.9331-.513-1.2193-4.594zm7.1069-7.762c-1.6081 2.746-3.8974 5.035-6.6453 6.642l1.0099 1.727c3.044-1.781 5.5799-4.316 7.3613-7.359zm5.72.755-4.6013-1.217-.5115 1.933 4.6012 1.218zm1.2842-.745c-.1519.561-.7293.892-1.2837.745l-.5126 1.934c1.6227.43 3.2885-.538 3.7268-2.156zm1.6017-5.9232-1.6018 5.9232 1.9307.522 1.6018-5.923zm-.7275-1.2608c.5479.1465.875.7085.7267 1.2638l1.9323.5162c.432-1.6179-.5231-3.2793-2.1426-3.7122zm-16.6124-2.048c0 3.935-3.19 7.125-7.125 7.125v2c5.0396 0 9.125-4.085 9.125-9.125zm-7.125-7.125c3.935 0 7.125 3.19 7.125 7.125h2c0-5.0396-4.0854-9.125-9.125-9.125zm-7.125 7.125c0-3.935 3.19-7.125 7.125-7.125v-2c-5.0396 0-9.125 4.0854-9.125 9.125zm7.125 7.125c-3.935 0-7.125-3.19-7.125-7.125h-2c0 5.04 4.0854 9.125 9.125 9.125z"/><path d="m76.4902 37.1475 1 .0023c-.001.4527-.306.8482-.7435.9643zm-3.384.898-.2582-.9661.0017-.0004zm5.2432-7.9037.7071-.7071c.3183.3184.3847.8102.1621 1.2015zm-2.486-2.4861.707-.7072.0001.0001zm-.0061-2.1226.7071.7071-.0002.0002zm3.1768-3.1774-.7071-.7071.0002-.0002zm2.1236.0062-.7067.7076-.0003-.0004zm2.4867 2.4832.494.8695c-.3911.2221-.8823.1559-1.2006-.1619zm7.0071-1.8524.9666.2565c-.1163.438-.5125.7431-.9657.7435zm.8981-3.3841.9665.2565zm1.8359-1.0559-.2611.9653zm4.3547 1.1781-.2612.9653zm1.0671 1.8414-.9666-.2565zm-.8973 3.3811-.5049.8632c-.3881-.227-.577-.6851-.4617-1.1197zm5.149 5.1476.258.9664c-.435.1156-.893-.0731-1.121-.4612zm3.368-.8961-.257-.9664.001-.0002zm1.843 1.0666.965-.2614v.0004zm1.177 4.3556-.965.2613v-.0003zm-1.056 1.8351-.257-.9665.001-.0001zm-3.384.898-1-.0022c.001-.4527.306-.8482.743-.9643zm-1.859 7.0057-.707.7071c-.319-.3183-.385-.8101-.163-1.2015zm2.486 2.4861-.707.7073v-.0002zm.006 2.1227-.707-.7071v-.0002zm-3.177 3.1774.707.707v.0003zm-2.124-.0062.707-.7076v.0003zm-2.4863-2.4832-.4937-.8696c.391-.222.8821-.1558 1.2003.162zm-6.9911 1.8505-.9665-.2565c.1161-.4377.5119-.7427.9647-.7435zm-.8965 3.3783.9666.2565zm-1.836 1.0559.2612-.9653zm-4.3546-1.1781-.2611.9653zm-1.0671-1.8414.9666.2565zm.8965-3.3782.505-.8632c.388.227.5769.6851.4616 1.1197zm-5.1494-5.1476-.2558-.9667c.4342-.1149.8918.0739 1.1187.4615zm-3.3833.8951-.2563-.9666.0005-.0001zm-1.8421-1.0666-.9653.2613-.0001-.0003zm-1.1778-4.3556-.9653.261-.0008-.003zm4.6954-1.7608-3.384.898-.513-1.9331 3.384-.898zm2.4719-7.4779c-1.1277 1.9826-1.7232 4.226-1.7284 6.5136l-2-.0045c.006-2.6319.6912-5.2145 1.99-7.4979zm-2.6481-3.6876 2.486 2.4861-1.4142 1.4142-2.486-2.4861zm-.0063-.7082c-.1901.19-.1951.5069.0062.7081l-1.414 1.4144c-.9749-.9745-.9854-2.5582-.0061-3.537zm3.1771-3.1777-3.1769 3.1775-1.4143-1.4141 3.1769-3.1775zm.7094.0064c-.2015-.2014-.5193-.1964-.7096-.0061l-1.4139-1.4146c.9791-.9786 2.5627-.968 3.5374.0062zm2.4871 2.4836-2.4868-2.4832 1.4133-1.4152 2.4867 2.4832zm7.7146-1.56c-2.2875.0021-4.5314.5955-6.514 1.7219l-.988-1.739c2.2841-1.2976 4.8679-1.9805 7.5002-1.9829zm1.8637-4.1276-.898 3.3841-1.9331-.513.898-3.3841zm.6083-.3471c-.2697-.073-.5389.0857-.6083.3471l-1.9331-.513c.3553-1.3387 1.7301-2.1255 3.0637-1.7647zm4.3546 1.1781-4.3546-1.1781.5223-1.9306 4.3546 1.1781zm.3617.6196c.0704-.2652-.0884-.5457-.3617-.6196l.5223-1.9306c1.33.3598 2.1267 1.7281 1.7725 3.0632zm-.8973 3.3811.8973-3.3811 1.9331.513-.8973 3.3811zm5.2526 5.9093c-1.159-1.9805-2.8096-3.6305-4.7909-4.7896l1.0098-1.7263c2.2771 1.3323 4.1751 3.2288 5.5071 5.5055zm4.489-.435-3.368.8962-.515-1.9328 3.368-.8961zm.619.3617c-.073-.2725-.354-.432-.62-.3614l-.513-1.9332c1.335-.3538 2.704.4418 3.064 1.7718zm1.178 4.3552-1.178-4.3556 1.931-.522 1.178 4.3556zm-.347.6075c.262-.0695.42-.3386.347-.6072l1.931-.5226c.361 1.334-.427 2.7081-1.766 3.063zm-3.385.8981 3.384-.898.513 1.9331-3.384.898zm-2.472 7.4778c1.128-1.9826 1.724-4.226 1.729-6.5135l2 .0045c-.006 2.6319-.691 5.2145-1.99 7.4979zm2.649 3.6876-2.486-2.4861 1.414-1.4141 2.486 2.4861zm.006.7083c.19-.19.195-.5069-.006-.7081l1.414-1.4145c.975.9746.985 2.5583.006 3.5371zm-3.177 3.1777 3.177-3.1775 1.414 1.4141-3.177 3.1774zm-.71-.0065c.202.2014.52.1965.71.0062l1.414 1.4146c-.979.9786-2.563.968-3.5375-.0063zm-2.4867-2.4835 2.4867 2.4832-1.4131 1.4152-2.4868-2.4832zm-7.6995 1.5581c2.2823-.0041 4.5208-.5968 6.4992-1.7201l.9874 1.7392c-2.2791 1.294-4.8566 1.9761-7.4829 1.9809zm-1.8612 4.1218.8965-3.3783 1.9331.513-.8965 3.3783zm-.6083.3471c.2697.073.5389-.0857.6083-.3471l1.9331.513c-.3553 1.3387-1.7301 2.1255-3.0637 1.7647zm-4.3546-1.1781 4.3546 1.1781-.5223 1.9306-4.3546-1.1781zm-.3617-.6196c-.0704.2652.0883.5457.3617.6196l-.5223 1.9306c-1.33-.3598-2.1268-1.7281-1.7725-3.0632zm.8965-3.3782-.8965 3.3782-1.9331-.513.8965-3.3782zm-5.2531-5.9093c1.1595 1.9805 2.8101 3.6305 4.7915 4.7896l-1.0099 1.7263c-2.2775-1.3323-4.1747-3.2288-5.5075-5.5055zm-4.502.4336 3.3833-.8951.5115 1.9335-3.3833.895zm-.6211-.3613c.0738.2725.3544.432.6206.3614l.5125 1.9332c-1.3345.3538-2.7034-.4418-3.0636-1.7719zm-1.1777-4.3553 1.1778 4.3556-1.9307.5221-1.1777-4.3556zm.3478-.6022c-.2611.0698-.4184.3375-.3469.6053l-1.9323.516c-.3552-1.3302.4301-2.6973 1.7628-3.0535zm12.4114-1.7617c0 2.7472 2.227 4.9743 4.9743 4.9743v2c-3.8518 0-6.9743-3.1225-6.9743-6.9743zm4.9743-4.9742c-2.7473 0-4.9743 2.227-4.9743 4.9742h-2c0-3.8517 3.1225-6.9742 6.9743-6.9742zm4.9742 4.9742c0-2.7472-2.227-4.9742-4.9742-4.9742v-2c3.8517 0 6.9742 3.1225 6.9742 6.9742zm-4.9742 4.9743c2.7472 0 4.9742-2.227 4.9742-4.9743h2c0 3.8518-3.1225 6.9743-6.9742 6.9743z"/></g></svg>
