<svg fill="none" viewBox="0 0 64 64" xmlns="http://www.w3.org/2000/svg"><g fill="currentColor" fill-opacity=".2"><path d="m21.4225 54.9536c-.7414-1.1786-.6673-2.75.1483-3.85.7414-.9822 1.8164-1.5322 3.0026-1.5322h21.4266l-1.1862-1.5714h-20.9076-8.8969l-2.3354 3.1036c-.8526 1.1-.8897 2.6714-.1483 3.85 1.5941 2.5143 4.2631 4.0464 7.1175 4.0464h7.933c-2.632 0-5.0044-1.5714-6.1536-4.0464z"/><path d="m47.1889 23.5c.2817 0 .6037.0437.8854.0437v-.0437c0-.9625.3622-1.8375.9257-2.45-.2415.1313-.483.3063-.644.5688-.5634-.9625-1.5696-1.6188-2.6966-1.6188-1.7709 0-3.2198 1.575-3.2198 3.5v.0437c-.2817-.0437-.5634-.0437-.8854-.0437-2.3746 0-4.4675 1.4-5.5542 3.5h5.6347c1.1269-2.1 3.1795-3.5 5.5542-3.5z"/><path d="m28.4308 33.3772c-.7287-.4048-1.5383-.6477-2.4289-.6477-2.6717 0-4.8577 2.186-4.8577 4.8578h4.8577c0-1.7812.9716-3.36 2.4289-4.2101z"/><path d="m23.5588 9.04814c.3239 0 .6477.04048.9716.08096 1.1335-1.61926 2.7932-2.91466 4.7363-3.56236-1.0525-.36433-2.1455-.56674-3.279-.56674-3.279 0-6.1936 1.61925-7.9343 4.1291-.3239-.04048-.6477-.08096-.9716-.08096-3.117 0-5.6674 2.55036-5.6674 5.66736h4.8578 1.6192c0-3.117 2.5504-5.66736 5.6674-5.66736z"/><path d="m13.6835 44c-.4453 0-.8096.3643-.8096.8096v2.4289h9.7155v-3.2385z"/></g><path d="m46 48h-32v-3c0-.55.3273-1 .7273-1h30.5454c.4 0 .7273.45.7273 1z" stroke="currentColor" stroke-linecap="round" stroke-miterlimit="10" stroke-width="2"/><path d="m48.136 50.75-2.2175-2.75h-31.837l-2.2175 2.75c-.9504 1.1786-1.1484 2.8286-.4356 4.2036 1.2275 2.475 3.8014 4.0464 6.5733 4.0464h23.9966c2.7719 0 5.3458-1.5714 6.5733-4.0464.7128-1.375.5148-3.025-.4356-4.2036z" stroke="currentColor" stroke-linecap="round" stroke-miterlimit="10" stroke-width="2"/><path d="m53.8571 21.75c-.9428 0-1.8428.2625-2.5714.7-.0857-.875-.8143-1.575-1.7143-1.575-.6 0-1.0714.3063-1.4143.7438-.6-.9625-1.6714-1.6188-2.8714-1.6188-1.8857 0-3.4286 1.575-3.4286 3.5v.0437c-.3-.0437-.6-.0437-.9428-.0437-2.5286 0-4.7572 1.4-5.9143 3.5h6.8571 5.0143 1.8429 3.4286 6.8571c0-2.8875-2.3143-5.25-5.1429-5.25z" stroke="currentColor" stroke-linecap="round" stroke-miterlimit="10" stroke-width="2"/><path d="m33.6667 31c-2.0584 0-3.9188.9794-5.0667 2.5073-.7917-.5877-1.7812-.9402-2.85-.9402-2.6125 0-4.75 1.8473-4.75 4.4329h6.3333 3.1667 9.5c0-3.4475-2.85-6-6.3333-6z" stroke="currentColor" stroke-linecap="round" stroke-miterlimit="10" stroke-width="2"/><path d="m50.6956 29.484 1.4168-1.6193h-1.4168l-1.8217 1.6193z" fill="currentColor" opacity=".25"/><path d="m38.1857 10.8333c-.825 0-1.6107.1667-2.3178.4584-.3929-.7917-1.1786-1.2917-2.0822-1.2917-.1571 0-.3143 0-.4714.0417-1.6107-3.00003-4.675-5.0417-8.1714-5.0417-3.1822 0-6.0108 1.66667-7.7 4.25-.3143-.04167-.6286-.08333-.9429-.08333-3.025 0-5.5 2.62503-5.5 5.83333h4.7143 6.2857 10.3321 2.2393 9.4286c-.9429-2.4583-3.1821-4.1667-5.8143-4.1667z" stroke="currentColor" stroke-linecap="round" stroke-miterlimit="10" stroke-width="2"/><path d="m36.4888 25.2689-4.1805-1.4218-3.0085-1.0269-1.4456-.5134c-.1954-.0395-.3907-.158-.547-.2765-.3126-.2765-.547-.7899-.5079-1.2639 0-.079 0-.1185.039-.1975 0-.079.0391-.1185.0391-.1974l.0391-.079.0781-.158.1563-.3555.7033-1.4613 1.6019-3.3177h-1.9536s-1.4246 0-3.8289 0l.3126 3.1202c-.1173.158-.508 1.0269-.5861 1.2244-.0781.1974-.1563.3949-.1954.5924-.4688 1.5798-.1172 3.3966.8987 4.779.5079.6714 1.1721 1.2639 1.9535 1.6588l1.4456.7505 2.8522 1.4613 4.5322 2.3303c3.1257.3554 5.509 3.1045 5.509 6.3432h-7.2672-2.0707-3.1257-.7814l1.7191 1.6745c.5079.5134.4298 1.3428-.1172 1.7773l-3.5164 3.2881h12.9325l2.188-2.7747 1.094-1.1454.5469-.5924.3517-.395c.1563-.1974.3125-.3554.4688-.5529l9.1817-10.8219h-3.3284l-4.1716 4.7823s-.4444-1.5831-.7049-2.1361c-.3907-.8294-.9377-1.6193-1.6019-2.2907-.1563-.1185-.2735-.2765-.4298-.395" stroke="currentColor" stroke-linecap="round" stroke-miterlimit="10" stroke-width="2"/></svg>
