<svg fill="none" viewBox="0 0 128 128" xmlns="http://www.w3.org/2000/svg"><path d="m48.2182 64.9214c1.1054-2.6 1.7503-5.5714 1.7503-8.6357 0-5.6643-2.0267-10.8643-5.5273-14.7643-3.0953-3.9828-7.6153-5.9309-9.4885-6.4071-2.2109-.7429-4.606-1.1143-7.0933-1.1143-12.2521 0-22.10909 9.9357-22.10909 22.2857 0 6.3143 2.67152 12.0714 6.90909 16.1572m35.6509-7.4286c-2.303-.8357-4.7903-1.3-7.4618-1.3-6.9091 0-13.1733 3.25-17.2267 8.2643-1.566-.5572-3.2242-.8357-4.8824-.8357-7.8303 0-14.18667 6.1285-14.7394 13.8357 0 .5571.36848 1.0214.92121 1.0214h48.57879" stroke="currentColor" stroke-miterlimit="10" stroke-opacity=".2" stroke-width="2"/><path d="m96.1329 46.6569c.5824 0 1.2481.0832 1.8306.0832v-.0832c0-1.8306.7489-3.4949 1.9139-4.6598-.4993.2496-.9986.5825-1.3314 1.0817-1.165-1.8306-3.2453-3.0788-5.5752-3.0788-3.6613 0-6.6569 2.9956-6.6569 6.6569v.0832c-.5825-.0832-1.165-.0832-1.8307-.0832-4.9095 0-9.2365 2.6628-11.4832 6.657h11.6496c2.33-3.9942 6.5738-6.657 11.4833-6.657z" fill="currentColor" fill-opacity=".2"/><path d="m60.9781 64.3314c-1.4978-.8321-3.162-1.3314-4.9927-1.3314-5.492 0-9.9854 4.4934-9.9854 9.9854h9.9854c0-3.6613 1.9971-6.9066 4.9927-8.654z" fill="currentColor" fill-opacity=".2"/><path d="m49.9635 15.3212c.6657 0 1.3314.0832 1.9971.1664 2.3299-3.3285 5.7416-5.99125 9.7358-7.32264-2.1635-.7489-4.4103-1.16496-6.7402-1.16496-6.7401 0-12.7314 3.3285-16.3095 8.4876-.6657-.0832-1.3314-.1664-1.9971-.1664-6.4073 0-11.6496 5.2423-11.6496 11.6496h9.9854 3.3285c0-6.4073 5.2423-11.6496 11.6496-11.6496z" fill="currentColor" fill-opacity=".2"/><path d="m30.6642 86c-.9153 0-1.6642.7489-1.6642 1.6642v4.9927h19.9708v-6.6569z" fill="currentColor" fill-opacity=".2"/><path d="m25.0002 104.206c-.0075 1.345.2649 2.715.8612 3.971 2.5208 5.397 7.8066 8.823 13.4989 8.823h49.2794c5.7736 0 10.9781-3.426 13.4993-8.823.732-1.542.975-3.255.813-4.883h-58.3514c.1533-1.266.6225-2.492 1.3943-3.5268 1.6264-2.1415 3.9847-3.3408 6.5869-3.3408h47.0024l-2.6022-3.4264h-65.3806l-5.1231 6.7672c-.8069 1.0348-1.2808 2.2608-1.4283 3.5268h-.0018c-.0043.043-.0084.086-.0121.13-.0256.259-.0376.521-.0359.782z" fill="currentColor" fill-opacity=".2"/><g stroke="currentColor" stroke-miterlimit="10" stroke-width="2"><path d="m100 93h-72v-4.5c0-.825.7364-1.5 1.6364-1.5h68.7272c.9 0 1.6364.675 1.6364 1.5z" stroke-linecap="round"/><path d="m101.227 99-4.5521-6h-65.3498l-4.5517 6c-1.9508 2.571-2.3572 6.171-.8941 9.171 2.5197 5.4 7.803 8.829 13.4926 8.829h49.2562c5.6896 0 10.9729-3.429 13.4929-8.829 1.463-3 1.056-6.6-.894-9.171z" stroke-linecap="round"/><path d="m26 103 76-.004" stroke-linecap="round"/><path d="m109.143 43.25c-1.807 0-3.532.4875-4.929 1.3-.164-1.625-1.56-2.925-3.285-2.925-1.1504 0-2.054.5688-2.7111 1.3813-1.15-1.7875-3.2036-3.0063-5.5036-3.0063-3.6143 0-6.5714 2.925-6.5714 6.5v.0812c-.575-.0812-1.15-.0812-1.8072-.0812-4.8464 0-9.1178 2.6-11.3357 6.5h13.1429 9.6107 3.5321 6.5713 13.143c0-5.3625-4.436-9.75-9.857-9.75z" stroke-linecap="round"/><path d="m72 60c-4.225 0-8.0437 2.1221-10.4 5.4325-1.625-1.2733-3.6562-2.0372-5.85-2.0372-5.3625 0-9.75 4.0025-9.75 9.6047h13 6.5 19.5c0-7.4696-5.85-13-13-13z" stroke-linecap="round"/></g><path d="m106.745 56.3285 2.912-3.3285h-2.912l-3.745 3.3285z" fill="currentColor" opacity=".25"/><path d="m81.019 18.6667c-1.7 0-3.319.3333-4.7761.9166-.8096-1.5833-2.4286-2.5833-4.2905-2.5833-.3238 0-.6476 0-.9714.0833-3.3191-6-9.6334-10.0833-16.8381-10.0833-6.5572 0-12.3858 3.3333-15.8667 8.5-.6476-.0833-1.2952-.1667-1.9429-.1667-6.2333 0-11.3333 5.25-11.3333 11.6667h9.7143 12.9524 21.2904 4.6143 19.4286c-1.9429-4.9167-6.5571-8.3333-11.981-8.3333z" stroke="currentColor" stroke-linecap="round" stroke-miterlimit="10" stroke-width="2"/><path d="m77.1272 48.2206-8.7174-2.9382-6.2733-2.1221-3.0145-1.061c-.4073-.0817-.8147-.3265-1.1406-.5714-.6517-.5713-1.1406-1.6323-1.0591-2.6117 0-.1633 0-.2449.0815-.4081 0-.1632.0814-.2449.0814-.4081l.0815-.1632.163-.3265.3258-.7346 1.4665-3.0198 3.3404-6.8559h-4.0736l-2.4223 4.1632c-.4074.5714-1.2221.4081-1.4665-.1632l-2-4h-2.0954l.6518 6.4478c-.2445.3265-1.0592 2.1221-1.2221 2.5301-.163.4081-.3259.8162-.4074 1.2243-.9776 3.2647-.2444 7.0191 1.8739 9.8757 1.0591 1.3875 2.4441 2.6118 4.0735 3.428l3.0145 1.5507 5.9474 3.0199 9.4507 4.8154c6.5177.7346 11.4875 6.4155 11.4875 13.1081h-15.1537-4.318-6.5177-1.6295l3.5848 3.4603c1.0591 1.061.8962 2.775-.2444 3.6728l-7.3325 6.7948h26.9671l4.5624-5.7338 2.2812-2.3669 1.1406-1.2243.7332-.8161c.3259-.4081.6518-.7346.9777-1.1427l19.1454-22.3632h-2.77l-12.8722 11.2632c0-.0816 0-.0816 0-.1632-.1629-1.9588-.6517-3.836-1.4664-5.6316-.8148-1.714-1.9553-3.3464-3.3404-4.7339-.3258-.2448-.5703-.5713-.8961-.8161" stroke="currentColor" stroke-linecap="round" stroke-miterlimit="10" stroke-width="2"/></svg>
