<svg aria-label="clock warning icon" viewBox="0 0 24 24"><path fill-rule="evenodd" clip-rule="evenodd" d="M19.703 9.837c.194.688.297 1.414.297 2.163 0 4.411-3.589 8-8 8s-8-3.589-8-8 3.589-8 8-8c.75 0 1.475.103 2.163.297a4.49 4.49 0 01.978-1.792A9.96 9.96 0 0012 2C6.486 2 2 6.486 2 12s4.486 10 10 10 10-4.486 10-10a9.963 9.963 0 00-.505-3.141 4.492 4.492 0 01-1.792.978zM18.5 9a3.5 3.5 0 100-7 3.5 3.5 0 000 7zm-6.987-2h1a.5.5 0 01.5.5v4.078l2.9 2.9a.5.5 0 010 .706l-.707.708a.5.5 0 01-.708 0l-3.485-3.486V7.5a.5.5 0 01.5-.5zM18 3.75a.25.25 0 01.25-.25h.5a.25.25 0 01.25.25v2a.25.25 0 01-.25.25h-.5a.25.25 0 01-.25-.25v-2zm1.13 3.375a.625.625 0 11-1.25 0 .625.625 0 011.25 0z"/></svg>