<svg aria-label="code branded icon" viewBox="0 0 24 24"><path fill-rule="evenodd" clip-rule="evenodd" d="M12 2C6.486 2 2 6.486 2 12s4.486 10 10 10 10-4.486 10-10S17.514 2 12 2zm0 18c-4.411 0-8-3.59-8-8s3.589-8 8-8c4.41 0 8 3.59 8 8s-3.59 8-8 8zm1.184-11.146l.707-.708a.5.5 0 01.707 0l3.5 3.5a.5.5 0 010 .707l-3.5 3.5a.5.5 0 01-.707 0l-.707-.707a.5.5 0 010-.707L15.623 12l-2.44-2.438a.5.5 0 010-.707zm-3.073-.708l.707.708a.5.5 0 010 .707L8.378 12l2.44 2.44a.5.5 0 010 .706l-.707.707a.5.5 0 01-.708 0l-3.5-3.5a.5.5 0 010-.707l3.5-3.5a.5.5 0 01.708 0z"/></svg>