<svg aria-label="list icon" viewBox="0 0 24 24"><path fill-rule="evenodd" clip-rule="evenodd" d="M7 4.667A.666.666 0 006.333 4H3.667A.667.667 0 003 4.667v2.666c0 .369.299.667.667.667h2.666A.666.666 0 007 7.333V4.667zm0 6A.666.666 0 006.333 10H3.667a.667.667 0 00-.667.667v2.666c0 .369.299.667.667.667h2.666A.666.666 0 007 13.333v-2.666zM6.333 16c.369 0 .667.299.667.667v2.666a.666.666 0 01-.667.667H3.667A.667.667 0 013 19.333v-2.666c0-.368.299-.667.667-.667h2.666zM20.5 5h-11a.5.5 0 00-.5.5v1a.5.5 0 00.5.5h11a.5.5 0 00.5-.5v-1a.5.5 0 00-.5-.5zm-11 6h11a.5.5 0 01.5.5v1a.5.5 0 01-.5.5h-11a.5.5 0 01-.5-.5v-1a.5.5 0 01.5-.5zm11 6h-11a.5.5 0 00-.5.5v1a.5.5 0 00.5.5h11a.5.5 0 00.5-.5v-1a.5.5 0 00-.5-.5z"/></svg>