<svg aria-label="podcast icon" viewBox="0 0 24 24"><path fill-rule="evenodd" clip-rule="evenodd" d="M5.175 20.31c.064.058.143.13.24.213a.3.3 0 00.48-.133c.084-.255.21-.597.38-1.027a.5.5 0 00-.114-.537A8.22 8.22 0 013.75 13a8.25 8.25 0 1114.348 5.558c-.064.07-.15.16-.26.268a.5.5 0 00-.112.537c.17.43.296.772.38 1.027a.3.3 0 00.48.134A9.974 9.974 0 0022 13c.001-5.523-4.476-10-9.999-10C6.477 3 2 7.477 2 13a9.973 9.973 0 003.175 7.31zm1.969-3.785l.001.002a.502.502 0 00.774.042L8.437 16a.5.5 0 00.041-.622A4.23 4.23 0 017.75 13a4.25 4.25 0 117.772 2.376.5.5 0 00.04.623l.536.589a.478.478 0 00.74-.04 6 6 0 10-9.695-.024zM12 16.5c1.812 0 3.214 1.505 4.205 4.515a.75.75 0 01-.712.985H8.507a.75.75 0 01-.712-.985C8.786 18.005 10.188 16.5 12 16.5zM9.75 13a2.25 2.25 0 104.5 0 2.25 2.25 0 00-4.5 0z"/></svg>