<svg aria-label="reload icon" viewBox="0 0 24 24"><path d="M5.432 16.568l1.714-1.714A.5.5 0 006.793 14H2.5a.5.5 0 00-.5.5v4.293a.5.5 0 00.854.353L4 18a9.985 9.985 0 008 4 9.994 9.994 0 008.53-4.778.481.481 0 00-.189-.672l-.878-.48a.525.525 0 00-.692.192A7.994 7.994 0 0112 20a7.99 7.99 0 01-6.568-3.432zM3.47 6.778a.481.481 0 00.189.672l.878.48a.525.525 0 00.692-.192A7.994 7.994 0 0111.999 4a7.99 7.99 0 016.57 3.432l-1.715 1.714a.5.5 0 00.353.854H21.5a.5.5 0 00.5-.5V5.207a.5.5 0 00-.854-.353L20 6a9.985 9.985 0 00-8-4 9.994 9.994 0 00-8.53 4.778z"/></svg>