<svg aria-label="report icon" viewBox="0 0 24 24"><path d="M22 11c0-.551-.448-1-1-1h-4c-.552 0-1 .449-1 1v9h-1v-4c0-.551-.448-1-1-1h-4c-.552 0-1 .449-1 1v4H8v-7c0-.551-.448-1-1-1H3c-.552 0-1 .449-1 1v7H0v2h24v-2h-2v-9zM4 20v-6h2v6H4zm7 0v-3h2v3h-2zm7 0v-8h2v8h-2zM5 9a2 2 0 111.999-2.008l4.002 2.286C11.296 9.106 11.635 9 12 9c.178 0 .347.031.511.074l4.563-4.562A1.997 1.997 0 0117 4a2 2 0 112 2c-.178 0-.348-.029-.512-.073l-4.562 4.562c.043.165.074.333.074.511a2 2 0 01-3.999.01L5.999 8.724A1.976 1.976 0 015 9z"/></svg>