<svg class="overrideable-class-name" viewBox="0 0 24 24" xmlns="http://www.w3.org/2000/svg">
  <g>
    <path d="M23,0c0,0-0.8-0.2-1.5,0.5S18,4,18,4h-6c0,0-3.1-3.1-3.5-3.5C7.9-0.1,7,0,7,0C6.4,0,6,0.4,6,1v18c-1.1,0-2-0.9-2-2v-7   c0-1.1-0.9-2-2-2s-2,0.9-2,2c0,0,0,2.3,0,2.5C0,12.8,0.2,13,0.5,13S1,12.8,1,12.5V10c0-0.6,0.4-1,1-1s1,0.4,1,1v7c0,1.7,1.3,3,3,3   v3c0,0.6,0.4,1,1,1h16c0.6,0,1-0.4,1-1V1C24,0.4,23.6,0,23,0z M22,22h-3v-3h-1v3h-6v-3h-1v3H8V2.5L11.5,6h7L22,2.5V22z"/>
    <path d="M17,14c-0.6,0-1-0.4-1-1s-0.4-1-1-1s-1,0.4-1,1s-0.4,1-1,1s-1-0.4-1-1h-1c0,1.1,0.9,2,2,2s2-0.9,2-2c0,1.1,0.9,2,2,2   s2-0.9,2-2h-1C18,13.6,17.6,14,17,14z"/>
    <path d="M12.5,11c0.8,0,1.5-0.7,1.5-1.5S13.3,8,12.5,8S11,8.7,11,9.5S11.7,11,12.5,11z M12.5,9C12.8,9,13,9.2,13,9.5   S12.8,10,12.5,10S12,9.8,12,9.5S12.2,9,12.5,9z"/>
    <path d="M16,9.5c0,0.8,0.7,1.5,1.5,1.5S19,10.3,19,9.5S18.3,8,17.5,8S16,8.7,16,9.5z M18,9.5c0,0.3-0.2,0.5-0.5,0.5S17,9.8,17,9.5   S17.2,9,17.5,9S18,9.2,18,9.5z"/>
  </g>
</svg>
