<svg xmlns="http://www.w3.org/2000/svg" width="128" height="128" viewBox="0 0 128 128">
  <g fill="none" fill-rule="evenodd">
    <path stroke="#FFF" stroke-width="2" d="M81.9341,24 C90.56,24 95,30.6598 95,38.8407 L95,49.9713 C95,52.0231 93.2491,53.6815 91.0916,53.6815 L78.3443,53.6815 M81.9341,24 C77.7107,24 78.3443,30.9774 78.3443,35.0735 L78.3443,53.6815 M81.9341,24 L79.5071,24 L55.6335,24 C45.0508,24 40,29.5938 40,38.8407 L40,97.1448 C40,98.1693 40.875,98.9999 41.9542,98.9999 C42.5019,98.9999 43.0246,98.7816 43.3948,98.3985 L59.7536,82.5926 L74.9495,98.3985 C75.6787,99.154 76.9149,99.205 77.7107,98.5124 C78.1143,98.1609 78.3443,97.6648 78.3443,97.1448 L78.3443,53.6815"/>
    <path fill="#FFF" d="M8,12 L63,12 C64.1046,12 65,12.8954 65,14 L65,24 L67,24 L67,14 C67,11.7909 65.2091,10 63,10 L8,10 C5.79086,10 4,11.7909 4,14 L4,48 C4,50.2091 5.79086,52 8,52 L40,52 L40,50 L8,50 C6.89543,50 6,49.1046 6,48 L6,14 C6,12.8954 6.89543,12 8,12 Z M40,73 L24,73 C21.7909,73 20,74.7909 20,77 L20,104 C20,106.209 21.7909,108 24,108 L57,108 C59.2091,108 61,106.209 61,104 L61,83.8891 L59.7536,82.5926 L59,83.3207 L59,104 C59,105.105 58.1046,106 57,106 L24,106 C22.8954,106 22,105.105 22,104 L22,77 C22,75.8954 22.8954,75 24,75 L40,75 L40,73 Z M78.3443,82 L86,82 L86,115 C86,117.209 87.7909,119 90,119 L121,119 C123.209,119 125,117.209 125,115 L125,74 C125,71.7909 123.209,70 121,70 L117,70 L117,63 C117,60.7909 115.209,59 113,59 L78.3443,59 L78.3443,61 L113,61 C114.105,61 115,61.8954 115,63 L115,70 L90,70 C87.7909,70 86,71.7909 86,74 L86,80 L78.3443,80 L78.3443,82 Z M95,43 L108,43 C110.209,43 112,41.2091 112,39 L112,27 C112,24.7909 110.209,23 108,23 L82,23 C80.9856,23 80.0593,23.3776 79.3542,24 L79.5071,24 L81.9341,24 C83.9238,24 85.6908,24.3544 87.232,25 L108,25 C109.105,25 110,25.8954 110,27 L110,39 C110,40.1046 109.105,41 108,41 L95,41 L95,43 Z M115,72 L90,72 C88.8954,72 88,72.8954 88,74 L88,80 L113,80 C114.105,80 115,79.1046 115,78 L115,72 Z M88,82 L113,82 C115.209,82 117,80.2091 117,78 L117,72 L121,72 C122.105,72 123,72.8954 123,74 L123,115 C123,116.105 122.105,117 121,117 L90,117 C88.8954,117 88,116.105 88,115 L88,82 Z" opacity=".2"/>
    <path fill="#FFF" d="M59.9672,84.6548 L73.9161,99.209 C74.6409,99.962 75.8696,100.013 76.6606,99.323 C77.0618,98.9723 77.2903,98.4776 77.2903,97.9592 L77.2903,54.6236 L77.2903,36.0703 C77.2903,35.6202 77.2827,35.1351 77.2747,34.6283 C77.2101,30.5372 77.1233,25.0294 80.8583,25.0294 L78.4461,25.0294 L59.9672,25.0294 L59.9672,84.6548 Z" opacity=".2"/>
  </g>
</svg>
