<svg fill="none" viewBox="0 0 64 64" xmlns="http://www.w3.org/2000/svg"><path clip-rule="evenodd" d="m29.5 45.5684.095-.0921 9.689 10.1096c.465.483 1.2532.5156 1.7606.0728.2574-.2248.404-.5421.404-.8747v-27.7995-11.9018c0-.2888-.0049-.6-.0101-.9251-.0413-2.6244-.0971-6.1576 2.2989-6.1576h-1.5474-12.69z" fill="currentColor" fill-opacity=".2" fill-rule="evenodd"/><path d="m43.6853 8c5.4892 0 8.3147 4.2623 8.3147 9.4981v7.1235c0 1.3132-1.1142 2.3746-2.4872 2.3746h-8.1119m2.2844-18.9962c-2.6876 0-2.2844 4.4655-2.2844 7.087v11.9092m2.2844-18.9962h-1.5444-15.1923c-6.7344 0-9.9486 3.58-9.9486 9.4981v37.3146c0 .6557.5568 1.1873 1.2436 1.1873.3485 0 .6811-.1398.9167-.385l10.4101-10.1157 9.6702 10.1157c.4641.4834 1.2507.516 1.7571.0729.2569-.2249.4032-.5424.4032-.8752v-27.8165" stroke="currentColor" stroke-width="2"/></svg>
