<svg xmlns="http://www.w3.org/2000/svg" viewBox="0 0 64 64">
  <g fill="none" fill-rule="evenodd">
    <path stroke="currentColor" stroke-width="2" d="M44.6853,8 C50.1745,8 53,12.2623 53,17.4981 L53,24.6216 C53,25.9348 51.8858,26.9962 50.5128,26.9962 L42.4009,26.9962 M44.6853,8 C41.9977,8 42.4009,12.4655 42.4009,15.087 L42.4009,26.9962 M44.6853,8 L43.1409,8 L27.9486,8 C21.2142,8 18,11.58 18,17.4981 L18,54.8127 C18,55.4684 18.5568,56 19.2436,56 C19.5921,56 19.9247,55.8602 20.1603,55.615 L30.5704,45.4993 L40.2406,55.615 C40.7047,56.0984 41.4913,56.131 41.9977,55.6879 C42.2546,55.463 42.4009,55.1455 42.4009,54.8127 L42.4009,26.9962"/>
    <path fill="currentColor" d="M30.5,45.5684 L30.595,45.4763 L40.284,55.5859 C40.749,56.0689 41.5372,56.1015 42.0446,55.6587 C42.302,55.4339 42.4486,55.1166 42.4486,54.784 L42.4486,26.9845 L42.4486,15.0827 C42.4486,14.7939 42.4437,14.4827 42.4385,14.1576 C42.3972,11.5332 42.3414,8 44.7374,8 L43.19,8 L30.5,8 L30.5,45.5684 Z" opacity=".2"/>
  </g>
</svg>
