<svg xmlns="http://www.w3.org/2000/svg" viewBox="0 0 128 128">
  <g fill="none" fill-rule="evenodd" transform="translate(2 2)">
    <g fill="currentColor" opacity=".2">
      <path d="M70.9983,14.842 C93.2069,19.054 110,38.5659 110,62 C110,88.5097 88.5097,110 62,110 C35.4903,110 14,88.5097 14,62 C14,37.1653 32.8605,16.7357 57.0394,14.2532 C57.4121,10.7383 60.3863,8 64,8 C67.8132,8 70.9143,11.049 70.9983,14.842 Z M108,62 C108,87.4051 87.4051,108 62,108 C36.5949,108 16,87.4051 16,62 C16,38.2458 34.0052,18.697 57.1125,16.2566 C57.7045,19.5229 60.563,22 64,22 C67.2319,22 69.9522,19.8098 70.7577,16.8326 C91.9743,20.9222 108,39.5896 108,62 Z M59.0831,14.0872 C59.5121,11.7616 61.5503,10 64,10 C66.5938,10 68.7262,11.975 68.9756,14.5032 C66.6983,14.1717 64.3692,14 62,14 C61.0206,14 60.048,14.0293 59.0831,14.0872 Z M59.1189,16.0888 C60.0717,16.0299 61.0324,16 62,16 C64.3009,16 66.5624,16.1689 68.7726,16.4951 C68.137,18.5262 66.2406,20 64,20 C61.6125,20 59.6158,18.3266 59.1189,16.0888 Z"/>
      <path d="M62,124 C47.4559,124 34.0815,118.992 23.507,110.607 C21.6745,112.687 18.9906,114 16,114 C10.4772,114 6,109.523 6,104 C6,100.685 7.61332,97.7462 10.0977,95.9268 C3.7128,86.1789 0,74.523 0,62 C0,27.7583 27.7583,0 62,0 C74.3812,0 85.9148,3.62921 95.595,9.8819 C98,5.20173 102.876,2 108.5,2 C116.508,2 123,8.4919 123,16.5 C123,22.2357 119.67,27.1936 114.837,29.5454 C120.648,38.9857 124,50.1014 124,62 C124,73.688 120.766,84.6206 115.144,93.9517 C116.292,95.124 117,96.7293 117,98.5 C117,102.09 114.09,105 110.5,105 C109.38,105 108.326,104.717 107.406,104.218 C96.0856,116.387 79.9318,124 62,124 Z M122,62 C122,73.2393 118.91,83.7568 113.532,92.7492 C112.627,92.2709 111.595,92 110.5,92 C106.91,92 104,94.9101 104,98.5 C104,100.246 104.688,101.831 105.808,102.998 C94.8596,114.692 79.2832,122 62,122 C47.8908,122 34.9191,117.13 24.6741,108.979 C25.5176,107.513 26,105.813 26,104 C26,98.477 21.5228,94 16,94 C14.5092,94 13.0946,94.3262 11.8237,94.9112 C5.61308,85.4617 2,74.1528 2,62 C2,28.8629 28.8629,2 62,2 C74.1037,2 85.3702,5.58392 94.7965,11.7484 C94.2804,13.237 94,14.8358 94,16.5 C94,24.5081 100.492,31 108.5,31 C110.054,31 111.55,30.7556 112.954,30.3032 C118.687,39.5007 122,50.3635 122,62 Z M24,104 C24,105.329 23.676,106.582 23.1026,107.685 C19.2818,104.429 15.8745,100.702 12.9706,96.5935 C13.905,96.2109 14.9279,96 16,96 C20.4183,96 24,99.582 24,104 Z M21.9589,109.338 C17.898,105.899 14.2855,101.948 11.2213,97.5834 C9.2661,99.042 8,101.373 8,104 C8,108.418 11.5817,112 16,112 C18.3671,112 20.4942,110.972 21.9589,109.338 Z M97.2704,11.003 C99.305,6.85542 103.569,4 108.5,4 C115.404,4 121,9.5964 121,16.5 C121,21.5274 118.032,25.8616 113.753,27.8461 C109.382,21.2362 103.779,15.5127 97.2704,11.003 Z M96.5205,12.9191 C102.525,17.1499 107.718,22.4547 111.821,28.5541 C110.763,28.8448 109.65,29 108.5,29 C101.596,29 96,23.4036 96,16.5 C96,15.2555 96.1819,14.0535 96.5205,12.9191 Z M110.5,94 C111.208,94 111.878,94.1635 112.473,94.4547 C110.873,96.9384 109.094,99.296 107.155,101.511 C106.437,100.713 106,99.658 106,98.5 C106,96.0147 108.015,94 110.5,94 Z M114.038,95.7189 C112.454,98.159 110.702,100.481 108.8,102.668 C109.325,102.882 109.898,103 110.5,103 C112.985,103 115,100.985 115,98.5 C115,97.4502 114.641,96.4844 114.038,95.7189 Z"/>
    </g>
    <path stroke="currentColor" stroke-linejoin="round" stroke-width="2" d="M82.1316,87.1232 L82.1315,87.1232 C81.9211,86.8411 81.9698,86.4391 82.23,86.2185 C82.6135,85.8935 82.9335,85.6122 83.1866,85.3767 C89.5412,79.4638 93.5257,70.955 93.5257,61.5035 C93.5257,52.0307 89.5231,43.5047 83.1434,37.5902 C82.9006,37.3651 82.5952,37.0972 82.2306,36.7882 C81.9702,36.5676 81.9214,36.1655 82.1319,35.8834 L84.0969,33.2492 C84.3062,32.9686 84.6855,32.9212 84.9511,33.1269 C84.9575,33.1318 84.9638,33.1369 84.97,33.1421 C85.1406,33.2851 85.2859,33.4095 85.4069,33.5157 C93.1169,40.2869 98,50.3114 98,61.5035 C98,72.3671 93.3995,82.1304 86.0787,88.8865 C85.8021,89.1418 85.4324,89.4647 84.9655,89.8575 C84.7072,90.0748 84.3268,90.0417 84.1076,89.7714 C84.1022,89.7647 84.0969,89.7579 84.0917,89.7509 L82.1316,87.1232 Z M41.9929,36.6968 C34.9135,42.5951 30.3944,51.5923 30.3944,61.6645 C30.3944,71.0793 34.3429,79.555 40.6399,85.4382 C40.8823,85.6647 41.1875,85.9345 41.5522,86.2456 C41.8062,86.4623 41.8558,86.8622 41.6481,87.1426 L39.7114,89.7567 C39.5075,90.032 39.144,90.0753 38.8896,89.8769 C38.8832,89.872 38.877,89.8669 38.8708,89.8617 C38.4717,89.5241 38.1525,89.2447 37.91,89.0217 C30.6018,82.3003 26,72.5373 26,61.6645 C26,50.1013 31.205,39.793 39.3347,33.0641 L41.994,36.6535 C41.9975,36.6582 42.0012,36.6663 41.9996,36.6797 C41.9989,36.6861 41.9971,36.6907 41.9958,36.6932 C41.9948,36.6951 41.994,36.6959 41.9929,36.6968 Z M49.7913,47.6317 C49.5343,47.8545 49.3129,48.0557 49.131,48.2335 C45.6707,51.6155 43.523,56.3108 43.523,61.5015 C43.523,66.7455 45.7151,71.4839 49.2381,74.8733 C49.3934,75.0227 49.5782,75.1897 49.7899,75.3732 C50.0334,75.5842 50.0667,75.9365 49.8743,76.1861 L47.8933,78.7549 C47.6847,79.0254 47.2821,79.0835 46.9998,78.872 C46.9897,78.8645 46.98,78.8567 46.9705,78.8487 C46.7796,78.687 46.6208,78.5478 46.4925,78.4304 C41.8802,74.2079 39,68.1853 39,61.5015 C39,54.705 41.9782,48.5919 46.7274,44.3604 C46.7969,44.2985 46.8767,44.2291 46.9673,44.1521 C47.2341,43.9252 47.64,43.9567 47.867,44.2159 C47.8754,44.2255 47.8834,44.2353 47.8912,44.2453 L49.8758,46.8188 C50.0681,47.0682 50.035,47.4204 49.7913,47.6317 Z M85,61.4978 C85,68.3032 82.0152,74.4233 77.2571,78.6556 C77.1926,78.713 77.119,78.7769 77.036,78.8476 C76.7693,79.0747 76.3639,79.0433 76.1371,78.7843 C76.1345,78.7814 76.132,78.7785 76.1295,78.7755 C76.1237,78.7687 76.1181,78.7617 76.1127,78.7547 L74.126,76.1774 C73.9339,75.9283 73.9668,75.5762 74.21,75.3648 C74.5459,75.0728 74.8297,74.8121 75.0555,74.5852 C78.4076,71.2175 80.4793,66.5965 80.4793,61.4978 C80.4793,56.4615 78.458,51.8912 75.178,48.5345 C74.9235,48.274 74.5976,47.9724 74.2075,47.6325 C73.965,47.4213 73.9322,47.0695 74.1243,46.8203 L76.1093,44.2453 C76.318,43.9746 76.72,43.9167 77.0019,44.128 C77.0052,44.1304 77.0085,44.1329 77.0117,44.1354 C77.0183,44.1406 77.0248,44.1459 77.0311,44.1512 C77.2609,44.3458 77.4491,44.5114 77.5981,44.6493 C82.1573,48.8677 85,54.8562 85,61.4978 Z M66,62 C66,64.2091 64.2091,66 62,66 C59.7909,66 58,64.2091 58,62 C58,59.7909 59.7909,58 62,58 C64.2091,58 66,59.7909 66,62 Z"/>
    <path stroke="currentColor" stroke-width="2" d="M64.7278,71.6237 L64,71.8295 L64,72.5859 L64,100 C64,100.552 63.5523,101 63,101 L61,101 C60.4477,101 60,100.552 60,100 L60,72.5859 L60,71.8295 L59.2722,71.6237 C55.0744,70.4364 52,66.5759 52,62 C52,56.4772 56.4772,52 62,52 C67.5228,52 72,56.4772 72,62 C72,66.5759 68.9256,70.4364 64.7278,71.6237 Z"/>
  </g>
</svg>
