<svg xmlns="http://www.w3.org/2000/svg" width="128" height="128" viewBox="0 0 128 128">
  <g fill="none" fill-rule="evenodd">
    <path fill="#FFF" fill-rule="nonzero" d="M60.5,73.095 L61.5,73.095 L61.5,72.3487 L60.7845,72.1363 L60.5,73.095 Z M66.5,73.095 L66.2155,72.1363 L65.5,72.3487 L65.5,73.095 L66.5,73.095 Z M45.5454,40.9849 L46.1748,41.762 L45.5454,40.9849 Z M44.3158,84.0759 L43.6435,84.8162 L44.3158,84.0759 Z M45.1403,84.785 L45.9087,85.425 L46.55,84.655 L45.7787,84.0153 L45.1403,84.785 Z M45.1402,84.7852 L44.3718,84.1451 L43.7304,84.9151 L44.5017,85.5549 L45.1402,84.7852 Z M45.3752,86.84 L44.5798,86.2338 L45.3752,86.84 Z M43.5579,89.2244 L42.7626,88.6183 L42.1539,89.417 L42.9551,90.0223 L43.5579,89.2244 Z M43.5581,89.2245 L44.3535,89.8307 L44.9622,89.032 L44.1609,88.4266 L43.5581,89.2245 Z M41.4559,89.5104 L42.0599,88.7134 L41.4559,89.5104 Z M41.4092,89.4736 L40.7741,90.2459 L41.4092,89.4736 Z M40.4785,88.6823 L39.812,89.4278 L40.4785,88.6823 Z M41.964,36.1784 L41.3404,35.3967 L41.964,36.1784 Z M43.1111,36.3055 L42.3311,36.9312 L43.1111,36.3055 Z M43.1236,36.3214 L42.3283,36.9276 L43.1236,36.3214 Z M45.6998,39.7016 L44.9044,40.3077 L45.5019,41.0917 L46.2944,40.5056 L45.6998,39.7016 Z M45.6998,39.7015 L46.4952,39.0954 L45.8977,38.3114 L45.1052,38.8975 L45.6998,39.7015 Z M86.6539,88.5633 L87.3242,89.3054 L86.6539,88.5633 Z M85.5903,89.4716 L84.8269,90.1175 L85.4643,90.8708 L86.226,90.2435 L85.5903,89.4716 Z M85.5902,89.4714 L86.3536,88.8255 L85.7162,88.0722 L84.9545,88.6995 L85.5902,89.4714 Z M83.4788,89.2706 L82.7086,89.9084 L83.4788,89.2706 Z M83.4412,89.2232 L84.2365,88.617 L83.4412,89.2232 Z M81.6246,86.8396 L82.4199,86.2335 L82.4199,86.2334 L81.6246,86.8396 Z M81.8594,84.7846 L81.2209,84.0151 L81.8594,84.7846 Z M82.7139,84.0489 L83.3872,84.7882 L82.7139,84.0489 Z M82.6751,42.0314 L82.0031,42.772 L82.6751,42.0314 Z M81.8601,41.3308 L82.4985,40.561 L81.7312,39.9247 L81.0924,40.6899 L81.8601,41.3308 Z M81.86,41.3308 L81.2216,42.1005 L81.9889,42.7369 L82.6277,41.9717 L81.86,41.3308 Z M81.6249,39.2755 L80.8296,38.6694 L81.6249,39.2755 Z M83.446,36.8861 L84.0502,36.0893 L83.2553,35.4865 L82.6506,36.2799 L83.446,36.8861 Z M83.446,36.8861 L82.8418,37.6829 L83.6367,38.2857 L84.2414,37.4923 L83.446,36.8861 Z M85.5478,36.6003 L86.1518,35.8033 L85.5478,36.6003 Z M85.5933,36.6362 L86.2276,35.8631 L85.5933,36.6362 Z M86.0144,36.9887 L85.3625,37.747 L86.0144,36.9887 Z M52.4485,50.852 L53.108,51.6037 L52.4485,50.852 Z M51.8816,51.3745 L51.1784,50.6635 L51.8816,51.3745 Z M51.9749,74.8327 L51.2773,75.5492 L51.9749,74.8327 Z M52.447,75.2652 L53.1998,75.9236 L53.8573,75.1718 L53.1063,74.5133 L52.447,75.2652 Z M52.4469,75.2653 L51.6942,74.607 L51.0367,75.3588 L51.7876,76.0172 L52.4469,75.2653 Z M52.6507,77.2935 L53.446,77.8997 L52.6507,77.2935 Z M50.8285,79.6844 L50.2248,80.4816 L51.0195,81.0835 L51.6239,80.2906 L50.8285,79.6844 Z M50.8283,79.6842 L51.4321,78.8871 L50.6373,78.2851 L50.033,79.0781 L50.8283,79.6842 Z M48.7268,79.97 L49.3309,79.173 L48.7268,79.97 Z M48.6569,79.9137 L49.3076,79.1543 L48.6569,79.9137 Z M48.1905,79.5005 L47.5109,80.2342 L48.1905,79.5005 Z M48.4158,46.4091 L47.7462,45.6664 L48.4158,46.4091 Z M48.6524,46.2012 L49.4069,45.5449 L48.7541,44.7944 L48.0002,45.4432 L48.6524,46.2012 Z M48.6525,46.2013 L47.898,46.8576 L48.5509,47.6081 L49.3048,46.9593 L48.6525,46.2013 Z M50.768,46.3565 L51.5241,45.7021 L50.768,46.3565 Z M50.8266,46.4286 L51.6219,45.8225 L50.8266,46.4286 Z M52.652,48.8239 L53.2567,49.6203 L54.0546,49.0145 L53.4474,48.2177 L52.652,48.8239 Z M52.652,48.8239 L52.0473,48.0275 L51.2494,48.6333 L51.8566,49.4301 L52.652,48.8239 Z M78.5668,79.7221 L79.2357,80.4655 L78.5668,79.7221 Z M78.3483,79.914 L77.6957,79.1563 L76.935,79.8114 L77.5931,80.5696 L78.3483,79.914 Z M78.3484,79.9142 L79.001,80.6719 L79.7617,80.0168 L79.1036,79.2586 L78.3484,79.9142 Z M76.2325,79.7597 L76.9885,79.1051 L76.2325,79.7597 Z M76.1735,79.6871 L76.9689,79.081 L76.1735,79.6871 Z M74.3455,77.2885 L73.7345,76.4968 L72.9476,77.1041 L73.5501,77.8946 L74.3455,77.2885 Z M74.3456,77.2884 L74.9566,78.08 L75.7435,77.4728 L75.141,76.6822 L74.3456,77.2884 Z M74.5478,75.2616 L75.2081,76.0126 L74.5478,75.2616 Z M75.2774,74.5818 L74.5646,73.8804 L75.2774,74.5818 Z M75.3841,51.6433 L74.6649,52.3381 L75.3841,51.6433 Z M74.5448,50.8551 L73.7962,50.1921 L73.1315,50.9426 L73.8836,51.6054 L74.5448,50.8551 Z M74.5449,50.855 L75.2935,51.518 L75.9582,50.7676 L75.206,50.1047 L74.5449,50.855 Z M74.3439,48.8292 L73.5485,48.223 L74.3439,48.8292 Z M76.1704,46.4326 L76.7743,45.6355 L75.9795,45.0333 L75.375,45.8264 L76.1704,46.4326 Z M76.1704,46.4326 L75.5665,47.2297 L76.3613,47.8319 L76.9658,47.0388 L76.1704,46.4326 Z M78.2722,46.1468 L77.6682,46.9438 L78.2722,46.1468 Z M78.342,46.2031 L78.9926,45.4437 L78.342,46.2031 Z M78.8939,46.6937 L79.5772,45.9635 L78.8939,46.6937 Z M65,99.4535 L62,99.4535 L62,101.454 L65,101.454 L65,99.4535 Z M62,99.4535 C61.7212,99.4535 61.5,99.2289 61.5,98.9577 L59.5,98.9577 C59.5,100.339 60.6219,101.454 62,101.454 L62,99.4535 Z M61.5,98.9577 L61.5,73.095 L59.5,73.095 L59.5,98.9577 L61.5,98.9577 Z M60.7845,72.1363 C56.8584,70.9711 54,67.3448 54,63.0578 L52,63.0578 C52,68.2575 55.4671,72.6444 60.2155,74.0537 L60.7845,72.1363 Z M54,63.0578 C54,57.8299 58.2507,53.587 63.5,53.587 L63.5,51.587 C57.1513,51.587 52,56.72 52,63.0578 L54,63.0578 Z M63.5,53.587 C68.7493,53.587 73,57.8299 73,63.0578 L75,63.0578 C75,56.72 69.8486,51.587 63.5,51.587 L63.5,53.587 Z M73,63.0578 C73,67.3448 70.1415,70.9711 66.2155,72.1363 L66.7845,74.0537 C71.5329,72.6444 75,68.2575 75,63.0578 L73,63.0578 Z M65.5,73.095 L65.5,98.9577 L67.5,98.9577 L67.5,73.095 L65.5,73.095 Z M65.5,98.9577 C65.5,99.2289 65.2788,99.4535 65,99.4535 L65,101.454 C66.3781,101.454 67.5,100.339 67.5,98.9577 L65.5,98.9577 Z M44.916,40.2078 C38.2581,45.6 34,53.833 34,63.0578 L36,63.0578 C36,54.463 39.9646,46.7916 46.1748,41.762 L44.916,40.2078 Z M34,63.0578 C34,71.6802 37.7204,79.4368 43.6435,84.8162 L44.9881,83.3356 C39.464,78.3186 36,71.092 36,63.0578 L34,63.0578 Z M43.6435,84.8162 C43.872,85.0237 44.1593,85.2705 44.5019,85.5547 L45.7787,84.0153 C45.4487,83.7416 45.1863,83.5157 44.9881,83.3356 L43.6435,84.8162 Z M44.3719,84.145 L44.3718,84.1451 L45.9085,85.4252 L45.9087,85.425 L44.3719,84.145 Z M44.5017,85.5549 C44.7065,85.7247 44.7401,86.0235 44.5798,86.2338 L46.1705,87.4461 C46.9816,86.3819 46.808,84.8693 45.7786,84.0155 L44.5017,85.5549 Z M44.5798,86.2338 L42.7626,88.6183 L44.3533,89.8306 L46.1705,87.4461 L44.5798,86.2338 Z M42.9551,90.0223 L42.9553,90.0224 L44.1609,88.4266 L44.1607,88.4265 L42.9551,90.0223 Z M42.7628,88.6184 C42.596,88.8372 42.2808,88.8809 42.0599,88.7134 L40.8519,90.3074 C41.9503,91.1399 43.5176,90.9275 44.3535,89.8307 L42.7628,88.6184 Z M42.0599,88.7134 C42.0547,88.7095 42.0495,88.7054 42.0444,88.7012 L40.7741,90.2459 C40.7996,90.2669 40.8255,90.2874 40.8519,90.3074 L42.0599,88.7134 Z M42.0444,88.7012 C41.6703,88.3936 41.3716,88.1394 41.145,87.9368 L39.812,89.4278 C40.0667,89.6556 40.3885,89.9289 40.7741,90.2459 L42.0444,88.7012 Z M41.145,87.9368 C34.3022,81.8192 30,72.9398 30,63.0578 L28,63.0578 C28,73.5338 32.5635,82.9475 39.812,89.4278 L41.145,87.9368 Z M30,63.0578 C30,52.4986 34.9123,43.0834 42.5876,36.9601 L41.3404,35.3967 C33.2108,41.8824 28,51.8632 28,63.0578 L30,63.0578 Z M42.5876,36.9601 C42.5092,37.0227 42.3948,37.0107 42.3311,36.9312 L43.8912,35.6797 C43.2643,34.8983 42.1228,34.7725 41.3404,35.3967 L42.5876,36.9601 Z M42.3311,36.9312 C42.3302,36.93 42.3292,36.9288 42.3283,36.9276 L43.919,35.7153 C43.9099,35.7033 43.9006,35.6915 43.8912,35.6797 L42.3311,36.9312 Z M42.3283,36.9276 L44.9044,40.3077 L46.4951,39.0954 L43.919,35.7153 L42.3283,36.9276 Z M46.2944,40.5056 L46.2944,40.5055 L45.1052,38.8975 L45.1051,38.8976 L46.2944,40.5056 Z M44.9045,40.3077 C44.8806,40.2763 44.8866,40.2316 44.916,40.2078 L46.1748,41.762 C46.9849,41.1059 47.1276,39.9252 46.4952,39.0954 L44.9045,40.3077 Z M97,63.0578 C97,72.8778 92.7516,81.7076 85.9836,87.8212 L87.3242,89.3054 C94.4936,82.8292 99,73.4679 99,63.0578 L97,63.0578 Z M85.9836,87.8212 C85.7285,88.0516 85.3868,88.3437 84.9546,88.6997 L86.226,90.2435 C86.6704,89.8776 87.0378,89.5641 87.3242,89.3054 L85.9836,87.8212 Z M86.3537,88.8257 L86.3536,88.8255 L84.8268,90.1173 L84.8269,90.1175 L86.3537,88.8257 Z M84.9545,88.6995 C84.7409,88.8753 84.4245,88.8447 84.249,88.6327 L82.7086,89.9084 C83.5879,90.9702 85.1621,91.1194 86.2259,90.2433 L84.9545,88.6995 Z M84.249,88.6327 C84.2447,88.6276 84.2406,88.6224 84.2365,88.617 L82.6458,89.8293 C82.6662,89.8561 82.6871,89.8824 82.7086,89.9084 L84.249,88.6327 Z M84.2365,88.617 L82.4199,86.2335 L80.8293,87.4458 L82.6458,89.8293 L84.2365,88.617 Z M82.4199,86.2334 C82.2596,86.0231 82.2931,85.7242 82.498,85.5542 L81.2209,84.0151 C80.1916,84.8691 80.0181,86.3816 80.8293,87.4458 L82.4199,86.2334 Z M82.498,85.5542 C82.8538,85.259 83.1514,85.003 83.3872,84.7882 L82.0405,83.3096 C81.8359,83.4959 81.5639,83.7304 81.2209,84.0151 L82.498,85.5542 Z M83.3872,84.7882 C89.2925,79.4099 93,71.6652 93,63.0578 L91,63.0578 C91,71.0781 87.5479,78.2936 82.0405,83.3096 L83.3872,84.7882 Z M93,63.0578 C93,54.4309 89.2757,46.6706 83.3471,41.2908 L82.0031,42.772 C87.5323,47.7893 91,55.0193 91,63.0578 L93,63.0578 Z M83.3471,41.2908 C83.1208,41.0856 82.8368,40.8417 82.4985,40.561 L81.2217,42.1005 C81.5475,42.3707 81.8069,42.5939 82.0031,42.772 L83.3471,41.2908 Z M81.0924,40.6899 L81.0924,40.69 L82.6277,41.9717 L82.6277,41.9716 L81.0924,40.6899 Z M82.4984,40.5611 C82.2935,40.3911 82.2599,40.0922 82.4203,39.8817 L80.8296,38.6694 C80.0184,39.7338 80.192,41.2466 81.2216,42.1005 L82.4984,40.5611 Z M82.4203,39.8817 L84.2413,37.4922 L82.6506,36.2799 L80.8296,38.6694 L82.4203,39.8817 Z M82.8417,37.6829 L82.8418,37.6829 L84.0503,36.0893 L84.0502,36.0893 L82.8417,37.6829 Z M84.2414,37.4923 C84.4081,37.2736 84.723,37.23 84.9438,37.3973 L86.1518,35.8033 C85.0535,34.971 83.4865,35.1833 82.6507,36.28 L84.2414,37.4923 Z M84.9438,37.3973 C84.9489,37.4012 84.954,37.4052 84.9589,37.4092 L86.2276,35.8631 C86.2027,35.8427 86.1775,35.8228 86.1518,35.8033 L84.9438,37.3973 Z M84.9589,37.4092 C85.1167,37.5387 85.2509,37.6511 85.3625,37.747 L86.6662,36.2304 C86.54,36.1219 86.3936,35.9993 86.2276,35.8631 L84.9589,37.4092 Z M85.3625,37.747 C92.4907,43.8746 97,52.9409 97,63.0578 L99,63.0578 C99,52.3325 94.2168,42.721 86.6662,36.2304 L85.3625,37.747 Z M51.789,50.1003 C51.5519,50.3083 51.3471,50.4966 51.1784,50.6635 L52.5847,52.0855 C52.7159,51.9558 52.8891,51.7958 53.108,51.6037 L51.789,50.1003 Z M51.1784,50.6635 C47.982,53.8247 46,58.2111 46,63.0578 L48,63.0578 C48,58.7677 49.752,54.887 52.5847,52.0855 L51.1784,50.6635 Z M46,63.0578 C46,67.9544 48.0229,72.381 51.2773,75.5492 L52.6724,74.1161 C49.7882,71.3083 48,67.3919 48,63.0578 L46,63.0578 Z M51.2773,75.5492 C51.4213,75.6894 51.5924,75.8458 51.7878,76.0171 L53.1063,74.5133 C52.9277,74.3567 52.784,74.2247 52.6724,74.1161 L51.2773,75.5492 Z M51.6943,74.6069 L51.6942,74.607 L53.1996,75.9237 L53.1998,75.9236 L51.6943,74.6069 Z M51.7876,76.0172 C51.9836,76.1891 52.0125,76.4812 51.8553,76.6874 L53.446,77.8997 C54.241,76.8565 54.092,75.3778 53.1062,74.5135 L51.7876,76.0172 Z M51.8553,76.6874 L50.0332,79.0783 L51.6239,80.2906 L53.446,77.8997 L51.8553,76.6874 Z M51.4323,78.8872 L51.4321,78.8871 L50.2245,80.4814 L50.2248,80.4816 L51.4323,78.8872 Z M50.033,79.0781 C49.8663,79.2967 49.5515,79.3403 49.3309,79.173 L48.1228,80.767 C49.221,81.5993 50.7879,81.387 51.6237,80.2904 L50.033,79.0781 Z M49.3309,79.173 C49.3229,79.167 49.3151,79.1607 49.3076,79.1543 L48.0063,80.6731 C48.0442,80.7055 48.0831,80.7369 48.1228,80.767 L49.3309,79.173 Z M49.3076,79.1543 C49.1325,79.0042 48.9872,78.8754 48.8701,78.7669 L47.5109,80.2342 C47.6523,80.3651 47.818,80.5117 48.0063,80.6731 L49.3076,79.1543 Z M48.8701,78.7669 C44.6424,74.8507 42,69.2624 42,63.0578 L40,63.0578 C40,69.8432 42.8925,75.9559 47.5109,80.2342 L48.8701,78.7669 Z M42,63.0578 C42,56.7486 44.7323,51.0765 49.0854,47.1519 L47.7462,45.6664 C42.9909,49.9536 40,56.1578 40,63.0578 L42,63.0578 Z M49.0854,47.1519 C49.1488,47.0947 49.2217,47.0306 49.3047,46.9592 L48.0002,45.4432 C47.908,45.5226 47.8232,45.597 47.7462,45.6664 L49.0854,47.1519 Z M47.898,46.8576 L49.407,45.5449 L49.4069,45.5449 L47.898,46.8576 Z M49.3048,46.9593 C49.5144,46.7789 49.8315,46.8025 50.0118,47.0108 L51.5241,45.7021 C50.622,44.6596 49.0449,44.5443 48.0002,45.4433 L49.3048,46.9593 Z M50.0118,47.0108 C50.0185,47.0186 50.025,47.0266 50.0312,47.0348 L51.6219,45.8225 C51.5906,45.7814 51.558,45.7412 51.5241,45.7021 L50.0118,47.0108 Z M50.0312,47.0348 L51.8567,49.43 L53.4474,48.2177 L51.6219,45.8225 L50.0312,47.0348 Z M52.0473,48.0274 L52.0473,48.0275 L53.2567,49.6204 L53.2567,49.6203 L52.0473,48.0274 Z M51.8566,49.4301 C52.0138,49.6363 51.985,49.9283 51.789,50.1003 L53.108,51.6037 C54.0934,50.7392 54.2422,49.2607 53.4473,48.2178 L51.8566,49.4301 Z M85,63.0578 C85,69.375 82.2608,75.0535 77.898,78.9787 L79.2357,80.4655 C84.0015,76.1777 87,69.9666 87,63.0578 L85,63.0578 Z M77.898,78.9787 C77.8391,79.0317 77.7718,79.0908 77.6957,79.1563 L79.0009,80.6718 C79.0857,80.5987 79.1641,80.5299 79.2357,80.4655 L77.898,78.9787 Z M77.5931,80.5696 L77.5932,80.5697 L79.1036,79.2586 L79.1035,79.2585 L77.5931,80.5696 Z M77.6958,79.1564 C77.4862,79.337 77.1689,79.3134 76.9885,79.1051 L75.4766,80.4144 C76.3792,81.4566 77.9565,81.5714 79.001,80.6719 L77.6958,79.1564 Z M76.9885,79.1051 C76.9817,79.0973 76.9751,79.0892 76.9689,79.081 L75.3782,80.2933 C75.4097,80.3347 75.4425,80.375 75.4766,80.4144 L76.9885,79.1051 Z M76.9689,79.081 L75.1408,76.6823 L73.5501,77.8946 L75.3782,80.2933 L76.9689,79.081 Z M74.9564,78.0802 L74.9566,78.08 L73.7347,76.4967 L73.7345,76.4968 L74.9564,78.0802 Z M75.141,76.6822 C74.984,76.4762 75.0126,76.1845 75.2081,76.0126 L73.8875,74.5106 C72.9039,75.3754 72.7561,76.8524 73.5503,77.8945 L75.141,76.6822 Z M75.2081,76.0126 C75.518,75.7401 75.7806,75.4961 75.9901,75.2832 L74.5646,73.8804 C74.401,74.0466 74.1772,74.2558 73.8875,74.5106 L75.2081,76.0126 Z M75.9901,75.2832 C79.0876,72.1356 81,67.8187 81,63.0578 L79,63.0578 C79,67.2721 77.3094,71.0911 74.5646,73.8804 L75.9901,75.2832 Z M81,63.0578 C81,58.3553 79.1341,54.0857 76.1033,50.9485 L74.6649,52.3381 C77.3505,55.118 79,58.895 79,63.0578 L81,63.0578 Z M76.1033,50.9485 C75.8672,50.7041 75.5657,50.4219 75.2059,50.1048 L73.8836,51.6054 C74.222,51.9036 74.4801,52.1468 74.6649,52.3381 L76.1033,50.9485 Z M75.2934,51.5181 L75.2935,51.518 L73.7963,50.192 L73.7962,50.1921 L75.2934,51.5181 Z M75.206,50.1047 C75.0108,49.9327 74.9823,49.6412 75.1392,49.4353 L73.5485,48.223 C72.755,49.2643 72.9018,50.74 73.8837,51.6053 L75.206,50.1047 Z M75.1392,49.4353 L76.9657,47.0387 L75.375,45.8264 L73.5485,48.223 L75.1392,49.4353 Z M75.5665,47.2296 L75.5665,47.2297 L76.7743,45.6356 L76.7743,45.6355 L75.5665,47.2296 Z M76.9658,47.0388 C77.1325,46.8201 77.4474,46.7765 77.6682,46.9438 L78.8762,45.3498 C77.7779,44.5175 76.2109,44.7298 75.3751,45.8265 L76.9658,47.0388 Z M77.6682,46.9438 C77.6761,46.9498 77.6839,46.9561 77.6915,46.9625 L78.9926,45.4437 C78.9548,45.4112 78.916,45.38 78.8762,45.3498 L77.6682,46.9438 Z M77.6915,46.9625 C77.9023,47.1431 78.0746,47.2965 78.2106,47.4238 L79.5772,45.9635 C79.4133,45.8102 79.2177,45.6365 78.9926,45.4437 L77.6915,46.9625 Z M78.2106,47.4238 C82.3912,51.3363 85,56.8927 85,63.0578 L87,63.0578 C87,56.3157 84.1443,50.2377 79.5772,45.9635 L78.2106,47.4238 Z M63.5001,68.5453 C66.535,68.5453 69.0001,66.0911 69.0001,63.0578 L67.0001,63.0578 C67.0001,64.9813 65.4357,66.5453 63.5001,66.5453 L63.5001,68.5453 Z M69.0001,63.0578 C69.0001,60.0245 66.535,57.5703 63.5001,57.5703 L63.5001,59.5703 C65.4357,59.5703 67.0001,61.1343 67.0001,63.0578 L69.0001,63.0578 Z M63.5001,57.5703 C60.4651,57.5703 58.0001,60.0245 58.0001,63.0578 L60.0001,63.0578 C60.0001,61.1343 61.5644,59.5703 63.5001,59.5703 L63.5001,57.5703 Z M58.0001,63.0578 C58.0001,66.0911 60.4651,68.5453 63.5001,68.5453 L63.5001,66.5453 C61.5644,66.5453 60.0001,64.9813 60.0001,63.0578 L58.0001,63.0578 Z"/>
    <path fill="#FFF" d="M90.867,42.1064 C89.4278,40.2397 87.8008,38.5244 86.0143,36.9887 C85.8954,36.8865 85.7551,36.769 85.5932,36.6362 C85.5783,36.6239 85.5631,36.612 85.5477,36.6003 C84.8882,36.1005 83.9472,36.2284 83.4459,36.8861 L83.014,37.4528 L90.867,42.1064 Z M79.041,57.5169 L84.6806,55.4694 C85.5346,57.8396 85.9999,60.3945 85.9999,63.0578 C85.9999,69.6708 83.1311,75.6156 78.5668,79.7221 C78.5015,79.7808 78.4287,79.8448 78.3482,79.914 C77.7212,80.4541 76.774,80.385 76.2325,79.7597 C76.212,79.7361 76.1924,79.7119 76.1735,79.6871 L74.3454,77.2885 C73.8698,76.6644 73.9582,75.78 74.5478,75.2616 C74.8476,74.998 75.0908,74.7714 75.2773,74.5818 C78.1984,71.6133 79.9999,67.5454 79.9999,63.0578 C79.9999,61.1137 79.6618,59.2483 79.041,57.5169 Z M53.6639,66.7303 C54.8103,69.7823 57.3443,72.1584 60.4999,73.095 L60.4999,98.9577 C60.4999,99.7838 61.1715,100.454 61.9999,100.454 L64.9999,100.454 C65.8284,100.454 66.4999,99.7838 66.4999,98.9577 L66.4999,73.095 C70.8372,71.8078 73.9999,67.8011 73.9999,63.0578 C73.9999,61.8328 73.789,60.657 73.4014,59.5645 L67.7614,61.6121 C67.9161,62.0657 68,62.552 68,63.0578 C68,65.5362 65.9853,67.5453 63.5,67.5453 C61.5893,67.5453 59.9568,66.3578 59.304,64.6826 L53.6639,66.7303 Z M42.3847,70.8253 L48.0243,68.7778 C48.8818,71.0843 50.2431,73.1468 51.9748,74.8327 C52.1026,74.9571 52.26,75.1012 52.447,75.2652 C53.0379,75.7833 53.1267,76.6688 52.6506,77.2935 L50.8285,79.6844 C50.3273,80.342 49.3862,80.4698 48.7268,79.97 C48.7029,79.9519 48.6796,79.9331 48.6569,79.9137 C48.4752,79.758 48.3197,79.6203 48.1904,79.5005 C45.6268,77.1258 43.6194,74.1621 42.3847,70.8253 Z M31.1056,74.9202 L36.7451,72.8728 C38.3415,77.1989 40.963,81.0309 44.3157,84.0759 C44.5291,84.2697 44.804,84.5061 45.1402,84.785 C45.7574,85.2969 45.8608,86.2027 45.3751,86.84 L43.5579,89.2244 C43.0565,89.8822 42.1155,90.0104 41.4559,89.5104 C41.4401,89.4984 41.4245,89.4861 41.4092,89.4736 C41.0293,89.1612 40.7191,88.8975 40.4785,88.6823 C36.3184,84.9631 33.0692,80.2512 31.1056,74.9202 Z M90.3202,53.422 L95.9597,51.3745 C97.2802,55.0221 97.9999,58.9561 97.9999,63.0578 C97.9999,73.1729 93.6226,82.2684 86.6539,88.5633 C86.3831,88.8079 86.0286,89.1106 85.5903,89.4716 C84.9516,89.9976 84.0062,89.9074 83.4787,89.2706 C83.4732,89.2639 83.4678,89.2572 83.4624,89.2505 C83.4552,89.2414 83.4481,89.2324 83.4411,89.2232 L81.6245,86.8396 C81.1388,86.2023 81.2423,85.2966 81.8594,84.7846 C82.2088,84.4947 82.4936,84.2495 82.7138,84.0489 C88.4202,78.8518 92,71.3717 92,63.0578 C92,59.6753 91.4074,56.4308 90.3202,53.422 Z" opacity=".2"/>
    <path fill="#FFF" d="M117.97,96.5188 C123.702,87.0259 127,75.8981 127,64 C127,29.2061 98.7939,1 64,1 C52.86,1 42.3952,3.8914 33.3154,8.96468 C38.4859,11.7506 42,17.2149 42,23.5 C42,23.803 41.9918,24.1041 41.9757,24.4031 C48.384,20.9559 55.7136,19 63.5,19 C67.489,19 71.3581,19.5133 75.0448,20.4775 C75.5622,14.6052 80.4933,10 86.5,10 C92.8513,10 98,15.1487 98,21.5 C98,25.1257 96.3221,28.3595 93.7005,30.4673 C94.5453,31.2175 95.362,31.9987 96.1488,32.8092 C97.3216,31.112 99.2809,30 101.5,30 C105.09,30 108,32.9101 108,36.5 C108,39.4109 106.087,41.8749 103.449,42.7028 C106.988,49.1755 109,56.6028 109,64.5 C109,89.629 88.629,110 63.5,110 C52.3925,110 42.2147,106.02 34.3148,99.4081 C33.2475,101.538 31.0445,103 28.5,103 C24.9101,103 22,100.09 22,96.5 C22,93.7501 23.7076,91.3991 26.1203,90.4494 C21.001,83.0891 18,74.145 18,64.5 C18,55.478 20.6259,47.0693 25.155,39.9965 C18.7207,39.8645 13.1912,36.0494 10.5889,30.5738 C4.51306,40.2618 1,51.7206 1,64 C1,98.7939 29.2061,127 64,127 C76.4105,127 87.9828,123.411 97.7361,117.215 C95.4139,114.644 94,111.237 94,107.5 C94,99.4918 100.492,93 108.5,93 C112.119,93 115.429,94.326 117.97,96.5188 Z M117.438,97.3827 C115.057,95.2776 111.928,94 108.5,94 C101.044,94 95,100.044 95,107.5 C95,111.038 96.3608,114.258 98.5876,116.665 C106.173,111.673 112.615,105.087 117.438,97.3827 Z M99.3082,117.387 C106.882,112.368 113.326,105.78 118.177,98.0869 C120.543,100.519 122,103.839 122,107.5 C122,114.956 115.956,121 108.5,121 C104.949,121 101.718,119.629 99.3082,117.387 Z M98.4464,117.949 C101.053,120.457 104.596,122 108.5,122 C116.508,122 123,115.508 123,107.5 C123,103.478 121.363,99.8392 118.719,97.2125 C124.608,87.5302 128,76.1612 128,64 C128,28.6538 99.3462,0 64,0 C52.4373,0 41.5908,3.06629 32.2292,8.43008 C30.1742,7.51103 27.8968,7 25.5,7 C16.3873,7 9,14.3873 9,23.5 C9,25.6023 9.39318,27.6128 10.11,29.462 C3.71123,39.4254 0,51.2793 0,64 C0,99.3462 28.6538,128 64,128 C76.6817,128 88.502,124.311 98.4464,117.949 Z M11.2329,29.5682 C13.5942,35.1128 19.0931,39 25.5,39 C25.6048,39 25.7094,38.999 25.8138,38.9969 C29.7095,33.2514 34.8846,28.4438 40.9299,24.9836 C40.9763,24.4953 41,24.0004 41,23.5 C41,17.3704 37.442,12.0719 32.2786,9.55693 C23.8049,14.5049 16.5904,21.3745 11.2329,29.5682 Z M31.1506,9.06221 C23.0201,13.9342 16.061,20.5599 10.796,28.4165 C10.2797,26.8717 10,25.2185 10,23.5 C10,14.9396 16.9396,8 25.5,8 C27.4939,8 29.3998,8.37647 31.1506,9.06221 Z M27.0822,38.9202 C30.6906,33.7924 35.3545,29.4611 40.7582,26.242 C39.5543,32.9865 33.9881,38.2201 27.0822,38.9202 Z M26.3603,39.978 C21.7086,47.0091 19,55.4382 19,64.5 C19,74.0495 22.008,82.8964 27.1282,90.145 C27.5704,90.05 28.0294,90 28.5,90 C32.0898,90 35,92.9101 35,96.5 C35,97.1727 34.8978,97.8214 34.7081,98.4317 C42.4688,105.023 52.52,109 63.5,109 C88.0767,109 108,89.0767 108,64.5 C108,56.6751 105.98,49.322 102.434,42.9334 C102.129,42.9773 101.817,43 101.5,43 C97.9101,43 95,40.0899 95,36.5 C95,35.5012 95.2253,34.555 95.6278,33.7094 C94.7483,32.792 93.8299,31.9122 92.8753,31.0726 C91.0506,32.2902 88.8582,33 86.5,33 C80.1488,33 75.0001,27.8514 75,21.5002 C71.3316,20.5216 67.4767,20 63.5,20 C55.6481,20 48.2712,22.0336 41.8673,25.6028 C40.87,33.4436 34.3698,39.5665 26.3603,39.978 Z M76.0037,21.7807 C76.1525,27.4499 80.7949,32 86.5,32 C88.5523,32 90.467,31.4112 92.0846,30.3933 C87.4369,26.4941 81.9807,23.5272 76.0037,21.7807 Z M92.932,29.8 C95.4071,27.8791 97,24.8756 97,21.5 C97,15.701 92.299,11 86.5,11 C80.9545,11 76.4131,15.299 76.0266,20.7461 C82.3273,22.5466 88.0692,25.6713 92.932,29.8 Z M96.3727,34.5057 C96.132,35.124 96,35.7966 96,36.5 C96,39.5376 98.4624,42 101.5,42 C101.632,42 101.763,41.9953 101.893,41.9862 C100.314,39.2995 98.4611,36.7932 96.3727,34.5057 Z M102.946,41.8078 C105.282,41.1728 107,39.037 107,36.5 C107,33.4624 104.538,31 101.5,31 C99.5465,31 97.8309,32.0184 96.8552,33.5533 C99.1809,36.0588 101.228,38.8268 102.946,41.8078 Z M33.8686,97.7004 C33.9546,97.314 34,96.9123 34,96.5 C34,93.4624 31.5376,91 28.5,91 C28.2566,91 28.0169,91.0158 27.7819,91.0464 C29.5826,93.4654 31.6233,95.6951 33.8686,97.7004 Z M26.7219,91.2938 C24.5569,92.033 23,94.0847 23,96.5 C23,99.5376 25.4624,102 28.5,102 C30.7422,102 32.6711,100.658 33.5274,98.7338 C30.9948,96.5146 28.7106,94.0189 26.7219,91.2938 Z M35.5,109 C36.3284,109 37,108.328 37,107.5 C37,106.672 36.3284,106 35.5,106 C34.6716,106 34,106.672 34,107.5 C34,108.328 34.6716,109 35.5,109 Z M35.5,110 C36.8807,110 38,108.881 38,107.5 C38,106.119 36.8807,105 35.5,105 C34.1193,105 33,106.119 33,107.5 C33,108.881 34.1193,110 35.5,110 Z" opacity=".2"/>
  </g>
</svg>
