<svg xmlns="http://www.w3.org/2000/svg" viewBox="0 0 64 64">
  <g fill="none" fill-rule="evenodd">
    <path fill="currentColor" d="M32.5,44 L31.5,44 C31.2239,44 31,43.7761 31,43.5 L31,34.8551 C29.5543,34.4248 28.5,33.0855 28.5,31.5 C28.5,29.567 30.067,28 32,28 C33.933,28 35.5,29.567 35.5,31.5 C35.5,33.0855 34.4457,34.4248 33,34.8551 L33,43.5 C33,43.7761 32.7761,44 32.5,44 Z M26.0151,24.1218 C23.8705,25.8637 22.5,28.5218 22.5,31.5 C22.5,34.2838 23.6974,36.788 25.6053,38.5256 C25.6764,38.5904 25.768,38.6694 25.8801,38.7626 L25.8801,38.7627 C26.0858,38.9338 26.1203,39.2365 25.9584,39.4495 L25.3526,40.2465 L25.3527,40.2466 C25.1856,40.4665 24.8719,40.5092 24.652,40.3421 C24.6467,40.3381 24.6415,40.334 24.6364,40.3298 C24.5098,40.2254 24.4064,40.1372 24.3262,40.0653 C21.9776,37.9598 20.5,34.9025 20.5,31.5 C20.5,27.8643 22.1872,24.6226 24.8213,22.5152 C24.9387,22.4213 25.1099,22.4404 25.2037,22.5577 C25.2051,22.5595 25.2065,22.5612 25.2079,22.563 L26.0666,23.6929 C26.168,23.8263 26.1452,24.0162 26.0151,24.1218 Z M43.5,31.5 C43.5,34.8811 42.0409,37.9214 39.718,40.0256 C39.6277,40.1073 39.5095,40.2085 39.3634,40.3292 L39.3634,40.3291 C39.1505,40.5049 38.8354,40.4748 38.6596,40.262 C38.6553,40.2568 38.6511,40.2515 38.647,40.2461 L38.0415,39.4494 C37.8796,39.2364 37.9141,38.9336 38.1198,38.7625 C38.2363,38.6656 38.3312,38.5836 38.4046,38.5166 C40.3067,36.7793 41.5,34.279 41.5,31.5 C41.5,28.7147 40.3013,26.2093 38.3917,24.4717 C38.3213,24.4076 38.2307,24.3295 38.12,24.2375 C37.9142,24.0664 37.8797,23.7636 38.0416,23.5505 L38.6487,22.7518 C38.8158,22.5319 39.1294,22.4892 39.3493,22.6563 C39.3544,22.6601 39.3594,22.6641 39.3644,22.6682 C39.4184,22.7126 39.4652,22.7519 39.5048,22.7861 C41.9513,24.895 43.5,28.0166 43.5,31.5 Z M28.3162,27.42 C28.2402,27.4869 28.1772,27.5451 28.1272,27.5947 C27.1223,28.5913 26.5,29.973 26.5,31.5 C26.5,33.0427 27.1352,34.4371 28.1583,35.4359 C28.2009,35.4775 28.2533,35.5257 28.3157,35.5805 L28.3156,35.5805 C28.5126,35.7537 28.5423,36.0497 28.3836,36.2585 L27.7762,37.0577 L27.7761,37.0576 C27.609,37.2774 27.2954,37.3202 27.0756,37.1531 C27.0677,37.1471 27.0599,37.1408 27.0523,37.1343 C26.9917,37.0822 26.9399,37.0362 26.8968,36.9962 C25.4225,35.6266 24.5,33.671 24.5,31.5 C24.5,29.2923 25.4539,27.3074 26.9719,25.935 C26.9953,25.9138 27.0216,25.8907 27.0508,25.8655 C27.2599,25.6851 27.5756,25.7083 27.756,25.9174 C27.7628,25.9252 27.7693,25.9332 27.7755,25.9415 L28.384,26.7421 C28.5427,26.9509 28.5131,27.2468 28.3162,27.42 Z M39.5,31.5 C39.5,33.7105 38.5437,35.6976 37.0223,37.0703 C37.0005,37.0899 36.9762,37.1113 36.9494,37.1344 L36.9495,37.1345 C36.7405,37.315 36.4247,37.2919 36.2442,37.0828 C36.2374,37.075 36.2308,37.0669 36.2245,37.0586 L35.6152,36.2568 C35.4567,36.0482 35.4861,35.7525 35.6826,35.5793 C35.7825,35.4911 35.8636,35.4154 35.9258,35.352 C36.8995,34.3598 37.5,33 37.5,31.5 C37.5,30.0183 36.9141,28.6735 35.9614,27.6846 C35.8912,27.6117 35.798,27.5239 35.6816,27.4211 C35.4854,27.2477 35.4562,26.9523 35.6146,26.7439 L36.2235,25.9428 C36.3906,25.723 36.7042,25.6802 36.9241,25.8473 C36.932,25.8533 36.9398,25.8596 36.9473,25.8661 C37.02,25.9285 37.0813,25.9832 37.1313,26.0301 C38.5893,27.3983 39.5,29.3428 39.5,31.5 Z M32,33 C32.8284,33 33.5,32.3284 33.5,31.5 C33.5,30.6716 32.8284,30 32,30 C31.1716,30 30.5,30.6716 30.5,31.5 C30.5,32.3284 31.1716,33 32,33 Z"/>
    <circle cx="32" cy="32" r="19" stroke="currentColor" stroke-width="2" opacity=".2"/>
    <circle cx="32" cy="32" r="15" stroke="currentColor" stroke-width="2" opacity=".2"/>
    <circle cx="32" cy="32" r="23" stroke="currentColor" stroke-width="2"/>
  </g>
</svg>
