<svg xmlns="http://www.w3.org/2000/svg" width="128" height="128" viewBox="0 0 128 128">
  <g fill="none" fill-rule="evenodd">
    <path stroke="#FFF" stroke-width="2" d="M36.8832,52.9374 L37.7819,53.103 L38.0276,52.2228 C41.8056,38.6844 54.2303,28.7537 68.9718,28.7537 C79.4954,28.7537 88.8371,33.8131 94.6979,41.6365 L94.9792,42.0121 L95.448,42.0357 C108.925,42.7133 119.644,53.8559 119.644,67.5015 C119.644,81.5839 108.228,93 94.1454,93 L33.1988,93 C22.0433,93 13,83.9567 13,72.8012 C13,61.6457 22.0433,52.6024 33.1988,52.6024 C34.4579,52.6024 35.6893,52.7175 36.8832,52.9374 Z"/>
    <path fill="#FFF" d="M97.5011 93.7895L94.3019 90.5903C102.776 88.0954 108.962 80.2582 108.962 70.9762 108.962 59.6855 99.8088 50.5325 88.518 50.5325 83.8983 50.5325 79.6364 52.0649 76.2129 54.649 76.2387 54.2537 76.2518 53.8549 76.2518 53.453 76.2518 43.4526 68.1449 35.3457 58.1445 35.3457 52.895 35.3457 48.1673 37.5795 44.86 41.1485L43.4607 39.7491C49.5363 32.4212 58.709 27.7537 68.9718 27.7537 79.8237 27.7537 89.4568 32.9724 95.4982 41.0369 109.504 41.7412 120.644 53.3205 120.644 67.5015 120.644 80.9995 110.552 92.1403 97.5011 93.7895zM104.769 103C115.311 103 123.895 110.55 124.901 120.108 124.947 120.546 124.584 121 124 121L66.5833 121 59.4768 121C59.1527 121 58.8888 120.851 58.737 120.652 58.5928 120.464 58.5472 120.235 58.6421 119.99 60.9602 113.994 67.0912 109.667 74.3384 109.667 78.5439 109.667 82.3776 111.125 85.3069 113.524L86.2338 114.283 86.8149 113.235C90.1795 107.17 96.9427 103 104.769 103zM126.89 119.899C125.768 109.24 116.248 101 104.769 101 96.6587 101 89.5399 105.106 85.6548 111.271 82.5099 109.007 78.586 107.667 74.3384 107.667 66.2971 107.667 59.4042 112.473 56.7767 119.268 56.02 121.225 57.6259 123 59.4768 123L66.5833 123 124 123C125.625 123 127.075 121.658 126.89 119.899z" opacity=".2"/>
    <path fill="#FFF" d="M54.9412 29.0062C53.196 16.5695 42.5133 7 29.5955 7 15.4595 7 4 18.4595 4 32.5955 4 42.4943 9.61929 51.0807 17.842 55.3387 17.291 55.7863 16.763 56.2609 16.2599 56.7606 7.75741 52.0585 2 42.9993 2 32.5955 2 17.3549 14.3549 5 29.5955 5 43.3835 5 54.8097 15.1122 56.8625 28.3248 56.2131 28.5327 55.5725 28.76 54.9412 29.0062zM49.5 88L35 88 35 87.9307C34.5064 87.9765 34.006 88 33.5 88 24.9396 88 18 81.2843 18 73 18 64.7157 24.9396 58 33.5 58 39.1581 58 44.108 60.9339 46.8142 65.3153 47.6758 65.1092 48.5752 65 49.5 65 55.8513 65 61 70.1487 61 76.5 61 82.6837 56.1193 87.7275 50 87.9893L50 88 49.5 88z" opacity=".2"/>
    <path stroke="#FFF" stroke-width="2" d="M123.627,28 C124.551,28 125.39,27.5794 125.916,26.9097 C126.454,26.2262 126.66,25.2818 126.285,24.3475 C124.812,20.6756 121.581,18 117.708,18 C115.754,18 113.954,18.6861 112.466,19.8376 C110.499,16.3698 107.102,14 103.154,14 C97.4958,14 93.0035,18.8313 92.1494,24.8656 C91.8959,26.6568 93.388,28 95,28 L123.627,28 Z" opacity=".2"/>
  </g>
</svg>
