<svg xmlns="http://www.w3.org/2000/svg" viewBox="0 0 64 64">
  <g fill="none" fill-rule="evenodd">
    <path fill="#FFF" d="M44,33.5 C44,39.8513 38.8513,45 32.5,45 C32.3325,45 32.1658,44.9964 32,44.9893 L32,45 L18.9081,45 C18.1717,45.2265 17.3858,45.3488 16.5698,45.3488 C12.3891,45.3488 9,42.1367 9,38.1744 C9,34.2121 12.3891,31 16.5698,31 C18.2475,31 19.7977,31.5173 21.0526,32.3928 C21.6097,26.561 26.5222,22 32.5,22 C38.8513,22 44,27.1487 44,33.5 Z M23.5298,41 L23.7819,41 C23.7258,40.9348 23.6703,40.8689 23.6156,40.8024 C23.588,40.8687 23.5594,40.9346 23.5298,41 Z" opacity=".2"/>
    <path stroke="#FFF" stroke-width="2" d="M17.505,28.4035 L18.4088,28.5723 L18.6528,27.6859 C20.5107,20.9361 26.6154,16 33.8415,16 C39.0012,16 43.5859,18.5141 46.466,22.4117 L46.747,22.792 L47.2193,22.8161 C53.7687,23.15 59,28.645 59,35.4 C59,42.3718 53.4289,48 46.5854,48 L15.7317,48 C10.36993,48 6,43.5896 6,38.12 C6,32.6504 10.36993,28.24 15.7317,28.24 C16.3381,28.24 16.9307,28.2962 17.505,28.4035 Z"/>
  </g>
</svg>
