<svg fill="none" viewBox="0 0 64 64" xmlns="http://www.w3.org/2000/svg"><g clip-rule="evenodd" fill="currentColor" fill-rule="evenodd"><path d="m51 10c0-.55228-.4477-1-1-1s-1 .44772-1 1v4h-3v-3c0-.5523-.4477-1-1-1s-1 .4477-1 1v3h-3v-3c0-.5523-.4477-1-1-1s-1 .4477-1 1v3h-3v-3c0-.5523-.4477-1-1-1s-1 .4477-1 1v3h-3v-3c0-.5523-.4477-1-1-1s-1 .4477-1 1v3h-3v-3c0-.5523-.4477-1-1-1s-1 .4477-1 1v3h-3v-3c0-.5523-.4477-1-1-1s-1 .4477-1 1v3h-3v-3c0-.5523-.4477-1-1-1s-1 .4477-1 1v3h-3c-.5523 0-1 .4477-1 1s.4477 1 1 1h3v3h-3c-.5523 0-1 .4477-1 1s.4477 1 1 1h3v3h-3c-.5523 0-1 .4477-1 1s.4477 1 1 1h3v3h-3c-.5523 0-1 .4477-1 1s.4477 1 1 1h3v3h-3c-.5523 0-1 .4477-1 1s.4477 1 1 1h3v3h-3c-.5523 0-1 .4477-1 1s.4477 1 1 1h3v3h-3c-.5523 0-1 .4477-1 1s.4477 1 1 1h3v3h-3c-.5523 0-1 .4477-1 1 0 .2876.1214.5468.3157.7292l5.6843-1.934v-2.7952h3v1.7746l.2696-.0918c.3242-.0981.6484-.1309 1.0807-.1636.2447 0 .4547.0105.6497.0374v-1.5566h3v2.428l7.158 2.1673 2.7351-1.5953h-2.8931v-3h3v2.9377l2-1.1666v-1.7711h3v.0213l2.4252-1.4146c.2162-.1309.6485-.229 1.0808-.229.4323-.0328.9727.0327 1.2969.1309l7.1971 2.0355v-.5441h3c.5523 0 1-.4477 1-1s-.4477-1-1-1h-3v-3h3c.5523 0 1-.4477 1-1s-.4477-1-1-1h-3v-3h3c.5523 0 1-.4477 1-1s-.4477-1-1-1h-3v-3h3c.5523 0 1-.4477 1-1s-.4477-1-1-1h-3v-3h3c.5523 0 1-.4477 1-1s-.4477-1-1-1h-3v-3h3c.5523 0 1-.4477 1-1s-.4477-1-1-1h-3v-3h3c.5523 0 1-.4477 1-1s-.4477-1-1-1h-3zm2.6379 39v2h.3621c.5523 0 1-.4477 1-1s-.4477-1-1-1zm-37.6379-30v-3h3v3zm0 5v-3h3v3zm0 5v-3h1.2567c.3631-.6036 1.0245-1.0074 1.7802-1.0074.9095 0 1.6823.5848 1.9631 1.3989v-.3915h3v3h-3v-1.2541c-.2808.814-1.0536 1.3988-1.9631 1.3988-.2694 0-.5269-.0513-.7631-.1447zm0 5v-3h3v3zm0 5v-3h3v3zm0 5v-3h3v3zm5 0h3v-3h-3zm0-5h3v-3h-3zm0-5h3v-3h-3zm0-10h3v-3h-3zm0-5h3v-3h-3zm5 0v-3h3v3zm0 5v-3h3v3zm0 5v-3h3v3zm0 5v-3h3v3h-.7504c1.0448.1082 1.8596.9914 1.8596 2.0649 0 .7975-.4496 1.4899-1.1092 1.8377v1.0974h-3v-2.5131c-.0281-.1363-.0429-.2774-.0429-.422 0-1.0735.8148-1.9567 1.8596-2.0649zm0 10v-3h3v3zm0 5v-3h3v3zm5-5h3v-3h-3zm0-5h3v-3h-3zm0-5h3v-3h-3zm0-5h3v-3h-3zm0-5h3v-3h-3zm0-5h3v-3h-3zm5-1.3964v-1.6036h3v1.1287c.4855.38.7975.9714.7975 1.6357 0 1.1466-.9295 2.0761-2.0761 2.0761s-2.076-.9295-2.076-2.0761c0-.43.1307-.8295.3546-1.1608zm0 6.3964v-3h3v3zm0 5v-3h3v3zm0 5v-3h3v3zm0 5v-3h3v3zm0 5v-3h3v3zm5 0h3v-3h-3zm0-5h3v-3h-3zm0-5h3v-3h-3zm0-5h3v-3h-3zm0-5h3v-3h-3zm0-5h3v-3h-3zm5 0v-3h3v3zm0 5v-3h3v3zm2.7596 2c-.1771-.9668-1.024-1.6994-2.0419-1.6994-1.1466 0-2.0761.9295-2.0761 2.076 0 .8944.5655 1.6566 1.3584 1.9487v.6747h3v-3zm-2.7596 8v-3h3v3zm0 5v-3h3v3zm0 5v-3h3v3z" fill-opacity=".2"/><path d="m9 10c0-.55228.44772-1 1-1h42.2065c1.5681 0 2.7935 1.3105 2.7935 2.8508v3.133c.0002.0114.0002.0229 0 .0343v32.2288 6.7531c0 .5523-.4477 1-1 1h-44c-.41421 0-.76961-.2518-.92142-.6108-.04669-.1104-.07413-.2309-.07808-.3574l-.00042-.0189-.00008-.0129v-2.8263zm44 1.8508v2.8698l-4.5719 7.5419c-.4435-.1696-.9249-.2625-1.4281-.2625-1.0153 0-1.9423.3783-2.6477 1.0016l-2.6528-2.4778c.1937-.4697.3005-.9843.3005-1.5238 0-2.2091-1.7909-4-4-4s-4 1.7909-4 4c0 .8242.2493 1.5902.6766 2.2267l-5.6603 10.9036c-.3245-.085-.6651-.1303-1.0163-.1303-.6216 0-1.2101.1418-1.7349.3948l-3.6599-3.6599c.253-.5248.3948-1.1133.3948-1.7349 0-2.2091-1.7909-4-4-4s-4 1.7909-4 4c0 .8501.2652 1.6382.7173 2.2862l-4.7173 5.2521v-23.5383h41.2065c.4047 0 .7935.3553.7935.8508zm-42 37.8803v-12.1998l6.2343-6.9411c.5325.2624 1.1319.4098 1.7657.4098.8599 0 1.6565-.2714 2.3087-.7331l3.4244 3.4244c-.4617.6522-.7331 1.4488-.7331 2.3087 0 2.2091 1.7909 4 4 4s4-1.7909 4-4c0-1.1377-.475-2.1644-1.2374-2.8928l5.4621-10.5218c.5349.2654 1.1377.4146 1.7753.4146.9413 0 1.8067-.3252 2.49-.8693l2.732 2.5519c-.1438.4125-.222.8558-.222 1.3174 0 2.2091 1.7909 4 4 4s4-1.7909 4-4c0-.9805-.3528-1.8785-.9383-2.5742l2.9383-4.8471v27.3093l-8.62-2.6852c-.4472-.147-1.1009-.2326-1.6562-.1931-.5298.0062-1.1616.1313-1.5953.4166l-9.9538 6.3945-9.3627-3.1224c-.4676-.1559-.913-.1968-1.4071-.1968-.0277 0-.0554.0011-.0831.0034-.4352.0363-.8709.0787-1.324.2298-.0116.0039-.0231.0079-.0345.0122zm32.7768-4.6214 9.2232 2.8731v5.0172h-42v-1.1331l8.6459-3.2399c.1906-.0615.4011-.0913.7996-.1253.3531.0022.5537.0339.7338.094l9.8168 3.2738c.2871.0958.6022.0563.8568-.1073l10.3621-6.6568.0029-.0018c.0037-.0018.011-.0051.0223-.0095.029-.0114.0725-.0255.1296-.0391.1161-.0277.2565-.0455.3955-.0455.0277 0 .0554-.0012.0831-.0035.3042-.0254.7135.0323.9094.0976zm-22.7807-17.9839c.0026-.0416.0039-.0835.0039-.1258 0-.069-.0035-.1373-.0103-.2045-.1024-1.0085-.9542-1.7955-1.9897-1.7955-1.1046 0-2 .8954-2 2 0 .251.0462.4912.1307.7125.251.6582.8396 1.1497 1.5541 1.2628.1026.0163.2079.0247.3152.0247.3047 0 .5934-.0681.8519-.19.6427-.303 1.0979-.9382 1.1442-1.6842zm6.8781 6.8781c.0416-.0026.0835-.0039.1258-.0039.7583 0 1.418.422 1.7571 1.044.1549.284.2429.6097.2429.956 0 1.1046-.8954 2-2 2s-2-.8954-2-2c0-.019.0003-.038.0008-.0569.0079-.2838.0749-.5527.1892-.795.303-.6427.9382-1.0979 1.6842-1.1442zm19.4815-9.9724c-.1154-.0207-.2343-.0315-.3557-.0315-.438 0-.8431.1408-1.1725.3796-.5014.3634-.8275.9538-.8275 1.6204 0 .1287.0121.2545.0354.3764.1761.9246.9887 1.6236 1.9646 1.6236 1.1046 0 2-.8954 2-2 0-.2263-.0376-.4437-.1068-.6465-.2317-.6785-.8177-1.1927-1.5375-1.322zm-9.3557-7.0315c1.0829 0 1.9648.8607 1.999 1.9353.0007.0215.001.0431.001.0647 0 .7421-.4041 1.3898-1.0043 1.7349-.2932.1687-.6332.2651-.9957.2651-.3052 0-.5945-.0684-.8533-.1906-.6778-.3202-1.1467-1.0101-1.1467-1.8094 0-.1141.0096-.226.0279-.3349.1593-.9451.9816-1.6651 1.9721-1.6651z"/></g></svg>
