<svg xmlns="http://www.w3.org/2000/svg" viewBox="0 0 128 128">
  <g fill="none" fill-rule="evenodd">
    <path fill="#FFF" d="M63.5,13 C95.2688,13 121,38.6619 121,70.3451 C121,78.8035 119.131,86.8319 115.969,94 L99.0968,94 L99.0968,34.3024 C99.0968,32.5393 97.6767,31.0968 95.9411,31.0968 L33.7742,31.0968 L33.7742,94 L11.175,94 C7.86875,86.8319 6,78.8035 6,70.3451 C6,38.6619 31.7312,13 63.5,13 Z" opacity=".2"/>
    <path stroke="#FFF" stroke-linecap="round" stroke-linejoin="round" stroke-width="2" d="M5 95L123.016 95M33.8571 31.24C33.8571 29.9224 32.7143 29 31.4286 29 30 29 29 30.0541 29 31.24L29 95 34 95 34 31.24 33.8571 31.24z"/>
    <path fill="#FFF" d="M92.9286,32.2054 C92.9286,31.6531 92.4809,31.2054 91.9286,31.2054 C91.3763,31.2054 90.9286,31.6531 90.9286,32.2054 L90.9286,37.2848 L85.5545,37.2848 L85.5545,33.2054 C85.5545,32.6531 85.1068,32.2054 84.5545,32.2054 C84.0022,32.2054 83.5545,32.6531 83.5545,33.2054 L83.5545,37.2848 L78.1109,37.2848 L78.1109,33.2054 C78.1109,32.6531 77.6632,32.2054 77.1109,32.2054 C76.5586,32.2054 76.1109,32.6531 76.1109,33.2054 L76.1109,37.2848 L70.6673,37.2848 L70.6673,33.2054 C70.6673,32.6531 70.2196,32.2054 69.6673,32.2054 C69.115,32.2054 68.6673,32.6531 68.6673,33.2054 L68.6673,37.2848 L63.2237,37.2848 L63.2237,33.2054 C63.2237,32.6531 62.776,32.2054 62.2237,32.2054 C61.6714,32.2054 61.2237,32.6531 61.2237,33.2054 L61.2237,37.2848 L55.7801,37.2848 L55.7801,33.2054 C55.7801,32.6531 55.3324,32.2054 54.7801,32.2054 C54.2278,32.2054 53.7801,32.6531 53.7801,33.2054 L53.7801,37.2848 L48.3365,37.2848 L48.3365,33.2054 C48.3365,32.6531 47.8887,32.2054 47.3365,32.2054 C46.7842,32.2054 46.3365,32.6531 46.3365,33.2054 L46.3365,37.2848 L40.8929,37.2848 L40.8929,33.2054 C40.8929,32.6531 40.4451,32.2054 39.8929,32.2054 C39.3406,32.2054 38.8929,32.6531 38.8929,33.2054 L38.8929,37.2848 L34.1786,37.2848 C33.6263,37.2848 33.1786,37.7325 33.1786,38.2848 C33.1786,38.8371 33.6263,39.2848 34.1786,39.2848 L38.8929,39.2848 L38.8929,44.9241 L35.1786,44.9241 C34.6263,44.9241 34.1786,45.3718 34.1786,45.9241 C34.1786,46.4764 34.6263,46.9241 35.1786,46.9241 L38.8929,46.9241 L38.8929,52.6034 L35.1786,52.6034 C34.6263,52.6034 34.1786,53.0511 34.1786,53.6034 C34.1786,54.1557 34.6263,54.6034 35.1786,54.6034 L38.8929,54.6034 L38.8929,60.2827 L35.1786,60.2827 C34.6263,60.2827 34.1786,60.7304 34.1786,61.2827 C34.1786,61.835 34.6263,62.2827 35.1786,62.2827 L38.8929,62.2827 L38.8929,67.962 L35.1786,67.962 C34.6263,67.962 34.1786,68.4097 34.1786,68.962 C34.1786,69.5143 34.6263,69.962 35.1786,69.962 L38.8929,69.962 L38.8929,75.6414 L35.1786,75.6414 C34.6263,75.6414 34.1786,76.0891 34.1786,76.6414 C34.1786,77.1936 34.6263,77.6414 35.1786,77.6414 L38.8929,77.6414 L38.8929,83.3207 L35.1786,83.3207 C34.6263,83.3207 34.1786,83.7684 34.1786,84.3207 C34.1786,84.873 34.6263,85.3207 35.1786,85.3207 L38.8929,85.3207 L38.8929,86.009 L43.636,83.3207 L40.8929,83.3207 L40.8929,77.6414 L46.3365,77.6414 L46.3365,81.7901 L47.5479,81.1035 C47.8026,80.975 48.0574,80.8924 48.3365,80.8311 L48.3365,77.6414 L53.7801,77.6414 L53.7801,82.5666 L59.2402,85.3207 L61.2237,85.3207 L61.2237,86.3212 L63.2237,87.33 L63.2237,85.3207 L67.9899,85.3207 L70.6673,82.7192 L70.6673,77.6414 L75.8932,77.6414 L78.1109,75.4866 L78.1109,69.962 L83.5545,69.962 L83.5545,73.3369 C83.5572,73.3383 83.5598,73.3396 83.5625,73.3409 L85.5545,74.2795 L85.5545,69.962 L90.9286,69.962 L90.9286,75.6414 L88.445,75.6414 L92.9286,77.7538 L92.9286,77.6414 L96.8214,77.6414 C97.3737,77.6414 97.8214,77.1936 97.8214,76.6414 C97.8214,76.0891 97.3737,75.6414 96.8214,75.6414 L92.9286,75.6414 L92.9286,69.962 L96.8214,69.962 C97.3737,69.962 97.8214,69.5143 97.8214,68.962 C97.8214,68.4097 97.3737,67.962 96.8214,67.962 L92.9286,67.962 L92.9286,62.2827 L96.8214,62.2827 C97.3737,62.2827 97.8214,61.835 97.8214,61.2827 C97.8214,60.7304 97.3737,60.2827 96.8214,60.2827 L92.9286,60.2827 L92.9286,54.6034 L96.8214,54.6034 C97.3737,54.6034 97.8214,54.1557 97.8214,53.6034 C97.8214,53.0511 97.3737,52.6034 96.8214,52.6034 L92.9286,52.6034 L92.9286,46.9241 L96.8214,46.9241 C97.3737,46.9241 97.8214,46.4764 97.8214,45.9241 C97.8214,45.3718 97.3737,44.9241 96.8214,44.9241 L92.9286,44.9241 L92.9286,39.2848 L97.8214,39.2848 C98.3737,39.2848 98.8214,38.8371 98.8214,38.2848 C98.8214,37.7325 98.3737,37.2848 97.8214,37.2848 L92.9286,37.2848 L92.9286,32.2054 Z M40.8929,44.9241 L40.8929,39.2848 L46.3365,39.2848 L46.3365,44.9241 L40.8929,44.9241 Z M40.8929,52.6034 L40.8929,46.9241 L46.3365,46.9241 L46.3365,52.6034 L40.8929,52.6034 Z M40.8929,60.2827 L40.8929,54.6034 L45.1952,54.6034 C45.6974,54.2246 46.3225,54 47,54 C47.6775,54 48.3026,54.2246 48.8048,54.6034 L53.7801,54.6034 L53.7801,60.2827 L48.3365,60.2827 L48.3365,59.6866 C47.934,59.8872 47.4802,60 47,60 C46.772,60 46.5499,59.9746 46.3365,59.9264 L46.3365,60.2827 L40.8929,60.2827 Z M40.8929,67.962 L40.8929,62.2827 L46.3365,62.2827 L46.3365,67.962 L40.8929,67.962 Z M40.8929,75.6414 L40.8929,69.962 L46.3365,69.962 L46.3365,75.6414 L40.8929,75.6414 Z M48.3365,75.6414 L53.7801,75.6414 L53.7801,69.962 L48.3365,69.962 L48.3365,75.6414 Z M48.3365,67.962 L53.7801,67.962 L53.7801,62.2827 L48.3365,62.2827 L48.3365,67.962 Z M48.3365,52.6034 L53.7801,52.6034 L53.7801,46.9241 L48.3365,46.9241 L48.3365,52.6034 Z M48.3365,44.9241 L53.7801,44.9241 L53.7801,39.2848 L48.3365,39.2848 L48.3365,44.9241 Z M55.7801,44.9241 L55.7801,39.2848 L61.2237,39.2848 L61.2237,44.9241 L55.7801,44.9241 Z M55.7801,52.6034 L55.7801,46.9241 L61.2237,46.9241 L61.2237,52.6034 L55.7801,52.6034 Z M55.7801,60.2827 L55.7801,54.6034 L61.2237,54.6034 L61.2237,60.2827 L55.7801,60.2827 Z M55.7801,67.962 L55.7801,62.2827 L61.2237,62.2827 L61.2237,67.2601 C62.2706,67.7284 63,68.779 63,70 C63,71.221 62.2706,72.2716 61.2237,72.7399 L61.2237,75.6414 L55.7801,75.6414 L55.7801,69.962 L57.0002,69.962 C57.0098,69.1902 57.3109,68.4885 57.7985,67.962 L55.7801,67.962 Z M55.7801,83.3207 L55.7801,77.6414 L61.2237,77.6414 L61.2237,83.3207 L55.7801,83.3207 Z M63.2237,83.3207 L68.6673,83.3207 L68.6673,77.6414 L63.2237,77.6414 L63.2237,83.3207 Z M63.2237,75.6414 L68.6673,75.6414 L68.6673,69.962 L63.2237,69.962 L63.2237,75.6414 Z M63.2237,67.962 L68.6673,67.962 L68.6673,62.2827 L63.2237,62.2827 L63.2237,67.962 Z M63.2237,60.2827 L68.6673,60.2827 L68.6673,54.6034 L63.2237,54.6034 L63.2237,60.2827 Z M63.2237,52.6034 L68.6673,52.6034 L68.6673,46.9241 L63.2237,46.9241 L63.2237,52.6034 Z M63.2237,44.9241 L68.6673,44.9241 L68.6673,39.2848 L63.2237,39.2848 L63.2237,44.9241 Z M70.6673,44.9241 L70.6673,39.2848 L76.1109,39.2848 L76.1109,42.8683 C76.6599,43.412 77,44.1663 77,45 C77,45.8337 76.6599,46.588 76.1109,47.1317 L76.1109,52.6034 L70.6673,52.6034 L70.6673,46.9241 L71.6982,46.9241 C71.2624,46.4032 71,45.7323 71,45 C71,44.9746 71.0003,44.9493 71.001,44.9241 L70.6673,44.9241 Z M70.6673,60.2827 L70.6673,54.6034 L76.1109,54.6034 L76.1109,60.2827 L70.6673,60.2827 Z M70.6673,67.962 L70.6673,62.2827 L76.1109,62.2827 L76.1109,67.962 L70.6673,67.962 Z M70.6673,75.6414 L70.6673,69.962 L76.1109,69.962 L76.1109,75.6414 L70.6673,75.6414 Z M78.1109,67.962 L83.5545,67.962 L83.5545,62.2827 L78.1109,62.2827 L78.1109,67.962 Z M78.1109,60.2827 L83.5545,60.2827 L83.5545,54.6034 L78.1109,54.6034 L78.1109,60.2827 Z M78.1109,52.6034 L83.5545,52.6034 L83.5545,46.9241 L78.1109,46.9241 L78.1109,52.6034 Z M78.1109,44.9241 L83.5545,44.9241 L83.5545,39.2848 L78.1109,39.2848 L78.1109,44.9241 Z M85.5545,44.9241 L85.5545,39.2848 L90.9286,39.2848 L90.9286,44.9241 L85.5545,44.9241 Z M85.5545,52.6034 L85.5545,46.9241 L90.9286,46.9241 L90.9286,52.6034 L85.5545,52.6034 Z M89.6558,54.6034 C89.1534,53.65 88.1526,53 87,53 C85.3432,53 84,54.3431 84,56 C84,57.1328 84.6278,58.1189 85.5545,58.6294 L85.5545,60.2827 L90.9286,60.2827 L90.9286,54.6034 L89.6558,54.6034 Z M85.5545,67.962 L85.5545,62.2827 L90.9286,62.2827 L90.9286,67.962 L85.5545,67.962 Z" opacity=".2"/>
    <path fill="#FFF" d="M107.558,28.5642 C107.87,28.1083 107.753,27.486 107.297,27.1744 C106.841,26.8628 106.219,26.9798 105.907,27.4358 L99,37.5429 L99,34.65 C99,32.6551 97.3931,31 95.3913,31 L34,31 C33.4477,31 33,31.4477 33,32 L33,71.4951 L33,71.5042 L33,88.7798 L33,88.7821 L33,95 C33,95.207 33.063,95.4 33.1708,95.559 C33.3505,95.825 33.6548,96 34,96 L98,96 C98.5523,96 99,95.552 99,95 L99,80.1432 L99,41.0876 L107.558,28.5642 Z M97,34.65 L97,40.4695 L88.8211,52.4376 C88.2748,52.1579 87.6559,52 87,52 C86.1307,52 85.3261,52.2773 84.67,52.7483 L77.7797,46.3124 C77.9225,45.9013 78,45.4597 78,45 C78,42.7909 76.2091,41 74,41 C71.7909,41 70,42.7909 70,45 C70,45.8661 70.2752,46.6678 70.743,47.3226 L60.9838,66.1219 C60.6691,66.0423 60.3395,66 60,66 C59.4451,66 58.9167,66.113 58.4363,66.3172 L50.6828,58.5637 C50.887,58.0834 51,57.5549 51,57 C51,54.7909 49.2091,53 47,53 C44.7909,53 43,54.7909 43,57 C43,57.825 43.2498,58.5917 43.6778,59.2285 L35,68.8901 L35,33 L95.3913,33 C96.2591,33 97,33.7299 97,34.65 Z M35,87.0659 L35,71.8832 L45.1714,60.5585 C45.7195,60.8407 46.3411,61 47,61 C47.9238,61 48.7744,60.6869 49.4516,60.1609 L56.8391,67.5484 C56.3132,68.2256 56,69.0762 56,70 C56,72.2092 57.7909,74 60,74 C62.2091,74 64,72.2092 64,70 C64,68.8501 63.5148,67.8135 62.7379,67.0838 L72.3177,48.6301 C72.8291,48.8675 73.3991,49 74,49 C75.0171,49 75.9455,48.6204 76.6514,47.9951 L83.3853,54.285 C83.1382,54.8048 83,55.3863 83,56 C83,58.2092 84.7909,60 87,60 C89.2091,60 91,58.2092 91,56 C91,55.1781 90.7521,54.4141 90.327,53.7787 L97,44.0142 L97,78.5667 L83.9995,72.4414 C83.3684,72.1271 82.4159,71.9334 81.596,72.0214 C80.7901,72.036 79.9084,72.3313 79.3695,72.8693 L64.814,87.0122 L51.1713,80.1307 C50.5089,79.7966 49.8629,79.7034 49.1344,79.7034 C49.0926,79.7034 49.0508,79.7061 49.0093,79.7113 C48.3698,79.7919 47.741,79.8861 47.0975,80.2107 C47.0831,80.218 47.0689,80.2256 47.0548,80.2336 L35,87.0659 Z M83.1362,74.2456 L97,80.7775 L97,94 L35,94 L35,89.3648 L48.0178,81.9867 C48.3098,81.8433 48.6204,81.778 49.1956,81.7037 C49.6986,81.7087 49.9922,81.776 50.2706,81.9164 L64.5495,89.1188 C64.9303,89.3109 65.3909,89.2403 65.6968,88.9432 L80.7689,74.2982 L80.7823,74.285 C80.8067,74.2603 80.9017,74.1879 81.0853,74.1217 C81.2596,74.0589 81.4625,74.0208 81.6586,74.0208 C81.7004,74.0208 81.7422,74.0182 81.7837,74.013 C82.2136,73.9588 82.8071,74.08 83.1121,74.2338 C83.1201,74.2378 83.1281,74.2417 83.1362,74.2456 Z M45.5858,55.5858 C45.9477,55.2239 46.4477,55 47,55 C47.6117,55 48.1593,55.2746 48.5261,55.7073 C48.8075,56.0392 48.9826,56.464 48.9988,56.9292 C48.9996,56.9527 49,56.9763 49,57 C49,57.7342 48.6043,58.3761 48.0146,58.7239 C47.7172,58.8994 47.3703,59 47,59 C46.8652,59 46.7334,58.9867 46.6061,58.9612 C45.9015,58.8205 45.3306,58.3096 45.1046,57.6399 C45.0368,57.439 45,57.2238 45,57 C45,56.4477 45.2239,55.9477 45.5858,55.5858 Z M58.0012,69.9309 C58.0129,69.5865 58.1116,69.2643 58.2761,68.9854 C58.6239,68.3957 59.2658,68 60,68 C60.7443,68 61.3937,68.4066 61.738,69.0098 C61.9047,69.3017 62,69.6398 62,70 C62,71.1046 61.1046,72 60,72 C58.8954,72 58,71.1046 58,70 C58,69.9769 58.0004,69.9538 58.0012,69.9309 Z M87,54 C87,54 87,54 87,54 C86.7125,54 86.4391,54.0607 86.192,54.17 C85.5472,54.455 85.0814,55.0709 85.0096,55.8023 C85.0037,55.8633 85.0004,55.9251 85,55.9875 C85,55.9917 85,55.9959 85,56 C85,57.1046 85.8954,58 87,58 C88.1046,58 89,57.1046 89,56 C89,55.9134 88.9945,55.828 88.9838,55.7442 C88.8874,54.9889 88.3697,54.3653 87.6738,54.1164 C87.4633,54.0411 87.2365,54 87,54 Z M74,43 C74.9758,43 75.7884,43.6989 75.9646,44.6234 C75.9878,44.7454 76,44.8713 76,45 C76,45.6648 75.6756,46.2539 75.1765,46.6175 C74.8464,46.8581 74.4398,47 74,47 C73.7314,47 73.4752,46.9471 73.2412,46.8511 C72.5129,46.5522 72,45.836 72,45 C72,44.9996 72,44.9992 72,44.9988 C72.0007,43.8948 72.8958,43 74,43 Z"/>
    <path fill="#FFF" fill-rule="nonzero" d="M25.4694,98 C24.9171,98 24.4694,98.448 24.4694,99 C24.4694,99.552 24.9171,100 25.4694,100 L25.4694,98 Z M103.735,100 C104.287,100 104.735,99.552 104.735,99 C104.735,98.448 104.287,98 103.735,98 L103.735,100 Z M33.898,102 C33.3457,102 32.898,102.448 32.898,103 C32.898,103.552 33.3457,104 33.898,104 L33.898,102 Z M94.102,104 C94.6543,104 95.102,103.552 95.102,103 C95.102,102.448 94.6543,102 94.102,102 L94.102,104 Z M39.9184,106 C39.3661,106 38.9184,106.448 38.9184,107 C38.9184,107.552 39.3661,108 39.9184,108 L39.9184,106 Z M89.2857,108 C89.838,108 90.2857,107.552 90.2857,107 C90.2857,106.448 89.838,106 89.2857,106 L89.2857,108 Z M49.551,110 C48.9987,110 48.551,110.448 48.551,111 C48.551,111.552 48.9987,112 49.551,112 L49.551,110 Z M79.6531,112 C80.2053,112 80.6531,111.552 80.6531,111 C80.6531,110.448 80.2053,110 79.6531,110 L79.6531,112 Z M56.7755,114 C56.2232,114 55.7755,114.448 55.7755,115 C55.7755,115.552 56.2232,116 56.7755,116 L56.7755,114 Z M71.2245,116 C71.7768,116 72.2245,115.552 72.2245,115 C72.2245,114.448 71.7768,114 71.2245,114 L71.2245,116 Z M25.4694,100 L103.735,100 L103.735,98 L25.4694,98 L25.4694,100 Z M33.898,104 L94.102,104 L94.102,102 L33.898,102 L33.898,104 Z M39.9184,108 L89.2857,108 L89.2857,106 L39.9184,106 L39.9184,108 Z M49.551,112 L79.6531,112 L79.6531,110 L49.551,110 L49.551,112 Z M56.7755,116 L71.2245,116 L71.2245,114 L56.7755,114 L56.7755,116 Z" opacity=".2"/>
  </g>
</svg>
