<svg xmlns="http://www.w3.org/2000/svg" viewBox="0 0 64 64">
  <g fill="none" fill-rule="evenodd">
    <path fill="currentColor" d="M51.7002,12 C51.7002,11.4477 51.2524,11 50.7002,11 C50.1479,11 49.7002,11.4477 49.7002,12 L49.7002,15 L46.9054,15 L46.9054,13 C46.9054,12.4477 46.4577,12 45.9054,12 C45.3531,12 44.9054,12.4477 44.9054,13 L44.9054,15 L41.7545,15 L41.7545,13 C41.7545,12.4477 41.3068,12 40.7545,12 C40.2022,12 39.7545,12.4477 39.7545,13 L39.7545,15 L36.6036,15 L36.6036,13 C36.6036,12.4477 36.1559,12 35.6036,12 C35.0513,12 34.6036,12.4477 34.6036,13 L34.6036,15 L31.4527,15 L31.4527,13 C31.4527,12.4477 31.005,12 30.4527,12 C29.9004,12 29.4527,12.4477 29.4527,13 L29.4527,15 L26.3018,15 L26.3018,13 C26.3018,12.4477 25.8541,12 25.3018,12 C24.7495,12 24.3018,12.4477 24.3018,13 L24.3018,15 L21.1509,15 L21.1509,13 C21.1509,12.4477 20.7032,12 20.1509,12 C19.5986,12 19.1509,12.4477 19.1509,13 L19.1509,15 L16,15 L16,13 C16,12.4477 15.5523,12 15,12 C14.4477,12 14,12.4477 14,13 L14,15 L12,15 C11.4477,15 11,15.4477 11,16 C11,16.5523 11.4477,17 12,17 L14,17 L14,19.7019 L13,19.7019 C12.4477,19.7019 12,20.1496 12,20.7019 C12,21.2542 12.4477,21.7019 13,21.7019 L14,21.7019 L14,24.7703 L13,24.7703 C12.4477,24.7703 12,25.218 12,25.7703 C12,26.3226 12.4477,26.7703 13,26.7703 L14,26.7703 L14,29.8387 L13,29.8387 C12.4477,29.8387 12,30.2864 12,30.8387 C12,31.3909 12.4477,31.8387 13,31.8387 L14,31.8387 L14,34.907 L13,34.907 C12.4477,34.907 12,35.3547 12,35.907 C12,36.4593 12.4477,36.907 13,36.907 L14,36.907 L14,39.9754 L13,39.9754 C12.4477,39.9754 12,40.4231 12,40.9754 C12,41.5276 12.4477,41.9754 13,41.9754 L14,41.9754 L14,45.0437 L13,45.0437 C12.4477,45.0437 12,45.4914 12,46.0437 C12,46.596 12.4477,47.0437 13,47.0437 L14,47.0437 L14,50.1121 L13,50.1121 C12.4477,50.1121 12,50.5598 12,51.1121 C12,51.2395 12.0238,51.3614 12.0673,51.4735 L16.0687,50.1121 L16,50.1121 L16,47.0437 L19.1509,47.0437 L19.1509,49.0634 L20.2696,48.6828 C20.542,48.6004 20.8144,48.5641 21.1509,48.5352 L21.1509,47.0437 L24.3018,47.0437 L24.3018,49.2166 L26.3018,49.8221 L26.3018,47.0437 L29.4527,47.0437 L29.4527,50.1121 L27.2594,50.1121 L32.158,51.5953 L36.6036,49.0023 L36.6036,47.0437 L39.7545,47.0437 L39.7545,47.1645 L42.4252,45.6067 C42.6414,45.4758 43.0737,45.3777 43.506,45.3777 C43.9383,45.3449 44.4787,45.4104 44.8029,45.5086 L51.7002,47.4593 L51.7002,47.0437 L55.0402,47.0437 C55.5925,47.0437 56.0402,46.596 56.0402,46.0437 C56.0402,45.4914 55.5925,45.0437 55.0402,45.0437 L51.7002,45.0437 L51.7002,41.9754 L55.0402,41.9754 C55.5925,41.9754 56.0402,41.5276 56.0402,40.9754 C56.0402,40.4231 55.5925,39.9754 55.0402,39.9754 L51.7002,39.9754 L51.7002,36.907 L55.0402,36.907 C55.5925,36.907 56.0402,36.4593 56.0402,35.907 C56.0402,35.3547 55.5925,34.907 55.0402,34.907 L51.7002,34.907 L51.7002,31.8387 L55.0402,31.8387 C55.5925,31.8387 56.0402,31.3909 56.0402,30.8387 C56.0402,30.2864 55.5925,29.8387 55.0402,29.8387 L51.7002,29.8387 L51.7002,26.7703 L55.0402,26.7703 C55.5925,26.7703 56.0402,26.3226 56.0402,25.7703 C56.0402,25.218 55.5925,24.7703 55.0402,24.7703 L51.7002,24.7703 L51.7002,21.7019 L55.0402,21.7019 C55.5925,21.7019 56.0402,21.2542 56.0402,20.7019 C56.0402,20.1496 55.5925,19.7019 55.0402,19.7019 L51.7002,19.7019 L51.7002,17 L56.0402,17 C56.5925,17 57.0402,16.5523 57.0402,16 C57.0402,15.4477 56.5925,15 56.0402,15 L51.7002,15 L51.7002,12 Z M54.6379,50.1121 L54.6379,52.1121 L55.0402,52.1121 C55.5925,52.1121 56.0402,51.6644 56.0402,51.1121 C56.0402,50.5598 55.5925,50.1121 55.0402,50.1121 L54.6379,50.1121 Z M16,19.7019 L16,17 L19.1509,17 L19.1509,19.7019 L16,19.7019 Z M16,24.7703 L16,21.7019 L19.1509,21.7019 L19.1509,24.7703 L16,24.7703 Z M16,29.8387 L16,26.7703 L18.4169,26.7703 C18.7973,26.2961 19.3817,25.9926 20.0369,25.9926 C20.6921,25.9926 21.2765,26.2961 21.6569,26.7703 L24.3018,26.7703 L24.3018,29.8387 L21.1509,29.8387 L21.1509,29.8208 C20.829,30.0259 20.4468,30.1447 20.0369,30.1447 C19.639,30.1447 19.2672,30.0328 18.9514,29.8387 L16,29.8387 Z M16,34.907 L16,31.8387 L19.1509,31.8387 L19.1509,34.907 L16,34.907 Z M16,39.9754 L16,36.907 L19.1509,36.907 L19.1509,39.9754 L16,39.9754 Z M16,45.0437 L16,41.9754 L19.1509,41.9754 L19.1509,45.0437 L16,45.0437 Z M21.1509,45.0437 L24.3018,45.0437 L24.3018,41.9754 L21.1509,41.9754 L21.1509,45.0437 Z M21.1509,39.9754 L24.3018,39.9754 L24.3018,36.907 L21.1509,36.907 L21.1509,39.9754 Z M21.1509,34.907 L24.3018,34.907 L24.3018,31.8387 L21.1509,31.8387 L21.1509,34.907 Z M21.1509,24.7703 L24.3018,24.7703 L24.3018,21.7019 L21.1509,21.7019 L21.1509,24.7703 Z M21.1509,19.7019 L24.3018,19.7019 L24.3018,17 L21.1509,17 L21.1509,19.7019 Z M26.3018,19.7019 L26.3018,17 L29.4527,17 L29.4527,19.7019 L26.3018,19.7019 Z M26.3018,24.7703 L26.3018,21.7019 L29.4527,21.7019 L29.4527,24.7703 L26.3018,24.7703 Z M26.3018,29.8387 L26.3018,26.7703 L29.4527,26.7703 L29.4527,29.8387 L26.3018,29.8387 Z M26.3018,34.907 L26.3018,31.8387 L29.4527,31.8387 L29.4527,34.907 L26.3018,34.907 Z M26.3018,39.9754 L26.3018,36.907 L26.963,36.907 C27.0437,35.8342 27.9397,34.9889 29.0331,34.9889 C30.1797,34.9889 31.1092,35.9183 31.1092,37.0649 C31.1092,38.0678 30.3981,38.9045 29.4527,39.0986 L29.4527,39.9754 L26.3018,39.9754 Z M26.3018,45.0437 L26.3018,41.9754 L29.4527,41.9754 L29.4527,45.0437 L26.3018,45.0437 Z M31.4527,50.1121 L34.6036,50.1121 L34.6036,47.0437 L31.4527,47.0437 L31.4527,50.1121 Z M31.4527,45.0437 L34.6036,45.0437 L34.6036,41.9754 L31.4527,41.9754 L31.4527,45.0437 Z M31.4527,39.9754 L34.6036,39.9754 L34.6036,36.907 L31.4527,36.907 L31.4527,39.9754 Z M31.4527,34.907 L34.6036,34.907 L34.6036,31.8387 L31.4527,31.8387 L31.4527,34.907 Z M31.4527,29.8387 L34.6036,29.8387 L34.6036,26.7703 L31.4527,26.7703 L31.4527,29.8387 Z M31.4527,24.7703 L34.6036,24.7703 L34.6036,21.7019 L31.4527,21.7019 L31.4527,24.7703 Z M31.4527,19.7019 L34.6036,19.7019 L34.6036,17 L31.4527,17 L31.4527,19.7019 Z M36.6036,19.7019 L36.6036,17 L39.7545,17 L39.7545,17.9633 C40.3778,18.3215 40.7975,18.994 40.7975,19.7644 C40.7975,20.6476 40.2461,21.4019 39.4687,21.7019 L39.7545,21.7019 L39.7545,24.7703 L36.6036,24.7703 L36.6036,21.7019 L37.9741,21.7019 C37.1968,21.4019 36.6454,20.6476 36.6454,19.7644 C36.6454,19.7435 36.6457,19.7227 36.6463,19.7019 L36.6036,19.7019 Z M36.6036,29.8387 L36.6036,26.7703 L39.7545,26.7703 L39.7545,29.8387 L36.6036,29.8387 Z M36.6036,34.907 L36.6036,31.8387 L39.7545,31.8387 L39.7545,34.907 L36.6036,34.907 Z M36.6036,39.9754 L36.6036,36.907 L39.7545,36.907 L39.7545,39.9754 L36.6036,39.9754 Z M36.6036,45.0437 L36.6036,41.9754 L39.7545,41.9754 L39.7545,45.0437 L36.6036,45.0437 Z M41.7545,45.0437 L44.9054,45.0437 L44.9054,41.9754 L41.7545,41.9754 L41.7545,45.0437 Z M41.7545,39.9754 L44.9054,39.9754 L44.9054,36.907 L41.7545,36.907 L41.7545,39.9754 Z M41.7545,34.907 L44.9054,34.907 L44.9054,31.8387 L41.7545,31.8387 L41.7545,34.907 Z M41.7545,29.8387 L44.9054,29.8387 L44.9054,26.7703 L41.7545,26.7703 L41.7545,29.8387 Z M41.7545,24.7703 L44.9054,24.7703 L44.9054,21.7019 L41.7545,21.7019 L41.7545,24.7703 Z M41.7545,19.7019 L44.9054,19.7019 L44.9054,17 L41.7545,17 L41.7545,19.7019 Z M46.9054,19.7019 L46.9054,17 L49.7002,17 L49.7002,19.7019 L46.9054,19.7019 Z M46.9054,24.7703 L46.9054,21.7019 L49.7002,21.7019 L49.7002,24.7703 L46.9054,24.7703 Z M49.7002,27.9947 C49.761,27.7995 49.7937,27.5919 49.7937,27.3766 C49.7937,26.2301 48.8642,25.3006 47.7177,25.3006 C46.5711,25.3006 45.6416,26.2301 45.6416,27.3766 C45.6416,28.235 46.1625,28.9716 46.9054,29.2878 L46.9054,29.8387 L49.7002,29.8387 L49.7002,27.9947 Z M46.9054,34.907 L46.9054,31.8387 L49.7002,31.8387 L49.7002,34.907 L46.9054,34.907 Z M46.9054,39.9754 L46.9054,36.907 L49.7002,36.907 L49.7002,39.9754 L46.9054,39.9754 Z M46.9054,45.0437 L46.9054,41.9754 L49.7002,41.9754 L49.7002,45.0437 L46.9054,45.0437 Z" opacity=".2"/>
    <path fill="currentColor" d="M10,11 C10,10.44772 10.44772,10 11,10 L53.2065,10 C54.7746,10 56,11.3105 56,12.8508 L56,48.2469 L56,55 C56,55.5523 55.5523,56 55,56 L11,56 C10.58579,56 10.23039,55.7482 10.07858,55.3892 C10.03189,55.2788 10.00445,55.1583 10.0005,55.0318 L10.00008,55.0129 L10,55 L10,52.1737 L10,11 Z M54,12.8508 L54,46.888 L45.38,44.2028 C44.9328,44.0558 44.2791,43.9702 43.7238,44.0097 C43.194,44.0159 42.5622,44.141 42.1285,44.4263 L32.1747,50.8208 L22.812,47.6984 C22.3444,47.5425 21.899,47.5016 21.4049,47.5016 C21.3772,47.5016 21.3495,47.5027 21.3218,47.505 C20.8866,47.5413 20.4509,47.5837 19.9978,47.7348 C19.9862,47.7387 19.9747,47.7427 19.9633,47.747 L12,50.7311 L12,38.5313 L18.2343,31.5902 C18.7668,31.8526 19.3662,32 20,32 C20.8599,32 21.6565,31.7286 22.3087,31.2669 L25.7331,34.6913 C25.2714,35.3435 25,36.1401 25,37 C25,39.2091 26.7909,41 29,41 C31.2091,41 33,39.2091 33,37 C33,35.8623 32.525,34.8356 31.7626,34.1072 L37.2247,23.5854 C37.7596,23.8508 38.3624,24 39,24 C39.9413,24 40.8067,23.6748 41.49,23.1307 L44.222,25.6826 C44.0782,26.0951 44,26.5384 44,27 C44,29.2091 45.7909,31 48,31 C50.2091,31 52,29.2091 52,27 C52,24.7909 50.2091,23 48,23 C46.9847,23 46.0577,23.3783 45.3523,24.0016 L42.6995,21.5238 C42.8932,21.0541 43,20.5395 43,20 C43,17.7909 41.2091,16 39,16 C36.7909,16 35,17.7909 35,20 C35,20.8242 35.2493,21.5902 35.6766,22.2267 L30.0163,33.1303 C29.6918,33.0453 29.3512,33 29,33 C28.3784,33 27.7899,33.1418 27.2651,33.3948 L23.6052,29.7349 C23.8582,29.2101 24,28.6216 24,28 C24,25.7909 22.2091,24 20,24 C17.7909,24 16,25.7909 16,28 C16,28.8501 16.2652,29.6382 16.7173,30.2862 L12,35.5383 L12,12 L53.2065,12 C53.6112,12 54,12.3553 54,12.8508 Z M12,54 L12,52.8669 L20.6459,49.627 C20.8365,49.5655 21.047,49.5357 21.4455,49.5017 C21.7986,49.5039 21.9992,49.5356 22.1793,49.5957 L31.9961,52.8695 C32.2832,52.9653 32.5983,52.9258 32.8529,52.7622 L43.215,46.1054 L43.2179,46.1036 C43.2216,46.1018 43.2289,46.0985 43.2402,46.0941 C43.2692,46.0827 43.3127,46.0686 43.3698,46.055 C43.4859,46.0273 43.6263,46.0095 43.7653,46.0095 C43.793,46.0095 43.8207,46.0083 43.8484,46.006 C44.1526,45.9806 44.5619,46.0383 44.7578,46.1036 L44.7768,46.1097 L54,48.9828 L54,54 L12,54 Z M39,18 C38.0095,18 37.1872,18.72 37.0279,19.6651 C37.0096,19.774 37,19.8859 37,20 C37,20.7993 37.4689,21.4892 38.1467,21.8094 C38.4055,21.9316 38.6948,22 39,22 C39.3625,22 39.7025,21.9036 39.9957,21.7349 C40.5959,21.3898 41,20.7421 41,20 C41,19.9784 40.9997,19.9568 40.999,19.9353 C40.9648,18.8607 40.0829,18 39,18 Z M29,35 C28.9577,35 28.9158,35.0013 28.8742,35.0039 C28.1282,35.0502 27.493,35.5054 27.19,36.1481 C27.0757,36.3904 27.0087,36.6593 27.0008,36.9431 C27.0003,36.962 27,36.981 27,37 C27,38.1046 27.8954,39 29,39 C30.1046,39 31,38.1046 31,37 C31,36.6537 30.912,36.328 30.7571,36.044 C30.418,35.422 29.7583,35 29,35 Z M21.9961,28.1258 C21.9987,28.0842 22,28.0423 22,28 C22,27.931 21.9965,27.8627 21.9897,27.7955 C21.8873,26.787 21.0355,26 20,26 C18.8954,26 18,26.8954 18,28 C18,28.251 18.0462,28.4912 18.1307,28.7125 C18.3817,29.3707 18.9703,29.8622 19.6848,29.9753 C19.7874,29.9916 19.8927,30 20,30 C20,30 20,30 20,30 C20.3047,30 20.5934,29.9319 20.8519,29.81 C21.4946,29.507 21.9498,28.8718 21.9961,28.1258 Z M46.0354,27.3764 C46.2115,28.301 47.0241,29 48,29 C49.1046,29 50,28.1046 50,27 C50,26.931 49.9965,26.8627 49.9897,26.7955 C49.8873,25.787 49.0355,25 48,25 C47.562,25 47.1569,25.1408 46.8275,25.3796 C46.3261,25.743 46,26.3334 46,27 C46,27.1287 46.0121,27.2545 46.0354,27.3764 Z"/>
  </g>
</svg>
