<svg xmlns="http://www.w3.org/2000/svg" width="128" height="128" viewBox="0 0 128 128">
  <g fill="none" fill-rule="evenodd" transform="translate(12 15)">
    <path stroke="#FFF" stroke-linecap="round" stroke-linejoin="round" stroke-width="2" d="M24.994,20.7075 L82.3244,78.0379"/>
    <path fill="#FFF" d="M25.8904,38.5149 L24.0929,38.1837 C23.139,38.0079 22.1543,37.9158 21.1463,37.9158 C12.229,37.9158 5,45.1448 5,54.0622 C5,62.9795 12.229,70.2085 21.1463,70.2085 L73.3171,70.2085 C84.7399,70.2085 94,60.9484 94,49.5256 C94,38.4574 85.305,29.4188 74.3746,28.8692 L73.4372,28.8221 L72.8744,28.0708 C68.0643,21.6499 60.4011,17.5012 51.7683,17.5012 C39.6761,17.5012 29.4813,25.647 26.3817,36.7544 L25.8904,38.5149 Z M74.4751,26.8717 C69.3036,19.9684 61.0576,15.5012 51.7683,15.5012 C38.7553,15.5012 27.7899,24.2675 24.4553,36.2168 C23.3824,36.0191 22.2764,35.9158 21.1463,35.9158 C11.1244,35.9158 3,44.0402 3,54.0622 C3,64.0841 11.1244,72.2085 21.1463,72.2085 L73.3171,72.2085 C85.844,72.2085 96,62.053 96,49.5256 C96,37.3865 86.464,27.4746 74.4751,26.8717 Z"/>
    <path fill="#FFF" d="M76.1895,72.0284 L29.9305,25.7693 C35.1313,19.4966 42.9832,15.5012 51.7683,15.5012 C61.0576,15.5012 69.3036,19.9684 74.4751,26.8717 C86.464,27.4746 96,37.3865 96,49.5256 C96,61.08 87.361,70.6166 76.1895,72.0284 Z" opacity=".2"/>
    <path fill="#FFF" d="M16.0713,39.0165 C11.6758,37.8993 8.0611,35.1368 5.8753,31.202 C1.5359,23.3902 4.476,13.4276 12.4239,9.0125 C20.3718,4.5975 30.3837,7.3652 34.7232,15.177 C35.7839,17.0865 36.4593,19.1344 36.6583,21.2955 L35.9998,21.3584 C35.7741,19.2879 35.1309,17.2978 34.1344,15.504 C29.9557,7.9815 20.3989,5.3396 12.7454,9.5912 C5.0919,13.8427 2.2853,23.3525 6.4641,30.8749 C8.5534,34.6362 12.0449,37.3157 16.2263,38.3246 L16.0713,39.0165 Z" opacity=".2"/>
    <path stroke="#FFF" d="M77.7358 7.7588L77.443 8.313 76.9677 7.9043C74.9847 6.1992 72.3947 5.1667 69.5589 5.1667 64.9244 5.1667 60.9438 7.9258 59.2022 11.8703 59.0256 12.2701 59.0987 12.6612 59.3301 12.9663 59.5672 13.2786 59.9739 13.5 60.4521 13.5L102 13.5C102.851 13.5 103.47 12.8207 103.363 12.0774 102.42 5.5365 96.731.5 89.846.5 84.5815.5 80.0145 3.4455 77.7358 7.7588zM28.0054 91.295L28.2985 91.853 28.7751 91.441C30.8933 89.609 33.6593 88.5 36.6872 88.5 41.6959 88.5 45.9913 91.536 47.8158 95.858 48.1382 96.622 47.5402 97.5 46.5507 97.5L2 97.5C1.1508 97.5.5276 96.821.6278 96.071 1.5755 88.977 7.682 83.5 15.0769 83.5 20.6959 83.5 25.5719 86.662 28.0054 91.295zM46.8902 76.7057L46.5969 76.1445 46.119 76.5599C44.012 78.3916 41.261 79.5 38.2499 79.5 33.2689 79.5 28.9955 76.465 27.1804 72.1414 26.8594 71.3769 27.4582 70.5 28.4468 70.5L72.7499 70.5C73.599 70.5 74.2225 71.1786 74.1228 71.9294 73.1797 79.0252 67.1037 84.5 59.7499 84.5 54.162 84.5 49.3115 81.3392 46.8902 76.7057z" opacity=".2"/>
  </g>
</svg>
