<svg fill="none" viewBox="0 0 64 64" xmlns="http://www.w3.org/2000/svg"><path d="m12 56.6006v-7.4251l32.1755-32.1755v11.7564 27.8442z" fill="currentColor" fill-opacity=".2"/><path d="m43.6104 56.6277h-30.5807c-.6178 0-1.0297-.4119-1.0297-1.0297v-40.5683c0-.6178.4119-1.0297 1.0297-1.0297h30.5807c.6178 0 1.0296.4119 1.0296 1.0297v40.5683c0 .6178-.5148 1.0297-1.0296 1.0297z" stroke="currentColor" stroke-linecap="round" stroke-linejoin="round" stroke-miterlimit="10" stroke-width="2"/><path clip-rule="evenodd" d="m19 9.03127c0-.01203.0005-.02232.0013-.03099.0042-.00018.0087-.00028.0137-.00028h30.1455c.005 0 .0095.0001.0137.00028.0008.00867.0013.01896.0013.03099v40.63193c0 .0087-.0008.0136-.0013.0156l-.0005.0021-.0002.0005v.0001l-.0004.0005-.0008.0011-.0021.0021c-.0036.0035-.0086.0067-.0135.0087l-.0014.0005h-2.1553v2h2.1605c1.0091 0 2.015-.8108 2.015-2.0312v-40.63193c0-.5319-.1784-1.05494-.5664-1.44914-.3894-.39561-.912-.58213-1.4486-.58213h-30.1455c-.5366 0-1.0592.18652-1.4486.58213-.388.3942-.5664.91724-.5664 1.44914v2.96873h2z" fill="currentColor" fill-rule="evenodd"/><g stroke="currentColor" stroke-width="2"><path d="m29 23h10" stroke-linecap="round"/><path d="m18 28h21" stroke-linecap="round"/><path d="m18 33h21" stroke-linecap="round"/><path d="m18 38h21" stroke-linecap="round"/><path d="m18 43h21" stroke-linecap="round"/><path d="m18 48h12" stroke-linecap="round"/><rect fill="currentColor" fill-opacity=".2" height="4" rx="1" width="7" x="17" y="19"/></g></svg>
