<svg fill="none" viewBox="0 0 128 128" xmlns="http://www.w3.org/2000/svg"><path clip-rule="evenodd" d="m61.1488 26h-5.1488c-2.2091 0-4 1.7909-4 4v12.1308l2-3.5263v-8.6045c0-1.1046.8954-2 2-2h4.0145zm18.7471 23h14.1041c1.1046 0 2-.8954 2-2v-17c0-1.1046-.8954-2-2-2h-26.0145l-1.1344-2h27.1489c2.2091 0 4 1.7909 4 4v17c0 2.2091-1.7909 4-4 4h-12.9697zm-34.0605 4h-23.8354c-2.2091 0-4 1.7909-4 4v21c0 2.2091 1.7909 4 4 4h7.3876l1.1344-2h-8.522c-1.1046 0-2-.8954-2-2v-21c0-1.1046.8954-2 2-2h22.7011zm-9.8354 38v13c0 2.209 1.7909 4 4 4h41c2.2091 0 4-1.791 4-4v-6h20c2.209 0 4-1.7909 4-4v-17c0-2.2091-1.791-4-4-4h-11.4921l1.1343 2h10.3578c1.105 0 2 .8954 2 2v17c0 1.1046-.895 2-2 2h-20v-5h-2v5h-12c-1.1046 0-2-.8954-2-2v-3h-2v3c0 2.2091 1.7909 4 4 4h12v6c0 1.105-.8954 2-2 2h-41c-1.1046 0-2-.895-2-2v-13z" fill="currentColor" fill-opacity=".2" fill-rule="evenodd"/><path d="m101.176 86.52-34.5665-60.946c-1.1494-2.0267-4.0696-2.0267-5.219 0l-34.5664 60.946c-1.1343 1.9999.3103 4.48 2.6095 4.48h69.1328c2.2996 0 3.7436-2.4801 2.6096-4.48z" stroke="currentColor" stroke-linecap="round" stroke-linejoin="round" stroke-width="2"/><path d="m64 88v-61l-33.656 59.5077c-.377.6666.1046 1.4923.8704 1.4923z" fill="currentColor" fill-opacity=".2"/><g stroke="currentColor" stroke-linecap="round" stroke-linejoin="round" stroke-width="2"><path d="m64 68.5-2.5928-20.3101c-.216-1.6923 1.1025-3.1899 2.8086-3.1899 1.7297 0 3.0552 1.5375 2.8004 3.2484z"/><circle cx="64" cy="77" r="3"/></g></svg>
