<svg fill="none" viewBox="0 0 128 128" xmlns="http://www.w3.org/2000/svg"><path clip-rule="evenodd" d="m20 21h38c1.1046 0 2 .8954 2 2v5h2v-5c0-2.2091-1.7909-4-4-4h-38c-2.2091 0-4 1.7909-4 4v18c0 2.2091 1.7909 4 4 4h2v-2h-2c-1.1046 0-2-.8954-2-2v-18c0-1.1046.8954-2 2-2zm2 46h-6c-2.2091 0-4 1.7909-4 4v28c0 2.209 1.7909 4 4 4h34c2.2091 0 4-1.791 4-4v-3h-2v3c0 1.105-.8954 2-2 2h-34c-1.1046 0-2-.895-2-2v-28c0-1.1046.8954-2 2-2h6zm44 29v9c0 2.209 1.7909 4 4 4h54c2.209 0 4-1.791 4-4v-18c0-2.2091-1.791-4-4-4h-19v2h19c1.105 0 2 .8954 2 2v18c0 1.105-.895 2-2 2h-54c-1.1046 0-2-.895-2-2v-9zm39-31h10c2.209 0 4-1.7909 4-4v-34c0-2.2091-1.791-4-4-4h-27c-2.2091 0-4 1.7909-4 4v1h2v-1c0-1.1046.8954-2 2-2h27c1.105 0 2 .8954 2 2v34c0 1.1046-.895 2-2 2h-10z" fill="currentColor" fill-opacity=".2" fill-rule="evenodd"/><path d="m90.942 79.49-.0007-.0009-6.9119-9.3849c-.001-.0014-.0021-.0029-.0031-.0043-.2643-.3645-.6038-.668-.9955-.89-.3933-.2229-.83-.3584-1.2803-.3972-.4504-.0389-.9038.0198-1.3295.172-.4235.1515-.8096.3921-1.1322.7054l-6.2818 5.979-15.8263-21.4871c-.0002-.0004-.0005-.0008-.0008-.0011-.3011-.4098-.6971-.7406-1.154-.9638-.4574-.2234-.9621-.3325-1.4709-.3178-.5088.0146-1.0065.1525-1.4502.4019-.4435.2492-.82.6023-1.097 1.0289-.0002.0003-.0003.0005-.0005.0007l-16.4989 25.3068-.0009.0014c-.312.4804-.4869 1.0368-.5058 1.6093s.1189 1.1393.3986 1.6391c.2796.4999.6904.914 1.1882 1.1975.4937.2812 1.0542.4233 1.6221.4115h50.1231c.5834.0137 1.1593-.1352 1.6632-.4302.5083-.2977.9228-.7322 1.1962-1.2539.2735-.5217.3949-1.1097.3505-1.6971s-.2528-1.1505-.6016-1.6252z" stroke="currentColor" stroke-width="2"/><path d="m78.8779 55.0531c4.1567 0 7.5265-3.3698 7.5265-7.5266s-3.3698-7.5265-7.5265-7.5265c-4.1568 0-7.5266 3.3697-7.5266 7.5265s3.3698 7.5266 7.5266 7.5266z" fill="currentColor" fill-opacity=".2"/><path d="m78.8779 56.0531c4.709 0 8.5265-3.8175 8.5265-8.5266 0-4.709-3.8175-8.5265-8.5265-8.5265-4.7091 0-8.5266 3.8175-8.5266 8.5265 0 4.7091 3.8175 8.5266 8.5266 8.5266z" stroke="currentColor" stroke-width="2"/><rect rx="5" stroke="currentColor" stroke-width="2" width="79" x="24" y="30"/><path clip-rule="evenodd" d="m50.2458 58.8638-13.8997 21.3199c-.2128.3276-.332.7071-.3449 1.0976-.0129.3904.0811.777.2718 1.1179.1907.341.4709.6234.8104.8167.3394.1934.7253.2903 1.1158.2805h31.6448z" fill="currentColor" fill-opacity=".2" fill-rule="evenodd"/></svg>
