<svg xmlns="http://www.w3.org/2000/svg" width="128" height="128" viewBox="0 0 128 128">
  <g fill="none" fill-rule="evenodd" transform="translate(19 19)">
    <path fill="#FFF" d="M5.331,0.0006 L4.456,1.5106 L5.08,1.5106 L5.074,4.9666 L1.606,4.9616 L1.607,4.3386 L0.094,5.2106 L1.604,6.0856 L1.605,5.4626 L5.074,5.4666 L4.967,84.967 L1.511,84.962 L1.512,84.34 L7.10542736e-15,85.211 L1.51,86.085 L1.511,85.463 L4.967,85.467 L4.962,88.923 L4.34,88.922 L5.21,90.434 L6.085,88.924 L5.461,88.923 L5.466,85.468 L84.966,85.574 L84.963,88.945 L84.341,88.944 L85.212,90.456 L86.086,88.946 L85.462,88.945 L85.466,85.574 L88.923,85.579 L88.922,86.202 L90.434,85.331 L88.924,84.457 L88.923,85.079 L85.467,85.075 L85.548,5.5736 L89.017,5.5796 L89.016,6.2016 L90.528,5.3306 L89.018,4.4566 L89.017,5.0786 L85.549,5.0746 L85.552,1.7036 L86.175,1.7046 L85.304,0.1926 L84.43,1.7026 L85.053,1.7026 L85.049,5.0736 L5.574,4.9676 L5.578,1.5116 L6.202,1.5126 L5.331,0.0006 Z M5.467,84.968 L5.573,5.4676 L85.049,5.5736 L84.967,85.074 L5.467,84.968 Z" opacity=".2"/>
    <path fill="#FFF" d="M9,6 L10,6 L10,9 L15,9 L15,6 L16,6 L16,9 L21,9 L21,6 L22,6 L22,9 L27,9 L27,6 L28,6 L28,9 L33,9 L33,6 L34,6 L34,9 L39,9 L39,6 L40,6 L40,9 L45,9 L45,6 L46,6 L46,9 L51,9 L51,6 L52,6 L52,9 L57,9 L57,6 L58,6 L58,9 L63,9 L63,6 L64,6 L64,9 L69,9 L69,6 L70,6 L70,9 L75,9 L75,6 L76,6 L76,9 L81,9 L81,6 L82,6 L82,9 L85,9 L85,10 L82,10 L82,15 L85,15 L85,16 L82,16 L82,21 L85,21 L85,22 L82,22 L82,27 L85,27 L85,28 L82,28 L82,33 L85,33 L85,34 L82,34 L82,39 L85,39 L85,40 L82,40 L82,45 L85,45 L85,46 L82,46 L82,51 L85,51 L85,52 L82,52 L82,57 L85,57 L85,58 L82,58 L82,63 L85,63 L85,64 L82,64 L82,69 L85,69 L85,70 L82,70 L82,75 L85,75 L85,76 L82,76 L82,81 L85,81 L85,82 L82,82 L82,85 L81,85 L81,82 L76,82 L76,85 L75,85 L75,82 L70,82 L70,85 L69,85 L69,82 L64,82 L64,85 L63,85 L63,82 L58,82 L58,85 L57,85 L57,82 L52,82 L52,85 L51,85 L51,82 L46,82 L46,85 L45,85 L45,82 L40,82 L40,85 L39,85 L39,82 L34,82 L34,85 L33,85 L33,82 L28,82 L28,85 L27,85 L27,82 L22,82 L22,85 L21,85 L21,82 L16,82 L16,85 L15,85 L15,82 L10,82 L10,85 L9,85 L9,82 L6,82 L6,81 L9,81 L9,76 L6,76 L6,75 L9,75 L9,70 L6,70 L6,69 L9,69 L9,64 L6,64 L6,63 L9,63 L9,58 L6,58 L6,57 L9,57 L9,52 L6,52 L6,51 L9,51 L9,46 L6,46 L6,45 L9,45 L9,40 L6,40 L6,39 L9,39 L9,34 L6,34 L6,33 L9,33 L9,28 L6,28 L6,27 L9,27 L9,22 L6,22 L6,21 L9,21 L9,16 L6,16 L6,15 L9,15 L9,10 L6,10 L6,9 L9,9 L9,6 Z M81,76 L81,81 L76,81 L76,76 L81,76 Z M75,76 L75,81 L70,81 L70,76 L75,76 Z M69,76 L69,81 L64,81 L64,76 L69,76 Z M63,76 L63,81 L58,81 L58,76 L63,76 Z M57,76 L57,81 L52,81 L52,76 L57,76 Z M51,76 L51,81 L46,81 L46,76 L51,76 Z M45,76 L45,81 L40,81 L40,76 L45,76 Z M39,76 L39,81 L34,81 L34,76 L39,76 Z M33,76 L33,81 L28,81 L28,76 L33,76 Z M27,76 L27,81 L22,81 L22,76 L27,76 Z M21,76 L21,81 L16,81 L16,76 L21,76 Z M15,76 L15,81 L10,81 L10,76 L15,76 Z M10,75 L15,75 L15,70 L10,70 L10,75 Z M16,75 L21,75 L21,70 L16,70 L16,75 Z M22,75 L27,75 L27,70 L22,70 L22,75 Z M28,75 L33,75 L33,70 L28,70 L28,75 Z M34,75 L39,75 L39,70 L34,70 L34,75 Z M40,75 L45,75 L45,70 L40,70 L40,75 Z M46,75 L51,75 L51,70 L46,70 L46,75 Z M52,75 L57,75 L57,70 L52,70 L52,75 Z M58,75 L63,75 L63,70 L58,70 L58,75 Z M64,75 L69,75 L69,70 L64,70 L64,75 Z M70,75 L75,75 L75,70 L70,70 L70,75 Z M76,75 L81,75 L81,70 L76,70 L76,75 Z M81,64 L81,69 L76,69 L76,64 L81,64 Z M75,64 L75,69 L70,69 L70,64 L75,64 Z M69,64 L69,69 L64,69 L64,64 L69,64 Z M63,64 L63,69 L58,69 L58,64 L63,64 Z M57,64 L57,69 L52,69 L52,64 L57,64 Z M51,64 L51,69 L46,69 L46,64 L51,64 Z M45,64 L45,69 L40,69 L40,64 L45,64 Z M39,64 L39,69 L34,69 L34,64 L39,64 Z M33,64 L33,69 L28,69 L28,64 L33,64 Z M27,64 L27,69 L22,69 L22,64 L27,64 Z M21,64 L21,69 L16,69 L16,64 L21,64 Z M15,64 L15,69 L10,69 L10,64 L15,64 Z M10,63 L15,63 L15,58 L10,58 L10,63 Z M16,63 L21,63 L21,58 L16,58 L16,63 Z M22,63 L27,63 L27,58 L22,58 L22,63 Z M28,63 L33,63 L33,58 L28,58 L28,63 Z M34,63 L39,63 L39,58 L34,58 L34,63 Z M40,63 L45,63 L45,58 L40,58 L40,63 Z M46,63 L51,63 L51,58 L46,58 L46,63 Z M52,63 L57,63 L57,58 L52,58 L52,63 Z M58,63 L63,63 L63,58 L58,58 L58,63 Z M64,63 L69,63 L69,58 L64,58 L64,63 Z M70,63 L75,63 L75,58 L70,58 L70,63 Z M76,63 L81,63 L81,58 L76,58 L76,63 Z M81,52 L81,57 L76,57 L76,52 L81,52 Z M75,52 L75,57 L70,57 L70,52 L75,52 Z M69,52 L69,57 L64,57 L64,52 L69,52 Z M63,52 L63,57 L58,57 L58,52 L63,52 Z M57,52 L57,57 L52,57 L52,52 L57,52 Z M51,52 L51,57 L46,57 L46,52 L51,52 Z M45,52 L45,57 L40,57 L40,52 L45,52 Z M39,52 L39,57 L34,57 L34,52 L39,52 Z M33,52 L33,57 L28,57 L28,52 L33,52 Z M27,52 L27,57 L22,57 L22,52 L27,52 Z M21,52 L21,57 L16,57 L16,52 L21,52 Z M15,52 L15,57 L10,57 L10,52 L15,52 Z M10,51 L15,51 L15,46 L10,46 L10,51 Z M16,51 L21,51 L21,46 L16,46 L16,51 Z M22,51 L27,51 L27,46 L22,46 L22,51 Z M28,51 L33,51 L33,46 L28,46 L28,51 Z M34,51 L39,51 L39,46 L34,46 L34,51 Z M40,51 L45,51 L45,46 L40,46 L40,51 Z M46,51 L51,51 L51,46 L46,46 L46,51 Z M52,51 L57,51 L57,46 L52,46 L52,51 Z M58,51 L63,51 L63,46 L58,46 L58,51 Z M64,51 L69,51 L69,46 L64,46 L64,51 Z M70,51 L75,51 L75,46 L70,46 L70,51 Z M76,51 L81,51 L81,46 L76,46 L76,51 Z M81,40 L81,45 L76,45 L76,40 L81,40 Z M75,40 L75,45 L70,45 L70,40 L75,40 Z M69,40 L69,45 L64,45 L64,40 L69,40 Z M63,40 L63,45 L58,45 L58,40 L63,40 Z M57,40 L57,45 L52,45 L52,40 L57,40 Z M51,40 L51,45 L46,45 L46,40 L51,40 Z M45,40 L45,45 L40,45 L40,40 L45,40 Z M39,40 L39,45 L34,45 L34,40 L39,40 Z M33,40 L33,45 L28,45 L28,40 L33,40 Z M27,40 L27,45 L22,45 L22,40 L27,40 Z M21,40 L21,45 L16,45 L16,40 L21,40 Z M15,40 L15,45 L10,45 L10,40 L15,40 Z M10,39 L15,39 L15,34 L10,34 L10,39 Z M16,39 L21,39 L21,34 L16,34 L16,39 Z M22,39 L27,39 L27,34 L22,34 L22,39 Z M28,39 L33,39 L33,34 L28,34 L28,39 Z M34,39 L39,39 L39,34 L34,34 L34,39 Z M40,39 L45,39 L45,34 L40,34 L40,39 Z M46,39 L51,39 L51,34 L46,34 L46,39 Z M52,39 L57,39 L57,34 L52,34 L52,39 Z M58,39 L63,39 L63,34 L58,34 L58,39 Z M64,39 L69,39 L69,34 L64,34 L64,39 Z M70,39 L75,39 L75,34 L70,34 L70,39 Z M76,39 L81,39 L81,34 L76,34 L76,39 Z M81,28 L81,33 L76,33 L76,28 L81,28 Z M75,28 L75,33 L70,33 L70,28 L75,28 Z M69,28 L69,33 L64,33 L64,28 L69,28 Z M63,28 L63,33 L58,33 L58,28 L63,28 Z M57,28 L57,33 L52,33 L52,28 L57,28 Z M51,28 L51,33 L46,33 L46,28 L51,28 Z M45,28 L45,33 L40,33 L40,28 L45,28 Z M39,28 L39,33 L34,33 L34,28 L39,28 Z M33,28 L33,33 L28,33 L28,28 L33,28 Z M27,28 L27,33 L22,33 L22,28 L27,28 Z M21,28 L21,33 L16,33 L16,28 L21,28 Z M15,28 L15,33 L10,33 L10,28 L15,28 Z M10,27 L15,27 L15,26 L16,26 L16,27 L21,27 L21,26 L22,26 L22,27 L27,27 L27,26 L28,26 L28,27 L33,27 L33,26 L34,26 L34,27 L39,27 L39,26 L40,26 L40,27 L45,27 L45,26 L46,26 L46,27 L51,27 L51,26 L52,26 L52,27 L57,27 L57,26 L58,26 L58,27 L63,27 L63,26 L64,26 L64,27 L69,27 L69,26 L70,26 L70,27 L75,27 L75,26 L76,26 L76,27 L81,27 L81,26 L81,22 L81,21 L81,16 L81,15 L81,10 L76,10 L75,10 L70,10 L69,10 L64,10 L63,10 L58,10 L57,10 L52,10 L51,10 L46,10 L45,10 L40,10 L39,10 L34,10 L33,10 L28,10 L27,10 L22,10 L21,10 L16,10 L15,10 L10,10 L10,15 L10,16 L10,21 L10,22 L10,26 L10,27 Z" opacity=".2"/>
    <polyline stroke="#FFF" stroke-linecap="round" stroke-linejoin="round" stroke-width="2" points="35 46.5 23 53.088 35 60.5"/>
    <polyline stroke="#FFF" stroke-linecap="round" stroke-linejoin="round" stroke-width="2" points="58 46.5 70 53.088 58 60.5"/>
    <path stroke="#FFF" stroke-width="2" d="M52.5,41.5 L40,67.5"/>
    <rect width="71" height="71" x="10" y="10" stroke="#FFF" stroke-width="2" rx="3"/>
    <path stroke="#FFF" stroke-width="2" d="M11,26 L81,26"/>
    <circle cx="18" cy="18" r="3" stroke="#FFF" stroke-width="2"/>
    <circle cx="28" cy="18" r="3" stroke="#FFF" stroke-width="2"/>
    <circle cx="38" cy="18" r="3" stroke="#FFF" stroke-width="2"/>
    <rect width="71" height="16" x="10" y="10" fill="#FFF" opacity=".2"/>
  </g>
</svg>
