<svg fill="none" viewBox="0 0 64 64" xmlns="http://www.w3.org/2000/svg"><path d="m18.2018 26.2064h-1.6009c-1.9886 0-3.6009 1.6123-3.6009 3.6009v23.4069c0 1.9887 1.6123 3.6009 3.6009 3.6009l31.2109.0013c1.9886 0 3.601-1.6119 3.601-3.6009v-23.4082c0-1.9886-1.6123-3.6009-3.6009-3.6009h-1.601v-4.2018c0-7.7229-6.2816-14.0046-14.0045-14.0046s-14.0046 6.2817-14.0046 14.0046zm7.2018-4.2018c0-3.7498 3.053-6.8028 6.8028-6.8028 3.7497 0 6.8027 3.053 6.8027 6.8028v4.2018h-13.6055zm9.7041 19.5055c0 1.6024-1.2989 2.9014-2.9013 2.9014s-2.9014-1.299-2.9014-2.9014 1.299-2.9013 2.9014-2.9013 2.9013 1.2989 2.9013 2.9013z" fill="currentColor" fill-opacity=".2" stroke="currentColor" stroke-width="2"/></svg>
