<svg fill="none" viewBox="0 0 129 128" width="129" xmlns="http://www.w3.org/2000/svg"><g fill="currentColor" fill-opacity=".2"><path d="m114.996 97.5414.626.4127.598-.9067-1.059-.2378zm-17.3879 17.4106-.7316.165.2392 1.06.9059-.599zm18.3769-17.1516.216-.7184-.538-.1613-.306.4703zm-18.1166 18.1406-.4103-.628-.4699.307.1621.537zm-.8194.526.7142-.229-.2957-.922-.8188.517zm19.461-19.4866-.635-.3995-.516.8195.923.2945zm-89.076-83.0549-.619.4234.437.639.6248-.4571zm-12.6733 12.3931.5953.4563.471-.6145-.6292-.4512zm82.0116 89.1764.4033.632.4551-.29-.1307-.524zm18.7657-18.7901-.181.728.524.1299.29-.4554zm-87.5991-81.9483-.4436-.6047-.5249.385.3073.5738zm-12.3585 12.0853.3688-.6531-.5668-.3201-.3967.5162zm.3852-.496-.5899-.4631-.5452.6945.7735.4257zm11.4688-11.2152.665-.3468-.4083-.7829-.7065.5295zm-.4999-.836.4488.6009.5748-.4293-.4034-.5932zm-11.7934 11.5328-.4354.6107.584.4164.442-.565zm94.8389 31.1899.743-.1051-.105-.7383-.739.1002zm.277 10.5891-.063.7475.744.0617.066-.7432zm.614-11.6043-.74.119.098.6144.623.0163zm.329 12.5723-.059-.7478-.621.0485-.066.6194zm-.182-11.5966.043-.7488-.912-.0531.126.9053zm.276 10.6147-.747-.0643-.078.9099.908-.1002zm-1.133.9782.746.0815.083-.7636-.765-.0652zm-.327-12.5113.103.7429.761-.1051-.124-.7586zm1.963 40.3789c-8.448 0-15.2961 6.8486-15.2961 15.2956h1.5c0-7.619 6.1771-13.7956 13.7961-13.7956zm3.364.3712c-1.084-.243-2.209-.3712-3.364-.3712v1.5c1.043 0 2.059.1158 3.035.3348zm-.791.3191c-4.501 6.8293-10.353 12.6883-17.1754 17.1983l.827 1.251c6.9914-4.621 12.9884-10.626 17.6004-17.6239zm-17.8691 14.6053c0 1.162.1297 2.294.3756 3.383l1.4632-.33c-.2216-.981-.3388-2.003-.3388-3.053zm18.8561-14.343c-4.655 7.144-10.761 13.258-17.8989 17.922l.8205 1.255c7.3124-4.777 13.5664-11.039 18.3344-18.3582zm11.736 14.343c0-6.918-4.592-12.761-10.892-14.652l-.432 1.4367c5.684 1.7063 9.824 6.9783 9.824 13.2153zm-15.296 15.296c8.448 0 15.296-6.848 15.296-15.296h-1.5c0 7.62-6.177 13.796-13.796 13.796zm-14.6467-10.873c1.8971 6.291 7.7357 10.873 14.6467 10.873v-1.5c-6.231 0-11.499-4.131-13.2106-9.806zm-.8155.539c2.0965 6.538 8.2252 11.273 15.4622 11.273v-1.5c-6.566 0-12.1306-4.295-14.0338-10.231zm15.4622 11.273c8.966 0 16.234-7.269 16.234-16.235h-1.5c0 8.138-6.597 14.735-14.734 14.735zm16.234-16.235c0-7.244-4.744-13.3778-11.293-15.4681l-.456 1.429c5.945 1.8976 10.249 7.4671 10.249 14.0391zm-2.781-47.734c0 11.9748-3.436 23.1448-9.375 32.5809l1.27.799c6.085-9.6683 9.605-21.1142 9.605-33.3799zm-61.25-61.25001c33.8275.00001 61.25 27.42261 61.25 61.25001h1.5c0-34.6559-28.0941-62.75-62.75-62.75001zm-36.1232 11.78081c10.1273-7.40784 22.6135-11.78081 36.1232-11.78081v-1.5c-13.8387 0-26.6331 4.48064-37.0088 12.07011zm.1763-1.0287c-1.7548-2.5658-4.7069-4.2521-8.0531-4.2521v1.5c2.8302 0 5.3278 1.4244 6.815 3.5989zm-8.0531-4.2521c-5.3848 0-9.75 4.3652-9.75 9.75h1.5c0-4.5563 3.6937-8.25 8.25-8.25zm-9.75 9.75c0 3.2679 1.6085 6.1602 4.0736 7.9281l.8742-1.2189c-2.0892-1.4983-3.4478-3.9451-3.4478-6.7092zm-7.49998 45c0-14.0038 4.69871-26.9081 12.60598-37.2251l-1.1906-.9125c-8.10087 10.5697-12.91538 23.7925-12.91538 38.1376zm61.24998 61.25c-33.8274 0-61.24998-27.4226-61.24998-61.25h-1.5c0 34.6559 28.09408 62.75 62.74998 62.75zm32.6487-9.417c-9.4503 5.965-20.6452 9.417-32.6487 9.417v1.5c12.2951 0 23.7664-3.537 33.4493-9.649zm-1.0862-4.099c0 1.359.1671 2.68.4821 3.942l1.4554-.363c-.2857-1.145-.4375-2.343-.4375-3.579zm16.2345-16.234c-8.966 0-16.2345 7.268-16.2345 16.234h1.5c0-8.137 6.5965-14.734 14.7345-14.734zm3.921.477c-1.256-.3118-2.57-.477-3.921-.477v1.5c1.228 0 2.421.1502 3.56.4329zm8.563-31.977c0 11.8858-3.439 22.966-9.376 32.3025l1.266.8049c6.085-9.57 9.61-20.9282 9.61-33.1074zm-60.281-60.28126c33.2924.00001 60.281 26.98886 60.281 60.28126h1.5c0-34.1208-27.6601-61.78125-61.781-61.78126zm-35.6175 11.64266c9.9788-7.31992 22.2922-11.64266 35.6175-11.64266v-1.5c-13.655 0-26.2774 4.4309-36.5047 11.93316zm1.3675 3.6386c0-1.661-.416-3.2271-1.15-4.5975l-1.3223.7082c.6203 1.158.9723 2.4814.9723 3.8893zm-9.75 9.75c5.3848 0 9.75-4.3652 9.75-9.75h-1.5c0 4.5564-3.6936 8.25-8.25 8.25zm-4.7885-1.2551c1.4151.7993 3.0497 1.2551 4.7885 1.2551v-1.5c-1.4736 0-2.8549-.3857-4.0508-1.0612zm-11.49273 36.5051c0-13.8116 4.64407-26.5365 12.45623-36.7011l-1.1893-.914c-8.00657 10.4175-12.76693 23.4614-12.76693 37.6151zm60.28123 60.281c-33.2924 0-60.28123-26.9886-60.28123-60.281h-1.5c0 34.1208 27.66043 61.781 61.78123 61.781zm32.369-9.418c-9.3504 5.963-20.455 9.418-32.369 9.418v1.5c12.2082 0 23.5914-3.541 33.1756-9.654zm-80.765-87.86c1.3047.7181 2.8038 1.1263 4.396 1.1263v-1.5c-1.3329 0-2.584-.3412-3.6728-.9404zm4.396 1.1263c5.042 0 9.1293-4.0873 9.1293-9.1293h-1.5c0 4.2136-3.4157 7.6293-7.6293 7.6293zm9.1293-9.1293c0-1.5194-.3717-2.9541-1.0299-4.2161l-1.33.6936c.5491 1.0529.8599 2.2503.8599 3.5225zm-12.5737 7.809c3.2732-4.1697 7.0843-7.8973 11.3286-11.0782l-.8996-1.2003c-4.3494 3.2596-8.2547 7.0794-11.6089 11.3523zm10.9991-12.9359c-1.6412-2.4141-4.4124-4.00241-7.5547-4.00241v1.50001c2.6248 0 4.9404 1.3248 6.3143 3.3457zm-7.5547-4.00241c-5.042 0-9.1293 4.08731-9.1293 9.12931h1.5c0-4.2136 3.4158-7.6293 7.6293-7.6293zm-9.1293 9.12931c0 3.0691 1.5152 5.7842 3.835 7.4382l.8707-1.2214c-1.9419-1.3845-3.2057-3.6531-3.2057-6.2168zm4.861 7.2896c3.36-4.2945 7.2806-8.1292 11.6516-11.394l-.8976-1.2018c-4.4776 3.3444-8.4936 7.2725-11.9353 11.6715zm90.3933 36.0073c0-2.3172 1.722-4.2333 3.956-4.5363l-.202-1.4864c-2.967.4025-5.254 2.9449-5.254 6.0227zm4.194 4.5622c-2.349-.1948-4.194-2.1634-4.194-4.5622h-1.5c0 3.1856 2.45 5.7982 5.569 6.0571zm-.633-3.3435c0 1.3567-.06 2.6992-.177 4.025l1.495.1319c.12-1.3697.182-2.7562.182-4.1569zm-.448-6.3931c.295 2.0882.448 4.2226.448 6.3931h1.5c0-2.2411-.158-4.4457-.463-6.6033zm1.614-.3706c2.994.0785 5.398 2.5312 5.398 5.545h1.5c0-3.8291-3.054-6.9447-6.859-7.0444zm5.398 5.545c0 2.9159-2.25 5.3069-5.109 5.5298l.117 1.4955c3.633-.2833 6.492-3.3201 6.492-7.0253zm-5.796 6.1977c-2.483 23.1927-22.1174 41.2554-45.9696 41.2554v1.5c24.627 0 44.8976-18.649 47.4606-42.5957zm-45.9696 41.2554c-25.5346 0-46.2344-20.6998-46.2344-46.2344h-1.5c0 26.363 21.3714 47.7344 47.7344 47.7344zm-46.2344-46.2344c0-25.5345 20.6998-46.2344 46.2344-46.2344v-1.5c-26.363 0-47.7344 21.3714-47.7344 47.7344zm46.2344-46.2344c23.0173 0 42.1076 16.8205 45.6466 38.84l1.481-.238c-3.654-22.7351-23.3621-40.102-47.1276-40.102zm46.4896 40.4454c2.402.1398 4.307 2.1328 4.307 4.5703h1.5c0-3.2367-2.529-5.8821-5.72-6.0678zm4.307 4.5703c0 2.3562-1.78 4.2976-4.069 4.5502l.165 1.4909c3.04-.3356 5.404-2.9117 5.404-6.0411zm-4.562 1.2187c0 1.3521-.058 2.6905-.172 4.0127l1.495.1285c.117-1.365.177-2.7462.177-4.1412zm-.444-6.4343c.292 2.1024.444 4.2505.444 6.4343h1.5c0-2.2532-.156-4.4704-.459-6.6411zm-.859 11.4079c-2.476 22.6238-21.6484 40.2278-44.9316 40.2278v1.5c24.0568 0 43.8646-18.1885 46.4226-41.5647zm-44.9316 40.2278c-24.9643 0-45.2018-20.2371-45.2018-45.2014h-1.5c0 25.7927 20.9091 46.7014 46.7018 46.7014zm-45.2018-45.2014c0-24.9642 20.2375-45.2017 45.2018-45.2017v-1.5c-25.7927 0-46.7018 20.9091-46.7018 46.7017zm45.2018-45.2017c22.4662 0 41.1056 16.3908 44.6096 37.8663l1.48-.2415c-3.62-22.1895-22.8764-39.1248-46.0896-39.1248zm40.6716 43.983c0-2.8032 2.08-5.1218 4.781-5.4945l-.205-1.4859c-3.433.4737-6.076 3.4178-6.076 6.9804zm5.069 5.5266c-2.839-.242-5.069-2.6244-5.069-5.5266h-1.5c0 3.688 2.833 6.7136 6.442 7.0211z"/><path d="m45.7904 51.4186h-2.5417c-2.5082 0-4.5417 2.0335-4.5417 4.5417v31.8733c0 2.5081 2.0335 4.5416 4.5417 4.5416l42.5.0017c2.5081 0 4.5417-2.033 4.5417-4.5416v-31.875c0-2.5082-2.0335-4.5417-4.5417-4.5417h-2.5417v-6.0833c0-10.3165-8.3918-18.7083-18.7083-18.7083s-18.7083 8.3918-18.7083 18.7083zm9.0833-6.0833c0-5.3058 4.3192-9.625 9.625-9.625s9.625 4.3192 9.625 9.625v6.0833h-19.25zm13.9375 26.5608c0 2.3817-1.9308 4.3125-4.3125 4.3125s-4.3125-1.9308-4.3125-4.3125c0-2.3818 1.9308-4.3125 4.3125-4.3125s4.3125 1.9307 4.3125 4.3125z" stroke="currentColor" stroke-width="2"/></g></svg>
