<svg xmlns="http://www.w3.org/2000/svg" viewBox="0 0 64 64">
  <g fill="none" fill-rule="evenodd" transform="translate(8 8)">
    <path stroke="currentColor" stroke-linecap="round" stroke-width="2" d="M15.8765,31.753 C24.6449,31.753 31.753,24.6449 31.753,15.8765 C31.753,7.1082 24.6449,0 15.8765,0 C7.1082,0 0,7.1082 0,15.8765 C0,24.6449 7.1082,31.753 15.8765,31.753 Z"/>
    <polygon fill="currentColor" points="33.829 27.863 27.841 33.851 30.087 36.096 36.074 30.109" opacity=".25"/>
    <path fill="currentColor" d="M26.7305,16.2696 C28.8096,14.1905 27.9787,9.9888 24.8747,6.8848 C21.7708,3.7808 17.5691,2.95 15.49,5.029 C13.4109,7.1081 14.2417,11.3098 17.3457,14.4138 C20.4497,17.5178 24.6514,18.3486 26.7305,16.2696 Z" opacity=".2"/>
    <path stroke="currentColor" stroke-linecap="round" stroke-width="2" d="M27.096,27.0959 C26.5667,27.6251 26.0375,28.0485 25.5083,28.4719 L29.3716,32.3352 L32.3881,29.3186 L28.5248,25.4554 C28.1015,26.0904 27.6252,26.6196 27.096,27.0959 Z"/>
    <path fill="currentColor" d="M33.076,33.0761 L36.0926,30.0595 L47.312,41.2789 C48.1587,42.1257 48.1587,43.4487 47.312,44.2955 L45.8302,45.7773 L33.076,33.0761 Z" opacity=".25"/>
    <polygon stroke="currentColor" stroke-linecap="round" stroke-width="2" points="33.829 27.863 27.841 33.851 30.087 36.096 36.074 30.109"/>
    <path stroke="currentColor" stroke-linecap="round" stroke-width="2" d="M47.312,44.3484 L44.2955,47.3649 C43.4488,48.2117 42.1257,48.2117 41.279,47.3649 L30.0596,36.1455 L36.0397,30.1654 L47.2591,41.3848 C48.1588,42.1786 48.1588,43.5016 47.312,44.3484 Z"/>
  </g>
</svg>
