<svg fill="none" viewBox="0 0 128 128" xmlns="http://www.w3.org/2000/svg"><path d="m53 82c18.7777 0 34-15.2223 34-34s-15.2223-34-34-34-34 15.2223-34 34 15.2223 34 34 34z" stroke="currentColor" stroke-linecap="round" stroke-miterlimit="10" stroke-width="2"/><path d="m53 75c14.9117 0 27-12.0883 27-27s-12.0883-27-27-27-27 12.0883-27 27 12.0883 27 27 27z" stroke="currentColor" stroke-linecap="round" stroke-miterlimit="10" stroke-width="2"/><path d="m89.7218 73.6503-11.3136 11.3136 4.2426 4.2426 11.3136-11.3136z" fill="currentColor" fill-opacity=".2" opacity=".25"/><path d="m70.8741 44.2217c3.2176-3.2176 1.9318-9.7201-2.872-14.5238-4.8037-4.8038-11.3062-6.0896-14.5238-2.872s-1.9318 9.7201 2.8719 14.5239c4.8038 4.8037 11.3063 6.0895 14.5239 2.8719z" fill="currentColor" fill-opacity=".2"/><path d="m77 72.2001c-1 1-2 1.8-3 2.6l7.3 7.3 5.7-5.7-7.3-7.3c-.8 1.2-1.7 2.2-2.7 3.1z" stroke="currentColor" stroke-linecap="round" stroke-miterlimit="10" stroke-width="2"/><path d="m88.2998 83.4998 5.7-5.7 21.2002 21.2c1.6 1.6002 1.6 4.1002 0 5.7002l-2.8 2.8z" fill="currentColor" fill-opacity=".2"/><path d="m89.7218 73.6503-11.3136 11.3136 4.2426 4.2426 11.3136-11.3136z" stroke="currentColor" stroke-linecap="round" stroke-miterlimit="10" stroke-width="2"/><path d="m115.2 104.8-5.7 5.7c-1.6 1.6-4.1 1.6-5.7 0l-21.2004-21.2 11.3-11.3 21.2004 21.2c1.7 1.5 1.7 4 .1 5.6z" stroke="currentColor" stroke-linecap="round" stroke-miterlimit="10" stroke-width="2"/><path clip-rule="evenodd" d="m88.9864 49c.009-.3322.0136-.6656.0136-1s-.0046-.6678-.0136-1h26.0136c1.105 0 2-.8954 2-2v-18c0-1.1046-.895-2-2-2h-27c-1.1046 0-2 .8954-2 2v6.5897c-.5887-1.3462-1.2574-2.6495-2-3.9038v-2.6859c0-2.2091 1.7909-4 4-4h27c2.209 0 4 1.7909 4 4v18c0 2.2091-1.791 4-4 4zm-71.8632 2h-13.1232c-2.20914 0-4 1.7909-4 4v18c0 2.2091 1.79086 4 4 4h8v22c0 2.209 1.7909 4 4 4h34c2.2091 0 4-1.791 4-4v-15.0136c-.3322.009-.6656.0136-1 .0136s-.6678-.0046-1-.0136v15.0136c0 1.105-.8954 2-2 2h-34c-1.1046 0-2-.895-2-2v-22h17.6653c-.8556-.6305-1.6823-1.2979-2.4777-2h-15.1876v-4c0-1.1046.8954-2 2-2h7.7563c-.4681-.6507-.9151-1.3177-1.3398-2h-6.4165c-2.2091 0-4 1.7909-4 4v4h-8c-1.10457 0-2-.8954-2-2v-18c0-1.1046.89543-2 2-2h13.3444c-.0918-.6611-.1657-1.3279-.2212-2zm48.9165 30.5658c.6632-.2578 1.3169-.5347 1.9603-.8301v.2643c0 1.1046.8954 2 2 2h8.6777l-1.6777 1.6777.3223.3223h-7.3223c-2.0171 0-3.6854-1.493-3.9603-3.4342zm20.5415-20.5658c.2547-.6575.4907-1.3244.7073-2h36.7115c2.209 0 4 1.7909 4 4v18c0 2.2091-1.791 4-4 4h-21.222l-2-2h23.222c1.105 0 2-.8954 2-2v-18c0-1.1046-.895-2-2-2z" fill="currentColor" fill-opacity=".2" fill-rule="evenodd"/></svg>
