<svg xmlns="http://www.w3.org/2000/svg" viewBox="0 0 128 128">
  <g fill="none" fill-rule="evenodd">
    <g stroke="currentColor" stroke-linecap="round" stroke-width="2" transform="translate(19 15)">
      <path d="M34,61 C48.9117,61 61,48.9117 61,34 C61,19.0883 48.9117,7 34,7 C19.0883,7 7,19.0883 7,34 C7,48.9117 19.0883,61 34,61 Z"/>
      <path d="M34,68 C52.7777,68 68,52.7777 68,34 C68,15.2223 52.7777,0 34,0 C15.2223,0 0,15.2223 0,34 C0,52.7777 15.2223,68 34,68 Z"/>
      <path d="M58,58.2 C57,59.2 56,60 55,60.8 L62.3,68.1 L68,62.4 L60.7,55.1 C59.9,56.3 59,57.3 58,58.2 Z"/>
      <polygon points="70.722 59.65 59.409 70.964 63.651 75.206 74.965 63.893"/>
      <path d="M96.2,90.8 L90.5,96.5 C88.9,98.1 86.4,98.1 84.8,96.5 L63.6001,75.3 L74.9001,64 L96.1,85.2 C97.8,86.7 97.8,89.2 96.2,90.8 Z"/>
    </g>
    <path fill="currentColor" d="M93.9361,78.8639 L94,78.8 L115.2,100 C116.8,101.6 116.8,104.1 115.2,105.7 L112.4,108.5 L88.3288599,84.5287401 L82.6513,90.2063 L78.4087,85.9637 L89.7223,74.6501 L93.9361,78.8639 Z" opacity=".25"/>
    <path stroke="currentColor" stroke-width="2" d="M65,65.4 C65,61.9182 67.8296,59.2 71.2,59.2 L77,59.2 L76.8568,59.8136 L75.7308,60.2 L71.2,60.2 C68.3704,60.2 66,62.4818 66,65.4 L66,70.5 L65.596,71.6062 L65,71.7228 L65,65.4 Z M45.8405,54.6986 C44.9194,54.0613 43.7961,53.9229 43.0498,53.9975 L43.0249,54 L26.5,54 L26.5,53 L42.9758,53 C43.8959,52.9135 45.2579,53.0794 46.4095,53.8763 C47.6015,54.7012 48.5,56.1555 48.5,58.5 L48.5,73.5 L47.5,73.5 L47.5,58.5 C47.5,56.4445 46.7318,55.3155 45.8405,54.6986 Z" opacity=".2"/>
    <path fill="currentColor" d="M88.9864,50 C88.9954,49.6678 89,49.3344 89,49 C89,48.6656 88.9954,48.3322 88.9864,48 L115,48 C116.105,48 117,47.1046 117,46 L117,28 C117,26.8954 116.105,26 115,26 L88,26 C86.8954,26 86,26.8954 86,28 L86,34.5897 C85.4113,33.2435 84.7426,31.9402 84,30.6859 L84,28 C84,25.7909 85.7909,24 88,24 L115,24 C117.209,24 119,25.7909 119,28 L119,46 C119,48.2091 117.209,50 115,50 L88.9864,50 Z M17.4978,55 C17.6107,55.6732 17.7423,56.34 17.8921,57 L4,57 C2.89543,57 2,57.8954 2,59 L2,82 C2,83.1046 2.89543,84 4,84 L12,84 L12,80 C12,77.7909 13.7909,76 16,76 L29.1876,76 C29.983,76.7021 30.8097,77.3695 31.6653,78 L16,78 C14.8954,78 14,78.8954 14,80 L14,84 L43,84 C43.2953,84 43.5757,83.936 43.828,83.8211 C44.6174,84.0285 45.4175,84.2097 46.2271,84.3639 C45.4992,85.3559 44.3248,86 43,86 L14,86 L14,108 C14,109.105 14.8954,110 16,110 L58,110 C59.1046,110 60,109.105 60,108 L60,84.3199 C60.6736,84.1871 61.3405,84.0356 62,83.8658 L62,108 C62,110.209 60.2091,112 58,112 L16,112 C13.7909,112 12,110.209 12,108 L12,86 L4,86 C1.79086,86 0,84.2091 0,82 L0,59 C0,56.7909 1.79086,55 4,55 L17.4978,55 Z M66.0397,82.5658 C66.7029,82.308 67.3566,82.0311 68,81.7357 L68,82 C68,83.1046 68.8954,84 70,84 L78.6777,84 L77,85.6777 L77.3223,86 L70,86 C67.9829,86 66.3146,84.507 66.0397,82.5658 Z M86.5812,62 C86.8359,61.3425 87.0719,60.6756 87.2885,60 L124,60 C126.209,60 128,61.7909 128,64 L128,82 C128,84.2091 126.209,86 124,86 L102.778,86 L100.778,84 L124,84 C125.105,84 126,83.1046 126,82 L126,64 C126,62.8954 125.105,62 124,62 L86.5812,62 Z" opacity=".2"/>
    <path fill="currentColor" d="M70.8736,45.2217 C74.0912,42.0042 72.8054,35.5016 68.0016,30.6979 C63.1979,25.8942 56.6954,24.6084 53.4778,27.826 C50.2602,31.0435 51.546,37.5461 56.3498,42.3498 C61.1535,47.1535 67.656,48.4393 70.8736,45.2217 Z" opacity=".25"/>
  </g>
</svg>
