<svg fill="none" viewBox="0 0 64 64" xmlns="http://www.w3.org/2000/svg"><path d="m23.8765 39.753c8.7684 0 15.8765-7.1081 15.8765-15.8765 0-8.7683-7.1081-15.8765-15.8765-15.8765-8.7683 0-15.8765 7.1082-15.8765 15.8765 0 8.7684 7.1082 15.8765 15.8765 15.8765z" stroke="currentColor" stroke-linecap="round" stroke-miterlimit="10" stroke-width="2"/><path d="m41.8288 35.8632-5.9874 5.9874 2.2453 2.2452 5.9873-5.9873z" fill="currentColor" fill-opacity=".2"/><path d="m34.7305 24.2695c2.079-2.0791 1.2482-6.2808-1.8558-9.3848s-7.3057-3.9348-9.3848-1.8558c-2.079 2.0791-1.2482 6.2808 1.8558 9.3848s7.3057 3.9348 9.3848 1.8558z" fill="currentColor" fill-opacity=".2"/><path d="m35.0959 35.0961c-.5292.5293-1.0584.9526-1.5877 1.376l3.8633 3.8633 3.0166-3.0166-3.8633-3.8632c-.4234.635-.8997 1.1642-1.4289 1.6405z" stroke="currentColor" stroke-linecap="round" stroke-miterlimit="10" stroke-width="2"/><path d="m41.0761 41.0761 3.0165-3.0165 11.2194 11.2194c.8468.8467.8468 2.1698 0 3.0165l-1.4818 1.4818z" fill="currentColor" fill-opacity=".2"/><g stroke="currentColor" stroke-linecap="round" stroke-miterlimit="10" stroke-width="2"><path d="m41.8288 35.8632-5.9874 5.9874 2.2453 2.2452 5.9873-5.9873z"/><path d="m55.312 52.3485-3.0165 3.0166c-.8467.8467-2.1698.8467-3.0165 0l-11.2194-11.2194 5.9801-5.9802 11.2194 11.2194c.8997.7939.8997 2.1169.0529 2.9636z"/></g></svg>
