<svg fill="none" viewBox="0 0 64 64" xmlns="http://www.w3.org/2000/svg"><circle cx="17.1832" cy="41.964" r="9.0636" stroke="currentColor" stroke-width="2"/><path d="m17.1833 51.0273c-6.9872 0-12.35934 3.7079-13.1833 7.0037h26.3668c-.824-3.2958-6.1962-7.0037-13.1835-7.0037z" fill="currentColor" fill-opacity=".2"/><path d="m29.3966 58.2736c.134.5358.6769.8615 1.2127.7276.5358-.134.8616-.6769.7276-1.2127zm-26.36674-.4851c-.13395.5358.19181 1.0787.7276 1.2127.5358.1339 1.07873-.1918 1.21268-.7276zm1.94028.4851c.31918-1.2767 1.60719-2.8425 3.81024-4.1143 2.16552-1.2501 5.08262-2.132 8.40292-2.132v-2c-3.6669 0-6.9295.9721-9.40282 2.3999-2.43581 1.4061-4.24584 3.3422-4.75062 5.3613zm12.21316-6.2463c3.3203 0 6.2375.8819 8.403 2.132 2.2031 1.2718 3.4911 2.8376 3.8103 4.1143l1.9403-.4851c-.5048-2.0191-2.3148-3.9552-4.7507-5.3613-2.4733-1.4278-5.7359-2.3999-9.4029-2.3999z" fill="currentColor"/><circle cx="47.212" cy="41.964" r="9.0636" stroke="currentColor" stroke-width="2"/><path d="m47.2122 51.0273c-6.9873 0-12.3594 3.7079-13.1834 7.0037h26.3668c-.824-3.2958-6.1962-7.0037-13.1834-7.0037z" fill="currentColor" fill-opacity=".2"/><path d="m59.4254 58.2736c.134.5358.6769.8615 1.2127.7276.5358-.134.8616-.6769.7276-1.2127zm-26.3667-.4851c-.134.5358.1918 1.0787.7276 1.2127.5358.1339 1.0787-.1918 1.2127-.7276zm1.9403.4851c.3191-1.2767 1.6071-2.8425 3.8102-4.1143 2.1655-1.2501 5.0827-2.132 8.403-2.132v-2c-3.667 0-6.9296.9721-9.4029 2.3999-2.4358 1.4061-4.2458 3.3422-4.7506 5.3613zm12.2132-6.2463c3.3203 0 6.2374.8819 8.403 2.132 2.203 1.2718 3.4911 2.8376 3.8102 4.1143l1.9403-.4851c-.5048-2.0191-2.3148-3.9552-4.7507-5.3613-2.4733-1.4278-5.7359-2.3999-9.4028-2.3999z" fill="currentColor"/><circle cx="31.0992" cy="14.0636" r="9.0636" stroke="currentColor" stroke-width="2"/><g fill="currentColor"><path d="m31.0991 23.1274c-6.9873 0-12.3594 3.7079-13.1833 7.0037h26.3667c-.8239-3.2958-6.1961-7.0037-13.1834-7.0037z" fill-opacity=".2"/><path d="m43.3124 30.3737c.1339.5358.6769.8615 1.2127.7276.5358-.134.8615-.6769.7276-1.2127zm-26.3668-.4851c-.1339.5358.1918 1.0787.7276 1.2127.5358.1339 1.0788-.1918 1.2127-.7276zm1.9403.4851c.3192-1.2767 1.6072-2.8425 3.8103-4.1143 2.1655-1.2501 5.0826-2.132 8.4029-2.132v-2c-3.667 0-6.9295.9721-9.4028 2.3999-2.4359 1.4061-4.2459 3.3422-4.7507 5.3613zm12.2132-6.2463c3.3203 0 6.2375.8819 8.403 2.132 2.2031 1.2718 3.4911 2.8376 3.8103 4.1143l1.9403-.4851c-.5048-2.0191-2.3149-3.9552-4.7507-5.3613-2.4733-1.4278-5.7359-2.3999-9.4029-2.3999z"/></g></svg>
