<svg
  xmlns="http://www.w3.org/2000/svg"
  width="128"
  height="128"
  viewBox="0 0 128 128"
>
  <g opacity=".2">
    <path
      fill="currentColor"
      d="M73.1848,48.618 C75.9575,45.8453 74.8494,40.2418 70.7099,36.1023 C66.5704,31.9628 60.9669,30.8548 58.1942,33.6275 C55.4215,36.4002 56.5296,42.0036 60.6691,46.1431 C64.8086,50.2827 70.4121,51.3907 73.1848,48.618 Z"
    />
    <path
      fill="currentColor"
      fillRule="nonzero"
      d="M123.5 84.2L99.6 84.2 89.8 74.4 87 77.2 79.1 69.3 79.4 69C81.6 66.2 83.2 63 84.2 59.6L84.3 59.2 123.5 59.2C126 59.2 128 61.2 128 63.7L128 79.7C128 82.2 126 84.2 123.5 84.2zM100 83.2L123.5 83.2C125.4 83.2 127 81.6 127 79.7L127 63.7C127 61.8 125.4 60.2 123.5 60.2L84.9 60.2C83.9 63.4 82.3 66.4 80.3 69.2L86.9 75.8 89.7 73 100 83.2zM82 82.1L74.1 74.2 73.8 74.5C71.8 76 69.6 77.3 67.3 78.3L66.9 78.4C57.7 82.1 47.5 81 39.3 75.4L39.1 75.3C37.6 74.3 36.2 73.1 35 71.9 27.7 64.6 24.7 53.9 27.3 43.8L27.5 43.2 4.5 43.2C2 43.2 0 45.2 0 47.7L0 79.7C0 82.2 2 84.2 4.5 84.2L19 84.2 19 95.7C19 98.2 21 100.2 23.5 100.2L63.5 100.2C66 100.2 68 98.2 68 95.7L68 84.2 79.9 84.2 82 82.1zM4.5 83.2C2.6 83.2 1 81.6 1 79.7L1 47.7C1 45.8 2.6 44.2 4.5 44.2L26.1 44.2C23.8 54.4 26.9 65.2 34.3 72.6 35.2 73.5 36.2 74.4 37.3 75.2L23.5 75.2C21 75.2 19 77.2 19 79.7L19 83.2 4.5 83.2zM67 95.7C67 97.6 65.4 99.2 63.5 99.2L23.5 99.2C21.6 99.2 20 97.6 20 95.7L20 84.2 20 79.7C20 77.8 21.6 76.2 23.5 76.2L38.6 76.2C47 81.9 57.5 83.1 67 79.4 67 79.5 67 79.6 67 79.7L67 84.2 67 95.7zM68 83.2L68 79.7C68 79.5 68 79.3 67.9 79.1 67.9 79.1 67.9 79.1 67.9 79 70 78.1 72.1 76.9 73.9 75.5L80.5 82.1 79.4 83.2 68 83.2z"
    />
    <path
      fill="currentColor"
      d="M60 62.4C60 58.9182 62.8296 56.2 66.2 56.2L79.7301 56.2 79.5869 56.8136C77.4423 66.005 69.9894 73.2529 60.596 75.0907L60 75.2073 60 62.4zM66.2 57.2C63.3704 57.2 61 59.4818 61 62.4L61 73.9845C69.5166 72.0846 76.2739 65.5234 78.4609 57.2L66.2 57.2zM44.8405 42.6986C43.9194 42.0613 42.7961 41.9229 42.0498 41.9975L42.0249 42 34.5 42 34.5 41 41.9758 41C42.8959 40.9135 44.2579 41.0794 45.4095 41.8763 46.6015 42.7012 47.5 44.1555 47.5 46.5L47.5 72.5 46.5 72.5 46.5 46.5C46.5 44.4445 45.7318 43.3155 44.8405 42.6986zM85.7357 55L108 55C110.209 55 112 53.2091 112 51L112 31C112 28.7909 110.209 27 108 27L84 27C81.7909 27 80 28.7909 80 31L80 32.9971C80.3465 33.4583 80.68 33.9298 81 34.411L81 31C81 29.3431 82.3431 28 84 28L108 28C109.657 28 111 29.3431 111 31L111 51C111 52.6569 109.657 54 108 54L85.8519 54C85.8186 54.335 85.7798 54.6683 85.7357 55z"
    />
  </g>

  <g fill="none" fillRule="evenodd">
    <path
      stroke="currentColor"
      strokeLinecap="round"
      strokeWidth="2"
      d="M55.8,81 C72.3686,81 85.8,67.5685 85.8,51 C85.8,34.4315 72.3686,21 55.8,21 C39.2315,21 25.8,34.4315 25.8,51 C25.8,67.5685 39.2315,81 55.8,81 Z"
    />
    <path
      stroke="currentColor"
      strokeLinecap="round"
      strokeWidth="2"
      d="M55.8,75 C69.0549,75 79.8,64.2548 79.8,51 C79.8,37.7452 69.0549,27 55.8,27 C42.5452,27 31.8,37.7452 31.8,51 C31.8,64.2548 42.5452,75 55.8,75 Z"
    />
    <polygon
      fill="currentColor"
      points="89.722 73.65 78.409 84.964 82.651 89.206 93.965 77.893"
      opacity=".25"
    />
    <path
      stroke="currentColor"
      strokeLinecap="round"
      strokeWidth="2"
      d="M77,72.2 C76,73.2 75,74 74,74.8 L81.3,82.1 L87,76.4 L79.7,69.1 C78.9,70.3 78,71.3 77,72.2 Z"
    />
    <path
      fill="currentColor"
      d="M88.3,83.5 L94,77.8 L115.2,99 C116.8,100.6 116.8,103.1 115.2,104.7 L112.4,107.5 L88.3,83.5 Z"
      opacity=".25"
    />
    <polygon
      stroke="currentColor"
      strokeLinecap="round"
      strokeWidth="2"
      points="89.722 73.65 78.409 84.964 82.651 89.206 93.965 77.893"
    />
    <path
      stroke="currentColor"
      strokeLinecap="round"
      strokeWidth="2"
      d="M115.2,104.8 L109.5,110.5 C107.9,112.1 105.4,112.1 103.8,110.5 L82.6001,89.3 L93.9001,78 L115.1,99.2 C116.8,100.7 116.8,103.2 115.2,104.8 Z"
    />
  </g>
</svg>
