<svg xmlns="http://www.w3.org/2000/svg" viewBox="0 0 128 128">
  <g fill="none" fill-rule="evenodd">
    <path fill="#FFF" d="M56.716,46.387 C48.6715,43.115 43,35.2198 43,26 C43,13.8497 52.8498,4 65,4 C77.1503,4 87,13.8497 87,26 C87,35.2085 81.3425,43.0956 73.3137,46.3749 L72.4798,44.5544 C79.8201,41.5925 85,34.4012 85,26 C85,14.9543 76.0457,6 65,6 C53.9543,6 45,14.9543 45,26 C45,34.4111 50.1922,41.6095 57.5464,44.5649 L56.716,46.387 Z M50.6343,59.7331 C48.333,58.6209 45.7817,58 43.0769,58 C43.0145,58 42.9522,58.0003 42.89,58.001 C42.9627,57.344 43,56.6764 43,56 C43,46.0589 34.9411,38 25,38 C15.0589,38 7,46.0589 7,56 C7,60.0599 8.3441,63.8059 10.61159,66.8172 C7.41124,68.923 4.95299,72.2095 3.68765,76.0553 C2.8068,78.7325 5.00189,81 7.39401,81 L40.943,81 L41.8544,79 L7.39401,79 C6.147,79 5.19772,77.8649 5.58746,76.6804 C7.5749,70.6399 12.7497,66.3333 18.8205,66.3333 C21.6492,66.3333 24.2833,67.2684 26.4912,68.8782 C27.045,69.282 27.572,69.7282 28.0685,70.2128 C28.3627,69.5807 28.6877,68.9695 29.0412,68.3816 C32.082,63.325 37.2336,60 43.0769,60 C45.4667,60 47.7407,60.5561 49.802,61.5594 L50.6343,59.7331 Z M34.7911,94.5 L6,94.5 C5.44771,94.5 5,94.9477 5,95.5 C5,96.0523 5.44771,96.5 6,96.5 L33.8797,96.5 L34.7911,94.5 Z M32.9683,98.5 L13,98.5 C12.4477,98.5 12,98.9477 12,99.5 C12,100.052 12.4477,100.5 13,100.5 L32.057,100.5 L32.9683,98.5 Z M98.1064,100.5 L97.1903,98.5 L116,98.5 C116.552,98.5 117,98.9477 117,99.5 C117,100.052 116.552,100.5 116,100.5 L98.1064,100.5 Z M89.7222,102.5 L92.1745,102.5 C92.8097,102.781 93.3489,103.283 93.6682,103.953 L93.9286,104.5 L84.1667,104.5 L89.7222,102.5 Z M37.5665,102.5 L39.8333,102.5 L45.5,104.5 L35.7727,104.5 L35.9185,104.144 C36.2359,103.368 36.8432,102.794 37.5665,102.5 Z M31.1456,102.5 L22,102.5 C21.4477,102.5 21,102.948 21,103.5 C21,104.052 21.4477,104.5 22,104.5 L30.2342,104.5 L31.1456,102.5 Z M34.1364,108.5 L56.8333,108.5 L51.1667,106.5 L34.9545,106.5 L34.1364,108.5 Z M78.6111,106.5 L73.0556,108.5 L95.8333,108.5 L94.8809,106.5 L78.6111,106.5 Z M99.9387,104.5 L107,104.5 C107.552,104.5 108,104.052 108,103.5 C108,102.948 107.552,102.5 107,102.5 L99.0226,102.5 L99.9387,104.5 Z M61.6202,110.5 L34,110.5 C33.4477,110.5 33,110.948 33,111.5 C33,112.052 33.4477,112.5 34,112.5 L62.4975,112.5 C62.4663,111.733 62.1436,111.023 61.6202,110.5 Z M67.5019,112.5 C67.5295,111.734 67.8473,111.025 68.3658,110.5 L95,110.5 C95.5523,110.5 96,110.948 96,111.5 C96,112.052 95.5523,112.5 95,112.5 L67.5019,112.5 Z M62.5,114.5 L42,114.5 C41.4477,114.5 41,114.948 41,115.5 C41,116.052 41.4477,116.5 42,116.5 L62.5,116.5 L62.5,114.5 Z M67.5,116.5 L67.5,114.5 L87,114.5 C87.5523,114.5 88,114.948 88,115.5 C88,116.052 87.5523,116.5 87,116.5 L67.5,116.5 Z M62.55,118.5 L49,118.5 C48.4477,118.5 48,118.948 48,119.5 C48,120.052 48.4477,120.5 49,120.5 L65,120.5 L81,120.5 C81.5523,120.5 82,120.052 82,119.5 C82,118.948 81.5523,118.5 81,118.5 L67.45,118.5 C67.2183,119.641 66.2095,120.5 65,120.5 C63.7905,120.5 62.7816,119.641 62.55,118.5 Z M96.2742,96.5 L95.3581,94.5 L124,94.5 C124.552,94.5 125,94.9477 125,95.5 C125,96.0523 124.552,96.5 124,96.5 L96.2742,96.5 Z M58.7922,41.8309 C52.4737,39.3513 48,33.1981 48,26 C48,16.6112 55.6112,9 65,9 C74.3889,9 82,16.6112 82,26 C82,33.1902 77.5361,39.3379 71.2285,41.8228 L70.394,40.0009 C76.0132,37.8347 80,32.3829 80,26 C80,17.7157 73.2843,11 65,11 C56.7157,11 50,17.7157 50,26 C50,32.3894 53.9949,37.8457 59.6231,40.0075 L58.7922,41.8309 Z M60.8704,37.2705 C56.2775,35.5871 53,31.1763 53,26 C53,19.3726 58.3726,14 65,14 C71.6274,14 77,19.3726 77,26 C77,31.1719 73.7281,35.5797 69.1413,37.2662 L68.3052,35.4409 C72.2039,34.0761 75,30.3646 75,26 C75,20.4772 70.5229,16 65,16 C59.4772,16 55,20.4772 55,26 C55,30.3676 57.8,34.0812 61.7029,35.4437 L60.8704,37.2705 Z M56,122.5 C55.4477,122.5 55,122.948 55,123.5 C55,124.052 55.4477,124.5 56,124.5 L74,124.5 C74.5523,124.5 75,124.052 75,123.5 C75,122.948 74.5523,122.5 74,122.5 L56,122.5 Z M9,56 C9,59.701 10.25658,63.1085 12.3664,65.8191 C14.3304,64.8669 16.5095,64.3333 18.8205,64.3333 C22.0208,64.3333 24.9861,65.3661 27.4695,67.1189 C30.4553,62.2986 35.2498,58.8663 40.8578,58.1422 C40.9516,57.4415 41,56.7264 41,56 C41,47.1634 33.8366,40 25,40 C16.1634,40 9,47.1634 9,56 Z M89,68 L117.627,68 C118.854,68 119.984,67.4411 120.702,66.528 C121.442,65.5872 121.732,64.2684 121.213,62.9751 C119.623,59.0128 116.078,56 111.708,56 C109.899,56 108.218,56.5237 106.762,57.4188 C104.589,54.1956 101.158,52 97.1539,52 C90.8706,52 86.0638,57.3351 85.1593,63.7255 C84.8071,66.2141 86.8805,68 89,68 Z M111.708,58 C110.282,58 108.939,58.4165 107.761,59.1522 C107.184,59.5122 106.647,59.9487 106.159,60.4502 C105.874,59.806 105.541,59.1963 105.166,58.6275 C103.308,55.8111 100.4098,54 97.1539,54 C92.1209,54 87.9432,58.3275 87.1396,64.0057 C86.9848,65.0994 87.8954,66 89,66 L117.627,66 C118.867,66 119.819,64.8706 119.357,63.7199 C118,60.3384 115.085,58 111.708,58 Z" opacity=".2"/>
    <path stroke="#FFF" stroke-linecap="round" stroke-width="2" d="M65 34L31 109M65 34L99 109M65 34L65 118M46 77L76 59M59 49L76 59M94 98L45 78M94 98L66 108M37 99L65 109M84 77L54 59M71 49L54 59M36 98L85 78"/>
    <path fill="#FFF" d="M65,28 C66.1046,28 67,27.1046 67,26 C67,24.8954 66.1046,24 65,24 C63.8954,24 63,24.8954 63,26 C63,27.1046 63.8954,28 65,28 Z"/>
    <path fill="#FFF" d="M68,32.3264 C70.3649,31.2029 72,28.7924 72,26 C72,22.134 68.866,19 65,19 C61.134,19 58,22.134 58,26 C58,28.7924 59.6351,31.2029 62,32.3264 L62,30.0004 C60.7856,29.0882 60,27.6358 60,26 C60,23.2386 62.2386,21 65,21 C67.7614,21 70,23.2386 70,26 C70,27.6358 69.2144,29.0882 68,30.0004 L68,32.3264 Z"/>
    <polygon fill="#FFF" points="65 108 65.5 35 93.5 97.5" opacity=".2"/>
    <rect width="2" height="9" x="64" y="26" fill="#FFF"/>
  </g>
</svg>
