<svg fill="none" viewBox="0 0 128 128" xmlns="http://www.w3.org/2000/svg"><path d="m64 108 .5-73 28 62.5z" fill="currentColor" fill-opacity=".2"/><path clip-rule="evenodd" d="m55.716 46.387c-8.0445-3.272-13.716-11.1672-13.716-20.387 0-12.1503 9.8497-22 22-22s22 9.8497 22 22c0 9.2085-5.6575 17.0956-13.6863 20.3749l-.834-1.8205c7.3403-2.9619 12.5203-10.1532 12.5203-18.5544 0-11.0457-8.9543-20-20-20s-20 8.9543-20 20c0 8.4111 5.1922 15.6095 12.5464 18.5649zm-6.0817 13.3461c-2.3014-1.1122-4.8526-1.7331-7.5574-1.7331-.0624 0-.1247.0003-.1869.001.0727-.657.11-1.3246.11-2.001 0-9.9411-8.0589-18-18-18s-18.00001 8.0589-18.00001 18c0 4.0599 1.3441 7.8059 3.61159 10.8172-3.20036 2.1058-5.65861 5.3923-6.92395 9.2381-.88084 2.6772 1.31425 4.9447 3.70636 4.9447h33.54901l.9114-2h-34.46041c-1.24701 0-2.19629-1.1351-1.80655-2.3196 1.98745-6.0405 7.16226-10.3471 13.23296-10.3471 2.8287 0 5.4629.9351 7.6708 2.5449.5538.4038 1.0808.85 1.5773 1.3346.2942-.6321.6192-1.2433.9726-1.8312 3.0409-5.0566 8.1925-8.3816 14.0358-8.3816 2.3897 0 4.6638.5561 6.7251 1.5594zm-15.8432 34.7669h-28.79112c-.55228 0-1 .4477-1 1s.44772 1 1 1h27.87972zm-1.8228 4h-19.9683c-.5523 0-1 .4477-1 1 0 .552.4477 1 1 1h19.0569zm65.1381 2-.9161-2h18.8097c.552 0 1 .4477 1 1 0 .552-.448 1-1 1zm-8.3842 2h2.4523c.6352.281 1.1743.783 1.4937 1.453l.2604.547h-9.762zm-52.1557 0h2.2668l5.6667 2h-9.7273l.1457-.356c.3175-.776.9248-1.35 1.6481-1.644zm-6.421 0h-9.1455c-.5523 0-1 .448-1 1s.4477 1 1 1h8.2342zm2.9908 6h22.697l-5.6666-2h-16.2122zm44.4748-2-5.5556 2h22.7778l-.9524-2zm21.3276-2h7.0613c.552 0 1-.448 1-1s-.448-1-1-1h-7.9774zm-38.3185 6h-27.6202c-.5523 0-1 .448-1 1s.4477 1 1 1h28.4975c-.0312-.767-.3539-1.477-.8773-2zm5.8817 2c.0275-.766.3454-1.475.8639-2h26.6342c.5523 0 1 .448 1 1s-.4477 1-1 1zm-5.0019 2h-20.5c-.5523 0-1 .448-1 1s.4477 1 1 1h20.5zm5 2v-2h19.5c.5523 0 1 .448 1 1s-.4477 1-1 1zm-4.95 2h-13.55c-.5523 0-1 .448-1 1s.4477 1 1 1h16 16c.5523 0 1-.448 1-1s-.4477-1-1-1h-13.55c-.2317 1.141-1.2405 2-2.45 2s-2.2184-.859-2.45-2zm33.7242-22-.9162-2h28.642c.552 0 1 .4477 1 1s-.448 1-1 1zm-37.482-54.6691c-6.3186-2.4796-10.7922-8.6328-10.7922-15.8309 0-9.3888 7.6112-17 17-17s17 7.6112 17 17c0 7.1902-4.4639 13.3379-10.7715 15.8228l-.8345-1.8219c5.6192-2.1662 9.606-7.618 9.606-14.0009 0-8.2843-6.7157-15-15-15s-15 6.7157-15 15c0 6.3894 3.9949 11.8457 9.6231 14.0075zm2.0782-4.5604c-4.593-1.6834-7.8704-6.0942-7.8704-11.2705 0-6.6274 5.3726-12 12-12s12 5.3726 12 12c0 5.1719-3.2719 9.5797-7.8587 11.2662l-.8361-1.8253c3.8986-1.3648 6.6948-5.0763 6.6948-9.4409 0-5.5228-4.4772-10-10-10-5.5229 0-10 4.4772-10 10 0 4.3676 2.8 8.0812 6.7029 9.4437zm-4.8704 85.2295c-.5523 0-1 .448-1 1s.4477 1 1 1h18c.5523 0 1-.448 1-1s-.4477-1-1-1zm-47.00001-66.5c0 3.701 1.25657 7.1085 3.36641 9.8191 1.964-.9522 4.1431-1.4858 6.454-1.4858 3.2004 0 6.1657 1.0328 8.6491 2.7856 2.9858-4.8203 7.7803-8.2526 13.3883-8.9767.0938-.7007.1422-1.4158.1422-2.1422 0-8.8366-7.1635-16-16-16-8.8366 0-16.00001 7.1634-16.00001 16zm80.00001 12h28.627c1.227 0 2.357-.5589 3.075-1.472.74-.9408 1.03-2.2596.511-3.5529-1.59-3.9623-5.135-6.9751-9.505-6.9751-1.809 0-3.49.5237-4.946 1.4188-2.173-3.2232-5.604-5.4188-9.6082-5.4188-6.2832 0-11.09 5.3351-11.9945 11.7255-.3522 2.4886 1.7212 4.2745 3.8407 4.2745zm22.708-10c-1.426 0-2.769.4165-3.947 1.1522-.577.36-1.114.7965-1.602 1.298-.285-.6442-.618-1.2539-.993-1.8227-1.858-2.8164-4.7562-4.6275-8.0122-4.6275-5.0329 0-9.2106 4.3275-10.0142 10.0057-.1548 1.0937.7558 1.9943 1.8604 1.9943h28.627c1.24 0 2.192-1.1294 1.73-2.2801-1.357-3.3815-4.272-5.7199-7.649-5.7199z" fill="currentColor" fill-opacity=".2" fill-rule="evenodd"/><g stroke="currentColor" stroke-linecap="round" stroke-width="2"><path d="m64 34-34 75"/><path d="m64 34 34 75"/><path d="m64 34v84"/><path d="m45 77 30-18"/><path d="m58 49 17 10"/><path d="m93 98-49-20"/><path d="m93 98-28 10"/><path d="m36 99 28 10"/><path d="m83 77-30-18"/><path d="m70 49-17 10"/><path d="m35 98 49-20"/></g><path clip-rule="evenodd" d="m64 28c1.1046 0 2-.8954 2-2s-.8954-2-2-2-2 .8954-2 2 .8954 2 2 2z" fill="currentColor" fill-rule="evenodd"/><path clip-rule="evenodd" d="m67 32.3264c2.3649-1.1235 4-3.534 4-6.3264 0-3.866-3.134-7-7-7s-7 3.134-7 7c0 2.7924 1.6351 5.2029 4 6.3264v-2.326c-1.2144-.9122-2-2.3646-2-4.0004 0-2.7614 2.2386-5 5-5s5 2.2386 5 5c0 1.6358-.7856 3.0882-2 4.0004z" fill="currentColor" fill-rule="evenodd"/><path d="m63 26h2v9h-2z" fill="currentColor"/></svg>
