<svg fill="none" viewBox="0 0 64 64" xmlns="http://www.w3.org/2000/svg"><path d="m32 57 .2808-41 15.726 35.1027z" fill="currentColor" fill-opacity=".2"/><g stroke="currentColor" stroke-width="2"><path d="m32 14-19 43" stroke-linecap="round"/><path d="m32 14 19 43" stroke-linecap="round"/><path d="m32 12v50" stroke-linecap="round"/><path d="m21 39 17-11" stroke-linecap="round"/><path d="m48 51-27-12" stroke-linecap="round"/><path d="m48 51-16 6" stroke-linecap="round"/><path d="m16 51 16 6" stroke-linecap="round"/><path d="m43 39-17-11" stroke-linecap="round"/><path d="m16 51 27-12" stroke-linecap="round"/></g><path clip-rule="evenodd" d="m26.0151 2.12183c-2.1446 1.74182-3.5151 4.39994-3.5151 7.37816 0 2.78381 1.1974 5.28801 3.1053 7.02561.0711.0647.1627.1437.2748.237.2057.1711.2402.4739.0783.6869l-.6058.797.0001.0001c-.1671.2198-.4808.2626-.7007.0955-.0053-.004-.0105-.0081-.0156-.0123-.1266-.1044-.23-.1926-.3102-.2645-2.3486-2.1055-3.8262-5.1629-3.8262-8.56531 0-3.63575 1.6872-6.87742 4.3213-8.984797.1174-.093861.2886-.074841.3824.042481.0014.001762.0028.003542.0042.005338l.8587 1.129858v-.00001c.1014.13344.0786.3233-.0515.42897z" fill="currentColor" fill-opacity=".2" fill-rule="evenodd"/><path clip-rule="evenodd" d="m43.5 9.49989c0 3.38111-1.4591 6.42141-3.782 8.52551-.0903.0818-.2085.183-.3546.3036-.2129.1758-.528.1457-.7038-.0672-.0043-.0051-.0085-.0104-.0126-.0158l-.6055-.7967c-.1619-.213-.1274-.5158.0783-.6869.1165-.0969.2114-.1789.2848-.246 1.9021-1.7372 3.0954-4.2375 3.0954-7.01651 0-2.78532-1.1987-5.29067-3.1083-7.02834-.0704-.06407-.161-.14213-.2717-.2342v.00002c-.2058-.17113-.2403-.47393-.0784-.687l.607-.798711.0001.000016c.167-.219843.4807-.262616.7006-.095535.0051.003899.0101.007897.0151.011991.054.044392.1007.083666.1404.117824 2.4464 2.108895 3.9952 5.230555 3.9952 8.713935z" fill="currentColor" fill-opacity=".2" fill-rule="evenodd"/><path clip-rule="evenodd" d="m28.3162 5.42015c-.076.06688-.139.12509-.189.17466-1.0049.99656-1.6272 2.37825-1.6272 3.9053 0 1.54269.6352 2.93709 1.6583 3.93589.0426.0416.095.0898.1574.1446h-.0001c.197.1732.2267.4692.068.678l-.6074.7992-.0001-.0001c-.1671.2198-.4807.2626-.7005.0955-.0079-.006-.0157-.0123-.0233-.0188-.0606-.052-.1124-.0981-.1555-.1381-1.4743-1.3696-2.3968-3.3251-2.3968-5.49619 0-2.20768.9539-4.19258 2.4719-5.56503.0234-.02115.0497-.04431.0789-.06951v.00003c.2091-.1804.5248-.15717.7052.05187.0068.00784.0133.01588.0195.02412l.6085.80064v.00002c.1587.20878.1291.50469-.0678.6779z" fill="currentColor" fill-opacity=".2" fill-rule="evenodd"/><path clip-rule="evenodd" d="m39.5 9.49978c0 2.21052-.9563 4.19762-2.4777 5.57022-.0218.0196-.0461.041-.0729.0642-.209.1805-.5247.1574-.7052-.0516-.0068-.0079-.0134-.016-.0197-.0243l-.6094-.8017.0001-.0001c-.1585-.2086-.1291-.5042.0674-.6775.0999-.0881.181-.1638.2432-.2272.9737-.9922 1.5742-2.352 1.5742-3.85202 0-1.48168-.5859-2.82651-1.5387-3.81546-.0701-.07281-.1634-.16063-.2797-.26346v-.00003c-.1962-.17336-.2254-.46871-.067-.67716l.6088-.80109.0001.00002c.167-.21985.4807-.26262.7006-.09554.0079.00604.0157.01231.0232.01881.0727.06241.134.11707.184.16398 1.4579 1.36824 2.3687 3.31273 2.3687 5.46993z" fill="currentColor" fill-opacity=".2" fill-rule="evenodd"/><path d="m34 9c0 1.1046-.8954 2-2 2s-2-.8954-2-2c0-1.10457.8954-2 2-2s2 .89543 2 2z" stroke="currentColor" stroke-width="2"/></svg>
