<svg fill="none" viewBox="0 0 128 128" xmlns="http://www.w3.org/2000/svg"><g fill="currentColor" fill-opacity=".2"><path clip-rule="evenodd" d="m30.3843 13.0903c9.6383-6.37708 21.1934-10.0903 33.6157-10.0903 33.6894 0 61 27.3106 61 61s-27.3106 61-61 61c-13.615 0-26.1882-4.46-36.3379-12 .8509-1.471 1.3379-3.178 1.3379-5 0-5.523-4.4772-10-10-10-1.7417 0-3.3794.4453-4.8054 1.2282-7.05069-9.9501-11.1946-22.1052-11.1946-35.2282 0-11.9367 3.42857-23.0726 9.3546-32.4766 1.8433.944 3.9322 1.4766 6.1454 1.4766 7.4558 0 13.5-6.0442 13.5-13.5 0-2.3197-.5851-4.5028-1.6157-6.4097zm-1.079-1.6845c9.9497-6.57679 21.8751-10.4058 34.6947-10.4058 34.7939 0 63 28.2061 63 63s-28.2061 63-63 63c-14.0516 0-27.0287-4.6-37.5075-12.377-1.8321 2.071-4.5098 3.377-7.4925 3.377-5.5228 0-10-4.477-10-10 0-3.063 1.3771-5.804 3.5461-7.639-7.27242-10.272-11.5461-22.8174-11.5461-36.361 0-12.3182 3.53531-23.8106 9.6466-33.5181-3.41885-2.4492-5.6466-6.4554-5.6466-10.9819 0-7.4558 6.0442-13.5 13.5-13.5 4.4193 0 8.3426 2.12348 10.8053 5.4058zm-17.5651 17.3987c-2.87281-2.0907-4.7402-5.4795-4.7402-9.3045 0-6.3513 5.1487-11.5 11.5-11.5 3.7337 0 7.0518 1.77931 9.1526 4.5363-6.2365 4.4127-11.6357 9.9305-15.9124 16.2682zm1.7159 1.0332c4.1129-6.0731 9.2915-11.3656 15.2674-15.6089.8158 1.5791 1.2765 3.3713 1.2765 5.2712 0 6.3513-5.1487 11.5-11.5 11.5-1.8093 0-3.521-.4178-5.0439-1.1623zm.275 72.1423c-1.674 1.466-2.7311 3.62-2.7311 6.02 0 4.418 3.5817 8 8 8 2.336 0 4.4381-1.001 5.9007-2.598-4.1877-3.319-7.9436-7.159-11.1696-11.422zm12.3278 9.788c.6006-1.123.9411-2.406.9411-3.768 0-4.418-3.5817-8-8-8-1.2986 0-2.5249.309-3.6092.858 3.0879 4.067 6.6743 7.733 10.6681 10.91zm68.9411-76.268c0-1.5324.6267-2.9184 1.6377-3.9157 2.5683 2.5858 4.8313 5.4751 6.7313 8.6093-.836.5115-1.818.8064-2.869.8064-3.0376 0-5.5-2.4624-5.5-5.5zm-2 0c0-2.0716.8399-3.9469 2.1977-5.3043-8.199-7.5705-19.1582-12.1957-31.1977-12.1957-25.4051 0-46 20.5949-46 46s20.5949 46 46 46c10.8271 0 20.7805-3.741 28.6385-10h3.1114c-8.4616 7.468-19.5765 12-31.7499 12-26.5097 0-48-21.4903-48-48s21.4903-48 48-48c12.6903 0 24.2303 4.9247 32.8133 12.9671 1.0887-.6157 2.3467-.9671 3.6867-.9671 4.142 0 7.5 3.3579 7.5 7.5 0 1.9957-.779 3.8093-2.051 5.1531 3.855 6.9106 6.051 14.8723 6.051 23.3469 0 12.7075-4.938 24.2617-13 32.8484v-2.9974c6.859-8.0343 11-18.4591 11-29.851 0-7.9987-2.042-15.5206-5.632-22.0731-1.129.6812-2.453 1.0731-3.868 1.0731-4.1421 0-7.5-3.3579-7.5-7.5zm11.879 3.3289c-1.873-3.0348-4.074-5.8453-6.5542-8.382.6671-.2876 1.4026-.4469 2.1752-.4469 3.038 0 5.5 2.4624 5.5 5.5 0 1.2512-.418 2.4047-1.121 3.3289z" fill-rule="evenodd"/><path d="m97 64.5v33.5h-33c-18.2117 0-33-14.9846-33-33.5s14.7883-33.5 33-33.5 33 14.9846 33 33.5zm-33 18.25c9.9548 0 18-8.1846 18-18.25s-8.0452-18.25-18-18.25-18 8.1846-18 18.25 8.0452 18.25 18 18.25z" stroke="currentColor" stroke-width="2"/></g></svg>
