<svg fill="none" viewBox="0 0 128 128" xmlns="http://www.w3.org/2000/svg"><path clip-rule="evenodd" d="m94.6931 61.0001c0 15.2125-12.3321 27.5446-27.5446 27.5446-.3547 0-.7079-.0067-1.0594-.02v.0198h-30.7228v-.0735c-.5229.0486-1.053.0735-1.5892.0735-9.0689 0-16.4207-7.1147-16.4207-15.891 0-8.7764 7.3518-15.891 16.4207-15.891 2.1191 0 4.1444.3884 6.0041 1.0958 1.5593-13.733 13.2173-24.4027 27.3673-24.4027 15.2125 0 27.5446 12.3321 27.5446 27.5445z" fill="currentColor" fill-opacity=".2" fill-rule="evenodd"/><path clip-rule="evenodd" d="m124 64c0 13.4531-4.428 25.8721-11.905 35.8792-1.914-1.1911-4.174-1.8792-6.595-1.8792-6.9036 0-12.5 5.596-12.5 12.5 0 1.917.4313 3.732 1.2022 5.356-8.8708 5.177-19.19 8.144-30.2022 8.144-15.3399 0-29.3352-5.757-39.9436-15.227.6021-1.124.9436-2.409.9436-3.773 0-4.418-3.5817-8-8-8-.9796 0-1.9181.1761-2.7855.4983-6.44958-9.5666-10.2145-21.0928-10.2145-33.4983 0-33.1371 26.8629-60 60-60 12.0105 0 23.1968 3.52896 32.5785 9.6066-.3726.8903-.5785 1.8678-.5785 2.8934 0 4.1421 3.3579 7.5 7.5 7.5 1.513 0 2.922-.4482 4.1-1.2191 10.166 10.7494 16.4 25.2562 16.4 41.2191zm-60 62c-15.7713 0-30.1672-5.889-41.109-15.587-1.4622 1.59-3.5602 2.587-5.891 2.587-4.4183 0-8-3.582-8-8 0-2.72 1.3575-5.123 3.4319-6.5684-6.58936-9.8492-10.4319-21.6917-10.4319-34.4316 0-34.2417 27.7583-62 62-62 12.3798 0 23.9122 3.62839 33.5917 9.8797 1.3728-1.7531 3.5093-2.8797 5.9083-2.8797 4.142 0 7.5 3.3579 7.5 7.5 0 1.9074-.712 3.6485-1.885 4.9719 10.469 11.1012 16.885 26.0653 16.885 42.5281 0 13.8984-4.573 26.7286-12.297 37.068 2.633 2.292 4.297 5.668 4.297 9.432 0 6.904-5.596 12.5-12.5 12.5-4.272 0-8.043-2.143-10.2976-5.412-9.165 5.348-19.8259 8.412-31.2024 8.412zm-41-21c0 .835-.1707 1.631-.479 2.353-2.6044-2.492-4.9846-5.217-7.1074-8.1411.5054-.1381 1.0373-.2119 1.5864-.2119 3.3137 0 6 2.686 6 6zm-1.5842 4.062c-2.8921-2.734-5.5211-5.743-7.8451-8.986-1.554 1.084-2.5707 2.885-2.5707 4.924 0 3.314 2.6863 6 6 6 1.7468 0 3.3192-.746 4.4158-1.938zm77.8446-96.0659c1.0086-1.2193 2.5336-1.9961 4.2396-1.9961 3.038 0 5.5 2.4624 5.5 5.5 0 1.3454-.483 2.578-1.285 3.5338-2.601-2.5861-5.43-4.9429-8.4546-7.0377zm-.9771 1.7567c2.8127 1.9614 5.4487 4.1576 7.8807 6.5601-.789.4378-1.697.6871-2.664.6871-3.038 0-5.5-2.4624-5.5-5.5 0-.6108.0995-1.1983.2833-1.7472zm7.2167 85.2472c1.959 0 3.794.537 5.363 1.471-4.192 5.236-9.243 9.754-14.9397 13.341-.5932-1.316-.9233-2.775-.9233-4.312 0-5.799 4.701-10.5 10.5-10.5zm6.978 2.654c-4.359 5.46-9.622 10.168-15.561 13.896 1.9011 2.692 5.037 4.45 8.583 4.45 5.799 0 10.5-4.701 10.5-10.5 0-3.12-1.361-5.923-3.522-7.846zm-13.6277-8.6285c-8.4356 9.7825-20.9198 15.9745-34.8503 15.9745-13.5076 0-25.6554-5.822-34.0708-15.0936-1.0629-.1025-2.1026-.2881-3.1133-.5504 8.8023 10.769 22.1904 17.644 37.1841 17.644 15.7666 0 29.7577-7.602 38.508-19.34-1.176.5459-2.398 1.0037-3.6577 1.3655zm-34.8503-76.0255c18.5418 0 34.5214 10.9704 41.802 26.7746 1.125.7393 2.192 1.5657 3.193 2.4701-6.798-18.2475-24.3788-31.2447-44.995-31.2447-24.7438 0-45.1148 18.7227-47.7188 42.7742.7201-.8428 1.5022-1.6269 2.3387-2.3444 3.6101-21.8032 22.5535-38.4298 45.3801-38.4298z" fill="currentColor" fill-opacity=".2" fill-rule="evenodd"/><path d="m64 56v51.5m0-51.5-13 13m13-13 13 13" stroke="currentColor" stroke-linecap="round" stroke-linejoin="round" stroke-width="2"/><path clip-rule="evenodd" d="m36.459 54.4043 1.8079.3379.4879-1.7734c3.4566-12.5655 14.8132-21.751 28.2517-21.751 9.596 0 18.1237 4.6783 23.4815 11.9335l.562.7611.945.0482c12.165.6206 21.886 10.8342 21.886 23.3958 0 12.9648-10.353 23.4257-23.0637 23.4257h-19.312v2h19.312c13.8427 0 25.0637-11.3835 25.0637-25.4257 0-13.6069-10.536-24.7174-23.7841-25.3932-5.7144-7.7381-14.826-12.7454-25.0904-12.7454-14.379 0-26.4955 9.8263-30.1801 23.2205-1.1855-.2216-2.4076-.3374-3.6563-.3374-11.074 0-20.0512 9.1068-20.0512 20.3406s8.9772 20.3406 20.0512 20.3406h23.5035v-2h-23.5035c-9.9425 0-18.0512-8.1842-18.0512-18.3406 0-10.1563 8.1087-18.3406 18.0512-18.3406 1.1248 0 2.2238.1043 3.2889.3034z" fill="currentColor" fill-rule="evenodd"/></svg>
