<svg fill="none" viewBox="0 0 64 64" xmlns="http://www.w3.org/2000/svg"><path clip-rule="evenodd" d="m43 33.5c0 6.3513-5.1487 11.5-11.5 11.5-.1675 0-.3342-.0036-.5-.0107v.0107h-15v-.0153c-.1653.0101-.332.0153-.5.0153-4.1421 0-7.5-3.134-7.5-7s3.3579-7 7.5-7c1.7104 0 3.287.5344 4.5488 1.434.5378-5.8515 5.4594-10.434 11.4512-10.434 6.3513 0 11.5 5.1487 11.5 11.5z" fill="currentColor" fill-opacity=".2" fill-rule="evenodd"/><path clip-rule="evenodd" d="m16.3214 29.3865 1.8075.3376.488-1.7729c1.7438-6.3351 7.4683-10.9512 14.2246-10.9512 4.8257 0 9.1186 2.3498 11.8202 6.006l.5621.7607.9446.0481c6.0084.3063 10.8316 5.3534 10.8316 11.5852 0 6.4325-5.1363 11.6-11.4146 11.6h-7.5854v2h7.5854c7.4087 0 13.4146-6.0889 13.4146-13.6 0-7.2782-5.6393-13.2211-12.7298-13.5826-3.0584-4.139-7.935-6.8174-13.4287-6.8174-7.6959 0-14.1808 5.256-16.1529 12.4205-.6345-.1186-1.2886-.1805-1.9569-.1805-5.92695 0-10.7317 4.8711-10.7317 10.88s4.80475 10.88 10.7317 10.88h13.2683v-2h-13.2683c-4.79659 0-8.7317-3.9497-8.7317-8.88s3.93511-8.88 8.7317-8.88c.5445 0 1.0756.0504 1.5897.1465z" fill="currentColor" fill-rule="evenodd"/><path d="m33 31v27.5m0-27.5-6 6m6-6 6 6" stroke="currentColor" stroke-linecap="round" stroke-linejoin="round" stroke-width="2"/></svg>
