<svg fill="none" viewBox="0 0 128 128" xmlns="http://www.w3.org/2000/svg" xmlns:xlink="http://www.w3.org/1999/xlink"><clipPath id="a"><path d="m0 0h128v128h-128z"/></clipPath><g clip-path="url(#a)" fill="currentColor" fill-opacity=".2"><path d="m64 97c18.2254 0 33-14.7746 33-33s-14.7746-33-33-33-33 14.7746-33 33 14.7746 33 33 33zm-8-24.4256v-16.5329c0-2.3281 2.5365-3.769 4.5362-2.5769l14.0936 8.402c1.968 1.1732 1.9476 4.0304-.037 5.1754l-14.0936 8.1309c-2 1.1539-4.4992-.2896-4.4992-2.5985z" stroke="currentColor" stroke-width="2"/><path d="m97.5414 13.0037.4127-.6262-.9067-.5975-.2378 1.0595zm17.4106 17.3882.165.7316 1.06-.2392-.599-.9059zm-17.1516-18.3768-.7184-.2156-.1613.5376.4703.3064zm18.1406 18.1165-.628.4103.307.4699.537-.1621zm.526.8194-.229-.7142-.922.2957.517.8188zm-19.4866-19.4611-.3995.6348.8195.5158.2945-.9225zm-83.0549 89.0761.4234.619.639-.437-.4571-.625zm12.3931 12.673.4563-.595-.6145-.471-.4512.629zm89.1764-82.0113.632-.4033-.29-.4551-.524.1307zm-18.7901-18.7655.728.1806.1299-.5239-.4554-.2896zm-81.9483 87.5988-.6047.444.385.525.5738-.308zm12.0853 12.359-.653-.369-.3202.567.5162.396zm-.496-.386-.4631.59.6945.545.4257-.773zm-11.2152-11.468-.3468-.6654-.7829.4084.5295.706zm-.836.5.6009-.449-.4293-.575-.5932.403zm11.5328 11.793.6107.435.4164-.584-.565-.442zm31.1899-94.8392-.1051-.7426-.7383.1045.1002.7389zm10.5891-.2763.7475.062.0617-.7435-.7432-.0656zm-11.6043-.6147.119.7405.6144-.0988.0163-.6221zm12.5723-.3284-.7478.0583.0485.6211.6194.0664zm-11.5966.1821-.7488-.0436-.0531.9124.9053-.126zm10.6147-.2768-.0643.7472.9099.0782-.1002-.9077zm.9782 1.1331.0815-.7456-.7636-.0836-.0652.7655zm-12.5113.3269.7429-.1025-.1051-.7615-.7586.1238zm40.3789-1.9626c0 8.4477 6.8486 15.296 15.2956 15.296v-1.5c-7.619 0-13.7956-6.1767-13.7956-13.796zm.3712-3.3636c-.243 1.083-.3712 2.2088-.3712 3.3636h1.5c0-1.0436.1158-2.0592.3348-3.0351zm.3191.7905c6.8293 4.5006 12.6883 10.3528 17.1983 17.1754l1.251-.827c-4.621-6.9918-10.626-12.9887-17.6239-17.6009zm14.6053 17.8691c1.162 0 2.294-.1297 3.383-.3756l-.33-1.4632c-.981.2216-2.003.3388-3.053.3388zm-14.343-18.8556c7.144 4.6548 13.258 10.7603 17.922 17.8984l1.255-.8205c-4.777-7.3122-11.039-13.5663-18.3582-18.3347zm14.343-11.736304c-6.918 0-12.761 4.591884-14.652 10.892304l1.4367.4312c1.7063-5.68361 6.9783-9.8235 13.2153-9.8235zm15.296 15.295904c0-8.44768-6.848-15.295903-15.296-15.295904v1.500004c7.62 0 13.796 6.17665 13.796 13.7959zm-10.873 14.6466c6.291-1.8971 10.873-7.7357 10.873-14.6466h-1.5c0 6.2311-4.131 11.4991-9.806 13.2105zm.539.8155c6.538-2.0965 11.273-8.2254 11.273-15.4621h-1.5c0 6.5659-4.295 12.1305-10.231 14.0337zm11.273-15.4621c0-8.96597-7.269-16.2343503-16.235-16.2343507v1.5000007c8.138 0 14.735 6.5968 14.735 14.73435zm-16.235-16.2343507c-7.244-.0000003-13.3778 4.7441807-15.4681 11.2931507l1.429.4561c1.8976-5.94525 7.4671-10.24925 14.0391-10.24925zm-47.734 2.7812407c11.9748 0 23.1448 3.43565 32.5809 9.37471l.799-1.2695c-9.6683-6.08523-21.1142-9.60521-33.3799-9.60521zm-61.25 61.25001c0-33.8275 27.4226-61.25001 61.25-61.25001v-1.5c-34.6559 0-62.75 28.09411-62.75 62.75001zm11.7808 36.123c-7.40784-10.1271-11.7808-22.6133-11.7808-36.123h-1.5c0 13.8387 4.48064 26.6332 12.0701 37.009zm-1.0287-.1761c-2.5658 1.7551-4.2521 4.7071-4.2521 8.0531h1.5c0-2.83 1.4244-5.328 3.5989-6.815zm-4.2521 8.0531c0 5.385 4.3652 9.75 9.75 9.75v-1.5c-4.5563 0-8.25-3.694-8.25-8.25zm9.75 9.75c3.2679 0 6.1602-1.608 7.9281-4.074l-1.2189-.874c-1.4983 2.089-3.9451 3.448-6.7092 3.448zm45 7.5c-14.0038 0-26.9081-4.699-37.2251-12.606l-.9125 1.191c10.5697 8.1 23.7925 12.915 38.1376 12.915zm61.25-61.25c0 33.8274-27.4226 61.25-61.25 61.25v1.5c34.6559 0 62.75-28.0941 62.75-62.75zm-9.417-32.6487c5.965 9.4503 9.417 20.6452 9.417 32.6487h1.5c0-12.2951-3.537-23.7664-9.649-33.4493zm-4.099 1.0862c1.359 0 2.68-.1671 3.942-.4821l-.363-1.4554c-1.145.2857-2.343.4375-3.579.4375zm-16.234-16.2344c0 8.966 7.268 16.2344 16.234 16.2344v-1.5c-8.137 0-14.734-6.5968-14.734-14.7344zm.477-3.9215c-.3118 1.2566-.477 2.5703-.477 3.9215h1.5c0-1.2285.1502-2.421.4329-3.5603zm-31.977-8.56286c11.8858 0 22.966 3.43914 32.3025 9.37636l.8049-1.2658c-9.57-6.08562-20.9282-9.61056-33.1074-9.61056zm-60.28125 60.28126c0-33.2924 26.98885-60.28126 60.28125-60.28126v-1.5c-34.1208 0-61.78125 27.66036-61.78125 61.78126zm11.64265 35.6175c-7.31992-9.9787-11.64265-22.2922-11.64265-35.6175h-1.5c0 13.655 4.43089 26.2774 11.93315 36.505zm3.6386-1.3675c-1.661 0-3.227.416-4.5975 1.15l.7082 1.322c1.158-.62 2.4814-.972 3.8893-.972zm9.75 9.75c0-5.385-4.3652-9.75-9.75-9.75v1.5c4.5564 0 8.25 3.694 8.25 8.25zm-1.2551 4.788c.7993-1.415 1.2551-3.049 1.2551-4.788h-1.5c0 1.474-.3857 2.855-1.0611 4.051zm36.5051 11.493c-13.8116 0-26.5365-4.644-36.7011-12.456l-.914 1.189c10.4175 8.007 23.4614 12.767 37.6151 12.767zm60.281-60.281c0 33.2924-26.9886 60.281-60.281 60.281v1.5c34.1208 0 61.781-27.6602 61.781-61.781zm-9.418-32.369c5.963 9.3504 9.418 20.455 9.418 32.369h1.5c0-12.2082-3.541-23.5914-9.654-33.1756zm-87.86 80.765c.7181-1.305 1.1263-2.804 1.1263-4.396h-1.5c0 1.333-.3412 2.584-.9404 3.673zm1.1263-4.396c0-5.042-4.0873-9.1293-9.1293-9.1293v1.5003c4.2136 0 7.6293 3.415 7.6293 7.629zm-9.1293-9.1293c-1.5194 0-2.9541.3718-4.2161 1.0299l.6936 1.3304c1.0529-.55 2.2503-.86 3.5225-.86zm7.809 12.5733c-4.1697-3.273-7.8973-7.084-11.0782-11.328l-1.2003.899c3.2596 4.35 7.0794 8.255 11.3523 11.609zm-12.9359-10.999c-2.4141 1.642-4.00241 4.413-4.00241 7.555h1.50001c0-2.625 1.3248-4.94 3.3457-6.314zm-4.00241 7.555c0 5.042 4.08731 9.129 9.12931 9.129v-1.5c-4.2135 0-7.6293-3.415-7.6293-7.629zm9.12931 9.129c3.0691 0 5.7843-1.515 7.4382-3.835l-1.2214-.87c-1.3845 1.941-3.6531 3.205-6.2168 3.205zm7.2896-4.861c-4.2944-3.36-8.1292-7.28-11.394-11.651l-1.2018.897c3.3444 4.478 7.2725 8.494 11.6715 11.936zm36.0073-90.393c-2.3172 0-4.2333-1.7221-4.5363-3.956l-1.4864.2016c.4025 2.9675 2.9449 5.2544 6.0227 5.2544zm4.5622-4.1935c-.1948 2.348-2.1634 4.1935-4.5622 4.1935v1.5c3.1856 0 5.7982-2.4503 6.0571-5.5695zm-3.3435.6324c1.3567 0 2.6992.0597 4.025.1767l.1319-1.4942c-1.3697-.1208-2.7562-.1825-4.1569-.1825zm-6.3931.4485c2.0882-.2956 4.2226-.4485 6.3931-.4485v-1.5c-2.2411 0-4.4457.1579-6.6033.4633zm-.3706-1.614c.0785-2.9946 2.5312-5.3984 5.545-5.3984v-1.5c-3.8291 0-6.9447 3.0538-7.0444 6.8591zm5.545-5.3984c2.9159 0 5.3069 2.2505 5.5298 5.1087l1.4955-.1166c-.2833-3.6329-3.3201-6.4921-7.0253-6.4921zm6.1977 5.7962c23.1927 2.4828 41.2554 22.1172 41.2554 45.9694h1.5c0-24.627-18.649-44.8974-42.5957-47.4609zm41.2554 45.9694c0 25.5346-20.6998 46.2344-46.2344 46.2344v1.5c26.363 0 47.7344-21.3714 47.7344-47.7344zm-46.2344 46.2344c-25.5345 0-46.2344-20.6998-46.2344-46.2344h-1.5c0 26.363 21.3714 47.7344 47.7344 47.7344zm-46.2344-46.2344c0-23.0173 16.8205-42.1074 38.84-45.6463l-.238-1.481c-22.7351 3.6539-40.102 23.3618-40.102 47.1273zm40.4454-46.4896c.1398-2.402 2.1328-4.3073 4.5703-4.3073v-1.5c-3.2367 0-5.8821 2.5296-6.0678 5.7202zm4.5703-4.3073c2.3562 0 4.2976 1.7807 4.5502 4.0693l1.4909-.1646c-.3356-3.0403-2.9117-5.4047-6.0411-5.4047zm1.2187 4.5625c1.3521 0 2.6905.0581 4.0127.1717l.1285-1.4945c-1.365-.1173-2.7462-.1772-4.1412-.1772zm-6.4343.4441c2.1024-.2927 4.2505-.4441 6.4343-.4441v-1.5c-2.2532 0-4.4704.1562-6.6411.4584zm11.4079.859c22.6238 2.4756 40.2278 21.6481 40.2278 44.9313h1.5c0-24.0568-18.1885-43.8644-41.5647-46.4224zm40.2278 44.9313c0 24.9643-20.2371 45.2014-45.2014 45.2014v1.5c25.7927 0 46.7014-20.9087 46.7014-46.7014zm-45.2014 45.2014c-24.9642 0-45.2017-20.2371-45.2017-45.2014h-1.5c0 25.7927 20.9091 46.7014 46.7017 46.7014zm-45.2017-45.2014c0-22.4662 16.3908-41.1056 37.8663-44.6097l-.2415-1.4804c-22.1895 3.6206-39.1248 22.8769-39.1248 46.0901zm43.983-40.6719c-2.8032 0-5.1218-2.08-5.4945-4.7805l-1.4859.2051c.4737 3.4324 3.4178 6.0754 6.9804 6.0754zm5.5266-5.0686c-.242 2.8392-2.6244 5.0686-5.5266 5.0686v1.5c3.688 0 6.7136-2.8325 7.0211-6.4412z"/></g></svg>
