<svg xmlns="http://www.w3.org/2000/svg" viewBox="0 0 128 128">
  <g fill="none" fill-rule="evenodd">
    <path fill="currentColor" fill-opacity=".2" fill-rule="nonzero" stroke="currentColor" stroke-width="2" d="M64,98 C82.2254,98 97,83.2254 97,65 C97,46.7746 82.2254,32 64,32 C45.7746,32 31,46.7746 31,65 C31,83.2254 45.7746,98 64,98 Z M56,73.5744 L56,57.0415 C56,54.7134 58.5365,53.2725 60.5362,54.4646 L74.6298,62.8666 C76.5978,64.0398 76.5774,66.897 74.5928,68.042 L60.4992,76.1729 C58.4992,77.3268 56,75.8833 56,73.5744 Z"/>
    <path fill="currentColor" fill-rule="nonzero" d="M97.5414,14.0038 L97.9541,13.3775 L97.0474,12.78 L96.8096,13.8395 L97.5414,14.0038 Z M114.952,31.3919 L115.117,32.1235 L116.177,31.8843 L115.578,30.9784 L114.952,31.3919 Z M97.8004,13.0151 L97.082,12.7995 L96.9207,13.3371 L97.391,13.6435 L97.8004,13.0151 Z M115.941,31.1317 L115.313,31.5419 L115.62,32.0118 L116.157,31.8497 L115.941,31.1317 Z M116.467,31.951 L116.238,31.2368 L115.316,31.5325 L115.833,32.3513 L116.467,31.951 Z M96.9804,12.49 L96.5809,13.1247 L97.4004,13.6405 L97.6949,12.718 L96.9804,12.49 Z M13.9255,101.566 L14.3489,102.185 L14.9879,101.748 L14.5308,101.123 L13.9255,101.566 Z M26.3186,114.239 L26.7749,113.644 L26.1604,113.173 L25.7092,113.802 L26.3186,114.239 Z M115.495,32.2277 L116.127,31.8244 L115.837,31.3694 L115.313,31.5 L115.495,32.2277 Z M96.7049,13.4622 L97.4329,13.6428 L97.5628,13.1189 L97.1074,12.8293 L96.7049,13.4622 Z M14.7566,101.061 L14.1519,101.505 L14.5369,102.03 L15.1107,101.722 L14.7566,101.061 Z M26.8419,113.42 L26.1889,113.051 L25.8687,113.618 L26.3849,114.014 L26.8419,113.42 Z M26.3459,113.034 L25.8828,113.624 L26.5773,114.169 L27.003,113.396 L26.3459,113.034 Z M15.1307,101.566 L14.7839,100.9006 L14.001,101.309 L14.5305,102.015 L15.1307,101.566 Z M14.2947,102.066 L14.8956,101.617 L14.4663,101.042 L13.8731,101.445 L14.2947,102.066 Z M25.8275,113.859 L26.4382,114.294 L26.8546,113.71 L26.2896,113.268 L25.8275,113.859 Z M57.0174,19.0198 L56.9123,18.2772 L56.174,18.3817 L56.2742,19.1206 L57.0174,19.0198 Z M67.6065,18.7435 L68.354,18.8055 L68.4157,18.062 L67.6725,17.9964 L67.6065,18.7435 Z M56.0022,18.1288 L56.1212,18.8693 L56.7356,18.7705 L56.7519,18.1484 L56.0022,18.1288 Z M68.5745,17.8004 L67.8267,17.8587 L67.8752,18.4798 L68.4946,18.5462 L68.5745,17.8004 Z M56.9779,17.9825 L56.2291,17.9389 L56.176,18.8513 L57.0813,18.7253 L56.9779,17.9825 Z M67.5926,17.7057 L67.5283,18.4529 L68.4382,18.5311 L68.338,17.6234 L67.5926,17.7057 Z M68.5708,18.8388 L68.6523,18.0932 L67.8887,18.0097 L67.8235,18.7751 L68.5708,18.8388 Z M56.0595,19.1657 L56.8024,19.0632 L56.6973,18.3017 L55.9387,18.4255 L56.0595,19.1657 Z M96.4384,17.2031 C96.4384,25.6508 103.287,32.4991 111.734,32.4991 L111.734,30.9991 C104.115,30.9991 97.9384,24.8224 97.9384,17.2031 L96.4384,17.2031 Z M96.8096,13.8395 C96.5666,14.9225 96.4384,16.0483 96.4384,17.2031 L97.9384,17.2031 C97.9384,16.1596 98.0542,15.1439 98.2732,14.168 L96.8096,13.8395 Z M97.1287,14.63 C103.958,19.1306 109.817,24.9828 114.327,31.8054 L115.578,30.9784 C110.957,23.9866 104.952,17.9897 97.9541,13.3775 L97.1287,14.63 Z M111.734,32.4991 C112.896,32.4991 114.028,32.3694 115.117,32.1235 L114.787,30.6603 C113.806,30.8819 112.784,30.9991 111.734,30.9991 L111.734,32.4991 Z M97.391,13.6435 C104.535,18.2984 110.649,24.4038 115.313,31.5419 L116.568,30.7214 C111.791,23.4092 105.529,17.1551 98.2098,12.3867 L97.391,13.6435 Z M111.734,1.907204 C104.816,1.907204 98.973,6.49909 97.082,12.7995 L98.5187,13.2307 C100.225,7.5471 105.497,3.4072 111.734,3.4072 L111.734,1.907204 Z M127.03,17.2031 C127.03,8.75543 120.182,1.907204 111.734,1.907204 L111.734,3.4072 C119.354,3.4072 125.53,9.58385 125.53,17.2031 L127.03,17.2031 Z M116.157,31.8497 C122.448,29.9526 127.03,24.114 127.03,17.2031 L125.53,17.2031 C125.53,23.4342 121.399,28.7022 115.724,30.4136 L116.157,31.8497 Z M116.696,32.6652 C123.234,30.5687 127.969,24.4398 127.969,17.2031 L126.469,17.2031 C126.469,23.769 122.174,29.3336 116.238,31.2368 L116.696,32.6652 Z M127.969,17.2031 C127.969,8.23714 120.7,0.9687573 111.734,0.968757 L111.734,2.46876 C119.872,2.46876 126.469,9.06556 126.469,17.2031 L127.969,17.2031 Z M111.734,0.968757 C104.49,0.9687566 98.3562,5.71294 96.2659,12.2619 L97.6949,12.718 C99.5925,6.77276 105.162,2.46876 111.734,2.46876 L111.734,0.968757 Z M64,3.75 C75.9748,3.75 87.1448,7.18565 96.5809,13.1247 L97.3799,11.8552 C87.7116,5.76998 76.2657,2.25 64,2.25 L64,3.75 Z M2.75,65 C2.75,31.1726 30.1726,3.75 64,3.75 L64,2.25 C29.3441,2.25 1.25,30.3441 1.25,65 L2.75,65 Z M14.5308,101.123 C7.12296,90.9959 2.75,78.5097 2.75,65 L1.25,65 C1.25,78.8387 5.73064,91.6332 13.3201,102.009 L14.5308,101.123 Z M13.5021,100.9469 C10.9363,102.702 9.25,105.654 9.25,109 L10.75,109 C10.75,106.17 12.1744,103.672 14.3489,102.185 L13.5021,100.9469 Z M9.25,109 C9.25,114.385 13.6152,118.75 19,118.75 L19,117.25 C14.4437,117.25 10.75,113.556 10.75,109 L9.25,109 Z M19,118.75 C22.2679,118.75 25.1602,117.142 26.9281,114.676 L25.7092,113.802 C24.2109,115.891 21.7641,117.25 19,117.25 L19,118.75 Z M64,126.25 C49.9962,126.25 37.0919,121.551 26.7749,113.644 L25.8624,114.835 C36.4321,122.935 49.6549,127.75 64,127.75 L64,126.25 Z M125.25,65 C125.25,98.8274 97.8274,126.25 64,126.25 L64,127.75 C98.6559,127.75 126.75,99.6559 126.75,65 L125.25,65 Z M115.833,32.3513 C121.798,41.8017 125.25,52.9965 125.25,65 L126.75,65 C126.75,52.7049 123.213,41.2336 117.101,31.5507 L115.833,32.3513 Z M111.734,33.4375 C113.093,33.4375 114.414,33.2705 115.676,32.9554 L115.313,31.5 C114.168,31.7857 112.97,31.9375 111.734,31.9375 L111.734,33.4375 Z M95.5,17.2031 C95.5,26.1691 102.768,33.4375 111.734,33.4375 L111.734,31.9375 C103.597,31.9375 97,25.3407 97,17.2031 L95.5,17.2031 Z M95.977,13.2816 C95.6652,14.5382 95.5,15.8519 95.5,17.2031 L97,17.2031 C97,15.9746 97.1502,14.7822 97.4329,13.6428 L95.977,13.2816 Z M64,4.71875 C75.8858,4.71875 86.966,8.15789 96.3025,14.0951 L97.1074,12.8293 C87.5374,6.74369 76.1792,3.21875 64,3.21875 L64,4.71875 Z M3.71875,65 C3.71875,31.7076 30.7076,4.71875 64,4.71875 L64,3.21875 C29.8792,3.21875 2.21875,30.8792 2.21875,65 L3.71875,65 Z M15.3614,100.6175 C8.04148,90.6388 3.71875,78.3253 3.71875,65 L2.21875,65 C2.21875,78.655 6.64964,91.2774 14.1519,101.505 L15.3614,100.6175 Z M19,99.25 C17.339,99.25 15.773,99.666 14.4025,100.4 L15.1107,101.722 C16.2687,101.102 17.5921,100.75 19,100.75 L19,99.25 Z M28.75,109 C28.75,103.615 24.3848,99.25 19,99.25 L19,100.75 C23.5564,100.75 27.25,104.444 27.25,109 L28.75,109 Z M27.4949,113.788 C28.2942,112.373 28.75,110.739 28.75,109 L27.25,109 C27.25,110.474 26.8643,111.855 26.1889,113.051 L27.4949,113.788 Z M64,125.281 C50.1884,125.281 37.4635,120.637 27.2989,112.825 L26.3849,114.014 C36.8024,122.021 49.8463,126.781 64,126.781 L64,125.281 Z M124.281,65 C124.281,98.2924 97.2924,125.281 64,125.281 L64,126.781 C98.1208,126.781 125.781,99.1208 125.781,65 L124.281,65 Z M114.863,32.631 C120.826,41.9814 124.281,53.086 124.281,65 L125.781,65 C125.781,52.7918 122.24,41.4086 116.127,31.8244 L114.863,32.631 Z M27.003,113.396 C27.7211,112.091 28.1293,110.592 28.1293,109 L26.6293,109 C26.6293,110.333 26.2881,111.584 25.6889,112.673 L27.003,113.396 Z M28.1293,109 C28.1293,103.958 24.042,99.8707 19,99.8707 L19,101.371 C23.2136,101.371 26.6293,104.786 26.6293,109 L28.1293,109 Z M19,99.8707 C17.4806,99.8707 16.0459,100.2425 14.7839,100.9006 L15.4775,102.231 C16.5304,101.681 17.7278,101.371 19,101.371 L19,99.8707 Z M26.809,112.444 C22.6393,109.171 18.9117,105.36 15.7308,101.116 L14.5305,102.015 C17.7901,106.365 21.6099,110.27 25.8828,113.624 L26.809,112.444 Z M13.8731,101.445 C11.459,103.087 9.87069,105.858 9.87069,109 L11.3707,109 C11.3707,106.375 12.6955,104.06 14.7164,102.686 L13.8731,101.445 Z M9.87069,109 C9.87069,114.042 13.958,118.129 19,118.129 L19,116.629 C14.7865,116.629 11.3707,113.214 11.3707,109 L9.87069,109 Z M19,118.129 C22.0691,118.129 24.7843,116.614 26.4382,114.294 L25.2168,113.424 C23.8323,115.365 21.5637,116.629 19,116.629 L19,118.129 Z M26.2896,113.268 C21.9952,109.908 18.1604,105.988 14.8956,101.617 L13.6938,102.514 C17.0382,106.992 20.9663,111.008 25.3653,114.45 L26.2896,113.268 Z M62.2969,22.875 C59.9797,22.875 58.0636,21.1529 57.7606,18.919 L56.2742,19.1206 C56.6767,22.0881 59.2191,24.375 62.2969,24.375 L62.2969,22.875 Z M66.8591,18.6815 C66.6643,21.0295 64.6957,22.875 62.2969,22.875 L62.2969,24.375 C65.4825,24.375 68.0951,21.9248 68.354,18.8055 L66.8591,18.6815 Z M63.5156,19.3139 C64.8723,19.3139 66.2148,19.3736 67.5406,19.4906 L67.6725,17.9964 C66.3028,17.8756 64.9163,17.8139 63.5156,17.8139 L63.5156,19.3139 Z M57.1225,19.7624 C59.2107,19.4668 61.3451,19.3139 63.5156,19.3139 L63.5156,17.8139 C61.2745,17.8139 59.0699,17.9718 56.9123,18.2772 L57.1225,19.7624 Z M56.7519,18.1484 C56.8304,15.1538 59.2831,12.75 62.2969,12.75 L62.2969,11.25 C58.4678,11.25 55.3522,14.3038 55.2525,18.1091 L56.7519,18.1484 Z M62.2969,12.75 C65.2128,12.75 67.6038,15.0005 67.8267,17.8587 L69.3222,17.7421 C69.0389,14.1092 66.0021,11.25 62.2969,11.25 L62.2969,12.75 Z M68.4946,18.5462 C91.6873,21.029 109.75,40.6634 109.75,64.5156 L111.25,64.5156 C111.25,39.8886 92.601,19.6182 68.6543,17.0547 L68.4946,18.5462 Z M109.75,64.5156 C109.75,90.0502 89.0502,110.75 63.5156,110.75 L63.5156,112.25 C89.8786,112.25 111.25,90.8786 111.25,64.5156 L109.75,64.5156 Z M63.5156,110.75 C37.9811,110.75 17.2812,90.0502 17.2812,64.5156 L15.7812,64.5156 C15.7812,90.8786 37.1526,112.25 63.5156,112.25 L63.5156,110.75 Z M17.2812,64.5156 C17.2812,41.4983 34.1017,22.4082 56.1212,18.8693 L55.8832,17.3883 C33.1481,21.0422 15.7812,40.7501 15.7812,64.5156 L17.2812,64.5156 Z M57.7266,18.026 C57.8664,15.624 59.8594,13.7187 62.2969,13.7188 L62.2969,12.2188 C59.0602,12.2187 56.4148,14.7483 56.2291,17.9389 L57.7266,18.026 Z M62.2969,13.7188 C64.6531,13.7188 66.5945,15.4994 66.8471,17.788 L68.338,17.6234 C68.0024,14.5831 65.4263,12.2188 62.2969,12.2188 L62.2969,13.7188 Z M63.5156,18.2813 C64.8677,18.2813 66.2061,18.3393 67.5283,18.4529 L67.6568,16.9584 C66.2918,16.8411 64.9106,16.7813 63.5156,16.7813 L63.5156,18.2813 Z M57.0813,18.7253 C59.1837,18.4326 61.3318,18.2813 63.5156,18.2813 L63.5156,16.7813 C61.2624,16.7813 59.0452,16.9374 56.8745,17.2396 L57.0813,18.7253 Z M68.4892,19.5843 C91.113,22.0599 108.717,41.2324 108.717,64.5156 L110.217,64.5156 C110.217,40.4588 92.0285,20.6512 68.6523,18.0932 L68.4892,19.5843 Z M108.717,64.5156 C108.717,89.4799 88.4799,109.717 63.5156,109.717 L63.5156,111.217 C89.3083,111.217 110.217,90.3083 110.217,64.5156 L108.717,64.5156 Z M63.5156,109.717 C38.5514,109.717 18.3139,89.4799 18.3139,64.5156 L16.8139,64.5156 C16.8139,90.3083 37.723,111.217 63.5156,111.217 L63.5156,109.717 Z M18.3139,64.5156 C18.3139,42.0494 34.7047,23.41 56.1802,19.9059 L55.9387,18.4255 C33.7492,22.0461 16.8139,41.3024 16.8139,64.5156 L18.3139,64.5156 Z M62.2969,23.8438 C59.4937,23.8438 57.1751,21.7637 56.8024,19.0632 L55.3165,19.2683 C55.7902,22.7007 58.7343,25.3438 62.2969,25.3438 L62.2969,23.8438 Z M67.8235,18.7751 C67.5815,21.6143 65.1991,23.8438 62.2969,23.8438 L62.2969,25.3438 C65.9849,25.3438 69.0105,22.5112 69.318,18.9025 L67.8235,18.7751 Z" opacity=".2"/>
  </g>
</svg>
