<svg fill="none" height="64" viewBox="0 0 64 64" width="64" xmlns="http://www.w3.org/2000/svg"><path clip-rule="evenodd" d="m32 55c12.7025 0 23-10.2975 23-23s-10.2975-23-23-23-23 10.2975-23 23 10.2975 23 23 23zm-6-30.5026v15.0621c0 1.5344 1.6564 2.4973 2.9897 1.738l13.0082-7.4076c1.336-.7608 1.3497-2.6819.0246-3.4617l-13.0082-7.6545c-1.3333-.7845-3.0143.1768-3.0143 1.7237z" fill="currentColor" fill-opacity=".2" fill-rule="evenodd"/><g stroke="currentColor" stroke-width="2"><circle cx="32" cy="32" r="22"/><path d="m26 39.5595v-15.0621c0-1.5469 1.681-2.5082 3.0143-1.7237l13.0082 7.6545c1.3251.7798 1.3114 2.7009-.0246 3.4617l-13.0082 7.4076c-1.3333.7593-2.9897-.2036-2.9897-1.738z"/></g></svg>
