<svg xmlns="http://www.w3.org/2000/svg" xmlns:xlink="http://www.w3.org/1999/xlink" width="128" height="128" viewBox="0 0 128 128">
  <defs>
    <path id="video-a" d="M31.4812,117.97 C40.9741,123.702 52.1019,127 64,127 C98.7939,127 127,98.7939 127,64 C127,52.86 124.109,42.3953 119.035,33.3154 C116.611,37.8154 112.157,41.0607 106.9,41.8267 C110.164,48.3493 112,55.7102 112,63.5 C112,67.7129 111.463,71.8003 110.453,75.6975 C114.857,77.3096 118,81.5378 118,86.5 C118,92.8513 112.851,98 106.5,98 C103.956,98 101.606,97.1742 99.7015,95.7762 C98.9006,96.6738 98.0669,97.5415 97.2021,98.3772 C97.7107,99.304 98,100.368 98,101.5 C98,105.09 95.0898,108 91.5,108 C89.6702,108 88.0171,107.244 86.8359,106.027 C79.9125,109.834 71.9592,112 63.5,112 C51.9768,112 41.3921,107.981 33.0712,101.269 C34.2981,103.397 35,105.867 35,108.5 C35,112.119 33.674,115.429 31.4812,117.97 Z M30.6173,117.438 C32.7224,115.057 34,111.928 34,108.5 C34,101.044 27.9559,95 20.5,95 C16.9622,95 13.7423,96.3608 11.3351,98.5876 C16.3268,106.173 22.9133,112.615 30.6173,117.438 Z M10.6125,99.3082 C15.6318,106.882 22.2197,113.326 29.9131,118.177 C27.4813,120.543 24.1608,122 20.5,122 C13.0442,122 6.99999,115.956 7,108.5 C7,104.949 8.37098,101.718 10.6125,99.3082 Z M10.0513,98.4464 C7.54252,101.053 6,104.596 6,108.5 C5.99999,116.508 12.4919,123 20.5,123 C24.5216,123 28.1608,121.363 30.7874,118.719 C40.4698,124.608 51.8388,128 64,128 C99.3462,128 128,99.3462 128,64 C128,52.4373 124.934,41.5908 119.57,32.2293 C120.489,30.1742 121,27.8968 121,25.5 C121,16.3873 113.613,9.00001 104.5,9.00001 C102.398,9.00001 100.387,9.39319 98.538,10.11 C88.5746,3.71124 76.7207,5.38791e-06 64,4.83187e-06 C28.6538,3.28683e-06 -1.2525e-06,28.6538 -2.79753e-06,64 C-3.35186e-06,76.6817 3.68853,88.502 10.0513,98.4464 Z M10.7845,97.7361 C4.5885,87.9829 0.999997,76.4105 0.999997,64 C0.999999,29.2061 29.2061,1 64,1 C76.2794,1.00001 87.7382,4.51307 97.4262,10.589 C92.9087,12.7359 89.5215,16.8753 88.4003,21.8714 C81.1216,17.5083 72.6037,15 63.5,15 C53.2177,15 43.6827,18.1998 35.8364,23.6579 C34.6861,22.627 33.1663,22 31.5,22 C27.9101,22 25,24.9101 25,28.5 C25,29.9584 25.4803,31.3047 26.2914,32.3892 C19.243,40.8101 15,51.6596 15,63.5 C15,75.816 19.5906,87.0597 27.1541,95.6135 C25.1612,94.5824 22.8986,94 20.5,94 C16.7627,94 13.3556,95.4139 10.7845,97.7361 Z M27.0062,33.1964 C20.1744,41.4147 16.0659,51.9776 16.0659,63.5 C16.0659,89.6971 37.3029,110.934 63.5,110.934 C71.7018,110.934 79.4174,108.852 86.1473,105.189 C85.4237,104.141 85,102.87 85,101.5 C85,97.9101 87.9101,95 91.5,95 C93.5692,95 95.4125,95.9668 96.6029,97.4734 C97.3858,96.7104 98.1424,95.9207 98.8712,95.1055 C96.4965,92.9988 95,89.9242 95,86.5 C95,80.1487 100.149,75 106.5,75 C107.514,75 108.498,75.1313 109.435,75.3778 C110.413,71.5818 110.934,67.6017 110.934,63.5 C110.934,55.7413 109.071,48.4177 105.769,41.952 C105.35,41.9838 104.927,42 104.5,42 C95.3873,42 88,34.6127 88,25.5 C88,24.6467 88.0648,23.8085 88.1897,22.99 C80.9975,18.5972 72.5444,16.0659 63.5,16.0659 C53.5017,16.0659 44.2259,19.1594 36.5774,24.4413 C37.4676,25.5535 38,26.9646 38,28.5 C38,32.0898 35.0898,35 31.5,35 C29.7566,35 28.1735,34.3136 27.0062,33.1964 Z M35.7588,25.0195 C36.5346,25.9676 37,27.1794 37,28.5 C37,31.5376 34.5376,34 31.5,34 C30.0034,34 28.6465,33.4023 27.6549,32.4325 C30.0589,29.6613 32.7789,27.1716 35.7588,25.0195 Z M34.9973,24.2549 C32.0502,26.399 29.3539,28.867 26.9607,31.6065 C26.3546,30.7226 26,29.6527 26,28.5 C26,25.4624 28.4624,23 31.5,23 C32.8284,23 34.0467,23.4709 34.9973,24.2549 Z M89.1187,23.5723 C89.0404,24.2039 89,24.8472 89,25.5 C89,34.0604 95.9396,41 104.5,41 C104.754,41 105.007,40.9939 105.259,40.9818 C101.433,33.903 95.8608,27.9071 89.1187,23.5723 Z M106.415,40.8829 C111.719,40.2295 116.194,36.8959 118.443,32.2786 C113.495,23.8049 106.625,16.5904 98.4318,11.2329 C93.7977,13.2064 90.3214,17.3717 89.3046,22.427 C96.503,26.959 102.426,33.331 106.415,40.8829 Z M99.5835,10.796 C107.44,16.061 114.066,23.0201 118.938,31.1506 C119.624,29.3998 120,27.4939 120,25.5 C120,16.9396 113.06,10 104.5,10 C102.782,10 101.128,10.2797 99.5835,10.796 Z M109.175,76.3437 C108.321,76.1194 107.424,76 106.5,76 C100.701,76 96,80.701 96,86.5 C96,89.6242 97.3645,92.4297 99.53,94.3531 C103.953,89.1925 107.287,83.0705 109.175,76.3437 Z M100.362,95.0201 C102.088,96.2659 104.208,97 106.5,97 C112.299,97 117,92.299 117,86.5 C117,82 114.169,78.1612 110.191,76.6672 C108.263,83.52 104.866,89.758 100.362,95.0201 Z M95.8757,98.1673 C94.8708,96.85 93.2847,96 91.5,96 C88.4624,96 86,98.4624 86,101.5 C86,102.693 86.3799,103.797 87.0252,104.699 C90.2283,102.866 93.1971,100.67 95.8757,98.1673 Z M87.7422,105.516 C88.7254,106.436 90.0469,107 91.5,107 C94.5376,107 97,104.538 97,101.5 C97,100.636 96.801,99.8195 96.4464,99.0923 C93.8015,101.542 90.8831,103.7 87.7422,105.516 Z M19,35.5 C19,36.3284 19.6716,37 20.5,37 C21.3284,37 22,36.3284 22,35.5 C22,34.6716 21.3284,34 20.5,34 C19.6716,34 19,34.6716 19,35.5 Z M18,35.5 C18,36.8807 19.1193,38 20.5,38 C21.8807,38 23,36.8807 23,35.5 C23,34.1193 21.8807,33 20.5,33 C19.1193,33 18,34.1193 18,35.5 Z"/>
  </defs>
  <g fill="none" fill-rule="evenodd">
    <path fill="#FFF" fill-opacity=".2" d="M64,98 C45.2223,98 30,82.7777 30,64 C30,45.2223 45.2223,30 64,30 C82.7777,30 98,45.2223 98,64 C98,82.7777 82.7777,98 64,98 Z M55,49 L55,79.5 L81,64.5 L55,49 Z"/>
    <g opacity=".2">
      <path fill="#FFF" d="M31.4812,117.97 C40.9741,123.702 52.1019,127 64,127 C98.7939,127 127,98.7939 127,64 C127,52.86 124.109,42.3953 119.035,33.3154 C116.611,37.8154 112.157,41.0607 106.9,41.8267 C110.164,48.3493 112,55.7102 112,63.5 C112,67.7129 111.463,71.8003 110.453,75.6975 C114.857,77.3096 118,81.5378 118,86.5 C118,92.8513 112.851,98 106.5,98 C103.956,98 101.606,97.1742 99.7015,95.7762 C98.9006,96.6738 98.0669,97.5415 97.2021,98.3772 C97.7107,99.304 98,100.368 98,101.5 C98,105.09 95.0898,108 91.5,108 C89.6702,108 88.0171,107.244 86.8359,106.027 C79.9125,109.834 71.9592,112 63.5,112 C51.9768,112 41.3921,107.981 33.0712,101.269 C34.2981,103.397 35,105.867 35,108.5 C35,112.119 33.674,115.429 31.4812,117.97 Z M30.6173,117.438 C32.7224,115.057 34,111.928 34,108.5 C34,101.044 27.9559,95 20.5,95 C16.9622,95 13.7423,96.3608 11.3351,98.5876 C16.3268,106.173 22.9133,112.615 30.6173,117.438 Z M10.6125,99.3082 C15.6318,106.882 22.2197,113.326 29.9131,118.177 C27.4813,120.543 24.1608,122 20.5,122 C13.0442,122 6.99999,115.956 7,108.5 C7,104.949 8.37098,101.718 10.6125,99.3082 Z M10.0513,98.4464 C7.54252,101.053 6,104.596 6,108.5 C5.99999,116.508 12.4919,123 20.5,123 C24.5216,123 28.1608,121.363 30.7874,118.719 C40.4698,124.608 51.8388,128 64,128 C99.3462,128 128,99.3462 128,64 C128,52.4373 124.934,41.5908 119.57,32.2293 C120.489,30.1742 121,27.8968 121,25.5 C121,16.3873 113.613,9.00001 104.5,9.00001 C102.398,9.00001 100.387,9.39319 98.538,10.11 C88.5746,3.71124 76.7207,5.38791e-06 64,4.83187e-06 C28.6538,3.28683e-06 -1.2525e-06,28.6538 -2.79753e-06,64 C-3.35186e-06,76.6817 3.68853,88.502 10.0513,98.4464 Z M10.7845,97.7361 C4.5885,87.9829 0.999997,76.4105 0.999997,64 C0.999999,29.2061 29.2061,1 64,1 C76.2794,1.00001 87.7382,4.51307 97.4262,10.589 C92.9087,12.7359 89.5215,16.8753 88.4003,21.8714 C81.1216,17.5083 72.6037,15 63.5,15 C53.2177,15 43.6827,18.1998 35.8364,23.6579 C34.6861,22.627 33.1663,22 31.5,22 C27.9101,22 25,24.9101 25,28.5 C25,29.9584 25.4803,31.3047 26.2914,32.3892 C19.243,40.8101 15,51.6596 15,63.5 C15,75.816 19.5906,87.0597 27.1541,95.6135 C25.1612,94.5824 22.8986,94 20.5,94 C16.7627,94 13.3556,95.4139 10.7845,97.7361 Z M27.0062,33.1964 C20.1744,41.4147 16.0659,51.9776 16.0659,63.5 C16.0659,89.6971 37.3029,110.934 63.5,110.934 C71.7018,110.934 79.4174,108.852 86.1473,105.189 C85.4237,104.141 85,102.87 85,101.5 C85,97.9101 87.9101,95 91.5,95 C93.5692,95 95.4125,95.9668 96.6029,97.4734 C97.3858,96.7104 98.1424,95.9207 98.8712,95.1055 C96.4965,92.9988 95,89.9242 95,86.5 C95,80.1487 100.149,75 106.5,75 C107.514,75 108.498,75.1313 109.435,75.3778 C110.413,71.5818 110.934,67.6017 110.934,63.5 C110.934,55.7413 109.071,48.4177 105.769,41.952 C105.35,41.9838 104.927,42 104.5,42 C95.3873,42 88,34.6127 88,25.5 C88,24.6467 88.0648,23.8085 88.1897,22.99 C80.9975,18.5972 72.5444,16.0659 63.5,16.0659 C53.5017,16.0659 44.2259,19.1594 36.5774,24.4413 C37.4676,25.5535 38,26.9646 38,28.5 C38,32.0898 35.0898,35 31.5,35 C29.7566,35 28.1735,34.3136 27.0062,33.1964 Z M35.7588,25.0195 C36.5346,25.9676 37,27.1794 37,28.5 C37,31.5376 34.5376,34 31.5,34 C30.0034,34 28.6465,33.4023 27.6549,32.4325 C30.0589,29.6613 32.7789,27.1716 35.7588,25.0195 Z M34.9973,24.2549 C32.0502,26.399 29.3539,28.867 26.9607,31.6065 C26.3546,30.7226 26,29.6527 26,28.5 C26,25.4624 28.4624,23 31.5,23 C32.8284,23 34.0467,23.4709 34.9973,24.2549 Z M89.1187,23.5723 C89.0404,24.2039 89,24.8472 89,25.5 C89,34.0604 95.9396,41 104.5,41 C104.754,41 105.007,40.9939 105.259,40.9818 C101.433,33.903 95.8608,27.9071 89.1187,23.5723 Z M106.415,40.8829 C111.719,40.2295 116.194,36.8959 118.443,32.2786 C113.495,23.8049 106.625,16.5904 98.4318,11.2329 C93.7977,13.2064 90.3214,17.3717 89.3046,22.427 C96.503,26.959 102.426,33.331 106.415,40.8829 Z M99.5835,10.796 C107.44,16.061 114.066,23.0201 118.938,31.1506 C119.624,29.3998 120,27.4939 120,25.5 C120,16.9396 113.06,10 104.5,10 C102.782,10 101.128,10.2797 99.5835,10.796 Z M109.175,76.3437 C108.321,76.1194 107.424,76 106.5,76 C100.701,76 96,80.701 96,86.5 C96,89.6242 97.3645,92.4297 99.53,94.3531 C103.953,89.1925 107.287,83.0705 109.175,76.3437 Z M100.362,95.0201 C102.088,96.2659 104.208,97 106.5,97 C112.299,97 117,92.299 117,86.5 C117,82 114.169,78.1612 110.191,76.6672 C108.263,83.52 104.866,89.758 100.362,95.0201 Z M95.8757,98.1673 C94.8708,96.85 93.2847,96 91.5,96 C88.4624,96 86,98.4624 86,101.5 C86,102.693 86.3799,103.797 87.0252,104.699 C90.2283,102.866 93.1971,100.67 95.8757,98.1673 Z M87.7422,105.516 C88.7254,106.436 90.0469,107 91.5,107 C94.5376,107 97,104.538 97,101.5 C97,100.636 96.801,99.8195 96.4464,99.0923 C93.8015,101.542 90.8831,103.7 87.7422,105.516 Z M19,35.5 C19,36.3284 19.6716,37 20.5,37 C21.3284,37 22,36.3284 22,35.5 C22,34.6716 21.3284,34 20.5,34 C19.6716,34 19,34.6716 19,35.5 Z M18,35.5 C18,36.8807 19.1193,38 20.5,38 C21.8807,38 23,36.8807 23,35.5 C23,34.1193 21.8807,33 20.5,33 C19.1193,33 18,34.1193 18,35.5 Z"/>
      <mask id="video-b" fill="#fff">
        <use xlink:href="#video-a"/>
      </mask>
      <path fill="#FFF" fill-rule="nonzero" d="M31.4812,117.97 L30.7241,117.316 L29.95,118.213 L30.9643,118.826 L31.4812,117.97 Z M119.035,33.3154 L119.908,32.8276 L119.019,31.2367 L118.155,32.841 L119.035,33.3154 Z M106.9,41.8267 L106.756,40.8372 L105.386,41.0367 L106.006,42.2742 L106.9,41.8267 Z M110.453,75.6975 L109.485,75.4468 L109.258,76.3248 L110.11,76.6366 L110.453,75.6975 Z M99.7015,95.7762 L100.293,94.9701 L99.5605,94.4321 L98.9553,95.1104 L99.7015,95.7762 Z M97.2021,98.3772 L96.5072,97.6582 L95.9581,98.1889 L96.3255,98.8584 L97.2021,98.3772 Z M86.8359,106.027 L87.5534,105.331 L87.0222,104.784 L86.354,105.151 L86.8359,106.027 Z M33.0712,101.269 L33.699,100.491 L32.2048,101.768 L33.0712,101.269 Z M30.6173,117.438 L30.0867,118.286 L30.8051,118.736 L31.3665,118.101 L30.6173,117.438 Z M11.3351,98.5876 L10.656,97.8535 L10.0337,98.4291 L10.4998,99.1373 L11.3351,98.5876 Z M29.9131,118.177 L30.6104,118.894 L31.5205,118.008 L30.4464,117.331 L29.9131,118.177 Z M10.6125,99.3082 L11.4461,98.7558 L10.7448,97.6976 L9.88026,98.6272 L10.6125,99.3082 Z M10.0513,98.4464 L10.7718,99.1398 L11.3186,98.5717 L10.8936,97.9074 L10.0513,98.4464 Z M30.7874,118.719 L31.3071,117.864 L30.6336,117.455 L30.078,118.014 L30.7874,118.719 Z M119.57,32.2293 L118.657,31.821 L118.449,32.2852 L118.702,32.7264 L119.57,32.2293 Z M98.538,10.11 L97.9976,10.9514 L98.4254,11.2262 L98.8995,11.0424 L98.538,10.11 Z M10.7845,97.7361 L9.94043,98.2723 L10.5756,99.2722 L11.4548,98.4782 L10.7845,97.7361 Z M97.4262,10.589 L97.8555,11.4921 L99.5013,10.71 L97.9576,9.74178 L97.4262,10.589 Z M88.4003,21.8714 L87.8861,22.7291 L89.073,23.4406 L89.376,22.0904 L88.4003,21.8714 Z M35.8364,23.6579 L35.169,24.4026 L35.7581,24.9305 L36.4075,24.4788 L35.8364,23.6579 Z M26.2914,32.3892 L27.0582,33.031 L27.5663,32.4241 L27.0922,31.7903 L26.2914,32.3892 Z M27.1541,95.6135 L26.6945,96.5017 L27.9032,94.9511 L27.1541,95.6135 Z M27.0062,33.1964 L27.6977,32.4739 L26.9228,31.7324 L26.2372,32.5571 L27.0062,33.1964 Z M86.1473,105.189 L86.6254,106.067 L87.6019,105.535 L86.9702,104.621 L86.1473,105.189 Z M96.6029,97.4734 L95.8183,98.0934 L96.5062,98.9639 L97.3008,98.1895 L96.6029,97.4734 Z M98.8712,95.1055 L99.6167,95.7721 L100.286,95.0237 L99.5349,94.3575 L98.8712,95.1055 Z M109.435,75.3778 L109.18,76.3449 L110.152,76.6007 L110.403,75.6275 L109.435,75.3778 Z M105.769,41.952 L106.659,41.4971 L106.356,40.9044 L105.693,40.9548 L105.769,41.952 Z M88.1897,22.99 L89.1782,23.1409 L89.2786,22.4833 L88.7109,22.1366 L88.1897,22.99 Z M36.5774,24.4413 L36.0092,23.6185 L35.1261,24.2283 L35.7967,25.0662 L36.5774,24.4413 Z M35.7588,25.0195 L36.5328,24.3862 L35.9366,23.6576 L35.1734,24.2088 L35.7588,25.0195 Z M27.6549,32.4325 L26.8995,31.7773 L26.2822,32.4889 L26.9557,33.1475 L27.6549,32.4325 Z M26.9607,31.6065 L26.1359,32.172 L26.8653,33.2357 L27.7138,32.2644 L26.9607,31.6065 Z M34.9973,24.2549 L35.5856,25.0635 L36.629,24.3045 L35.6336,23.4835 L34.9973,24.2549 Z M89.1187,23.5723 L89.6595,22.7311 L88.3221,21.8712 L88.1263,23.4492 L89.1187,23.5723 Z M105.259,40.9818 L105.307,41.9806 L106.894,41.9041 L106.138,40.5064 L105.259,40.9818 Z M106.415,40.8829 L105.53,41.3499 L105.852,41.9597 L106.537,41.8754 L106.415,40.8829 Z M118.443,32.2786 L119.342,32.7165 L119.576,32.236 L119.307,31.7744 L118.443,32.2786 Z M98.4318,11.2329 L98.979,10.3959 L98.5317,10.1034 L98.0399,10.3129 L98.4318,11.2329 Z M89.3046,22.427 L88.3242,22.2298 L88.1883,22.9059 L88.7718,23.2733 L89.3046,22.427 Z M99.5835,10.796 L99.2665,9.84754 L97.3352,10.493 L99.0268,11.6267 L99.5835,10.796 Z M118.938,31.1506 L118.08,31.6646 L119.126,33.4109 L119.869,31.5153 L118.938,31.1506 Z M109.175,76.3437 L110.138,76.6139 L110.412,75.6348 L109.429,75.3765 L109.175,76.3437 Z M99.53,94.3531 L98.8659,95.1008 L99.6269,95.7767 L100.289,95.0039 L99.53,94.3531 Z M100.362,95.0201 L99.6024,94.3699 L98.896,95.1953 L99.777,95.831 L100.362,95.0201 Z M110.191,76.6672 L110.543,75.731 L109.524,75.3482 L109.229,76.3963 L110.191,76.6672 Z M95.8757,98.1673 L96.5584,98.898 L97.2196,98.2803 L96.6708,97.5608 L95.8757,98.1673 Z M87.0252,104.699 L86.2122,105.281 L86.738,106.015 L87.5219,105.567 L87.0252,104.699 Z M87.7422,105.516 L87.2416,104.65 L86.0748,105.325 L87.0588,106.246 L87.7422,105.516 Z M96.4464,99.0923 L97.3452,98.6539 L96.7549,97.4436 L95.7669,98.3586 L96.4464,99.0923 Z M64,126 C52.2891,126 41.3394,122.754 31.9981,117.113 L30.9643,118.826 C40.6088,124.649 51.9146,128 64,128 L64,126 Z M126,64 C126,98.2417 98.2416,126 64,126 L64,128 C99.3462,128 128,99.3462 128,64 L126,64 Z M118.162,33.8032 C123.154,42.7378 126,53.0351 126,64 L128,64 C128,52.6848 125.063,42.0527 119.908,32.8276 L118.162,33.8032 Z M107.044,42.8163 C112.623,42.0033 117.345,38.5604 119.916,33.7897 L118.155,32.841 C115.876,37.0703 111.691,40.118 106.756,40.8372 L107.044,42.8163 Z M106.006,42.2742 C109.201,48.661 111,55.869 111,63.5 L113,63.5 C113,55.5514 111.126,48.0377 107.794,41.3793 L106.006,42.2742 Z M111,63.5 C111,67.6276 110.474,71.6308 109.485,75.4468 L111.421,75.9483 C112.452,71.9699 113,67.7982 113,63.5 L111,63.5 Z M110.11,76.6366 C114.132,78.109 117,81.9708 117,86.5 L119,86.5 C119,81.1047 115.582,76.5102 110.797,74.7585 L110.11,76.6366 Z M117,86.5 C117,92.299 112.299,97 106.5,97 L106.5,99 C113.404,99 119,93.4036 119,86.5 L117,86.5 Z M106.5,97 C104.176,97 102.032,96.2464 100.293,94.9701 L99.1097,96.5823 C101.18,98.102 103.736,99 106.5,99 L106.5,97 Z M98.9553,95.1104 C98.1708,95.9897 97.3542,96.8395 96.5072,97.6582 L97.8971,99.0963 C98.7795,98.2434 99.6304,97.3579 100.448,96.4419 L98.9553,95.1104 Z M96.3255,98.8584 C96.7552,99.6414 97,100.541 97,101.5 L99,101.5 C99,100.196 98.6663,98.9666 98.0788,97.8961 L96.3255,98.8584 Z M97,101.5 C97,104.538 94.5376,107 91.5,107 L91.5,109 C95.6421,109 99,105.642 99,101.5 L97,101.5 Z M91.5,107 C89.9516,107 88.554,106.361 87.5534,105.331 L86.1184,106.724 C87.4801,108.126 89.3889,109 91.5,109 L91.5,107 Z M86.354,105.151 C79.5745,108.879 71.7865,111 63.5,111 L63.5,113 C72.1319,113 80.2505,110.79 87.3177,106.903 L86.354,105.151 Z M63.5,111 C52.2134,111 41.8486,107.065 33.699,100.491 L32.4433,102.047 C40.9356,108.898 51.7401,113 63.5,113 L63.5,111 Z M32.2048,101.768 C33.3465,103.749 34,106.047 34,108.5 L36,108.5 C36,105.687 35.2497,103.046 33.9375,100.77 L32.2048,101.768 Z M34,108.5 C34,111.87 32.7661,114.95 30.7241,117.316 L32.2382,118.623 C34.5818,115.908 36,112.368 36,108.5 L34,108.5 Z M33,108.5 C33,111.675 31.8178,114.571 29.8682,116.776 L31.3665,118.101 C33.627,115.544 35,112.181 35,108.5 L33,108.5 Z M20.5,96 C27.4036,96 33,101.596 33,108.5 L35,108.5 C35,100.492 28.5081,94 20.5,94 L20.5,96 Z M12.0142,99.3217 C14.2438,97.2591 17.2238,96 20.5,96 L20.5,94 C16.7007,94 13.2408,95.4625 10.656,97.8535 L12.0142,99.3217 Z M31.148,116.591 C23.5658,111.844 17.0833,105.503 12.1705,98.0378 L10.4998,99.1373 C15.5704,106.843 22.2607,113.387 30.0867,118.286 L31.148,116.591 Z M30.4464,117.331 C22.8729,112.556 16.3873,106.212 11.4461,98.7558 L9.77893,99.8606 C14.8763,107.553 21.5666,114.097 29.3797,119.023 L30.4464,117.331 Z M29.2157,117.46 C26.9631,119.652 23.89,121 20.5,121 L20.5,123 C24.4316,123 27.9994,121.434 30.6104,118.894 L29.2157,117.46 Z M20.5,121 C13.5964,121 7.99999,115.404 8,108.5 L6,108.5 C5.99999,116.508 12.4919,123 20.5,123 L20.5,121 Z M8,108.5 C8,105.212 9.2685,102.222 11.3448,99.9893 L9.88026,98.6272 C7.47346,101.215 6,104.687 6,108.5 L8,108.5 Z M7,108.5 C7,104.865 8.43514,101.568 10.7718,99.1398 L9.33078,97.753 C6.64991,100.539 5,104.328 5,108.5 L7,108.5 Z M20.5,122 C13.0442,122 6.99999,115.956 7,108.5 L5,108.5 C4.99999,117.06 11.9396,124 20.5,124 L20.5,122 Z M30.078,118.014 C27.6314,120.477 24.2445,122 20.5,122 L20.5,124 C24.7987,124 28.6902,122.249 31.4969,119.423 L30.078,118.014 Z M64,127 C52.0272,127 40.8373,123.661 31.3071,117.864 L30.2678,119.573 C40.1022,125.555 51.6503,129 64,129 L64,127 Z M127,64 C127,98.7939 98.7939,127 64,127 L64,129 C99.8985,129 129,99.8985 129,64 L127,64 Z M118.702,32.7264 C123.982,41.9406 127,52.6163 127,64 L129,64 C129,52.2583 125.886,41.241 120.438,31.7321 L118.702,32.7264 Z M120.483,32.6375 C121.458,30.4565 122,28.0402 122,25.5 L120,25.5 C120,27.7534 119.52,29.8919 118.657,31.821 L120.483,32.6375 Z M122,25.5 C122,15.835 114.165,8.00001 104.5,8.00001 L104.5,10 C113.06,10 120,16.9396 120,25.5 L122,25.5 Z M104.5,8.00001 C102.272,8.00001 100.139,8.41683 98.1766,9.17764 L98.8995,11.0424 C100.635,10.3696 102.523,10 104.5,10 L104.5,8.00001 Z M64,1 C76.5234,1.00001 88.1906,4.65309 97.9976,10.9514 L99.0784,9.26861 C88.9586,2.76939 76.918,-0.999995 64,-0.999995 L64,1 Z M0.999997,64 C0.999999,29.2061 29.2061,1 64,1 L64,-0.999995 C28.1015,-0.999997 -1,28.1015 -1,64 L0.999997,64 Z M10.8936,97.9074 C4.63074,88.1191 0.999997,76.4851 0.999997,64 L-1,64 C-1,76.8784 2.74631,88.8848 9.20895,98.9854 L10.8936,97.9074 Z M11.6286,97.1998 C5.5314,87.6022 2,76.215 2,64 L-2.79753e-06,64 C-3.34855e-06,76.606 3.64561,88.3635 9.94043,98.2723 L11.6286,97.1998 Z M2,64 C2,29.7583 29.7583,2 64,2 L64,4.77226e-06 C28.6538,3.22723e-06 -1.2525e-06,28.6538 -2.79753e-06,64 L2,64 Z M64,2 C76.086,2.00001 87.3614,5.45718 96.8949,11.4361 L97.9576,9.74178 C88.1149,3.56896 76.4727,5.31746e-06 64,4.77226e-06 L64,2 Z M96.997,9.68576 C92.2069,11.9622 88.6143,16.3509 87.4245,21.6524 L89.376,22.0904 C90.4287,17.3996 93.6105,13.5095 97.8555,11.4921 L96.997,9.68576 Z M63.5,16 C72.4176,16 80.7585,18.4565 87.8861,22.7291 L88.9144,21.0137 C81.4847,16.56 72.7898,14 63.5,14 L63.5,16 Z M36.4075,24.4788 C44.0915,19.1335 53.4283,16 63.5,16 L63.5,14 C53.007,14 43.2738,17.266 35.2654,22.837 L36.4075,24.4788 Z M36.5038,22.9132 C35.1772,21.7243 33.422,21 31.5,21 L31.5,23 C32.9106,23 34.195,23.5297 35.169,24.4026 L36.5038,22.9132 Z M31.5,21 C27.3579,21 24,24.3579 24,28.5 L26,28.5 C26,25.4624 28.4624,23 31.5,23 L31.5,21 Z M24,28.5 C24,30.1816 24.5546,31.7366 25.4906,32.9881 L27.0922,31.7903 C26.406,30.8727 26,29.7352 26,28.5 L24,28.5 Z M16,63.5 C16,51.9028 20.1548,41.2787 27.0582,33.031 L25.5246,31.7473 C18.3311,40.3415 14,51.4163 14,63.5 L16,63.5 Z M27.9032,94.9511 C20.4951,86.573 16,75.5627 16,63.5 L14,63.5 C14,76.0692 18.686,87.5464 26.4049,96.2759 L27.9032,94.9511 Z M20.5,95 C22.735,95 24.8404,95.5423 26.6945,96.5017 L27.6136,94.7254 C25.4821,93.6225 23.0623,93 20.5,93 L20.5,95 Z M11.4548,98.4782 C13.8492,96.3156 17.0198,95 20.5,95 L20.5,93 C16.5056,93 12.8619,94.5123 10.1142,96.9939 L11.4548,98.4782 Z M17.0659,63.5 C17.0659,52.2196 21.0871,41.881 27.7752,33.8356 L26.2372,32.5571 C19.2616,40.9483 15.0659,51.7355 15.0659,63.5 L17.0659,63.5 Z M63.5,109.934 C37.8552,109.934 17.0659,89.1448 17.0659,63.5 L15.0659,63.5 C15.0659,90.2494 36.7506,111.934 63.5,111.934 L63.5,109.934 Z M85.6692,104.31 C79.0823,107.896 71.5306,109.934 63.5,109.934 L63.5,111.934 C71.873,111.934 79.7525,109.809 86.6254,106.067 L85.6692,104.31 Z M86.9702,104.621 C86.3583,103.734 86,102.66 86,101.5 L84,101.5 C84,103.079 84.4892,104.547 85.3244,105.757 L86.9702,104.621 Z M86,101.5 C86,98.4624 88.4624,96 91.5,96 L91.5,94 C87.3579,94 84,97.3579 84,101.5 L86,101.5 Z M91.5,96 C93.2503,96 94.8094,96.8165 95.8183,98.0934 L97.3875,96.8534 C96.0156,95.1172 93.888,94 91.5,94 L91.5,96 Z M98.1258,94.439 C97.4122,95.237 96.6715,96.0103 95.905,96.7572 L97.3008,98.1895 C98.1001,97.4106 98.8726,96.6043 99.6167,95.7721 L98.1258,94.439 Z M99.5349,94.3575 C97.365,92.4325 96,89.6263 96,86.5 L94,86.5 C94,90.2221 95.628,93.5651 98.2076,95.8536 L99.5349,94.3575 Z M96,86.5 C96,80.701 100.701,76 106.5,76 L106.5,74 C99.5964,74 94,79.5964 94,86.5 L96,86.5 Z M106.5,76 C107.428,76 108.326,76.12 109.18,76.3449 L109.689,74.4108 C108.67,74.1426 107.601,74 106.5,74 L106.5,76 Z M109.934,63.5 C109.934,67.5168 109.424,71.413 108.466,75.1282 L110.403,75.6275 C111.403,71.7506 111.934,67.6866 111.934,63.5 L109.934,63.5 Z M104.878,42.4069 C108.11,48.735 109.934,55.9031 109.934,63.5 L111.934,63.5 C111.934,55.5795 110.032,48.1004 106.659,41.4971 L104.878,42.4069 Z M104.5,43 C104.952,43 105.4,42.9828 105.844,42.9491 L105.693,40.9548 C105.299,40.9848 104.901,41 104.5,41 L104.5,43 Z M87,25.5 C87,35.165 94.835,43 104.5,43 L104.5,41 C95.9396,41 89,34.0604 89,25.5 L87,25.5 Z M87.2011,22.8392 C87.0686,23.7073 87,24.596 87,25.5 L89,25.5 C89,24.6974 89.0609,23.9096 89.1782,23.1409 L87.2011,22.8392 Z M63.5,17.0659 C72.3553,17.0659 80.6288,19.5438 87.6684,23.8434 L88.7109,22.1366 C81.3663,17.6507 72.7335,15.0659 63.5,15.0659 L63.5,17.0659 Z M37.1457,25.2642 C44.6324,20.0939 53.7111,17.0659 63.5,17.0659 L63.5,15.0659 C53.2922,15.0659 43.8193,18.2249 36.0092,23.6185 L37.1457,25.2642 Z M39,28.5 C39,26.7294 38.3852,25.0996 37.3582,23.8165 L35.7967,25.0662 C36.5501,26.0075 37,27.1998 37,28.5 L39,28.5 Z M31.5,36 C35.6421,36 39,32.6421 39,28.5 L37,28.5 C37,31.5376 34.5376,34 31.5,34 L31.5,36 Z M26.3148,33.9188 C27.6607,35.207 29.4888,36 31.5,36 L31.5,34 C30.0244,34 28.6863,33.4202 27.6977,32.4739 L26.3148,33.9188 Z M38,28.5 C38,26.9402 37.4493,25.5064 36.5328,24.3862 L34.9849,25.6527 C35.6198,26.4287 36,27.4186 36,28.5 L38,28.5 Z M31.5,35 C35.0898,35 38,32.0898 38,28.5 L36,28.5 C36,30.9853 33.9853,33 31.5,33 L31.5,35 Z M26.9557,33.1475 C28.1266,34.2926 29.7317,35 31.5,35 L31.5,33 C30.2752,33 29.1664,32.512 28.354,31.7176 L26.9557,33.1475 Z M28.4102,33.0878 C30.7639,30.3746 33.4269,27.9371 36.3443,25.8302 L35.1734,24.2088 C32.1308,26.406 29.3538,28.9479 26.8995,31.7773 L28.4102,33.0878 Z M27.7138,32.2644 C30.058,29.581 32.699,27.1636 35.5856,25.0635 L34.409,23.4463 C31.4014,25.6344 28.6498,28.1529 26.2076,30.9486 L27.7138,32.2644 Z M25,28.5 C25,29.8609 25.4194,31.1269 26.1359,32.172 L27.7854,31.041 C27.2899,30.3183 27,29.4445 27,28.5 L25,28.5 Z M31.5,22 C27.9101,22 25,24.9101 25,28.5 L27,28.5 C27,26.0147 29.0147,24 31.5,24 L31.5,22 Z M35.6336,23.4835 C34.5105,22.5572 33.069,22 31.5,22 L31.5,24 C32.5877,24 33.583,24.3847 34.361,25.0264 L35.6336,23.4835 Z M88.1263,23.4492 C88.0429,24.1215 88,24.806 88,25.5 L90,25.5 C90,24.8885 90.0378,24.2862 90.1111,23.6954 L88.1263,23.4492 Z M88,25.5 C88,34.6127 95.3873,42 104.5,42 L104.5,40 C96.4919,40 90,33.5081 90,25.5 L88,25.5 Z M104.5,42 C104.77,42 105.039,41.9935 105.307,41.9806 L105.211,39.9829 C104.975,39.9943 104.738,40 104.5,40 L104.5,42 Z M88.5779,24.4134 C95.1785,28.6573 100.634,34.5276 104.379,41.4572 L106.138,40.5064 C102.233,33.2784 96.5431,27.157 89.6595,22.7311 L88.5779,24.4134 Z M106.537,41.8754 C112.187,41.1794 116.949,37.6298 119.342,32.7165 L117.544,31.8408 C115.439,36.162 111.252,39.2795 106.292,39.8904 L106.537,41.8754 Z M97.8845,12.0699 C105.949,17.3427 112.71,24.4434 117.58,32.7829 L119.307,31.7744 C114.28,23.1664 107.302,15.8381 98.979,10.3959 L97.8845,12.0699 Z M98.0399,10.3129 C93.1078,12.4133 89.4071,16.8457 88.3242,22.2298 L90.285,22.6242 C91.2356,17.8978 94.4875,13.9995 98.8236,12.1529 L98.0399,10.3129 Z M88.7718,23.2733 C95.8224,27.7122 101.624,33.9537 105.53,41.3499 L107.299,40.4159 C103.228,32.7083 97.1835,26.2058 89.8374,21.5808 L88.7718,23.2733 Z M99.0268,11.6267 C106.761,16.8098 113.284,23.6609 118.08,31.6646 L119.796,30.6366 C114.848,22.3793 108.119,15.3122 100.14,9.96526 L99.0268,11.6267 Z M119.869,31.5153 C120.599,29.6502 121,27.6207 121,25.5 L119,25.5 C119,27.3671 118.648,29.1494 118.007,30.7859 L119.869,31.5153 Z M121,25.5 C121,16.3873 113.613,9.00001 104.5,9.00001 L104.5,11 C112.508,11 119,17.4919 119,25.5 L121,25.5 Z M104.5,9.00001 C102.672,9.00001 100.912,9.29752 99.2665,9.84754 L99.9005,11.7444 C101.344,11.2618 102.891,11 104.5,11 L104.5,9.00001 Z M106.5,77 C107.338,77 108.149,77.1082 108.921,77.3109 L109.429,75.3765 C108.493,75.1307 107.511,75 106.5,75 L106.5,77 Z M97,86.5 C97,81.2533 101.253,77 106.5,77 L106.5,75 C100.149,75 95,80.1487 95,86.5 L97,86.5 Z M100.194,93.6054 C98.2331,91.8638 97,89.3265 97,86.5 L95,86.5 C95,89.9219 96.4958,92.9956 98.8659,95.1008 L100.194,93.6054 Z M108.212,76.0735 C106.364,82.6571 103.101,88.6498 98.7707,93.7023 L100.289,95.0039 C104.805,89.7352 108.21,83.4839 110.138,76.6139 L108.212,76.0735 Z M106.5,96 C104.425,96 102.509,95.3362 100.947,94.2093 L99.777,95.831 C101.668,97.1957 103.991,98 106.5,98 L106.5,96 Z M116,86.5 C116,91.7467 111.747,96 106.5,96 L106.5,98 C112.851,98 118,92.8513 118,86.5 L116,86.5 Z M109.84,77.6033 C113.44,78.9557 116,82.4302 116,86.5 L118,86.5 C118,81.5699 114.898,77.3668 110.543,75.731 L109.84,77.6033 Z M109.229,76.3963 C107.34,83.1064 104.014,89.2155 99.6024,94.3699 L101.122,95.6704 C105.718,90.3004 109.185,83.9337 111.154,76.9381 L109.229,76.3963 Z M91.5,97 C92.9596,97 94.2568,97.6938 95.0806,98.7738 L96.6708,97.5608 C95.4849,96.0062 93.6098,95 91.5,95 L91.5,97 Z M87,101.5 C87,99.0147 89.0147,97 91.5,97 L91.5,95 C87.9101,95 85,97.9101 85,101.5 L87,101.5 Z M87.8383,104.116 C87.3104,103.379 87,102.477 87,101.5 L85,101.5 C85,102.909 85.4493,104.215 86.2122,105.281 L87.8383,104.116 Z M95.193,97.4366 C92.5705,99.8868 89.664,102.036 86.5285,103.831 L87.5219,105.567 C90.7926,103.695 93.8237,101.453 96.5584,98.898 L95.193,97.4366 Z M91.5,106 C90.3106,106 89.2309,105.54 88.4256,104.786 L87.0588,106.246 C88.22,107.333 89.7832,108 91.5,108 L91.5,106 Z M96,101.5 C96,103.985 93.9853,106 91.5,106 L91.5,108 C95.0898,108 98,105.09 98,101.5 L96,101.5 Z M95.5475,99.5306 C95.8371,100.124 96,100.792 96,101.5 L98,101.5 C98,100.481 97.7649,99.5147 97.3452,98.6539 L95.5475,99.5306 Z M95.7669,98.3586 C93.1762,100.758 90.3178,102.872 87.2416,104.65 L88.2427,106.382 C91.4485,104.528 94.4268,102.326 97.1258,99.826 L95.7669,98.3586 Z M20.5,36 C20.2239,36 20,35.7761 20,35.5 L18,35.5 C18,36.8807 19.1193,38 20.5,38 L20.5,36 Z M21,35.5 C21,35.7761 20.7761,36 20.5,36 L20.5,38 C21.8807,38 23,36.8807 23,35.5 L21,35.5 Z M20.5,35 C20.7761,35 21,35.2239 21,35.5 L23,35.5 C23,34.1193 21.8807,33 20.5,33 L20.5,35 Z M20,35.5 C20,35.2239 20.2239,35 20.5,35 L20.5,33 C19.1193,33 18,34.1193 18,35.5 L20,35.5 Z M20.5,37 C19.6716,37 19,36.3284 19,35.5 L17,35.5 C17,37.433 18.567,39 20.5,39 L20.5,37 Z M22,35.5 C22,36.3284 21.3284,37 20.5,37 L20.5,39 C22.433,39 24,37.433 24,35.5 L22,35.5 Z M20.5,34 C21.3284,34 22,34.6716 22,35.5 L24,35.5 C24,33.567 22.433,32 20.5,32 L20.5,34 Z M19,35.5 C19,34.6716 19.6716,34 20.5,34 L20.5,32 C18.567,32 17,33.567 17,35.5 L19,35.5 Z" mask="url(#video-b)"/>
    </g>
    <path fill="#FFF" fill-rule="nonzero" d="M56.0241,47.2821 L82.0241,62.7821 L84.9532,64.5283 L81.9994,66.2324 L55.9994,81.2324 L53,82.9628 L53,79.5 L53,49 L53,45.4793 L56.0241,47.2821 Z M57,52.5207288 L57,76.0371769 L77.0468082,64.4717107 L57,52.5207288 Z M64,100 C44.1177,100 28,83.8823 28,64 C28,44.1177 44.1177,28 64,28 C83.8823,28 100,44.1177 100,64 C100,83.8823 83.8823,100 64,100 Z M64,96 C81.6731,96 96,81.6731 96,64 C96,46.3269 81.6731,32 64,32 C46.3269,32 32,46.3269 32,64 C32,81.6731 46.3269,96 64,96 Z"/>
  </g>
</svg>
