<svg fill="none" viewBox="0 0 64 64" xmlns="http://www.w3.org/2000/svg"><path d="m11.3063 16.1773-6.13755-6.1397c-1.9695 3.9149-1.41632 8.6267 1.40635 11.9791 2.82268 3.3523 7.3717 4.6999 11.565 3.4261l20.4162 20.4178c-1.2739 4.1931.0738 8.7419 3.4263 11.5644 3.3524 2.8226 8.0645 3.3757 11.9796 1.4063l-6.1376-6.1372v-4.8676l-31.6492-31.6492z" fill="currentColor" fill-opacity=".2"/><path d="m5.16873 10.0376 6.13757 6.1397h4.8691v-4.8689l-6.1375-6.13971c3.915-1.96942 8.6271-1.41626 11.9795 1.40629 3.3525 2.82256 4.7002 7.37132 3.4263 11.56442l20.4162 20.4178c4.1933-1.2738 8.7423.0738 11.565 3.4262 2.8227 3.3523 3.3759 8.0641 1.4064 11.979l-6.1376-6.1372h-4.8691v4.8689l6.1375 6.1372c-3.915 1.9694-8.6271 1.4163-11.9795-1.4063-3.3525-2.8225-4.7002-7.3713-3.4263-11.5644l-20.4162-20.4178c-4.1933 1.2738-8.74233-.0738-11.56501-3.4262-2.82267-3.3523-3.37585-8.0641-1.40636-11.979z" style="fill-rule:evenodd;clip-rule:evenodd;stroke:currentColor;stroke-width:2;stroke-linecap:round;stroke-linejoin:round"/></svg>
