<svg xmlns="http://www.w3.org/2000/svg" viewBox="0 0 64 64">
  <g fill="none" fill-rule="evenodd">
    <path stroke="currentColor" stroke-linecap="round" stroke-width="2" d="M45 48L13 48 13 45C13 44.45 13.3273 44 13.7273 44L44.2727 44C44.6727 44 45 44.45 45 45L45 48zM47.136 50.75L44.9185 48 13.0815 48 10.864 50.75C9.9136 51.9286 9.7156 53.5786 10.4284 54.9536 11.6559 57.4286 14.2298 59 17.0017 59L40.9983 59C43.7702 59 46.3441 57.4286 47.5716 54.9536 48.2844 53.5786 48.0864 51.9286 47.136 50.75z"/>
    <path fill="currentColor" stroke="currentColor" d="M20.4225,54.9536 C19.6811,53.775 19.7552,52.2036 20.5708,51.1036 C21.3122,50.1214 22.3872,49.5714 23.5734,49.5714 L45,49.5714 L43.8138,48 L22.9062,48 L14.0093,48 L11.6739,51.1036 C10.8213,52.2036 10.7842,53.775 11.5256,54.9536 C13.1197,57.4679 15.7887,59 18.6431,59 L26.5761,59 C23.9441,59 21.5717,57.4286 20.4225,54.9536 Z" opacity=".25"/>
    <path stroke="currentColor" stroke-linecap="round" stroke-width="2" d="M52.8571 21.75C51.9143 21.75 51.0143 22.0125 50.2857 22.45 50.2 21.575 49.4714 20.875 48.5714 20.875 47.9714 20.875 47.5 21.1813 47.1571 21.6188 46.5571 20.6563 45.4857 20 44.2857 20 42.4 20 40.8571 21.575 40.8571 23.5L40.8571 23.5437C40.5571 23.5 40.2571 23.5 39.9143 23.5 37.3857 23.5 35.1571 24.9 34 27L40.8571 27 45.8714 27 47.7143 27 51.1429 27 58 27C58 24.1125 55.6857 21.75 52.8571 21.75zM32.6667 31C30.6083 31 28.7479 31.9794 27.6 33.5073 26.8083 32.9196 25.8188 32.5671 24.75 32.5671 22.1375 32.5671 20 34.4144 20 37L26.3333 37 29.5 37 39 37C39 33.5525 36.15 31 32.6667 31z"/>
    <path fill="currentColor" d="M46.1889 23.5C46.4706 23.5 46.7926 23.5437 47.0743 23.5437L47.0743 23.5C47.0743 22.5375 47.4365 21.6625 48 21.05 47.7585 21.1813 47.517 21.3563 47.356 21.6188 46.7926 20.6563 45.7864 20 44.6594 20 42.8885 20 41.4396 21.575 41.4396 23.5L41.4396 23.5437C41.1579 23.5 40.8762 23.5 40.5542 23.5 38.1796 23.5 36.0867 24.9 35 27L40.6347 27C41.7616 24.9 43.8142 23.5 46.1889 23.5zM27.4308 33.3774C26.7021 32.9726 25.8925 32.7297 25.0019 32.7297 22.3301 32.7297 20.1441 34.9157 20.1441 37.5875L25.0019 37.5875C25.0019 35.8063 25.9734 34.2275 27.4308 33.3774zM22.5588 9.04814C22.8827 9.04814 23.2065 9.08862 23.5304 9.1291 24.6639 7.50984 26.3236 6.21444 28.2667 5.56674 27.2142 5.20241 26.1212 5 24.9877 5 21.7087 5 18.7941 6.61925 17.0534 9.1291 16.7295 9.08862 16.4057 9.04814 16.0818 9.04814 12.9648 9.04814 10.4144 11.5985 10.4144 14.7155L15.2722 14.7155 16.8914 14.7155C16.8914 11.5985 19.4418 9.04814 22.5588 9.04814z" opacity=".25"/>
    <polygon fill="currentColor" points="49.696 29.484 51.112 27.865 49.696 27.865 47.874 29.484" opacity=".25"/>
    <path fill="currentColor" d="M12.6835,44 C12.2382,44 11.8739,44.3643 11.8739,44.8096 L11.8739,47.2385 L21.5894,47.2385 L21.5894,44 L12.6835,44 Z" opacity=".25"/>
    <path stroke="currentColor" stroke-linecap="round" stroke-width="2" d="M37.1857 10.8333C36.3607 10.8333 35.575 11 34.8679 11.2917 34.475 10.5 33.6893 10 32.7857 10 32.6286 10 32.4714 10 32.3143 10.0417 30.7036 7.04167 27.6393 5 24.1429 5 20.9607 5 18.1321 6.66667 16.4429 9.25 16.1286 9.20833 15.8143 9.16667 15.5 9.16667 12.475 9.16667 10 11.7917 10 15L14.7143 15 21 15 31.3321 15 33.5714 15 43 15C42.0571 12.5417 39.8179 10.8333 37.1857 10.8333zM35.4888 25.2689L31.3083 23.8471 28.2998 22.8202 26.8542 22.3068C26.6588 22.2673 26.4635 22.1488 26.3072 22.0303 25.9946 21.7538 25.7602 21.2404 25.7993 20.7664 25.7993 20.6874 25.7993 20.6479 25.8383 20.5689 25.8383 20.4899 25.8774 20.4504 25.8774 20.3715L25.9165 20.2925 25.9946 20.1345 26.1509 19.779 26.8542 18.3177 28.4561 15 26.5025 15C26.5025 15 25.0779 15 22.6736 15L22.9862 18.1202C22.8689 18.2782 22.4782 19.1471 22.4001 19.3446 22.322 19.542 22.2438 19.7395 22.2047 19.937 21.7359 21.5168 22.0875 23.3336 23.1034 24.716 23.6113 25.3874 24.2755 25.9799 25.0569 26.3748L26.5025 27.1253 29.3547 28.5866 33.8869 30.9169C37.0126 31.2723 39.3959 34.0214 39.3959 37.2601L32.1287 37.2601 30.058 37.2601 26.9323 37.2601 26.1509 37.2601 27.87 38.9346C28.3779 39.448 28.2998 40.2774 27.7528 40.7119L24.2364 44 37.1689 44 39.3569 41.2253 40.4509 40.0799 40.9978 39.4875 41.3495 39.0925C41.5058 38.8951 41.662 38.7371 41.8183 38.5396L51 27.7177 47.6716 27.7177 43.5 32.5C43.5 32.5 43.0556 30.9169 42.7951 30.3639 42.4044 29.5345 41.8574 28.7446 41.1932 28.0732 41.0369 27.9547 40.9197 27.7967 40.7634 27.6782"/>
  </g>
</svg>
