<svg xmlns="http://www.w3.org/2000/svg" viewBox="0 0 128 128">
  <g fill="none" fill-rule="evenodd">
    <path stroke="#FFF" stroke-linecap="round" stroke-width="2" d="M103 96L31 96 31 91.5C31 90.675 31.7364 90 32.6364 90L101.3636 90C102.2636 90 103 90.675 103 91.5L103 96zM104.227 102L99.6749 96 34.3251 96 29.7734 102C27.8226 104.571 27.4162 108.171 28.8793 111.171 31.399 116.571 36.6823 120 42.3719 120L91.6281 120C97.3177 120 102.601 116.571 105.121 111.171 106.584 108.171 106.177 104.571 104.227 102zM29 106L105 105.996M112.143 46.25C110.336 46.25 108.611 46.7375 107.214 47.55 107.05 45.925 105.654 44.625 103.929 44.625 102.7786 44.625 101.875 45.1938 101.2179 46.0063 100.0679 44.2188 98.0143 43 95.7143 43 92.1 43 89.1429 45.925 89.1429 49.5L89.1429 49.5812C88.5679 49.5 87.9929 49.5 87.3357 49.5 82.4893 49.5 78.2179 52.1 76 56L89.1429 56 98.7536 56 102.2857 56 108.857 56 122 56C122 50.6375 117.564 46.25 112.143 46.25zM75 63C70.775 63 66.9563 65.1221 64.6 68.4325 62.975 67.1592 60.9438 66.3953 58.75 66.3953 53.3875 66.3953 49 70.3978 49 76L62 76 68.5 76 88 76C88 68.5304 82.15 63 75 63z"/>
    <path fill="#FFF" d="M99.1329 49.6569C99.7153 49.6569 100.381 49.7401 100.9635 49.7401L100.9635 49.6569C100.9635 47.8263 101.7124 46.162 102.8774 44.9971 102.3781 45.2467 101.8788 45.5796 101.546 46.0788 100.381 44.2482 98.3007 43 95.9708 43 92.3095 43 89.3139 45.9956 89.3139 49.6569L89.3139 49.7401C88.7314 49.6569 88.1489 49.6569 87.4832 49.6569 82.5737 49.6569 78.2467 52.3197 76 56.3139L87.6496 56.3139C89.9796 52.3197 94.2234 49.6569 99.1329 49.6569zM63.9781 67.3314C62.4803 66.4993 60.8161 66 58.9854 66 53.4934 66 49 70.4934 49 75.9854L58.9854 75.9854C58.9854 72.3241 60.9825 69.0788 63.9781 67.3314zM53.9635 17.3212C54.6292 17.3212 55.2949 17.4044 55.9606 17.4876 58.2905 14.1591 61.7022 11.49635 65.6964 10.16496 63.5329 9.41606 61.2861 9 58.9562 9 52.2161 9 46.2248 12.32847 42.6467 17.4876 41.981 17.4044 41.3153 17.3212 40.6496 17.3212 34.2423 17.3212 29 22.5635 29 28.9708L38.9854 28.9708 42.3139 28.9708C42.3139 22.5635 47.5562 17.3212 53.9635 17.3212z" opacity=".25"/>
    <polygon fill="#FFF" points="109.745 59.328 112.657 56 109.745 56 106 59.328" opacity=".25"/>
    <path fill="#FFF" d="M33.6642 89C32.7489 89 32 89.7489 32 90.6642L32 95.6569 51.9708 95.6569 51.9708 89 33.6642 89zM28.0002 107.206C27.9927 108.551 28.2651 109.921 28.8614 111.177 31.3822 116.574 36.668 120 42.3603 120L91.6397 120C97.4133 120 102.6178 116.574 105.139 111.177 105.871 109.635 106.114 107.922 105.952 106.294L47.6006 106.294C47.7539 105.028 48.2231 103.802 48.9949 102.7672 50.6213 100.6257 52.9796 99.4264 55.5818 99.4264L102.5842 99.4264 99.982 96 34.6014 96 29.4783 102.7672C28.6714 103.802 28.1975 105.028 28.05 106.294L28.0482 106.294C28.0439 106.337 28.0398 106.38 28.0361 106.424 28.0105 106.683 27.9985 106.945 28.0002 107.206z" opacity=".25"/>
    <path stroke="#FFF" stroke-linecap="round" stroke-width="2" d="M84.019 21.6667C82.319 21.6667 80.7 22 79.2429 22.5833 78.4333 21 76.8143 20 74.9524 20 74.6286 20 74.3048 20 73.981 20.0833 70.6619 14.0833 64.3476 10 57.1429 10 50.5857 10 44.7571 13.3333 41.2762 18.5 40.6286 18.4167 39.981 18.3333 39.3333 18.3333 33.1 18.3333 28 23.5833 28 30L37.7143 30 50.6667 30 71.9571 30 76.5714 30 96 30C94.0571 25.0833 89.4429 21.6667 84.019 21.6667zM80.1272 51.2206L71.4098 48.2824 65.1365 46.1603 62.122 45.0993C61.7147 45.0176 61.3073 44.7728 60.9814 44.5279 60.3297 43.9566 59.8408 42.8956 59.9223 41.9162 59.9223 41.7529 59.9223 41.6713 60.0038 41.5081 60.0038 41.3449 60.0852 41.2632 60.0852 41.1L60.1667 40.9368 60.3297 40.6103 60.6555 39.8757 62.122 36.8559 65.4624 30 61.3888 30 58.9665 34.1632C58.5591 34.7346 57.7444 34.5713 57.5 34L55.5 30 53.4046 30 54.0564 36.4478C53.8119 36.7743 52.9972 38.5699 52.8343 38.9779 52.6713 39.386 52.5084 39.7941 52.4269 40.2022 51.4493 43.4669 52.1825 47.2213 54.3008 50.0779 55.3599 51.4654 56.7449 52.6897 58.3743 53.5059L61.3888 55.0566 67.3362 58.0765 76.7869 62.8919C83.3046 63.6265 88.2744 69.3074 88.2744 76L73.1207 76 68.8027 76 62.285 76 60.6555 76 64.2403 79.4603C65.2994 80.5213 65.1365 82.2353 63.9959 83.1331L56.6634 89.9279 83.6305 89.9279 88.1929 84.1941 90.4741 81.8272 91.6147 80.6029 92.3479 79.7868C92.6738 79.3787 92.9997 79.0522 93.3256 78.6441L112.471 56.2809 109.701 56.2809 96.8288 67.5441C96.8288 67.4625 96.8288 67.4625 96.8288 67.3809 96.6659 65.4221 96.1771 63.5449 95.3624 61.7493 94.5476 60.0353 93.4071 58.4029 92.022 57.0154 91.6962 56.7706 91.4517 56.4441 91.1259 56.1993"/>
    <path fill="#FFF" fill-rule="nonzero" d="M47.4412,44.5214 L46.6516,45.1351 L46.6734,45.163 L46.697,45.1894 L47.4412,44.5214 Z M37.9527,38.1143 L37.6342,39.0622 L37.6699,39.0742 L37.7063,39.0835 L37.9527,38.1143 Z M26.6218,74.9786 L26.2866,75.9207 L26.9541,76.1582 L27.3995,75.6072 L26.6218,74.9786 Z M7,87.9786 L6.00256,87.907 L6,87.9428 L6,87.9786 L7,87.9786 Z M46.697,45.1894 C50.0291,48.9016 51.9685,53.8622 51.9685,59.2857 L53.9685,59.2857 C53.9685,53.3806 51.8545,47.9412 48.1854,43.8535 L46.697,45.1894 Z M51.9685,59.2857 C51.9685,62.2122 51.3521,65.0508 50.2979,67.5301 L52.1385,68.3127 C53.2952,65.5921 53.9685,62.4878 53.9685,59.2857 L51.9685,59.2857 Z M16.3535,74.723 C12.3005,70.8152 9.75031,65.3137 9.75031,59.2857 L7.75031,59.2857 C7.75031,65.8863 10.54315,71.8991 14.9653,76.1627 L16.3535,74.723 Z M9.75031,59.2857 C9.75031,47.4805 19.1671,38 30.8594,38 L30.8594,36 C18.0475,36 7.75031,46.3909 7.75031,59.2857 L9.75031,59.2857 Z M30.8594,38 C33.2477,38 35.5344,38.3567 37.6342,39.0622 L38.2712,37.1664 C35.9492,36.3862 33.4456,36 30.8594,36 L30.8594,38 Z M51.6514,67.0743 C49.2409,66.1996 46.6383,65.7143 43.8485,65.7143 L43.8485,67.7143 C46.4017,67.7143 48.7736,68.1576 50.9692,68.9543 L51.6514,67.0743 Z M43.8485,65.7143 C36.6224,65.7143 30.0777,69.1127 25.8441,74.3499 L27.3995,75.6072 C31.2726,70.8159 37.2564,67.7143 43.8485,67.7143 L43.8485,65.7143 Z M26.957,74.0364 C25.2806,73.44 23.5089,73.1429 21.7394,73.1429 L21.7394,75.1429 C23.2863,75.1429 24.8309,75.4028 26.2866,75.9207 L26.957,74.0364 Z M21.7394,73.1429 C13.3696,73.1429 6.59173,79.6918 6.00256,87.907 L7.99744,88.0501 C8.51372,80.8511 14.4486,75.1429 21.7394,75.1429 L21.7394,73.1429 Z M6,87.9786 C6,88.9505 6.68804,90 7.92121,90 L7.92121,88 C7.92568,88 7.94329,88.0015 7.9659,88.0121 C7.98753,88.0221 8.0016,88.0347 8.0085,88.0427 C8.02062,88.0566 8,88.0409 8,87.9786 L6,87.9786 Z M7.92121,90 L56.5,90 L56.5,88 L7.92121,88 L7.92121,90 Z M37.7063,39.0835 C39.4244,39.5202 43.7267,41.3715 46.6516,45.1351 L48.2308,43.9078 C44.9651,39.7057 40.2273,37.6607 38.1991,37.1451 L37.7063,39.0835 Z" opacity=".2"/>
  </g>
</svg>
