<svg width="720" height="720" viewBox="0 0 720 720" fill="none" xmlns="http://www.w3.org/2000/svg">
<rect width="480" height="480" transform="translate(120 120)" fill="white"/>
<g opacity="0.4">
<g opacity="0.2">
<rect x="580" y="120" width="20" height="480" stroke="black"/>
<rect x="560" y="120" width="20" height="480" stroke="black"/>
<rect x="540" y="120" width="20" height="480" stroke="black"/>
<rect x="520" y="120" width="20" height="480" stroke="black"/>
<rect x="500" y="120" width="20" height="480" stroke="black"/>
<rect x="480" y="120" width="20" height="480" stroke="black"/>
<rect x="460" y="120" width="20" height="480" stroke="black"/>
<rect x="440" y="120" width="20" height="480" stroke="black"/>
<rect x="420" y="120" width="20" height="480" stroke="black"/>
<rect x="400" y="120" width="20" height="480" stroke="black"/>
<rect x="380" y="120" width="20" height="480" stroke="black"/>
<rect x="360" y="120" width="20" height="480" stroke="black"/>
<rect x="340" y="120" width="20" height="480" stroke="black"/>
<rect x="320" y="120" width="20" height="480" stroke="black"/>
<rect x="300" y="120" width="20" height="480" stroke="black"/>
<rect x="280" y="120" width="20" height="480" stroke="black"/>
<rect x="260" y="120" width="20" height="480" stroke="black"/>
<rect x="240" y="120" width="20" height="480" stroke="black"/>
<rect x="220" y="120" width="20" height="480" stroke="black"/>
<rect x="200" y="120" width="20" height="480" stroke="black"/>
<rect x="180" y="120" width="20" height="480" stroke="black"/>
<rect x="160" y="120" width="20" height="480" stroke="black"/>
<rect x="140" y="120" width="20" height="480" stroke="black"/>
<rect x="120" y="120" width="20" height="480" stroke="black"/>
</g>
<g opacity="0.2">
<rect x="600" y="580" width="20" height="480" transform="rotate(90 600 580)" stroke="black"/>
<rect x="600" y="560" width="20" height="480" transform="rotate(90 600 560)" stroke="black"/>
<rect x="600" y="540" width="20" height="480" transform="rotate(90 600 540)" stroke="black"/>
<rect x="600" y="520" width="20" height="480" transform="rotate(90 600 520)" stroke="black"/>
<rect x="600" y="500" width="20" height="480" transform="rotate(90 600 500)" stroke="black"/>
<rect x="600" y="480" width="20" height="480" transform="rotate(90 600 480)" stroke="black"/>
<rect x="600" y="460" width="20" height="480" transform="rotate(90 600 460)" stroke="black"/>
<rect x="600" y="440" width="20" height="480" transform="rotate(90 600 440)" stroke="black"/>
<rect x="600" y="420" width="20" height="480" transform="rotate(90 600 420)" stroke="black"/>
<rect x="600" y="400" width="20" height="480" transform="rotate(90 600 400)" stroke="black"/>
<rect x="600" y="380" width="20" height="480" transform="rotate(90 600 380)" stroke="black"/>
<rect x="600" y="360" width="20" height="480" transform="rotate(90 600 360)" stroke="black"/>
<rect x="600" y="340" width="20" height="480" transform="rotate(90 600 340)" stroke="black"/>
<rect x="600" y="320" width="20" height="480" transform="rotate(90 600 320)" stroke="black"/>
<rect x="600" y="300" width="20" height="480" transform="rotate(90 600 300)" stroke="black"/>
<rect x="600" y="280" width="20" height="480" transform="rotate(90 600 280)" stroke="black"/>
<rect x="600" y="260" width="20" height="480" transform="rotate(90 600 260)" stroke="black"/>
<rect x="600" y="240" width="20" height="480" transform="rotate(90 600 240)" stroke="black"/>
<rect x="600" y="220" width="20" height="480" transform="rotate(90 600 220)" stroke="black"/>
<rect x="600" y="200" width="20" height="480" transform="rotate(90 600 200)" stroke="black"/>
<rect x="600" y="180" width="20" height="480" transform="rotate(90 600 180)" stroke="black"/>
<rect x="600" y="160" width="20" height="480" transform="rotate(90 600 160)" stroke="black"/>
<rect x="600" y="140" width="20" height="480" transform="rotate(90 600 140)" stroke="black"/>
<rect x="600" y="120" width="20" height="480" transform="rotate(90 600 120)" stroke="black"/>
</g>
</g>
<rect x="121" y="121" width="478" height="478" stroke="#AAAAAA" stroke-width="2"/>
<g opacity="0.4">
<path fill-rule="evenodd" clip-rule="evenodd" d="M160 240C160 217.909 177.909 200 200 200H520C542.091 200 560 217.909 560 240V480C560 502.091 542.091 520 520 520H200C177.909 520 160 502.091 160 480V240ZM491.716 240H228.284L360 371.716L491.716 240ZM200 268.284V480H520V268.284L367.071 421.213C363.166 425.118 356.834 425.118 352.929 421.213L200 268.284Z" fill="black"/>
</g>
<path d="M243.2 232C243.2 260.277 220.277 283.2 192 283.2C163.723 283.2 140.8 260.277 140.8 232C140.8 203.723 163.723 180.8 192 180.8C220.277 180.8 243.2 203.723 243.2 232Z" fill="#DE3636" fill-opacity="0.3" stroke="#DE3636" stroke-width="1.6"/>
<path d="M579.2 228C579.2 254.068 558.068 275.2 532 275.2C505.932 275.2 484.8 254.068 484.8 228C484.8 201.932 505.932 180.8 532 180.8C558.068 180.8 579.2 201.932 579.2 228Z" fill="#DE3636" fill-opacity="0.3" stroke="#DE3636" stroke-width="1.6"/>
<path d="M243.2 488C243.2 516.277 220.277 539.2 192 539.2C163.723 539.2 140.8 516.277 140.8 488C140.8 459.723 163.723 436.8 192 436.8C220.277 436.8 243.2 459.723 243.2 488Z" fill="#DE3636" fill-opacity="0.3" stroke="#DE3636" stroke-width="1.6"/>
<path d="M579.2 488C579.2 516.277 556.277 539.2 528 539.2C499.723 539.2 476.8 516.277 476.8 488C476.8 459.723 499.723 436.8 528 436.8C556.277 436.8 579.2 459.723 579.2 488Z" fill="#DE3636" fill-opacity="0.3" stroke="#DE3636" stroke-width="1.6"/>
<path d="M112.229 71H129.381V66.744H119.045L123.045 63.608C127.173 60.376 129.157 58.424 129.157 54.584V54.52C129.157 50.2 125.957 47.384 121.189 47.384C117.029 47.384 114.821 49.08 112.549 52.216L116.005 54.968C117.733 52.824 119.013 51.768 120.869 51.768C122.757 51.768 124.133 52.888 124.133 54.936C124.133 56.888 122.981 58.2 120.037 60.664L112.229 67.096V71ZM143.118 67.192C140.686 67.192 138.638 65.176 138.638 62.136V62.072C138.638 59.032 140.686 57.016 143.118 57.016C145.55 57.016 147.598 59.032 147.598 62.072V62.136C147.598 65.24 145.55 67.192 143.118 67.192ZM133.838 76.312H138.702V68.6C139.918 70.072 141.614 71.352 144.334 71.352C148.558 71.352 152.462 68.056 152.462 62.136V62.072C152.462 56.152 148.494 52.888 144.334 52.888C141.678 52.888 139.95 54.168 138.702 55.864V53.208H133.838V76.312ZM159.494 53.208H154.278L160.326 61.944L154.022 71H159.11L162.854 65.272L166.598 71H171.814L165.51 61.88L171.558 53.208H166.47L162.95 58.552L159.494 53.208ZM185.432 71H190.296V64.376C190.296 60.056 192.44 57.976 195.832 57.976H196.088V52.888C193.08 52.76 191.352 54.392 190.296 56.888V53.208H185.432V71ZM207.76 71.384C213.296 71.384 217.392 67.256 217.392 62.136V62.072C217.392 56.984 213.328 52.888 207.856 52.888C202.32 52.888 198.224 57.048 198.224 62.136V62.2C198.224 67.32 202.288 71.384 207.76 71.384ZM207.856 67.224C204.976 67.224 203.024 64.856 203.024 62.136V62.072C203.024 59.352 204.816 57.08 207.76 57.08C210.64 57.08 212.592 59.416 212.592 62.136V62.2C212.592 64.92 210.8 67.224 207.856 67.224ZM227.353 71.352C229.945 71.352 231.481 69.976 232.633 68.44V71H237.497V53.208H232.633V63.16C232.633 65.624 231.321 66.936 229.305 66.936C227.289 66.936 226.105 65.624 226.105 63.16V53.208H221.273V64.696C221.273 68.792 223.513 71.352 227.353 71.352ZM242.37 71H247.234V61.048C247.234 58.584 248.546 57.272 250.562 57.272C252.578 57.272 253.762 58.584 253.762 61.048V71H258.626V59.512C258.626 55.416 256.354 52.888 252.514 52.888C249.922 52.888 248.385 54.264 247.234 55.768V53.208H242.37V71ZM271.882 67.192C269.45 67.192 267.402 65.176 267.402 62.136V62.072C267.402 58.968 269.45 57.016 271.882 57.016C274.314 57.016 276.362 59.032 276.362 62.072V62.136C276.362 65.176 274.314 67.192 271.882 67.192ZM270.666 71.352C273.322 71.352 275.05 70.072 276.298 68.376V71H281.162V46.712H276.298V55.608C275.082 54.136 273.386 52.888 270.666 52.888C266.442 52.888 262.538 56.152 262.538 62.072V62.136C262.538 68.088 266.506 71.352 270.666 71.352ZM294.41 71.384C297.642 71.384 300.01 70.136 301.674 68.088L298.89 65.624C297.482 66.936 296.234 67.48 294.474 67.48C292.138 67.48 290.474 66.232 289.994 63.8H302.506C302.538 63.352 302.57 62.904 302.57 62.52C302.57 57.464 299.818 52.888 293.93 52.888C288.778 52.888 285.162 57.048 285.162 62.136V62.2C285.162 67.64 289.098 71.384 294.41 71.384ZM289.93 60.76C290.314 58.36 291.754 56.792 293.93 56.792C296.17 56.792 297.514 58.424 297.834 60.76H289.93ZM315.164 67.192C312.732 67.192 310.684 65.176 310.684 62.136V62.072C310.684 58.968 312.732 57.016 315.164 57.016C317.596 57.016 319.644 59.032 319.644 62.072V62.136C319.644 65.176 317.596 67.192 315.164 67.192ZM313.948 71.352C316.604 71.352 318.332 70.072 319.58 68.376V71H324.444V46.712H319.58V55.608C318.364 54.136 316.668 52.888 313.948 52.888C309.724 52.888 305.82 56.152 305.82 62.072V62.136C305.82 68.088 309.788 71.352 313.948 71.352ZM347.941 71.384C351.173 71.384 353.541 70.136 355.205 68.088L352.421 65.624C351.013 66.936 349.765 67.48 348.005 67.48C345.669 67.48 344.005 66.232 343.525 63.8H356.037C356.069 63.352 356.101 62.904 356.101 62.52C356.101 57.464 353.349 52.888 347.461 52.888C342.309 52.888 338.693 57.048 338.693 62.136V62.2C338.693 67.64 342.629 71.384 347.941 71.384ZM343.461 60.76C343.845 58.36 345.285 56.792 347.461 56.792C349.701 56.792 351.045 58.424 351.365 60.76H343.461ZM363.119 53.208H357.903L363.951 61.944L357.647 71H362.735L366.479 65.272L370.223 71H375.439L369.135 61.88L375.183 53.208H370.095L366.575 58.552L363.119 53.208ZM384.823 71.288C386.487 71.288 387.671 70.904 388.727 70.296V66.392C387.991 66.776 387.159 67 386.231 67C385.047 67 384.503 66.424 384.503 65.176V57.368H388.791V53.208H384.503V48.6H379.639V53.208H377.495V57.368H379.639V65.976C379.639 70.072 381.751 71.288 384.823 71.288ZM400.754 71.384C403.986 71.384 406.354 70.136 408.017 68.088L405.234 65.624C403.826 66.936 402.578 67.48 400.818 67.48C398.482 67.48 396.818 66.232 396.338 63.8H408.85C408.882 63.352 408.914 62.904 408.914 62.52C408.914 57.464 406.162 52.888 400.274 52.888C395.122 52.888 391.506 57.048 391.506 62.136V62.2C391.506 67.64 395.442 71.384 400.754 71.384ZM396.274 60.76C396.658 58.36 398.098 56.792 400.274 56.792C402.514 56.792 403.858 58.424 404.178 60.76H396.274ZM412.963 71H417.827V64.376C417.827 60.056 419.971 57.976 423.363 57.976H423.619V52.888C420.611 52.76 418.883 54.392 417.827 56.888V53.208H412.963V71ZM427.216 51.096H432.336V46.744H427.216V51.096ZM427.376 71H432.208V53.208H427.376V71ZM446.01 71.384C451.546 71.384 455.642 67.256 455.642 62.136V62.072C455.642 56.984 451.578 52.888 446.106 52.888C440.57 52.888 436.474 57.048 436.474 62.136V62.2C436.474 67.32 440.538 71.384 446.01 71.384ZM446.106 67.224C443.226 67.224 441.274 64.856 441.274 62.136V62.072C441.274 59.352 443.066 57.08 446.01 57.08C448.89 57.08 450.842 59.416 450.842 62.136V62.2C450.842 64.92 449.05 67.224 446.106 67.224ZM459.651 71H464.515V64.376C464.515 60.056 466.659 57.976 470.051 57.976H470.307V52.888C467.299 52.76 465.571 54.392 464.515 56.888V53.208H459.651V71ZM492.441 71.384C495.961 71.384 497.977 70.04 499.705 68.12L496.857 65.272C495.609 66.456 494.393 67.224 492.665 67.224C489.817 67.224 487.993 64.952 487.993 62.136V62.072C487.993 59.352 489.849 57.08 492.473 57.08C494.297 57.08 495.449 57.88 496.601 59.096L499.609 55.896C497.945 54.04 495.833 52.888 492.505 52.888C487.065 52.888 483.193 57.08 483.193 62.136V62.2C483.193 67.288 487.097 71.384 492.441 71.384ZM511.479 71.384C517.015 71.384 521.111 67.256 521.111 62.136V62.072C521.111 56.984 517.047 52.888 511.575 52.888C506.039 52.888 501.943 57.048 501.943 62.136V62.2C501.943 67.32 506.007 71.384 511.479 71.384ZM511.575 67.224C508.695 67.224 506.743 64.856 506.743 62.136V62.072C506.743 59.352 508.535 57.08 511.479 57.08C514.359 57.08 516.311 59.416 516.311 62.136V62.2C516.311 64.92 514.519 67.224 511.575 67.224ZM525.12 71H529.984V64.376C529.984 60.056 532.128 57.976 535.52 57.976H535.776V52.888C532.768 52.76 531.04 54.392 529.984 56.888V53.208H525.12V71ZM539.276 71H544.14V61.048C544.14 58.584 545.452 57.272 547.468 57.272C549.484 57.272 550.668 58.584 550.668 61.048V71H555.532V59.512C555.532 55.416 553.26 52.888 549.42 52.888C546.828 52.888 545.292 54.264 544.14 55.768V53.208H539.276V71ZM568.629 71.384C571.861 71.384 574.229 70.136 575.892 68.088L573.109 65.624C571.701 66.936 570.453 67.48 568.693 67.48C566.357 67.48 564.693 66.232 564.213 63.8H576.725C576.757 63.352 576.789 62.904 576.789 62.52C576.789 57.464 574.037 52.888 568.149 52.888C562.997 52.888 559.381 57.048 559.381 62.136V62.2C559.381 67.64 563.317 71.384 568.629 71.384ZM564.149 60.76C564.533 58.36 565.973 56.792 568.149 56.792C570.389 56.792 571.733 58.424 572.053 60.76H564.149ZM580.838 71H585.702V64.376C585.702 60.056 587.846 57.976 591.238 57.976H591.494V52.888C588.486 52.76 586.758 54.392 585.702 56.888V53.208H580.838V71ZM601.203 71.32C605.043 71.32 607.987 69.528 607.987 65.624V65.56C607.987 62.296 605.075 61.112 602.579 60.312C600.627 59.64 598.867 59.16 598.867 58.104V58.04C598.867 57.272 599.571 56.696 600.851 56.696C602.195 56.696 603.955 57.336 605.715 58.36L607.571 55C605.651 53.72 603.219 52.952 600.979 52.952C597.395 52.952 594.483 54.968 594.483 58.552V58.616C594.483 62.04 597.331 63.192 599.859 63.928C601.843 64.536 603.603 64.92 603.603 66.072V66.136C603.603 67 602.867 67.576 601.331 67.576C599.667 67.576 597.619 66.84 595.699 65.432L593.587 68.664C595.923 70.488 598.707 71.32 601.203 71.32Z" fill="#DE3636"/>
</svg>
