<svg width="720" height="720" viewBox="0 0 720 720" fill="none" xmlns="http://www.w3.org/2000/svg">
<rect width="480" height="480" transform="translate(120 120)" fill="white"/>
<g opacity="0.4">
<g opacity="0.2">
<rect x="580" y="120" width="20" height="480" stroke="black"/>
<rect x="560" y="120" width="20" height="480" stroke="black"/>
<rect x="540" y="120" width="20" height="480" stroke="black"/>
<rect x="520" y="120" width="20" height="480" stroke="black"/>
<rect x="500" y="120" width="20" height="480" stroke="black"/>
<rect x="480" y="120" width="20" height="480" stroke="black"/>
<rect x="460" y="120" width="20" height="480" stroke="black"/>
<rect x="440" y="120" width="20" height="480" stroke="black"/>
<rect x="420" y="120" width="20" height="480" stroke="black"/>
<rect x="400" y="120" width="20" height="480" stroke="black"/>
<rect x="380" y="120" width="20" height="480" stroke="black"/>
<rect x="360" y="120" width="20" height="480" stroke="black"/>
<rect x="340" y="120" width="20" height="480" stroke="black"/>
<rect x="320" y="120" width="20" height="480" stroke="black"/>
<rect x="300" y="120" width="20" height="480" stroke="black"/>
<rect x="280" y="120" width="20" height="480" stroke="black"/>
<rect x="260" y="120" width="20" height="480" stroke="black"/>
<rect x="240" y="120" width="20" height="480" stroke="black"/>
<rect x="220" y="120" width="20" height="480" stroke="black"/>
<rect x="200" y="120" width="20" height="480" stroke="black"/>
<rect x="180" y="120" width="20" height="480" stroke="black"/>
<rect x="160" y="120" width="20" height="480" stroke="black"/>
<rect x="140" y="120" width="20" height="480" stroke="black"/>
<rect x="120" y="120" width="20" height="480" stroke="black"/>
</g>
<g opacity="0.2">
<rect x="600" y="580" width="20" height="480" transform="rotate(90 600 580)" stroke="black"/>
<rect x="600" y="560" width="20" height="480" transform="rotate(90 600 560)" stroke="black"/>
<rect x="600" y="540" width="20" height="480" transform="rotate(90 600 540)" stroke="black"/>
<rect x="600" y="520" width="20" height="480" transform="rotate(90 600 520)" stroke="black"/>
<rect x="600" y="500" width="20" height="480" transform="rotate(90 600 500)" stroke="black"/>
<rect x="600" y="480" width="20" height="480" transform="rotate(90 600 480)" stroke="black"/>
<rect x="600" y="460" width="20" height="480" transform="rotate(90 600 460)" stroke="black"/>
<rect x="600" y="440" width="20" height="480" transform="rotate(90 600 440)" stroke="black"/>
<rect x="600" y="420" width="20" height="480" transform="rotate(90 600 420)" stroke="black"/>
<rect x="600" y="400" width="20" height="480" transform="rotate(90 600 400)" stroke="black"/>
<rect x="600" y="380" width="20" height="480" transform="rotate(90 600 380)" stroke="black"/>
<rect x="600" y="360" width="20" height="480" transform="rotate(90 600 360)" stroke="black"/>
<rect x="600" y="340" width="20" height="480" transform="rotate(90 600 340)" stroke="black"/>
<rect x="600" y="320" width="20" height="480" transform="rotate(90 600 320)" stroke="black"/>
<rect x="600" y="300" width="20" height="480" transform="rotate(90 600 300)" stroke="black"/>
<rect x="600" y="280" width="20" height="480" transform="rotate(90 600 280)" stroke="black"/>
<rect x="600" y="260" width="20" height="480" transform="rotate(90 600 260)" stroke="black"/>
<rect x="600" y="240" width="20" height="480" transform="rotate(90 600 240)" stroke="black"/>
<rect x="600" y="220" width="20" height="480" transform="rotate(90 600 220)" stroke="black"/>
<rect x="600" y="200" width="20" height="480" transform="rotate(90 600 200)" stroke="black"/>
<rect x="600" y="180" width="20" height="480" transform="rotate(90 600 180)" stroke="black"/>
<rect x="600" y="160" width="20" height="480" transform="rotate(90 600 160)" stroke="black"/>
<rect x="600" y="140" width="20" height="480" transform="rotate(90 600 140)" stroke="black"/>
<rect x="600" y="120" width="20" height="480" transform="rotate(90 600 120)" stroke="black"/>
</g>
</g>
<rect x="121" y="121" width="478" height="478" stroke="#AAAAAA" stroke-width="2"/>
<g opacity="0.4">
<path fill-rule="evenodd" clip-rule="evenodd" d="M160 280H560V560H160V280ZM200 320V520H520V320H200ZM320 360L420 420L320 480V360ZM200 220H520V260H200V220ZM240 160H480V200H240V160Z" fill="black"/>
</g>
<path d="M60.9994 71.352C67.2394 71.352 71.1754 67.896 71.1754 60.856V47.704H66.2794V61.08C66.2794 64.888 64.2954 66.84 61.0634 66.84C57.8314 66.84 55.8794 64.792 55.8794 60.888V47.704H50.9514V61.048C50.9514 67.864 54.7914 71.352 60.9994 71.352ZM76.1976 71H81.0616V61.048C81.0616 58.584 82.3736 57.272 84.3896 57.272C86.4056 57.272 87.5896 58.584 87.5896 61.048V71H92.4536V59.512C92.4536 55.416 90.1816 52.888 86.3416 52.888C83.7496 52.888 82.2136 54.264 81.0616 55.768V53.208H76.1976V71ZM97.1664 71H102.03V64.376C102.03 60.056 104.174 57.976 107.566 57.976H107.822V52.888C104.814 52.76 103.086 54.392 102.03 56.888V53.208H97.1664V71ZM119.495 71.384C125.031 71.384 129.127 67.256 129.127 62.136V62.072C129.127 56.984 125.063 52.888 119.591 52.888C114.055 52.888 109.959 57.048 109.959 62.136V62.2C109.959 67.32 114.023 71.384 119.495 71.384ZM119.591 67.224C116.711 67.224 114.759 64.856 114.759 62.136V62.072C114.759 59.352 116.551 57.08 119.495 57.08C122.375 57.08 124.327 59.416 124.327 62.136V62.2C124.327 64.92 122.535 67.224 119.591 67.224ZM139.087 71.352C141.679 71.352 143.215 69.976 144.367 68.44V71H149.231V53.208H144.367V63.16C144.367 65.624 143.055 66.936 141.039 66.936C139.023 66.936 137.839 65.624 137.839 63.16V53.208H133.007V64.696C133.007 68.792 135.247 71.352 139.087 71.352ZM154.104 71H158.968V61.048C158.968 58.584 160.28 57.272 162.296 57.272C164.312 57.272 165.496 58.584 165.496 61.048V71H170.36V59.512C170.36 55.416 168.088 52.888 164.248 52.888C161.656 52.888 160.12 54.264 158.968 55.768V53.208H154.104V71ZM183.617 67.192C181.185 67.192 179.137 65.176 179.137 62.136V62.072C179.137 58.968 181.185 57.016 183.617 57.016C186.049 57.016 188.097 59.032 188.097 62.072V62.136C188.097 65.176 186.049 67.192 183.617 67.192ZM182.401 71.352C185.057 71.352 186.785 70.072 188.033 68.376V71H192.897V46.712H188.033V55.608C186.817 54.136 185.121 52.888 182.401 52.888C178.177 52.888 174.273 56.152 174.273 62.072V62.136C174.273 68.088 178.241 71.352 182.401 71.352ZM206.144 71.384C209.376 71.384 211.744 70.136 213.408 68.088L210.624 65.624C209.216 66.936 207.968 67.48 206.208 67.48C203.872 67.48 202.208 66.232 201.728 63.8H214.24C214.272 63.352 214.304 62.904 214.304 62.52C214.304 57.464 211.552 52.888 205.664 52.888C200.512 52.888 196.896 57.048 196.896 62.136V62.2C196.896 67.64 200.832 71.384 206.144 71.384ZM201.664 60.76C202.048 58.36 203.488 56.792 205.664 56.792C207.904 56.792 209.248 58.424 209.568 60.76H201.664ZM226.898 67.192C224.466 67.192 222.418 65.176 222.418 62.136V62.072C222.418 58.968 224.466 57.016 226.898 57.016C229.33 57.016 231.378 59.032 231.378 62.072V62.136C231.378 65.176 229.33 67.192 226.898 67.192ZM225.682 71.352C228.338 71.352 230.066 70.072 231.314 68.376V71H236.178V46.712H231.314V55.608C230.098 54.136 228.402 52.888 225.682 52.888C221.458 52.888 217.554 56.152 217.554 62.072V62.136C217.554 68.088 221.522 71.352 225.682 71.352ZM251.835 71H269.499V66.616H256.699V61.464H267.835V57.08H256.699V52.088H269.339V47.704H251.835V71ZM277.822 53.208H272.606L278.654 61.944L272.35 71H277.438L281.182 65.272L284.926 71H290.142L283.838 61.88L289.886 53.208H284.798L281.278 58.552L277.822 53.208ZM299.526 71.288C301.19 71.288 302.374 70.904 303.43 70.296V66.392C302.694 66.776 301.862 67 300.934 67C299.75 67 299.206 66.424 299.206 65.176V57.368H303.494V53.208H299.206V48.6H294.342V53.208H292.198V57.368H294.342V65.976C294.342 70.072 296.454 71.288 299.526 71.288ZM315.457 71.384C318.689 71.384 321.057 70.136 322.721 68.088L319.937 65.624C318.529 66.936 317.281 67.48 315.521 67.48C313.185 67.48 311.521 66.232 311.041 63.8H323.553C323.585 63.352 323.617 62.904 323.617 62.52C323.617 57.464 320.865 52.888 314.977 52.888C309.825 52.888 306.209 57.048 306.209 62.136V62.2C306.209 67.64 310.145 71.384 315.457 71.384ZM310.977 60.76C311.361 58.36 312.801 56.792 314.977 56.792C317.217 56.792 318.561 58.424 318.881 60.76H310.977ZM327.666 71H332.53V64.376C332.53 60.056 334.674 57.976 338.066 57.976H338.322V52.888C335.314 52.76 333.586 54.392 332.53 56.888V53.208H327.666V71ZM341.919 51.096H347.039V46.744H341.919V51.096ZM342.079 71H346.911V53.208H342.079V71ZM360.713 71.384C366.249 71.384 370.345 67.256 370.345 62.136V62.072C370.345 56.984 366.281 52.888 360.809 52.888C355.273 52.888 351.177 57.048 351.177 62.136V62.2C351.177 67.32 355.241 71.384 360.713 71.384ZM360.809 67.224C357.929 67.224 355.977 64.856 355.977 62.136V62.072C355.977 59.352 357.769 57.08 360.713 57.08C363.593 57.08 365.545 59.416 365.545 62.136V62.2C365.545 64.92 363.753 67.224 360.809 67.224ZM374.354 71H379.218V64.376C379.218 60.056 381.362 57.976 384.754 57.976H385.01V52.888C382.002 52.76 380.274 54.392 379.218 56.888V53.208H374.354V71ZM382.841 75.256H386.969L401.753 44.44H397.625L382.841 75.256ZM404.622 71H409.55V47.704H404.622V71ZM415.166 71H420.03V61.048C420.03 58.584 421.342 57.272 423.358 57.272C425.374 57.272 426.558 58.584 426.558 61.048V71H431.422V59.512C431.422 55.416 429.15 52.888 425.31 52.888C422.718 52.888 421.182 54.264 420.03 55.768V53.208H415.166V71ZM442.151 71.288C443.815 71.288 444.999 70.904 446.055 70.296V66.392C445.319 66.776 444.487 67 443.559 67C442.375 67 441.831 66.424 441.831 65.176V57.368H446.119V53.208H441.831V48.6H436.967V53.208H434.823V57.368H436.967V65.976C436.967 70.072 439.079 71.288 442.151 71.288ZM458.082 71.384C461.314 71.384 463.682 70.136 465.346 68.088L462.562 65.624C461.154 66.936 459.906 67.48 458.146 67.48C455.81 67.48 454.146 66.232 453.666 63.8H466.178C466.21 63.352 466.242 62.904 466.242 62.52C466.242 57.464 463.49 52.888 457.602 52.888C452.45 52.888 448.834 57.048 448.834 62.136V62.2C448.834 67.64 452.77 71.384 458.082 71.384ZM453.602 60.76C453.986 58.36 455.426 56.792 457.602 56.792C459.842 56.792 461.186 58.424 461.506 60.76H453.602ZM470.291 71H475.155V64.376C475.155 60.056 477.299 57.976 480.691 57.976H480.947V52.888C477.939 52.76 476.211 54.392 475.155 56.888V53.208H470.291V71ZM484.544 51.096H489.664V46.744H484.544V51.096ZM484.704 71H489.536V53.208H484.704V71ZM503.338 71.384C508.874 71.384 512.97 67.256 512.97 62.136V62.072C512.97 56.984 508.906 52.888 503.434 52.888C497.898 52.888 493.802 57.048 493.802 62.136V62.2C493.802 67.32 497.866 71.384 503.338 71.384ZM503.434 67.224C500.554 67.224 498.602 64.856 498.602 62.136V62.072C498.602 59.352 500.394 57.08 503.338 57.08C506.218 57.08 508.17 59.416 508.17 62.136V62.2C508.17 64.92 506.378 67.224 503.434 67.224ZM516.979 71H521.843V64.376C521.843 60.056 523.987 57.976 527.379 57.976H527.635V52.888C524.627 52.76 522.899 54.392 521.843 56.888V53.208H516.979V71ZM552.809 71.384C557.289 71.384 559.945 69.784 562.345 67.256L559.209 64.088C557.353 65.784 555.689 66.872 552.969 66.872C548.873 66.872 546.025 63.448 546.025 59.352V59.288C546.025 55.192 548.937 51.832 552.969 51.832C555.369 51.832 557.225 52.856 559.049 54.52L562.185 50.904C560.009 48.76 557.385 47.32 553.001 47.32C545.865 47.32 540.873 52.728 540.873 59.352V59.416C540.873 66.104 545.961 71.384 552.809 71.384ZM574.588 71.384C580.124 71.384 584.22 67.256 584.22 62.136V62.072C584.22 56.984 580.156 52.888 574.684 52.888C569.148 52.888 565.052 57.048 565.052 62.136V62.2C565.052 67.32 569.116 71.384 574.588 71.384ZM574.684 67.224C571.804 67.224 569.852 64.856 569.852 62.136V62.072C569.852 59.352 571.644 57.08 574.588 57.08C577.468 57.08 579.42 59.416 579.42 62.136V62.2C579.42 64.92 577.628 67.224 574.684 67.224ZM588.229 71H593.093V64.376C593.093 60.056 595.237 57.976 598.629 57.976H598.885V52.888C595.877 52.76 594.149 54.392 593.093 56.888V53.208H588.229V71ZM602.385 71H607.249V61.048C607.249 58.584 608.561 57.272 610.577 57.272C612.593 57.272 613.777 58.584 613.777 61.048V71H618.641V59.512C618.641 55.416 616.369 52.888 612.529 52.888C609.937 52.888 608.401 54.264 607.249 55.768V53.208H602.385V71ZM631.738 71.384C634.97 71.384 637.338 70.136 639.002 68.088L636.218 65.624C634.81 66.936 633.562 67.48 631.802 67.48C629.466 67.48 627.802 66.232 627.322 63.8H639.834C639.866 63.352 639.898 62.904 639.898 62.52C639.898 57.464 637.146 52.888 631.258 52.888C626.106 52.888 622.49 57.048 622.49 62.136V62.2C622.49 67.64 626.426 71.384 631.738 71.384ZM627.258 60.76C627.642 58.36 629.082 56.792 631.258 56.792C633.498 56.792 634.842 58.424 635.162 60.76H627.258ZM643.948 71H648.812V64.376C648.812 60.056 650.956 57.976 654.348 57.976H654.604V52.888C651.596 52.76 649.868 54.392 648.812 56.888V53.208H643.948V71ZM664.312 71.32C668.152 71.32 671.096 69.528 671.096 65.624V65.56C671.096 62.296 668.184 61.112 665.688 60.312C663.736 59.64 661.976 59.16 661.976 58.104V58.04C661.976 57.272 662.68 56.696 663.96 56.696C665.304 56.696 667.064 57.336 668.824 58.36L670.68 55C668.76 53.72 666.328 52.952 664.088 52.952C660.504 52.952 657.592 54.968 657.592 58.552V58.616C657.592 62.04 660.44 63.192 662.968 63.928C664.952 64.536 666.712 64.92 666.712 66.072V66.136C666.712 67 665.976 67.576 664.44 67.576C662.776 67.576 660.728 66.84 658.808 65.432L656.696 68.664C659.032 70.488 661.816 71.32 664.312 71.32Z" fill="#DE3636"/>
<path d="M511.2 182C511.2 199.231 497.231 213.2 480 213.2C462.769 213.2 448.8 199.231 448.8 182C448.8 164.769 462.769 150.8 480 150.8C497.231 150.8 511.2 164.769 511.2 182Z" fill="#DE3636" fill-opacity="0.3" stroke="#DE3636" stroke-width="1.6"/>
<path d="M271.2 182C271.2 199.231 257.231 213.2 240 213.2C222.769 213.2 208.8 199.231 208.8 182C208.8 164.769 222.769 150.8 240 150.8C257.231 150.8 271.2 164.769 271.2 182Z" fill="#DE3636" fill-opacity="0.3" stroke="#DE3636" stroke-width="1.6"/>
<path d="M231.2 238C231.2 255.231 217.231 269.2 200 269.2C182.769 269.2 168.8 255.231 168.8 238C168.8 220.769 182.769 206.8 200 206.8C217.231 206.8 231.2 220.769 231.2 238Z" fill="#DE3636" fill-opacity="0.3" stroke="#DE3636" stroke-width="1.6"/>
<path d="M551.2 238C551.2 255.231 537.231 269.2 520 269.2C502.769 269.2 488.8 255.231 488.8 238C488.8 220.769 502.769 206.8 520 206.8C537.231 206.8 551.2 220.769 551.2 238Z" fill="#DE3636" fill-opacity="0.3" stroke="#DE3636" stroke-width="1.6"/>
<path d="M591.2 286C591.2 303.231 577.231 317.2 560 317.2C542.769 317.2 528.8 303.231 528.8 286C528.8 268.769 542.769 254.8 560 254.8C577.231 254.8 591.2 268.769 591.2 286Z" fill="#DE3636" fill-opacity="0.3" stroke="#DE3636" stroke-width="1.6"/>
<path d="M436.2 420C436.2 432.813 425.813 443.2 413 443.2C400.187 443.2 389.8 432.813 389.8 420C389.8 407.187 400.187 396.8 413 396.8C425.813 396.8 436.2 407.187 436.2 420Z" fill="#DE3636" fill-opacity="0.3" stroke="#DE3636" stroke-width="1.6"/>
<path d="M346.2 474C346.2 486.813 335.813 497.2 323 497.2C310.187 497.2 299.8 486.813 299.8 474C299.8 461.187 310.187 450.8 323 450.8C335.813 450.8 346.2 461.187 346.2 474Z" fill="#DE3636" fill-opacity="0.3" stroke="#DE3636" stroke-width="1.6"/>
<path d="M346.2 368C346.2 380.813 335.813 391.2 323 391.2C310.187 391.2 299.8 380.813 299.8 368C299.8 355.187 310.187 344.8 323 344.8C335.813 344.8 346.2 355.187 346.2 368Z" fill="#DE3636" fill-opacity="0.3" stroke="#DE3636" stroke-width="1.6"/>
<path d="M191.2 286C191.2 303.231 177.231 317.2 160 317.2C142.769 317.2 128.8 303.231 128.8 286C128.8 268.769 142.769 254.8 160 254.8C177.231 254.8 191.2 268.769 191.2 286Z" fill="#DE3636" fill-opacity="0.3" stroke="#DE3636" stroke-width="1.6"/>
<path d="M583.2 559C583.2 576.231 569.231 590.2 552 590.2C534.769 590.2 520.8 576.231 520.8 559C520.8 541.769 534.769 527.8 552 527.8C569.231 527.8 583.2 541.769 583.2 559Z" fill="#DE3636" fill-opacity="0.3" stroke="#DE3636" stroke-width="1.6"/>
<path d="M191.2 559C191.2 576.231 177.231 590.2 160 590.2C142.769 590.2 128.8 576.231 128.8 559C128.8 541.769 142.769 527.8 160 527.8C177.231 527.8 191.2 541.769 191.2 559Z" fill="#DE3636" fill-opacity="0.3" stroke="#DE3636" stroke-width="1.6"/>
</svg>
