<svg width="720" height="720" viewBox="0 0 720 720" fill="none" xmlns="http://www.w3.org/2000/svg">
<rect width="480" height="480" transform="translate(120 120)" fill="white"/>
<g opacity="0.4">
<g opacity="0.2">
<rect x="580" y="120" width="20" height="480" stroke="black"/>
<rect x="560" y="120" width="20" height="480" stroke="black"/>
<rect x="540" y="120" width="20" height="480" stroke="black"/>
<rect x="520" y="120" width="20" height="480" stroke="black"/>
<rect x="500" y="120" width="20" height="480" stroke="black"/>
<rect x="480" y="120" width="20" height="480" stroke="black"/>
<rect x="460" y="120" width="20" height="480" stroke="black"/>
<rect x="440" y="120" width="20" height="480" stroke="black"/>
<rect x="420" y="120" width="20" height="480" stroke="black"/>
<rect x="400" y="120" width="20" height="480" stroke="black"/>
<rect x="380" y="120" width="20" height="480" stroke="black"/>
<rect x="360" y="120" width="20" height="480" stroke="black"/>
<rect x="340" y="120" width="20" height="480" stroke="black"/>
<rect x="320" y="120" width="20" height="480" stroke="black"/>
<rect x="300" y="120" width="20" height="480" stroke="black"/>
<rect x="280" y="120" width="20" height="480" stroke="black"/>
<rect x="260" y="120" width="20" height="480" stroke="black"/>
<rect x="240" y="120" width="20" height="480" stroke="black"/>
<rect x="220" y="120" width="20" height="480" stroke="black"/>
<rect x="200" y="120" width="20" height="480" stroke="black"/>
<rect x="180" y="120" width="20" height="480" stroke="black"/>
<rect x="160" y="120" width="20" height="480" stroke="black"/>
<rect x="140" y="120" width="20" height="480" stroke="black"/>
<rect x="120" y="120" width="20" height="480" stroke="black"/>
</g>
<g opacity="0.2">
<rect x="600" y="580" width="20" height="480" transform="rotate(90 600 580)" stroke="black"/>
<rect x="600" y="560" width="20" height="480" transform="rotate(90 600 560)" stroke="black"/>
<rect x="600" y="540" width="20" height="480" transform="rotate(90 600 540)" stroke="black"/>
<rect x="600" y="520" width="20" height="480" transform="rotate(90 600 520)" stroke="black"/>
<rect x="600" y="500" width="20" height="480" transform="rotate(90 600 500)" stroke="black"/>
<rect x="600" y="480" width="20" height="480" transform="rotate(90 600 480)" stroke="black"/>
<rect x="600" y="460" width="20" height="480" transform="rotate(90 600 460)" stroke="black"/>
<rect x="600" y="440" width="20" height="480" transform="rotate(90 600 440)" stroke="black"/>
<rect x="600" y="420" width="20" height="480" transform="rotate(90 600 420)" stroke="black"/>
<rect x="600" y="400" width="20" height="480" transform="rotate(90 600 400)" stroke="black"/>
<rect x="600" y="380" width="20" height="480" transform="rotate(90 600 380)" stroke="black"/>
<rect x="600" y="360" width="20" height="480" transform="rotate(90 600 360)" stroke="black"/>
<rect x="600" y="340" width="20" height="480" transform="rotate(90 600 340)" stroke="black"/>
<rect x="600" y="320" width="20" height="480" transform="rotate(90 600 320)" stroke="black"/>
<rect x="600" y="300" width="20" height="480" transform="rotate(90 600 300)" stroke="black"/>
<rect x="600" y="280" width="20" height="480" transform="rotate(90 600 280)" stroke="black"/>
<rect x="600" y="260" width="20" height="480" transform="rotate(90 600 260)" stroke="black"/>
<rect x="600" y="240" width="20" height="480" transform="rotate(90 600 240)" stroke="black"/>
<rect x="600" y="220" width="20" height="480" transform="rotate(90 600 220)" stroke="black"/>
<rect x="600" y="200" width="20" height="480" transform="rotate(90 600 200)" stroke="black"/>
<rect x="600" y="180" width="20" height="480" transform="rotate(90 600 180)" stroke="black"/>
<rect x="600" y="160" width="20" height="480" transform="rotate(90 600 160)" stroke="black"/>
<rect x="600" y="140" width="20" height="480" transform="rotate(90 600 140)" stroke="black"/>
<rect x="600" y="120" width="20" height="480" transform="rotate(90 600 120)" stroke="black"/>
</g>
</g>
<rect x="121" y="121" width="478" height="478" stroke="#AAAAAA" stroke-width="2"/>
<g opacity="0.4">
<path d="M510 380C510 385.523 505.523 390 500 390H390V500C390 505.523 385.523 510 380 510H360C354.477 510 350 505.523 350 500V390H240C234.477 390 230 385.523 230 380V360C230 354.477 234.477 350 240 350H350V240C350 234.477 354.477 230 360 230H380C385.523 230 390 234.477 390 240V350H500C505.523 350 510 354.477 510 360V380Z" fill="black"/>
</g>
<path d="M140.154 71.32C145.146 71.32 148.666 68.728 148.666 64.152V64.088C148.666 60.088 146.01 58.36 141.242 57.144C137.146 56.088 136.122 55.544 136.122 53.944V53.88C136.122 52.696 137.21 51.704 139.258 51.704C141.274 51.704 143.322 52.568 145.37 54.04L147.962 50.328C145.594 48.44 142.746 47.384 139.354 47.384C134.618 47.384 131.226 50.168 131.226 54.328V54.392C131.226 58.968 134.202 60.312 138.97 61.496C142.938 62.488 143.77 63.192 143.77 64.568V64.632C143.77 66.072 142.426 67 140.25 67C137.53 67 135.322 65.88 133.21 64.12L130.298 67.608C133.082 70.104 136.602 71.32 140.154 71.32ZM158.776 71.288C160.44 71.288 161.624 70.904 162.68 70.296V66.392C161.944 66.776 161.112 67 160.184 67C159 67 158.456 66.424 158.456 65.176V57.368H162.744V53.208H158.456V48.6H153.592V53.208H151.448V57.368H153.592V65.976C153.592 70.072 155.704 71.288 158.776 71.288ZM166.823 71H171.687V64.376C171.687 60.056 173.831 57.976 177.223 57.976H177.479V52.888C174.471 52.76 172.743 54.392 171.687 56.888V53.208H166.823V71ZM186.663 67.96C184.967 67.96 183.751 67.128 183.751 65.688V65.624C183.751 63.992 185.127 63.064 187.367 63.064C188.679 63.064 189.863 63.352 190.759 63.736V64.696C190.759 66.616 189.095 67.96 186.663 67.96ZM185.223 71.352C187.719 71.352 189.447 70.392 190.663 69.016V71H195.367V60.632C195.367 58.264 194.759 56.312 193.447 55C192.167 53.752 190.183 53.016 187.463 53.016C184.487 53.016 182.535 53.592 180.583 54.456L181.799 58.168C183.431 57.56 184.839 57.176 186.759 57.176C189.351 57.176 190.695 58.36 190.695 60.536V60.856C189.415 60.44 188.103 60.152 186.247 60.152C182.023 60.152 179.047 61.944 179.047 65.816V65.88C179.047 69.4 181.863 71.352 185.223 71.352ZM200.169 51.096H205.289V46.744H200.169V51.096ZM200.329 71H205.161V53.208H200.329V71ZM218.803 65.528C216.275 65.528 214.355 63.8 214.355 61.24V61.176C214.355 58.648 216.275 56.92 218.803 56.92C221.331 56.92 223.315 58.648 223.315 61.176V61.24C223.315 63.768 221.331 65.528 218.803 65.528ZM218.259 76.376C221.651 76.376 224.211 75.64 225.843 74.008C227.347 72.504 228.115 70.2 228.115 67.064V53.208H223.251V55.608C221.875 54.072 220.211 52.888 217.427 52.888C213.331 52.888 209.491 55.896 209.491 61.176V61.24C209.491 66.52 213.267 69.56 217.427 69.56C220.147 69.56 221.811 68.408 223.315 66.584V67.544C223.315 70.808 221.619 72.504 218.131 72.504C215.763 72.504 213.907 71.896 212.051 70.84L210.387 74.488C212.627 75.704 215.379 76.376 218.259 76.376ZM232.979 71H237.843V61.048C237.843 58.584 239.155 57.272 241.171 57.272C243.187 57.272 244.371 58.584 244.371 61.048V71H249.235V59.512C249.235 55.416 246.963 52.888 243.123 52.888C240.531 52.888 238.995 54.264 237.843 55.768V46.712H232.979V71ZM259.964 71.288C261.628 71.288 262.812 70.904 263.868 70.296V66.392C263.132 66.776 262.3 67 261.372 67C260.188 67 259.644 66.424 259.644 65.176V57.368H263.932V53.208H259.644V48.6H254.78V53.208H252.636V57.368H254.78V65.976C254.78 70.072 256.892 71.288 259.964 71.288ZM278.516 71H283.348V46.712H278.516V71ZM288.575 51.096H293.695V46.744H288.575V51.096ZM288.735 71H293.567V53.208H288.735V71ZM298.698 71H303.562V61.048C303.562 58.584 304.874 57.272 306.89 57.272C308.906 57.272 310.09 58.584 310.09 61.048V71H314.954V59.512C314.954 55.416 312.682 52.888 308.842 52.888C306.25 52.888 304.714 54.264 303.562 55.768V53.208H298.698V71ZM328.05 71.384C331.282 71.384 333.65 70.136 335.314 68.088L332.53 65.624C331.122 66.936 329.874 67.48 328.114 67.48C325.778 67.48 324.114 66.232 323.634 63.8H336.146C336.178 63.352 336.21 62.904 336.21 62.52C336.21 57.464 333.458 52.888 327.57 52.888C322.418 52.888 318.802 57.048 318.802 62.136V62.2C318.802 67.64 322.738 71.384 328.05 71.384ZM323.57 60.76C323.954 58.36 325.394 56.792 327.57 56.792C329.81 56.792 331.154 58.424 331.474 60.76H323.57ZM346.468 71.32C350.308 71.32 353.252 69.528 353.252 65.624V65.56C353.252 62.296 350.34 61.112 347.844 60.312C345.892 59.64 344.132 59.16 344.132 58.104V58.04C344.132 57.272 344.836 56.696 346.116 56.696C347.46 56.696 349.22 57.336 350.98 58.36L352.836 55C350.916 53.72 348.484 52.952 346.244 52.952C342.66 52.952 339.748 54.968 339.748 58.552V58.616C339.748 62.04 342.596 63.192 345.124 63.928C347.108 64.536 348.868 64.92 348.868 66.072V66.136C348.868 67 348.132 67.576 346.596 67.576C344.932 67.576 342.884 66.84 340.964 65.432L338.852 68.664C341.188 70.488 343.972 71.32 346.468 71.32ZM376.151 71.384C381.687 71.384 385.783 67.256 385.783 62.136V62.072C385.783 56.984 381.719 52.888 376.247 52.888C370.711 52.888 366.615 57.048 366.615 62.136V62.2C366.615 67.32 370.679 71.384 376.151 71.384ZM376.247 67.224C373.367 67.224 371.415 64.856 371.415 62.136V62.072C371.415 59.352 373.207 57.08 376.151 57.08C379.031 57.08 380.983 59.416 380.983 62.136V62.2C380.983 64.92 379.191 67.224 376.247 67.224ZM389.791 71H394.655V61.048C394.655 58.584 395.967 57.272 397.983 57.272C399.999 57.272 401.183 58.584 401.183 61.048V71H406.047V59.512C406.047 55.416 403.775 52.888 399.935 52.888C397.343 52.888 395.807 54.264 394.655 55.768V53.208H389.791V71ZM421.01 71H425.874V61.048C425.874 58.584 427.186 57.272 429.202 57.272C431.218 57.272 432.402 58.584 432.402 61.048V71H437.266V59.512C437.266 55.416 434.994 52.888 431.154 52.888C428.562 52.888 427.026 54.264 425.874 55.768V46.712H421.01V71ZM448.507 67.96C446.811 67.96 445.595 67.128 445.595 65.688V65.624C445.595 63.992 446.971 63.064 449.211 63.064C450.523 63.064 451.707 63.352 452.603 63.736V64.696C452.603 66.616 450.939 67.96 448.507 67.96ZM447.067 71.352C449.563 71.352 451.291 70.392 452.507 69.016V71H457.211V60.632C457.211 58.264 456.603 56.312 455.291 55C454.011 53.752 452.027 53.016 449.307 53.016C446.331 53.016 444.379 53.592 442.427 54.456L443.643 58.168C445.275 57.56 446.683 57.176 448.603 57.176C451.195 57.176 452.539 58.36 452.539 60.536V60.856C451.259 60.44 449.947 60.152 448.091 60.152C443.867 60.152 440.891 61.944 440.891 65.816V65.88C440.891 69.4 443.707 71.352 447.067 71.352ZM462.172 71H467.004V46.712H462.172V71ZM473.031 71H477.863V57.368H482.023V53.4H477.799V52.632C477.799 51.224 478.503 50.584 479.719 50.584C480.615 50.584 481.287 50.744 482.055 51V46.968C481.127 46.68 480.071 46.488 478.503 46.488C476.743 46.488 475.367 46.936 474.439 47.864C473.511 48.824 473.031 50.232 473.031 52.216V53.368H470.887V57.368H473.031V71ZM504.603 67.192C502.171 67.192 500.123 65.176 500.123 62.136V62.072C500.123 59.032 502.171 57.016 504.603 57.016C507.035 57.016 509.083 59.032 509.083 62.072V62.136C509.083 65.24 507.035 67.192 504.603 67.192ZM495.323 76.312H500.187V68.6C501.403 70.072 503.099 71.352 505.819 71.352C510.043 71.352 513.947 68.056 513.947 62.136V62.072C513.947 56.152 509.979 52.888 505.819 52.888C503.163 52.888 501.435 54.168 500.187 55.864V53.208H495.323V76.312ZM518.106 51.096H523.226V46.744H518.106V51.096ZM518.266 71H523.098V53.208H518.266V71ZM532.197 53.208H526.981L533.029 61.944L526.725 71H531.813L535.557 65.272L539.301 71H544.517L538.213 61.88L544.261 53.208H539.173L535.653 58.552L532.197 53.208ZM555.113 71.384C558.345 71.384 560.713 70.136 562.377 68.088L559.593 65.624C558.185 66.936 556.937 67.48 555.177 67.48C552.841 67.48 551.177 66.232 550.697 63.8H563.209C563.241 63.352 563.273 62.904 563.273 62.52C563.273 57.464 560.521 52.888 554.633 52.888C549.481 52.888 545.865 57.048 545.865 62.136V62.2C545.865 67.64 549.801 71.384 555.113 71.384ZM550.633 60.76C551.017 58.36 552.457 56.792 554.633 56.792C556.873 56.792 558.217 58.424 558.537 60.76H550.633ZM567.579 71H572.411V46.712H567.579V71ZM583.749 71.32C587.589 71.32 590.533 69.528 590.533 65.624V65.56C590.533 62.296 587.621 61.112 585.125 60.312C583.173 59.64 581.413 59.16 581.413 58.104V58.04C581.413 57.272 582.117 56.696 583.397 56.696C584.741 56.696 586.501 57.336 588.261 58.36L590.117 55C588.197 53.72 585.765 52.952 583.525 52.952C579.941 52.952 577.029 54.968 577.029 58.552V58.616C577.029 62.04 579.877 63.192 582.405 63.928C584.389 64.536 586.149 64.92 586.149 66.072V66.136C586.149 67 585.413 67.576 583.877 67.576C582.213 67.576 580.165 66.84 578.245 65.432L576.133 68.664C578.469 70.488 581.253 71.32 583.749 71.32Z" fill="#DE3636"/>
<rect x="160" y="340" width="400" height="2" fill="#DE3636"/>
<rect x="160" y="378" width="400" height="2" fill="#DE3636"/>
<rect x="340" y="160" width="2" height="400" fill="#DE3636"/>
<rect x="378" y="160" width="2" height="400" fill="#DE3636"/>
</svg>
