<svg width="720" height="720" viewBox="0 0 720 720" fill="none" xmlns="http://www.w3.org/2000/svg">
<rect width="480" height="480" transform="translate(120 120)" fill="white"/>
<g opacity="0.4">
<g opacity="0.2">
<rect x="580" y="120" width="20" height="480" stroke="black"/>
<rect x="560" y="120" width="20" height="480" stroke="black"/>
<rect x="540" y="120" width="20" height="480" stroke="black"/>
<rect x="520" y="120" width="20" height="480" stroke="black"/>
<rect x="500" y="120" width="20" height="480" stroke="black"/>
<rect x="480" y="120" width="20" height="480" stroke="black"/>
<rect x="460" y="120" width="20" height="480" stroke="black"/>
<rect x="440" y="120" width="20" height="480" stroke="black"/>
<rect x="420" y="120" width="20" height="480" stroke="black"/>
<rect x="400" y="120" width="20" height="480" stroke="black"/>
<rect x="380" y="120" width="20" height="480" stroke="black"/>
<rect x="360" y="120" width="20" height="480" stroke="black"/>
<rect x="340" y="120" width="20" height="480" stroke="black"/>
<rect x="320" y="120" width="20" height="480" stroke="black"/>
<rect x="300" y="120" width="20" height="480" stroke="black"/>
<rect x="280" y="120" width="20" height="480" stroke="black"/>
<rect x="260" y="120" width="20" height="480" stroke="black"/>
<rect x="240" y="120" width="20" height="480" stroke="black"/>
<rect x="220" y="120" width="20" height="480" stroke="black"/>
<rect x="200" y="120" width="20" height="480" stroke="black"/>
<rect x="180" y="120" width="20" height="480" stroke="black"/>
<rect x="160" y="120" width="20" height="480" stroke="black"/>
<rect x="140" y="120" width="20" height="480" stroke="black"/>
<rect x="120" y="120" width="20" height="480" stroke="black"/>
</g>
<g opacity="0.2">
<rect x="600" y="580" width="20" height="480" transform="rotate(90 600 580)" stroke="black"/>
<rect x="600" y="560" width="20" height="480" transform="rotate(90 600 560)" stroke="black"/>
<rect x="600" y="540" width="20" height="480" transform="rotate(90 600 540)" stroke="black"/>
<rect x="600" y="520" width="20" height="480" transform="rotate(90 600 520)" stroke="black"/>
<rect x="600" y="500" width="20" height="480" transform="rotate(90 600 500)" stroke="black"/>
<rect x="600" y="480" width="20" height="480" transform="rotate(90 600 480)" stroke="black"/>
<rect x="600" y="460" width="20" height="480" transform="rotate(90 600 460)" stroke="black"/>
<rect x="600" y="440" width="20" height="480" transform="rotate(90 600 440)" stroke="black"/>
<rect x="600" y="420" width="20" height="480" transform="rotate(90 600 420)" stroke="black"/>
<rect x="600" y="400" width="20" height="480" transform="rotate(90 600 400)" stroke="black"/>
<rect x="600" y="380" width="20" height="480" transform="rotate(90 600 380)" stroke="black"/>
<rect x="600" y="360" width="20" height="480" transform="rotate(90 600 360)" stroke="black"/>
<rect x="600" y="340" width="20" height="480" transform="rotate(90 600 340)" stroke="black"/>
<rect x="600" y="320" width="20" height="480" transform="rotate(90 600 320)" stroke="black"/>
<rect x="600" y="300" width="20" height="480" transform="rotate(90 600 300)" stroke="black"/>
<rect x="600" y="280" width="20" height="480" transform="rotate(90 600 280)" stroke="black"/>
<rect x="600" y="260" width="20" height="480" transform="rotate(90 600 260)" stroke="black"/>
<rect x="600" y="240" width="20" height="480" transform="rotate(90 600 240)" stroke="black"/>
<rect x="600" y="220" width="20" height="480" transform="rotate(90 600 220)" stroke="black"/>
<rect x="600" y="200" width="20" height="480" transform="rotate(90 600 200)" stroke="black"/>
<rect x="600" y="180" width="20" height="480" transform="rotate(90 600 180)" stroke="black"/>
<rect x="600" y="160" width="20" height="480" transform="rotate(90 600 160)" stroke="black"/>
<rect x="600" y="140" width="20" height="480" transform="rotate(90 600 140)" stroke="black"/>
<rect x="600" y="120" width="20" height="480" transform="rotate(90 600 120)" stroke="black"/>
</g>
</g>
<rect x="121" y="121" width="478" height="478" stroke="#AAAAAA" stroke-width="2"/>
<g opacity="0.4">
<path d="M480 268.2L451.8 240L360 331.8L268.2 240L240 268.2L331.8 360L240 451.8L268.2 480L360 388.2L451.8 480L480 451.8L388.2 360L480 268.2Z" fill="black"/>
</g>
<path d="M130.64 71.352C136.88 71.352 140.816 67.896 140.816 60.856V47.704H135.92V61.08C135.92 64.888 133.936 66.84 130.704 66.84C127.472 66.84 125.52 64.792 125.52 60.888V47.704H120.592V61.048C120.592 67.864 124.432 71.352 130.64 71.352ZM145.838 71H150.702V61.048C150.702 58.584 152.014 57.272 154.03 57.272C156.046 57.272 157.23 58.584 157.23 61.048V71H162.094V59.512C162.094 55.416 159.822 52.888 155.982 52.888C153.39 52.888 151.854 54.264 150.702 55.768V53.208H145.838V71ZM166.807 71H171.671V64.376C171.671 60.056 173.815 57.976 177.207 57.976H177.463V52.888C174.455 52.76 172.727 54.392 171.671 56.888V53.208H166.807V71ZM189.135 71.384C194.671 71.384 198.767 67.256 198.767 62.136V62.072C198.767 56.984 194.703 52.888 189.231 52.888C183.695 52.888 179.599 57.048 179.599 62.136V62.2C179.599 67.32 183.663 71.384 189.135 71.384ZM189.231 67.224C186.351 67.224 184.399 64.856 184.399 62.136V62.072C184.399 59.352 186.191 57.08 189.135 57.08C192.015 57.08 193.967 59.416 193.967 62.136V62.2C193.967 64.92 192.175 67.224 189.231 67.224ZM208.728 71.352C211.32 71.352 212.856 69.976 214.008 68.44V71H218.872V53.208H214.008V63.16C214.008 65.624 212.696 66.936 210.68 66.936C208.664 66.936 207.48 65.624 207.48 63.16V53.208H202.648V64.696C202.648 68.792 204.888 71.352 208.728 71.352ZM223.745 71H228.609V61.048C228.609 58.584 229.921 57.272 231.937 57.272C233.953 57.272 235.137 58.584 235.137 61.048V71H240.001V59.512C240.001 55.416 237.729 52.888 233.889 52.888C231.297 52.888 229.76 54.264 228.609 55.768V53.208H223.745V71ZM253.257 67.192C250.825 67.192 248.777 65.176 248.777 62.136V62.072C248.777 58.968 250.825 57.016 253.257 57.016C255.689 57.016 257.737 59.032 257.737 62.072V62.136C257.737 65.176 255.689 67.192 253.257 67.192ZM252.041 71.352C254.697 71.352 256.425 70.072 257.673 68.376V71H262.537V46.712H257.673V55.608C256.457 54.136 254.761 52.888 252.041 52.888C247.817 52.888 243.913 56.152 243.913 62.072V62.136C243.913 68.088 247.881 71.352 252.041 71.352ZM275.785 71.384C279.017 71.384 281.385 70.136 283.049 68.088L280.265 65.624C278.857 66.936 277.609 67.48 275.849 67.48C273.513 67.48 271.849 66.232 271.369 63.8H283.881C283.913 63.352 283.945 62.904 283.945 62.52C283.945 57.464 281.193 52.888 275.305 52.888C270.153 52.888 266.537 57.048 266.537 62.136V62.2C266.537 67.64 270.473 71.384 275.785 71.384ZM271.305 60.76C271.689 58.36 273.129 56.792 275.305 56.792C277.545 56.792 278.889 58.424 279.209 60.76H271.305ZM296.539 67.192C294.107 67.192 292.059 65.176 292.059 62.136V62.072C292.059 58.968 294.107 57.016 296.539 57.016C298.971 57.016 301.019 59.032 301.019 62.072V62.136C301.019 65.176 298.971 67.192 296.539 67.192ZM295.323 71.352C297.979 71.352 299.707 70.072 300.955 68.376V71H305.819V46.712H300.955V55.608C299.739 54.136 298.043 52.888 295.323 52.888C291.099 52.888 287.195 56.152 287.195 62.072V62.136C287.195 68.088 291.163 71.352 295.323 71.352ZM329.732 71.32C334.724 71.32 338.244 68.728 338.244 64.152V64.088C338.244 60.088 335.588 58.36 330.82 57.144C326.724 56.088 325.7 55.544 325.7 53.944V53.88C325.7 52.696 326.788 51.704 328.836 51.704C330.852 51.704 332.9 52.568 334.948 54.04L337.54 50.328C335.172 48.44 332.324 47.384 328.932 47.384C324.196 47.384 320.804 50.168 320.804 54.328V54.392C320.804 58.968 323.78 60.312 328.548 61.496C332.516 62.488 333.348 63.192 333.348 64.568V64.632C333.348 66.072 332.004 67 329.828 67C327.108 67 324.9 65.88 322.788 64.12L319.876 67.608C322.66 70.104 326.18 71.32 329.732 71.32ZM348.354 71.288C350.018 71.288 351.202 70.904 352.258 70.296V66.392C351.522 66.776 350.69 67 349.762 67C348.578 67 348.034 66.424 348.034 65.176V57.368H352.322V53.208H348.034V48.6H343.17V53.208H341.026V57.368H343.17V65.976C343.17 70.072 345.282 71.288 348.354 71.288ZM356.401 71H361.265V64.376C361.265 60.056 363.409 57.976 366.801 57.976H367.057V52.888C364.049 52.76 362.321 54.392 361.265 56.888V53.208H356.401V71ZM378.729 71.384C384.265 71.384 388.361 67.256 388.361 62.136V62.072C388.361 56.984 384.297 52.888 378.825 52.888C373.289 52.888 369.193 57.048 369.193 62.136V62.2C369.193 67.32 373.257 71.384 378.729 71.384ZM378.825 67.224C375.945 67.224 373.993 64.856 373.993 62.136V62.072C373.993 59.352 375.785 57.08 378.729 57.08C381.609 57.08 383.561 59.416 383.561 62.136V62.2C383.561 64.92 381.769 67.224 378.825 67.224ZM392.37 71H397.234V65.656L399.154 63.608L403.858 71H409.49L402.418 60.28L409.266 53.208H403.442L397.234 59.96V46.712H392.37V71ZM419.816 71.384C423.048 71.384 425.416 70.136 427.08 68.088L424.296 65.624C422.888 66.936 421.64 67.48 419.88 67.48C417.544 67.48 415.88 66.232 415.4 63.8H427.912C427.944 63.352 427.976 62.904 427.976 62.52C427.976 57.464 425.224 52.888 419.336 52.888C414.184 52.888 410.568 57.048 410.568 62.136V62.2C410.568 67.64 414.504 71.384 419.816 71.384ZM415.336 60.76C415.72 58.36 417.16 56.792 419.336 56.792C421.576 56.792 422.92 58.424 423.24 60.76H415.336ZM448.292 71H453.22V52.248H460.356V47.704H441.124V52.248H448.292V71ZM468.879 71.384C472.111 71.384 474.479 70.136 476.142 68.088L473.359 65.624C471.951 66.936 470.703 67.48 468.943 67.48C466.607 67.48 464.943 66.232 464.463 63.8H476.975C477.007 63.352 477.039 62.904 477.039 62.52C477.039 57.464 474.287 52.888 468.399 52.888C463.247 52.888 459.631 57.048 459.631 62.136V62.2C459.631 67.64 463.567 71.384 468.879 71.384ZM464.399 60.76C464.783 58.36 466.223 56.792 468.399 56.792C470.639 56.792 471.983 58.424 472.303 60.76H464.399ZM481.088 71H485.952V64.376C485.952 60.056 488.096 57.976 491.488 57.976H491.744V52.888C488.736 52.76 487.008 54.392 485.952 56.888V53.208H481.088V71ZM495.245 71H500.109V61.048C500.109 58.616 501.357 57.272 503.309 57.272C505.261 57.272 506.381 58.584 506.381 61.048V71H511.245V61.048C511.245 58.584 512.493 57.272 514.445 57.272C516.429 57.272 517.517 58.584 517.517 61.048V71H522.381V59.48C522.381 55.16 520.109 52.888 516.333 52.888C513.869 52.888 511.981 53.912 510.444 55.768C509.517 53.944 507.757 52.888 505.389 52.888C502.797 52.888 501.26 54.264 500.109 55.768V53.208H495.245V71ZM527.216 51.096H532.336V46.744H527.216V51.096ZM527.376 71H532.208V53.208H527.376V71ZM537.338 71H542.202V61.048C542.202 58.584 543.514 57.272 545.53 57.272C547.546 57.272 548.73 58.584 548.73 61.048V71H553.594V59.512C553.594 55.416 551.322 52.888 547.482 52.888C544.89 52.888 543.354 54.264 542.202 55.768V53.208H537.338V71ZM564.835 67.96C563.139 67.96 561.923 67.128 561.923 65.688V65.624C561.923 63.992 563.299 63.064 565.539 63.064C566.851 63.064 568.035 63.352 568.931 63.736V64.696C568.931 66.616 567.267 67.96 564.835 67.96ZM563.395 71.352C565.891 71.352 567.619 70.392 568.835 69.016V71H573.539V60.632C573.539 58.264 572.931 56.312 571.619 55C570.339 53.752 568.355 53.016 565.635 53.016C562.659 53.016 560.707 53.592 558.755 54.456L559.971 58.168C561.603 57.56 563.011 57.176 564.931 57.176C567.523 57.176 568.867 58.36 568.867 60.536V60.856C567.587 60.44 566.275 60.152 564.419 60.152C560.195 60.152 557.219 61.944 557.219 65.816V65.88C557.219 69.4 560.035 71.352 563.395 71.352ZM578.501 71H583.333V46.712H578.501V71ZM594.671 71.32C598.511 71.32 601.455 69.528 601.455 65.624V65.56C601.455 62.296 598.543 61.112 596.047 60.312C594.095 59.64 592.335 59.16 592.335 58.104V58.04C592.335 57.272 593.039 56.696 594.319 56.696C595.663 56.696 597.423 57.336 599.183 58.36L601.039 55C599.119 53.72 596.687 52.952 594.447 52.952C590.863 52.952 587.951 54.968 587.951 58.552V58.616C587.951 62.04 590.799 63.192 593.327 63.928C595.311 64.536 597.071 64.92 597.071 66.072V66.136C597.071 67 596.335 67.576 594.799 67.576C593.135 67.576 591.087 66.84 589.167 65.432L587.055 68.664C589.391 70.488 592.175 71.32 594.671 71.32Z" fill="#DE3636"/>
<path d="M304.2 262C304.2 283.65 286.65 301.2 265 301.2C243.35 301.2 225.8 283.65 225.8 262C225.8 240.35 243.35 222.8 265 222.8C286.65 222.8 304.2 240.35 304.2 262Z" fill="#DE3636" fill-opacity="0.3" stroke="#DE3636" stroke-width="1.6"/>
<path d="M304.2 456C304.2 477.65 286.65 495.2 265 495.2C243.35 495.2 225.8 477.65 225.8 456C225.8 434.35 243.35 416.8 265 416.8C286.65 416.8 304.2 434.35 304.2 456Z" fill="#DE3636" fill-opacity="0.3" stroke="#DE3636" stroke-width="1.6"/>
<path d="M497.2 262C497.2 283.65 479.65 301.2 458 301.2C436.35 301.2 418.8 283.65 418.8 262C418.8 240.35 436.35 222.8 458 222.8C479.65 222.8 497.2 240.35 497.2 262Z" fill="#DE3636" fill-opacity="0.3" stroke="#DE3636" stroke-width="1.6"/>
<path d="M497.2 456C497.2 477.65 479.65 495.2 458 495.2C436.35 495.2 418.8 477.65 418.8 456C418.8 434.35 436.35 416.8 458 416.8C479.65 416.8 497.2 434.35 497.2 456Z" fill="#DE3636" fill-opacity="0.3" stroke="#DE3636" stroke-width="1.6"/>
</svg>
