<svg width="720" height="720" viewBox="0 0 720 720" fill="none" xmlns="http://www.w3.org/2000/svg">
<g clip-path="url(#clip0)">
<rect width="480" height="480" transform="translate(120 120)" fill="white"/>
<g opacity="0.4">
<g opacity="0.2">
<rect x="580" y="120" width="20" height="480" stroke="black"/>
<rect x="560" y="120" width="20" height="480" stroke="black"/>
<rect x="540" y="120" width="20" height="480" stroke="black"/>
<rect x="520" y="120" width="20" height="480" stroke="black"/>
<rect x="500" y="120" width="20" height="480" stroke="black"/>
<rect x="480" y="120" width="20" height="480" stroke="black"/>
<rect x="460" y="120" width="20" height="480" stroke="black"/>
<rect x="440" y="120" width="20" height="480" stroke="black"/>
<rect x="420" y="120" width="20" height="480" stroke="black"/>
<rect x="400" y="120" width="20" height="480" stroke="black"/>
<rect x="380" y="120" width="20" height="480" stroke="black"/>
<rect x="360" y="120" width="20" height="480" stroke="black"/>
<rect x="340" y="120" width="20" height="480" stroke="black"/>
<rect x="320" y="120" width="20" height="480" stroke="black"/>
<rect x="300" y="120" width="20" height="480" stroke="black"/>
<rect x="280" y="120" width="20" height="480" stroke="black"/>
<rect x="260" y="120" width="20" height="480" stroke="black"/>
<rect x="240" y="120" width="20" height="480" stroke="black"/>
<rect x="220" y="120" width="20" height="480" stroke="black"/>
<rect x="200" y="120" width="20" height="480" stroke="black"/>
<rect x="180" y="120" width="20" height="480" stroke="black"/>
<rect x="160" y="120" width="20" height="480" stroke="black"/>
<rect x="140" y="120" width="20" height="480" stroke="black"/>
<rect x="120" y="120" width="20" height="480" stroke="black"/>
</g>
<g opacity="0.2">
<rect x="600" y="580" width="20" height="480" transform="rotate(90 600 580)" stroke="black"/>
<rect x="600" y="560" width="20" height="480" transform="rotate(90 600 560)" stroke="black"/>
<rect x="600" y="540" width="20" height="480" transform="rotate(90 600 540)" stroke="black"/>
<rect x="600" y="520" width="20" height="480" transform="rotate(90 600 520)" stroke="black"/>
<rect x="600" y="500" width="20" height="480" transform="rotate(90 600 500)" stroke="black"/>
<rect x="600" y="480" width="20" height="480" transform="rotate(90 600 480)" stroke="black"/>
<rect x="600" y="460" width="20" height="480" transform="rotate(90 600 460)" stroke="black"/>
<rect x="600" y="440" width="20" height="480" transform="rotate(90 600 440)" stroke="black"/>
<rect x="600" y="420" width="20" height="480" transform="rotate(90 600 420)" stroke="black"/>
<rect x="600" y="400" width="20" height="480" transform="rotate(90 600 400)" stroke="black"/>
<rect x="600" y="380" width="20" height="480" transform="rotate(90 600 380)" stroke="black"/>
<rect x="600" y="360" width="20" height="480" transform="rotate(90 600 360)" stroke="black"/>
<rect x="600" y="340" width="20" height="480" transform="rotate(90 600 340)" stroke="black"/>
<rect x="600" y="320" width="20" height="480" transform="rotate(90 600 320)" stroke="black"/>
<rect x="600" y="300" width="20" height="480" transform="rotate(90 600 300)" stroke="black"/>
<rect x="600" y="280" width="20" height="480" transform="rotate(90 600 280)" stroke="black"/>
<rect x="600" y="260" width="20" height="480" transform="rotate(90 600 260)" stroke="black"/>
<rect x="600" y="240" width="20" height="480" transform="rotate(90 600 240)" stroke="black"/>
<rect x="600" y="220" width="20" height="480" transform="rotate(90 600 220)" stroke="black"/>
<rect x="600" y="200" width="20" height="480" transform="rotate(90 600 200)" stroke="black"/>
<rect x="600" y="180" width="20" height="480" transform="rotate(90 600 180)" stroke="black"/>
<rect x="600" y="160" width="20" height="480" transform="rotate(90 600 160)" stroke="black"/>
<rect x="600" y="140" width="20" height="480" transform="rotate(90 600 140)" stroke="black"/>
<rect x="600" y="120" width="20" height="480" transform="rotate(90 600 120)" stroke="black"/>
</g>
</g>
<rect x="121" y="121" width="478" height="478" stroke="#AAAAAA" stroke-width="2"/>
<mask id="mask0" mask-type="alpha" maskUnits="userSpaceOnUse" x="120" y="120" width="480" height="480">
<rect x="120" y="120" width="480" height="480" fill="white"/>
</mask>
<g mask="url(#mask0)">
<g opacity="0.3">
<path d="M600 120L120 600" stroke="black" stroke-width="3"/>
<path d="M120 120L600 600" stroke="black" stroke-width="3"/>
<path fill-rule="evenodd" clip-rule="evenodd" d="M360 460C415.228 460 460 415.228 460 360C460 304.772 415.228 260 360 260C304.772 260 260 304.772 260 360C260 415.228 304.772 460 360 460Z" stroke="black" stroke-width="3"/>
<path d="M360 120V600" stroke="black" stroke-width="3"/>
<path d="M280 120V600" stroke="black" stroke-width="3"/>
<path d="M440 120V600" stroke="black" stroke-width="3"/>
<path d="M120 360H600" stroke="black" stroke-width="3"/>
<path d="M120 440H600" stroke="black" stroke-width="3"/>
<path d="M120 280H600" stroke="black" stroke-width="3"/>
</g>
<g opacity="0.7">
<path fill-rule="evenodd" clip-rule="evenodd" d="M360 560C470.457 560 560 470.457 560 360C560 249.543 470.457 160 360 160C249.543 160 160 249.543 160 360C160 470.457 249.543 560 360 560Z" stroke="black" stroke-width="3"/>
<rect x="160" y="200" width="400" height="320" rx="16" stroke="black" stroke-width="3"/>
<rect x="200" y="160" width="320" height="400" rx="16" stroke="black" stroke-width="3"/>
<rect x="540" y="180" width="360" height="360" rx="16" transform="rotate(90 540 180)" stroke="black" stroke-width="3"/>
</g>
</g>
<rect opacity="0.3" x="160" y="160" width="400" height="400" fill="#137BC2"/>
<rect x="160" y="608" width="2" height="40" fill="#137BC2"/>
<path d="M328.777 679H341.641V675.808H333.889L336.889 673.456C339.985 671.032 341.473 669.568 341.473 666.688V666.64C341.473 663.4 339.073 661.288 335.497 661.288C332.377 661.288 330.721 662.56 329.017 664.912L331.609 666.976C332.905 665.368 333.865 664.576 335.257 664.576C336.673 664.576 337.705 665.416 337.705 666.952C337.705 668.416 336.841 669.4 334.633 671.248L328.777 676.072V679ZM352.328 679.288C356.984 679.288 360.08 675.304 360.08 670.264V670.216C360.08 665.152 356.984 661.24 352.376 661.24C347.744 661.24 344.624 665.224 344.624 670.264V670.312C344.624 675.376 347.672 679.288 352.328 679.288ZM352.376 675.976C349.976 675.976 348.416 673.504 348.416 670.264V670.216C348.416 666.976 349.952 664.552 352.328 664.552C354.704 664.552 356.288 667.048 356.288 670.264V670.312C356.288 673.528 354.776 675.976 352.376 675.976ZM370.319 676.144C368.495 676.144 366.959 674.632 366.959 672.352V672.304C366.959 670.024 368.495 668.512 370.319 668.512C372.143 668.512 373.679 670.024 373.679 672.304V672.352C373.679 674.68 372.143 676.144 370.319 676.144ZM363.359 682.984H367.007V677.2C367.919 678.304 369.191 679.264 371.231 679.264C374.399 679.264 377.327 676.792 377.327 672.352V672.304C377.327 667.864 374.351 665.416 371.231 665.416C369.239 665.416 367.943 666.376 367.007 667.648V665.656H363.359V682.984ZM382.601 665.656H378.689L383.225 672.208L378.497 679H382.313L385.121 674.704L387.929 679H391.841L387.113 672.16L391.649 665.656H387.833L385.193 669.664L382.601 665.656Z" fill="#137BC2"/>
<rect x="558" y="608" width="2" height="40" fill="#137BC2"/>
<rect x="608" y="558" width="40" height="2" fill="#137BC2"/>
<rect x="608" y="160" width="40" height="2" fill="#137BC2"/>
<path d="M657.32 367H670.184V363.808H662.432L665.432 361.456C668.528 359.032 670.016 357.568 670.016 354.688V354.64C670.016 351.4 667.616 349.288 664.04 349.288C660.92 349.288 659.264 350.56 657.56 352.912L660.152 354.976C661.448 353.368 662.408 352.576 663.8 352.576C665.216 352.576 666.248 353.416 666.248 354.952C666.248 356.416 665.384 357.4 663.176 359.248L657.32 364.072V367ZM680.871 367.288C685.527 367.288 688.623 363.304 688.623 358.264V358.216C688.623 353.152 685.527 349.24 680.919 349.24C676.287 349.24 673.167 353.224 673.167 358.264V358.312C673.167 363.376 676.215 367.288 680.871 367.288ZM680.919 363.976C678.519 363.976 676.959 361.504 676.959 358.264V358.216C676.959 354.976 678.495 352.552 680.871 352.552C683.247 352.552 684.831 355.048 684.831 358.264V358.312C684.831 361.528 683.319 363.976 680.919 363.976ZM698.862 364.144C697.038 364.144 695.502 362.632 695.502 360.352V360.304C695.502 358.024 697.038 356.512 698.862 356.512C700.686 356.512 702.222 358.024 702.222 360.304V360.352C702.222 362.68 700.686 364.144 698.862 364.144ZM691.902 370.984H695.55V365.2C696.462 366.304 697.734 367.264 699.774 367.264C702.942 367.264 705.87 364.792 705.87 360.352V360.304C705.87 355.864 702.894 353.416 699.774 353.416C697.782 353.416 696.486 354.376 695.55 355.648V353.656H691.902V370.984ZM711.144 353.656H707.232L711.768 360.208L707.04 367H710.856L713.664 362.704L716.472 367H720.384L715.656 360.16L720.192 353.656H716.376L713.736 357.664L711.144 353.656Z" fill="#137BC2"/>
<path d="M282.054 71H298.694V66.52H286.95V47.704H282.054V71ZM302.45 51.096H307.57V46.744H302.45V51.096ZM302.61 71H307.442V53.208H302.61V71ZM318.045 71.128H322.429L329.501 53.208H324.445L320.253 65.368L316.125 53.208H310.973L318.045 71.128ZM340.144 71.384C343.376 71.384 345.744 70.136 347.408 68.088L344.624 65.624C343.216 66.936 341.968 67.48 340.208 67.48C337.872 67.48 336.208 66.232 335.728 63.8H348.24C348.272 63.352 348.304 62.904 348.304 62.52C348.304 57.464 345.552 52.888 339.664 52.888C334.512 52.888 330.896 57.048 330.896 62.136V62.2C330.896 67.64 334.832 71.384 340.144 71.384ZM335.664 60.76C336.048 58.36 337.488 56.792 339.664 56.792C341.904 56.792 343.248 58.424 343.568 60.76H335.664ZM370.092 61.336L373.388 53.432L376.652 61.336H370.092ZM361.132 71H366.156L368.332 65.688H378.412L380.588 71H385.74L375.724 47.544H371.18L361.132 71ZM389.166 71H394.03V64.376C394.03 60.056 396.174 57.976 399.566 57.976H399.822V52.888C396.814 52.76 395.086 54.392 394.03 56.888V53.208H389.166V71ZM411.207 71.384C414.439 71.384 416.807 70.136 418.471 68.088L415.687 65.624C414.279 66.936 413.031 67.48 411.271 67.48C408.935 67.48 407.271 66.232 406.791 63.8H419.303C419.335 63.352 419.367 62.904 419.367 62.52C419.367 57.464 416.615 52.888 410.727 52.888C405.575 52.888 401.959 57.048 401.959 62.136V62.2C401.959 67.64 405.895 71.384 411.207 71.384ZM406.727 60.76C407.111 58.36 408.551 56.792 410.727 56.792C412.967 56.792 414.311 58.424 414.631 60.76H406.727ZM429.944 67.96C428.248 67.96 427.032 67.128 427.032 65.688V65.624C427.032 63.992 428.408 63.064 430.648 63.064C431.96 63.064 433.144 63.352 434.04 63.736V64.696C434.04 66.616 432.376 67.96 429.944 67.96ZM428.504 71.352C431 71.352 432.728 70.392 433.944 69.016V71H438.648V60.632C438.648 58.264 438.04 56.312 436.728 55C435.448 53.752 433.464 53.016 430.744 53.016C427.768 53.016 425.816 53.592 423.864 54.456L425.08 58.168C426.712 57.56 428.12 57.176 430.04 57.176C432.632 57.176 433.976 58.36 433.976 60.536V60.856C432.696 60.44 431.384 60.152 429.528 60.152C425.304 60.152 422.328 61.944 422.328 65.816V65.88C422.328 69.4 425.144 71.352 428.504 71.352Z" fill="#137BC2"/>
</g>
<defs>
<clipPath id="clip0">
<rect width="720" height="720" fill="white"/>
</clipPath>
</defs>
</svg>
