<svg width="720" height="720" viewBox="0 0 720 720" fill="none" xmlns="http://www.w3.org/2000/svg">
<rect width="480" height="480" transform="translate(120 120)" fill="white"/>
<g opacity="0.4">
<g opacity="0.2">
<rect x="580" y="120" width="20" height="480" stroke="black"/>
<rect x="560" y="120" width="20" height="480" stroke="black"/>
<rect x="540" y="120" width="20" height="480" stroke="black"/>
<rect x="520" y="120" width="20" height="480" stroke="black"/>
<rect x="500" y="120" width="20" height="480" stroke="black"/>
<rect x="480" y="120" width="20" height="480" stroke="black"/>
<rect x="460" y="120" width="20" height="480" stroke="black"/>
<rect x="440" y="120" width="20" height="480" stroke="black"/>
<rect x="420" y="120" width="20" height="480" stroke="black"/>
<rect x="400" y="120" width="20" height="480" stroke="black"/>
<rect x="380" y="120" width="20" height="480" stroke="black"/>
<rect x="360" y="120" width="20" height="480" stroke="black"/>
<rect x="340" y="120" width="20" height="480" stroke="black"/>
<rect x="320" y="120" width="20" height="480" stroke="black"/>
<rect x="300" y="120" width="20" height="480" stroke="black"/>
<rect x="280" y="120" width="20" height="480" stroke="black"/>
<rect x="260" y="120" width="20" height="480" stroke="black"/>
<rect x="240" y="120" width="20" height="480" stroke="black"/>
<rect x="220" y="120" width="20" height="480" stroke="black"/>
<rect x="200" y="120" width="20" height="480" stroke="black"/>
<rect x="180" y="120" width="20" height="480" stroke="black"/>
<rect x="160" y="120" width="20" height="480" stroke="black"/>
<rect x="140" y="120" width="20" height="480" stroke="black"/>
<rect x="120" y="120" width="20" height="480" stroke="black"/>
</g>
<g opacity="0.2">
<rect x="600" y="580" width="20" height="480" transform="rotate(90 600 580)" stroke="black"/>
<rect x="600" y="560" width="20" height="480" transform="rotate(90 600 560)" stroke="black"/>
<rect x="600" y="540" width="20" height="480" transform="rotate(90 600 540)" stroke="black"/>
<rect x="600" y="520" width="20" height="480" transform="rotate(90 600 520)" stroke="black"/>
<rect x="600" y="500" width="20" height="480" transform="rotate(90 600 500)" stroke="black"/>
<rect x="600" y="480" width="20" height="480" transform="rotate(90 600 480)" stroke="black"/>
<rect x="600" y="460" width="20" height="480" transform="rotate(90 600 460)" stroke="black"/>
<rect x="600" y="440" width="20" height="480" transform="rotate(90 600 440)" stroke="black"/>
<rect x="600" y="420" width="20" height="480" transform="rotate(90 600 420)" stroke="black"/>
<rect x="600" y="400" width="20" height="480" transform="rotate(90 600 400)" stroke="black"/>
<rect x="600" y="380" width="20" height="480" transform="rotate(90 600 380)" stroke="black"/>
<rect x="600" y="360" width="20" height="480" transform="rotate(90 600 360)" stroke="black"/>
<rect x="600" y="340" width="20" height="480" transform="rotate(90 600 340)" stroke="black"/>
<rect x="600" y="320" width="20" height="480" transform="rotate(90 600 320)" stroke="black"/>
<rect x="600" y="300" width="20" height="480" transform="rotate(90 600 300)" stroke="black"/>
<rect x="600" y="280" width="20" height="480" transform="rotate(90 600 280)" stroke="black"/>
<rect x="600" y="260" width="20" height="480" transform="rotate(90 600 260)" stroke="black"/>
<rect x="600" y="240" width="20" height="480" transform="rotate(90 600 240)" stroke="black"/>
<rect x="600" y="220" width="20" height="480" transform="rotate(90 600 220)" stroke="black"/>
<rect x="600" y="200" width="20" height="480" transform="rotate(90 600 200)" stroke="black"/>
<rect x="600" y="180" width="20" height="480" transform="rotate(90 600 180)" stroke="black"/>
<rect x="600" y="160" width="20" height="480" transform="rotate(90 600 160)" stroke="black"/>
<rect x="600" y="140" width="20" height="480" transform="rotate(90 600 140)" stroke="black"/>
<rect x="600" y="120" width="20" height="480" transform="rotate(90 600 120)" stroke="black"/>
</g>
</g>
<rect x="121" y="121" width="478" height="478" stroke="#AAAAAA" stroke-width="2"/>
<g opacity="0.4">
<path d="M472.929 275.271C476.834 271.366 476.834 265.034 472.929 261.129L458.871 247.071C454.966 243.166 448.634 243.166 444.729 247.071L360 331.8L275.271 247.071C271.366 243.166 265.034 243.166 261.129 247.071L247.071 261.129C243.166 265.034 243.166 271.366 247.071 275.271L331.8 360L247.071 444.729C243.166 448.634 243.166 454.966 247.071 458.871L261.129 472.929C265.034 476.834 271.366 476.834 275.271 472.929L360 388.2L444.729 472.929C448.634 476.834 454.966 476.834 458.871 472.929L472.929 458.871C476.834 454.966 476.834 448.634 472.929 444.729L388.2 360L472.929 275.271Z" fill="black"/>
</g>
<path d="M461 466C461 470.971 456.971 475 452 475C447.029 475 443 470.971 443 466C443 461.029 447.029 457 452 457C456.971 457 461 461.029 461 466Z" fill="#137BC2" fill-opacity="0.3" stroke="#137BC2" stroke-width="2"/>
<path d="M475 452C475 456.971 470.971 461 466 461C461.029 461 457 456.971 457 452C457 447.029 461.029 443 466 443C470.971 443 475 447.029 475 452Z" fill="#137BC2" fill-opacity="0.3" stroke="#137BC2" stroke-width="2"/>
<path d="M263 452C263 456.971 258.971 461 254 461C249.029 461 245 456.971 245 452C245 447.029 249.029 443 254 443C258.971 443 263 447.029 263 452Z" fill="#137BC2" fill-opacity="0.3" stroke="#137BC2" stroke-width="2"/>
<path d="M277 466C277 470.971 272.971 475 268 475C263.029 475 259 470.971 259 466C259 461.029 263.029 457 268 457C272.971 457 277 461.029 277 466Z" fill="#137BC2" fill-opacity="0.3" stroke="#137BC2" stroke-width="2"/>
<path d="M277 254C277 258.971 272.971 263 268 263C263.029 263 259 258.971 259 254C259 249.029 263.029 245 268 245C272.971 245 277 249.029 277 254Z" fill="#137BC2" fill-opacity="0.3" stroke="#137BC2" stroke-width="2"/>
<path d="M461 254C461 258.971 456.971 263 452 263C447.029 263 443 258.971 443 254C443 249.029 447.029 245 452 245C456.971 245 461 249.029 461 254Z" fill="#137BC2" fill-opacity="0.3" stroke="#137BC2" stroke-width="2"/>
<path d="M475 268C475 272.971 470.971 277 466 277C461.029 277 457 272.971 457 268C457 263.029 461.029 259 466 259C470.971 259 475 263.029 475 268Z" fill="#137BC2" fill-opacity="0.3" stroke="#137BC2" stroke-width="2"/>
<path d="M263 268C263 272.971 258.971 277 254 277C249.029 277 245 272.971 245 268C245 263.029 249.029 259 254 259C258.971 259 263 263.029 263 268Z" fill="#137BC2" fill-opacity="0.3" stroke="#137BC2" stroke-width="2"/>
<rect x="466" y="258" width="166" height="2" fill="#137BC2"/>
<path d="M648.668 277.288C653.324 277.288 656.42 273.304 656.42 268.264V268.216C656.42 263.152 653.324 259.24 648.716 259.24C644.084 259.24 640.964 263.224 640.964 268.264V268.312C640.964 273.376 644.012 277.288 648.668 277.288ZM648.716 273.976C646.316 273.976 644.756 271.504 644.756 268.264V268.216C644.756 264.976 646.292 262.552 648.668 262.552C651.044 262.552 652.628 265.048 652.628 268.264V268.312C652.628 271.528 651.116 273.976 648.716 273.976ZM659.039 277H662.927V273.112H659.039V277ZM672.306 277.288C676.29 277.288 678.906 274.96 678.906 271.288V271.24C678.906 267.352 676.194 265.672 672.81 265.672C671.802 265.672 671.13 265.816 670.41 266.008L670.626 262.768H678.138V259.528H667.458L666.954 268.12L669.114 269.56C669.954 269.2 670.962 268.888 672.09 268.888C673.986 268.888 675.282 269.8 675.282 271.36V271.408C675.282 273.016 674.106 273.952 672.258 273.952C670.698 273.952 669.378 273.232 668.034 272.008L665.802 274.672C667.482 276.28 669.546 277.288 672.306 277.288ZM689.276 274.144C687.452 274.144 685.916 272.632 685.916 270.352V270.304C685.916 268.024 687.452 266.512 689.276 266.512C691.1 266.512 692.636 268.024 692.636 270.304V270.352C692.636 272.68 691.1 274.144 689.276 274.144ZM682.316 280.984H685.964V275.2C686.876 276.304 688.148 277.264 690.188 277.264C693.356 277.264 696.284 274.792 696.284 270.352V270.304C696.284 265.864 693.308 263.416 690.188 263.416C688.196 263.416 686.9 264.376 685.964 265.648V263.656H682.316V280.984ZM701.558 263.656H697.646L702.182 270.208L697.454 277H701.27L704.078 272.704L706.886 277H710.798L706.07 270.16L710.606 263.656H706.79L704.15 267.664L701.558 263.656Z" fill="#137BC2"/>
<rect x="466" y="276" width="166" height="2" fill="#137BC2"/>
<rect x="119.228" y="93.772" width="2" height="338.697" transform="rotate(-45 119.228 93.772)" fill="#137BC2"/>
<rect x="92.3579" y="120.642" width="2" height="338.697" transform="rotate(-45 92.3579 120.642)" fill="#137BC2"/>
<path d="M64.9645 105.87H77.8285V102.678H70.0765L73.0765 100.326C76.1725 97.9021 77.6605 96.4381 77.6605 93.5581V93.5101C77.6605 90.2701 75.2605 88.1581 71.6845 88.1581C68.5645 88.1581 66.9085 89.4301 65.2045 91.7821L67.7965 93.8461C69.0925 92.2381 70.0525 91.4461 71.4445 91.4461C72.8605 91.4461 73.8925 92.2861 73.8925 93.8221C73.8925 95.2861 73.0285 96.2701 70.8205 98.1181L64.9645 102.942V105.87ZM88.1317 103.014C86.3077 103.014 84.7717 101.502 84.7717 99.2221V99.1741C84.7717 96.8941 86.3077 95.3821 88.1317 95.3821C89.9557 95.3821 91.4917 96.8941 91.4917 99.1741V99.2221C91.4917 101.55 89.9557 103.014 88.1317 103.014ZM81.1717 109.854H84.8197V104.07C85.7317 105.174 87.0037 106.134 89.0437 106.134C92.2117 106.134 95.1397 103.662 95.1397 99.2221V99.1741C95.1397 94.7341 92.1637 92.2861 89.0437 92.2861C87.0517 92.2861 85.7557 93.2461 84.8197 94.5181V92.5261H81.1717V109.854ZM100.413 92.5261H96.5013L101.037 99.0781L96.3093 105.87H100.125L102.933 101.574L105.741 105.87H109.653L104.925 99.0301L109.461 92.5261H105.645L103.005 96.5341L100.413 92.5261Z" fill="#137BC2"/>
</svg>
