<svg width="720" height="720" viewBox="0 0 720 720" fill="none" xmlns="http://www.w3.org/2000/svg">
<rect width="480" height="480" transform="translate(120 120)" fill="white"/>
<g opacity="0.4">
<g opacity="0.2">
<rect x="580" y="120" width="20" height="480" stroke="black"/>
<rect x="560" y="120" width="20" height="480" stroke="black"/>
<rect x="540" y="120" width="20" height="480" stroke="black"/>
<rect x="520" y="120" width="20" height="480" stroke="black"/>
<rect x="500" y="120" width="20" height="480" stroke="black"/>
<rect x="480" y="120" width="20" height="480" stroke="black"/>
<rect x="460" y="120" width="20" height="480" stroke="black"/>
<rect x="440" y="120" width="20" height="480" stroke="black"/>
<rect x="420" y="120" width="20" height="480" stroke="black"/>
<rect x="400" y="120" width="20" height="480" stroke="black"/>
<rect x="380" y="120" width="20" height="480" stroke="black"/>
<rect x="360" y="120" width="20" height="480" stroke="black"/>
<rect x="340" y="120" width="20" height="480" stroke="black"/>
<rect x="320" y="120" width="20" height="480" stroke="black"/>
<rect x="300" y="120" width="20" height="480" stroke="black"/>
<rect x="280" y="120" width="20" height="480" stroke="black"/>
<rect x="260" y="120" width="20" height="480" stroke="black"/>
<rect x="240" y="120" width="20" height="480" stroke="black"/>
<rect x="220" y="120" width="20" height="480" stroke="black"/>
<rect x="200" y="120" width="20" height="480" stroke="black"/>
<rect x="180" y="120" width="20" height="480" stroke="black"/>
<rect x="160" y="120" width="20" height="480" stroke="black"/>
<rect x="140" y="120" width="20" height="480" stroke="black"/>
<rect x="120" y="120" width="20" height="480" stroke="black"/>
</g>
<g opacity="0.2">
<rect x="600" y="580" width="20" height="480" transform="rotate(90 600 580)" stroke="black"/>
<rect x="600" y="560" width="20" height="480" transform="rotate(90 600 560)" stroke="black"/>
<rect x="600" y="540" width="20" height="480" transform="rotate(90 600 540)" stroke="black"/>
<rect x="600" y="520" width="20" height="480" transform="rotate(90 600 520)" stroke="black"/>
<rect x="600" y="500" width="20" height="480" transform="rotate(90 600 500)" stroke="black"/>
<rect x="600" y="480" width="20" height="480" transform="rotate(90 600 480)" stroke="black"/>
<rect x="600" y="460" width="20" height="480" transform="rotate(90 600 460)" stroke="black"/>
<rect x="600" y="440" width="20" height="480" transform="rotate(90 600 440)" stroke="black"/>
<rect x="600" y="420" width="20" height="480" transform="rotate(90 600 420)" stroke="black"/>
<rect x="600" y="400" width="20" height="480" transform="rotate(90 600 400)" stroke="black"/>
<rect x="600" y="380" width="20" height="480" transform="rotate(90 600 380)" stroke="black"/>
<rect x="600" y="360" width="20" height="480" transform="rotate(90 600 360)" stroke="black"/>
<rect x="600" y="340" width="20" height="480" transform="rotate(90 600 340)" stroke="black"/>
<rect x="600" y="320" width="20" height="480" transform="rotate(90 600 320)" stroke="black"/>
<rect x="600" y="300" width="20" height="480" transform="rotate(90 600 300)" stroke="black"/>
<rect x="600" y="280" width="20" height="480" transform="rotate(90 600 280)" stroke="black"/>
<rect x="600" y="260" width="20" height="480" transform="rotate(90 600 260)" stroke="black"/>
<rect x="600" y="240" width="20" height="480" transform="rotate(90 600 240)" stroke="black"/>
<rect x="600" y="220" width="20" height="480" transform="rotate(90 600 220)" stroke="black"/>
<rect x="600" y="200" width="20" height="480" transform="rotate(90 600 200)" stroke="black"/>
<rect x="600" y="180" width="20" height="480" transform="rotate(90 600 180)" stroke="black"/>
<rect x="600" y="160" width="20" height="480" transform="rotate(90 600 160)" stroke="black"/>
<rect x="600" y="140" width="20" height="480" transform="rotate(90 600 140)" stroke="black"/>
<rect x="600" y="120" width="20" height="480" transform="rotate(90 600 120)" stroke="black"/>
</g>
</g>
<rect x="121" y="121" width="478" height="478" stroke="#AAAAAA" stroke-width="2"/>
<g opacity="0.4">
<path fill-rule="evenodd" clip-rule="evenodd" d="M160 300C160 288.954 168.954 280 180 280H540C551.046 280 560 288.954 560 300V540C560 551.046 551.046 560 540 560H180C168.954 560 160 551.046 160 540V300ZM200 320V520H520V320H200ZM320 377.662C320 369.889 328.48 365.088 335.145 369.087L405.708 411.425C412.182 415.309 412.182 424.691 405.708 428.575L335.145 470.913C328.48 474.912 320 470.111 320 462.338V377.662ZM200 240C200 228.954 208.954 220 220 220H500C511.046 220 520 228.954 520 240V260H200V240ZM240 180C240 168.954 248.954 160 260 160H460C471.046 160 480 168.954 480 180V200H240V180Z" fill="black"/>
</g>
<path d="M410 420C410 424.971 405.971 429 401 429C396.029 429 392 424.971 392 420C392 415.029 396.029 411 401 411C405.971 411 410 415.029 410 420Z" fill="#137BC2" fill-opacity="0.3" stroke="#137BC2" stroke-width="2"/>
<path d="M339 462C339 466.971 334.971 471 330 471C325.029 471 321 466.971 321 462C321 457.029 325.029 453 330 453C334.971 453 339 457.029 339 462Z" fill="#137BC2" fill-opacity="0.3" stroke="#137BC2" stroke-width="2"/>
<path d="M339 378C339 382.971 334.971 387 330 387C325.029 387 321 382.971 321 378C321 373.029 325.029 369 330 369C334.971 369 339 373.029 339 378Z" fill="#137BC2" fill-opacity="0.3" stroke="#137BC2" stroke-width="2"/>
<rect x="401" y="410" width="231" height="2" fill="#137BC2"/>
<path d="M649.168 429.288C653.824 429.288 656.92 425.304 656.92 420.264V420.216C656.92 415.152 653.824 411.24 649.216 411.24C644.584 411.24 641.464 415.224 641.464 420.264V420.312C641.464 425.376 644.512 429.288 649.168 429.288ZM649.216 425.976C646.816 425.976 645.256 423.504 645.256 420.264V420.216C645.256 416.976 646.792 414.552 649.168 414.552C651.544 414.552 653.128 417.048 653.128 420.264V420.312C653.128 423.528 651.616 425.976 649.216 425.976ZM659.539 429H663.427V425.112H659.539V429ZM672.806 429.288C676.79 429.288 679.406 426.96 679.406 423.288V423.24C679.406 419.352 676.694 417.672 673.31 417.672C672.302 417.672 671.63 417.816 670.91 418.008L671.126 414.768H678.638V411.528H667.958L667.454 420.12L669.614 421.56C670.454 421.2 671.462 420.888 672.59 420.888C674.486 420.888 675.782 421.8 675.782 423.36V423.408C675.782 425.016 674.606 425.952 672.758 425.952C671.198 425.952 669.878 425.232 668.534 424.008L666.302 426.672C667.982 428.28 670.046 429.288 672.806 429.288ZM689.776 426.144C687.952 426.144 686.416 424.632 686.416 422.352V422.304C686.416 420.024 687.952 418.512 689.776 418.512C691.6 418.512 693.136 420.024 693.136 422.304V422.352C693.136 424.68 691.6 426.144 689.776 426.144ZM682.816 432.984H686.464V427.2C687.376 428.304 688.648 429.264 690.688 429.264C693.856 429.264 696.784 426.792 696.784 422.352V422.304C696.784 417.864 693.808 415.416 690.688 415.416C688.696 415.416 687.4 416.376 686.464 417.648V415.656H682.816V432.984ZM702.058 415.656H698.146L702.682 422.208L697.954 429H701.77L704.578 424.704L707.386 429H711.298L706.57 422.16L711.106 415.656H707.29L704.65 419.664L702.058 415.656Z" fill="#137BC2"/>
<rect x="401" y="428" width="231" height="2" fill="#137BC2"/>
<path d="M159.32 74H172.184V70.808H164.432L167.432 68.456C170.528 66.032 172.016 64.568 172.016 61.688V61.64C172.016 58.4 169.616 56.288 166.04 56.288C162.92 56.288 161.264 57.56 159.56 59.912L162.152 61.976C163.448 60.368 164.408 59.576 165.8 59.576C167.216 59.576 168.248 60.416 168.248 61.952C168.248 63.416 167.384 64.4 165.176 66.248L159.32 71.072V74ZM182.487 71.144C180.663 71.144 179.127 69.632 179.127 67.352V67.304C179.127 65.024 180.663 63.512 182.487 63.512C184.311 63.512 185.847 65.024 185.847 67.304V67.352C185.847 69.68 184.311 71.144 182.487 71.144ZM175.527 77.984H179.175V72.2C180.087 73.304 181.359 74.264 183.399 74.264C186.567 74.264 189.495 71.792 189.495 67.352V67.304C189.495 62.864 186.519 60.416 183.399 60.416C181.407 60.416 180.111 61.376 179.175 62.648V60.656H175.527V77.984ZM194.769 60.656H190.857L195.393 67.208L190.665 74H194.481L197.289 69.704L200.097 74H204.009L199.281 67.16L203.817 60.656H200.001L197.361 64.664L194.769 60.656Z" fill="#137BC2"/>
<rect x="198" y="88" width="2" height="332" fill="#137BC2"/>
<rect x="160" y="88" width="2" height="332" fill="#137BC2"/>
<rect x="88" y="520" width="272" height="2" fill="#137BC2"/>
<path d="M34.32 546H47.184V542.808H39.432L42.432 540.456C45.528 538.032 47.016 536.568 47.016 533.688V533.64C47.016 530.4 44.616 528.288 41.04 528.288C37.92 528.288 36.264 529.56 34.56 531.912L37.152 533.976C38.448 532.368 39.408 531.576 40.8 531.576C42.216 531.576 43.248 532.416 43.248 533.952C43.248 535.416 42.384 536.4 40.176 538.248L34.32 543.072V546ZM57.4871 543.144C55.6631 543.144 54.1271 541.632 54.1271 539.352V539.304C54.1271 537.024 55.6631 535.512 57.4871 535.512C59.3111 535.512 60.8471 537.024 60.8471 539.304V539.352C60.8471 541.68 59.3111 543.144 57.4871 543.144ZM50.5271 549.984H54.1751V544.2C55.0871 545.304 56.3591 546.264 58.3991 546.264C61.5671 546.264 64.4951 543.792 64.4951 539.352V539.304C64.4951 534.864 61.5191 532.416 58.3991 532.416C56.4071 532.416 55.1111 533.376 54.1751 534.648V532.656H50.5271V549.984ZM69.7688 532.656H65.8568L70.3928 539.208L65.6648 546H69.4808L72.2888 541.704L75.0968 546H79.0088L74.2808 539.16L78.8168 532.656H75.0008L72.3608 536.664L69.7688 532.656Z" fill="#137BC2"/>
<rect x="88" y="558" width="272" height="2" fill="#137BC2"/>
<path d="M558.974 541C558.471 550.697 550.697 558.471 541 558.974V541H558.974Z" fill="#137BC2" fill-opacity="0.3" stroke="#137BC2" stroke-width="2"/>
<rect x="540" y="540" width="92" height="2" fill="#137BC2"/>
<path d="M644.536 559H648.184V541.408H645.664L640.696 542.896L641.464 545.92L644.536 545.152V559ZM659.378 556.144C657.554 556.144 656.018 554.632 656.018 552.352V552.304C656.018 550.024 657.554 548.512 659.378 548.512C661.202 548.512 662.738 550.024 662.738 552.304V552.352C662.738 554.68 661.202 556.144 659.378 556.144ZM652.418 562.984H656.066V557.2C656.978 558.304 658.25 559.264 660.29 559.264C663.458 559.264 666.386 556.792 666.386 552.352V552.304C666.386 547.864 663.41 545.416 660.29 545.416C658.298 545.416 657.002 546.376 656.066 547.648V545.656H652.418V562.984ZM671.659 545.656H667.747L672.283 552.208L667.555 559H671.371L674.179 554.704L676.987 559H680.899L676.171 552.16L680.707 545.656H676.891L674.251 549.664L671.659 545.656Z" fill="#137BC2"/>
<rect x="540" y="558" width="92" height="2" fill="#137BC2"/>
<path d="M461 179V161.026C470.697 161.529 478.471 169.303 478.974 179H461Z" fill="#137BC2" fill-opacity="0.3" stroke="#137BC2" stroke-width="2"/>
<rect x="460" y="160" width="172" height="2" fill="#137BC2"/>
<path d="M644.536 179H648.184V161.408H645.664L640.696 162.896L641.464 165.92L644.536 165.152V179ZM659.378 176.144C657.554 176.144 656.018 174.632 656.018 172.352V172.304C656.018 170.024 657.554 168.512 659.378 168.512C661.202 168.512 662.738 170.024 662.738 172.304V172.352C662.738 174.68 661.202 176.144 659.378 176.144ZM652.418 182.984H656.066V177.2C656.978 178.304 658.25 179.264 660.29 179.264C663.458 179.264 666.386 176.792 666.386 172.352V172.304C666.386 167.864 663.41 165.416 660.29 165.416C658.298 165.416 657.002 166.376 656.066 167.648V165.656H652.418V182.984ZM671.659 165.656H667.747L672.283 172.208L667.555 179H671.371L674.179 174.704L676.987 179H680.899L676.171 172.16L680.707 165.656H676.891L674.251 169.664L671.659 165.656Z" fill="#137BC2"/>
<rect x="460" y="178" width="172" height="2" fill="#137BC2"/>
<path d="M501 239V221.026C510.697 221.529 518.471 229.303 518.974 239H501Z" fill="#137BC2" fill-opacity="0.3" stroke="#137BC2" stroke-width="2"/>
<rect x="500" y="220" width="132" height="2" fill="#137BC2"/>
<path d="M644.536 239H648.184V221.408H645.664L640.696 222.896L641.464 225.92L644.536 225.152V239ZM659.378 236.144C657.554 236.144 656.018 234.632 656.018 232.352V232.304C656.018 230.024 657.554 228.512 659.378 228.512C661.202 228.512 662.738 230.024 662.738 232.304V232.352C662.738 234.68 661.202 236.144 659.378 236.144ZM652.418 242.984H656.066V237.2C656.978 238.304 658.25 239.264 660.29 239.264C663.458 239.264 666.386 236.792 666.386 232.352V232.304C666.386 227.864 663.41 225.416 660.29 225.416C658.298 225.416 657.002 226.376 656.066 227.648V225.656H652.418V242.984ZM671.659 225.656H667.747L672.283 232.208L667.555 239H671.371L674.179 234.704L676.987 239H680.899L676.171 232.16L680.707 225.656H676.891L674.251 229.664L671.659 225.656Z" fill="#137BC2"/>
<rect x="500" y="238" width="132" height="2" fill="#137BC2"/>
<path d="M541 299V281.026C550.697 281.529 558.471 289.303 558.974 299H541Z" fill="#137BC2" fill-opacity="0.3" stroke="#137BC2" stroke-width="2"/>
<rect x="540" y="280" width="92" height="2" fill="#137BC2"/>
<path d="M644.536 299H648.184V281.408H645.664L640.696 282.896L641.464 285.92L644.536 285.152V299ZM659.378 296.144C657.554 296.144 656.018 294.632 656.018 292.352V292.304C656.018 290.024 657.554 288.512 659.378 288.512C661.202 288.512 662.738 290.024 662.738 292.304V292.352C662.738 294.68 661.202 296.144 659.378 296.144ZM652.418 302.984H656.066V297.2C656.978 298.304 658.25 299.264 660.29 299.264C663.458 299.264 666.386 296.792 666.386 292.352V292.304C666.386 287.864 663.41 285.416 660.29 285.416C658.298 285.416 657.002 286.376 656.066 287.648V285.656H652.418V302.984ZM671.659 285.656H667.747L672.283 292.208L667.555 299H671.371L674.179 294.704L676.987 299H680.899L676.171 292.16L680.707 285.656H676.891L674.251 289.664L671.659 285.656Z" fill="#137BC2"/>
<rect x="540" y="298" width="92" height="2" fill="#137BC2"/>
</svg>
