<svg width="720" height="720" viewBox="0 0 720 720" fill="none" xmlns="http://www.w3.org/2000/svg">
<rect width="480" height="480" transform="translate(120 120)" fill="white"/>
<g opacity="0.4">
<g opacity="0.2">
<rect x="580" y="120" width="20" height="480" stroke="black"/>
<rect x="560" y="120" width="20" height="480" stroke="black"/>
<rect x="540" y="120" width="20" height="480" stroke="black"/>
<rect x="520" y="120" width="20" height="480" stroke="black"/>
<rect x="500" y="120" width="20" height="480" stroke="black"/>
<rect x="480" y="120" width="20" height="480" stroke="black"/>
<rect x="460" y="120" width="20" height="480" stroke="black"/>
<rect x="440" y="120" width="20" height="480" stroke="black"/>
<rect x="420" y="120" width="20" height="480" stroke="black"/>
<rect x="400" y="120" width="20" height="480" stroke="black"/>
<rect x="380" y="120" width="20" height="480" stroke="black"/>
<rect x="360" y="120" width="20" height="480" stroke="black"/>
<rect x="340" y="120" width="20" height="480" stroke="black"/>
<rect x="320" y="120" width="20" height="480" stroke="black"/>
<rect x="300" y="120" width="20" height="480" stroke="black"/>
<rect x="280" y="120" width="20" height="480" stroke="black"/>
<rect x="260" y="120" width="20" height="480" stroke="black"/>
<rect x="240" y="120" width="20" height="480" stroke="black"/>
<rect x="220" y="120" width="20" height="480" stroke="black"/>
<rect x="200" y="120" width="20" height="480" stroke="black"/>
<rect x="180" y="120" width="20" height="480" stroke="black"/>
<rect x="160" y="120" width="20" height="480" stroke="black"/>
<rect x="140" y="120" width="20" height="480" stroke="black"/>
<rect x="120" y="120" width="20" height="480" stroke="black"/>
</g>
<g opacity="0.2">
<rect x="600" y="580" width="20" height="480" transform="rotate(90 600 580)" stroke="black"/>
<rect x="600" y="560" width="20" height="480" transform="rotate(90 600 560)" stroke="black"/>
<rect x="600" y="540" width="20" height="480" transform="rotate(90 600 540)" stroke="black"/>
<rect x="600" y="520" width="20" height="480" transform="rotate(90 600 520)" stroke="black"/>
<rect x="600" y="500" width="20" height="480" transform="rotate(90 600 500)" stroke="black"/>
<rect x="600" y="480" width="20" height="480" transform="rotate(90 600 480)" stroke="black"/>
<rect x="600" y="460" width="20" height="480" transform="rotate(90 600 460)" stroke="black"/>
<rect x="600" y="440" width="20" height="480" transform="rotate(90 600 440)" stroke="black"/>
<rect x="600" y="420" width="20" height="480" transform="rotate(90 600 420)" stroke="black"/>
<rect x="600" y="400" width="20" height="480" transform="rotate(90 600 400)" stroke="black"/>
<rect x="600" y="380" width="20" height="480" transform="rotate(90 600 380)" stroke="black"/>
<rect x="600" y="360" width="20" height="480" transform="rotate(90 600 360)" stroke="black"/>
<rect x="600" y="340" width="20" height="480" transform="rotate(90 600 340)" stroke="black"/>
<rect x="600" y="320" width="20" height="480" transform="rotate(90 600 320)" stroke="black"/>
<rect x="600" y="300" width="20" height="480" transform="rotate(90 600 300)" stroke="black"/>
<rect x="600" y="280" width="20" height="480" transform="rotate(90 600 280)" stroke="black"/>
<rect x="600" y="260" width="20" height="480" transform="rotate(90 600 260)" stroke="black"/>
<rect x="600" y="240" width="20" height="480" transform="rotate(90 600 240)" stroke="black"/>
<rect x="600" y="220" width="20" height="480" transform="rotate(90 600 220)" stroke="black"/>
<rect x="600" y="200" width="20" height="480" transform="rotate(90 600 200)" stroke="black"/>
<rect x="600" y="180" width="20" height="480" transform="rotate(90 600 180)" stroke="black"/>
<rect x="600" y="160" width="20" height="480" transform="rotate(90 600 160)" stroke="black"/>
<rect x="600" y="140" width="20" height="480" transform="rotate(90 600 140)" stroke="black"/>
<rect x="600" y="120" width="20" height="480" transform="rotate(90 600 120)" stroke="black"/>
</g>
</g>
<rect x="121" y="121" width="478" height="478" stroke="#AAAAAA" stroke-width="2"/>
<mask id="mask0" mask-type="alpha" maskUnits="userSpaceOnUse" x="120" y="120" width="480" height="480">
<rect x="120" y="120" width="480" height="480" fill="white"/>
</mask>
<g mask="url(#mask0)">
<g opacity="0.3">
<path d="M600 120L120 600" stroke="black" stroke-width="3"/>
<path d="M120 120L600 600" stroke="black" stroke-width="3"/>
<path fill-rule="evenodd" clip-rule="evenodd" d="M360 460C415.228 460 460 415.228 460 360C460 304.772 415.228 260 360 260C304.772 260 260 304.772 260 360C260 415.228 304.772 460 360 460Z" stroke="black" stroke-width="3"/>
<path d="M360 120V600" stroke="black" stroke-width="3"/>
<path d="M280 120V600" stroke="black" stroke-width="3"/>
<path d="M440 120V600" stroke="black" stroke-width="3"/>
<path d="M120 360H600" stroke="black" stroke-width="3"/>
<path d="M120 440H600" stroke="black" stroke-width="3"/>
<path d="M120 280H600" stroke="black" stroke-width="3"/>
</g>
<g opacity="0.7">
<path fill-rule="evenodd" clip-rule="evenodd" d="M360 560C470.457 560 560 470.457 560 360C560 249.543 470.457 160 360 160C249.543 160 160 249.543 160 360C160 470.457 249.543 560 360 560Z" stroke="black" stroke-width="3"/>
<rect x="160" y="200" width="400" height="320" rx="16" stroke="black" stroke-width="3"/>
<rect x="200" y="160" width="320" height="400" rx="16" stroke="black" stroke-width="3"/>
<rect x="540" y="180" width="360" height="360" rx="16" transform="rotate(90 540 180)" stroke="black" stroke-width="3"/>
</g>
</g>
<rect x="201.111" y="161" width="318.443" height="398" rx="15" fill="#137BC2" fill-opacity="0.3" stroke="#137BC2" stroke-width="2"/>
<rect x="200.111" y="608" width="2.00278" height="40" fill="#137BC2"/>
<path d="M336.225 679H339.873V661.408H337.353L332.385 662.896L333.153 665.92L336.225 665.152V679ZM350.826 679.288C354.594 679.288 357.45 676.84 357.45 673.288V673.216C357.45 669.616 354.786 667.672 351.33 667.672C349.698 667.672 348.522 668.224 347.61 668.968H347.586C347.706 667.288 348.498 664.576 351.258 664.576C352.746 664.576 353.706 665.104 354.858 666.016L356.802 663.16C355.266 661.936 353.73 661.24 351.378 661.24C346.218 661.24 343.746 665.368 343.746 670.768V670.816C343.746 674.296 344.538 676.144 345.81 677.44C347.034 678.64 348.594 679.288 350.826 679.288ZM350.682 676.144C348.738 676.144 347.538 674.968 347.538 673.432V673.384C347.538 671.872 348.69 670.744 350.634 670.744C352.602 670.744 353.778 671.872 353.778 673.384V673.456C353.778 674.992 352.65 676.144 350.682 676.144ZM367.754 676.144C365.93 676.144 364.394 674.632 364.394 672.352V672.304C364.394 670.024 365.93 668.512 367.754 668.512C369.578 668.512 371.114 670.024 371.114 672.304V672.352C371.114 674.68 369.578 676.144 367.754 676.144ZM360.794 682.984H364.442V677.2C365.354 678.304 366.626 679.264 368.666 679.264C371.834 679.264 374.762 676.792 374.762 672.352V672.304C374.762 667.864 371.786 665.416 368.666 665.416C366.674 665.416 365.378 666.376 364.442 667.648V665.656H360.794V682.984ZM380.035 665.656H376.123L380.659 672.208L375.931 679H379.747L382.555 674.704L385.363 679H389.275L384.547 672.16L389.083 665.656H385.267L382.627 669.664L380.035 665.656Z" fill="#137BC2"/>
<rect x="518.551" y="608" width="2.00281" height="40" fill="#137BC2"/>
<rect x="608.676" y="558" width="40.0554" height="2" fill="#137BC2"/>
<rect x="608.676" y="160" width="40.0554" height="2" fill="#137BC2"/>
<path d="M650.051 368H662.915V364.808H655.163L658.163 362.456C661.259 360.032 662.747 358.568 662.747 355.688V355.64C662.747 352.4 660.347 350.288 656.771 350.288C653.651 350.288 651.995 351.56 650.291 353.912L652.883 355.976C654.179 354.368 655.139 353.576 656.531 353.576C657.947 353.576 658.979 354.416 658.979 355.952C658.979 357.416 658.115 358.4 655.907 360.248L650.051 365.072V368ZM673.603 368.288C678.259 368.288 681.355 364.304 681.355 359.264V359.216C681.355 354.152 678.259 350.24 673.651 350.24C669.019 350.24 665.899 354.224 665.899 359.264V359.312C665.899 364.376 668.947 368.288 673.603 368.288ZM673.651 364.976C671.251 364.976 669.691 362.504 669.691 359.264V359.216C669.691 355.976 671.227 353.552 673.603 353.552C675.979 353.552 677.563 356.048 677.563 359.264V359.312C677.563 362.528 676.051 364.976 673.651 364.976ZM691.594 365.144C689.77 365.144 688.234 363.632 688.234 361.352V361.304C688.234 359.024 689.77 357.512 691.594 357.512C693.418 357.512 694.954 359.024 694.954 361.304V361.352C694.954 363.68 693.418 365.144 691.594 365.144ZM684.634 371.984H688.282V366.2C689.194 367.304 690.466 368.264 692.506 368.264C695.674 368.264 698.602 365.792 698.602 361.352V361.304C698.602 356.864 695.626 354.416 692.506 354.416C690.514 354.416 689.218 355.376 688.282 356.648V354.656H684.634V371.984ZM703.875 354.656H699.963L704.499 361.208L699.771 368H703.587L706.395 363.704L709.203 368H713.115L708.387 361.16L712.923 354.656H709.107L706.467 358.664L703.875 354.656Z" fill="#137BC2"/>
<path d="M214.996 71.16H219.348L228.82 47.704H223.508L217.236 64.408L210.964 47.704H205.524L214.996 71.16ZM238.255 71.384C241.487 71.384 243.855 70.136 245.519 68.088L242.735 65.624C241.327 66.936 240.079 67.48 238.319 67.48C235.983 67.48 234.319 66.232 233.839 63.8H246.351C246.383 63.352 246.415 62.904 246.415 62.52C246.415 57.464 243.663 52.888 237.775 52.888C232.623 52.888 229.007 57.048 229.007 62.136V62.2C229.007 67.64 232.943 71.384 238.255 71.384ZM233.775 60.76C234.159 58.36 235.599 56.792 237.775 56.792C240.015 56.792 241.359 58.424 241.679 60.76H233.775ZM250.465 71H255.329V64.376C255.329 60.056 257.473 57.976 260.865 57.976H261.121V52.888C258.113 52.76 256.385 54.392 255.329 56.888V53.208H250.465V71ZM270.637 71.288C272.301 71.288 273.485 70.904 274.541 70.296V66.392C273.805 66.776 272.973 67 272.045 67C270.861 67 270.317 66.424 270.317 65.176V57.368H274.605V53.208H270.317V48.6H265.453V53.208H263.309V57.368H265.453V65.976C265.453 70.072 267.565 71.288 270.637 71.288ZM278.779 51.096H283.899V46.744H278.779V51.096ZM278.939 71H283.771V53.208H278.939V71ZM297.286 71.384C300.806 71.384 302.822 70.04 304.55 68.12L301.702 65.272C300.454 66.456 299.238 67.224 297.51 67.224C294.662 67.224 292.838 64.952 292.838 62.136V62.072C292.838 59.352 294.694 57.08 297.318 57.08C299.142 57.08 300.294 57.88 301.446 59.096L304.454 55.896C302.79 54.04 300.678 52.888 297.35 52.888C291.91 52.888 288.038 57.08 288.038 62.136V62.2C288.038 67.288 291.942 71.384 297.286 71.384ZM314.68 67.96C312.984 67.96 311.768 67.128 311.768 65.688V65.624C311.768 63.992 313.144 63.064 315.384 63.064C316.696 63.064 317.88 63.352 318.776 63.736V64.696C318.776 66.616 317.112 67.96 314.68 67.96ZM313.24 71.352C315.736 71.352 317.464 70.392 318.68 69.016V71H323.384V60.632C323.384 58.264 322.776 56.312 321.464 55C320.184 53.752 318.2 53.016 315.48 53.016C312.504 53.016 310.552 53.592 308.6 54.456L309.816 58.168C311.448 57.56 312.856 57.176 314.776 57.176C317.368 57.176 318.712 58.36 318.712 60.536V60.856C317.432 60.44 316.12 60.152 314.264 60.152C310.04 60.152 307.064 61.944 307.064 65.816V65.88C307.064 69.4 309.88 71.352 313.24 71.352ZM328.346 71H333.178V46.712H328.346V71ZM353.998 59.064V52.152H359.278C361.87 52.152 363.47 53.336 363.47 55.576V55.64C363.47 57.688 361.934 59.064 359.374 59.064H353.998ZM349.102 71H353.998V63.416H358.254L363.406 71H369.166L363.342 62.584C366.35 61.528 368.43 59.16 368.43 55.384V55.32C368.43 53.176 367.758 51.352 366.478 50.072C364.942 48.536 362.638 47.704 359.694 47.704H349.102V71ZM380.942 71.384C384.174 71.384 386.542 70.136 388.206 68.088L385.422 65.624C384.014 66.936 382.766 67.48 381.006 67.48C378.67 67.48 377.006 66.232 376.526 63.8H389.038C389.07 63.352 389.102 62.904 389.102 62.52C389.102 57.464 386.35 52.888 380.462 52.888C375.31 52.888 371.694 57.048 371.694 62.136V62.2C371.694 67.64 375.63 71.384 380.942 71.384ZM376.462 60.76C376.846 58.36 378.286 56.792 380.462 56.792C382.702 56.792 384.046 58.424 384.366 60.76H376.462ZM401.536 71.384C405.056 71.384 407.072 70.04 408.8 68.12L405.952 65.272C404.704 66.456 403.488 67.224 401.76 67.224C398.912 67.224 397.088 64.952 397.088 62.136V62.072C397.088 59.352 398.944 57.08 401.568 57.08C403.392 57.08 404.544 57.88 405.696 59.096L408.704 55.896C407.04 54.04 404.928 52.888 401.6 52.888C396.16 52.888 392.288 57.08 392.288 62.136V62.2C392.288 67.288 396.192 71.384 401.536 71.384ZM418.418 71.288C420.082 71.288 421.266 70.904 422.322 70.296V66.392C421.586 66.776 420.754 67 419.826 67C418.642 67 418.098 66.424 418.098 65.176V57.368H422.386V53.208H418.098V48.6H413.234V53.208H411.09V57.368H413.234V65.976C413.234 70.072 415.346 71.288 418.418 71.288ZM432.993 67.96C431.297 67.96 430.081 67.128 430.081 65.688V65.624C430.081 63.992 431.457 63.064 433.697 63.064C435.009 63.064 436.193 63.352 437.089 63.736V64.696C437.089 66.616 435.425 67.96 432.993 67.96ZM431.553 71.352C434.049 71.352 435.777 70.392 436.993 69.016V71H441.697V60.632C441.697 58.264 441.089 56.312 439.777 55C438.497 53.752 436.513 53.016 433.793 53.016C430.817 53.016 428.865 53.592 426.913 54.456L428.129 58.168C429.761 57.56 431.169 57.176 433.089 57.176C435.681 57.176 437.025 58.36 437.025 60.536V60.856C435.745 60.44 434.433 60.152 432.577 60.152C428.353 60.152 425.377 61.944 425.377 65.816V65.88C425.377 69.4 428.193 71.352 431.553 71.352ZM446.402 71H451.266V61.048C451.266 58.584 452.578 57.272 454.594 57.272C456.61 57.272 457.794 58.584 457.794 61.048V71H462.658V59.512C462.658 55.416 460.386 52.888 456.546 52.888C453.954 52.888 452.418 54.264 451.266 55.768V53.208H446.402V71ZM475.883 65.528C473.355 65.528 471.435 63.8 471.435 61.24V61.176C471.435 58.648 473.355 56.92 475.883 56.92C478.411 56.92 480.395 58.648 480.395 61.176V61.24C480.395 63.768 478.411 65.528 475.883 65.528ZM475.339 76.376C478.731 76.376 481.291 75.64 482.923 74.008C484.427 72.504 485.195 70.2 485.195 67.064V53.208H480.331V55.608C478.955 54.072 477.291 52.888 474.507 52.888C470.411 52.888 466.571 55.896 466.571 61.176V61.24C466.571 66.52 470.347 69.56 474.507 69.56C477.227 69.56 478.891 68.408 480.395 66.584V67.544C480.395 70.808 478.699 72.504 475.211 72.504C472.843 72.504 470.987 71.896 469.131 70.84L467.467 74.488C469.707 75.704 472.459 76.376 475.339 76.376ZM490.314 71H495.146V46.712H490.314V71ZM508.661 71.384C511.893 71.384 514.261 70.136 515.925 68.088L513.141 65.624C511.733 66.936 510.485 67.48 508.725 67.48C506.389 67.48 504.725 66.232 504.245 63.8H516.757C516.789 63.352 516.821 62.904 516.821 62.52C516.821 57.464 514.069 52.888 508.181 52.888C503.029 52.888 499.413 57.048 499.413 62.136V62.2C499.413 67.64 503.349 71.384 508.661 71.384ZM504.181 60.76C504.565 58.36 506.005 56.792 508.181 56.792C510.421 56.792 511.765 58.424 512.085 60.76H504.181Z" fill="#137BC2"/>
</svg>
