<svg width="720" height="720" viewBox="0 0 720 720" fill="none" xmlns="http://www.w3.org/2000/svg">
<rect width="480" height="480" transform="translate(120 120)" fill="white"/>
<g opacity="0.4">
<g opacity="0.2">
<rect x="580" y="120" width="20" height="480" stroke="black"/>
<rect x="560" y="120" width="20" height="480" stroke="black"/>
<rect x="540" y="120" width="20" height="480" stroke="black"/>
<rect x="520" y="120" width="20" height="480" stroke="black"/>
<rect x="500" y="120" width="20" height="480" stroke="black"/>
<rect x="480" y="120" width="20" height="480" stroke="black"/>
<rect x="460" y="120" width="20" height="480" stroke="black"/>
<rect x="440" y="120" width="20" height="480" stroke="black"/>
<rect x="420" y="120" width="20" height="480" stroke="black"/>
<rect x="400" y="120" width="20" height="480" stroke="black"/>
<rect x="380" y="120" width="20" height="480" stroke="black"/>
<rect x="360" y="120" width="20" height="480" stroke="black"/>
<rect x="340" y="120" width="20" height="480" stroke="black"/>
<rect x="320" y="120" width="20" height="480" stroke="black"/>
<rect x="300" y="120" width="20" height="480" stroke="black"/>
<rect x="280" y="120" width="20" height="480" stroke="black"/>
<rect x="260" y="120" width="20" height="480" stroke="black"/>
<rect x="240" y="120" width="20" height="480" stroke="black"/>
<rect x="220" y="120" width="20" height="480" stroke="black"/>
<rect x="200" y="120" width="20" height="480" stroke="black"/>
<rect x="180" y="120" width="20" height="480" stroke="black"/>
<rect x="160" y="120" width="20" height="480" stroke="black"/>
<rect x="140" y="120" width="20" height="480" stroke="black"/>
<rect x="120" y="120" width="20" height="480" stroke="black"/>
</g>
<g opacity="0.2">
<rect x="600" y="580" width="20" height="480" transform="rotate(90 600 580)" stroke="black"/>
<rect x="600" y="560" width="20" height="480" transform="rotate(90 600 560)" stroke="black"/>
<rect x="600" y="540" width="20" height="480" transform="rotate(90 600 540)" stroke="black"/>
<rect x="600" y="520" width="20" height="480" transform="rotate(90 600 520)" stroke="black"/>
<rect x="600" y="500" width="20" height="480" transform="rotate(90 600 500)" stroke="black"/>
<rect x="600" y="480" width="20" height="480" transform="rotate(90 600 480)" stroke="black"/>
<rect x="600" y="460" width="20" height="480" transform="rotate(90 600 460)" stroke="black"/>
<rect x="600" y="440" width="20" height="480" transform="rotate(90 600 440)" stroke="black"/>
<rect x="600" y="420" width="20" height="480" transform="rotate(90 600 420)" stroke="black"/>
<rect x="600" y="400" width="20" height="480" transform="rotate(90 600 400)" stroke="black"/>
<rect x="600" y="380" width="20" height="480" transform="rotate(90 600 380)" stroke="black"/>
<rect x="600" y="360" width="20" height="480" transform="rotate(90 600 360)" stroke="black"/>
<rect x="600" y="340" width="20" height="480" transform="rotate(90 600 340)" stroke="black"/>
<rect x="600" y="320" width="20" height="480" transform="rotate(90 600 320)" stroke="black"/>
<rect x="600" y="300" width="20" height="480" transform="rotate(90 600 300)" stroke="black"/>
<rect x="600" y="280" width="20" height="480" transform="rotate(90 600 280)" stroke="black"/>
<rect x="600" y="260" width="20" height="480" transform="rotate(90 600 260)" stroke="black"/>
<rect x="600" y="240" width="20" height="480" transform="rotate(90 600 240)" stroke="black"/>
<rect x="600" y="220" width="20" height="480" transform="rotate(90 600 220)" stroke="black"/>
<rect x="600" y="200" width="20" height="480" transform="rotate(90 600 200)" stroke="black"/>
<rect x="600" y="180" width="20" height="480" transform="rotate(90 600 180)" stroke="black"/>
<rect x="600" y="160" width="20" height="480" transform="rotate(90 600 160)" stroke="black"/>
<rect x="600" y="140" width="20" height="480" transform="rotate(90 600 140)" stroke="black"/>
<rect x="600" y="120" width="20" height="480" transform="rotate(90 600 120)" stroke="black"/>
</g>
</g>
<rect x="121" y="121" width="478" height="478" stroke="#AAAAAA" stroke-width="2"/>
<mask id="mask0" mask-type="alpha" maskUnits="userSpaceOnUse" x="120" y="120" width="480" height="480">
<rect x="120" y="120" width="480" height="480" fill="white"/>
</mask>
<g mask="url(#mask0)">
<g opacity="0.3">
<path d="M600 120L120 600" stroke="black" stroke-width="3"/>
<path d="M120 120L600 600" stroke="black" stroke-width="3"/>
<path fill-rule="evenodd" clip-rule="evenodd" d="M360 460C415.228 460 460 415.228 460 360C460 304.772 415.228 260 360 260C304.772 260 260 304.772 260 360C260 415.228 304.772 460 360 460Z" stroke="black" stroke-width="3"/>
<path d="M360 120V600" stroke="black" stroke-width="3"/>
<path d="M280 120V600" stroke="black" stroke-width="3"/>
<path d="M440 120V600" stroke="black" stroke-width="3"/>
<path d="M120 360H600" stroke="black" stroke-width="3"/>
<path d="M120 440H600" stroke="black" stroke-width="3"/>
<path d="M120 280H600" stroke="black" stroke-width="3"/>
</g>
<g opacity="0.7">
<path fill-rule="evenodd" clip-rule="evenodd" d="M360 560C470.457 560 560 470.457 560 360C560 249.543 470.457 160 360 160C249.543 160 160 249.543 160 360C160 470.457 249.543 560 360 560Z" stroke="black" stroke-width="3"/>
<rect x="160" y="200" width="400" height="320" rx="16" stroke="black" stroke-width="3"/>
<rect x="200" y="160" width="320" height="400" rx="16" stroke="black" stroke-width="3"/>
<rect x="540" y="180" width="360" height="360" rx="16" transform="rotate(90 540 180)" stroke="black" stroke-width="3"/>
</g>
</g>
<path d="M558 360C558 469.352 469.352 558 360 558C250.648 558 162 469.352 162 360C162 250.648 250.648 162 360 162C469.352 162 558 250.648 558 360Z" fill="#137BC2" fill-opacity="0.3" stroke="#137BC2" stroke-width="4"/>
<rect x="160" y="608" width="2" height="40" fill="#137BC2"/>
<path d="M328.777 679H341.641V675.808H333.889L336.889 673.456C339.985 671.032 341.473 669.568 341.473 666.688V666.64C341.473 663.4 339.073 661.288 335.497 661.288C332.377 661.288 330.721 662.56 329.017 664.912L331.609 666.976C332.905 665.368 333.865 664.576 335.257 664.576C336.673 664.576 337.705 665.416 337.705 666.952C337.705 668.416 336.841 669.4 334.633 671.248L328.777 676.072V679ZM352.328 679.288C356.984 679.288 360.08 675.304 360.08 670.264V670.216C360.08 665.152 356.984 661.24 352.376 661.24C347.744 661.24 344.624 665.224 344.624 670.264V670.312C344.624 675.376 347.672 679.288 352.328 679.288ZM352.376 675.976C349.976 675.976 348.416 673.504 348.416 670.264V670.216C348.416 666.976 349.952 664.552 352.328 664.552C354.704 664.552 356.288 667.048 356.288 670.264V670.312C356.288 673.528 354.776 675.976 352.376 675.976ZM370.319 676.144C368.495 676.144 366.959 674.632 366.959 672.352V672.304C366.959 670.024 368.495 668.512 370.319 668.512C372.143 668.512 373.679 670.024 373.679 672.304V672.352C373.679 674.68 372.143 676.144 370.319 676.144ZM363.359 682.984H367.007V677.2C367.919 678.304 369.191 679.264 371.231 679.264C374.399 679.264 377.327 676.792 377.327 672.352V672.304C377.327 667.864 374.351 665.416 371.231 665.416C369.239 665.416 367.943 666.376 367.007 667.648V665.656H363.359V682.984ZM382.601 665.656H378.689L383.225 672.208L378.497 679H382.313L385.121 674.704L387.929 679H391.841L387.113 672.16L391.649 665.656H387.833L385.193 669.664L382.601 665.656Z" fill="#137BC2"/>
<rect x="558" y="608" width="2" height="40" fill="#137BC2"/>
<rect x="608" y="558" width="40" height="2" fill="#137BC2"/>
<rect x="608" y="160" width="40" height="2" fill="#137BC2"/>
<path d="M650.32 369H663.184V365.808H655.432L658.432 363.456C661.528 361.032 663.016 359.568 663.016 356.688V356.64C663.016 353.4 660.616 351.288 657.04 351.288C653.92 351.288 652.264 352.56 650.56 354.912L653.152 356.976C654.448 355.368 655.408 354.576 656.8 354.576C658.216 354.576 659.248 355.416 659.248 356.952C659.248 358.416 658.384 359.4 656.176 361.248L650.32 366.072V369ZM673.871 369.288C678.527 369.288 681.623 365.304 681.623 360.264V360.216C681.623 355.152 678.527 351.24 673.919 351.24C669.287 351.24 666.167 355.224 666.167 360.264V360.312C666.167 365.376 669.215 369.288 673.871 369.288ZM673.919 365.976C671.519 365.976 669.959 363.504 669.959 360.264V360.216C669.959 356.976 671.495 354.552 673.871 354.552C676.247 354.552 677.831 357.048 677.831 360.264V360.312C677.831 363.528 676.319 365.976 673.919 365.976ZM691.862 366.144C690.038 366.144 688.502 364.632 688.502 362.352V362.304C688.502 360.024 690.038 358.512 691.862 358.512C693.686 358.512 695.222 360.024 695.222 362.304V362.352C695.222 364.68 693.686 366.144 691.862 366.144ZM684.902 372.984H688.55V367.2C689.462 368.304 690.734 369.264 692.774 369.264C695.942 369.264 698.87 366.792 698.87 362.352V362.304C698.87 357.864 695.894 355.416 692.774 355.416C690.782 355.416 689.486 356.376 688.55 357.648V355.656H684.902V372.984ZM704.144 355.656H700.232L704.768 362.208L700.04 369H703.856L706.664 364.704L709.472 369H713.384L708.656 362.16L713.192 355.656H709.376L706.736 359.664L704.144 355.656Z" fill="#137BC2"/>
<path d="M324.965 71.384C329.445 71.384 332.101 69.784 334.501 67.256L331.365 64.088C329.509 65.784 327.845 66.872 325.125 66.872C321.029 66.872 318.181 63.448 318.181 59.352V59.288C318.181 55.192 321.093 51.832 325.125 51.832C327.525 51.832 329.381 52.856 331.205 54.52L334.341 50.904C332.165 48.76 329.541 47.32 325.157 47.32C318.021 47.32 313.029 52.728 313.029 59.352V59.416C313.029 66.104 318.117 71.384 324.965 71.384ZM338.481 51.096H343.601V46.744H338.481V51.096ZM338.641 71H343.473V53.208H338.641V71ZM348.604 71H353.468V64.376C353.468 60.056 355.612 57.976 359.004 57.976H359.26V52.888C356.252 52.76 354.524 54.392 353.468 56.888V53.208H348.604V71ZM370.644 71.384C374.164 71.384 376.18 70.04 377.908 68.12L375.06 65.272C373.812 66.456 372.596 67.224 370.868 67.224C368.02 67.224 366.196 64.952 366.196 62.136V62.072C366.196 59.352 368.052 57.08 370.676 57.08C372.5 57.08 373.652 57.88 374.804 59.096L377.812 55.896C376.148 54.04 374.036 52.888 370.708 52.888C365.268 52.888 361.396 57.08 361.396 62.136V62.2C361.396 67.288 365.3 71.384 370.644 71.384ZM381.766 71H386.598V46.712H381.766V71ZM400.113 71.384C403.345 71.384 405.713 70.136 407.377 68.088L404.593 65.624C403.185 66.936 401.937 67.48 400.177 67.48C397.841 67.48 396.177 66.232 395.697 63.8H408.209C408.241 63.352 408.273 62.904 408.273 62.52C408.273 57.464 405.521 52.888 399.633 52.888C394.481 52.888 390.865 57.048 390.865 62.136V62.2C390.865 67.64 394.801 71.384 400.113 71.384ZM395.633 60.76C396.017 58.36 397.457 56.792 399.633 56.792C401.873 56.792 403.217 58.424 403.537 60.76H395.633Z" fill="#137BC2"/>
</svg>
