<svg width="720" height="720" viewBox="0 0 720 720" fill="none" xmlns="http://www.w3.org/2000/svg">
<rect width="480" height="480" transform="translate(120 120)" fill="white"/>
<g opacity="0.4">
<g opacity="0.2">
<rect x="580" y="120" width="20" height="480" stroke="black"/>
<rect x="560" y="120" width="20" height="480" stroke="black"/>
<rect x="540" y="120" width="20" height="480" stroke="black"/>
<rect x="520" y="120" width="20" height="480" stroke="black"/>
<rect x="500" y="120" width="20" height="480" stroke="black"/>
<rect x="480" y="120" width="20" height="480" stroke="black"/>
<rect x="460" y="120" width="20" height="480" stroke="black"/>
<rect x="440" y="120" width="20" height="480" stroke="black"/>
<rect x="420" y="120" width="20" height="480" stroke="black"/>
<rect x="400" y="120" width="20" height="480" stroke="black"/>
<rect x="380" y="120" width="20" height="480" stroke="black"/>
<rect x="360" y="120" width="20" height="480" stroke="black"/>
<rect x="340" y="120" width="20" height="480" stroke="black"/>
<rect x="320" y="120" width="20" height="480" stroke="black"/>
<rect x="300" y="120" width="20" height="480" stroke="black"/>
<rect x="280" y="120" width="20" height="480" stroke="black"/>
<rect x="260" y="120" width="20" height="480" stroke="black"/>
<rect x="240" y="120" width="20" height="480" stroke="black"/>
<rect x="220" y="120" width="20" height="480" stroke="black"/>
<rect x="200" y="120" width="20" height="480" stroke="black"/>
<rect x="180" y="120" width="20" height="480" stroke="black"/>
<rect x="160" y="120" width="20" height="480" stroke="black"/>
<rect x="140" y="120" width="20" height="480" stroke="black"/>
<rect x="120" y="120" width="20" height="480" stroke="black"/>
</g>
<g opacity="0.2">
<rect x="600" y="580" width="20" height="480" transform="rotate(90 600 580)" stroke="black"/>
<rect x="600" y="560" width="20" height="480" transform="rotate(90 600 560)" stroke="black"/>
<rect x="600" y="540" width="20" height="480" transform="rotate(90 600 540)" stroke="black"/>
<rect x="600" y="520" width="20" height="480" transform="rotate(90 600 520)" stroke="black"/>
<rect x="600" y="500" width="20" height="480" transform="rotate(90 600 500)" stroke="black"/>
<rect x="600" y="480" width="20" height="480" transform="rotate(90 600 480)" stroke="black"/>
<rect x="600" y="460" width="20" height="480" transform="rotate(90 600 460)" stroke="black"/>
<rect x="600" y="440" width="20" height="480" transform="rotate(90 600 440)" stroke="black"/>
<rect x="600" y="420" width="20" height="480" transform="rotate(90 600 420)" stroke="black"/>
<rect x="600" y="400" width="20" height="480" transform="rotate(90 600 400)" stroke="black"/>
<rect x="600" y="380" width="20" height="480" transform="rotate(90 600 380)" stroke="black"/>
<rect x="600" y="360" width="20" height="480" transform="rotate(90 600 360)" stroke="black"/>
<rect x="600" y="340" width="20" height="480" transform="rotate(90 600 340)" stroke="black"/>
<rect x="600" y="320" width="20" height="480" transform="rotate(90 600 320)" stroke="black"/>
<rect x="600" y="300" width="20" height="480" transform="rotate(90 600 300)" stroke="black"/>
<rect x="600" y="280" width="20" height="480" transform="rotate(90 600 280)" stroke="black"/>
<rect x="600" y="260" width="20" height="480" transform="rotate(90 600 260)" stroke="black"/>
<rect x="600" y="240" width="20" height="480" transform="rotate(90 600 240)" stroke="black"/>
<rect x="600" y="220" width="20" height="480" transform="rotate(90 600 220)" stroke="black"/>
<rect x="600" y="200" width="20" height="480" transform="rotate(90 600 200)" stroke="black"/>
<rect x="600" y="180" width="20" height="480" transform="rotate(90 600 180)" stroke="black"/>
<rect x="600" y="160" width="20" height="480" transform="rotate(90 600 160)" stroke="black"/>
<rect x="600" y="140" width="20" height="480" transform="rotate(90 600 140)" stroke="black"/>
<rect x="600" y="120" width="20" height="480" transform="rotate(90 600 120)" stroke="black"/>
</g>
</g>
<rect x="121" y="121" width="478" height="478" stroke="#AAAAAA" stroke-width="2"/>
<g opacity="0.4">
<path fill-rule="evenodd" clip-rule="evenodd" d="M470.025 160H300C255.88 160 220 195.9 220 240V554.292C220 563.412 231.209 567.772 237.372 561.049L322.628 468.042C326.592 463.718 333.408 463.718 337.372 468.042L422.628 561.049C428.791 567.772 440 563.412 440 554.292V320H520C531.04 320 540 311.06 540 300V240C540 195.9 514.165 160 470.025 160ZM400 240V480L337.526 408.601C333.542 404.048 326.458 404.048 322.474 408.601L260 480V240C260 217.92 277.94 200 300 200H410.72C403.92 211.78 400 225.44 400 240ZM440 280H500V240C500 217.92 492.065 200 470.025 200C447.965 200 440 217.92 440 240V280Z" fill="black"/>
</g>
<path d="M139.935 43.064V36.152H145.215C147.807 36.152 149.407 37.336 149.407 39.576V39.64C149.407 41.688 147.871 43.064 145.311 43.064H139.935ZM135.039 55H139.935V47.416H144.191L149.343 55H155.103L149.279 46.584C152.287 45.528 154.367 43.16 154.367 39.384V39.32C154.367 37.176 153.695 35.352 152.415 34.072C150.878 32.536 148.575 31.704 145.631 31.704H135.039V55ZM167.167 55.384C172.703 55.384 176.799 51.256 176.799 46.136V46.072C176.799 40.984 172.735 36.888 167.263 36.888C161.727 36.888 157.631 41.048 157.631 46.136V46.2C157.631 51.32 161.695 55.384 167.167 55.384ZM167.263 51.224C164.383 51.224 162.431 48.856 162.431 46.136V46.072C162.431 43.352 164.223 41.08 167.167 41.08C170.047 41.08 171.999 43.416 171.999 46.136V46.2C171.999 48.92 170.207 51.224 167.263 51.224ZM186.759 55.352C189.351 55.352 190.887 53.976 192.039 52.44V55H196.903V37.208H192.039V47.16C192.039 49.624 190.727 50.936 188.711 50.936C186.695 50.936 185.511 49.624 185.511 47.16V37.208H180.679V48.696C180.679 52.792 182.919 55.352 186.759 55.352ZM201.776 55H206.64V45.048C206.64 42.584 207.952 41.272 209.968 41.272C211.984 41.272 213.168 42.584 213.168 45.048V55H218.032V43.512C218.032 39.416 215.76 36.888 211.92 36.888C209.328 36.888 207.792 38.264 206.64 39.768V37.208H201.776V55ZM231.289 51.192C228.857 51.192 226.809 49.176 226.809 46.136V46.072C226.809 42.968 228.857 41.016 231.289 41.016C233.721 41.016 235.769 43.032 235.769 46.072V46.136C235.769 49.176 233.721 51.192 231.289 51.192ZM230.073 55.352C232.729 55.352 234.457 54.072 235.705 52.376V55H240.569V30.712H235.705V39.608C234.489 38.136 232.793 36.888 230.073 36.888C225.849 36.888 221.945 40.152 221.945 46.072V46.136C221.945 52.088 225.913 55.352 230.073 55.352ZM253.816 55.384C257.048 55.384 259.416 54.136 261.08 52.088L258.296 49.624C256.888 50.936 255.64 51.48 253.88 51.48C251.544 51.48 249.88 50.232 249.4 47.8H261.912C261.944 47.352 261.976 46.904 261.976 46.52C261.976 41.464 259.224 36.888 253.336 36.888C248.184 36.888 244.568 41.048 244.568 46.136V46.2C244.568 51.64 248.504 55.384 253.816 55.384ZM249.336 44.76C249.72 42.36 251.16 40.792 253.336 40.792C255.576 40.792 256.92 42.424 257.24 44.76H249.336ZM274.57 51.192C272.138 51.192 270.09 49.176 270.09 46.136V46.072C270.09 42.968 272.138 41.016 274.57 41.016C277.002 41.016 279.05 43.032 279.05 46.072V46.136C279.05 49.176 277.002 51.192 274.57 51.192ZM273.354 55.352C276.01 55.352 277.738 54.072 278.986 52.376V55H283.85V30.712H278.986V39.608C277.77 38.136 276.074 36.888 273.354 36.888C269.13 36.888 265.226 40.152 265.226 46.072V46.136C265.226 52.088 269.194 55.352 273.354 55.352ZM299.059 35.096H304.179V30.744H299.059V35.096ZM299.219 55H304.051V37.208H299.219V55ZM309.182 55H314.046V45.048C314.046 42.584 315.358 41.272 317.374 41.272C319.39 41.272 320.574 42.584 320.574 45.048V55H325.438V43.512C325.438 39.416 323.166 36.888 319.326 36.888C316.734 36.888 315.198 38.264 314.046 39.768V37.208H309.182V55ZM336.167 55.288C337.831 55.288 339.015 54.904 340.071 54.296V50.392C339.335 50.776 338.503 51 337.575 51C336.391 51 335.847 50.424 335.847 49.176V41.368H340.135V37.208H335.847V32.6H330.983V37.208H328.839V41.368H330.983V49.976C330.983 54.072 333.095 55.288 336.167 55.288ZM352.097 55.384C355.329 55.384 357.697 54.136 359.361 52.088L356.577 49.624C355.169 50.936 353.921 51.48 352.161 51.48C349.825 51.48 348.161 50.232 347.681 47.8H360.193C360.225 47.352 360.257 46.904 360.257 46.52C360.257 41.464 357.505 36.888 351.617 36.888C346.465 36.888 342.849 41.048 342.849 46.136V46.2C342.849 51.64 346.785 55.384 352.097 55.384ZM347.617 44.76C348.001 42.36 349.441 40.792 351.617 40.792C353.857 40.792 355.201 42.424 355.521 44.76H347.617ZM364.307 55H369.171V48.376C369.171 44.056 371.315 41.976 374.707 41.976H374.963V36.888C371.955 36.76 370.227 38.392 369.171 40.888V37.208H364.307V55ZM378.559 35.096H383.679V30.744H378.559V35.096ZM378.719 55H383.551V37.208H378.719V55ZM397.354 55.384C402.89 55.384 406.986 51.256 406.986 46.136V46.072C406.986 40.984 402.922 36.888 397.45 36.888C391.914 36.888 387.818 41.048 387.818 46.136V46.2C387.818 51.32 391.882 55.384 397.354 55.384ZM397.45 51.224C394.57 51.224 392.618 48.856 392.618 46.136V46.072C392.618 43.352 394.41 41.08 397.354 41.08C400.234 41.08 402.186 43.416 402.186 46.136V46.2C402.186 48.92 400.394 51.224 397.45 51.224ZM410.995 55H415.859V48.376C415.859 44.056 418.003 41.976 421.395 41.976H421.651V36.888C418.643 36.76 416.915 38.392 415.859 40.888V37.208H410.995V55ZM443.785 55.384C447.305 55.384 449.321 54.04 451.049 52.12L448.201 49.272C446.953 50.456 445.737 51.224 444.009 51.224C441.161 51.224 439.337 48.952 439.337 46.136V46.072C439.337 43.352 441.193 41.08 443.817 41.08C445.641 41.08 446.793 41.88 447.945 43.096L450.953 39.896C449.289 38.04 447.177 36.888 443.849 36.888C438.409 36.888 434.537 41.08 434.537 46.136V46.2C434.537 51.288 438.441 55.384 443.785 55.384ZM462.823 55.384C468.359 55.384 472.455 51.256 472.455 46.136V46.072C472.455 40.984 468.391 36.888 462.919 36.888C457.383 36.888 453.287 41.048 453.287 46.136V46.2C453.287 51.32 457.351 55.384 462.823 55.384ZM462.919 51.224C460.039 51.224 458.087 48.856 458.087 46.136V46.072C458.087 43.352 459.879 41.08 462.823 41.08C465.703 41.08 467.655 43.416 467.655 46.136V46.2C467.655 48.92 465.863 51.224 462.919 51.224ZM476.463 55H481.327V48.376C481.327 44.056 483.471 41.976 486.863 41.976H487.119V36.888C484.111 36.76 482.383 38.392 481.327 40.888V37.208H476.463V55ZM490.62 55H495.484V45.048C495.484 42.584 496.796 41.272 498.812 41.272C500.828 41.272 502.012 42.584 502.012 45.048V55H506.876V43.512C506.876 39.416 504.604 36.888 500.764 36.888C498.172 36.888 496.635 38.264 495.484 39.768V37.208H490.62V55ZM519.972 55.384C523.204 55.384 525.572 54.136 527.236 52.088L524.452 49.624C523.044 50.936 521.796 51.48 520.036 51.48C517.7 51.48 516.036 50.232 515.556 47.8H528.068C528.1 47.352 528.132 46.904 528.132 46.52C528.132 41.464 525.38 36.888 519.492 36.888C514.34 36.888 510.724 41.048 510.724 46.136V46.2C510.724 51.64 514.66 55.384 519.972 55.384ZM515.492 44.76C515.876 42.36 517.316 40.792 519.492 40.792C521.732 40.792 523.076 42.424 523.396 44.76H515.492ZM532.182 55H537.046V48.376C537.046 44.056 539.19 41.976 542.582 41.976H542.838V36.888C539.83 36.76 538.102 38.392 537.046 40.888V37.208H532.182V55ZM552.546 55.32C556.386 55.32 559.33 53.528 559.33 49.624V49.56C559.33 46.296 556.418 45.112 553.922 44.312C551.97 43.64 550.21 43.16 550.21 42.104V42.04C550.21 41.272 550.914 40.696 552.194 40.696C553.538 40.696 555.298 41.336 557.058 42.36L558.914 39C556.994 37.72 554.562 36.952 552.322 36.952C548.738 36.952 545.826 38.968 545.826 42.552V42.616C545.826 46.04 548.674 47.192 551.202 47.928C553.186 48.536 554.946 48.92 554.946 50.072V50.136C554.946 51 554.21 51.576 552.674 51.576C551.01 51.576 548.962 50.84 547.042 49.432L544.93 52.664C547.266 54.488 550.05 55.32 552.546 55.32ZM570.357 59.256H574.485L589.269 28.44H585.141L570.357 59.256ZM241.2 73.096H246.32V68.744H241.2V73.096ZM241.36 93H246.192V75.208H241.36V93ZM251.323 93H256.187V83.048C256.187 80.584 257.499 79.272 259.515 79.272C261.531 79.272 262.715 80.584 262.715 83.048V93H267.579V81.512C267.579 77.416 265.307 74.888 261.467 74.888C258.875 74.888 257.339 76.264 256.187 77.768V75.208H251.323V93ZM278.307 93.288C279.971 93.288 281.155 92.904 282.211 92.296V88.392C281.475 88.776 280.643 89 279.715 89C278.531 89 277.987 88.424 277.987 87.176V79.368H282.275V75.208H277.987V70.6H273.123V75.208H270.979V79.368H273.123V87.976C273.123 92.072 275.235 93.288 278.307 93.288ZM294.238 93.384C297.47 93.384 299.838 92.136 301.502 90.088L298.718 87.624C297.31 88.936 296.062 89.48 294.302 89.48C291.966 89.48 290.302 88.232 289.822 85.8H302.334C302.366 85.352 302.398 84.904 302.398 84.52C302.398 79.464 299.646 74.888 293.758 74.888C288.606 74.888 284.99 79.048 284.99 84.136V84.2C284.99 89.64 288.926 93.384 294.238 93.384ZM289.758 82.76C290.142 80.36 291.582 78.792 293.758 78.792C295.998 78.792 297.342 80.424 297.662 82.76H289.758ZM306.448 93H311.312V86.376C311.312 82.056 313.456 79.976 316.848 79.976H317.104V74.888C314.096 74.76 312.368 76.392 311.312 78.888V75.208H306.448V93ZM320.7 73.096H325.82V68.744H320.7V73.096ZM320.86 93H325.692V75.208H320.86V93ZM339.495 93.384C345.031 93.384 349.127 89.256 349.127 84.136V84.072C349.127 78.984 345.063 74.888 339.591 74.888C334.055 74.888 329.959 79.048 329.959 84.136V84.2C329.959 89.32 334.023 93.384 339.495 93.384ZM339.591 89.224C336.711 89.224 334.759 86.856 334.759 84.136V84.072C334.759 81.352 336.551 79.08 339.495 79.08C342.375 79.08 344.327 81.416 344.327 84.136V84.2C344.327 86.92 342.535 89.224 339.591 89.224ZM353.135 93H357.999V86.376C357.999 82.056 360.143 79.976 363.535 79.976H363.791V74.888C360.783 74.76 359.055 76.392 357.999 78.888V75.208H353.135V93ZM386.821 89.192C384.389 89.192 382.341 87.176 382.341 84.136V84.072C382.341 81.032 384.389 79.016 386.821 79.016C389.253 79.016 391.301 81.032 391.301 84.072V84.136C391.301 87.24 389.253 89.192 386.821 89.192ZM377.541 98.312H382.405V90.6C383.621 92.072 385.317 93.352 388.037 93.352C392.261 93.352 396.165 90.056 396.165 84.136V84.072C396.165 78.152 392.197 74.888 388.037 74.888C385.381 74.888 383.653 76.168 382.405 77.864V75.208H377.541V98.312ZM408.901 93.384C414.437 93.384 418.533 89.256 418.533 84.136V84.072C418.533 78.984 414.469 74.888 408.997 74.888C403.461 74.888 399.365 79.048 399.365 84.136V84.2C399.365 89.32 403.429 93.384 408.901 93.384ZM408.997 89.224C406.117 89.224 404.165 86.856 404.165 84.136V84.072C404.165 81.352 405.957 79.08 408.901 79.08C411.781 79.08 413.733 81.416 413.733 84.136V84.2C413.733 86.92 411.941 89.224 408.997 89.224ZM422.637 73.096H427.757V68.744H422.637V73.096ZM422.797 93H427.629V75.208H422.797V93ZM432.76 93H437.624V83.048C437.624 80.584 438.936 79.272 440.952 79.272C442.968 79.272 444.152 80.584 444.152 83.048V93H449.016V81.512C449.016 77.416 446.744 74.888 442.904 74.888C440.312 74.888 438.776 76.264 437.624 77.768V75.208H432.76V93ZM459.745 93.288C461.409 93.288 462.593 92.904 463.649 92.296V88.392C462.913 88.776 462.081 89 461.153 89C459.969 89 459.425 88.424 459.425 87.176V79.368H463.713V75.208H459.425V70.6H454.561V75.208H452.417V79.368H454.561V87.976C454.561 92.072 456.673 93.288 459.745 93.288ZM473.999 93.32C477.839 93.32 480.783 91.528 480.783 87.624V87.56C480.783 84.296 477.871 83.112 475.375 82.312C473.423 81.64 471.663 81.16 471.663 80.104V80.04C471.663 79.272 472.367 78.696 473.647 78.696C474.991 78.696 476.751 79.336 478.511 80.36L480.367 77C478.447 75.72 476.015 74.952 473.775 74.952C470.191 74.952 467.279 76.968 467.279 80.552V80.616C467.279 84.04 470.127 85.192 472.655 85.928C474.639 86.536 476.399 86.92 476.399 88.072V88.136C476.399 89 475.663 89.576 474.127 89.576C472.463 89.576 470.415 88.84 468.495 87.432L466.383 90.664C468.719 92.488 471.503 93.32 473.999 93.32Z" fill="#DE3636"/>
<path d="M348.2 407C348.2 417.604 339.604 426.2 329 426.2C318.396 426.2 309.8 417.604 309.8 407C309.8 396.396 318.396 387.8 329 387.8C339.604 387.8 348.2 396.396 348.2 407Z" fill="#DE3636" fill-opacity="0.3" stroke="#DE3636" stroke-width="1.6"/>
<path d="M348.2 467C348.2 477.604 339.604 486.2 329 486.2C318.396 486.2 309.8 477.604 309.8 467C309.8 456.396 318.396 447.8 329 447.8C339.604 447.8 348.2 456.396 348.2 467Z" fill="#DE3636" fill-opacity="0.3" stroke="#DE3636" stroke-width="1.6"/>
</svg>
