<svg aria-label="analytics icon" viewBox="0 0 24 24"><path fill-rule="evenodd" clip-rule="evenodd" d="M5.999 8.724A1.976 1.976 0 0 1 5 9a2 2 0 1 1 1.999-2.008l4.002 2.286C11.296 9.106 11.635 9 12 9c.178 0 .347.031.511.074l4.563-4.562A1.997 1.997 0 0 1 17 4a2 2 0 1 1 2 2c-.178 0-.348-.029-.512-.073l-4.562 4.562c.043.165.074.333.074.511a2 2 0 0 1-3.999.01L5.999 8.724zM22 11v10h2v2H0v-2h2v-8c0-.551.448-1 1-1h4c.552 0 1 .449 1 1v8h1v-5c0-.551.448-1 1-1h4c.552 0 1 .449 1 1v5h1V11c0-.551.448-1 1-1h4c.552 0 1 .449 1 1zM4 21h2v-7H4v7zm9 0v-4h-2v4h2zm5 0h2v-9h-2v9z"/></svg>