<svg width="24" height="24" viewBox="0 0 24 24" fill="none" xmlns="http://www.w3.org/2000/svg">
<path fill-rule="evenodd" clip-rule="evenodd" d="M7 4.66667C7 4.29867 6.702 4 6.33333 4H3.66667C3.29867 4 3 4.29867 3 4.66667V7.33333C3 7.702 3.29867 8 3.66667 8H6.33333C6.702 8 7 7.702 7 7.33333V4.66667ZM7 10.6667C7 10.2987 6.702 10 6.33333 10H3.66667C3.29867 10 3 10.2987 3 10.6667V13.3333C3 13.702 3.29867 14 3.66667 14H6.33333C6.702 14 7 13.702 7 13.3333V10.6667ZM6.33333 16C6.702 16 7 16.2987 7 16.6667V19.3333C7 19.702 6.702 20 6.33333 20H3.66667C3.29867 20 3 19.702 3 19.3333V16.6667C3 16.2987 3.29867 16 3.66667 16H6.33333ZM20.5 5H9.5C9.22386 5 9 5.22386 9 5.5V6.5C9 6.77614 9.22386 7 9.5 7H20.5C20.7761 7 21 6.77614 21 6.5V5.5C21 5.22386 20.7761 5 20.5 5ZM9.5 11H20.5C20.7761 11 21 11.2239 21 11.5V12.5C21 12.7761 20.7761 13 20.5 13H9.5C9.22386 13 9 12.7761 9 12.5V11.5C9 11.2239 9.22386 11 9.5 11ZM20.5 17H9.5C9.22386 17 9 17.2239 9 17.5V18.5C9 18.7761 9.22386 19 9.5 19H20.5C20.7761 19 21 18.7761 21 18.5V17.5C21 17.2239 20.7761 17 20.5 17Z" fill="white"/>
</svg>
