<svg width="24" height="24" viewBox="0 0 24 24" fill="none" xmlns="http://www.w3.org/2000/svg">
<path fill-rule="evenodd" clip-rule="evenodd" d="M8.20011 2.19997C7.23978 2.58412 6.64848 3.61379 6.95719 4.66921C4.84586 6.33193 3.93449 9.24538 4.89982 11.9L5.59989 13.9C5.89982 14.9 6.39982 16.9 5.79984 18.1001C5.59989 18.4 5.59989 18.7001 5.69987 19C5.89982 19.4 6.29984 19.7001 6.69987 19.7001C6.79984 19.7001 6.89982 19.7001 7.09989 19.6001L20.0999 14.9C20.6999 14.7001 20.8998 14.1001 20.6999 13.5C20.5999 13.2001 20.2998 13 20.0999 12.9C18.7998 12.3001 17.9999 10.5 17.5999 9.50002L16.8998 7.50002C15.9999 4.90004 13.4999 3.30007 10.8998 3.30007C10.8527 3.30007 10.8052 3.30043 10.7574 3.30141C10.3201 2.36745 9.16666 1.91005 8.20011 2.19997ZM14.9998 8.20009C14.3998 6.50002 12.6999 5.30007 10.8998 5.30007C10.3998 5.30007 9.89982 5.30007 9.39982 5.50002C8.29984 5.90004 7.39982 6.70009 6.89982 7.80007C6.39982 8.90004 6.39982 10.1001 6.79984 11.2001L7.49979 13.2001C7.89982 14.3001 8.19987 15.7001 8.09977 17.1001L17.7998 13.6001C16.7998 12.6001 16.0998 11.3001 15.6999 10.2001L14.9998 8.20009ZM13.2001 21.7001C14.8001 21.2001 15.6 19.5 15 17.9L9.40006 19.9C9.90006 21.5 11.6 22.3001 13.2001 21.7001Z" fill="white"/>
</svg>
