<svg aria-label="building icon" viewBox="0 0 24 24"><path fill-rule="evenodd" clip-rule="evenodd" d="M11 21v-2.5a.5.5 0 01.5-.5h1a.5.5 0 01.5.5V21a1 1 0 001 1h6a1 1 0 001-1V3a1 1 0 00-1-1H4a1 1 0 00-1 1v18a1 1 0 001 1h6a1 1 0 001-1zm-1.5-5a.5.5 0 00-.5.5V20H5V4h14v16h-4v-3.5a.5.5 0 00-.5-.5h-5zm-2-9.975h3a.5.5 0 01.5.5v2a.5.5 0 01-.5.5h-3a.5.5 0 01-.5-.5v-2a.5.5 0 01.5-.5zm9 0h-3a.5.5 0 00-.5.5v2a.5.5 0 00.5.5h3a.5.5 0 00.5-.5v-2a.5.5 0 00-.5-.5zm-3 5h3a.5.5 0 01.5.5v2a.5.5 0 01-.5.5h-3a.5.5 0 01-.5-.5v-2a.5.5 0 01.5-.5zm-3 0h-3a.5.5 0 00-.5.5v2a.5.5 0 00.5.5h3a.5.5 0 00.5-.5v-2a.5.5 0 00-.5-.5z"/></svg>