<svg role="img" aria-label="calendar icon" xmlns="http://www.w3.org/2000/svg" viewBox="0 0 24 24"><path d="M8,7 L4,7 L4,10 L20,10 L20,7 L16,7 L16,8.5 C16,8.77614237 15.7761424,9 15.5,9 L14.5,9 C14.2238576,9 14,8.77614237 14,8.5 L14,7 L10,7 L10,8.5 C10,8.77614237 9.77614237,9 9.5,9 L8.5,9 C8.22385763,9 8,8.77614237 8,8.5 L8,7 Z M10,5 L14,5 L14,3.5 C14,3.22385763 14.2238576,3 14.5,3 L15.5,3 C15.7761424,3 16,3.22385763 16,3.5 L16,5 L21,5 C21.5522847,5 22,5.44771525 22,6 L22,20 C22,20.5522847 21.5522847,21 21,21 L3,21 C2.44771525,21 2,20.5522847 2,20 L2,6 C2,5.44771525 2.44771525,5 3,5 L8,5 L8,3.5 C8,3.22385763 8.22385763,3 8.5,3 L9.5,3 C9.77614237,3 10,3.22385763 10,3.5 L10,5 Z M20,12 L4,12 L4,19 L20,19 L20,12 Z M5,13 L7,13 L7,15 L5,15 L5,13 Z M5,16 L7,16 L7,18 L5,18 L5,16 Z M8,13 L10,13 L10,15 L8,15 L8,13 Z M8,16 L10,16 L10,18 L8,18 L8,16 Z M11,13 L13,13 L13,15 L11,15 L11,13 Z M11,16 L13,16 L13,18 L11,18 L11,16 Z M14,13 L16,13 L16,15 L14,15 L14,13 Z M14,16 L16,16 L16,18 L14,18 L14,16 Z M17,13 L19,13 L19,15 L17,15 L17,13 Z M17,16 L19,16 L19,18 L17,18 L17,16 Z"/></svg>
