<svg aria-label="calendar icon" viewBox="0 0 24 24"><path d="M8.5 10a.5.5 0 0 1 .5.5v1a.5.5 0 0 1-.5.5h-1a.5.5 0 0 1-.5-.5v-1a.5.5 0 0 1 .5-.5h1zm4 0a.5.5 0 0 1 .5.5v1a.5.5 0 0 1-.5.5h-1a.5.5 0 0 1-.5-.5v-1a.5.5 0 0 1 .5-.5h1zm4 0a.5.5 0 0 1 .5.5v1a.5.5 0 0 1-.5.5h-1a.5.5 0 0 1-.5-.5v-1a.5.5 0 0 1 .5-.5h1zM20 3c.552 0 1 .444 1 .996v16.007A.997.997 0 0 1 20 21H4a1 1 0 0 1-1-1V4a1 1 0 0 1 1-1h2V1.5a.5.5 0 0 1 .5-.5h1a.5.5 0 0 1 .5.5V3h8V1.5a.5.5 0 0 1 .5-.5h1a.5.5 0 0 1 .5.5V3h2zm-1 16V8H5v11h14zM8.5 14a.5.5 0 0 1 .5.5v1a.5.5 0 0 1-.5.5h-1a.5.5 0 0 1-.5-.5v-1a.5.5 0 0 1 .5-.5h1zm4 0a.5.5 0 0 1 .5.5v1a.5.5 0 0 1-.5.5h-1a.5.5 0 0 1-.5-.5v-1a.5.5 0 0 1 .5-.5h1zm4 0a.5.5 0 0 1 .5.5v1a.5.5 0 0 1-.5.5h-1a.5.5 0 0 1-.5-.5v-1a.5.5 0 0 1 .5-.5h1z"/></svg>