<svg aria-label="cap enterprise resource planning icon" viewBox="0 0 24 24"><path clip-rule="evenodd" d="M12.34 7.5 11 8.501v2.5h5.18a3 3 0 1 1 0 2H11v2.497l1.34 1.002A3 3 0 1 1 11 19a2.91 2.91 0 0 1 .15-.89L9.668 17H2.5a.5.5 0 0 1-.5-.5v-9a.5.5 0 0 1 .5-.5h7.167l1.483-1.11A2.91 2.91 0 0 1 11 5a3 3 0 1 1 1.34 2.5zm2.02-3.433a1 1 0 1 1-.72 1.868 1 1 0 0 1 .72-1.868zM9 9v6H4V9zm5.924 10.383a1 1 0 1 0-1.849-.765 1 1 0 0 0 1.85.764zM18.976 13a1 1 0 1 1 .048-2 1 1 0 0 1-.048 2z" fill-rule="evenodd"/></svg>