<svg aria-label="cap xr icon" viewBox="0 0 24 24"><path d="M4 11.87v3a.5.5 0 0 0 .5.51h1a.5.5 0 0 0 .5-.5v-1.51h8.5a.5.5 0 0 0 .5-.5v-1a.5.5 0 0 0-.5-.5h-10a.51.51 0 0 0-.5.5z"/><path clip-rule="evenodd" d="M9 3.5v4H3a3 3 0 0 0-3 3v6.38A3.12 3.12 0 0 0 3.12 20h5.93A2.14 2.14 0 0 0 11 18.83l.89-1.83h.22l.89 1.83A2.14 2.14 0 0 0 15 20h5.75A3.26 3.26 0 0 0 24 16.75V10.5a3 3 0 0 0-3-3h-6v-4A1.5 1.5 0 0 0 13.5 2h-3A1.5 1.5 0 0 0 9 3.5zm4 .5v3.5h-2V4zm-1 10.89a2.11 2.11 0 0 1 1.9 1.18l.93 1.86A.14.14 0 0 0 15 18h5.8a1.25 1.25 0 0 0 1.2-1.25V10.5a1 1 0 0 0-1-1H3a1 1 0 0 0-1 1v6.38A1.12 1.12 0 0 0 3.12 18h5.93a.14.14 0 0 0 .12-.07l.93-1.86a2.11 2.11 0 0 1 1.9-1.18z" fill-rule="evenodd"/></svg>