<svg aria-label="cap automation icon" viewBox="0 0 24 24"><path d="M15.38 4.47 15 2.4a.5.5 0 0 0-.49-.4H9.66a.49.49 0 0 0-.49.4L8.7 4.75a7.77 7.77 0 0 0-1.22.71l-2.27-.77a.51.51 0 0 0-.6.22L2.2 9.09a.49.49 0 0 0 .11.62l1.79 1.58v1.42l-1.79 1.58a.49.49 0 0 0-.11.62l2.41 4.18a.51.51 0 0 0 .6.22l2.27-.77c.384.273.793.51 1.22.71l.47 2.35a.49.49 0 0 0 .49.4h4.82a.5.5 0 0 0 .49-.4l.41-2.07a.5.5 0 0 0-.17-.48l-.87-.73a.5.5 0 0 0-.81.28l-.28 1.4h-2.36l-.45-2.23a6.1 6.1 0 0 1-2.56-1.48L5.73 17l-1.18-2 1.71-1.5a5.86 5.86 0 0 1 0-3L4.55 9l1.18-2 2.15.73a6.1 6.1 0 0 1 2.56-1.48L10.89 4h2.36l.28 1.4a.5.5 0 0 0 .81.28l.87-.68a.5.5 0 0 0 .17-.53z"/><path clip-rule="evenodd" d="M12 16a4 4 0 1 1 0-8 4 4 0 0 1 0 8zm0-6a2 2 0 1 0 0 3.999 2 2 0 0 0 0-4z" fill-rule="evenodd"/><path d="m20.76 4.46-1.11 1.11a10 10 0 0 1-1.94 14.58A.51.51 0 0 1 17 20l-.5-.8a.51.51 0 0 1 .15-.68A8 8 0 0 0 18.23 7l-1.26 1.23a.32.32 0 0 1-.55-.23V4.23a.32.32 0 0 1 .32-.32h3.79a.32.32 0 0 1 .23.55z"/></svg>