<svg aria-label="cap iot icon" viewBox="0 0 24 24"><path d="m18 13.76.7.71a.51.51 0 0 0 .73-.02 10 10 0 0 0 0-13.39.51.51 0 0 0-.73 0l-.7.71a.49.49 0 0 0 0 .68 8 8 0 0 1 0 10.62.5.5 0 0 0 0 .69z" fill-opacity=".95"/><path d="m15.87 11.63-.72-.72a.49.49 0 0 1 0-.66A4 4 0 0 0 16 7.76a4 4 0 0 0-.87-2.49.49.49 0 0 1 0-.66l.72-.72a.5.5 0 0 1 .73 0 6 6 0 0 1 0 7.71.49.49 0 0 1-.71.03zm-7.905.12a.49.49 0 0 0 .165-.12l.74-.72a.49.49 0 0 0 0-.66A4 4 0 0 1 8 7.76a4 4 0 0 1 .85-2.46.49.49 0 0 0 0-.66l-.72-.72a.5.5 0 0 0-.73 0 6 6 0 0 0 0 7.71.49.49 0 0 0 .565.12zM14 7.76a2 2 0 1 1-4 0 2 2 0 0 1 4 0z" fill-opacity=".95"/><path d="M5.3 14.47a.51.51 0 0 1-.73 0 10 10 0 0 1 0-13.39.51.51 0 0 1 .73 0l.7.71a.49.49 0 0 1 0 .68 8 8 0 0 0 0 10.6.5.5 0 0 1 0 .69l-.7.71zm6.7.24 4.89 8.14a.5.5 0 0 0 .68.17l.86-.52a.49.49 0 0 0 .17-.68l-6.17-10.29a.51.51 0 0 0-.86 0L5.4 21.82a.49.49 0 0 0 .17.68l.86.52a.5.5 0 0 0 .68-.17L12 14.71z" fill-opacity=".95"/></svg>