<svg aria-label="cap machine intelligence icon" viewBox="0 0 24 24"><path d="M11 21.5v-1.09l-5.85-5.85a.47.47 0 0 1-.15-.35v-1.39a3 3 0 1 1 2 0v.77l4 4V7.82a3 3 0 1 1 2 0V21.5a.5.5 0 0 1-.5.5h-1a.5.5 0 0 1-.5-.5zm.19-15.913a1 1 0 1 1 1.619-1.175 1 1 0 0 1-1.618 1.175zM6 9a1 1 0 1 1 0 2 1 1 0 0 1 0-2zm14.567-.561A3 3 0 0 1 19 12.82v2.6a.469.469 0 0 1-.15.35l-1.67 1.68v4.05a.5.5 0 0 1-.5.5h-1a.5.5 0 0 1-.5-.5v-4.65a.52.52 0 0 1 .14-.36L17 14.82v-2a3 3 0 1 1 3.567-4.381zm-3.123 2.392a1 1 0 1 0 1.111-1.662 1 1 0 0 0-1.11 1.662z" clip-rule="evenodd" fill-rule="evenodd"/></svg>