<svg aria-label="cap data icon" viewBox="0 0 24 24"><path clip-rule="evenodd" d="M3 3.5v7a.5.5 0 0 0 .5.5h5a.5.5 0 0 0 .5-.5v-7a.5.5 0 0 0-.5-.5h-5a.5.5 0 0 0-.5.5zM7 9H5V5h2z" fill-rule="evenodd"/><path d="M11.5 3h1a.5.5 0 0 1 .5.5v7a.5.5 0 0 1-.5.5h-1a.5.5 0 0 1-.5-.5v-7a.5.5 0 0 1 .5-.5zm-4 10h1a.5.5 0 0 1 .5.5v7a.5.5 0 0 1-.5.5h-1a.5.5 0 0 1-.5-.5v-7a.5.5 0 0 1 .5-.5z"/><path clip-rule="evenodd" d="M11 20.5v-7a.5.5 0 0 1 .5-.5h5a.5.5 0 0 1 .5.5v7a.5.5 0 0 1-.5.5h-5a.5.5 0 0 1-.5-.5zm2-1.5h2v-4h-2z" fill-rule="evenodd"/><path d="M20.5 13h-1a.5.5 0 0 0-.5.5v7a.5.5 0 0 0 .5.5h1a.5.5 0 0 0 .5-.5v-7a.5.5 0 0 0-.5-.5zm-5-10h1a.5.5 0 0 1 .5.5v7a.5.5 0 0 1-.5.5h-1a.5.5 0 0 1-.5-.5v-7a.5.5 0 0 1 .5-.5z"/></svg>