<svg aria-label="cap security icon" viewBox="0 0 16 18"><path d="m5.15 9.73 2.12 2.12a.49.49 0 0 0 .73.01l3.51-3.53a.501.501 0 0 0 0-.71l-.7-.72a.5.5 0 0 0-.71 0L7.56 9.32l-1-1a.5.5 0 0 0-.71 0l-.7.71a.48.48 0 0 0 0 .7z"/><path d="M12 2A5.4 5.4 0 0 0 15.58.4a.25.25 0 0 1 .42.18V8c-.45 5.86-3.64 8.6-8 10C3.64 16.6.45 13.86 0 8V.58A.25.25 0 0 1 .42.4 5.4 5.4 0 0 0 4 2a5.78 5.78 0 0 0 4-2 5.78 5.78 0 0 0 4 2zM8 15.92c3.85-1.45 5.66-3.86 6-8V3.66A6 6 0 0 1 12 4a6.82 6.82 0 0 1-4-1.38A6.82 6.82 0 0 1 4 4a6 6 0 0 1-2-.34v4.26c.34 4.17 2.15 6.58 6 8z"/></svg>