<svg aria-label="cap blockchain icon" viewBox="0 0 24 24"><path d="M20.177 8.056a4.12 4.12 0 0 0-.847-2.816 4 4 0 0 0-5.93-.3l-2.47 2.48a.481.481 0 0 0 0 .7l.7.71a.5.5 0 0 0 .71 0l2.52-2.48a2 2 0 0 1 3 .25 2.07 2.07 0 0 1-.3 2.65L14.82 12a2 2 0 0 1-2.54.26.49.49 0 0 0-.61.07l-.72.72a.51.51 0 0 0 .07.76 4 4 0 0 0 5.21-.38l2.7-2.71a4.12 4.12 0 0 0 1.247-2.664z"/><path d="M3.823 15.944a4.12 4.12 0 0 0 .847 2.816 4 4 0 0 0 5.93.3l2.43-2.48a.479.479 0 0 0 0-.7l-.7-.71a.5.5 0 0 0-.71 0l-2.48 2.47a1.998 1.998 0 0 1-3-.25 2.07 2.07 0 0 1 .3-2.65L9.18 12a2 2 0 0 1 2.56-.26.49.49 0 0 0 .61-.07l.72-.72a.51.51 0 0 0-.07-.76 4 4 0 0 0-5.23.38l-2.7 2.71a4.12 4.12 0 0 0-1.247 2.664z"/><path d="M0 18.5v-13A.5.5 0 0 1 .5 5h9a.5.5 0 0 1 .5.5v1a.5.5 0 0 1-.5.5H2v11.5a.5.5 0 0 1-.5.5h-1a.5.5 0 0 1-.5-.5zm14-1v1a.5.5 0 0 0 .5.5h9a.5.5 0 0 0 .5-.5v-13a.5.5 0 0 0-.5-.5h-1a.5.5 0 0 0-.5.5V17h-7.5a.5.5 0 0 0-.5.5z"/></svg>