<svg aria-label="cap artificial intelligence icon" viewBox="0 0 24 24"><path d="M19.6 6.06A3 3 0 0 0 16.18 8h-4.39a.47.47 0 0 0-.35.15L9.59 10H7.5a.5.5 0 0 0-.5.5v1a.5.5 0 0 0 .5.5h2.71a.469.469 0 0 0 .35-.15L12.41 10h3.77a3 3 0 1 0 3.42-3.94z"/><path d="M11.5 20A2.48 2.48 0 0 1 9 17.73l-.14-1.54L7.54 16a4.13 4.13 0 0 1-3.49-3.32 4 4 0 0 1 2.66-4.46l1.17-.4.17-1.23a3 3 0 0 1 5.64-.89.52.52 0 0 0 .46.3h1.09a.5.5 0 0 0 .47-.67 5 5 0 0 0-9.64 1 6 6 0 0 0 1 11.6 4.505 4.505 0 0 0 9-.42H14A2.5 2.5 0 0 1 11.5 20z"/><path d="M15.6 12a3 3 0 0 0-3.42 1.94H10.5a.5.5 0 0 0-.5.5v1a.5.5 0 0 0 .5.5h1.68A3 3 0 1 0 15.6 12zm-.6 3.94a1 1 0 1 1 0-2 1 1 0 0 1 0 2z"/></svg>