<svg aria-label="cap agile devops icon" viewBox="0 0 24 24"><path d="M13.89 3.08A9.2 9.2 0 0 0 12 2.87V1.33a.32.32 0 0 0-.55-.23L8.77 3.77a.32.32 0 0 0 0 .46l2.68 2.67a.32.32 0 0 0 .55-.23v-1.8a7.76 7.76 0 0 1 1.45.13A7.11 7.11 0 0 1 19 12.31a7.29 7.29 0 0 1-7.38 6.83H.5a.5.5 0 0 0-.5.5v1a.5.5 0 0 0 .5.5h11A9.34 9.34 0 0 0 21 12.4a9.1 9.1 0 0 0-7.11-9.32z"/><path d="M6.17 18.35a.499.499 0 0 1-.73 0A9.16 9.16 0 0 1 7.06 4.3a.5.5 0 0 1 .7.19l.5.87a.5.5 0 0 1-.18.64 7.15 7.15 0 0 0-1.25 10.9.51.51 0 0 1 0 .69zm15.06-1.25 2.67 2.67a.32.32 0 0 1 0 .46l-2.67 2.67a.32.32 0 0 1-.55-.23V21H18.5a.5.5 0 0 1-.5-.5v-1a.5.5 0 0 1 .5-.5h2.18v-1.67a.32.32 0 0 1 .55-.23z"/></svg>