<svg role="img" aria-label="close captioned icon" viewBox="0 0 24 24" xmlns="http://www.w3.org/2000/svg">
  <path d="M2 3h20c.5523 0 1 .4477 1 1v16c0 .5523-.4477 1-1 1H2c-.5523 0-1-.4477-1-1V4c0-.5523.4477-1 1-1zm6.524 13.132c1.485 0 2.365-.528 3.157-1.375l-1.078-1.089c-.605.55-1.144.902-2.024.902-1.32 0-2.233-1.1-2.233-2.42 0-1.342.935-2.42 2.233-2.42.77 0 1.375.33 1.969.869l1.078-1.243c-.715-.704-1.584-1.188-3.036-1.188-2.365 0-4.015 1.793-4.015 3.982 0 2.233 1.683 3.982 3.949 3.982zm7.898 0c1.485 0 2.365-.528 3.157-1.375l-1.078-1.089c-.605.55-1.144.902-2.024.902-1.32 0-2.233-1.1-2.233-2.42 0-1.342.935-2.42 2.233-2.42.77 0 1.375.33 1.969.869l1.078-1.243c-.715-.704-1.584-1.188-3.036-1.188-2.365 0-4.015 1.793-4.015 3.982 0 2.233 1.683 3.982 3.949 3.982z" id="a" />
</svg>
