<svg width="24" height="24" viewBox="0 0 24 24" fill="none" xmlns="http://www.w3.org/2000/svg">
<path fill-rule="evenodd" clip-rule="evenodd" d="M22 3H2C1.44769 3 1 3.44775 1 4V20C1 20.5522 1.44769 21 2 21H22C22.5523 21 23 20.5522 23 20V4C23 3.44775 22.5523 3 22 3ZM21 5H3V19H21V5ZM8.52399 16.132C10.009 16.132 10.889 15.604 11.681 14.757L10.603 13.668C9.99799 14.218 9.45898 14.5699 8.57904 14.5699C7.25903 14.5699 6.34601 13.47 6.34601 12.15C6.34601 10.808 7.28101 9.72998 8.57904 9.72998C9.349 9.72998 9.95404 10.0599 10.548 10.599L11.626 9.35596C10.911 8.65198 10.042 8.16797 8.59003 8.16797C6.22504 8.16797 4.57501 9.96094 4.57501 12.15C4.57501 14.3829 6.258 16.132 8.52399 16.132ZM19.579 14.757C18.787 15.604 17.907 16.132 16.422 16.132C14.156 16.132 12.473 14.3829 12.473 12.15C12.473 9.96094 14.123 8.16797 16.488 8.16797C17.94 8.16797 18.809 8.65198 19.524 9.35596L18.446 10.599C17.8521 10.0599 17.247 9.72998 16.4771 9.72998C15.179 9.72998 14.244 10.808 14.244 12.15C14.244 13.47 15.157 14.5699 16.4771 14.5699C17.357 14.5699 17.896 14.218 18.501 13.668L19.579 14.757Z" fill="white"/>
</svg>
