<svg role="img" aria-label="clock icon" viewBox="0 0 20 20"  xmlns="http://www.w3.org/2000/svg">
<path d="M9.513 4.99933H10.513C10.7891 4.99933 11.013 5.22319 11.013 5.49933V9.57773L13.9126 12.4774C14.1078 12.6726 14.1078 12.9892 13.9126 13.1844L13.2055 13.8916C13.0103 14.0868 12.6937 14.0868 12.4984 13.8916L9.013 10.4062V5.49933C9.013 5.22319 9.23688 4.99933 9.513 4.99933Z" />
<path fill-rule="evenodd" clip-rule="evenodd" d="M0 10C0 4.48608 4.48608 0 10 0C15.5139 0 20 4.48608 20 10C20 15.5139 15.5139 20 10 20C4.48608 20 0 15.5139 0 10ZM2 10C2 5.58887 5.58887 2 10 2C14.4111 2 18 5.58887 18 10C18 14.4111 14.4111 18 10 18C5.58887 18 2 14.4111 2 10Z" />
</svg>
