<svg aria-label="close captioned fill icon" viewBox="0 0 24 24"><path d="M2 3h20a1 1 0 011 1v16a1 1 0 01-1 1H2a1 1 0 01-1-1V4a1 1 0 011-1zm6.524 13.132c1.485 0 2.365-.528 3.157-1.375l-1.078-1.089c-.605.55-1.144.902-2.024.902-1.32 0-2.233-1.1-2.233-2.42 0-1.342.935-2.42 2.233-2.42.77 0 1.375.33 1.969.869l1.078-1.243c-.715-.704-1.584-1.188-3.036-1.188-2.365 0-4.015 1.793-4.015 3.982 0 2.233 1.683 3.982 3.949 3.982zm7.898 0c1.485 0 2.365-.528 3.157-1.375l-1.078-1.089c-.605.55-1.144.902-2.024.902-1.32 0-2.233-1.1-2.233-2.42 0-1.342.935-2.42 2.233-2.42.77 0 1.375.33 1.969.869l1.078-1.243c-.715-.704-1.584-1.188-3.036-1.188-2.365 0-4.015 1.793-4.015 3.982 0 2.233 1.683 3.982 3.949 3.982z"/></svg>