<svg aria-label="code block icon" viewBox="0 0 24 24"><path d="M20 6v12H4v-4.5a.5.5 0 0 0-.5-.5h-1a.5.5 0 0 0-.5.5V19a1 1 0 0 0 1 1h18a1 1 0 0 0 1-1V5a1 1 0 0 0-1-1h-3.5a.5.5 0 0 0-.5.5v1a.5.5 0 0 0 .5.5z"/><path d="m6.438 10.649-.797.792a.5.5 0 0 1-.707-.002L2.146 8.638a.5.5 0 0 1 0-.706l2.789-2.785a.5.5 0 0 1 .707 0l.795.795a.5.5 0 0 1 0 .707l-1.642 1.64L6.439 9.94a.5.5 0 0 1-.001.708zm6.506-5.504-.797.793a.5.5 0 0 0-.001.707L13.79 8.3l-1.642 1.64a.5.5 0 0 0 0 .707l.796.794a.5.5 0 0 0 .706 0l2.789-2.784a.5.5 0 0 0 0-.707l-2.788-2.802a.5.5 0 0 0-.706-.002zM9.812 4.13a.5.5 0 0 0-.612.353L7.13 12.21a.5.5 0 0 0 .353.613l.966.259a.5.5 0 0 0 .612-.354l2.07-7.727a.5.5 0 0 0-.353-.613z"/></svg>