<svg aria-label="code icon" viewBox="0 0 24 24"><path fill-rule="evenodd" d="m14.266 4.311.94.342a.5.5 0 0 1 .299.641l-5.13 14.096a.5.5 0 0 1-.641.299l-.94-.343a.5.5 0 0 1-.299-.64l5.13-14.096a.5.5 0 0 1 .641-.299zm1.791 11.044.798.793a.5.5 0 0 0 .706-.002l3.788-3.802a.5.5 0 0 0 0-.707L17.56 7.853a.5.5 0 0 0-.706 0l-.796.794a.5.5 0 0 0 0 .708l2.642 2.639-2.644 2.654a.5.5 0 0 0 .001.707zm-8.706.793.797-.793a.5.5 0 0 0 .001-.707l-2.644-2.654 2.642-2.64a.5.5 0 0 0 0-.707l-.795-.794a.5.5 0 0 0-.707 0l-3.788 3.784a.5.5 0 0 0-.001.707l3.788 3.802a.5.5 0 0 0 .707.002z"/></svg>