<svg role="img" aria-label="code icon" viewBox="0 0 20 16" xmlns="http://www.w3.org/2000/svg">
<path d="M12.2663 0.311436L13.206 0.653477C13.4655 0.747898 13.5993 1.03482 13.5048 1.29435L8.37459 15.3897C8.28011 15.6492 7.99324 15.783 7.73372 15.6886L6.79402 15.3465C6.5345 15.2521 6.40071 14.9652 6.49519 14.7057L11.6256 0.610264C11.7199 0.350804 12.0069 0.217015 12.2663 0.311436Z" />
<path d="M14.0574 11.3554L14.8546 12.1479C15.0502 12.3424 15.3665 12.3416 15.5612 12.1462L19.3493 8.34421C19.544 8.14878 19.5437 7.83255 19.3485 7.63755L15.5603 3.85306C15.3651 3.65799 15.0488 3.65799 14.8536 3.853L14.0583 4.64737C13.863 4.8425 13.8627 5.15909 14.0583 5.35483L16.7004 7.99393L14.0559 10.6479C13.8609 10.8435 13.8614 11.1601 14.0574 11.3554Z" />
<path d="M5.35066 12.1479L6.14778 11.3554C6.3437 11.1601 6.34432 10.8435 6.14937 10.6479L3.50472 7.99393L6.14681 5.35483C6.34236 5.15909 6.34224 4.8425 6.14681 4.64737L5.35164 3.853C5.15633 3.65799 4.84004 3.65799 4.64485 3.85306L0.856644 7.63755C0.661454 7.83255 0.661087 8.14878 0.85579 8.34421L4.64388 12.1462C4.8387 12.3416 5.15498 12.3424 5.35066 12.1479Z" />
</svg>
