<?xml version="1.0" encoding="UTF-8"?>
<svg width="24px" height="24px" viewBox="0 0 24 24" version="1.1" xmlns="http://www.w3.org/2000/svg" xmlns:xlink="http://www.w3.org/1999/xlink">
    <!-- Generator: Sketch 46.1 (44463) - http://www.bohemiancoding.com/sketch -->
    <title>Icon/code.icon</title>
    <desc>Created with Sketch.</desc>
    <defs>
        <path d="M12,22.0003 C6.48608696,22.0003 2,17.514213 2,12.0003 C2,6.48638696 6.48608696,2.0003 12,2.0003 C17.513913,2.0003 22,6.48638696 22,12.0003 C22,17.514213 17.513913,22.0003 12,22.0003 Z M12,4.0003 C7.58857143,4.0003 4,7.58957992 4,12.0001809 C4,16.410782 7.58857143,19.9993 12,19.9993 C16.4106667,19.9993 20,16.410782 20,12.0001809 C20,7.58957992 16.4106667,4.0003 12,4.0003 Z M12.8299999,9.20710678 L14.2442135,7.79289322 L18.4513203,12 L14.2442135,16.2071068 L12.8299999,14.7928932 L15.6228931,12 L12.8299999,9.20710678 Z M11.1713205,9.20710678 L8.37842732,12 L11.1713205,14.7928932 L9.75710697,16.2071068 L5.55000019,12 L9.75710697,7.79289322 L11.1713205,9.20710678 Z" id="path-1"></path>
    </defs>
    <g id="Symbols" stroke="none" stroke-width="1" fill="none" fill-rule="evenodd">
        <g id="Icon/code">
            <mask id="mask-2" fill="white">
                <use xlink:href="#path-1"></use>
            </mask>
            <use id="browse" fill="#000000" xlink:href="#path-1"></use>
            <g id="Color/Neutral/White" mask="url(#mask-2)" fill="#FFFFFF">
                <rect id="222222-Fill" x="0" y="0" width="24" height="24"></rect>
            </g>
        </g>
    </g>
</svg>