<svg aria-label="confluence icon" viewBox="0 0 24 24"><path d="M3.656 16.168c-.191.299-.409.653-.572.925a.573.573 0 0 0 .19.788l3.73 2.285a.574.574 0 0 0 .79-.19c.136-.245.326-.571.544-.925 1.47-2.42 2.968-2.149 5.636-.87l3.702 1.74c.3.136.627 0 .763-.272l1.77-3.998c.135-.272 0-.626-.273-.762a113.74 113.74 0 0 1-3.703-1.768c-5.063-2.394-9.31-2.258-12.577 3.047z"/><path d="M20.344 7.082c.191-.299.409-.652.572-.924a.573.573 0 0 0-.19-.79l-3.73-2.284a.574.574 0 0 0-.79.19c-.136.245-.327.571-.544.925-1.47 2.42-2.968 2.149-5.636.87L6.324 3.33a.58.58 0 0 0-.763.272L3.791 7.6c-.135.272 0 .626.273.762.79.353 2.341 1.088 3.703 1.768 5.063 2.394 9.31 2.23 12.577-3.047z"/></svg>