<svg aria-label="connection warning icon" viewBox="0 0 24 24"><path fill-rule="evenodd" clip-rule="evenodd" d="M22 5.5a3.5 3.5 0 11-7 0 3.5 3.5 0 017 0zM18.5 10c.687 0 1.338-.154 1.92-.43.217.193.397.364.538.505a.465.465 0 01-.072.714l-.83.584a.532.532 0 01-.666-.052c-.35-.325-.986-.87-1.85-1.423.31.067.63.102.96.102zm-4.432-3.719c.173.99.67 1.87 1.378 2.524-1.128-.459-2.437-.787-3.87-.787-3.912 0-6.937 2.447-7.886 3.314a.53.53 0 01-.666.046l-.825-.594a.465.465 0 01-.065-.714c1.11-1.087 4.58-4.052 9.441-4.052.88 0 1.712.097 2.493.263zm-6.975 8.687a.542.542 0 01-.66.034l-.826-.594a.458.458 0 01-.056-.715c.87-.795 3.1-2.53 6.012-2.53 2.908 0 5.116 1.736 5.978 2.535a.458.458 0 01-.063.715l-.83.585a.543.543 0 01-.661-.041c-.67-.57-2.35-1.794-4.424-1.794-2.078 0-3.79 1.234-4.47 1.805zm2.575 3.42c.204.147.487.121.698-.014.266-.171.675-.36 1.184-.36.504 0 .903.181 1.163.348.21.136.495.165.7.021l.846-.595c.234-.165.277-.489.064-.68-.488-.436-1.445-1.094-2.773-1.094-1.329 0-2.29.656-2.781 1.089-.214.19-.174.512.058.68l.841.606zm2.907 2.397a1 1 0 11-2 0 1 1 0 012 0zM18 3.75a.25.25 0 01.25-.25h.5a.25.25 0 01.25.25v2a.25.25 0 01-.25.25h-.5a.25.25 0 01-.25-.25v-2zm1.13 3.375a.625.625 0 11-1.25 0 .625.625 0 011.25 0z"/></svg>