<svg aria-label="curriculum icon" viewBox="0 0 24 24"><path fill-rule="evenodd" clip-rule="evenodd" d="M12.5 4h-5a.5.5 0 00-.5.5v5a.5.5 0 00.5.5h5a.5.5 0 00.5-.5v-5a.5.5 0 00-.5-.5zM9 6v2h2V6H9z"/><path fill-rule="evenodd" clip-rule="evenodd" d="M17 1v16a1 1 0 01-1 1H4a1 1 0 01-1-1v-3h-.5a.5.5 0 01-.5-.5v-1a.5.5 0 01.5-.5H3v-2h-.5a.5.5 0 01-.5-.5v-1a.5.5 0 01.5-.5H3V6h-.5a.5.5 0 01-.5-.5v-1a.5.5 0 01.5-.5H3V1a1 1 0 011-1h12a1 1 0 011 1zM5 14v2h10.002L15 2H5v2h.5a.5.5 0 01.5.5v1a.5.5 0 01-.5.5H5v2h.5a.5.5 0 01.5.5v1a.5.5 0 01-.5.5H5v2h.5a.5.5 0 01.5.5v1a.5.5 0 01-.5.5H5z"/><path d="M7 20.8V19h2v.5a.5.5 0 00.5.5H19V6h-1V4h2.177c.454 0 .823.537.823 1.2v15.6c0 .663-.369 1.2-.823 1.2H7.824C7.369 22 7 21.463 7 20.8z"/></svg>