<svg aria-label="dashboard icon" viewBox="0 0 24 24"><path clip-rule="evenodd" d="M13.5 2h-11a.5.5 0 0 0-.5.5v9a.5.5 0 0 0 .5.5h11a.5.5 0 0 0 .5-.5v-9a.5.5 0 0 0-.5-.5zM12 10H4V4h8zm9.5-8h-5a.5.5 0 0 0-.5.5v9a.5.5 0 0 0 .5.5h5a.5.5 0 0 0 .5-.5v-9a.5.5 0 0 0-.5-.5zM18 10h2V4h-2zM2.5 14h6a.5.5 0 0 1 .5.5v7a.5.5 0 0 1-.5.5h-6a.5.5 0 0 1-.5-.5v-7a.5.5 0 0 1 .5-.5zM7 20H4v-4h3zm15-5.5a.5.5 0 0 0-.5-.5h-10a.5.5 0 0 0-.5.5v7a.5.5 0 0 0 .5.5h10a.5.5 0 0 0 .5-.5zM13 20h7v-4h-7z" fill-rule="evenodd"/></svg>