<svg role="img" aria-label="download icon" viewBox="0 0 24 24" xmlns="http://www.w3.org/2000/svg">
  <path d="m13 3.5v9.086l1.9395-1.9394c.1952-.1953.5118-.1953.7071 0l.7069.7068c.1952.1953.1952.5119 0 .7072l-3.9999 3.9998c-.1953.1953-.5119.1953-.7071 0l-3.99993-3.9998c-.19526-.1953-.19526-.5119 0-.7072l.70689-.7068c.19526-.1953.51185-.1953.70711 0l1.93943 1.9394v-9.086c0-.27614.2239-.5.5-.5h1c.2762 0 .5.22386.5.5z"/><path d="m3.5 15c-.27614 0-.5.2239-.5.5v4.5c0 .5523.44772 1 1 1h16c.5523 0 1-.4477 1-1v-4.5c0-.2761-.2239-.5-.5-.5h-1c-.2761 0-.5.2239-.5.5v3.5h-14v-3.5c0-.2761-.22386-.5-.5-.5z"/>
</svg>
