<svg width="24" height="24" viewBox="0 0 24 24" fill="none" xmlns="http://www.w3.org/2000/svg">
<path fill-rule="evenodd" clip-rule="evenodd" d="M23 12.5C21.27 16.89 17 20 12 20C7 20 2.72998 16.89 1 12.5C2.72998 8.10999 7 5 12 5C17 5 21.27 8.10999 23 12.5ZM15 12.5C15 14.1569 13.6569 15.5 12 15.5C10.3431 15.5 9 14.1569 9 12.5C9 10.8431 10.3431 9.5 12 9.5C13.6569 9.5 15 10.8431 15 12.5ZM12 18C8.23999 18 4.83002 15.86 3.17999 12.5C4.83002 9.14001 8.23999 7 12 7C15.76 7 19.17 9.14001 20.82 12.5C19.17 15.86 15.76 18 12 18Z" fill="white"/>
</svg>
