<svg aria-label="figma icon" viewBox="0 0 24 24"><path clip-rule="evenodd" d="M4.25 5.5A4.25 4.25 0 0 1 8.5 1.25h7A4.25 4.25 0 0 1 17.912 9a4.25 4.25 0 1 1-5.162 6.74v3.76A4.25 4.25 0 1 1 6.088 16c-1.11-.767-1.838-2.048-1.838-3.5S4.978 9.767 6.088 9A4.245 4.245 0 0 1 4.25 5.5zm4.25 9.75h2.75v-5.5H8.5a2.75 2.75 0 1 0 0 5.5zm2.75 1.5H8.5a2.75 2.75 0 1 0 2.75 2.75zm7-11.25a2.75 2.75 0 0 1-2.75 2.75h-2.75v-5.5h2.75a2.75 2.75 0 0 1 2.75 2.75zM15.5 9.75a2.75 2.75 0 1 0 0 5.5 2.75 2.75 0 0 0 0-5.5zm-7-1.5h2.75v-5.5H8.5a2.75 2.75 0 0 0 0 5.5z" fill-rule="evenodd"/></svg>