<svg aria-label="format icon" viewBox="0 0 24 24"><path d="M2.34 17.325a.5.5 0 0 0 .468.675h1.244a.5.5 0 0 0 .472-.336L5.24 15.6h4.432l.715 2.064a.5.5 0 0 0 .473.336h1.228a.5.5 0 0 0 .469-.674L8.593 6.678a.5.5 0 0 0-.469-.326H6.787a.5.5 0 0 0-.469.325zm3.636-3.757 1.472-4.256 1.488 4.256zm10.563 4.528c1.488 0 2.416-.928 2.416-.928l.236.534a.5.5 0 0 0 .458.298h.742a.5.5 0 0 0 .5-.5v-4.764c0-1.936-1.392-3.328-3.328-3.328-1.874 0-3.103 1.005-3.49 2.316-.084.286.151.548.45.548h1.154c.24 0 .447-.177.578-.378.168-.257.495-.55 1.116-.55.832 0 1.392.56 1.392 1.488-3.888 0-5.088 1.2-5.088 2.864 0 1.376 1.024 2.4 2.864 2.4zm.384-1.664c-.656 0-1.12-.464-1.12-.928 0-.736.464-1.2 2.96-1.2v.368c0 1.024-.736 1.76-1.84 1.76z"/></svg>