<svg width="24" height="24" viewBox="0 0 24 24" fill="none" xmlns="http://www.w3.org/2000/svg">
<path fill-rule="evenodd" clip-rule="evenodd" d="M14.5 3H19H20.5C20.7761 3 21 3.22388 21 3.5V5V9.5C21 9.77612 20.7761 10 20.5 10H19.5C19.2239 10 19 9.77612 19 9.5V6.41418L14.3535 11.0607C14.1583 11.256 13.8417 11.256 13.6464 11.0607L12.9393 10.3536C12.744 10.1583 12.744 9.8418 12.9393 9.64648L17.5858 5H14.5C14.2239 5 14 4.77612 14 4.5V3.5C14 3.22388 14.2239 3 14.5 3ZM9.64642 12.9393L5 17.5857V14.5C5 14.2239 4.77612 14 4.5 14H3.5C3.22388 14 3 14.2239 3 14.5V19V20.5C3 20.7761 3.22388 21 3.5 21H5H9.5C9.77612 21 10 20.7761 10 20.5V19.5C10 19.2239 9.77612 19 9.5 19H6.41418L11.0607 14.3535C11.2559 14.1582 11.2559 13.8417 11.0607 13.6464L10.3535 12.9393C10.1583 12.744 9.84167 12.744 9.64642 12.9393Z" fill="white"/>
</svg>
