<svg role="img" aria-label="gear icon" viewBox="0 0 24 24" xmlns="http://www.w3.org/2000/svg"><path d="M13 6.083V4h-2v2.083c-1.45.2432-2.7237 1.0066-3.6226 2.0917L5.5734 7.133l-1 1.7322 1.8022 1.0405C6.1326 10.5577 6 11.2634 6 12c0 .736.1325 1.441.375 2.0924L4.5722 15.133l1 1.7322 1.8038-1.0414c.899 1.086 2.1733 1.85 3.624 2.0932V20h2v-2.083c1.451-.2434 2.7255-1.0077 3.6246-2.094l1.805 1.0422 1-1.732-1.8042-1.0418C17.8676 13.4402 18 12.7356 18 12c0-.7363-.1326-1.4416-.3753-2.0933l1.804-1.0415-1-1.732-1.8054 1.0423C15.7243 7.09 14.4503 6.3263 13 6.083zm-8.9235 7.028C4.026 12.748 4 12.377 4 12s.026-.748.0765-1.111L1.8407 9.598l3-5.196 2.2368 1.2913c.582-.455 1.2285-.831 1.9235-1.1122V2h6v2.582c.6946.2812 1.3408.6572 1.9224 1.112l2.238-1.292 3 5.196-2.2378 1.292c.0504.3628.0764.7333.0764 1.11 0 .3767-.026.7472-.0764 1.11l2.2377 1.292-3 5.196-2.238-1.292c-.5815.4548-1.2277.8308-1.9223 1.112V22h-6v-2.581c-.695-.2814-1.3416-.6574-1.9235-1.1123L4.8407 19.598l-3-5.196 2.2358-1.291zM12 16c-2.209 0-4-1.791-4-4s1.791-4 4-4 4 1.791 4 4-1.791 4-4 4zm0-2c1.1046 0 2-.8954 2-2s-.8954-2-2-2-2 .8954-2 2 .8954 2 2 2z" /></svg>
