<svg aria-label="globe icon" viewBox="0 0 24 24"><path fill-rule="evenodd" clip-rule="evenodd" d="M2 12C2 6.477 6.477 2 12 2A10 10 0 112 12zm2 0c0-.69.088-1.36.252-2h3.464a17.178 17.178 0 00.002 4H4.254A7.995 7.995 0 014 12zm1.072 4a8 8 0 004.298 3.555A16.992 16.992 0 018.077 16H5.072zm5.07 0A14.997 14.997 0 0012 20.14 15 15 0 0013.857 16h-3.714zm5.78 0a17.005 17.005 0 01-1.293 3.556 8 8 0 004.3-3.556h-3.006zm3.824-2h-3.464a16.98 16.98 0 000-4h3.464a7.997 7.997 0 010 4zm-5.48 0H9.734a15.003 15.003 0 01-.002-4h4.534a14.988 14.988 0 010 4zM8.073 8H5.07a8.024 8.024 0 014.297-3.557A16.874 16.874 0 008.073 8zm2.066 0h3.718a15.008 15.008 0 00-1.858-4.14A14.915 14.915 0 0010.139 8zm5.784 0h3.005a7.997 7.997 0 00-4.3-3.556A17.005 17.005 0 0115.923 8z"/></svg>