<?xml version="1.0" encoding="UTF-8"?>
<svg width="24px" height="24px" viewBox="0 0 24 24" version="1.1" xmlns="http://www.w3.org/2000/svg" xmlns:xlink="http://www.w3.org/1999/xlink">
    <!-- Generator: Sketch 46.1 (44463) - http://www.bohemiancoding.com/sketch -->
    <title>Icon/hand.icon</title>
    <desc>Created with Sketch.</desc>
    <defs>
        <path d="M10.0085155,9.40658354 C10.6380844,10.4570176 11,11.6862439 11,13 C11,14.7767889 10.3380131,16.3989625 9.24722432,17.6333356 L7.88521114,16.1475031 C8.58230886,15.2880821 9,14.1928195 9,13 C9,11.8750539 8.62849109,10.8368783 8.0014697,10.0014697 L7.29289322,9.29289322 L15.79,0.790000021 L17.2099991,2.21000004 L10.0085155,9.40658354 L10.0085155,9.40658354 Z M21.2900009,6.28999996 L22.7099991,7.71000004 L16.2071068,14.2071068 L14.7928932,12.7928932 L21.2900009,6.28999996 Z M19.7900009,2.28999996 L21.2099991,3.71000004 L14.2071068,10.7071068 L12.7928932,9.29289322 L19.7900009,2.28999996 Z M21.0925591,12.093227 L22.5074394,13.5067734 L15.5104076,20.5104076 C12.1909512,23.8298641 6.80904884,23.8298641 3.48959236,20.5104076 C0.17013588,17.1909512 0.17013588,11.8090488 3.48959236,8.48959236 C6.18254976,5.79663496 6.44047091,4.88498925 5.5298575,1.24253563 L7.4701425,0.757464375 C8.55216664,5.08556092 8.09059931,6.71701253 4.90380592,9.90380592 C2.36539803,12.4422138 2.36539803,16.5577862 4.90380592,19.0961941 C7.44221382,21.634602 11.5577862,21.634602 14.0958607,19.0965276 L21.0925591,12.093227 Z" id="path-1"></path>
    </defs>
    <g id="Symbols" stroke="none" stroke-width="1" fill="none" fill-rule="evenodd">
        <g id="Icon/hand">
            <mask id="mask-2" fill="white">
                <use xlink:href="#path-1"></use>
            </mask>
            <use id="Combined-Shape" fill="#000000" fill-rule="nonzero" xlink:href="#path-1"></use>
            <g id="Color/Neutral/White" mask="url(#mask-2)" fill="#FFFFFF">
                <rect id="222222-Fill" x="0" y="0" width="24" height="24"></rect>
            </g>
        </g>
    </g>
</svg>