<svg aria-label="hand icon" viewBox="0 0 24 24"><path d="M22.154 13.153l-.708-.706a.5.5 0 00-.707 0l-6.643 6.65a6.5 6.5 0 01-9.192-9.193c2.858-2.859 3.524-4.466 2.85-7.89a21.24 21.24 0 00-.167-.762l-.002-.008A.5.5 0 006.979.88l-.969.242a.5.5 0 00-.365.6c.06.26.106.462.136.605.576 2.774.112 3.759-2.291 6.163a8.5 8.5 0 0012.02 12.02l6.644-6.65a.5.5 0 000-.707z"/><path d="M10.033 16.551A6.968 6.968 0 0011 13a6.966 6.966 0 00-.992-3.593l6.849-6.844a.5.5 0 000-.707l-.713-.713a.5.5 0 00-.707 0l-8.144 8.15L8 10a4.98 4.98 0 011 3c0 .941-.26 1.821-.712 2.573a4.274 4.274 0 01-.166.251.5.5 0 00.04.626l.686.747a.5.5 0 00.769-.038 6.85 6.85 0 00.416-.608zm11.611-9.907l.712.712a.5.5 0 010 .707l-6.149 6.144-1.414-1.414 6.143-6.15a.5.5 0 01.708 0z"/><path d="M20.856 3.356l-.712-.712a.5.5 0 00-.707 0l-6.644 6.649 1.414 1.414 6.65-6.644a.5.5 0 000-.707z"/></svg>