<svg viewBox="0 0 24 24" xmlns="http://www.w3.org/2000/svg"><path d="M10.0085 9.4066C10.638 10.457 11 11.6862 11 13c0 1.7768-.662 3.399-1.7528 4.6333l-1.362-1.4858C8.5822 15.288 9 14.1928 9 13c0-1.125-.3715-2.163-.9985-2.9985L7.293 9.293 15.79.79l1.42 1.42-7.2015 7.1966zM21.29 6.29l1.42 1.42-6.503 6.497-1.414-1.414L21.29 6.29zm-1.5-4l1.42 1.42-7.003 6.997-1.414-1.414L19.79 2.29zm1.3026 9.8032l1.4148 1.4136-6.997 7.0036c-3.3194 3.3195-8.7014 3.3195-12.0208 0C.17 17.191.17 11.809 3.4896 8.4896c2.693-2.693 2.951-3.6046 2.0403-7.247l1.94-.485c1.082 4.328.6205 5.9594-2.5663 9.1462-2.5384 2.5384-2.5384 6.654 0 9.1924 2.5384 2.5384 6.654 2.5384 9.192.0003l6.9968-7.0033z" /></svg>
