<svg aria-label="help icon" viewBox="0 0 24 24"><path fill-rule="evenodd" clip-rule="evenodd" d="M12 2C6.48 2 2 6.48 2 12s4.48 10 10 10 10-4.48 10-10S17.52 2 12 2zm-1.65 8.41h-.93l-.02-.001a.41.41 0 01-.388-.43c.03-.595.149-1.472.705-1.966.6-.531.635-.545.865-.632.045-.017.098-.037.164-.065.402-.167.85-.25 1.347-.25.64 0 1.176.088 1.604.264.429.176.774.394 1.036.656a2.432 2.432 0 01.73 1.692c0 .433-.056.79-.168 1.07a2.641 2.641 0 01-.975 1.225c-.203.14-.395.28-.575.42a2.695 2.695 0 00-.52.527l-.001.003-.003.002c-.096.117-.179.217-.209.658a.448.448 0 01-.447.417h-1.094a.442.442 0 01-.438-.504c.061-.437.197-.695.297-.886.025-.047.047-.09.066-.13.122-.261.264-.485.426-.67a3.39 3.39 0 01.515-.48 8.51 8.51 0 00.5-.406c.154-.136.278-.285.373-.447.095-.162.137-.366.128-.61 0-.414-.101-.721-.304-.92-.203-.198-.485-.298-.846-.298a1.31 1.31 0 00-.63.143c-.176.094-.32.22-.433.379a1.643 1.643 0 00-.25.555c-.023.088-.04.18-.054.273a.476.476 0 01-.472.41zM11.5 15a.5.5 0 00-.5.5v1a.5.5 0 00.5.5h1a.5.5 0 00.5-.5v-1a.5.5 0 00-.5-.5h-1zM4 12c0 4.41 3.59 8 8 8s8-3.59 8-8-3.59-8-8-8-8 3.59-8 8z"/></svg>