<svg aria-label="image add icon" viewBox="0 0 24 24"><path d="M5 5v14h14v-6.5a.5.5 0 0 1 .5-.5h1a.5.5 0 0 1 .5.5V20a1 1 0 0 1-1 1H4a1 1 0 0 1-1-1V4a1 1 0 0 1 1-1h7.5a.5.5 0 0 1 .5.5v1a.5.5 0 0 1-.5.5z"/><path d="M18 3.5a.5.5 0 0 0-.5-.5h-1a.5.5 0 0 0-.5.5V6h-2.5a.5.5 0 0 0-.5.5v1a.5.5 0 0 0 .5.5H16v2.5a.5.5 0 0 0 .5.5h1a.5.5 0 0 0 .5-.5V8h2.5a.5.5 0 0 0 .5-.5v-1a.5.5 0 0 0-.5-.5H18zM7.207 17h9.859a.5.5 0 0 0 .416-.777l-3.09-4.635a.5.5 0 0 0-.816-.023L11 15l-1.678-.839a.5.5 0 0 0-.577.094l-1.891 1.891a.5.5 0 0 0 .353.854z"/></svg>