<svg aria-label="list numbers icon" viewBox="0 0 24 24"><path d="M3.805 9.75c0 .138.112.25.25.25h3.014a.25.25 0 0 0 .25-.25v-.872a.25.25 0 0 0-.25-.25h-.8V5.154a.25.25 0 0 0-.25-.25H5.17a.25.25 0 0 0-.142.044l-1.154.794a.25.25 0 0 0-.07.338l.386.623a.25.25 0 0 0 .355.074l.309-.214v2.065h-.8a.25.25 0 0 0-.25.25zM9.5 5h11a.5.5 0 0 1 .5.5v1a.5.5 0 0 1-.5.5h-11a.5.5 0 0 1-.5-.5v-1a.5.5 0 0 1 .5-.5zm11 6h-11a.5.5 0 0 0-.5.5v1a.5.5 0 0 0 .5.5h11a.5.5 0 0 0 .5-.5v-1a.5.5 0 0 0-.5-.5zm0 6h-11a.5.5 0 0 0-.5.5v1a.5.5 0 0 0 .5.5h11a.5.5 0 0 0 .5-.5v-1a.5.5 0 0 0-.5-.5zM3.887 19a.25.25 0 0 1-.25-.25v-.58a.25.25 0 0 1 .07-.174L5.38 16.25s.441-.4.441-.728c0-.203-.161-.364-.399-.364a.46.46 0 0 0-.434.26c-.064.133-.182.254-.328.241l-.862-.074c-.133-.012-.235-.127-.215-.259.139-.883.838-1.498 1.874-1.498 1.176 0 1.862.686 1.862 1.575 0 .812-.847 1.533-.847 1.533l-.651.693h1.248a.25.25 0 0 1 .25.25v.872a.25.25 0 0 1-.25.25z"/></svg>