<?xml version="1.0" encoding="UTF-8"?>
<svg width="24px" height="24px" viewBox="0 0 24 24" version="1.1" xmlns="http://www.w3.org/2000/svg" xmlns:xlink="http://www.w3.org/1999/xlink">
    <!-- Generator: Sketch 46.1 (44463) - http://www.bohemiancoding.com/sketch -->
    <title>Icon/ps-logo.icon</title>
    <desc>Created with Sketch.</desc>
    <defs>
        <path d="M12,24 C5.37227032,24 0,18.6269814 0,12.0005169 C0,5.37301861 5.37278718,0 12,0 C18.6277297,0 24.0005169,5.37301861 24,12.0005169 C24,18.6269814 18.6277297,24 12,24 Z M12,22.96875 C18.0581592,22.96875 22.96875,18.0574752 22.96875,12.0004725 C22.9692224,5.94252482 18.0581592,1.03125 12,1.03125 C5.94231328,1.03125 1.03125,5.94252482 1.03125,12.0004725 C1.03125,18.0574752 5.94184084,22.96875 12,22.96875 Z M8.90625,8.53331979 L8.90625,5.71875 L19.6875,12 L8.90625,18.28125 L8.90625,15.4666531 L6.46875,16.875 L6.46875,7.125 L8.90625,8.53331979 L8.90625,8.53331979 Z M8.90625,9.72432155 L7.5,8.91182813 L7.5,15.088125 L8.90625,14.2756192 L8.90625,9.72432155 Z M9.9375,10.3201501 L9.9375,13.6797817 L12.844875,11.9999531 L9.9375,10.3201501 Z M9.9375,14.8708141 L9.9375,16.4869219 L17.6389219,12 L9.9375,7.51307812 L9.9375,9.1291474 L14.90625,11.9999531 L9.9375,14.8708141 L9.9375,14.8708141 Z" id="path-1"></path>
    </defs>
    <g id="Symbols" stroke="none" stroke-width="1" fill="none" fill-rule="evenodd">
        <g id="Icon/ps-logo">
            <mask id="mask-2" fill="white">
                <use xlink:href="#path-1"></use>
            </mask>
            <use id="Mark" fill="#000000" xlink:href="#path-1"></use>
            <g id="Color/Neutral/White" mask="url(#mask-2)" fill="#FFFFFF">
                <rect id="222222-Fill" x="0" y="0" width="24" height="24"></rect>
            </g>
        </g>
    </g>
</svg>