<svg viewBox="0 0 24 24" version="1.1" xmlns="http://www.w3.org/2000/svg">
  <title>Logo icon</title>
  <g>
    <path d="M15.0722,1.6849 C9.6602,-0.2851 3.6552,2.5159 1.6852,7.9279 C-0.2848,13.3399 2.5152,19.3449 7.9272,21.3149 C13.3392,23.2849 19.3452,20.4839 21.3152,15.0729 C23.2852,9.6609 20.4842,3.6549 15.0722,1.6849 M11.5002,22.9999 C5.1592,22.9999 0.0002,17.8409 0.0002,11.4999 C0.0002,5.1589 5.1592,-0.0001 11.5002,-0.0001 C17.8412,-0.0001 23.0002,5.1589 23.0002,11.4999 C23.0002,17.8409 17.8412,22.9999 11.5002,22.9999"></path>
    <path d="M8,5 L8,18 L19,11.5 L8,5 Z M9,7 L17,11.5 L9,16 L9,7 Z"></path>
    <path d="M6,6.5 L6,16.5 L14,11.5 L6,6.5 Z M7,9 L12,11.5 L7,14 L7,9 Z"></path>
  </g>
</svg>
