<svg aria-label="megaphone icon" viewBox="0 0 24 24"><path fill-rule="evenodd" clip-rule="evenodd" d="M18 4.451c0-.989-1.078-1.567-1.9-1.072C12.367 5.627 8.032 6.955 3.116 7A1.126 1.126 0 002 8.124v5.752c0 .627.509 1.121 1.12 1.125 1.044.006 2.03.028 2.97.082l.845 5.493a.5.5 0 00.494.424h1.988a.5.5 0 00.494-.576l-.77-5.014c2.532.434 4.72 1.302 6.805 3.008.791.647 2.054.125 2.054-.969V4.451zM6 8.833a27.016 27.016 0 0010-3.095v10.229c-3.041-2.052-6.294-2.7-10-2.893v-4.24z" fill-opacity=".95"/><path d="M20.5 10a.5.5 0 00-.5.5v1a.5.5 0 00.5.5h2a.5.5 0 00.5-.5v-1a.5.5 0 00-.5-.5h-2zm-1.297-2.686a.5.5 0 01.183-.683l1.732-1a.5.5 0 01.683.183l.5.866a.5.5 0 01-.183.683l-1.732 1a.5.5 0 01-.683-.183l-.5-.866zm2.911 7.316a.5.5 0 01.183.684l-.5.866a.5.5 0 01-.683.183l-1.732-1a.5.5 0 01-.183-.683l.5-.866a.5.5 0 01.683-.183l1.732 1z" fill-opacity=".95"/></svg>