<svg aria-label="mic icon" viewBox="0 0 24 24"><path fill-rule="evenodd" clip-rule="evenodd" d="M14.99 11c0 1.66-1.33 3-2.99 3-1.66 0-3-1.34-3-3V5c0-1.66 1.34-3 3-3s3 1.34 3 3l-.01 6zM12 3.7c-.66 0-1.2.54-1.2 1.2v6.2c0 .66.54 1.2 1.2 1.2.66 0 1.19-.54 1.19-1.2l.01-6.2c0-.66-.54-1.2-1.2-1.2zm5.269 7.757c-.022.26-.05.463-.081.611C16.669 14.487 14.419 16.1 12 16.1c-2.419 0-4.668-1.613-5.188-4.03a5.14 5.14 0 01-.081-.613.5.5 0 00-.498-.457H5.53a.5.5 0 00-.498.54c.02.261.046.47.075.628.535 2.869 2.995 5.12 5.892 5.552V20H9.5a.5.5 0 00-.5.5v1a.5.5 0 00.5.5h5a.5.5 0 00.5-.5v-1a.5.5 0 00-.5-.5H13v-2.28c2.927-.428 5.409-2.72 5.908-5.64.024-.137.044-.318.061-.542a.5.5 0 00-.498-.538h-.704a.5.5 0 00-.498.457z"/></svg>