<svg aria-label="note icon" viewBox="0 0 24 24"><path fill-rule="evenodd" clip-rule="evenodd" d="M21 21V3a1 1 0 0 0-1-1H6a1 1 0 0 0-1 1v3H3.5a.5.5 0 0 0-.5.5v1a.5.5 0 0 0 .5.5H5v3H3.5a.5.5 0 0 0-.5.5v1a.5.5 0 0 0 .5.5H5v3H3.5a.5.5 0 0 0-.5.5v1a.5.5 0 0 0 .5.5H5v3a1 1 0 0 0 1 1h14a1 1 0 0 0 1-1zm-1.998-1H7v-2h.5a.5.5 0 0 0 .5-.5v-1a.5.5 0 0 0-.5-.5H7v-3h.5a.5.5 0 0 0 .5-.5v-1a.5.5 0 0 0-.5-.5H7V8h.5a.5.5 0 0 0 .5-.5v-1a.5.5 0 0 0-.5-.5H7V4h12l.002 16zM10.5 7h6a.5.5 0 0 1 .5.5v5a.5.5 0 0 1-.5.5h-6a.5.5 0 0 1-.5-.5v-5a.5.5 0 0 1 .5-.5zm1.5 4V9h3v2h-3z"/></svg>