<svg width="24" height="24" viewBox="0 0 24 24" fill="none" xmlns="http://www.w3.org/2000/svg">
<path fill-rule="evenodd" clip-rule="evenodd" d="M19.6 16.1C18.6 15.1 18.4 13.1 18.4 12V9.9C18.4 7.1 16.5 4.7 14 3.8C13.9 2.8 13 2 12 2C11 2 10.1 2.8 10 3.8C7.5 4.7 5.6 7.1 5.6 9.9V12.1C5.6 13.2 5.4 15.2 4.4 16.2C4.1 16.3 4 16.6 4 16.9C4 17.5 4.5 18 5.1 18H19C19.6 18 20.1 17.5 20.1 16.9C20 16.6 19.9 16.3 19.6 16.1ZM6.8 16C7.373 14.854 7.48999 13.4344 7.58646 12.2637L7.6 12.1V9.9C7.6 7.5 9.6 5.5 12 5.5C14.4 5.5 16.4 7.5 16.4 9.9V12.1C16.4 13.3 16.6 14.7 17.2 16H6.8ZM15 19C15 20.7 13.7 22 12 22C10.3 22 9 20.7 9 19H15Z" fill="white"/>
</svg>
