<svg aria-label="notifications new icon" viewBox="0 0 24 24"><path fill-rule="evenodd" clip-rule="evenodd" d="M8.2 2.2c-.96.384-1.552 1.414-1.243 2.47A6.435 6.435 0 004.9 11.9l.7 2c.3 1 .8 3 .2 4.2-.2.3-.2.6-.1.9.2.4.6.7 1 .7.1 0 .2 0 .4-.1l13-4.7c.6-.2.8-.8.6-1.4-.1-.3-.4-.5-.6-.6-1.3-.6-2.1-2.4-2.5-3.4l-.7-2c-.9-2.6-3.4-4.2-6-4.2l-.143.001C10.32 2.367 9.167 1.91 8.2 2.2zm6.8 6c-.6-1.7-2.3-2.9-4.1-2.9-.5 0-1 0-1.5.2-1.1.4-2 1.2-2.5 2.3-.5 1.1-.5 2.3-.1 3.4l.7 2c.4 1.1.7 2.5.6 3.9l9.7-3.5c-1-1-1.7-2.3-2.1-3.4l-.7-2zm-1.8 13.5c1.6-.5 2.4-2.2 1.8-3.8l-5.6 2c.5 1.6 2.2 2.4 3.8 1.8z"/></svg>