<svg aria-label="objective icon" viewBox="0 0 24 24"><path fill-rule="evenodd" clip-rule="evenodd" d="M23.23 1.783a.25.25 0 010 .358l-4.023 3.926 2.353 2.297a.25.25 0 01-.174.429H15.25a.25.25 0 01-.25-.25V2.555a.25.25 0 01.425-.179l2.368 2.311L21.825.752a.25.25 0 01.35 0l1.056 1.031zM12 12.696c-.553 0-1-.438-1-.976 0-.54.447-.976 1-.976.553 0 1 .436 1 .976a.988.988 0 01-1 .976zm-3-.976c0-1.614 1.346-2.927 3-2.927V6.84c-2.757 0-5 2.189-5 4.879 0 2.69 2.243 4.88 5 4.88s5-2.19 5-4.88h-2c0 1.614-1.346 2.928-3 2.928s-3-1.314-3-2.928zm-4 0c0 3.767 3.14 6.83 7 6.83s7-3.063 7-6.83h2c0 4.843-4.037 8.783-9 8.783s-9-3.94-9-8.783 4.037-8.782 9-8.782v1.951c-3.86 0-7 3.064-7 6.831z"/></svg>