<svg viewBox="0 0 24 24" xmlns="http://www.w3.org/2000/svg"><path d="M21 16.159v-2.184c0-1.654-1.346-3-3-3h-5v-3h6c.552 0 1-.447 1-1v-4c0-.552-.448-1-1-1H5c-.552 0-1 .448-1 1v4c0 .553.448 1 1 1h6v3H6c-1.654 0-3 1.346-3 3v2.184c-1.161.414-2 1.514-2 2.816 0 1.654 1.346 3 3 3s3-1.346 3-3c0-1.302-.838-2.401-2-2.816v-2.184c0-.551.449-1 1-1h5v3.184c-1.161.414-2 1.514-2 2.816 0 1.654 1.346 3 3 3s3-1.346 3-3c0-1.302-.838-2.401-2-2.816v-3.184h5c.552 0 1 .449 1 1v2.184c-1.161.414-2 1.514-2 2.816 0 1.654 1.346 3 3 3s3-1.346 3-3c0-1.302-.838-2.402-2-2.816zM6 3.975h12v2H6v-2zm-2 16c-.551 0-1-.448-1-1 0-.551.449-1 1-1 .552 0 1 .449 1 1 0 .551-.448 1-1 1zm8 0c-.551 0-1-.448-1-1 0-.551.449-1 1-1 .552 0 1 .449 1 1 0 .551-.448 1-1 1zm8 0c-.552 0-1-.448-1-1 0-.551.448-1 1-1s1 .449 1 1c0 .551-.448 1-1 1z" /></svg>
