<svg aria-label="path icon" viewBox="0 0 24 24"><path fill-rule="evenodd" clip-rule="evenodd" d="M4.411 9l3.44 3.44a.5.5 0 01.146.353V20.5a.5.5 0 01-.5.5H6.5a.5.5 0 01-.5-.5l-.003-7.086L3 10.417V12.5a.5.5 0 01-.5.5h-1a.5.5 0 01-.5-.5v-5a.5.5 0 01.5-.5h5a.5.5 0 01.5.5v1a.5.5 0 01-.5.5H4.411zM21 10.414l-3 3V20.5a.5.5 0 01-.5.5h-1a.5.5 0 01-.5-.5v-7.707a.5.5 0 01.146-.353L19.586 9H17.5a.5.5 0 01-.5-.5v-1a.5.5 0 01.5-.5h5a.5.5 0 01.5.5v5a.5.5 0 01-.5.5h-1a.5.5 0 01-.5-.5v-2.086zM12.5 21h-1a.5.5 0 01-.5-.5V4.831L9.528 6.303a.5.5 0 01-.707 0l-.707-.707a.5.5 0 010-.707l3.535-3.535a.5.5 0 01.707 0l3.536 3.535a.5.5 0 010 .707l-.707.707a.5.5 0 01-.707 0L13 4.826V20.5a.5.5 0 01-.5.5z"/></svg>