<svg viewBox="0 0 24 24" xmlns="http://www.w3.org/2000/svg"><path d="M5.2762 15.862L5 19l3.1392-.275 8.0858-8.0858-2.863-2.863-8.0858 8.0858zm12.363-6.637l.7668-.7667c.384-.3842.5922-.887.5922-1.4318 0-.5455-.208-1.048-.5932-1.4328-.3838-.3838-.885-.5912-1.4308-.5912-.5446 0-1.047.208-1.4318.5932l-.7662.7663 2.863 2.863zm-.665-6.2225c1.076 0 2.086.418 2.845 1.177.761.76 1.179 1.772 1.179 2.847 0 1.074-.418 2.086-1.178 2.846l-10.409 10.409c-.128.128-.289.22-.464.263l-4.705.427c-.34.085-.702-.015-.949-.264-.248-.247-.348-.608-.264-.949l.427-4.704c.044-.176.135-.336.263-.464l10.409-10.409c.76-.761 1.772-1.179 2.846-1.179z" /></svg>
