<svg aria-label="pencil icon" viewBox="0 0 24 24"><path clip-rule="evenodd" d="M19.82 4.18a3.996 3.996 0 0 0-2.846-1.177 3.997 3.997 0 0 0-2.846 1.178L3.72 14.591a.998.998 0 0 0-.263.464l-.5 5.446a.5.5 0 0 0 .544.544l5.447-.5a.995.995 0 0 0 .464-.263l10.41-10.41a4 4 0 0 0 1.177-2.845A3.997 3.997 0 0 0 19.82 4.18zm-2.18 5.045.766-.767a2 2 0 0 0 .592-1.432c0-.545-.208-1.048-.593-1.432a1.996 1.996 0 0 0-1.43-.592c-.545 0-1.048.208-1.433.594l-.766.766zM5.275 15.862 5 19l3.14-.275 8.085-8.086-2.863-2.863z" fill-rule="evenodd"/></svg>