<svg width="24" height="24" viewBox="0 0 24 24" fill="none" xmlns="http://www.w3.org/2000/svg">
<path fill-rule="evenodd" clip-rule="evenodd" d="M7 1C5.89543 1 5 1.89543 5 3V21C5 22.1046 5.89543 23 7 23H17C18.1046 23 19 22.1046 19 21V3C19 1.89543 18.1046 1 17 1H7ZM7.5 4C7.22386 4 7 4.22386 7 4.5V18.5C7 18.7761 7.22386 19 7.5 19H16.5C16.7761 19 17 18.7761 17 18.5V4.5C17 4.22386 16.7761 4 16.5 4H7.5ZM11 2.75C11 2.61193 11.1119 2.5 11.25 2.5H12.75C12.8881 2.5 13 2.61193 13 2.75C13 2.88807 12.8881 3 12.75 3H11.25C11.1119 3 11 2.88807 11 2.75ZM12 20C11.4477 20 11 20.4477 11 21C11 21.5523 11.4477 22 12 22C12.5523 22 13 21.5523 13 21C13 20.4477 12.5523 20 12 20Z" fill="white"/>
</svg>
