<svg aria-label="placeholder icon" viewBox="0 0 24 24"><path d="M17 3h-2v2h2V3zm-4 0v2h-2V3h2zM9 3v2H7V3h2zM5 3v2H3V3.9a.9.9 0 01.9-.9H5zM3 9V7h2v2H3zm0 2v2h2v-2H3zm0 6v-2h2v2H3zm0 2v1.1a.9.9 0 00.9.9H5v-2H3zm4 0v2h2v-2H7zm4 0v2h2v-2h-2zm4 0v2h2v-2h-2zm4 0v2h1.1a.9.9 0 00.9-.9V19h-2zm2-4h-2v2h2v-2zm0-4v2h-2v-2h2zm0-2V7h-2v2h2zm0-5.1V5h-2V3h1.1a.9.9 0 01.9.9zM11 8.5a.5.5 0 01.5-.5h1a.5.5 0 01.5.5V11h2.5a.5.5 0 01.5.5v1a.5.5 0 01-.5.5H13v2.5a.5.5 0 01-.5.5h-1a.5.5 0 01-.5-.5V13H8.5a.5.5 0 01-.5-.5v-1a.5.5 0 01.5-.5H11V8.5z"/></svg>