<svg role="image" aria-label="project icon" xmlns="http://www.w3.org/2000/svg" viewBox="0 0 24 24">
  <path d="M12,22 C6.4771525,22 2,17.5228475 2,12 C2,6.4771525 6.4771525,2 12,2 C17.5228475,2 22,6.4771525 22,12 C22,17.5228475 17.5228475,22 12,22 Z M7,12 C7,9.23857625 9.23857625,7 12,7 C12.5212208,7 13.0238143,7.07975342 13.4962427,7.22772268 C13.6120712,7.2640013 13.6765591,7.38730846 13.6402804,7.50313693 C13.6296781,7.5369875 13.6110396,7.56776872 13.585957,7.59285129 L10.5900002,10.5887958 L13.4184273,13.4172229 L16.4050838,10.4306194 C16.4927477,10.3429555 16.634879,10.3429555 16.7225429,10.4306194 C16.7483821,10.4564585 16.7675225,10.4882151 16.7783019,10.5231311 C16.9224102,10.9899178 17,11.4858979 17,12 C17,14.7614237 14.7614237,17 12,17 C11.3551407,17 10.7387942,16.8779225 10.17281,16.6556171 L7.9360653,18.8923618 C9.12709181,19.5961412 10.5163828,20 12,20 C16.418278,20 20,16.418278 20,12 C20,7.581722 16.418278,4 12,4 C7.581722,4 4,7.581722 4,12 C4,13.4836172 4.40385879,14.8729082 5.10763818,16.0639347 L7.3443829,13.82719 C7.12207751,13.2612058 7,12.6448593 7,12 Z"/>
</svg>
