<svg role="img" aria-label="question icon" viewBox="0 0 24 24" xmlns="http://www.w3.org/2000/svg"><path d="M11 15h2v2h-2v-2zm-2-4.5908c.009-.4873 0-1.7598.7173-2.396.7174-.6362.6272-.5302 1.0288-.697.4018-.167.8508-.2506 1.347-.2506.641 0 1.1756.088 1.604.264.429.176.774.3948 1.0358.6565.2617.262.449.544.5618.8463.1128.3023.1692.5843.1692.846 0 .4332-.0564.7897-.1692 1.0694-.1128.2798-.2527.519-.4197.7175-.167.1986-.352.3678-.555.5077-.203.14-.395.2797-.5754.4196-.1805.1398-.3407.3-.4805.4805-.14.1805-.264.2266-.264 1.127h-2c0-.9004.274-1.258.396-1.5196.1218-.2617.264-.485.4264-.67.1624-.185.334-.3452.5144-.4806.1805-.1353.3474-.2707.501-.406.1533-.1354.2774-.2843.372-.4468.095-.1625.1377-.3656.1287-.6092 0-.4152-.1015-.722-.3046-.9205-.203-.1986-.485-.298-.846-.298-.2438 0-.4536.0475-.6296.1423-.176.0947-.3203.221-.433.379-.113.158-.1964.343-.2506.555-.054.212-.0812.44-.0812.6836H9zM12 2C6.48 2 2 6.48 2 12s4.48 10 10 10 10-4.48 10-10S17.52 2 12 2zm0 18c-4.41 0-8-3.59-8-8s3.59-8 8-8 8 3.59 8 8-3.59 8-8 8z" /></svg>
