<svg aria-label="reload icon" viewBox="0 0 24 24"><path d="m5.432 16.568 1.714-1.714A.5.5 0 0 0 6.793 14H2.5a.5.5 0 0 0-.5.5v4.293a.5.5 0 0 0 .854.353L4 18a9.985 9.985 0 0 0 8 4 9.994 9.994 0 0 0 8.53-4.778.481.481 0 0 0-.189-.672l-.878-.48a.525.525 0 0 0-.692.192A7.994 7.994 0 0 1 12 20a7.99 7.99 0 0 1-6.568-3.432zM3.47 6.778a.481.481 0 0 0 .189.672l.878.48a.525.525 0 0 0 .692-.192A7.994 7.994 0 0 1 11.999 4a7.99 7.99 0 0 1 6.57 3.432l-1.715 1.714a.5.5 0 0 0 .353.854H21.5a.5.5 0 0 0 .5-.5V5.207a.5.5 0 0 0-.854-.353L20 6a9.985 9.985 0 0 0-8-4 9.994 9.994 0 0 0-8.53 4.778z"/></svg>