<svg viewBox="0 0 24 24" xmlns="http://www.w3.org/2000/svg"><path d="M22 11c0-.551-.448-1-1-1h-4c-.552 0-1 .449-1 1v9h-1v-4c0-.551-.448-1-1-1h-4c-.552 0-1 .449-1 1v4H8v-7c0-.551-.448-1-1-1H3c-.552 0-1 .449-1 1v7H0v2h24v-2h-2v-9zM4 20v-6h2v6H4zm7 0v-3h2v3h-2zm7 0v-8h2v8h-2zM5 9c-1.104 0-2-.896-2-2s.896-2 2-2c1.102 0 1.994.891 1.999 1.992l4.002 2.286C11.296 9.106 11.635 9 12 9c.178 0 .347.031.511.074l4.563-4.562C17.031 4.349 17 4.179 17 4c0-1.104.896-2 2-2s2 .896 2 2-.896 2-2 2c-.178 0-.348-.029-.512-.073l-4.562 4.562c.043.165.074.333.074.511 0 1.104-.896 2-2 2-1.102 0-1.994-.89-1.999-1.99L5.999 8.724C5.704 8.896 5.365 9 5 9z" /></svg>
