<svg role="img" aria-label="scope icon" viewBox="0 0 24 24" xmlns="http://www.w3.org/2000/svg"><path d="M12.839 11.4557c.4603-.124.957.0964 1.1655.5434l3.8035 8.157c.2334.5004.017 1.0954-.4837 1.329-.5005.2332-1.0955.0167-1.329-.484L13 14.5774V21c0 .5523-.4477 1-1 1s-1-.4477-1-1v-6.4228L8.0045 21.001c-.2334.5006-.8284.717-1.329.4837-.5004-.2334-.717-.8284-.4836-1.329l3.8033-8.1566c.2085-.447.7052-.6673 1.1656-.5432.1782-.2743.4874-.4556.839-.4556s.6606.1814.839.4557zM11 10h8V6h-8v4zm-1-6h10c.5523 0 1 .4477 1 1v6c0 .5523-.4477 1-1 1H10c-.5523 0-1-.4477-1-1V5c0-.5523.4477-1 1-1zM8 9h1V7H8v2zM7 5h3c.5523 0 1 .4477 1 1v4c0 .5523-.4477 1-1 1H7c-.5523 0-1-.4477-1-1V6c0-.5523.4477-1 1-1zM5 6h1c.5523 0 1 .4477 1 1v2c0 .5523-.4477 1-1 1H5c-.5523 0-1-.4477-1-1V7c0-.5523.4477-1 1-1z" /></svg>
