<svg viewBox="0 0 24 24" xmlns="http://www.w3.org/2000/svg"><path d="M21.707 20.294L16.314 14.9C17.403 13.504 18 11.799 18 10c0-2.137-.833-4.144-2.344-5.656C14.145 2.832 12.137 2 10 2c-2.137 0-4.146.832-5.656 2.344C2.832 5.856 2 7.863 2 10c0 2.137.832 4.146 2.344 5.656C5.854 17.168 7.863 18 10 18c1.799 0 3.504-.596 4.9-1.685l5.393 5.393 1.414-1.414zM10 16c-1.603 0-3.109-.624-4.242-1.757C4.624 13.11 4 11.603 4 10c0-1.602.624-3.109 1.758-4.242C6.891 4.624 8.397 4 10 4c1.602 0 3.109.624 4.242 1.758C15.376 6.891 16 8.398 16 10c0 1.603-.624 3.11-1.758 4.243C13.109 15.376 11.602 16 10 16z" /></svg>
