<svg width="24" height="24" viewBox="0 0 24 24" fill="none" xmlns="http://www.w3.org/2000/svg">
<path fill-rule="evenodd" clip-rule="evenodd" d="M21 2H3C2.44775 2 2 2.44775 2 3V21C2 21.5522 2.44775 22 3 22H21C21.5522 22 22 21.5522 22 21V3C22 2.44775 21.5522 2 21 2ZM16 19H19V13.4235C19 11.5323 17.332 9.99927 15.4408 9.99927C14.5505 9.99927 13.4841 10.5471 12.995 11.3689V10H10V19H12.995V13.8148C12.995 13.0043 13.652 12.3473 14.4625 12.3473C15.2729 12.3473 16 13.0043 16 13.8148V19ZM5 6.77075C5 5.79285 5.79285 5 6.77075 5C7.74915 5 8.54163 5.79248 8.54163 6.77075C8.54163 7.74878 7.74878 8.54163 6.77075 8.54163C5.79248 8.54163 5 7.74915 5 6.77075ZM5 19H8V10H5V19Z" fill="white"/>
</svg>
