<svg width="24" height="24" viewBox="0 0 24 24" fill="none" xmlns="http://www.w3.org/2000/svg">
<path fill-rule="evenodd" clip-rule="evenodd" d="M12 13.4H8V11H14.6C14.7 11.4 14.7 11.7 14.7 12.2C14.7 16.2 12 19 8 19C4.09998 19 1 15.9 1 12C1 8.09998 4.09998 5 8 5C9.90002 5 11.5 5.69995 12.7 6.90002L10.8 8.69995C10.3 8.19995 9.40002 7.59998 8 7.59998C5.59998 7.59998 3.69995 9.59998 3.69995 12C3.69995 14.4 5.59998 16.4 8 16.4C10.8 16.4 11.8 14.4 12 13.4ZM21 11H23V13H21V15H19V13H17V11H19V9H21V11Z" fill="white"/>
</svg>
