<svg aria-label="strikethrough icon" viewBox="0 0 24 24"><path d="M4.615 13c-.34 0-.615-.224-.615-.5v-1c0-.276.276-.5.615-.5H7.58c-.635-.662-.948-1.51-.948-2.636V8.32c0-2.523 2.221-4.32 5.27-4.32 2.126 0 3.734.544 5.234 1.632a.483.483 0 0 1 .097.681l-.58.781a.52.52 0 0 1-.72.104c-1.32-.937-2.635-1.358-4.075-1.358-1.938 0-3.136 1.026-3.136 2.288v.043c0 1.388.758 2.114 3.968 2.829h6.695c.34 0 .615.224.615.5v1c0 .276-.276.5-.615.5zm7.897 7C15.713 20 18 18.267 18 15.53v-.078a.465.465 0 0 0-.476-.452H16.49c-.334 0-.584.327-.582.66v.062c0 1.433-1.328 2.438-3.332 2.438-1.943 0-3.426-.615-4.906-1.813a.516.516 0 0 0-.715.058l-.635.74a.484.484 0 0 0 .056.692C8.177 19.291 10.192 20 12.512 20z"/></svg>