<svg aria-label="tag management icon" viewBox="0 0 24 24"><path fill-rule="evenodd" clip-rule="evenodd" d="M14.405 19.112a.5.5 0 0 0 0-.707l-.801-.801a.5.5 0 0 0-.708 0L12 18.5 3.004 9.603 3 5h4.602l5.313 5.374a.5.5 0 0 0 .709.002l.695-.695a.5.5 0 0 0 0-.707l-5.667-5.67A1.038 1.038 0 0 0 7.918 3h-5.88A1.04 1.04 0 0 0 1 4.04l.006 5.88c0 .275.11.539.304.733l10.043 10.043a1.039 1.039 0 0 0 1.469 0l1.583-1.584z"/><path fill-rule="evenodd" clip-rule="evenodd" d="M5.615 9.115a1.5 1.5 0 1 0 0-3 1.5 1.5 0 0 0 0 3zM16 9.5a.5.5 0 0 1 .5-.5h1a.5.5 0 0 1 .5.5V13h3.5a.5.5 0 0 1 .5.5v1a.5.5 0 0 1-.5.5H18v3.5a.5.5 0 0 1-.5.5h-1a.5.5 0 0 1-.5-.5V15h-3.5a.5.5 0 0 1-.5-.5v-1a.5.5 0 0 1 .5-.5H16V9.5z"/></svg>