<svg aria-label="tag assignment icon" viewBox="0 0 24 24"><path fill-rule="evenodd" clip-rule="evenodd" d="M13.905 19.612a.5.5 0 0 0 0-.707l-.801-.801a.5.5 0 0 0-.708 0L12 18.5 3.004 9.603 3 5h4.602l3.821 3.865a.5.5 0 0 0 .71.002l.686-.686a.5.5 0 0 0 0-.707l-4.167-4.17A1.038 1.038 0 0 0 7.918 3h-5.88A1.04 1.04 0 0 0 1 4.04l.006 5.88c0 .275.11.539.304.733l10.043 10.043a1.039 1.039 0 0 0 1.469 0l1.083-1.084z"/><path fill-rule="evenodd" clip-rule="evenodd" d="M5.615 9.115a1.5 1.5 0 1 0 0-3 1.5 1.5 0 0 0 0 3z"/><path d="M18.5 12h-3a.5.5 0 0 0-.5.5v1a.5.5 0 0 0 .5.5h3a.5.5 0 0 0 .5-.5v-1a.5.5 0 0 0-.5-.5z"/><path fill-rule="evenodd" clip-rule="evenodd" d="M19 11h-.5a.5.5 0 0 1-.5-.5v-1a.5.5 0 0 1 .5-.5h.5a4 4 0 0 1 0 8h-.5a.5.5 0 0 1-.5-.5v-1a.5.5 0 0 1 .5-.5h.5a2 2 0 1 0 0-4zm-3 4.5a.5.5 0 0 0-.5-.5H15a2 2 0 1 1 0-4h.5a.5.5 0 0 0 .5-.5v-1a.5.5 0 0 0-.5-.5H15a4 4 0 0 0 0 8h.5a.5.5 0 0 0 .5-.5v-1z"/></svg>