<svg role="img" aria-label="tag icon" viewBox="0 0 24 24" xmlns="http://www.w3.org/2000/svg"><path id="tag.icon-a" d="M9.60154067,5 L5,5 L5.00433599,9.60343253 L14,18.5 L18.5,14 L9.60154067,5 Z M20.6957984,14.8223465 L14.8215676,20.6958849 C14.416026,21.1013787 13.7585615,21.1013707 13.3530298,20.695867 L3.30972212,10.6532516 C3.11519698,10.4587398 3.00579802,10.1949916 3.00553893,9.91990114 L3.00000047,4.0394396 C2.99945994,3.46553139 3.46455308,3 4.03846155,3 L9.91753847,3 C10.1930548,3 10.4572783,3.10948763 10.652044,3.30436077 L20.696044,13.3538992 C21.1014146,13.7594933 21.1013046,14.416888 20.6957984,14.8223465 Z M7.61538462,9.11538461 C8.44381175,9.11538461 9.11538462,8.44381174 9.11538462,7.61538461 C9.11538462,6.78695749 8.44381175,6.11538461 7.61538462,6.11538461 C6.7869575,6.11538461 6.11538462,6.78695749 6.11538462,7.61538461 C6.11538462,8.44381174 6.7869575,9.11538461 7.61538462,9.11538461 Z"/></svg>
