<svg viewBox="0 0 24 24" xmlns="http://www.w3.org/2000/svg"><path d="M19.165 19h-6.973L8 17.323V12h1c.399 0 .761-.238.918-.606L12.659 5H14v4c0 .552.447 1 1 1h5.801l-1.636 9zM6 19H4v-8h2v8zM22.767 8.359C22.577 8.132 22.296 8 22 8h-6V4c0-.552-.448-1-1-1h-3c-.4 0-.762.238-.919.606L8.34 10H8c0-.552-.448-1-1-1H3c-.553 0-1 .448-1 1v10c0 .552.447 1 1 1h4c.552 0 1-.448 1-1v-.522l3.628 1.451c.118.047.244.071.372.071h8c.483 0 .897-.346.983-.821l2-11c.054-.292-.026-.592-.216-.82z" fill="#000" fillRule="evenodd" /></svg>
