<svg aria-label="thumb up fill icon" viewBox="0 0 24 24"><path fill-rule="evenodd" d="M7.98 8.798A16.146 16.146 0 009.4 8.5c1.288-.368 2.76-1.424 3-2.8.187-1.072.183-2.211.18-2.941v-.243C12.58 1.094 13 1 14 1c.578 0 1.502.129 2.3 1.016.665.739 1.04 1.484 1.04 2.884 0 .883-.052 1.712-.2 2.407-.073.341.18.693.53.693h2.53c1.5 0 2.8 1.3 2.8 2.8 0 .53-.156.982-.261 1.287l-.039.113.034.1c.105.306.266.773.266 1.4 0 .627-.16 1.094-.266 1.4l-.034.1c.2.4.3.8.3 1.5 0 1.2-.7 1.9-1 2.2v.3c0 1.6-1.2 2.8-2.8 2.8H15c-2.7 0-4.3-.6-5.9-1.2l-.3-.1c-.062-.062-.353-.162-.873-.324A1 1 0 017 21H3a1 1 0 01-1-1V9a1 1 0 011-1h4a1 1 0 01.98.798zM4 10h2v9H4v-9z"/></svg>