<svg aria-label="trash icon" viewBox="0 0 24 24"><path fill-rule="evenodd" clip-rule="evenodd" d="M9 3.5v-1a.5.5 0 0 1 .5-.5h5a.5.5 0 0 1 .5.5v1a.5.5 0 0 1-.5.5h-5a.5.5 0 0 1-.5-.5zM20.5 7H19l-.468 14.033a1 1 0 0 1-1 .967H6.468a1 1 0 0 1-1-.967L5 7H3.5a.5.5 0 0 1-.5-.5v-1a.5.5 0 0 1 .5-.5h17a.5.5 0 0 1 .5.5v1a.5.5 0 0 1-.5.5zM17 7H7l.5 13h9L17 7zM9.5 9h1a.5.5 0 0 1 .5.5v8a.5.5 0 0 1-.5.5h-1a.5.5 0 0 1-.5-.5v-8a.5.5 0 0 1 .5-.5zm5 0h-1a.5.5 0 0 0-.5.5v8a.5.5 0 0 0 .5.5h1a.5.5 0 0 0 .5-.5v-8a.5.5 0 0 0-.5-.5z"/></svg>