<svg width="24" height="24" viewBox="0 0 24 24" fill="none" xmlns="http://www.w3.org/2000/svg">
<path d="M12 22C8.39118 22 5.22885 20.0884 3.47039 17.2225C3.32588 16.987 3.41617 16.6821 3.65875 16.5498L4.53698 16.0708C4.77925 15.9386 5.08147 16.0288 5.2287 16.2622C6.64534 18.5081 9.14844 20 12 20C16.4183 20 20 16.4183 20 12C20 7.58172 16.4183 4 12 4C9.28005 4 6.87714 5.3574 5.43173 7.43173L7.14645 9.14645C7.46143 9.46143 7.23835 10 6.79289 10H2.5C2.22386 10 2 9.77614 2 9.5V5.20711C2 4.76166 2.53857 4.53857 2.85355 4.85355L3.99958 5.99958C5.82401 3.57093 8.72855 2 12 2C17.5228 2 22 6.47715 22 12C22 17.5228 17.5228 22 12 22Z" fill="white"/>
</svg>
