<svg width="24" height="24" viewBox="0 0 24 24" fill="none" xmlns="http://www.w3.org/2000/svg">
<path d="M6 5.25C6 5.11193 6.11193 5 6.25 5H13.75C13.8881 5 14 5.11193 14 5.25V6.75C14 6.88807 13.8881 7 13.75 7H6.25C6.11193 7 6 6.88807 6 6.75V5.25Z" fill="white"/>
<path d="M6 9.25C6 9.11193 6.11193 9 6.25 9H13.75C13.8881 9 14 9.11193 14 9.25V10.75C14 10.8881 13.8881 11 13.75 11H6.25C6.11193 11 6 10.8881 6 10.75V9.25Z" fill="white"/>
<path d="M6 13.25C6 13.1119 6.11193 13 6.25 13H11.75C11.8881 13 12 13.1119 12 13.25V14.75C12 14.8881 11.8881 15 11.75 15H6.25C6.11193 15 6 14.8881 6 14.75V13.25Z" fill="white"/>
<path fill-rule="evenodd" clip-rule="evenodd" d="M3 1C2.44772 1 2 1.44772 2 2V18C2 18.5523 2.44772 19 3 19H17C17.5523 19 18 18.5523 18 18V2C18 1.44772 17.5523 1 17 1H3ZM16 3H4V17H16V3Z" fill="white"/>
<path d="M20 4H22V22C22 22.5523 21.5523 23 21 23H7V21H20V4Z" fill="white"/>
</svg>
