<svg role="img" aria-label="upload icon" viewBox="0 0 24 24" xmlns="http://www.w3.org/2000/svg"><path d="m13 6.41401v9.08599c0 .2762-.2238.5-.5.5h-1c-.2761 0-.5-.2238-.5-.5v-9.08599l-1.93943 1.93945c-.19526.19526-.51185.19526-.70711 0l-.70689-.70689c-.19526-.19526-.19526-.51185 0-.70711l3.99993-3.99989c.1952-.19526.5118-.19526.7071 0l3.9999 3.99989c.1952.19526.1952.51185 0 .70711l-.7069.70689c-.1953.19526-.5119.19526-.7071 0z"/><path d="m3 15.5c0-.2761.22386-.5.5-.5h1c.27614 0 .5.2239.5.5v3.5h14v-3.5c0-.2761.2239-.5.5-.5h1c.2761 0 .5.2239.5.5v4.5c0 .5523-.4477 1-1 1h-16c-.55228 0-1-.4477-1-1z"/></svg>
