<svg aria-label="x circle icon" viewBox="0 0 24 24"><path fill-rule="evenodd" clip-rule="evenodd" d="M12 2C6.48 2 2 6.48 2 12s4.48 10 10 10 10-4.48 10-10S17.52 2 12 2zm0 18c-4.41 0-8-3.59-8-8s3.59-8 8-8 8 3.59 8 8-3.59 8-8 8zm3.889-10.475L13.414 12l2.475 2.475a.5.5 0 0 1 0 .707l-.707.707a.5.5 0 0 1-.707 0L12 13.414 9.525 15.89a.5.5 0 0 1-.707 0l-.707-.707a.5.5 0 0 1 0-.707L10.586 12 8.11 9.525a.5.5 0 0 1 0-.707l.707-.707a.5.5 0 0 1 .707 0L12 10.586l2.475-2.475a.5.5 0 0 1 .707 0l.707.707a.5.5 0 0 1 0 .707z"/></svg>