<svg viewBox="0 0 24 24" version="1.1" xmlns="http://www.w3.org/2000/svg">
  <title>Bookmarks icon</title>
  <g class="ps-icon__fg--fill" transform="translate(6, 0)">
    <path d="M14,6 L14,3 C14,1 12.9546523,-2.93144175e-14 12,-2.84217094e-14 L5,-2.84217094e-14 C1.94397708,-2.93144175e-14 0,0.99839143 0,4 L0,22 L1,21 L5,17 L9,21 C9.15375041,21.0937267 10,22 10,22 L10,4 C10,2 11.5,1 11.5,1 L10,1 C10,1 9,2 9,4 L9,21 L9,19.5 L5,15.5 L1,19.5 L1,21 L1,4 C0.875,1.49432577 2.42724383,0.898001248 5,1 L11.5,1 C11.9024606,0.904294361 13,1 12.9986572,3 C12.9973145,5 13,5 13,5 C11.9991048,5 10,5 10,5 L10,6 L14,6 Z"></path>
  </g>
</svg>
