<svg viewBox="0 0 24 24" version="1.1" xmlns="http://www.w3.org/2000/svg">
  <title>Bookmark icon</title>
  <g class="ps-icon__fg--fill">
    <path d="M15.0028076,4.99455572 C15.0028076,3.89675439 15.8986038,3.00610023 17,3.00002553 C18.1053568,3.00462943 19,3.90514478 19,4.99456145 L19,7 L15.9914694,7 L15.9914694,8 L20,8 L20,5.00878799 C20,3.34559019 18.6553538,2 16.9966488,2 L8.00335124,2 C6.34237885,2 5,3.34708027 5,5.00878799 L5,23 L10,18 L15,23 L15.0028076,4.99455572 L15.0028076,4.99455572 Z M14.7693838,3 C14.2925549,3.53265973 14.0028076,4.23676544 14.0028076,5.00878226 L14.0028076,6 L14,6 L14,20.5 L10,16.5 L6,20.5 L6,4.99456145 C6,3.89299558 6.90195036,3 8.0085302,3 L14.7693838,3 L14.7693838,3 L14.7693838,3 Z"></path>
  </g>
</svg>
