<svg viewBox="0 0 24 24" version="1.1" xmlns="http://www.w3.org/2000/svg">
  <title>Channel icon</title>
  <g>
    <path d="M12,13.9645556 L12,23 L11,23 L11,13.9645556 C9.30385293,13.7219407 8,12.263236 8,10.5 C8,8.56700338 9.56700338,7 11.5,7 C13.4329966,7 15,8.56700338 15,10.5 C15,12.263236 13.6961471,13.7219407 12,13.9645556 Z M4.54116837,1.34364259 L5.14628416,2.13984758 C2.62652209,4.05781572 1,7.08896056 1,10.5 C1,13.9110394 2.62652209,16.9421843 5.14628416,18.8601524 L4.54116837,19.6563574 C1.78142896,17.5557256 0,14.2359003 0,10.5 C0,6.76409967 1.78142896,3.44427436 4.54116837,1.34364259 Z M18.4588316,1.34364259 C21.218571,3.44427436 23,6.76409967 23,10.5 C23,14.2359003 21.218571,17.5557256 18.4588316,19.6563574 L17.8537158,18.8601524 C20.3734779,16.9421843 22,13.9110394 22,10.5 C22,7.08896056 20.3734779,4.05781572 17.8537158,2.13984758 L18.4588316,1.34364259 Z M6.96163154,4.52846256 L7.56674734,5.32466755 C6.00689463,6.51198116 5,8.38840416 5,10.5 C5,12.6115958 6.00689463,14.4880188 7.56674734,15.6753324 L6.96163154,16.4715374 C5.1618015,15.1015602 4,12.9364567 4,10.5 C4,8.06354326 5.1618015,5.8984398 6.96163154,4.52846256 Z M16.0383685,4.52846256 C17.8381985,5.8984398 19,8.06354326 19,10.5 C19,12.9364567 17.8381985,15.1015602 16.0383685,16.4715374 L15.4332527,15.6753324 C16.9931054,14.4880188 18,12.6115958 18,10.5 C18,8.38840416 16.9931054,6.51198116 15.4332527,5.32466755 L16.0383685,4.52846256 Z M11.5,13 C12.8807119,13 14,11.8807119 14,10.5 C14,9.11928813 12.8807119,8 11.5,8 C10.1192881,8 9,9.11928813 9,10.5 C9,11.8807119 10.1192881,13 11.5,13 Z"></path>
  </g>
</svg>
