<?xml version="1.0" encoding="UTF-8"?>
<svg width="24px" height="24px" viewBox="0 0 24 24" version="1.1" xmlns="http://www.w3.org/2000/svg" xmlns:xlink="http://www.w3.org/1999/xlink">
    <!-- Generator: Sketch 45.2 (43514) - http://www.bohemiancoding.com/sketch -->
    <title>more.icon</title>
    <desc>Created with Sketch.</desc>
    <defs></defs>
    <g id="Page-1" stroke="none" stroke-width="1" fill="none" fill-rule="evenodd">
        <g id="more.icon" fill="#FFFFFF">
            <g id="icon-more" transform="translate(4.000000, 10.000000)">
                <path d="M2,4.5 C0.8954305,4.5 0,3.6045695 0,2.5 C0,1.3954305 0.8954305,0.5 2,0.5 C3.1045695,0.5 4,1.3954305 4,2.5 C4,3.6045695 3.1045695,4.5 2,4.5 Z M14,4.5 C12.8954305,4.5 12,3.6045695 12,2.5 C12,1.3954305 12.8954305,0.5 14,0.5 C15.1045695,0.5 16,1.3954305 16,2.5 C16,3.6045695 15.1045695,4.5 14,4.5 Z M8,4.5 C6.8954305,4.5 6,3.6045695 6,2.5 C6,1.3954305 6.8954305,0.5 8,0.5 C9.1045695,0.5 10,1.3954305 10,2.5 C10,3.6045695 9.1045695,4.5 8,4.5 Z" id="Combined-Shape"></path>
            </g>
        </g>
    </g>
</svg>