<svg viewBox="0 0 24 24" version="1.1" xmlns="http://www.w3.org/2000/svg">
  <title>More icon</title>
  <g transform="translate(2, 9)" class="ps-icon__fg--fill">
    <path d="M2.5,1 C1.6732,1 1,1.6732 1,2.5 C1,3.3268 1.6732,4 2.5,4 C3.3268,4 4,3.3268 4,2.5 C4,1.6732 3.3268,1 2.5,1 M2.5,5 C1.12222222,5 0,3.87777778 0,2.5 C0,1.12222222 1.12222222,0 2.5,0 C3.87777778,0 5,1.12222222 5,2.5 C5,3.87777778 3.87777778,5 2.5,5"></path>
    <path d="M9.5,1 C8.6732,1 8,1.6732 8,2.5 C8,3.3268 8.6732,4 9.5,4 C10.3268,4 11,3.3268 11,2.5 C11,1.6732 10.3268,1 9.5,1 M9.5,5 C8.12222222,5 7,3.87777778 7,2.5 C7,1.12222222 8.12222222,0 9.5,0 C10.8777778,0 12,1.12222222 12,2.5 C12,3.87777778 10.8777778,5 9.5,5"></path>
    <path d="M16.5,1 C15.6732,1 15,1.6732 15,2.5 C15,3.3268 15.6732,4 16.5,4 C17.3268,4 18,3.3268 18,2.5 C18,1.6732 17.3268,1 16.5,1 M16.5,5 C15.1222222,5 14,3.87777778 14,2.5 C14,1.12222222 15.1222222,0 16.5,0 C17.8777778,0 19,1.12222222 19,2.5 C19,3.87777778 17.8777778,5 16.5,5"></path>
  </g>
</svg>
