<svg viewBox="0 0 24 24" version="1.1" xmlns="http://www.w3.org/2000/svg">
  <title>More icon</title>
  <g transform="translate(2, 9)" class="ps-icon__fg--fill">
    <path d="M2,4.5 C0.8954305,4.5 0,3.6045695 0,2.5 C0,1.3954305 0.8954305,0.5 2,0.5 C3.1045695,0.5 4,1.3954305 4,2.5 C4,3.6045695 3.1045695,4.5 2,4.5 Z M14,4.5 C12.8954305,4.5 12,3.6045695 12,2.5 C12,1.3954305 12.8954305,0.5 14,0.5 C15.1045695,0.5 16,1.3954305 16,2.5 C16,3.6045695 15.1045695,4.5 14,4.5 Z M8,4.5 C6.8954305,4.5 6,3.6045695 6,2.5 C6,1.3954305 6.8954305,0.5 8,0.5 C9.1045695,0.5 10,1.3954305 10,2.5 C10,3.6045695 9.1045695,4.5 8,4.5 Z" id="Combined-Shape"></path>
  </g>
</svg>
