<svg role="image" aria-label="Error icon" xmlns="http://www.w3.org/2000/svg" viewBox="0 0 128 128">
  <g fill-rule="evenodd">
    <path fill-rule="nonzero" d="M51.5701932 41.9825068C51.1796689 41.5919825 51.1796689 40.9588175 51.5701932 40.5682932 51.9607175 40.1777689 52.5938825 40.1777689 52.9844068 40.5682932L82.7122453 70.2961317C83.1027696 70.686656 83.1027696 71.319821 82.7122453 71.7103453 82.321721 72.1008696 81.688556 72.1008696 81.2980317 71.7103453L51.5701932 41.9825068zM85 58C85 60.7949161 84.2089908 62.8094322 82.7859392 64.6183037 82.4444595 65.052366 81.8157585 65.127419 81.3816963 64.7859392 80.947634 64.4444595 80.872581 63.8157585 81.2140608 63.3816963 82.3751913 61.9057582 83 60.3145161 83 58 83 54.4149403 79.7579604 51.1795555 75.9525732 50.9988747 75.6193265 50.9830521 75.315919 50.8020828 75.1436423 50.516383 73.1651724 47.2353339 69.573476 45 66 45 64.2274621 45 62.7718537 45.3016247 61.4090421 45.9125155 60.9050737 46.1384232 60.3133922 45.9130105 60.0874845 45.4090421 59.8615768 44.9050737 60.0869895 44.3133922 60.5909579 44.0874845 62.2151626 43.3594223 63.9496956 43 66 43 70.1424784 43 74.2046047 45.4284248 76.5782425 49.0419239 81.193686 49.5326458 85 53.49641 85 58zM53.6010893 49.0684699C53.8394168 48.5702546 54.4365027 48.359574 54.9347179 48.5979015 55.4329332 48.8362289 55.6436139 49.4333148 55.4052864 49.9315301 54.937221 50.9100045 54.6793319 51.9965322 54.6053878 53.2300078 54.5688685 53.8391925 53.9999385 54.2738795 53.4025713 54.1490113 49.8395823 53.4042368 46.5 56.1209181 46.5 59.7631751 46.5 62.3486357 47.6033572 63.9113191 49.5059188 64.7904576 50.1763216 65.1002383 50.9050091 65.301304 51.6387943 65.4117757 51.901695 65.4513556 52.1473193 65.4764223 52.3689553 65.4898005 52.5049443 65.498009 52.6042721 65.5004065 52.660314 65.4999789L71.5 65.4998995C72.0522847 65.4998995 72.5 65.9476148 72.5 66.4998995 72.5 67.0521843 72.0522847 67.4998995 71.5 67.4998995L52.6879338 67.4997866C52.3664605 67.5022792 51.9053682 67.474447 51.3410487 67.3894884 50.4320496 67.2526382 49.5243854 67.0021877 48.6669897 66.606001 46.0864834 65.4135968 44.5 63.1666625 44.5 59.7631751 44.5 55.2276334 48.3434618 51.7543818 52.7169208 52.0412943 52.8705698 50.9781083 53.1596373 49.9913099 53.6010893 49.0684699zM102.440072 108.102038C102.936003 108.345083 103.141008 108.944141 102.897962 109.440072 102.654917 109.936003 102.055859 110.141008 101.559928 109.897962 92.7053487 105.55852 79.346013 103 64.4788732 103 50.5081911 103 37.2096838 105.600161 28.4400723 109.897962 27.9441415 110.141008 27.3450829 109.936003 27.1020377 109.440072 26.8589924 108.944141 27.0639968 108.345083 27.5599277 108.102038 36.6276567 103.658135 50.2226728 101 64.4788732 101 79.6299737 101 93.2843953 103.615034 102.440072 108.102038z"/>
    <path fill-rule="nonzero" d="M118,88 L118,24 C118,22.3027609 116.706818,21 115,21 L14,21 C12.2960333,21 11,22.3047547 11,24 L11,88 C11,89.6952453 12.2960333,91 14,91 L115,91 C116.706818,91 118,89.6972391 118,88 Z M120,88 C120,90.78 117.833087,93 115,93 L14,93 C11.1717391,93 9,90.78 9,88 L9,24 C9,21.22 11.1717391,19 14,19 L115,19 C117.833087,19 120,21.22 120,24 L120,88 Z"/>
    <path fill-rule="nonzero" d="M108 81L108 31 21 31 21 81 108 81zM110 83L19 83 19 29 110 29 110 83zM71 101L71 93 58 93 58 101 71 101zM56 103L56 91 73 91 73 103 56 103z"/>
  </g>
</svg>
