<svg width="128" height="128" viewBox="0 0 128 128" fill="none" xmlns="http://www.w3.org/2000/svg">
<path fill-rule="evenodd" clip-rule="evenodd" d="M61.1488 26H56C53.7909 26 52 27.7909 52 30V42.1308L54 38.6045V30C54 28.8954 54.8954 28 56 28H60.0145L61.1488 26ZM79.8959 49H94C95.1046 49 96 48.1046 96 47V30C96 28.8954 95.1046 28 94 28H67.9855L66.8511 26H94C96.2091 26 98 27.7909 98 30V47C98 49.2091 96.2091 51 94 51H81.0303L79.8959 49ZM45.8354 53H22C19.7909 53 18 54.7909 18 57V78C18 80.2091 19.7909 82 22 82H29.3876L30.522 80H22C20.8954 80 20 79.1046 20 78V57C20 55.8954 20.8954 55 22 55H44.7011L45.8354 53ZM36 91V104C36 106.209 37.7909 108 40 108H81C83.2091 108 85 106.209 85 104V98H105C107.209 98 109 96.2091 109 94V77C109 74.7909 107.209 73 105 73H93.5079L94.6422 75H105C106.105 75 107 75.8954 107 77V94C107 95.1046 106.105 96 105 96H85V91H83V96H71C69.8954 96 69 95.1046 69 94V91H67V94C67 96.2091 68.7909 98 71 98H83V104C83 105.105 82.1046 106 81 106H40C38.8954 106 38 105.105 38 104V91H36Z" fill="#8A99A8" fill-opacity="0.25"/>
<path d="M64.8698 26.5607L99.4362 87.5067C99.8143 88.1733 99.3328 89 98.5664 89H29.4336C28.6672 89 28.1857 88.1733 28.5638 87.5067L63.1302 26.5607C63.5133 25.8851 64.4867 25.8851 64.8698 26.5607Z" stroke="white" stroke-width="2" stroke-linecap="round" stroke-linejoin="round"/>
<path d="M64 88V27L29.5 88H64Z" fill="#8A99A8" fill-opacity="0.25"/>
<path d="M64 68.5L61.4072 48.1899C61.1912 46.4976 62.5097 45 64.2158 45C65.9455 45 67.271 46.5375 67.0162 48.2484L64 68.5Z" stroke="white" stroke-width="2" stroke-linecap="round" stroke-linejoin="round"/>
<circle cx="64" cy="77" r="3" stroke="white" stroke-width="2" stroke-linecap="round" stroke-linejoin="round"/>
</svg>
