<svg role="img" aria-label="Error icon" xmlns="http://www.w3.org/2000/svg" viewBox="0 0 128 128">
  <path d="M102.440072 108.102038C102.936003 108.345083 103.141008 108.944141 102.897962 109.440072 102.654917 109.936003 102.055859 110.141008 101.559928 109.897962 92.7053487 105.55852 79.346013 103 64.4788732 103 50.5081911 103 37.2096838 105.600161 28.4400723 109.897962 27.9441415 110.141008 27.3450829 109.936003 27.1020377 109.440072 26.8589924 108.944141 27.0639968 108.345083 27.5599277 108.102038 36.6276567 103.658135 50.2226728 101 64.4788732 101 79.6299737 101 93.2843953 103.615034 102.440072 108.102038zM118 88L118 24C118 22.3027609 116.706818 21 115 21L14 21C12.2960333 21 11 22.3047547 11 24L11 88C11 89.6952453 12.2960333 91 14 91L115 91C116.706818 91 118 89.6972391 118 88zM120 88C120 90.78 117.833087 93 115 93L14 93C11.1717391 93 9 90.78 9 88L9 24C9 21.22 11.1717391 19 14 19L115 19C117.833087 19 120 21.22 120 24L120 88z"/>
  <path d="M108 81L108 31 21 31 21 81 108 81zM110 83L19 83 19 29 110 29 110 83zM71 101L71 93 58 93 58 101 71 101zM56 103L56 91 73 91 73 103 56 103z"/>
  <path d="M45.2056956,55.1220974 C44.8117958,55.5345713 44.4599601,55.920582 44.1526344,56.2723474 C44.459569,56.6236869 44.8109292,57.0092069 45.2042755,57.4211431 C46.4898343,58.7674588 47.9517001,60.1145904 49.5597851,61.3703031 C54.1110745,64.9242893 58.8984588,67.0446217 63.6723794,67.0446217 C65.3785624,67.0446217 67.0961303,66.7712164 68.8175339,66.2459814 C69.3457765,66.084804 69.9046619,66.3823691 70.0658394,66.9106117 C70.2270168,67.4388543 69.9294517,67.9977397 69.4012091,68.1589172 C67.4964872,68.7400863 65.5833559,69.0446217 63.6723794,69.0446217 C58.3800767,69.0446217 53.199944,66.750341 48.3288645,62.9466389 C46.6391204,61.6271606 45.1068598,60.2151591 43.7578002,58.8023416 C43.2846659,58.3068465 42.8676324,57.8459124 42.510047,57.430985 C42.29273,57.1788192 42.1417634,56.995735 42.0605429,56.8931838 C41.772421,56.5293935 41.7724359,56.0151848 42.0605789,55.6514112 C42.141865,55.5487895 42.292959,55.3655719 42.5104615,55.1132188 C42.8683561,54.6979787 43.2857494,54.236696 43.7592905,53.7408254 C45.1095123,52.3269347 46.643078,50.9138599 48.3342401,49.5933801 C48.7085029,49.3011512 49.0872505,49.0161985 49.4703182,48.7391458 C49.9178262,48.4154869 50.5429804,48.5158864 50.8666393,48.9633944 C51.1902982,49.4109023 51.0898987,50.0360566 50.6423907,50.3597154 C50.2794436,50.622216 49.9202757,50.8924378 49.5650994,51.1697638 C47.9555921,52.4264864 46.4924184,53.7746999 45.2056956,55.1220974 Z M82.1390856,57.422425 C82.5329846,57.0100556 82.8848223,56.6241395 83.1921544,56.2724546 C82.8851834,55.9211326 82.533791,55.5356358 82.1404181,55.123727 C80.8546762,53.7774004 79.3926542,52.4302585 77.7844607,51.1745365 C73.2328828,47.6205386 68.4456477,45.5002 63.6725226,45.5002 C62.2532037,45.5002 60.8226547,45.690255 59.3850932,46.0576714 C58.8500086,46.19443 58.3053721,45.871523 58.1686135,45.3364384 C58.0318549,44.8013538 58.3547619,44.2567173 58.8898465,44.1199587 C60.4849716,43.7122716 62.0812406,43.5002 63.6725226,43.5002 C68.964036,43.5002 74.1439783,45.7944745 79.0153353,49.5981649 C80.7051691,50.9176338 82.2375705,52.329625 83.5868008,53.7424316 C84.0599943,54.2379222 84.4770865,54.6988517 84.8347271,55.1137745 C85.0520768,55.3659364 85.2030673,55.5490166 85.2843004,55.6515637 C85.5725034,56.0153857 85.5724853,56.5296922 85.2842568,56.893494 C85.20296,56.9961068 85.0518467,57.1793063 84.8343156,57.4316333 C84.4763755,57.846829 84.0589259,58.3080619 83.5853173,58.8038786 C82.2349054,60.2176129 80.7010961,61.6305305 79.0096319,62.9508614 C78.6441719,63.2361338 78.2744264,63.514478 77.9005487,63.7853126 C77.4532842,64.1093079 76.8280547,64.0093786 76.5040593,63.5621141 C76.180064,63.1148497 76.2799933,62.4896201 76.7272578,62.1656248 C77.0815205,61.9089993 77.4321656,61.6450339 77.7789953,61.3743039 C79.3887882,60.1177243 80.8521886,58.7696662 82.1390856,57.422425 Z M69,56 C69,53.2378415 66.761772,51 64,51 C63.4477153,51 63,50.5522847 63,50 C63,49.4477153 63.4477153,49 64,49 C67.8662642,49 71,52.1331946 71,56 C71,56.5522847 70.5522847,57 70,57 C69.4477153,57 69,56.5522847 69,56 Z M59,56 C59,58.7621585 61.238228,61 64,61 C64.5522847,61 65,61.4477153 65,62 C65,62.5522847 64.5522847,63 64,63 C60.1337358,63 57,59.8668054 57,56 C57,55.4477153 57.4477153,55 58,55 C58.5522847,55 59,55.4477153 59,56 Z M49.6363988,40.5428932 L77.9571068,68.8636005 C78.3476311,69.2541248 78.3476311,69.8872898 77.9571068,70.2778141 C77.5665825,70.6683384 76.9334175,70.6683384 76.5428932,70.2778141 L48.2221853,41.9571068 C47.831661,41.5665825 47.8316609,40.9334175 48.2221852,40.5428932 C48.6127095,40.1523689 49.2458745,40.1523689 49.6363988,40.5428932 Z"/>
</svg>
