<svg role="img" aria-label="Error icon" xmlns="http://www.w3.org/2000/svg" viewBox="0 0 128 128">
  <path d="M70 59.500854C70 56.4619844 67.5376921 54 64.5 54 61.4623079 54 59 56.4619844 59 59.500854 59 62.5382391 61.4625314 65 64.5 65 67.5374686 65 70 62.5382391 70 59.500854zM70.0065566 64.592343L75.7071068 70.2928932C76.0976311 70.6834175 76.0976311 71.3165825 75.7071068 71.7071068 75.3165825 72.0976311 74.6834175 72.0976311 74.2928932 71.7071068L68.4578332 65.8720467C67.309025 66.5870241 65.9527228 67 64.5 67 60.3581019 67 57 63.6429488 57 59.500854 57 55.357356 60.3577972 52 64.5 52 68.6422028 52 72 55.357356 72 59.500854 72 61.4664018 71.2438272 63.2551745 70.0065566 64.592343zM84 55.2045541C84 58.6525484 82.4407515 61.0878049 79.8890285 62.5972927 78.3874926 63.4855356 76.9005635 63.8842362 75.8656023 63.9943843 75.316419 64.0528324 74.8238365 63.6550129 74.7653884 63.1058296 74.7069404 62.5566463 75.1047599 62.0640638 75.6539431 62.0056157 75.8313311 61.9867368 76.1768395 61.9260201 76.63207 61.803956 77.3980892 61.598558 78.163494 61.294306 78.8707443 60.8759277 80.8441633 59.7085394 82 57.9033371 82 55.2045541 82 51.2955578 78.7327028 48.1918765 74.7029638 48.338547 74.3052234 48.3530236 73.9367635 48.130258 73.7647766 47.7713325 72.0845855 44.2648826 68.5169727 42 64.5 42 59.0663025 42 54.590457 46.2067653 54.2703946 51.5529894 54.2339785 52.1612731 53.6666212 52.5958412 53.0698518 52.4725468 49.8990939 51.8174585 47 54.0652284 47 57.1833724 47 59.9862849 48.5036579 61.3608412 50.9253248 61.8536579 51.4665169 61.9637922 51.8159583 62.4917965 51.7058241 63.0329886 51.5956898 63.5741807 51.0676854 63.9236221 50.5264933 63.8134879 47.2655336 63.1498724 45 61.0788538 45 57.1833724 45 53.1419867 48.4318448 50.1440392 52.3845759 50.3703625 53.2608117 44.4819941 58.3729008 40 64.5 40 69.0695548 40 73.1638007 42.4659887 75.2771629 46.3382553 80.1335218 46.4917397 84 50.3685341 84 55.2045541zM102.440072 108.102038C102.936003 108.345083 103.141008 108.944141 102.897962 109.440072 102.654917 109.936003 102.055859 110.141008 101.559928 109.897962 92.7053487 105.55852 79.346013 103 64.4788732 103 50.5081911 103 37.2096838 105.600161 28.4400723 109.897962 27.9441415 110.141008 27.3450829 109.936003 27.1020377 109.440072 26.8589924 108.944141 27.0639968 108.345083 27.5599277 108.102038 36.6276567 103.658135 50.2226728 101 64.4788732 101 79.6299737 101 93.2843953 103.615034 102.440072 108.102038z"/>
  <path d="M118,88 L118,24 C118,22.3027609 116.706818,21 115,21 L14,21 C12.2960333,21 11,22.3047547 11,24 L11,88 C11,89.6952453 12.2960333,91 14,91 L115,91 C116.706818,91 118,89.6972391 118,88 Z M120,88 C120,90.78 117.833087,93 115,93 L14,93 C11.1717391,93 9,90.78 9,88 L9,24 C9,21.22 11.1717391,19 14,19 L115,19 C117.833087,19 120,21.22 120,24 L120,88 Z"/>
  <path d="M108 81L108 31 21 31 21 81 108 81zM110 83L19 83 19 29 110 29 110 83zM71 101L71 93 58 93 58 101 71 101zM56 103L56 91 73 91 73 103 56 103z"/>
</svg>
