<?xml version="1.0" encoding="UTF-8"?>
<svg width="264px" height="264px" viewBox="0 0 264 264" version="1.1" xmlns="http://www.w3.org/2000/svg" xmlns:xlink="http://www.w3.org/1999/xlink">
    <!-- Generator: Sketch 48 (47235) - http://www.bohemiancoding.com/sketch -->
    <title>Avoid 3</title>
    <desc>Created with Sketch.</desc>
    <defs>
        <circle id="path-1" cx="75.05" cy="140.65" r="7"></circle>
        <circle id="path-2" cx="75.05" cy="161.65" r="7"></circle>
    </defs>
    <g id="Page-1" stroke="none" stroke-width="1" fill="none" fill-rule="evenodd">
        <g id="Avoid-3">
            <g id="Group" transform="translate(45.000000, 8.000000)">
                <g id="Icon-Grid---Base---Zoomed" transform="translate(3.000000, 40.200000)">
                    <g id="Grid">
                        <rect id="Rectangle" fill="#FFFFFF" x="0" y="0" width="168" height="169.05"></rect>
                        <g id="pixels" opacity="0.400000006" stroke="#000000" stroke-width="0.5">
                            <g id="Group" opacity="0.200000003">
                                <rect id="Rectangle-3" x="161" y="0" width="7" height="168"></rect>
                                <rect id="Rectangle-3" x="154" y="0" width="7" height="168"></rect>
                                <rect id="Rectangle-3" x="147" y="0" width="7" height="168"></rect>
                                <rect id="Rectangle-3" x="140" y="0" width="7" height="168"></rect>
                                <rect id="Rectangle-3" x="133" y="0" width="7" height="168"></rect>
                                <rect id="Rectangle-3" x="126" y="0" width="7" height="168"></rect>
                                <rect id="Rectangle-3" x="119" y="0" width="7" height="168"></rect>
                                <rect id="Rectangle-3" x="112" y="0" width="7" height="168"></rect>
                                <rect id="Rectangle-3" x="105" y="0" width="7" height="168"></rect>
                                <rect id="Rectangle-3" x="98" y="0" width="7" height="168"></rect>
                                <rect id="Rectangle-3" x="91" y="0" width="7" height="168"></rect>
                                <rect id="Rectangle-3" x="84" y="0" width="7" height="168"></rect>
                                <rect id="Rectangle-3" x="77" y="0" width="7" height="168"></rect>
                                <rect id="Rectangle-3" x="70" y="0" width="7" height="168"></rect>
                                <rect id="Rectangle-3" x="63" y="0" width="7" height="168"></rect>
                                <rect id="Rectangle-3" x="56" y="0" width="7" height="168"></rect>
                                <rect id="Rectangle-3" x="49" y="0" width="7" height="168"></rect>
                                <rect id="Rectangle-3" x="42" y="0" width="7" height="168"></rect>
                                <rect id="Rectangle-3" x="35" y="0" width="7" height="168"></rect>
                                <rect id="Rectangle-3" x="28" y="0" width="7" height="168"></rect>
                                <rect id="Rectangle-3" x="21" y="0" width="7" height="168"></rect>
                                <rect id="Rectangle-3" x="14" y="0" width="7" height="168"></rect>
                                <rect id="Rectangle-3" x="7" y="0" width="7" height="168"></rect>
                                <rect id="Rectangle-3" x="0" y="0" width="7" height="168"></rect>
                            </g>
                            <g id="Group" opacity="0.200000003" transform="translate(84.000000, 84.000000) rotate(90.000000) translate(-84.000000, -84.000000) ">
                                <rect id="Rectangle-3" x="161" y="0" width="7" height="168"></rect>
                                <rect id="Rectangle-3" x="154" y="0" width="7" height="168"></rect>
                                <rect id="Rectangle-3" x="147" y="0" width="7" height="168"></rect>
                                <rect id="Rectangle-3" x="140" y="0" width="7" height="168"></rect>
                                <rect id="Rectangle-3" x="133" y="0" width="7" height="168"></rect>
                                <rect id="Rectangle-3" x="126" y="0" width="7" height="168"></rect>
                                <rect id="Rectangle-3" x="119" y="0" width="7" height="168"></rect>
                                <rect id="Rectangle-3" x="112" y="0" width="7" height="168"></rect>
                                <rect id="Rectangle-3" x="105" y="0" width="7" height="168"></rect>
                                <rect id="Rectangle-3" x="98" y="0" width="7" height="168"></rect>
                                <rect id="Rectangle-3" x="91" y="0" width="7" height="168"></rect>
                                <rect id="Rectangle-3" x="84" y="0" width="7" height="168"></rect>
                                <rect id="Rectangle-3" x="77" y="0" width="7" height="168"></rect>
                                <rect id="Rectangle-3" x="70" y="0" width="7" height="168"></rect>
                                <rect id="Rectangle-3" x="63" y="0" width="7" height="168"></rect>
                                <rect id="Rectangle-3" x="56" y="0" width="7" height="168"></rect>
                                <rect id="Rectangle-3" x="49" y="0" width="7" height="168"></rect>
                                <rect id="Rectangle-3" x="42" y="0" width="7" height="168"></rect>
                                <rect id="Rectangle-3" x="35" y="0" width="7" height="168"></rect>
                                <rect id="Rectangle-3" x="28" y="0" width="7" height="168"></rect>
                                <rect id="Rectangle-3" x="21" y="0" width="7" height="168"></rect>
                                <rect id="Rectangle-3" x="14" y="0" width="7" height="168"></rect>
                                <rect id="Rectangle-3" x="7" y="0" width="7" height="168"></rect>
                                <rect id="Rectangle-3" x="0" y="0" width="7" height="168"></rect>
                            </g>
                        </g>
                        <rect id="bounds" stroke="#AAAAAA" stroke-width="2" x="1" y="1" width="166" height="166"></rect>
                    </g>
                </g>
                <g id="Icons/bookmark" opacity="0.400000006" transform="translate(3.000000, 40.200000)">
                    <rect id="bounds" x="0" y="0" width="168" height="168"></rect>
                    <path d="M122.50871,14 L63,14 C47.558,14 35,26.565 35,42 L35,152.002193 C35,153.93519 36.5670034,155.502193 38.5,155.502193 C39.4810723,155.502193 40.4171048,155.090431 41.0800395,154.36723 L70.9199605,121.814589 C72.2261339,120.389672 74.4401197,120.293412 75.8650362,121.599585 C75.9397846,121.668105 76.0115201,121.73984 76.0800395,121.814589 L105.919961,154.36723 C107.226134,155.792146 109.44012,155.888406 110.865036,154.582233 C111.588238,153.919298 112,152.983266 112,152.002193 L112,70 L140,70 C143.864,70 147,66.871 147,63 L147,42 C147,26.565 137.95771,14 122.50871,14 Z M98,42 L98,126 L76.1340184,101.010307 C74.8611312,99.5555786 72.6499621,99.4081673 71.1952339,100.681054 C71.0782962,100.783375 70.9683021,100.893369 70.8659816,101.010307 L49,126 L49,42 C49,34.272 55.279,28 63,28 L101.752,28 C99.372,32.123 98,36.904 98,42 Z M133,56 L112,56 L112,42 C112,34.272 114.78771,28 122.50871,28 C130.22271,28 133,34.272 133,42 L133,56 Z" id="bookmark" fill="#000000" fill-rule="nonzero"></path>
                </g>
                <g id="Guides" transform="translate(0.950000, 0.000000)">
                    <text id="Rounded-interior-cor" font-family="GothamSSm-Bold, Gotham SSm" font-size="12" font-weight="bold" fill="#DE3636">
                        <tspan x="0.587" y="12">Rounded interior corners /</tspan>
                        <tspan x="40.565" y="27">interior points</tspan>
                    </text>
                    <g id="guide">
                        <use fill-opacity="0.3" fill="#DE3636" fill-rule="evenodd" xlink:href="#path-1"></use>
                        <circle stroke="#DE3636" stroke-width="0.625" cx="75.05" cy="140.65" r="6.6875"></circle>
                    </g>
                    <g id="guide">
                        <use fill-opacity="0.3" fill="#DE3636" fill-rule="evenodd" xlink:href="#path-2"></use>
                        <circle stroke="#DE3636" stroke-width="0.625" cx="75.05" cy="161.65" r="6.6875"></circle>
                    </g>
                </g>
            </g>
        </g>
    </g>
</svg>