<svg xmlns="http://www.w3.org/2000/svg" xmlns:xlink="http://www.w3.org/1999/xlink" width="264" height="264" viewBox="0 0 264 264">
  <defs>
    <circle id="avoid-3-a" cx="75.05" cy="140.65" r="7"/>
    <circle id="avoid-3-b" cx="75.05" cy="161.65" r="7"/>
  </defs>
  <g fill="none" fill-rule="evenodd" transform="translate(45 8)">
    <g transform="translate(3 40.2)">
      <rect width="168" height="169.05" fill="#FFF"/>
      <g stroke="#000" stroke-width=".5" opacity=".4">
        <g opacity=".2">
          <rect width="7" height="168" x="161"/>
          <rect width="7" height="168" x="154"/>
          <rect width="7" height="168" x="147"/>
          <rect width="7" height="168" x="140"/>
          <rect width="7" height="168" x="133"/>
          <rect width="7" height="168" x="126"/>
          <rect width="7" height="168" x="119"/>
          <rect width="7" height="168" x="112"/>
          <rect width="7" height="168" x="105"/>
          <rect width="7" height="168" x="98"/>
          <rect width="7" height="168" x="91"/>
          <rect width="7" height="168" x="84"/>
          <rect width="7" height="168" x="77"/>
          <rect width="7" height="168" x="70"/>
          <rect width="7" height="168" x="63"/>
          <rect width="7" height="168" x="56"/>
          <rect width="7" height="168" x="49"/>
          <rect width="7" height="168" x="42"/>
          <rect width="7" height="168" x="35"/>
          <rect width="7" height="168" x="28"/>
          <rect width="7" height="168" x="21"/>
          <rect width="7" height="168" x="14"/>
          <rect width="7" height="168" x="7"/>
          <rect width="7" height="168"/>
        </g>
        <g opacity=".2" transform="rotate(90 84 84)">
          <rect width="7" height="168" x="161"/>
          <rect width="7" height="168" x="154"/>
          <rect width="7" height="168" x="147"/>
          <rect width="7" height="168" x="140"/>
          <rect width="7" height="168" x="133"/>
          <rect width="7" height="168" x="126"/>
          <rect width="7" height="168" x="119"/>
          <rect width="7" height="168" x="112"/>
          <rect width="7" height="168" x="105"/>
          <rect width="7" height="168" x="98"/>
          <rect width="7" height="168" x="91"/>
          <rect width="7" height="168" x="84"/>
          <rect width="7" height="168" x="77"/>
          <rect width="7" height="168" x="70"/>
          <rect width="7" height="168" x="63"/>
          <rect width="7" height="168" x="56"/>
          <rect width="7" height="168" x="49"/>
          <rect width="7" height="168" x="42"/>
          <rect width="7" height="168" x="35"/>
          <rect width="7" height="168" x="28"/>
          <rect width="7" height="168" x="21"/>
          <rect width="7" height="168" x="14"/>
          <rect width="7" height="168" x="7"/>
          <rect width="7" height="168"/>
        </g>
      </g>
      <rect width="166" height="166" x="1" y="1" stroke="#AAA" stroke-width="2"/>
    </g>
    <g opacity=".4" transform="translate(3 40.2)">
      <rect width="168" height="168"/>
      <path fill="#000" fill-rule="nonzero" d="M122.50871,14 L63,14 C47.558,14 35,26.565 35,42 L35,152.002193 C35,153.93519 36.5670034,155.502193 38.5,155.502193 C39.4810723,155.502193 40.4171048,155.090431 41.0800395,154.36723 L70.9199605,121.814589 C72.2261339,120.389672 74.4401197,120.293412 75.8650362,121.599585 C75.9397846,121.668105 76.0115201,121.73984 76.0800395,121.814589 L105.919961,154.36723 C107.226134,155.792146 109.44012,155.888406 110.865036,154.582233 C111.588238,153.919298 112,152.983266 112,152.002193 L112,70 L140,70 C143.864,70 147,66.871 147,63 L147,42 C147,26.565 137.95771,14 122.50871,14 Z M98,42 L98,126 L76.1340184,101.010307 C74.8611312,99.5555786 72.6499621,99.4081673 71.1952339,100.681054 C71.0782962,100.783375 70.9683021,100.893369 70.8659816,101.010307 L49,126 L49,42 C49,34.272 55.279,28 63,28 L101.752,28 C99.372,32.123 98,36.904 98,42 Z M133,56 L112,56 L112,42 C112,34.272 114.78771,28 122.50871,28 C130.22271,28 133,34.272 133,42 L133,56 Z"/>
    </g>
    <g transform="translate(.95)">
      <path fill="#DE3636" d="M3.539,7.524 L5.555,7.524 C6.515,7.524 7.091,7.008 7.091,6.24 L7.091,6.216 C7.091,5.376 6.491,4.932 5.519,4.932 L3.539,4.932 L3.539,7.524 Z M1.703,12 L1.703,3.264 L5.675,3.264 C6.779,3.264 7.643,3.576 8.219,4.152 C8.699,4.632 8.951,5.316 8.951,6.12 L8.951,6.144 C8.951,7.56 8.171,8.448 7.043,8.844 L9.227,12 L7.067,12 L5.135,9.156 L3.539,9.156 L3.539,12 L1.703,12 Z M13.751,12.144 C11.699,12.144 10.175,10.62 10.175,8.7 L10.175,8.676 C10.175,6.768 11.711,5.208 13.787,5.208 C15.839,5.208 17.363,6.744 17.363,8.652 L17.363,8.676 C17.363,10.596 15.827,12.144 13.751,12.144 Z M13.787,10.584 C14.891,10.584 15.563,9.72 15.563,8.7 L15.563,8.676 C15.563,7.656 14.831,6.78 13.751,6.78 C12.647,6.78 11.975,7.632 11.975,8.652 L11.975,8.676 C11.975,9.696 12.707,10.584 13.787,10.584 Z M21.095,12.132 C19.655,12.132 18.815,11.172 18.815,9.636 L18.815,5.328 L20.627,5.328 L20.627,9.06 C20.627,9.984 21.071,10.476 21.827,10.476 C22.583,10.476 23.075,9.984 23.075,9.06 L23.075,5.328 L24.899,5.328 L24.899,12 L23.075,12 L23.075,11.04 C22.643,11.616 22.067,12.132 21.095,12.132 Z M26.723,12 L26.723,5.328 L28.547,5.328 L28.547,6.288 C28.979,5.724 29.555,5.208 30.527,5.208 C31.967,5.208 32.819,6.156 32.819,7.692 L32.819,12 L30.995,12 L30.995,8.268 C30.995,7.344 30.551,6.852 29.795,6.852 C29.039,6.852 28.547,7.344 28.547,8.268 L28.547,12 L26.723,12 Z M37.787,10.572 C38.699,10.572 39.467,9.816 39.467,8.676 L39.467,8.652 C39.467,7.512 38.699,6.756 37.787,6.756 C36.875,6.756 36.107,7.488 36.107,8.652 L36.107,8.676 C36.107,9.816 36.875,10.572 37.787,10.572 Z M37.331,12.132 C35.771,12.132 34.283,10.908 34.283,8.676 L34.283,8.652 C34.283,6.432 35.747,5.208 37.331,5.208 C38.351,5.208 38.987,5.676 39.443,6.228 L39.443,2.892 L41.267,2.892 L41.267,12 L39.443,12 L39.443,11.016 C38.975,11.652 38.327,12.132 37.331,12.132 Z M46.235,12.144 C44.243,12.144 42.767,10.74 42.767,8.7 L42.767,8.676 C42.767,6.768 44.123,5.208 46.055,5.208 C48.263,5.208 49.295,6.924 49.295,8.82 C49.295,8.964 49.283,9.132 49.271,9.3 L44.579,9.3 C44.759,10.212 45.383,10.68 46.259,10.68 C46.919,10.68 47.387,10.476 47.915,9.984 L48.959,10.908 C48.335,11.676 47.447,12.144 46.235,12.144 Z M44.555,8.16 L47.519,8.16 C47.399,7.284 46.895,6.672 46.055,6.672 C45.239,6.672 44.699,7.26 44.555,8.16 Z M54.023,10.572 C54.935,10.572 55.703,9.816 55.703,8.676 L55.703,8.652 C55.703,7.512 54.935,6.756 54.023,6.756 C53.111,6.756 52.343,7.488 52.343,8.652 L52.343,8.676 C52.343,9.816 53.111,10.572 54.023,10.572 Z M53.567,12.132 C52.007,12.132 50.519,10.908 50.519,8.676 L50.519,8.652 C50.519,6.432 51.983,5.208 53.567,5.208 C54.587,5.208 55.223,5.676 55.679,6.228 L55.679,2.892 L57.503,2.892 L57.503,12 L55.679,12 L55.679,11.016 C55.211,11.652 54.563,12.132 53.567,12.132 Z M63.203,4.536 L63.203,2.904 L65.123,2.904 L65.123,4.536 L63.203,4.536 Z M63.263,12 L63.263,5.328 L65.075,5.328 L65.075,12 L63.263,12 Z M66.995,12 L66.995,5.328 L68.819,5.328 L68.819,6.288 C69.251,5.724 69.827,5.208 70.799,5.208 C72.239,5.208 73.091,6.156 73.091,7.692 L73.091,12 L71.267,12 L71.267,8.268 C71.267,7.344 70.823,6.852 70.067,6.852 C69.311,6.852 68.819,7.344 68.819,8.268 L68.819,12 L66.995,12 Z M77.111,12.108 C75.959,12.108 75.167,11.652 75.167,10.116 L75.167,6.888 L74.363,6.888 L74.363,5.328 L75.167,5.328 L75.167,3.6 L76.991,3.6 L76.991,5.328 L78.599,5.328 L78.599,6.888 L76.991,6.888 L76.991,9.816 C76.991,10.284 77.195,10.5 77.639,10.5 C77.987,10.5 78.299,10.416 78.575,10.272 L78.575,11.736 C78.179,11.964 77.735,12.108 77.111,12.108 Z M83.075,12.144 C81.083,12.144 79.607,10.74 79.607,8.7 L79.607,8.676 C79.607,6.768 80.963,5.208 82.895,5.208 C85.103,5.208 86.135,6.924 86.135,8.82 C86.135,8.964 86.123,9.132 86.111,9.3 L81.419,9.3 C81.599,10.212 82.223,10.68 83.099,10.68 C83.759,10.68 84.227,10.476 84.755,9.984 L85.799,10.908 C85.175,11.676 84.287,12.144 83.075,12.144 Z M81.395,8.16 L84.359,8.16 C84.239,7.284 83.735,6.672 82.895,6.672 C82.079,6.672 81.539,7.26 81.395,8.16 Z M87.659,12 L87.659,5.328 L89.483,5.328 L89.483,6.708 C89.879,5.772 90.527,5.16 91.655,5.208 L91.655,7.116 L91.559,7.116 C90.287,7.116 89.483,7.896 89.483,9.516 L89.483,12 L87.659,12 Z M92.999,4.536 L92.999,2.904 L94.919,2.904 L94.919,4.536 L92.999,4.536 Z M93.059,12 L93.059,5.328 L94.871,5.328 L94.871,12 L93.059,12 Z M100.043,12.144 C97.991,12.144 96.467,10.62 96.467,8.7 L96.467,8.676 C96.467,6.768 98.003,5.208 100.079,5.208 C102.131,5.208 103.655,6.744 103.655,8.652 L103.655,8.676 C103.655,10.596 102.119,12.144 100.043,12.144 Z M100.079,10.584 C101.183,10.584 101.855,9.72 101.855,8.7 L101.855,8.676 C101.855,7.656 101.123,6.78 100.043,6.78 C98.939,6.78 98.267,7.632 98.267,8.652 L98.267,8.676 C98.267,9.696 98.999,10.584 100.079,10.584 Z M105.155,12 L105.155,5.328 L106.979,5.328 L106.979,6.708 C107.375,5.772 108.023,5.16 109.151,5.208 L109.151,7.116 L109.055,7.116 C107.783,7.116 106.979,7.896 106.979,9.516 L106.979,12 L105.155,12 Z M117.443,12.144 C115.439,12.144 113.975,10.608 113.975,8.7 L113.975,8.676 C113.975,6.78 115.427,5.208 117.467,5.208 C118.715,5.208 119.507,5.64 120.131,6.336 L119.003,7.536 C118.571,7.08 118.139,6.78 117.455,6.78 C116.471,6.78 115.775,7.632 115.775,8.652 L115.775,8.676 C115.775,9.732 116.459,10.584 117.527,10.584 C118.175,10.584 118.631,10.296 119.099,9.852 L120.167,10.92 C119.519,11.64 118.763,12.144 117.443,12.144 Z M124.583,12.144 C122.531,12.144 121.007,10.62 121.007,8.7 L121.007,8.676 C121.007,6.768 122.543,5.208 124.619,5.208 C126.671,5.208 128.195,6.744 128.195,8.652 L128.195,8.676 C128.195,10.596 126.659,12.144 124.583,12.144 Z M124.619,10.584 C125.723,10.584 126.395,9.72 126.395,8.7 L126.395,8.676 C126.395,7.656 125.663,6.78 124.583,6.78 C123.479,6.78 122.807,7.632 122.807,8.652 L122.807,8.676 C122.807,9.696 123.539,10.584 124.619,10.584 Z M129.695,12 L129.695,5.328 L131.519,5.328 L131.519,6.708 C131.915,5.772 132.563,5.16 133.691,5.208 L133.691,7.116 L133.595,7.116 C132.323,7.116 131.519,7.896 131.519,9.516 L131.519,12 L129.695,12 Z M134.999,12 L134.999,5.328 L136.823,5.328 L136.823,6.288 C137.255,5.724 137.831,5.208 138.803,5.208 C140.243,5.208 141.095,6.156 141.095,7.692 L141.095,12 L139.271,12 L139.271,8.268 C139.271,7.344 138.827,6.852 138.071,6.852 C137.315,6.852 136.823,7.344 136.823,8.268 L136.823,12 L134.999,12 Z M146.003,12.144 C144.011,12.144 142.535,10.74 142.535,8.7 L142.535,8.676 C142.535,6.768 143.891,5.208 145.823,5.208 C148.031,5.208 149.063,6.924 149.063,8.82 C149.063,8.964 149.051,9.132 149.039,9.3 L144.347,9.3 C144.527,10.212 145.151,10.68 146.027,10.68 C146.687,10.68 147.155,10.476 147.683,9.984 L148.727,10.908 C148.103,11.676 147.215,12.144 146.003,12.144 Z M144.323,8.16 L147.287,8.16 C147.167,7.284 146.663,6.672 145.823,6.672 C145.007,6.672 144.467,7.26 144.323,8.16 Z M150.587,12 L150.587,5.328 L152.411,5.328 L152.411,6.708 C152.807,5.772 153.455,5.16 154.583,5.208 L154.583,7.116 L154.487,7.116 C153.215,7.116 152.411,7.896 152.411,9.516 L152.411,12 L150.587,12 Z M158.219,12.12 C157.283,12.12 156.239,11.808 155.363,11.124 L156.155,9.912 C156.875,10.44 157.643,10.716 158.267,10.716 C158.843,10.716 159.119,10.5 159.119,10.176 L159.119,10.152 C159.119,9.72 158.459,9.576 157.715,9.348 C156.767,9.072 155.699,8.64 155.699,7.356 L155.699,7.332 C155.699,5.988 156.791,5.232 158.135,5.232 C158.975,5.232 159.887,5.52 160.607,6 L159.911,7.26 C159.251,6.876 158.591,6.636 158.087,6.636 C157.607,6.636 157.343,6.852 157.343,7.14 L157.343,7.164 C157.343,7.56 158.003,7.74 158.735,7.992 C159.671,8.292 160.763,8.736 160.763,9.96 L160.763,9.984 C160.763,11.448 159.659,12.12 158.219,12.12 Z M164.891,13.596 L170.435,2.04 L171.983,2.04 L166.439,13.596 L164.891,13.596 Z M41.513,19.536 L41.513,17.904 L43.433,17.904 L43.433,19.536 L41.513,19.536 Z M41.573,27 L41.573,20.328 L43.385,20.328 L43.385,27 L41.573,27 Z M45.305,27 L45.305,20.328 L47.129,20.328 L47.129,21.288 C47.561,20.724 48.137,20.208 49.109,20.208 C50.549,20.208 51.401,21.156 51.401,22.692 L51.401,27 L49.577,27 L49.577,23.268 C49.577,22.344 49.133,21.852 48.377,21.852 C47.621,21.852 47.129,22.344 47.129,23.268 L47.129,27 L45.305,27 Z M55.421,27.108 C54.269,27.108 53.477,26.652 53.477,25.116 L53.477,21.888 L52.673,21.888 L52.673,20.328 L53.477,20.328 L53.477,18.6 L55.301,18.6 L55.301,20.328 L56.909,20.328 L56.909,21.888 L55.301,21.888 L55.301,24.816 C55.301,25.284 55.505,25.5 55.949,25.5 C56.297,25.5 56.609,25.416 56.885,25.272 L56.885,26.736 C56.489,26.964 56.045,27.108 55.421,27.108 Z M61.385,27.144 C59.393,27.144 57.917,25.74 57.917,23.7 L57.917,23.676 C57.917,21.768 59.273,20.208 61.205,20.208 C63.413,20.208 64.445,21.924 64.445,23.82 C64.445,23.964 64.433,24.132 64.421,24.3 L59.729,24.3 C59.909,25.212 60.533,25.68 61.409,25.68 C62.069,25.68 62.537,25.476 63.065,24.984 L64.109,25.908 C63.485,26.676 62.597,27.144 61.385,27.144 Z M59.705,23.16 L62.669,23.16 C62.549,22.284 62.045,21.672 61.205,21.672 C60.389,21.672 59.849,22.26 59.705,23.16 Z M65.969,27 L65.969,20.328 L67.793,20.328 L67.793,21.708 C68.189,20.772 68.837,20.16 69.965,20.208 L69.965,22.116 L69.869,22.116 C68.597,22.116 67.793,22.896 67.793,24.516 L67.793,27 L65.969,27 Z M71.309,19.536 L71.309,17.904 L73.229,17.904 L73.229,19.536 L71.309,19.536 Z M71.369,27 L71.369,20.328 L73.181,20.328 L73.181,27 L71.369,27 Z M78.353,27.144 C76.301,27.144 74.777,25.62 74.777,23.7 L74.777,23.676 C74.777,21.768 76.313,20.208 78.389,20.208 C80.441,20.208 81.965,21.744 81.965,23.652 L81.965,23.676 C81.965,25.596 80.429,27.144 78.353,27.144 Z M78.389,25.584 C79.493,25.584 80.165,24.72 80.165,23.7 L80.165,23.676 C80.165,22.656 79.433,21.78 78.353,21.78 C77.249,21.78 76.577,22.632 76.577,23.652 L76.577,23.676 C76.577,24.696 77.309,25.584 78.389,25.584 Z M83.465,27 L83.465,20.328 L85.289,20.328 L85.289,21.708 C85.685,20.772 86.333,20.16 87.461,20.208 L87.461,22.116 L87.365,22.116 C86.093,22.116 85.289,22.896 85.289,24.516 L85.289,27 L83.465,27 Z M96.089,25.572 C97.001,25.572 97.769,24.84 97.769,23.676 L97.769,23.652 C97.769,22.512 97.001,21.756 96.089,21.756 C95.177,21.756 94.409,22.512 94.409,23.652 L94.409,23.676 C94.409,24.816 95.177,25.572 96.089,25.572 Z M92.609,28.992 L92.609,20.328 L94.433,20.328 L94.433,21.324 C94.901,20.688 95.549,20.208 96.545,20.208 C98.105,20.208 99.593,21.432 99.593,23.652 L99.593,23.676 C99.593,25.896 98.129,27.132 96.545,27.132 C95.525,27.132 94.889,26.652 94.433,26.1 L94.433,28.992 L92.609,28.992 Z M104.369,27.144 C102.317,27.144 100.793,25.62 100.793,23.7 L100.793,23.676 C100.793,21.768 102.329,20.208 104.405,20.208 C106.457,20.208 107.981,21.744 107.981,23.652 L107.981,23.676 C107.981,25.596 106.445,27.144 104.369,27.144 Z M104.405,25.584 C105.509,25.584 106.181,24.72 106.181,23.7 L106.181,23.676 C106.181,22.656 105.449,21.78 104.369,21.78 C103.265,21.78 102.593,22.632 102.593,23.652 L102.593,23.676 C102.593,24.696 103.325,25.584 104.405,25.584 Z M109.517,19.536 L109.517,17.904 L111.437,17.904 L111.437,19.536 L109.517,19.536 Z M109.577,27 L109.577,20.328 L111.389,20.328 L111.389,27 L109.577,27 Z M113.309,27 L113.309,20.328 L115.133,20.328 L115.133,21.288 C115.565,20.724 116.141,20.208 117.113,20.208 C118.553,20.208 119.405,21.156 119.405,22.692 L119.405,27 L117.581,27 L117.581,23.268 C117.581,22.344 117.137,21.852 116.381,21.852 C115.625,21.852 115.133,22.344 115.133,23.268 L115.133,27 L113.309,27 Z M123.425,27.108 C122.273,27.108 121.481,26.652 121.481,25.116 L121.481,21.888 L120.677,21.888 L120.677,20.328 L121.481,20.328 L121.481,18.6 L123.305,18.6 L123.305,20.328 L124.913,20.328 L124.913,21.888 L123.305,21.888 L123.305,24.816 C123.305,25.284 123.509,25.5 123.953,25.5 C124.301,25.5 124.613,25.416 124.889,25.272 L124.889,26.736 C124.493,26.964 124.049,27.108 123.425,27.108 Z M128.765,27.12 C127.829,27.12 126.785,26.808 125.909,26.124 L126.701,24.912 C127.421,25.44 128.189,25.716 128.813,25.716 C129.389,25.716 129.665,25.5 129.665,25.176 L129.665,25.152 C129.665,24.72 129.005,24.576 128.261,24.348 C127.313,24.072 126.245,23.64 126.245,22.356 L126.245,22.332 C126.245,20.988 127.337,20.232 128.681,20.232 C129.521,20.232 130.433,20.52 131.153,21 L130.457,22.26 C129.797,21.876 129.137,21.636 128.633,21.636 C128.153,21.636 127.889,21.852 127.889,22.14 L127.889,22.164 C127.889,22.56 128.549,22.74 129.281,22.992 C130.217,23.292 131.309,23.736 131.309,24.96 L131.309,24.984 C131.309,26.448 130.205,27.12 128.765,27.12 Z"/>
      <use fill="#DE3636" fill-opacity=".3" xlink:href="#avoid-3-a"/>
      <circle cx="75.05" cy="140.65" r="6.688" stroke="#DE3636" stroke-width=".625"/>
      <g>
        <use fill="#DE3636" fill-opacity=".3" xlink:href="#avoid-3-b"/>
        <circle cx="75.05" cy="161.65" r="6.688" stroke="#DE3636" stroke-width=".625"/>
      </g>
    </g>
  </g>
</svg>
