<?xml version="1.0" encoding="UTF-8"?>
<svg width="264px" height="264px" viewBox="0 0 264 264" version="1.1" xmlns="http://www.w3.org/2000/svg" xmlns:xlink="http://www.w3.org/1999/xlink">
    <!-- Generator: Sketch 48 (47235) - http://www.bohemiancoding.com/sketch -->
    <title>Avoid 5</title>
    <desc>Created with Sketch.</desc>
    <defs>
        <circle id="path-1" cx="158.45" cy="53.9" r="11.2"></circle>
        <circle id="path-2" cx="74.45" cy="53.9" r="11.2"></circle>
        <circle id="path-3" cx="60.45" cy="73.5" r="11.2"></circle>
        <circle id="path-4" cx="172.45" cy="73.5" r="11.2"></circle>
        <circle id="path-5" cx="186.45" cy="90.3" r="11.2"></circle>
        <circle id="path-6" cx="135" cy="137.2" r="8.4"></circle>
        <circle id="path-7" cx="103.5" cy="156.1" r="8.4"></circle>
        <circle id="path-8" cx="103.5" cy="119" r="8.4"></circle>
        <circle id="path-9" cx="46.45" cy="90.3" r="11.2"></circle>
        <circle id="path-10" cx="183.65" cy="185.85" r="11.2"></circle>
        <circle id="path-11" cx="46.45" cy="185.85" r="11.2"></circle>
    </defs>
    <g id="Page-1" stroke="none" stroke-width="1" fill="none" fill-rule="evenodd">
        <g id="Avoid-5">
            <g id="Icon-Grid---Base---Zoomed" transform="translate(48.200000, 48.200000)">
                <g id="Grid">
                    <rect id="Rectangle" fill="#FFFFFF" x="0" y="0" width="168" height="169.05"></rect>
                    <g id="pixels" opacity="0.400000006" stroke="#000000" stroke-width="0.5">
                        <g id="Group" opacity="0.200000003">
                            <rect id="Rectangle-3" x="161" y="0" width="7" height="168"></rect>
                            <rect id="Rectangle-3" x="154" y="0" width="7" height="168"></rect>
                            <rect id="Rectangle-3" x="147" y="0" width="7" height="168"></rect>
                            <rect id="Rectangle-3" x="140" y="0" width="7" height="168"></rect>
                            <rect id="Rectangle-3" x="133" y="0" width="7" height="168"></rect>
                            <rect id="Rectangle-3" x="126" y="0" width="7" height="168"></rect>
                            <rect id="Rectangle-3" x="119" y="0" width="7" height="168"></rect>
                            <rect id="Rectangle-3" x="112" y="0" width="7" height="168"></rect>
                            <rect id="Rectangle-3" x="105" y="0" width="7" height="168"></rect>
                            <rect id="Rectangle-3" x="98" y="0" width="7" height="168"></rect>
                            <rect id="Rectangle-3" x="91" y="0" width="7" height="168"></rect>
                            <rect id="Rectangle-3" x="84" y="0" width="7" height="168"></rect>
                            <rect id="Rectangle-3" x="77" y="0" width="7" height="168"></rect>
                            <rect id="Rectangle-3" x="70" y="0" width="7" height="168"></rect>
                            <rect id="Rectangle-3" x="63" y="0" width="7" height="168"></rect>
                            <rect id="Rectangle-3" x="56" y="0" width="7" height="168"></rect>
                            <rect id="Rectangle-3" x="49" y="0" width="7" height="168"></rect>
                            <rect id="Rectangle-3" x="42" y="0" width="7" height="168"></rect>
                            <rect id="Rectangle-3" x="35" y="0" width="7" height="168"></rect>
                            <rect id="Rectangle-3" x="28" y="0" width="7" height="168"></rect>
                            <rect id="Rectangle-3" x="21" y="0" width="7" height="168"></rect>
                            <rect id="Rectangle-3" x="14" y="0" width="7" height="168"></rect>
                            <rect id="Rectangle-3" x="7" y="0" width="7" height="168"></rect>
                            <rect id="Rectangle-3" x="0" y="0" width="7" height="168"></rect>
                        </g>
                        <g id="Group" opacity="0.200000003" transform="translate(84.000000, 84.000000) rotate(90.000000) translate(-84.000000, -84.000000) ">
                            <rect id="Rectangle-3" x="161" y="0" width="7" height="168"></rect>
                            <rect id="Rectangle-3" x="154" y="0" width="7" height="168"></rect>
                            <rect id="Rectangle-3" x="147" y="0" width="7" height="168"></rect>
                            <rect id="Rectangle-3" x="140" y="0" width="7" height="168"></rect>
                            <rect id="Rectangle-3" x="133" y="0" width="7" height="168"></rect>
                            <rect id="Rectangle-3" x="126" y="0" width="7" height="168"></rect>
                            <rect id="Rectangle-3" x="119" y="0" width="7" height="168"></rect>
                            <rect id="Rectangle-3" x="112" y="0" width="7" height="168"></rect>
                            <rect id="Rectangle-3" x="105" y="0" width="7" height="168"></rect>
                            <rect id="Rectangle-3" x="98" y="0" width="7" height="168"></rect>
                            <rect id="Rectangle-3" x="91" y="0" width="7" height="168"></rect>
                            <rect id="Rectangle-3" x="84" y="0" width="7" height="168"></rect>
                            <rect id="Rectangle-3" x="77" y="0" width="7" height="168"></rect>
                            <rect id="Rectangle-3" x="70" y="0" width="7" height="168"></rect>
                            <rect id="Rectangle-3" x="63" y="0" width="7" height="168"></rect>
                            <rect id="Rectangle-3" x="56" y="0" width="7" height="168"></rect>
                            <rect id="Rectangle-3" x="49" y="0" width="7" height="168"></rect>
                            <rect id="Rectangle-3" x="42" y="0" width="7" height="168"></rect>
                            <rect id="Rectangle-3" x="35" y="0" width="7" height="168"></rect>
                            <rect id="Rectangle-3" x="28" y="0" width="7" height="168"></rect>
                            <rect id="Rectangle-3" x="21" y="0" width="7" height="168"></rect>
                            <rect id="Rectangle-3" x="14" y="0" width="7" height="168"></rect>
                            <rect id="Rectangle-3" x="7" y="0" width="7" height="168"></rect>
                            <rect id="Rectangle-3" x="0" y="0" width="7" height="168"></rect>
                        </g>
                    </g>
                    <rect id="bounds" stroke="#AAAAAA" stroke-width="2" x="1" y="1" width="166" height="166"></rect>
                </g>
            </g>
            <g id="Icon/Browse" opacity="0.400000006" transform="translate(48.200000, 48.200000)">
                <rect id="bounds" x="0" y="0" width="168" height="168"></rect>
                <path d="M14,56 L154,56 L154,154 L14,154 L14,56 Z M28,70 L28,140 L140,140 L140,70 L28,70 Z M70,84 L105,105 L70,126 L70,84 Z M28,35 L140,35 L140,49 L28,49 L28,35 Z M42,14 L126,14 L126,28 L42,28 L42,14 Z" id="browse" fill="#000000"></path>
            </g>
            <g id="Guides" transform="translate(16.000000, 16.000000)">
                <text id="Unrounded-exterior/i" font-family="GothamSSm-Bold, Gotham SSm" font-size="12" font-weight="bold" fill="#DE3636">
                    <tspan x="1.205" y="12">Unrounded exterior/interior corners</tspan>
                </text>
                <g id="guide">
                    <use fill-opacity="0.3" fill="#DE3636" fill-rule="evenodd" xlink:href="#path-1"></use>
                    <circle stroke="#DE3636" stroke-width="0.625" cx="158.45" cy="53.9" r="10.8875"></circle>
                </g>
                <g id="guide">
                    <use fill-opacity="0.3" fill="#DE3636" fill-rule="evenodd" xlink:href="#path-2"></use>
                    <circle stroke="#DE3636" stroke-width="0.625" cx="74.45" cy="53.9" r="10.8875"></circle>
                </g>
                <g id="guide">
                    <use fill-opacity="0.3" fill="#DE3636" fill-rule="evenodd" xlink:href="#path-3"></use>
                    <circle stroke="#DE3636" stroke-width="0.625" cx="60.45" cy="73.5" r="10.8875"></circle>
                </g>
                <g id="guide">
                    <use fill-opacity="0.3" fill="#DE3636" fill-rule="evenodd" xlink:href="#path-4"></use>
                    <circle stroke="#DE3636" stroke-width="0.625" cx="172.45" cy="73.5" r="10.8875"></circle>
                </g>
                <g id="guide">
                    <use fill-opacity="0.3" fill="#DE3636" fill-rule="evenodd" xlink:href="#path-5"></use>
                    <circle stroke="#DE3636" stroke-width="0.625" cx="186.45" cy="90.3" r="10.8875"></circle>
                </g>
                <g id="guide">
                    <use fill-opacity="0.3" fill="#DE3636" fill-rule="evenodd" xlink:href="#path-6"></use>
                    <circle stroke="#DE3636" stroke-width="0.625" cx="135" cy="137.2" r="8.0875"></circle>
                </g>
                <g id="guide">
                    <use fill-opacity="0.3" fill="#DE3636" fill-rule="evenodd" xlink:href="#path-7"></use>
                    <circle stroke="#DE3636" stroke-width="0.625" cx="103.5" cy="156.1" r="8.0875"></circle>
                </g>
                <g id="guide">
                    <use fill-opacity="0.3" fill="#DE3636" fill-rule="evenodd" xlink:href="#path-8"></use>
                    <circle stroke="#DE3636" stroke-width="0.625" cx="103.5" cy="119" r="8.0875"></circle>
                </g>
                <g id="guide">
                    <use fill-opacity="0.3" fill="#DE3636" fill-rule="evenodd" xlink:href="#path-9"></use>
                    <circle stroke="#DE3636" stroke-width="0.625" cx="46.45" cy="90.3" r="10.8875"></circle>
                </g>
                <g id="guide">
                    <use fill-opacity="0.3" fill="#DE3636" fill-rule="evenodd" xlink:href="#path-10"></use>
                    <circle stroke="#DE3636" stroke-width="0.625" cx="183.65" cy="185.85" r="10.8875"></circle>
                </g>
                <g id="guide">
                    <use fill-opacity="0.3" fill="#DE3636" fill-rule="evenodd" xlink:href="#path-11"></use>
                    <circle stroke="#DE3636" stroke-width="0.625" cx="46.45" cy="185.85" r="10.8875"></circle>
                </g>
            </g>
        </g>
    </g>
</svg>