<svg xmlns="http://www.w3.org/2000/svg" xmlns:xlink="http://www.w3.org/1999/xlink" width="264" height="264" viewBox="0 0 264 264">
  <defs>
    <circle id="avoid-1-a" cx="35.6" cy="18.4" r="18.2"/>
    <circle id="avoid-1-b" cx="154.6" cy="17" r="16.8"/>
    <circle id="avoid-1-c" cx="35.6" cy="108" r="18.2"/>
    <circle id="avoid-1-d" cx="153.2" cy="108" r="18.2"/>
  </defs>
  <g fill="none" fill-rule="evenodd" transform="translate(38 48)">
    <g transform="translate(10.4 .2)">
      <rect width="168" height="169.05" fill="#FFF"/>
      <g stroke="#000" stroke-width=".5" opacity=".4">
        <g opacity=".2">
          <rect width="7" height="168" x="161"/>
          <rect width="7" height="168" x="154"/>
          <rect width="7" height="168" x="147"/>
          <rect width="7" height="168" x="140"/>
          <rect width="7" height="168" x="133"/>
          <rect width="7" height="168" x="126"/>
          <rect width="7" height="168" x="119"/>
          <rect width="7" height="168" x="112"/>
          <rect width="7" height="168" x="105"/>
          <rect width="7" height="168" x="98"/>
          <rect width="7" height="168" x="91"/>
          <rect width="7" height="168" x="84"/>
          <rect width="7" height="168" x="77"/>
          <rect width="7" height="168" x="70"/>
          <rect width="7" height="168" x="63"/>
          <rect width="7" height="168" x="56"/>
          <rect width="7" height="168" x="49"/>
          <rect width="7" height="168" x="42"/>
          <rect width="7" height="168" x="35"/>
          <rect width="7" height="168" x="28"/>
          <rect width="7" height="168" x="21"/>
          <rect width="7" height="168" x="14"/>
          <rect width="7" height="168" x="7"/>
          <rect width="7" height="168"/>
        </g>
        <g opacity=".2" transform="rotate(90 84 84)">
          <rect width="7" height="168" x="161"/>
          <rect width="7" height="168" x="154"/>
          <rect width="7" height="168" x="147"/>
          <rect width="7" height="168" x="140"/>
          <rect width="7" height="168" x="133"/>
          <rect width="7" height="168" x="126"/>
          <rect width="7" height="168" x="119"/>
          <rect width="7" height="168" x="112"/>
          <rect width="7" height="168" x="105"/>
          <rect width="7" height="168" x="98"/>
          <rect width="7" height="168" x="91"/>
          <rect width="7" height="168" x="84"/>
          <rect width="7" height="168" x="77"/>
          <rect width="7" height="168" x="70"/>
          <rect width="7" height="168" x="63"/>
          <rect width="7" height="168" x="56"/>
          <rect width="7" height="168" x="49"/>
          <rect width="7" height="168" x="42"/>
          <rect width="7" height="168" x="35"/>
          <rect width="7" height="168" x="28"/>
          <rect width="7" height="168" x="21"/>
          <rect width="7" height="168" x="14"/>
          <rect width="7" height="168" x="7"/>
          <rect width="7" height="168"/>
        </g>
      </g>
      <rect width="166" height="166" x="1" y="1" stroke="#AAA" stroke-width="2"/>
    </g>
    <g opacity=".4" transform="translate(10.4 .2)">
      <rect width="168" height="168"/>
      <path fill="#000" d="M37.8994949,42 L84,88.1005051 L130.100505,42 L37.8994949,42 Z M140,51.8994949 L86.4748737,105.424621 C85.1080387,106.791456 82.8919613,106.791456 81.5251263,105.424621 L28,51.8994949 L28,126 L140,126 L140,51.8994949 Z M28,28 L140,28 C147.731986,28 154,34.2680135 154,42 L154,126 C154,133.731986 147.731986,140 140,140 L28,140 C20.2680135,140 14,133.731986 14,126 L14,42 C14,34.2680135 20.2680135,28 28,28 Z"/>
    </g>
    <g transform="translate(0 21)">
      <use fill="#DE3636" fill-opacity=".3" xlink:href="#avoid-1-a"/>
      <circle cx="35.6" cy="18.4" r="17.887" stroke="#DE3636" stroke-width=".625"/>
      <use fill="#DE3636" fill-opacity=".3" xlink:href="#avoid-1-b"/>
      <circle cx="154.6" cy="17" r="16.488" stroke="#DE3636" stroke-width=".625"/>
      <use fill="#DE3636" fill-opacity=".3" xlink:href="#avoid-1-c"/>
      <circle cx="35.6" cy="108" r="17.887" stroke="#DE3636" stroke-width=".625"/>
      <g>
        <use fill="#DE3636" fill-opacity=".3" xlink:href="#avoid-1-d"/>
        <circle cx="153.2" cy="108" r="17.887" stroke="#DE3636" stroke-width=".625"/>
      </g>
      <text fill="#DE3636" font-family="GothamSSm-Bold, Gotham SSm" font-size="12" font-weight="bold">
        <tspan x="1.029" y="-41">2px rounded exterior corners</tspan>
      </text>
    </g>
  </g>
</svg>
