<svg xmlns="http://www.w3.org/2000/svg" width="264" height="264" viewBox="0 0 264 264">
  <g fill="none" fill-rule="evenodd" transform="translate(48 16)">
    <g transform="translate(0 32.2)">
      <rect width="168" height="169.05" fill="#FFF"/>
      <g stroke="#000" stroke-width=".5" opacity=".4">
        <g opacity=".2">
          <rect width="7" height="168" x="161"/>
          <rect width="7" height="168" x="154"/>
          <rect width="7" height="168" x="147"/>
          <rect width="7" height="168" x="140"/>
          <rect width="7" height="168" x="133"/>
          <rect width="7" height="168" x="126"/>
          <rect width="7" height="168" x="119"/>
          <rect width="7" height="168" x="112"/>
          <rect width="7" height="168" x="105"/>
          <rect width="7" height="168" x="98"/>
          <rect width="7" height="168" x="91"/>
          <rect width="7" height="168" x="84"/>
          <rect width="7" height="168" x="77"/>
          <rect width="7" height="168" x="70"/>
          <rect width="7" height="168" x="63"/>
          <rect width="7" height="168" x="56"/>
          <rect width="7" height="168" x="49"/>
          <rect width="7" height="168" x="42"/>
          <rect width="7" height="168" x="35"/>
          <rect width="7" height="168" x="28"/>
          <rect width="7" height="168" x="21"/>
          <rect width="7" height="168" x="14"/>
          <rect width="7" height="168" x="7"/>
          <rect width="7" height="168"/>
        </g>
        <g opacity=".2" transform="rotate(90 84 84)">
          <rect width="7" height="168" x="161"/>
          <rect width="7" height="168" x="154"/>
          <rect width="7" height="168" x="147"/>
          <rect width="7" height="168" x="140"/>
          <rect width="7" height="168" x="133"/>
          <rect width="7" height="168" x="126"/>
          <rect width="7" height="168" x="119"/>
          <rect width="7" height="168" x="112"/>
          <rect width="7" height="168" x="105"/>
          <rect width="7" height="168" x="98"/>
          <rect width="7" height="168" x="91"/>
          <rect width="7" height="168" x="84"/>
          <rect width="7" height="168" x="77"/>
          <rect width="7" height="168" x="70"/>
          <rect width="7" height="168" x="63"/>
          <rect width="7" height="168" x="56"/>
          <rect width="7" height="168" x="49"/>
          <rect width="7" height="168" x="42"/>
          <rect width="7" height="168" x="35"/>
          <rect width="7" height="168" x="28"/>
          <rect width="7" height="168" x="21"/>
          <rect width="7" height="168" x="14"/>
          <rect width="7" height="168" x="7"/>
          <rect width="7" height="168"/>
        </g>
      </g>
      <rect width="166" height="166" x="1" y="1" stroke="#AAA" stroke-width="2"/>
    </g>
    <g opacity=".4" transform="translate(0 32.2)">
      <rect width="168" height="168"/>
      <path fill="#000" d="M119.2163,147.0007 L126.0063,48.7697 L132.9923,49.2247 L125.7823,154.0007 L42.2163,154.0007 L35.0063,49.2247 L41.9923,48.7697 L48.7823,147.0007 L119.2163,147.0007 Z M63.0021,14.0021 L104.9951,14.0021 L104.9951,28.0021 L97.9951,28.0021 L97.9951,21.0021 L70.0021,21.0021 L70.0021,28.0021 L63.0021,28.0021 L63.0021,14.0021 Z M28,42 L28,35 L140,35 L140,42 L28,42 Z M66.5,133 L66.5,56 L73.5,56 L73.5,133 L66.5,133 Z M94.5,133 L94.5,56 L101.5,56 L101.5,133 L94.5,133 Z"/>
    </g>
    <g fill="#DE3636" transform="translate(47.85)">
      <path d="M3.163,12 L3.163,5.076 L1.627,5.46 L1.243,3.948 L3.727,3.204 L4.987,3.204 L4.987,12 L3.163,12 Z M10.579,10.572 C11.491,10.572 12.259,9.84 12.259,8.676 L12.259,8.652 C12.259,7.512 11.491,6.756 10.579,6.756 C9.667,6.756 8.899,7.512 8.899,8.652 L8.899,8.676 C8.899,9.816 9.667,10.572 10.579,10.572 Z M7.099,13.992 L7.099,5.328 L8.923,5.328 L8.923,6.324 C9.391,5.688 10.039,5.208 11.035,5.208 C12.595,5.208 14.083,6.432 14.083,8.652 L14.083,8.676 C14.083,10.896 12.619,12.132 11.035,12.132 C10.015,12.132 9.379,11.652 8.923,11.1 L8.923,13.992 L7.099,13.992 Z M16.723,5.328 L18.019,7.332 L19.339,5.328 L21.247,5.328 L18.979,8.58 L21.343,12 L19.387,12 L17.983,9.852 L16.579,12 L14.671,12 L17.035,8.604 L14.767,5.328 L16.723,5.328 Z M28.771,12.12 C27.835,12.12 26.791,11.808 25.915,11.124 L26.707,9.912 C27.427,10.44 28.195,10.716 28.819,10.716 C29.395,10.716 29.671,10.5 29.671,10.176 L29.671,10.152 C29.671,9.72 29.011,9.576 28.267,9.348 C27.319,9.072 26.251,8.64 26.251,7.356 L26.251,7.332 C26.251,5.988 27.343,5.232 28.687,5.232 C29.527,5.232 30.439,5.52 31.159,6 L30.463,7.26 C29.803,6.876 29.143,6.636 28.639,6.636 C28.159,6.636 27.895,6.852 27.895,7.14 L27.895,7.164 C27.895,7.56 28.555,7.74 29.287,7.992 C30.223,8.292 31.315,8.736 31.315,9.96 L31.315,9.984 C31.315,11.448 30.211,12.12 28.771,12.12 Z M34.939,12.108 C33.787,12.108 32.995,11.652 32.995,10.116 L32.995,6.888 L32.191,6.888 L32.191,5.328 L32.995,5.328 L32.995,3.6 L34.819,3.6 L34.819,5.328 L36.427,5.328 L36.427,6.888 L34.819,6.888 L34.819,9.816 C34.819,10.284 35.023,10.5 35.467,10.5 C35.815,10.5 36.127,10.416 36.403,10.272 L36.403,11.736 C36.007,11.964 35.563,12.108 34.939,12.108 Z M37.951,12 L37.951,5.328 L39.775,5.328 L39.775,6.708 C40.171,5.772 40.819,5.16 41.947,5.208 L41.947,7.116 L41.851,7.116 C40.579,7.116 39.775,7.896 39.775,9.516 L39.775,12 L37.951,12 Z M46.315,12.144 C44.263,12.144 42.739,10.62 42.739,8.7 L42.739,8.676 C42.739,6.768 44.275,5.208 46.351,5.208 C48.403,5.208 49.927,6.744 49.927,8.652 L49.927,8.676 C49.927,10.596 48.391,12.144 46.315,12.144 Z M46.351,10.584 C47.455,10.584 48.127,9.72 48.127,8.7 L48.127,8.676 C48.127,7.656 47.395,6.78 46.315,6.78 C45.211,6.78 44.539,7.632 44.539,8.652 L44.539,8.676 C44.539,9.696 45.271,10.584 46.351,10.584 Z M51.427,12 L51.427,2.892 L53.251,2.892 L53.251,7.86 L55.579,5.328 L57.763,5.328 L55.195,7.98 L57.847,12 L55.735,12 L53.971,9.228 L53.251,9.996 L53.251,12 L51.427,12 Z M61.723,12.144 C59.731,12.144 58.255,10.74 58.255,8.7 L58.255,8.676 C58.255,6.768 59.611,5.208 61.543,5.208 C63.751,5.208 64.783,6.924 64.783,8.82 C64.783,8.964 64.771,9.132 64.759,9.3 L60.067,9.3 C60.247,10.212 60.871,10.68 61.747,10.68 C62.407,10.68 62.875,10.476 63.403,9.984 L64.447,10.908 C63.823,11.676 62.935,12.144 61.723,12.144 Z M60.043,8.16 L63.007,8.16 C62.887,7.284 62.383,6.672 61.543,6.672 C60.727,6.672 60.187,7.26 60.043,8.16 Z M68.635,12.12 C67.699,12.12 66.655,11.808 65.779,11.124 L66.571,9.912 C67.291,10.44 68.059,10.716 68.683,10.716 C69.259,10.716 69.535,10.5 69.535,10.176 L69.535,10.152 C69.535,9.72 68.875,9.576 68.131,9.348 C67.183,9.072 66.115,8.64 66.115,7.356 L66.115,7.332 C66.115,5.988 67.207,5.232 68.551,5.232 C69.391,5.232 70.303,5.52 71.023,6 L70.327,7.26 C69.667,6.876 69.007,6.636 68.503,6.636 C68.023,6.636 67.759,6.852 67.759,7.14 L67.759,7.164 C67.759,7.56 68.419,7.74 69.151,7.992 C70.087,8.292 71.179,8.736 71.179,9.96 L71.179,9.984 C71.179,11.448 70.075,12.12 68.635,12.12 Z"/>
      <rect width="100.8" height="1" x="35.25" y="67.2"/>
      <path d="M140.78,73.45 L140.78,68.834 L139.756,69.09 L139.5,68.082 L141.156,67.586 L141.996,67.586 L141.996,73.45 L140.78,73.45 Z M145.724,72.498 C146.332,72.498 146.844,72.01 146.844,71.234 L146.844,71.218 C146.844,70.458 146.332,69.954 145.724,69.954 C145.116,69.954 144.604,70.458 144.604,71.218 L144.604,71.234 C144.604,71.994 145.116,72.498 145.724,72.498 Z M143.404,74.778 L143.404,69.002 L144.62,69.002 L144.62,69.666 C144.932,69.242 145.364,68.922 146.028,68.922 C147.068,68.922 148.06,69.738 148.06,71.218 L148.06,71.234 C148.06,72.714 147.084,73.538 146.028,73.538 C145.348,73.538 144.924,73.218 144.62,72.85 L144.62,74.778 L143.404,74.778 Z M149.82,69.002 L150.684,70.338 L151.564,69.002 L152.836,69.002 L151.324,71.17 L152.9,73.45 L151.596,73.45 L150.66,72.018 L149.724,73.45 L148.452,73.45 L150.028,71.186 L148.516,69.002 L149.82,69.002 Z"/>
      <rect width="100.8" height="1" x="35.25" y="73.5"/>
    </g>
  </g>
</svg>
