<svg width="720" height="720" viewBox="0 0 720 720" fill="none" xmlns="http://www.w3.org/2000/svg">
<rect width="480" height="480" transform="translate(120 120)" fill="white"/>
<rect width="480" height="480" transform="translate(120 120)" fill="white"/>
<g opacity="0.4">
<g opacity="0.2">
<rect x="580" y="120" width="20" height="480" stroke="black"/>
<rect x="560" y="120" width="20" height="480" stroke="black"/>
<rect x="540" y="120" width="20" height="480" stroke="black"/>
<rect x="520" y="120" width="20" height="480" stroke="black"/>
<rect x="500" y="120" width="20" height="480" stroke="black"/>
<rect x="480" y="120" width="20" height="480" stroke="black"/>
<rect x="460" y="120" width="20" height="480" stroke="black"/>
<rect x="440" y="120" width="20" height="480" stroke="black"/>
<rect x="420" y="120" width="20" height="480" stroke="black"/>
<rect x="400" y="120" width="20" height="480" stroke="black"/>
<rect x="380" y="120" width="20" height="480" stroke="black"/>
<rect x="360" y="120" width="20" height="480" stroke="black"/>
<rect x="340" y="120" width="20" height="480" stroke="black"/>
<rect x="320" y="120" width="20" height="480" stroke="black"/>
<rect x="300" y="120" width="20" height="480" stroke="black"/>
<rect x="280" y="120" width="20" height="480" stroke="black"/>
<rect x="260" y="120" width="20" height="480" stroke="black"/>
<rect x="240" y="120" width="20" height="480" stroke="black"/>
<rect x="220" y="120" width="20" height="480" stroke="black"/>
<rect x="200" y="120" width="20" height="480" stroke="black"/>
<rect x="180" y="120" width="20" height="480" stroke="black"/>
<rect x="160" y="120" width="20" height="480" stroke="black"/>
<rect x="140" y="120" width="20" height="480" stroke="black"/>
<rect x="120" y="120" width="20" height="480" stroke="black"/>
</g>
<g opacity="0.2">
<rect x="600" y="580" width="20" height="480" transform="rotate(90 600 580)" stroke="black"/>
<rect x="600" y="560" width="20" height="480" transform="rotate(90 600 560)" stroke="black"/>
<rect x="600" y="540" width="20" height="480" transform="rotate(90 600 540)" stroke="black"/>
<rect x="600" y="520" width="20" height="480" transform="rotate(90 600 520)" stroke="black"/>
<rect x="600" y="500" width="20" height="480" transform="rotate(90 600 500)" stroke="black"/>
<rect x="600" y="480" width="20" height="480" transform="rotate(90 600 480)" stroke="black"/>
<rect x="600" y="460" width="20" height="480" transform="rotate(90 600 460)" stroke="black"/>
<rect x="600" y="440" width="20" height="480" transform="rotate(90 600 440)" stroke="black"/>
<rect x="600" y="420" width="20" height="480" transform="rotate(90 600 420)" stroke="black"/>
<rect x="600" y="400" width="20" height="480" transform="rotate(90 600 400)" stroke="black"/>
<rect x="600" y="380" width="20" height="480" transform="rotate(90 600 380)" stroke="black"/>
<rect x="600" y="360" width="20" height="480" transform="rotate(90 600 360)" stroke="black"/>
<rect x="600" y="340" width="20" height="480" transform="rotate(90 600 340)" stroke="black"/>
<rect x="600" y="320" width="20" height="480" transform="rotate(90 600 320)" stroke="black"/>
<rect x="600" y="300" width="20" height="480" transform="rotate(90 600 300)" stroke="black"/>
<rect x="600" y="280" width="20" height="480" transform="rotate(90 600 280)" stroke="black"/>
<rect x="600" y="260" width="20" height="480" transform="rotate(90 600 260)" stroke="black"/>
<rect x="600" y="240" width="20" height="480" transform="rotate(90 600 240)" stroke="black"/>
<rect x="600" y="220" width="20" height="480" transform="rotate(90 600 220)" stroke="black"/>
<rect x="600" y="200" width="20" height="480" transform="rotate(90 600 200)" stroke="black"/>
<rect x="600" y="180" width="20" height="480" transform="rotate(90 600 180)" stroke="black"/>
<rect x="600" y="160" width="20" height="480" transform="rotate(90 600 160)" stroke="black"/>
<rect x="600" y="140" width="20" height="480" transform="rotate(90 600 140)" stroke="black"/>
<rect x="600" y="120" width="20" height="480" transform="rotate(90 600 120)" stroke="black"/>
</g>
</g>
<rect x="121" y="121" width="478" height="478" stroke="#AAAAAA" stroke-width="2"/>
<mask id="mask0" mask-type="alpha" maskUnits="userSpaceOnUse" x="120" y="120" width="480" height="480">
<rect x="120" y="120" width="480" height="480" fill="white"/>
</mask>
<g mask="url(#mask0)">
<g opacity="0.3">
<path d="M600 120L120 600" stroke="black" stroke-width="3"/>
<path d="M120 120L600 600" stroke="black" stroke-width="3"/>
<path fill-rule="evenodd" clip-rule="evenodd" d="M360 460C415.228 460 460 415.228 460 360C460 304.772 415.228 260 360 260C304.772 260 260 304.772 260 360C260 415.228 304.772 460 360 460Z" stroke="black" stroke-width="3"/>
<path d="M360 120V600" stroke="black" stroke-width="3"/>
<path d="M280 120V600" stroke="black" stroke-width="3"/>
<path d="M440 120V600" stroke="black" stroke-width="3"/>
<path d="M120 360H600" stroke="black" stroke-width="3"/>
<path d="M120 440H600" stroke="black" stroke-width="3"/>
<path d="M120 280H600" stroke="black" stroke-width="3"/>
</g>
<g opacity="0.7">
<path fill-rule="evenodd" clip-rule="evenodd" d="M360 560C470.457 560 560 470.457 560 360C560 249.543 470.457 160 360 160C249.543 160 160 249.543 160 360C160 470.457 249.543 560 360 560Z" stroke="black" stroke-width="3"/>
<rect x="160" y="200" width="400" height="320" rx="16" stroke="black" stroke-width="3"/>
<rect x="200" y="160" width="320" height="400" rx="16" stroke="black" stroke-width="3"/>
<rect x="540" y="180" width="360" height="360" rx="16" transform="rotate(90 540 180)" stroke="black" stroke-width="3"/>
</g>
</g>
<rect opacity="0.3" x="120" y="120" width="480" height="480" fill="#137BC2"/>
<rect x="120" y="608" width="2" height="40" fill="#137BC2"/>
<path d="M330.492 663H343.356V659.808H335.604L338.604 657.456C341.7 655.032 343.188 653.568 343.188 650.688V650.64C343.188 647.4 340.788 645.288 337.212 645.288C334.092 645.288 332.436 646.56 330.732 648.912L333.324 650.976C334.62 649.368 335.58 648.576 336.972 648.576C338.388 648.576 339.42 649.416 339.42 650.952C339.42 652.416 338.556 653.4 336.348 655.248L330.492 660.072V663ZM354.581 663H358.109V659.208H360.485V656.208H358.109V645.408H354.989L345.365 656.592L345.989 659.208H354.581V663ZM349.709 656.208L354.581 650.472V656.208H349.709ZM370.604 660.144C368.78 660.144 367.244 658.632 367.244 656.352V656.304C367.244 654.024 368.78 652.512 370.604 652.512C372.428 652.512 373.964 654.024 373.964 656.304V656.352C373.964 658.68 372.428 660.144 370.604 660.144ZM363.644 666.984H367.292V661.2C368.204 662.304 369.476 663.264 371.516 663.264C374.684 663.264 377.612 660.792 377.612 656.352V656.304C377.612 651.864 374.636 649.416 371.516 649.416C369.524 649.416 368.228 650.376 367.292 651.648V649.656H363.644V666.984ZM382.886 649.656H378.974L383.51 656.208L378.782 663H382.598L385.406 658.704L388.214 663H392.126L387.398 656.16L391.934 649.656H388.118L385.478 653.664L382.886 649.656Z" fill="#137BC2"/>
<rect x="598" y="608" width="2" height="40" fill="#137BC2"/>
<rect x="608" y="598" width="40" height="2" fill="#137BC2"/>
<rect x="608" y="120" width="40" height="2" fill="#137BC2"/>
<path d="M641.32 369H654.184V365.808H646.432L649.432 363.456C652.528 361.032 654.016 359.568 654.016 356.688V356.64C654.016 353.4 651.616 351.288 648.04 351.288C644.92 351.288 643.264 352.56 641.56 354.912L644.152 356.976C645.448 355.368 646.408 354.576 647.8 354.576C649.216 354.576 650.248 355.416 650.248 356.952C650.248 358.416 649.384 359.4 647.176 361.248L641.32 366.072V369ZM665.409 369H668.937V365.208H671.313V362.208H668.937V351.408H665.817L656.193 362.592L656.817 365.208H665.409V369ZM660.537 362.208L665.409 356.472V362.208H660.537ZM681.432 366.144C679.608 366.144 678.072 364.632 678.072 362.352V362.304C678.072 360.024 679.608 358.512 681.432 358.512C683.256 358.512 684.792 360.024 684.792 362.304V362.352C684.792 364.68 683.256 366.144 681.432 366.144ZM674.472 372.984H678.12V367.2C679.032 368.304 680.304 369.264 682.344 369.264C685.512 369.264 688.44 366.792 688.44 362.352V362.304C688.44 357.864 685.464 355.416 682.344 355.416C680.352 355.416 679.056 356.376 678.12 357.648V355.656H674.472V372.984ZM693.714 355.656H689.802L694.338 362.208L689.61 369H693.426L696.234 364.704L699.042 369H702.954L698.226 362.16L702.762 355.656H698.946L696.306 359.664L693.714 355.656Z" fill="#137BC2"/>
<path d="M274.153 71.384C278.633 71.384 281.289 69.784 283.689 67.256L280.553 64.088C278.697 65.784 277.033 66.872 274.313 66.872C270.217 66.872 267.369 63.448 267.369 59.352V59.288C267.369 55.192 270.281 51.832 274.313 51.832C276.713 51.832 278.569 52.856 280.393 54.52L283.529 50.904C281.353 48.76 278.729 47.32 274.345 47.32C267.209 47.32 262.217 52.728 262.217 59.352V59.416C262.217 66.104 267.305 71.384 274.153 71.384ZM294.101 67.96C292.405 67.96 291.189 67.128 291.189 65.688V65.624C291.189 63.992 292.565 63.064 294.805 63.064C296.117 63.064 297.301 63.352 298.197 63.736V64.696C298.197 66.616 296.533 67.96 294.101 67.96ZM292.661 71.352C295.157 71.352 296.885 70.392 298.101 69.016V71H302.805V60.632C302.805 58.264 302.197 56.312 300.885 55C299.605 53.752 297.621 53.016 294.901 53.016C291.925 53.016 289.973 53.592 288.021 54.456L289.237 58.168C290.869 57.56 292.277 57.176 294.197 57.176C296.789 57.176 298.133 58.36 298.133 60.536V60.856C296.853 60.44 295.541 60.152 293.685 60.152C289.461 60.152 286.485 61.944 286.485 65.816V65.88C286.485 69.4 289.301 71.352 292.661 71.352ZM307.51 71H312.374V61.048C312.374 58.584 313.686 57.272 315.702 57.272C317.718 57.272 318.902 58.584 318.902 61.048V71H323.766V59.512C323.766 55.416 321.494 52.888 317.654 52.888C315.062 52.888 313.526 54.264 312.374 55.768V53.208H307.51V71ZM333.263 71.128H337.647L344.719 53.208H339.663L335.471 65.368L331.343 53.208H326.191L333.263 71.128ZM353.663 67.96C351.967 67.96 350.751 67.128 350.751 65.688V65.624C350.751 63.992 352.127 63.064 354.367 63.064C355.679 63.064 356.863 63.352 357.759 63.736V64.696C357.759 66.616 356.095 67.96 353.663 67.96ZM352.223 71.352C354.719 71.352 356.447 70.392 357.663 69.016V71H362.367V60.632C362.367 58.264 361.759 56.312 360.447 55C359.167 53.752 357.183 53.016 354.463 53.016C351.487 53.016 349.535 53.592 347.583 54.456L348.799 58.168C350.431 57.56 351.839 57.176 353.759 57.176C356.351 57.176 357.695 58.36 357.695 60.536V60.856C356.415 60.44 355.103 60.152 353.247 60.152C349.023 60.152 346.047 61.944 346.047 65.816V65.88C346.047 69.4 348.863 71.352 352.223 71.352ZM373.281 71.32C377.121 71.32 380.065 69.528 380.065 65.624V65.56C380.065 62.296 377.153 61.112 374.657 60.312C372.705 59.64 370.945 59.16 370.945 58.104V58.04C370.945 57.272 371.649 56.696 372.929 56.696C374.273 56.696 376.033 57.336 377.793 58.36L379.649 55C377.729 53.72 375.297 52.952 373.057 52.952C369.473 52.952 366.561 54.968 366.561 58.552V58.616C366.561 62.04 369.409 63.192 371.937 63.928C373.921 64.536 375.681 64.92 375.681 66.072V66.136C375.681 67 374.945 67.576 373.409 67.576C371.745 67.576 369.697 66.84 367.777 65.432L365.665 68.664C368.001 70.488 370.785 71.32 373.281 71.32ZM403.091 71.32C408.083 71.32 411.603 68.728 411.603 64.152V64.088C411.603 60.088 408.947 58.36 404.179 57.144C400.083 56.088 399.059 55.544 399.059 53.944V53.88C399.059 52.696 400.147 51.704 402.195 51.704C404.211 51.704 406.259 52.568 408.307 54.04L410.899 50.328C408.531 48.44 405.683 47.384 402.291 47.384C397.555 47.384 394.163 50.168 394.163 54.328V54.392C394.163 58.968 397.139 60.312 401.907 61.496C405.875 62.488 406.707 63.192 406.707 64.568V64.632C406.707 66.072 405.363 67 403.187 67C400.467 67 398.259 65.88 396.147 64.12L393.235 67.608C396.019 70.104 399.539 71.32 403.091 71.32ZM415.95 51.096H421.07V46.744H415.95V51.096ZM416.11 71H420.942V53.208H416.11V71ZM425.433 71H440.921V67.064H431.481L440.921 56.632V53.208H425.753V57.144H434.841L425.433 67.608V71ZM452.925 71.384C456.157 71.384 458.525 70.136 460.189 68.088L457.405 65.624C455.997 66.936 454.749 67.48 452.989 67.48C450.653 67.48 448.989 66.232 448.509 63.8H461.021C461.053 63.352 461.085 62.904 461.085 62.52C461.085 57.464 458.333 52.888 452.445 52.888C447.293 52.888 443.677 57.048 443.677 62.136V62.2C443.677 67.64 447.613 71.384 452.925 71.384ZM448.445 60.76C448.829 58.36 450.269 56.792 452.445 56.792C454.685 56.792 456.029 58.424 456.349 60.76H448.445Z" fill="#137BC2"/>
</svg>
