<svg xmlns="http://www.w3.org/2000/svg" xmlns:xlink="http://www.w3.org/1999/xlink" width="264" height="264" viewBox="0 0 264 264">
  <defs>
    <rect id="canvas-live-area-a" width="168" height="168"/>
  </defs>
  <g fill="none" fill-rule="evenodd">
    <g transform="translate(48 48)">
      <g transform="translate(.25 .25)">
        <mask id="canvas-live-area-b" fill="#fff">
          <use xlink:href="#canvas-live-area-a"/>
        </mask>
        <g mask="url(#canvas-live-area-b)">
          <rect width="168" height="169.05" fill="#FFF"/>
          <g stroke="#000" stroke-width=".5" opacity=".4">
            <g opacity=".2">
              <rect width="7" height="168" x="161"/>
              <rect width="7" height="168" x="154"/>
              <rect width="7" height="168" x="147"/>
              <rect width="7" height="168" x="140"/>
              <rect width="7" height="168" x="133"/>
              <rect width="7" height="168" x="126"/>
              <rect width="7" height="168" x="119"/>
              <rect width="7" height="168" x="112"/>
              <rect width="7" height="168" x="105"/>
              <rect width="7" height="168" x="98"/>
              <rect width="7" height="168" x="91"/>
              <rect width="7" height="168" x="84"/>
              <rect width="7" height="168" x="77"/>
              <rect width="7" height="168" x="70"/>
              <rect width="7" height="168" x="63"/>
              <rect width="7" height="168" x="56"/>
              <rect width="7" height="168" x="49"/>
              <rect width="7" height="168" x="42"/>
              <rect width="7" height="168" x="35"/>
              <rect width="7" height="168" x="28"/>
              <rect width="7" height="168" x="21"/>
              <rect width="7" height="168" x="14"/>
              <rect width="7" height="168" x="7"/>
              <rect width="7" height="168"/>
            </g>
            <g opacity=".2" transform="rotate(90 84 84)">
              <rect width="7" height="168" x="161"/>
              <rect width="7" height="168" x="154"/>
              <rect width="7" height="168" x="147"/>
              <rect width="7" height="168" x="140"/>
              <rect width="7" height="168" x="133"/>
              <rect width="7" height="168" x="126"/>
              <rect width="7" height="168" x="119"/>
              <rect width="7" height="168" x="112"/>
              <rect width="7" height="168" x="105"/>
              <rect width="7" height="168" x="98"/>
              <rect width="7" height="168" x="91"/>
              <rect width="7" height="168" x="84"/>
              <rect width="7" height="168" x="77"/>
              <rect width="7" height="168" x="70"/>
              <rect width="7" height="168" x="63"/>
              <rect width="7" height="168" x="56"/>
              <rect width="7" height="168" x="49"/>
              <rect width="7" height="168" x="42"/>
              <rect width="7" height="168" x="35"/>
              <rect width="7" height="168" x="28"/>
              <rect width="7" height="168" x="21"/>
              <rect width="7" height="168" x="14"/>
              <rect width="7" height="168" x="7"/>
              <rect width="7" height="168"/>
            </g>
          </g>
          <rect width="166" height="166" x="1" y="1" stroke="#AAA" stroke-width="2"/>
        </g>
        <g stroke="#000" mask="url(#canvas-live-area-b)">
          <g stroke-width=".5" opacity=".3">
            <path d="M0,0 L168,168" transform="matrix(-1 0 0 1 168 0)"/>
            <path d="M0,0 L168,168"/>
            <circle cx="84" cy="84" r="35"/>
            <path d="M84 0L84 168.4375M112 0L112 168.4375M0 84L168 84M0 112L168 112M0 56L168 56"/>
          </g>
          <g stroke-width=".5" opacity=".7" transform="translate(14 14)">
            <circle cx="70" cy="70" r="70"/>
            <rect width="140" height="112" y="14" rx="32"/>
            <rect width="112" height="140" x="14" rx="32"/>
            <rect width="126" height="126" x="7" y="7" rx="32" transform="rotate(90 70 70)"/>
          </g>
        </g>
      </g>
      <g fill="#137BC2" transform="translate(14.25 14.25)">
        <rect width="140" height="140" opacity=".3"/>
        <rect width="1" height="14" y="156.8"/>
        <path d="M59.592,181.6 L59.592,180.624 L61.544,179.016 C62.28,178.4 62.568,178.072 62.568,177.584 C62.568,177.072 62.224,176.792 61.752,176.792 C61.288,176.792 60.968,177.056 60.536,177.592 L59.672,176.904 C60.24,176.12 60.792,175.696 61.832,175.696 C63.024,175.696 63.824,176.4 63.824,177.48 L63.824,177.496 C63.824,178.456 63.328,178.944 62.296,179.752 L61.296,180.536 L63.88,180.536 L63.88,181.6 L59.592,181.6 Z M67.44,181.696 C65.888,181.696 64.872,180.392 64.872,178.704 L64.872,178.688 C64.872,177.008 65.912,175.68 67.456,175.68 C68.992,175.68 70.024,176.984 70.024,178.672 L70.024,178.688 C70.024,180.368 68.992,181.696 67.44,181.696 Z M67.456,180.592 C68.256,180.592 68.76,179.776 68.76,178.704 L68.76,178.688 C68.76,177.616 68.232,176.784 67.44,176.784 C66.648,176.784 66.136,177.592 66.136,178.672 L66.136,178.688 C66.136,179.768 66.656,180.592 67.456,180.592 Z M73.44,180.648 C74.048,180.648 74.56,180.16 74.56,179.384 L74.56,179.368 C74.56,178.608 74.048,178.104 73.44,178.104 C72.832,178.104 72.32,178.608 72.32,179.368 L72.32,179.384 C72.32,180.144 72.832,180.648 73.44,180.648 Z M71.12,182.928 L71.12,177.152 L72.336,177.152 L72.336,177.816 C72.648,177.392 73.08,177.072 73.744,177.072 C74.784,177.072 75.776,177.888 75.776,179.368 L75.776,179.384 C75.776,180.864 74.8,181.688 73.744,181.688 C73.064,181.688 72.64,181.368 72.336,181 L72.336,182.928 L71.12,182.928 Z M77.536,177.152 L78.4,178.488 L79.28,177.152 L80.552,177.152 L79.04,179.32 L80.616,181.6 L79.312,181.6 L78.376,180.168 L77.44,181.6 L76.168,181.6 L77.744,179.336 L76.232,177.152 L77.536,177.152 Z"/>
        <rect width="1" height="14" x="139.3" y="156.8"/>
        <rect width="14" height="1" x="156.8" y="139.3"/>
        <rect width="14" height="1" x="156.8"/>
        <path d="M164.04,72.4 L164.04,71.424 L165.992,69.816 C166.728,69.2 167.016,68.872 167.016,68.384 C167.016,67.872 166.672,67.592 166.2,67.592 C165.736,67.592 165.416,67.856 164.984,68.392 L164.12,67.704 C164.688,66.92 165.24,66.496 166.28,66.496 C167.472,66.496 168.272,67.2 168.272,68.28 L168.272,68.296 C168.272,69.256 167.776,69.744 166.744,70.552 L165.744,71.336 L168.328,71.336 L168.328,72.4 L164.04,72.4 Z M171.888,72.496 C170.336,72.496 169.32,71.192 169.32,69.504 L169.32,69.488 C169.32,67.808 170.36,66.48 171.904,66.48 C173.44,66.48 174.472,67.784 174.472,69.472 L174.472,69.488 C174.472,71.168 173.44,72.496 171.888,72.496 Z M171.904,71.392 C172.704,71.392 173.208,70.576 173.208,69.504 L173.208,69.488 C173.208,68.416 172.68,67.584 171.888,67.584 C171.096,67.584 170.584,68.392 170.584,69.472 L170.584,69.488 C170.584,70.568 171.104,71.392 171.904,71.392 Z M177.888,71.448 C178.496,71.448 179.008,70.96 179.008,70.184 L179.008,70.168 C179.008,69.408 178.496,68.904 177.888,68.904 C177.28,68.904 176.768,69.408 176.768,70.168 L176.768,70.184 C176.768,70.944 177.28,71.448 177.888,71.448 Z M175.568,73.728 L175.568,67.952 L176.784,67.952 L176.784,68.616 C177.096,68.192 177.528,67.872 178.192,67.872 C179.232,67.872 180.224,68.688 180.224,70.168 L180.224,70.184 C180.224,71.664 179.248,72.488 178.192,72.488 C177.512,72.488 177.088,72.168 176.784,71.8 L176.784,73.728 L175.568,73.728 Z M181.984,67.952 L182.848,69.288 L183.728,67.952 L185,67.952 L183.488,70.12 L185.064,72.4 L183.76,72.4 L182.824,70.968 L181.888,72.4 L180.616,72.4 L182.192,70.136 L180.68,67.952 L181.984,67.952 Z"/>
      </g>
    </g>
    <path fill="#137BC2" d="M105.174,28 L105.174,19.264 L107.01,19.264 L107.01,26.32 L111.414,26.32 L111.414,28 L105.174,28 Z M112.818,20.536 L112.818,18.904 L114.738,18.904 L114.738,20.536 L112.818,20.536 Z M112.878,28 L112.878,21.328 L114.69,21.328 L114.69,28 L112.878,28 Z M118.662,28.048 L116.01,21.328 L117.942,21.328 L119.49,25.888 L121.062,21.328 L122.958,21.328 L120.306,28.048 L118.662,28.048 Z M126.954,28.144 C124.962,28.144 123.486,26.74 123.486,24.7 L123.486,24.676 C123.486,22.768 124.842,21.208 126.774,21.208 C128.982,21.208 130.014,22.924 130.014,24.82 C130.014,24.964 130.002,25.132 129.99,25.3 L125.298,25.3 C125.478,26.212 126.102,26.68 126.978,26.68 C127.638,26.68 128.106,26.476 128.634,25.984 L129.678,26.908 C129.054,27.676 128.166,28.144 126.954,28.144 Z M125.274,24.16 L128.238,24.16 C128.118,23.284 127.614,22.672 126.774,22.672 C125.958,22.672 125.418,23.26 125.274,24.16 Z M138.186,24.376 L140.646,24.376 L139.422,21.412 L138.186,24.376 Z M134.826,28 L138.594,19.204 L140.298,19.204 L144.054,28 L142.122,28 L141.306,26.008 L137.526,26.008 L136.71,28 L134.826,28 Z M145.338,28 L145.338,21.328 L147.162,21.328 L147.162,22.708 C147.558,21.772 148.206,21.16 149.334,21.208 L149.334,23.116 L149.238,23.116 C147.966,23.116 147.162,23.896 147.162,25.516 L147.162,28 L145.338,28 Z M153.594,28.144 C151.602,28.144 150.126,26.74 150.126,24.7 L150.126,24.676 C150.126,22.768 151.482,21.208 153.414,21.208 C155.622,21.208 156.654,22.924 156.654,24.82 C156.654,24.964 156.642,25.132 156.63,25.3 L151.938,25.3 C152.118,26.212 152.742,26.68 153.618,26.68 C154.278,26.68 154.746,26.476 155.274,25.984 L156.318,26.908 C155.694,27.676 154.806,28.144 153.594,28.144 Z M151.914,24.16 L154.878,24.16 C154.758,23.284 154.254,22.672 153.414,22.672 C152.598,22.672 152.058,23.26 151.914,24.16 Z M160.626,26.86 C161.538,26.86 162.162,26.356 162.162,25.636 L162.162,25.276 C161.826,25.132 161.382,25.024 160.89,25.024 C160.05,25.024 159.534,25.372 159.534,25.984 L159.534,26.008 C159.534,26.548 159.99,26.86 160.626,26.86 Z M160.086,28.132 C158.826,28.132 157.77,27.4 157.77,26.08 L157.77,26.056 C157.77,24.604 158.886,23.932 160.47,23.932 C161.166,23.932 161.658,24.04 162.138,24.196 L162.138,24.076 C162.138,23.26 161.634,22.816 160.662,22.816 C159.942,22.816 159.414,22.96 158.802,23.188 L158.346,21.796 C159.078,21.472 159.81,21.256 160.926,21.256 C161.946,21.256 162.69,21.532 163.17,22 C163.662,22.492 163.89,23.224 163.89,24.112 L163.89,28 L162.126,28 L162.126,27.256 C161.67,27.772 161.022,28.132 160.086,28.132 Z"/>
  </g>
</svg>
