<?xml version="1.0" encoding="UTF-8"?>
<svg width="264px" height="264px" viewBox="0 0 264 264" version="1.1" xmlns="http://www.w3.org/2000/svg" xmlns:xlink="http://www.w3.org/1999/xlink">
    <!-- Generator: Sketch 48 (47235) - http://www.bohemiancoding.com/sketch -->
    <title>Canvas - Padding</title>
    <desc>Created with Sketch.</desc>
    <defs>
        <rect id="path-1" x="0" y="0" width="168" height="168"></rect>
    </defs>
    <g id="Page-1" stroke="none" stroke-width="1" fill="none" fill-rule="evenodd">
        <g id="Canvas---Padding">
            <g id="Group" transform="translate(48.000000, 48.000000)">
                <g id="Icon-Grid---Shape-Keylines---Zoomed" transform="translate(0.250370, 0.250370)">
                    <mask id="mask-2" fill="white">
                        <use xlink:href="#path-1"></use>
                    </mask>
                    <g id="mask"></g>
                    <g id="Icon-Grid---Base---Zoomed" fill-rule="evenodd" stroke-width="1">
                        <g id="Grid">
                            <rect id="Rectangle" fill="#FFFFFF" x="0" y="0" width="168" height="169.05"></rect>
                            <g id="pixels" opacity="0.400000006" stroke="#000000" stroke-width="0.5">
                                <g id="Group" opacity="0.200000003">
                                    <rect id="Rectangle-3" x="161" y="0" width="7" height="168"></rect>
                                    <rect id="Rectangle-3" x="154" y="0" width="7" height="168"></rect>
                                    <rect id="Rectangle-3" x="147" y="0" width="7" height="168"></rect>
                                    <rect id="Rectangle-3" x="140" y="0" width="7" height="168"></rect>
                                    <rect id="Rectangle-3" x="133" y="0" width="7" height="168"></rect>
                                    <rect id="Rectangle-3" x="126" y="0" width="7" height="168"></rect>
                                    <rect id="Rectangle-3" x="119" y="0" width="7" height="168"></rect>
                                    <rect id="Rectangle-3" x="112" y="0" width="7" height="168"></rect>
                                    <rect id="Rectangle-3" x="105" y="0" width="7" height="168"></rect>
                                    <rect id="Rectangle-3" x="98" y="0" width="7" height="168"></rect>
                                    <rect id="Rectangle-3" x="91" y="0" width="7" height="168"></rect>
                                    <rect id="Rectangle-3" x="84" y="0" width="7" height="168"></rect>
                                    <rect id="Rectangle-3" x="77" y="0" width="7" height="168"></rect>
                                    <rect id="Rectangle-3" x="70" y="0" width="7" height="168"></rect>
                                    <rect id="Rectangle-3" x="63" y="0" width="7" height="168"></rect>
                                    <rect id="Rectangle-3" x="56" y="0" width="7" height="168"></rect>
                                    <rect id="Rectangle-3" x="49" y="0" width="7" height="168"></rect>
                                    <rect id="Rectangle-3" x="42" y="0" width="7" height="168"></rect>
                                    <rect id="Rectangle-3" x="35" y="0" width="7" height="168"></rect>
                                    <rect id="Rectangle-3" x="28" y="0" width="7" height="168"></rect>
                                    <rect id="Rectangle-3" x="21" y="0" width="7" height="168"></rect>
                                    <rect id="Rectangle-3" x="14" y="0" width="7" height="168"></rect>
                                    <rect id="Rectangle-3" x="7" y="0" width="7" height="168"></rect>
                                    <rect id="Rectangle-3" x="0" y="0" width="7" height="168"></rect>
                                </g>
                                <g id="Group" opacity="0.200000003" transform="translate(84.000000, 84.000000) rotate(90.000000) translate(-84.000000, -84.000000) ">
                                    <rect id="Rectangle-3" x="161" y="0" width="7" height="168"></rect>
                                    <rect id="Rectangle-3" x="154" y="0" width="7" height="168"></rect>
                                    <rect id="Rectangle-3" x="147" y="0" width="7" height="168"></rect>
                                    <rect id="Rectangle-3" x="140" y="0" width="7" height="168"></rect>
                                    <rect id="Rectangle-3" x="133" y="0" width="7" height="168"></rect>
                                    <rect id="Rectangle-3" x="126" y="0" width="7" height="168"></rect>
                                    <rect id="Rectangle-3" x="119" y="0" width="7" height="168"></rect>
                                    <rect id="Rectangle-3" x="112" y="0" width="7" height="168"></rect>
                                    <rect id="Rectangle-3" x="105" y="0" width="7" height="168"></rect>
                                    <rect id="Rectangle-3" x="98" y="0" width="7" height="168"></rect>
                                    <rect id="Rectangle-3" x="91" y="0" width="7" height="168"></rect>
                                    <rect id="Rectangle-3" x="84" y="0" width="7" height="168"></rect>
                                    <rect id="Rectangle-3" x="77" y="0" width="7" height="168"></rect>
                                    <rect id="Rectangle-3" x="70" y="0" width="7" height="168"></rect>
                                    <rect id="Rectangle-3" x="63" y="0" width="7" height="168"></rect>
                                    <rect id="Rectangle-3" x="56" y="0" width="7" height="168"></rect>
                                    <rect id="Rectangle-3" x="49" y="0" width="7" height="168"></rect>
                                    <rect id="Rectangle-3" x="42" y="0" width="7" height="168"></rect>
                                    <rect id="Rectangle-3" x="35" y="0" width="7" height="168"></rect>
                                    <rect id="Rectangle-3" x="28" y="0" width="7" height="168"></rect>
                                    <rect id="Rectangle-3" x="21" y="0" width="7" height="168"></rect>
                                    <rect id="Rectangle-3" x="14" y="0" width="7" height="168"></rect>
                                    <rect id="Rectangle-3" x="7" y="0" width="7" height="168"></rect>
                                    <rect id="Rectangle-3" x="0" y="0" width="7" height="168"></rect>
                                </g>
                            </g>
                            <rect id="bounds" stroke="#AAAAAA" stroke-width="2" x="1" y="1" width="166" height="166"></rect>
                        </g>
                    </g>
                    <g id="Group" stroke-width="1" fill-rule="evenodd" stroke="#000000">
                        <g id="Grid" opacity="0.300000012" stroke-width="0.5">
                            <path d="M0,0 L168,168" id="diagonal" transform="translate(84.000000, 84.000000) scale(-1, 1) translate(-84.000000, -84.000000) "></path>
                            <path d="M0,0 L168,168" id="diagonal"></path>
                            <circle id="circle" cx="84" cy="84" r="35"></circle>
                            <path d="M84,0 L84,168.4375" id="vertical"></path>
                            <path d="M112,0 L112,168.4375" id="vertical"></path>
                            <path d="M0,84 L168,84" id="horizontal"></path>
                            <path d="M0,112 L168,112" id="horizontal"></path>
                            <path d="M0,56 L168,56" id="horizontal"></path>
                        </g>
                        <g id="Shapes" opacity="0.699999988" transform="translate(14.000000, 14.000000)" stroke-width="0.5">
                            <circle id="circle" cx="70" cy="70" r="70"></circle>
                            <rect id="horizontal-rectangle" x="0" y="14" width="140" height="112" rx="32"></rect>
                            <rect id="vertical-rectangle" x="14" y="0" width="112" height="140" rx="32"></rect>
                            <rect id="square" transform="translate(70.000000, 70.000000) rotate(90.000000) translate(-70.000000, -70.000000) " x="7" y="7" width="126" height="126" rx="32"></rect>
                        </g>
                    </g>
                </g>
            </g>
            <g id="Guides" transform="translate(48.000000, 48.000000)" fill="#137BC2">
                <path d="M14,154 L154,154 L154,14 L14,14 L14,154 Z M14,168 L0,168 L0,0 L14,0 L168,0 L168,14 L168,168 L154,168 L14,168 Z" id="Padding" opacity="0.300000012"></path>
                <rect id="marker" x="154" y="170.8" width="1" height="14"></rect>
                <text id="2px" font-family="GothamSSm-Bold, Gotham SSm" font-size="8" font-weight="bold">
                    <tspan x="153.041" y="195.6">2px</tspan>
                </text>
                <rect id="marker" x="167.3" y="170.8" width="1" height="14"></rect>
                <rect id="marker" x="170.8" y="167.3" width="14" height="1"></rect>
                <rect id="marker" x="170.8" y="154" width="14" height="1"></rect>
                <text id="2px" font-family="GothamSSm-Bold, Gotham SSm" font-size="8" font-weight="bold">
                    <tspan x="187.25" y="163.4">2px</tspan>
                </text>
            </g>
            <text id="Padding" font-family="GothamSSm-Bold, Gotham SSm" font-size="12" font-weight="bold" fill="#137BC2">
                <tspan x="107.898" y="28">Padding</tspan>
            </text>
        </g>
    </g>
</svg>