<svg width="720" height="720" viewBox="0 0 720 720" fill="none" xmlns="http://www.w3.org/2000/svg">
<rect width="480" height="480" transform="translate(120 120)" fill="white"/>
<g opacity="0.4">
<g opacity="0.2">
<rect x="580" y="120" width="20" height="480" stroke="black"/>
<rect x="560" y="120" width="20" height="480" stroke="black"/>
<rect x="540" y="120" width="20" height="480" stroke="black"/>
<rect x="520" y="120" width="20" height="480" stroke="black"/>
<rect x="500" y="120" width="20" height="480" stroke="black"/>
<rect x="480" y="120" width="20" height="480" stroke="black"/>
<rect x="460" y="120" width="20" height="480" stroke="black"/>
<rect x="440" y="120" width="20" height="480" stroke="black"/>
<rect x="420" y="120" width="20" height="480" stroke="black"/>
<rect x="400" y="120" width="20" height="480" stroke="black"/>
<rect x="380" y="120" width="20" height="480" stroke="black"/>
<rect x="360" y="120" width="20" height="480" stroke="black"/>
<rect x="340" y="120" width="20" height="480" stroke="black"/>
<rect x="320" y="120" width="20" height="480" stroke="black"/>
<rect x="300" y="120" width="20" height="480" stroke="black"/>
<rect x="280" y="120" width="20" height="480" stroke="black"/>
<rect x="260" y="120" width="20" height="480" stroke="black"/>
<rect x="240" y="120" width="20" height="480" stroke="black"/>
<rect x="220" y="120" width="20" height="480" stroke="black"/>
<rect x="200" y="120" width="20" height="480" stroke="black"/>
<rect x="180" y="120" width="20" height="480" stroke="black"/>
<rect x="160" y="120" width="20" height="480" stroke="black"/>
<rect x="140" y="120" width="20" height="480" stroke="black"/>
<rect x="120" y="120" width="20" height="480" stroke="black"/>
</g>
<g opacity="0.2">
<rect x="600" y="580" width="20" height="480" transform="rotate(90 600 580)" stroke="black"/>
<rect x="600" y="560" width="20" height="480" transform="rotate(90 600 560)" stroke="black"/>
<rect x="600" y="540" width="20" height="480" transform="rotate(90 600 540)" stroke="black"/>
<rect x="600" y="520" width="20" height="480" transform="rotate(90 600 520)" stroke="black"/>
<rect x="600" y="500" width="20" height="480" transform="rotate(90 600 500)" stroke="black"/>
<rect x="600" y="480" width="20" height="480" transform="rotate(90 600 480)" stroke="black"/>
<rect x="600" y="460" width="20" height="480" transform="rotate(90 600 460)" stroke="black"/>
<rect x="600" y="440" width="20" height="480" transform="rotate(90 600 440)" stroke="black"/>
<rect x="600" y="420" width="20" height="480" transform="rotate(90 600 420)" stroke="black"/>
<rect x="600" y="400" width="20" height="480" transform="rotate(90 600 400)" stroke="black"/>
<rect x="600" y="380" width="20" height="480" transform="rotate(90 600 380)" stroke="black"/>
<rect x="600" y="360" width="20" height="480" transform="rotate(90 600 360)" stroke="black"/>
<rect x="600" y="340" width="20" height="480" transform="rotate(90 600 340)" stroke="black"/>
<rect x="600" y="320" width="20" height="480" transform="rotate(90 600 320)" stroke="black"/>
<rect x="600" y="300" width="20" height="480" transform="rotate(90 600 300)" stroke="black"/>
<rect x="600" y="280" width="20" height="480" transform="rotate(90 600 280)" stroke="black"/>
<rect x="600" y="260" width="20" height="480" transform="rotate(90 600 260)" stroke="black"/>
<rect x="600" y="240" width="20" height="480" transform="rotate(90 600 240)" stroke="black"/>
<rect x="600" y="220" width="20" height="480" transform="rotate(90 600 220)" stroke="black"/>
<rect x="600" y="200" width="20" height="480" transform="rotate(90 600 200)" stroke="black"/>
<rect x="600" y="180" width="20" height="480" transform="rotate(90 600 180)" stroke="black"/>
<rect x="600" y="160" width="20" height="480" transform="rotate(90 600 160)" stroke="black"/>
<rect x="600" y="140" width="20" height="480" transform="rotate(90 600 140)" stroke="black"/>
<rect x="600" y="120" width="20" height="480" transform="rotate(90 600 120)" stroke="black"/>
</g>
</g>
<rect x="121" y="121" width="478" height="478" stroke="#AAAAAA" stroke-width="2"/>
<g opacity="0.4">
<path fill-rule="evenodd" clip-rule="evenodd" d="M160 220C160 208.954 168.954 200 180 200H540C551.046 200 560 208.954 560 220V500C560 511.046 551.046 520 540 520H180C168.954 520 160 511.046 160 500V220ZM491.716 240H228.284L360 371.716L491.716 240ZM200 268.284V480H520V268.284L367.071 421.213C363.166 425.118 356.834 425.118 352.929 421.213L200 268.284Z" fill="black"/>
</g>
<path d="M369 414C369 418.971 364.971 423 360 423C355.029 423 351 418.971 351 414C351 409.029 355.029 405 360 405C364.971 405 369 409.029 369 414Z" fill="#137BC2" fill-opacity="0.3" stroke="#137BC2" stroke-width="2"/>
<rect x="72" y="200" width="108" height="2" fill="#137BC2"/>
<path d="M28.7352 217H32.3832V199.408H29.8632L24.8952 200.896L25.6632 203.92L28.7352 203.152V217ZM43.577 214.144C41.753 214.144 40.217 212.632 40.217 210.352V210.304C40.217 208.024 41.753 206.512 43.577 206.512C45.401 206.512 46.937 208.024 46.937 210.304V210.352C46.937 212.68 45.401 214.144 43.577 214.144ZM36.617 220.984H40.265V215.2C41.177 216.304 42.449 217.264 44.489 217.264C47.657 217.264 50.585 214.792 50.585 210.352V210.304C50.585 205.864 47.609 203.416 44.489 203.416C42.497 203.416 41.201 204.376 40.265 205.648V203.656H36.617V220.984ZM55.8586 203.656H51.9466L56.4826 210.208L51.7546 217H55.5706L58.3786 212.704L61.1866 217H65.0986L60.3706 210.16L64.9066 203.656H61.0906L58.4506 207.664L55.8586 203.656Z" fill="#137BC2"/>
<rect x="104.733" y="119.277" width="2" height="280" transform="rotate(-45 104.733 119.277)" fill="#137BC2"/>
<rect x="77.8628" y="146.147" width="2" height="280" transform="rotate(-45 77.8628 146.147)" fill="#137BC2"/>
<path d="M46.9645 128.87H59.8285V125.678H52.0765L55.0765 123.326C58.1725 120.902 59.6605 119.438 59.6605 116.558V116.51C59.6605 113.27 57.2605 111.158 53.6845 111.158C50.5645 111.158 48.9085 112.43 47.2045 114.782L49.7965 116.846C51.0925 115.238 52.0525 114.446 53.4445 114.446C54.8605 114.446 55.8925 115.286 55.8925 116.822C55.8925 118.286 55.0285 119.27 52.8205 121.118L46.9645 125.942V128.87ZM70.1317 126.014C68.3077 126.014 66.7717 124.502 66.7717 122.222V122.174C66.7717 119.894 68.3077 118.382 70.1317 118.382C71.9557 118.382 73.4917 119.894 73.4917 122.174V122.222C73.4917 124.55 71.9557 126.014 70.1317 126.014ZM63.1717 132.854H66.8197V127.07C67.7317 128.174 69.0037 129.134 71.0437 129.134C74.2117 129.134 77.1397 126.662 77.1397 122.222V122.174C77.1397 117.734 74.1637 115.286 71.0437 115.286C69.0517 115.286 67.7557 116.246 66.8197 117.518V115.526H63.1717V132.854ZM82.4133 115.526H78.5013L83.0373 122.078L78.3093 128.87H82.1253L84.9333 124.574L87.7413 128.87H91.6533L86.9253 122.03L91.4613 115.526H87.6453L85.0053 119.534L82.4133 115.526Z" fill="#137BC2"/>
<rect x="72" y="218" width="108" height="2" fill="#137BC2"/>
<rect x="360" y="200" width="272" height="2" fill="#137BC2"/>
<path d="M641.32 228H654.184V224.808H646.432L649.432 222.456C652.528 220.032 654.016 218.568 654.016 215.688V215.64C654.016 212.4 651.616 210.288 648.04 210.288C644.92 210.288 643.264 211.56 641.56 213.912L644.152 215.976C645.448 214.368 646.408 213.576 647.8 213.576C649.216 213.576 650.248 214.416 650.248 215.952C650.248 217.416 649.384 218.4 647.176 220.248L641.32 225.072V228ZM664.487 225.144C662.663 225.144 661.127 223.632 661.127 221.352V221.304C661.127 219.024 662.663 217.512 664.487 217.512C666.311 217.512 667.847 219.024 667.847 221.304V221.352C667.847 223.68 666.311 225.144 664.487 225.144ZM657.527 231.984H661.175V226.2C662.087 227.304 663.359 228.264 665.399 228.264C668.567 228.264 671.495 225.792 671.495 221.352V221.304C671.495 216.864 668.519 214.416 665.399 214.416C663.407 214.416 662.111 215.376 661.175 216.648V214.656H657.527V231.984ZM676.769 214.656H672.857L677.393 221.208L672.665 228H676.481L679.289 223.704L682.097 228H686.009L681.281 221.16L685.817 214.656H682.001L679.361 218.664L676.769 214.656Z" fill="#137BC2"/>
<path d="M157.465 663H170.329V659.808H162.577L165.577 657.456C168.673 655.032 170.161 653.568 170.161 650.688V650.64C170.161 647.4 167.761 645.288 164.185 645.288C161.065 645.288 159.409 646.56 157.705 648.912L160.297 650.976C161.593 649.368 162.553 648.576 163.945 648.576C165.361 648.576 166.393 649.416 166.393 650.952C166.393 652.416 165.529 653.4 163.321 655.248L157.465 660.072V663ZM180.632 660.144C178.808 660.144 177.272 658.632 177.272 656.352V656.304C177.272 654.024 178.808 652.512 180.632 652.512C182.456 652.512 183.992 654.024 183.992 656.304V656.352C183.992 658.68 182.456 660.144 180.632 660.144ZM173.672 666.984H177.32V661.2C178.232 662.304 179.504 663.264 181.544 663.264C184.712 663.264 187.64 660.792 187.64 656.352V656.304C187.64 651.864 184.664 649.416 181.544 649.416C179.552 649.416 178.256 650.376 177.32 651.648V649.656H173.672V666.984ZM192.913 649.656H189.001L193.537 656.208L188.809 663H192.625L195.433 658.704L198.241 663H202.153L197.425 656.16L201.961 649.656H198.145L195.505 653.664L192.913 649.656Z" fill="#137BC2"/>
<rect x="360" y="238" width="272" height="2" fill="#137BC2"/>
<rect x="198" y="361" width="2" height="271" fill="#137BC2"/>
<rect x="160" y="361" width="2" height="271" fill="#137BC2"/>
<rect x="360" y="404" width="272" height="2" fill="#137BC2"/>
<path d="M649.168 423.288C653.824 423.288 656.92 419.304 656.92 414.264V414.216C656.92 409.152 653.824 405.24 649.216 405.24C644.584 405.24 641.464 409.224 641.464 414.264V414.312C641.464 419.376 644.512 423.288 649.168 423.288ZM649.216 419.976C646.816 419.976 645.256 417.504 645.256 414.264V414.216C645.256 410.976 646.792 408.552 649.168 408.552C651.544 408.552 653.128 411.048 653.128 414.264V414.312C653.128 417.528 651.616 419.976 649.216 419.976ZM659.539 423H663.427V419.112H659.539V423ZM672.806 423.288C676.79 423.288 679.406 420.96 679.406 417.288V417.24C679.406 413.352 676.694 411.672 673.31 411.672C672.302 411.672 671.63 411.816 670.91 412.008L671.126 408.768H678.638V405.528H667.958L667.454 414.12L669.614 415.56C670.454 415.2 671.462 414.888 672.59 414.888C674.486 414.888 675.782 415.8 675.782 417.36V417.408C675.782 419.016 674.606 419.952 672.758 419.952C671.198 419.952 669.878 419.232 668.534 418.008L666.302 420.672C667.982 422.28 670.046 423.288 672.806 423.288ZM689.776 420.144C687.952 420.144 686.416 418.632 686.416 416.352V416.304C686.416 414.024 687.952 412.512 689.776 412.512C691.6 412.512 693.136 414.024 693.136 416.304V416.352C693.136 418.68 691.6 420.144 689.776 420.144ZM682.816 426.984H686.464V421.2C687.376 422.304 688.648 423.264 690.688 423.264C693.856 423.264 696.784 420.792 696.784 416.352V416.304C696.784 411.864 693.808 409.416 690.688 409.416C688.696 409.416 687.4 410.376 686.464 411.648V409.656H682.816V426.984ZM702.058 409.656H698.146L702.682 416.208L697.954 423H701.77L704.578 418.704L707.386 423H711.298L706.57 416.16L711.106 409.656H707.29L704.65 413.664L702.058 409.656Z" fill="#137BC2"/>
<rect x="360" y="422" width="272" height="2" fill="#137BC2"/>
<path d="M161.026 219C161.529 209.303 169.303 201.529 179 201.026V219H161.026Z" fill="#137BC2" fill-opacity="0.3" stroke="#137BC2" stroke-width="2"/>
</svg>
