<?xml version="1.0" encoding="UTF-8"?>
<svg width="264px" height="264px" viewBox="0 0 264 264" version="1.1" xmlns="http://www.w3.org/2000/svg" xmlns:xlink="http://www.w3.org/1999/xlink">
    <!-- Generator: Sketch 48 (47235) - http://www.bohemiancoding.com/sketch -->
    <title>Example 7</title>
    <desc>Created with Sketch.</desc>
    <defs>
        <circle id="path-1" cx="79.35" cy="93.8" r="3.5"></circle>
        <circle id="path-2" cx="84.25" cy="88.9" r="3.5"></circle>
        <circle id="path-3" cx="3.5" cy="8.4" r="3.5"></circle>
        <circle id="path-4" cx="8.4" cy="3.5" r="3.5"></circle>
        <circle id="path-5" cx="3.5" cy="8.4" r="3.5"></circle>
        <circle id="path-6" cx="8.4" cy="3.5" r="3.5"></circle>
        <circle id="path-7" cx="3.5" cy="8.4" r="3.5"></circle>
        <circle id="path-8" cx="8.4" cy="3.5" r="3.5"></circle>
    </defs>
    <g id="Page-1" stroke="none" stroke-width="1" fill="none" fill-rule="evenodd">
        <g id="Example-7">
            <g id="Group-3" transform="translate(28.000000, 18.000000)">
                <g id="Icon-Grid---Base---Zoomed" transform="translate(20.000000, 30.000000)">
                    <g id="Grid">
                        <rect id="Rectangle" fill="#FFFFFF" x="0" y="0" width="168" height="169.05"></rect>
                        <g id="pixels" opacity="0.400000006" stroke="#000000" stroke-width="0.5">
                            <g id="Group" opacity="0.200000003">
                                <rect id="Rectangle-3" x="161" y="0" width="7" height="168"></rect>
                                <rect id="Rectangle-3" x="154" y="0" width="7" height="168"></rect>
                                <rect id="Rectangle-3" x="147" y="0" width="7" height="168"></rect>
                                <rect id="Rectangle-3" x="140" y="0" width="7" height="168"></rect>
                                <rect id="Rectangle-3" x="133" y="0" width="7" height="168"></rect>
                                <rect id="Rectangle-3" x="126" y="0" width="7" height="168"></rect>
                                <rect id="Rectangle-3" x="119" y="0" width="7" height="168"></rect>
                                <rect id="Rectangle-3" x="112" y="0" width="7" height="168"></rect>
                                <rect id="Rectangle-3" x="105" y="0" width="7" height="168"></rect>
                                <rect id="Rectangle-3" x="98" y="0" width="7" height="168"></rect>
                                <rect id="Rectangle-3" x="91" y="0" width="7" height="168"></rect>
                                <rect id="Rectangle-3" x="84" y="0" width="7" height="168"></rect>
                                <rect id="Rectangle-3" x="77" y="0" width="7" height="168"></rect>
                                <rect id="Rectangle-3" x="70" y="0" width="7" height="168"></rect>
                                <rect id="Rectangle-3" x="63" y="0" width="7" height="168"></rect>
                                <rect id="Rectangle-3" x="56" y="0" width="7" height="168"></rect>
                                <rect id="Rectangle-3" x="49" y="0" width="7" height="168"></rect>
                                <rect id="Rectangle-3" x="42" y="0" width="7" height="168"></rect>
                                <rect id="Rectangle-3" x="35" y="0" width="7" height="168"></rect>
                                <rect id="Rectangle-3" x="28" y="0" width="7" height="168"></rect>
                                <rect id="Rectangle-3" x="21" y="0" width="7" height="168"></rect>
                                <rect id="Rectangle-3" x="14" y="0" width="7" height="168"></rect>
                                <rect id="Rectangle-3" x="7" y="0" width="7" height="168"></rect>
                                <rect id="Rectangle-3" x="0" y="0" width="7" height="168"></rect>
                            </g>
                            <g id="Group" opacity="0.200000003" transform="translate(84.000000, 84.000000) rotate(90.000000) translate(-84.000000, -84.000000) ">
                                <rect id="Rectangle-3" x="161" y="0" width="7" height="168"></rect>
                                <rect id="Rectangle-3" x="154" y="0" width="7" height="168"></rect>
                                <rect id="Rectangle-3" x="147" y="0" width="7" height="168"></rect>
                                <rect id="Rectangle-3" x="140" y="0" width="7" height="168"></rect>
                                <rect id="Rectangle-3" x="133" y="0" width="7" height="168"></rect>
                                <rect id="Rectangle-3" x="126" y="0" width="7" height="168"></rect>
                                <rect id="Rectangle-3" x="119" y="0" width="7" height="168"></rect>
                                <rect id="Rectangle-3" x="112" y="0" width="7" height="168"></rect>
                                <rect id="Rectangle-3" x="105" y="0" width="7" height="168"></rect>
                                <rect id="Rectangle-3" x="98" y="0" width="7" height="168"></rect>
                                <rect id="Rectangle-3" x="91" y="0" width="7" height="168"></rect>
                                <rect id="Rectangle-3" x="84" y="0" width="7" height="168"></rect>
                                <rect id="Rectangle-3" x="77" y="0" width="7" height="168"></rect>
                                <rect id="Rectangle-3" x="70" y="0" width="7" height="168"></rect>
                                <rect id="Rectangle-3" x="63" y="0" width="7" height="168"></rect>
                                <rect id="Rectangle-3" x="56" y="0" width="7" height="168"></rect>
                                <rect id="Rectangle-3" x="49" y="0" width="7" height="168"></rect>
                                <rect id="Rectangle-3" x="42" y="0" width="7" height="168"></rect>
                                <rect id="Rectangle-3" x="35" y="0" width="7" height="168"></rect>
                                <rect id="Rectangle-3" x="28" y="0" width="7" height="168"></rect>
                                <rect id="Rectangle-3" x="21" y="0" width="7" height="168"></rect>
                                <rect id="Rectangle-3" x="14" y="0" width="7" height="168"></rect>
                                <rect id="Rectangle-3" x="7" y="0" width="7" height="168"></rect>
                                <rect id="Rectangle-3" x="0" y="0" width="7" height="168"></rect>
                            </g>
                        </g>
                        <rect id="bounds" stroke="#AAAAAA" stroke-width="2" x="1" y="1" width="166" height="166"></rect>
                    </g>
                </g>
                <g id="Icons/x-circle" opacity="0.400000006" transform="translate(20.200000, 29.750000)">
                    <rect id="bounds" x="0" y="0" width="168" height="168"></rect>
                    <path d="M84,14 C122.64,14 154,45.36 154,84 C154,122.64 122.64,154 84,154 C45.36,154 14,122.64 14,84 C14,45.36 45.36,14 84,14 Z M84,140 C114.87,140 140,114.87 140,84 C140,53.13 114.87,28 84,28 C53.13,28 28,53.13 28,84 C28,114.87 53.13,140 84,140 Z M93.8994949,84 L111.223611,101.324116 C112.590446,102.690951 112.590446,104.907029 111.223611,106.273864 L106.273864,111.223611 C104.907029,112.590446 102.690951,112.590446 101.324116,111.223611 L84,93.8994949 L66.6758839,111.223611 C65.3090488,112.590446 63.0929714,112.590446 61.7261364,111.223611 L56.7763889,106.273864 C55.4095539,104.907029 55.4095539,102.690951 56.7763889,101.324116 L74.1005051,84 L56.7763889,66.6758839 C55.4095539,65.3090488 55.4095539,63.0929714 56.7763889,61.7261364 L61.7261364,56.7763889 C63.0929714,55.4095539 65.3090488,55.4095539 66.6758839,56.7763889 L84,74.1005051 L101.324116,56.7763889 C102.690951,55.4095539 104.907029,55.4095539 106.273864,56.7763889 L111.223611,61.7261364 C112.590446,63.0929714 112.590446,65.3090488 111.223611,66.6758839 L93.8994949,84 Z" id="x-circle" fill="#000000" fill-rule="nonzero"></path>
                </g>
                <g id="Guides">
                    <g id="Group-2" transform="translate(-0.000000, 0.000000)">
                        <g id="Group" transform="translate(-0.000000, 0.000000)">
                            <g id="guide" transform="translate(79.350000, 93.800000) scale(-1, -1) translate(-79.350000, -93.800000) ">
                                <use fill-opacity="0.3" fill="#137BC2" fill-rule="evenodd" xlink:href="#path-1"></use>
                                <circle stroke="#137BC2" stroke-width="0.7" cx="79.35" cy="93.8" r="3.15"></circle>
                            </g>
                            <g id="guide" transform="translate(84.250000, 88.900000) scale(-1, -1) translate(-84.250000, -88.900000) ">
                                <use fill-opacity="0.3" fill="#137BC2" fill-rule="evenodd" xlink:href="#path-2"></use>
                                <circle stroke="#137BC2" stroke-width="0.7" cx="84.25" cy="88.9" r="3.15"></circle>
                            </g>
                            <g transform="translate(57.424110, 66.974110) rotate(-45.000000) translate(-57.424110, -66.974110) translate(50.424110, 7.649110)" fill="#137BC2" id="marker">
                                <rect x="13.3" y="0" width="1" height="118.543952"></rect>
                                <rect x="0" y="0" width="1" height="118.543952"></rect>
                            </g>
                            <text id="2px" font-family="GothamSSm-Bold, Gotham SSm" font-size="8" font-weight="bold" fill="#137BC2">
                                <tspan x="0.866" y="24.7545202">2px</tspan>
                            </text>
                            <text id="2px" font-family="GothamSSm-Bold, Gotham SSm" font-size="8" font-weight="bold" fill="#137BC2">
                                <tspan x="159.35" y="8">2px</tspan>
                            </text>
                            <rect id="marker" fill="#137BC2" x="127.9" y="130.2" width="75.95" height="1"></rect>
                            <text id="0.5px" font-family="GothamSSm-Bold, Gotham SSm" font-size="8" font-weight="bold" fill="#137BC2">
                                <tspan x="206.65" y="136.45">0.5px</tspan>
                            </text>
                            <rect id="marker" fill="#137BC2" x="127.9" y="136.5" width="75.95" height="1"></rect>
                            <rect id="marker" fill="#137BC2" x="173.35" y="12.95" width="1" height="100.8"></rect>
                            <rect id="marker" fill="#137BC2" x="160.05" y="12.95" width="1" height="100.8"></rect>
                        </g>
                        <g id="Group" transform="translate(126.450000, 91.350000) scale(-1, 1) translate(-126.450000, -91.350000) translate(120.500000, 85.400000)">
                            <g id="guide" transform="translate(3.500000, 8.400000) scale(-1, -1) translate(-3.500000, -8.400000) ">
                                <use fill-opacity="0.3" fill="#137BC2" fill-rule="evenodd" xlink:href="#path-3"></use>
                                <circle stroke="#137BC2" stroke-width="0.7" cx="3.5" cy="8.4" r="3.15"></circle>
                            </g>
                            <g id="guide" transform="translate(8.400000, 3.500000) scale(-1, -1) translate(-8.400000, -3.500000) ">
                                <use fill-opacity="0.3" fill="#137BC2" fill-rule="evenodd" xlink:href="#path-4"></use>
                                <circle stroke="#137BC2" stroke-width="0.7" cx="8.4" cy="3.5" r="3.15"></circle>
                            </g>
                        </g>
                    </g>
                    <g id="Group-2" transform="translate(104.050000, 136.150000) scale(1, -1) translate(-104.050000, -136.150000) translate(75.700000, 130.200000)">
                        <g id="Group">
                            <g id="guide" transform="translate(3.500000, 8.400000) scale(-1, -1) translate(-3.500000, -8.400000) ">
                                <use fill-opacity="0.3" fill="#137BC2" fill-rule="evenodd" xlink:href="#path-5"></use>
                                <circle stroke="#137BC2" stroke-width="0.7" cx="3.5" cy="8.4" r="3.15"></circle>
                            </g>
                            <g id="guide" transform="translate(8.400000, 3.500000) scale(-1, -1) translate(-8.400000, -3.500000) ">
                                <use fill-opacity="0.3" fill="#137BC2" fill-rule="evenodd" xlink:href="#path-6"></use>
                                <circle stroke="#137BC2" stroke-width="0.7" cx="8.4" cy="3.5" r="3.15"></circle>
                            </g>
                        </g>
                        <g id="Group" transform="translate(50.750000, 5.950000) scale(-1, 1) translate(-50.750000, -5.950000) translate(44.800000, 0.000000)">
                            <g id="guide" transform="translate(3.500000, 8.400000) scale(-1, -1) translate(-3.500000, -8.400000) ">
                                <use fill-opacity="0.3" fill="#137BC2" fill-rule="evenodd" xlink:href="#path-7"></use>
                                <circle stroke="#137BC2" stroke-width="0.7" cx="3.5" cy="8.4" r="3.15"></circle>
                            </g>
                            <g id="guide" transform="translate(8.400000, 3.500000) scale(-1, -1) translate(-8.400000, -3.500000) ">
                                <use fill-opacity="0.3" fill="#137BC2" fill-rule="evenodd" xlink:href="#path-8"></use>
                                <circle stroke="#137BC2" stroke-width="0.7" cx="8.4" cy="3.5" r="3.15"></circle>
                            </g>
                        </g>
                    </g>
                </g>
            </g>
        </g>
    </g>
</svg>