<svg xmlns="http://www.w3.org/2000/svg" xmlns:xlink="http://www.w3.org/1999/xlink" width="264" height="264" viewBox="0 0 264 264">
  <defs>
    <circle id="example-3-a" cx="73.5" cy="5.5" r="3.5"/>
    <circle id="example-3-b" cx="3.5" cy="5.5" r="3.5"/>
    <path id="example-3-c" d="M147,100 L147,93 C143.134007,93 140,96.1340068 140,100 L147,100 Z"/>
  </defs>
  <g fill="none" fill-rule="evenodd" transform="translate(48 18)">
    <g transform="translate(0 30)">
      <rect width="168" height="169.05" fill="#FFF"/>
      <g stroke="#000" stroke-width=".5" opacity=".4">
        <g opacity=".2">
          <rect width="7" height="168" x="161"/>
          <rect width="7" height="168" x="154"/>
          <rect width="7" height="168" x="147"/>
          <rect width="7" height="168" x="140"/>
          <rect width="7" height="168" x="133"/>
          <rect width="7" height="168" x="126"/>
          <rect width="7" height="168" x="119"/>
          <rect width="7" height="168" x="112"/>
          <rect width="7" height="168" x="105"/>
          <rect width="7" height="168" x="98"/>
          <rect width="7" height="168" x="91"/>
          <rect width="7" height="168" x="84"/>
          <rect width="7" height="168" x="77"/>
          <rect width="7" height="168" x="70"/>
          <rect width="7" height="168" x="63"/>
          <rect width="7" height="168" x="56"/>
          <rect width="7" height="168" x="49"/>
          <rect width="7" height="168" x="42"/>
          <rect width="7" height="168" x="35"/>
          <rect width="7" height="168" x="28"/>
          <rect width="7" height="168" x="21"/>
          <rect width="7" height="168" x="14"/>
          <rect width="7" height="168" x="7"/>
          <rect width="7" height="168"/>
        </g>
        <g opacity=".2" transform="rotate(90 84 84)">
          <rect width="7" height="168" x="161"/>
          <rect width="7" height="168" x="154"/>
          <rect width="7" height="168" x="147"/>
          <rect width="7" height="168" x="140"/>
          <rect width="7" height="168" x="133"/>
          <rect width="7" height="168" x="126"/>
          <rect width="7" height="168" x="119"/>
          <rect width="7" height="168" x="112"/>
          <rect width="7" height="168" x="105"/>
          <rect width="7" height="168" x="98"/>
          <rect width="7" height="168" x="91"/>
          <rect width="7" height="168" x="84"/>
          <rect width="7" height="168" x="77"/>
          <rect width="7" height="168" x="70"/>
          <rect width="7" height="168" x="63"/>
          <rect width="7" height="168" x="56"/>
          <rect width="7" height="168" x="49"/>
          <rect width="7" height="168" x="42"/>
          <rect width="7" height="168" x="35"/>
          <rect width="7" height="168" x="28"/>
          <rect width="7" height="168" x="21"/>
          <rect width="7" height="168" x="14"/>
          <rect width="7" height="168" x="7"/>
          <rect width="7" height="168"/>
        </g>
      </g>
      <rect width="166" height="166" x="1" y="1" stroke="#AAA" stroke-width="2"/>
    </g>
    <g opacity=".4" transform="translate(0 30)">
      <rect width="168" height="168"/>
      <path fill="#000" fill-rule="nonzero" d="M122.50871,14 L63,14 C47.558,14 35,26.6504762 35,42.1904762 L35,152.957043 C35,154.89004 36.5670034,156.457043 38.5,156.457043 C39.4851858,156.457043 40.4247504,156.041833 41.0880092,155.313355 L73.5,119.714286 L105.911991,155.313355 C107.213346,156.742673 109.426994,156.846408 110.856312,155.545052 C111.58479,154.881793 112,153.942229 112,152.957043 L112,70.3809524 L140,70.3809524 C143.864,70.3809524 147,67.2306667 147,63.3333333 L147,42.1904762 C147,26.6504762 137.95771,14 122.50871,14 Z M98.2303609,42 L98.2303609,126 L73.6151805,98 L49,126 L49,42 C49,34.272 55.3085191,28 63.0658174,28 L102,28 C99.608811,32.123 98.2303609,36.904 98.2303609,42 Z M133,56 L112,56 L112,42 C112,34.272 114.78771,28 122.50871,28 C130.22271,28 133,34.272 133,42 L133,56 Z"/>
    </g>
    <g transform="translate(35 178)">
      <use fill="#137BC2" fill-opacity=".3" xlink:href="#example-3-a"/>
      <circle cx="73.5" cy="5.5" r="3" stroke="#137BC2"/>
      <use fill="#137BC2" fill-opacity=".3" xlink:href="#example-3-b"/>
      <circle cx="3.5" cy="5.5" r="3" stroke="#137BC2"/>
      <rect width="76" height="1" x="74" y="2" fill="#137BC2"/>
      <path fill="#137BC2" d="M156.056,8.096 C154.504,8.096 153.488,6.792 153.488,5.104 L153.488,5.088 C153.488,3.408 154.528,2.08 156.072,2.08 C157.608,2.08 158.64,3.384 158.64,5.072 L158.64,5.088 C158.64,6.768 157.608,8.096 156.056,8.096 Z M156.072,6.992 C156.872,6.992 157.376,6.176 157.376,5.104 L157.376,5.088 C157.376,4.016 156.848,3.184 156.056,3.184 C155.264,3.184 154.752,3.992 154.752,5.072 L154.752,5.088 C154.752,6.168 155.272,6.992 156.072,6.992 Z M159.52,8 L159.52,6.704 L160.816,6.704 L160.816,8 L159.52,8 Z M163.944,8.096 C163.024,8.096 162.336,7.76 161.776,7.224 L162.52,6.336 C162.968,6.744 163.408,6.984 163.928,6.984 C164.544,6.984 164.936,6.672 164.936,6.136 L164.936,6.12 C164.936,5.6 164.504,5.296 163.872,5.296 C163.496,5.296 163.16,5.4 162.88,5.52 L162.16,5.04 L162.328,2.176 L165.888,2.176 L165.888,3.256 L163.384,3.256 L163.312,4.336 C163.552,4.272 163.776,4.224 164.112,4.224 C165.24,4.224 166.144,4.784 166.144,6.08 L166.144,6.096 C166.144,7.32 165.272,8.096 163.944,8.096 Z M169.6,7.048 C170.208,7.048 170.72,6.56 170.72,5.784 L170.72,5.768 C170.72,5.008 170.208,4.504 169.6,4.504 C168.992,4.504 168.48,5.008 168.48,5.768 L168.48,5.784 C168.48,6.544 168.992,7.048 169.6,7.048 Z M167.28,9.328 L167.28,3.552 L168.496,3.552 L168.496,4.216 C168.808,3.792 169.24,3.472 169.904,3.472 C170.944,3.472 171.936,4.288 171.936,5.768 L171.936,5.784 C171.936,7.264 170.96,8.088 169.904,8.088 C169.224,8.088 168.8,7.768 168.496,7.4 L168.496,9.328 L167.28,9.328 Z M173.696,3.552 L174.56,4.888 L175.44,3.552 L176.712,3.552 L175.2,5.72 L176.776,8 L175.472,8 L174.536,6.568 L173.6,8 L172.328,8 L173.904,5.736 L172.392,3.552 L173.696,3.552 Z"/>
      <rect width="76" height="1" x="74" y="8" fill="#137BC2"/>
    </g>
    <g transform="rotate(180 143.5 96.5)">
      <use fill="#137BC2" fill-opacity=".3" xlink:href="#example-3-c"/>
      <path stroke="#137BC2" d="M146.5,99.5 L146.5,93.5189448 C143.308797,93.7617039 140.761704,96.308797 140.518945,99.5 L146.5,99.5 Z"/>
    </g>
    <rect width="45" height="1" x="140" y="93" fill="#137BC2"/>
    <path fill="#137BC2" d="M189.512 99L189.512 94.384 188.488 94.64 188.232 93.632 189.888 93.136 190.728 93.136 190.728 99 189.512 99zM194.456 98.048C195.064 98.048 195.576 97.56 195.576 96.784L195.576 96.768C195.576 96.008 195.064 95.504 194.456 95.504 193.848 95.504 193.336 96.008 193.336 96.768L193.336 96.784C193.336 97.544 193.848 98.048 194.456 98.048zM192.136 100.328L192.136 94.552 193.352 94.552 193.352 95.216C193.664 94.792 194.096 94.472 194.76 94.472 195.8 94.472 196.792 95.288 196.792 96.768L196.792 96.784C196.792 98.264 195.816 99.088 194.76 99.088 194.08 99.088 193.656 98.768 193.352 98.4L193.352 100.328 192.136 100.328zM198.552 94.552L199.416 95.888 200.296 94.552 201.568 94.552 200.056 96.72 201.632 99 200.328 99 199.392 97.568 198.456 99 197.184 99 198.76 96.736 197.248 94.552 198.552 94.552zM34.156 8L34.156 7.024 36.108 5.416C36.844 4.8 37.132 4.472 37.132 3.984 37.132 3.472 36.788 3.192 36.316 3.192 35.852 3.192 35.532 3.456 35.1 3.992L34.236 3.304C34.804 2.52 35.356 2.096 36.396 2.096 37.588 2.096 38.388 2.8 38.388 3.88L38.388 3.896C38.388 4.856 37.892 5.344 36.86 6.152L35.86 6.936 38.444 6.936 38.444 8 34.156 8zM41.876 7.048C42.484 7.048 42.996 6.56 42.996 5.784L42.996 5.768C42.996 5.008 42.484 4.504 41.876 4.504 41.268 4.504 40.756 5.008 40.756 5.768L40.756 5.784C40.756 6.544 41.268 7.048 41.876 7.048zM39.556 9.328L39.556 3.552 40.772 3.552 40.772 4.216C41.084 3.792 41.516 3.472 42.18 3.472 43.22 3.472 44.212 4.288 44.212 5.768L44.212 5.784C44.212 7.264 43.236 8.088 42.18 8.088 41.5 8.088 41.076 7.768 40.772 7.4L40.772 9.328 39.556 9.328zM45.972 3.552L46.836 4.888 47.716 3.552 48.988 3.552 47.476 5.72 49.052 8 47.748 8 46.812 6.568 45.876 8 44.604 8 46.18 5.736 44.668 3.552 45.972 3.552z"/>
    <rect width="1" height="101" x="48" y="13" fill="#137BC2"/>
    <rect width="1" height="101" x="35" y="13" fill="#137BC2"/>
    <rect width="101" height="1" x="84" y="44" fill="#137BC2"/>
    <path fill="#137BC2" d="M188.44,54 L188.44,53.024 L190.392,51.416 C191.128,50.8 191.416,50.472 191.416,49.984 C191.416,49.472 191.072,49.192 190.6,49.192 C190.136,49.192 189.816,49.456 189.384,49.992 L188.52,49.304 C189.088,48.52 189.64,48.096 190.68,48.096 C191.872,48.096 192.672,48.8 192.672,49.88 L192.672,49.896 C192.672,50.856 192.176,51.344 191.144,52.152 L190.144,52.936 L192.728,52.936 L192.728,54 L188.44,54 Z M196.16,53.048 C196.768,53.048 197.28,52.56 197.28,51.784 L197.28,51.768 C197.28,51.008 196.768,50.504 196.16,50.504 C195.552,50.504 195.04,51.008 195.04,51.768 L195.04,51.784 C195.04,52.544 195.552,53.048 196.16,53.048 Z M193.84,55.328 L193.84,49.552 L195.056,49.552 L195.056,50.216 C195.368,49.792 195.8,49.472 196.464,49.472 C197.504,49.472 198.496,50.288 198.496,51.768 L198.496,51.784 C198.496,53.264 197.52,54.088 196.464,54.088 C195.784,54.088 195.36,53.768 195.056,53.4 L195.056,55.328 L193.84,55.328 Z M200.256,49.552 L201.12,50.888 L202,49.552 L203.272,49.552 L201.76,51.72 L203.336,54 L202.032,54 L201.096,52.568 L200.16,54 L198.888,54 L200.464,51.736 L198.952,49.552 L200.256,49.552 Z"/>
    <rect width="101" height="1" x="84" y="57" fill="#137BC2"/>
    <rect width="45" height="1" x="140" y="99" fill="#137BC2"/>
  </g>
</svg>
