<svg width="720" height="720" viewBox="0 0 720 720" fill="none" xmlns="http://www.w3.org/2000/svg">
<rect width="480" height="480" transform="translate(120 120)" fill="white"/>
<g opacity="0.4">
<g opacity="0.2">
<rect x="580" y="120" width="20" height="480" stroke="black"/>
<rect x="560" y="120" width="20" height="480" stroke="black"/>
<rect x="540" y="120" width="20" height="480" stroke="black"/>
<rect x="520" y="120" width="20" height="480" stroke="black"/>
<rect x="500" y="120" width="20" height="480" stroke="black"/>
<rect x="480" y="120" width="20" height="480" stroke="black"/>
<rect x="460" y="120" width="20" height="480" stroke="black"/>
<rect x="440" y="120" width="20" height="480" stroke="black"/>
<rect x="420" y="120" width="20" height="480" stroke="black"/>
<rect x="400" y="120" width="20" height="480" stroke="black"/>
<rect x="380" y="120" width="20" height="480" stroke="black"/>
<rect x="360" y="120" width="20" height="480" stroke="black"/>
<rect x="340" y="120" width="20" height="480" stroke="black"/>
<rect x="320" y="120" width="20" height="480" stroke="black"/>
<rect x="300" y="120" width="20" height="480" stroke="black"/>
<rect x="280" y="120" width="20" height="480" stroke="black"/>
<rect x="260" y="120" width="20" height="480" stroke="black"/>
<rect x="240" y="120" width="20" height="480" stroke="black"/>
<rect x="220" y="120" width="20" height="480" stroke="black"/>
<rect x="200" y="120" width="20" height="480" stroke="black"/>
<rect x="180" y="120" width="20" height="480" stroke="black"/>
<rect x="160" y="120" width="20" height="480" stroke="black"/>
<rect x="140" y="120" width="20" height="480" stroke="black"/>
<rect x="120" y="120" width="20" height="480" stroke="black"/>
</g>
<g opacity="0.2">
<rect x="600" y="580" width="20" height="480" transform="rotate(90 600 580)" stroke="black"/>
<rect x="600" y="560" width="20" height="480" transform="rotate(90 600 560)" stroke="black"/>
<rect x="600" y="540" width="20" height="480" transform="rotate(90 600 540)" stroke="black"/>
<rect x="600" y="520" width="20" height="480" transform="rotate(90 600 520)" stroke="black"/>
<rect x="600" y="500" width="20" height="480" transform="rotate(90 600 500)" stroke="black"/>
<rect x="600" y="480" width="20" height="480" transform="rotate(90 600 480)" stroke="black"/>
<rect x="600" y="460" width="20" height="480" transform="rotate(90 600 460)" stroke="black"/>
<rect x="600" y="440" width="20" height="480" transform="rotate(90 600 440)" stroke="black"/>
<rect x="600" y="420" width="20" height="480" transform="rotate(90 600 420)" stroke="black"/>
<rect x="600" y="400" width="20" height="480" transform="rotate(90 600 400)" stroke="black"/>
<rect x="600" y="380" width="20" height="480" transform="rotate(90 600 380)" stroke="black"/>
<rect x="600" y="360" width="20" height="480" transform="rotate(90 600 360)" stroke="black"/>
<rect x="600" y="340" width="20" height="480" transform="rotate(90 600 340)" stroke="black"/>
<rect x="600" y="320" width="20" height="480" transform="rotate(90 600 320)" stroke="black"/>
<rect x="600" y="300" width="20" height="480" transform="rotate(90 600 300)" stroke="black"/>
<rect x="600" y="280" width="20" height="480" transform="rotate(90 600 280)" stroke="black"/>
<rect x="600" y="260" width="20" height="480" transform="rotate(90 600 260)" stroke="black"/>
<rect x="600" y="240" width="20" height="480" transform="rotate(90 600 240)" stroke="black"/>
<rect x="600" y="220" width="20" height="480" transform="rotate(90 600 220)" stroke="black"/>
<rect x="600" y="200" width="20" height="480" transform="rotate(90 600 200)" stroke="black"/>
<rect x="600" y="180" width="20" height="480" transform="rotate(90 600 180)" stroke="black"/>
<rect x="600" y="160" width="20" height="480" transform="rotate(90 600 160)" stroke="black"/>
<rect x="600" y="140" width="20" height="480" transform="rotate(90 600 140)" stroke="black"/>
<rect x="600" y="120" width="20" height="480" transform="rotate(90 600 120)" stroke="black"/>
</g>
</g>
<rect x="121" y="121" width="478" height="478" stroke="#AAAAAA" stroke-width="2"/>
<mask id="mask0" mask-type="alpha" maskUnits="userSpaceOnUse" x="120" y="120" width="480" height="480">
<rect x="120" y="120" width="480" height="480" fill="white"/>
</mask>
<g mask="url(#mask0)">
<g opacity="0.3">
<path d="M600 120L120 600" stroke="black" stroke-width="3"/>
<path d="M120 120L600 600" stroke="black" stroke-width="3"/>
<path fill-rule="evenodd" clip-rule="evenodd" d="M360 460C415.228 460 460 415.228 460 360C460 304.772 415.228 260 360 260C304.772 260 260 304.772 260 360C260 415.228 304.772 460 360 460Z" stroke="black" stroke-width="3"/>
<path d="M360 120V600" stroke="black" stroke-width="3"/>
<path d="M280 120V600" stroke="black" stroke-width="3"/>
<path d="M440 120V600" stroke="black" stroke-width="3"/>
<path d="M120 360H600" stroke="black" stroke-width="3"/>
<path d="M120 440H600" stroke="black" stroke-width="3"/>
<path d="M120 280H600" stroke="black" stroke-width="3"/>
</g>
<g opacity="0.7">
<path fill-rule="evenodd" clip-rule="evenodd" d="M360 560C470.457 560 560 470.457 560 360C560 249.543 470.457 160 360 160C249.543 160 160 249.543 160 360C160 470.457 249.543 560 360 560Z" stroke="black" stroke-width="3"/>
<rect x="160" y="200" width="400" height="320" rx="16" stroke="black" stroke-width="3"/>
<rect x="200" y="160" width="320" height="400" rx="16" stroke="black" stroke-width="3"/>
<rect x="540" y="180" width="360" height="360" rx="16" transform="rotate(90 540 180)" stroke="black" stroke-width="3"/>
</g>
</g>
<g opacity="0.4">
<path fill-rule="evenodd" clip-rule="evenodd" d="M360 160C249.6 160 160 249.6 160 360C160 470.4 249.6 560 360 560C470.4 560 560 470.4 560 360C560 249.6 470.4 160 360 160ZM360 520C271.8 520 200 448.2 200 360C200 271.8 271.8 200 360 200C448.2 200 520 271.8 520 360C520 448.2 448.2 520 360 520ZM437.782 310.503L388.284 360L437.782 409.497C441.687 413.403 441.687 419.734 437.782 423.64L423.64 437.782C419.734 441.687 413.403 441.687 409.497 437.782L360 388.284L310.503 437.782C306.597 441.687 300.266 441.687 296.36 437.782L282.218 423.64C278.313 419.734 278.313 413.403 282.218 409.497L331.716 360L282.218 310.503C278.313 306.597 278.313 300.266 282.218 296.36L296.36 282.218C300.266 278.313 306.597 278.313 310.503 282.218L360 331.716L409.497 282.218C413.403 278.313 419.734 278.313 423.64 282.218L437.782 296.36C441.687 300.266 441.687 306.597 437.782 310.503Z" fill="black"/>
</g>
<path d="M280 303C280 298.029 284.029 294 289 294C293.971 294 298 298.029 298 303C298 307.971 293.971 312 289 312C284.029 312 280 307.971 280 303Z" fill="#137BC2" fill-opacity="0.3" stroke="#137BC2" stroke-width="2"/>
<path d="M294 289C294 284.029 298.029 280 303 280C307.971 280 312 284.029 312 289C312 293.971 307.971 298 303 298C298.029 298 294 293.971 294 289Z" fill="#137BC2" fill-opacity="0.3" stroke="#137BC2" stroke-width="2"/>
<rect x="119.228" y="93.772" width="2" height="338.697" transform="rotate(-45 119.228 93.772)" fill="#137BC2"/>
<rect x="92.3574" y="120.642" width="2" height="338.697" transform="rotate(-45 92.3574 120.642)" fill="#137BC2"/>
<path d="M64.9645 105.87H77.8285V102.678H70.0765L73.0765 100.326C76.1725 97.9021 77.6605 96.4381 77.6605 93.5581V93.5101C77.6605 90.2701 75.2605 88.1581 71.6845 88.1581C68.5645 88.1581 66.9085 89.4301 65.2045 91.7821L67.7965 93.8461C69.0925 92.2381 70.0525 91.4461 71.4445 91.4461C72.8605 91.4461 73.8925 92.2861 73.8925 93.8221C73.8925 95.2861 73.0285 96.2701 70.8205 98.1181L64.9645 102.942V105.87ZM88.1317 103.014C86.3077 103.014 84.7717 101.502 84.7717 99.2221V99.1741C84.7717 96.8941 86.3077 95.3821 88.1317 95.3821C89.9557 95.3821 91.4917 96.8941 91.4917 99.1741V99.2221C91.4917 101.55 89.9557 103.014 88.1317 103.014ZM81.1717 109.854H84.8197V104.07C85.7317 105.174 87.0037 106.134 89.0437 106.134C92.2117 106.134 95.1397 103.662 95.1397 99.2221V99.1741C95.1397 94.7341 92.1637 92.2861 89.0437 92.2861C87.0517 92.2861 85.7557 93.2461 84.8197 94.5181V92.5261H81.1717V109.854ZM100.413 92.5261H96.5013L101.037 99.0781L96.3093 105.87H100.125L102.933 101.574L105.741 105.87H109.653L104.925 99.0301L109.461 92.5261H105.645L103.005 96.5341L100.413 92.5261Z" fill="#137BC2"/>
<path d="M519.32 74H532.184V70.808H524.432L527.432 68.456C530.528 66.032 532.016 64.568 532.016 61.688V61.64C532.016 58.4 529.616 56.288 526.04 56.288C522.92 56.288 521.264 57.56 519.56 59.912L522.152 61.976C523.448 60.368 524.408 59.576 525.8 59.576C527.216 59.576 528.248 60.416 528.248 61.952C528.248 63.416 527.384 64.4 525.176 66.248L519.32 71.072V74ZM542.487 71.144C540.663 71.144 539.127 69.632 539.127 67.352V67.304C539.127 65.024 540.663 63.512 542.487 63.512C544.311 63.512 545.847 65.024 545.847 67.304V67.352C545.847 69.68 544.311 71.144 542.487 71.144ZM535.527 77.984H539.175V72.2C540.087 73.304 541.359 74.264 543.399 74.264C546.567 74.264 549.495 71.792 549.495 67.352V67.304C549.495 62.864 546.519 60.416 543.399 60.416C541.407 60.416 540.111 61.376 539.175 62.648V60.656H535.527V77.984ZM554.769 60.656H550.857L555.393 67.208L550.665 74H554.481L557.289 69.704L560.097 74H564.009L559.281 67.16L563.817 60.656H560.001L557.361 64.664L554.769 60.656Z" fill="#137BC2"/>
<rect x="431" y="407" width="201" height="2" fill="#137BC2"/>
<path d="M649.168 425.288C653.824 425.288 656.92 421.304 656.92 416.264V416.216C656.92 411.152 653.824 407.24 649.216 407.24C644.584 407.24 641.464 411.224 641.464 416.264V416.312C641.464 421.376 644.512 425.288 649.168 425.288ZM649.216 421.976C646.816 421.976 645.256 419.504 645.256 416.264V416.216C645.256 412.976 646.792 410.552 649.168 410.552C651.544 410.552 653.128 413.048 653.128 416.264V416.312C653.128 419.528 651.616 421.976 649.216 421.976ZM659.539 425H663.427V421.112H659.539V425ZM672.806 425.288C676.79 425.288 679.406 422.96 679.406 419.288V419.24C679.406 415.352 676.694 413.672 673.31 413.672C672.302 413.672 671.63 413.816 670.91 414.008L671.126 410.768H678.638V407.528H667.958L667.454 416.12L669.614 417.56C670.454 417.2 671.462 416.888 672.59 416.888C674.486 416.888 675.782 417.8 675.782 419.36V419.408C675.782 421.016 674.606 421.952 672.758 421.952C671.198 421.952 669.878 421.232 668.534 420.008L666.302 422.672C667.982 424.28 670.046 425.288 672.806 425.288ZM689.776 422.144C687.952 422.144 686.416 420.632 686.416 418.352V418.304C686.416 416.024 687.952 414.512 689.776 414.512C691.6 414.512 693.136 416.024 693.136 418.304V418.352C693.136 420.68 691.6 422.144 689.776 422.144ZM682.816 428.984H686.464V423.2C687.376 424.304 688.648 425.264 690.688 425.264C693.856 425.264 696.784 422.792 696.784 418.352V418.304C696.784 413.864 693.808 411.416 690.688 411.416C688.696 411.416 687.4 412.376 686.464 413.648V411.656H682.816V428.984ZM702.058 411.656H698.146L702.682 418.208L697.954 425H701.77L704.578 420.704L707.386 425H711.298L706.57 418.16L711.106 411.656H707.29L704.65 415.664L702.058 411.656Z" fill="#137BC2"/>
<rect x="431" y="425" width="201" height="2" fill="#137BC2"/>
<rect x="558" y="88" width="2" height="272" fill="#137BC2"/>
<rect x="520" y="88" width="2" height="272" fill="#137BC2"/>
<path d="M440 303C440 298.029 435.971 294 431 294C426.029 294 422 298.029 422 303C422 307.971 426.029 312 431 312C435.971 312 440 307.971 440 303Z" fill="#137BC2" fill-opacity="0.3" stroke="#137BC2" stroke-width="2"/>
<path d="M426 289C426 284.029 421.971 280 417 280C412.029 280 408 284.029 408 289C408 293.971 412.029 298 417 298C421.971 298 426 293.971 426 289Z" fill="#137BC2" fill-opacity="0.3" stroke="#137BC2" stroke-width="2"/>
<path d="M280 417C280 421.971 284.029 426 289 426C293.971 426 298 421.971 298 417C298 412.029 293.971 408 289 408C284.029 408 280 412.029 280 417Z" fill="#137BC2" fill-opacity="0.3" stroke="#137BC2" stroke-width="2"/>
<path d="M294 431C294 435.971 298.029 440 303 440C307.971 440 312 435.971 312 431C312 426.029 307.971 422 303 422C298.029 422 294 426.029 294 431Z" fill="#137BC2" fill-opacity="0.3" stroke="#137BC2" stroke-width="2"/>
<path d="M440 417C440 421.971 435.971 426 431 426C426.029 426 422 421.971 422 417C422 412.029 426.029 408 431 408C435.971 408 440 412.029 440 417Z" fill="#137BC2" fill-opacity="0.3" stroke="#137BC2" stroke-width="2"/>
<path d="M426 431C426 435.971 421.971 440 417 440C412.029 440 408 435.971 408 431C408 426.029 412.029 422 417 422C421.971 422 426 426.029 426 431Z" fill="#137BC2" fill-opacity="0.3" stroke="#137BC2" stroke-width="2"/>
</svg>
