<svg width="720" height="720" viewBox="0 0 720 720" fill="none" xmlns="http://www.w3.org/2000/svg">
<rect width="480" height="480" transform="translate(120 120)" fill="white"/>
<g opacity="0.4">
<g opacity="0.2">
<rect x="580" y="120" width="20" height="480" stroke="black"/>
<rect x="560" y="120" width="20" height="480" stroke="black"/>
<rect x="540" y="120" width="20" height="480" stroke="black"/>
<rect x="520" y="120" width="20" height="480" stroke="black"/>
<rect x="500" y="120" width="20" height="480" stroke="black"/>
<rect x="480" y="120" width="20" height="480" stroke="black"/>
<rect x="460" y="120" width="20" height="480" stroke="black"/>
<rect x="440" y="120" width="20" height="480" stroke="black"/>
<rect x="420" y="120" width="20" height="480" stroke="black"/>
<rect x="400" y="120" width="20" height="480" stroke="black"/>
<rect x="380" y="120" width="20" height="480" stroke="black"/>
<rect x="360" y="120" width="20" height="480" stroke="black"/>
<rect x="340" y="120" width="20" height="480" stroke="black"/>
<rect x="320" y="120" width="20" height="480" stroke="black"/>
<rect x="300" y="120" width="20" height="480" stroke="black"/>
<rect x="280" y="120" width="20" height="480" stroke="black"/>
<rect x="260" y="120" width="20" height="480" stroke="black"/>
<rect x="240" y="120" width="20" height="480" stroke="black"/>
<rect x="220" y="120" width="20" height="480" stroke="black"/>
<rect x="200" y="120" width="20" height="480" stroke="black"/>
<rect x="180" y="120" width="20" height="480" stroke="black"/>
<rect x="160" y="120" width="20" height="480" stroke="black"/>
<rect x="140" y="120" width="20" height="480" stroke="black"/>
<rect x="120" y="120" width="20" height="480" stroke="black"/>
</g>
<g opacity="0.2">
<rect x="600" y="580" width="20" height="480" transform="rotate(90 600 580)" stroke="black"/>
<rect x="600" y="560" width="20" height="480" transform="rotate(90 600 560)" stroke="black"/>
<rect x="600" y="540" width="20" height="480" transform="rotate(90 600 540)" stroke="black"/>
<rect x="600" y="520" width="20" height="480" transform="rotate(90 600 520)" stroke="black"/>
<rect x="600" y="500" width="20" height="480" transform="rotate(90 600 500)" stroke="black"/>
<rect x="600" y="480" width="20" height="480" transform="rotate(90 600 480)" stroke="black"/>
<rect x="600" y="460" width="20" height="480" transform="rotate(90 600 460)" stroke="black"/>
<rect x="600" y="440" width="20" height="480" transform="rotate(90 600 440)" stroke="black"/>
<rect x="600" y="420" width="20" height="480" transform="rotate(90 600 420)" stroke="black"/>
<rect x="600" y="400" width="20" height="480" transform="rotate(90 600 400)" stroke="black"/>
<rect x="600" y="380" width="20" height="480" transform="rotate(90 600 380)" stroke="black"/>
<rect x="600" y="360" width="20" height="480" transform="rotate(90 600 360)" stroke="black"/>
<rect x="600" y="340" width="20" height="480" transform="rotate(90 600 340)" stroke="black"/>
<rect x="600" y="320" width="20" height="480" transform="rotate(90 600 320)" stroke="black"/>
<rect x="600" y="300" width="20" height="480" transform="rotate(90 600 300)" stroke="black"/>
<rect x="600" y="280" width="20" height="480" transform="rotate(90 600 280)" stroke="black"/>
<rect x="600" y="260" width="20" height="480" transform="rotate(90 600 260)" stroke="black"/>
<rect x="600" y="240" width="20" height="480" transform="rotate(90 600 240)" stroke="black"/>
<rect x="600" y="220" width="20" height="480" transform="rotate(90 600 220)" stroke="black"/>
<rect x="600" y="200" width="20" height="480" transform="rotate(90 600 200)" stroke="black"/>
<rect x="600" y="180" width="20" height="480" transform="rotate(90 600 180)" stroke="black"/>
<rect x="600" y="160" width="20" height="480" transform="rotate(90 600 160)" stroke="black"/>
<rect x="600" y="140" width="20" height="480" transform="rotate(90 600 140)" stroke="black"/>
<rect x="600" y="120" width="20" height="480" transform="rotate(90 600 120)" stroke="black"/>
</g>
</g>
<rect x="121" y="121" width="478" height="478" stroke="#AAAAAA" stroke-width="2"/>
<mask id="mask0" mask-type="alpha" maskUnits="userSpaceOnUse" x="120" y="120" width="480" height="480">
<rect x="120" y="120" width="480" height="480" fill="white"/>
</mask>
<g mask="url(#mask0)">
<g opacity="0.3">
<path d="M600 120L120 600" stroke="black" stroke-width="3"/>
<path d="M120 120L600 600" stroke="black" stroke-width="3"/>
<path fill-rule="evenodd" clip-rule="evenodd" d="M360 460C415.228 460 460 415.228 460 360C460 304.772 415.228 260 360 260C304.772 260 260 304.772 260 360C260 415.228 304.772 460 360 460Z" stroke="black" stroke-width="3"/>
<path d="M360 120V600" stroke="black" stroke-width="3"/>
<path d="M280 120V600" stroke="black" stroke-width="3"/>
<path d="M440 120V600" stroke="black" stroke-width="3"/>
<path d="M120 360H600" stroke="black" stroke-width="3"/>
<path d="M120 440H600" stroke="black" stroke-width="3"/>
<path d="M120 280H600" stroke="black" stroke-width="3"/>
</g>
<g opacity="0.7">
<path fill-rule="evenodd" clip-rule="evenodd" d="M360 560C470.457 560 560 470.457 560 360C560 249.543 470.457 160 360 160C249.543 160 160 249.543 160 360C160 470.457 249.543 560 360 560Z" stroke="black" stroke-width="3"/>
<rect x="160" y="200" width="400" height="320" rx="16" stroke="black" stroke-width="3"/>
<rect x="200" y="160" width="320" height="400" rx="16" stroke="black" stroke-width="3"/>
<rect x="540" y="180" width="360" height="360" rx="16" transform="rotate(90 540 180)" stroke="black" stroke-width="3"/>
</g>
</g>
<g opacity="0.4">
<path fill-rule="evenodd" clip-rule="evenodd" d="M220 348.567L360.001 208.566L500 348.395V520.01H440V460C440 415.817 404.183 380 360 380C315.817 380 280 415.817 280 460V520.01H220V348.567ZM540 388.347L559.773 408.097C563.679 411.998 570.008 411.996 573.912 408.092L588.056 393.945C591.962 390.038 591.96 383.704 588.051 379.8L367.071 159.063C363.165 155.162 356.836 155.163 352.933 159.067L132.198 379.801C128.292 383.706 128.292 390.038 132.198 393.943L146.34 408.085C150.245 411.99 156.576 411.99 160.482 408.085L180 388.567V540.01C180 551.056 188.954 560.01 200 560.01H300C311.045 560.01 320 551.056 320 540.01V460C320 437.909 337.908 420 360 420C382.091 420 400 437.909 400 460V540.01C400 551.056 408.954 560.01 420 560.01H520C531.045 560.01 540 551.056 540 540.01V388.347Z" fill="black"/>
</g>
<path d="M70.2573 52H75.1533V44.96L78.0333 41.984L85.4253 52H91.3453L81.3613 38.624L90.9293 28.704H84.8813L75.1533 39.2V28.704H70.2573V52ZM101.597 52.384C104.829 52.384 107.197 51.136 108.861 49.088L106.077 46.624C104.669 47.936 103.421 48.48 101.661 48.48C99.3253 48.48 97.6613 47.232 97.1813 44.8H109.693C109.725 44.352 109.757 43.904 109.757 43.52C109.757 38.464 107.005 33.888 101.117 33.888C95.9653 33.888 92.3493 38.048 92.3493 43.136V43.2C92.3493 48.64 96.2853 52.384 101.597 52.384ZM97.1173 41.76C97.5013 39.36 98.9413 37.792 101.117 37.792C103.357 37.792 104.701 39.424 105.021 41.76H97.1173ZM120.739 46.528L116.515 34.208H111.363L118.435 52.064C117.923 53.088 117.443 53.376 116.515 53.376C115.811 53.376 114.979 53.088 114.307 52.704L112.675 56.224C113.955 56.96 115.299 57.44 117.091 57.44C120.099 57.44 121.571 56.064 122.947 52.448L129.827 34.208H124.771L120.739 46.528ZM133.407 52H138.239V27.712H133.407V52ZM143.466 32.096H148.586V27.744H143.466V32.096ZM143.626 52H148.458V34.208H143.626V52ZM153.588 52H158.452V42.048C158.452 39.584 159.764 38.272 161.78 38.272C163.796 38.272 164.98 39.584 164.98 42.048V52H169.844V40.512C169.844 36.416 167.572 33.888 163.732 33.888C161.14 33.888 159.604 35.264 158.452 36.768V34.208H153.588V52ZM182.941 52.384C186.173 52.384 188.541 51.136 190.205 49.088L187.421 46.624C186.013 47.936 184.765 48.48 183.005 48.48C180.669 48.48 179.005 47.232 178.525 44.8H191.037C191.069 44.352 191.101 43.904 191.101 43.52C191.101 38.464 188.349 33.888 182.461 33.888C177.309 33.888 173.693 38.048 173.693 43.136V43.2C173.693 48.64 177.629 52.384 182.941 52.384ZM178.461 41.76C178.845 39.36 180.285 37.792 182.461 37.792C184.701 37.792 186.045 39.424 186.365 41.76H178.461ZM211.609 52.32C215.449 52.32 218.393 50.528 218.393 46.624V46.56C218.393 43.296 215.481 42.112 212.985 41.312C211.033 40.64 209.273 40.16 209.273 39.104V39.04C209.273 38.272 209.977 37.696 211.257 37.696C212.601 37.696 214.361 38.336 216.121 39.36L217.977 36C216.057 34.72 213.625 33.952 211.385 33.952C207.801 33.952 204.889 35.968 204.889 39.552V39.616C204.889 43.04 207.737 44.192 210.265 44.928C212.249 45.536 214.009 45.92 214.009 47.072V47.136C214.009 48 213.273 48.576 211.737 48.576C210.073 48.576 208.025 47.84 206.105 46.432L203.993 49.664C206.329 51.488 209.113 52.32 211.609 52.32ZM222.37 52H227.234V42.048C227.234 39.584 228.546 38.272 230.562 38.272C232.578 38.272 233.762 39.584 233.762 42.048V52H238.626V40.512C238.626 36.416 236.354 33.888 232.514 33.888C229.922 33.888 228.385 35.264 227.234 36.768V27.712H222.37V52ZM249.866 48.96C248.17 48.96 246.954 48.128 246.954 46.688V46.624C246.954 44.992 248.33 44.064 250.57 44.064C251.882 44.064 253.066 44.352 253.962 44.736V45.696C253.962 47.616 252.298 48.96 249.866 48.96ZM248.426 52.352C250.922 52.352 252.65 51.392 253.866 50.016V52H258.57V41.632C258.57 39.264 257.962 37.312 256.65 36C255.37 34.752 253.386 34.016 250.666 34.016C247.69 34.016 245.738 34.592 243.786 35.456L245.002 39.168C246.634 38.56 248.042 38.176 249.962 38.176C252.554 38.176 253.898 39.36 253.898 41.536V41.856C252.618 41.44 251.306 41.152 249.45 41.152C245.226 41.152 242.25 42.944 242.25 46.816V46.88C242.25 50.4 245.066 52.352 248.426 52.352ZM272.556 48.192C270.124 48.192 268.076 46.176 268.076 43.136V43.072C268.076 40.032 270.124 38.016 272.556 38.016C274.988 38.016 277.036 40.032 277.036 43.072V43.136C277.036 46.24 274.988 48.192 272.556 48.192ZM263.276 57.312H268.14V49.6C269.356 51.072 271.052 52.352 273.772 52.352C277.996 52.352 281.9 49.056 281.9 43.136V43.072C281.9 37.152 277.932 33.888 273.772 33.888C271.116 33.888 269.388 35.168 268.14 36.864V34.208H263.276V57.312ZM294.347 52.384C297.579 52.384 299.947 51.136 301.611 49.088L298.827 46.624C297.419 47.936 296.171 48.48 294.411 48.48C292.075 48.48 290.411 47.232 289.931 44.8H302.443C302.475 44.352 302.507 43.904 302.507 43.52C302.507 38.464 299.755 33.888 293.867 33.888C288.715 33.888 285.099 38.048 285.099 43.136V43.2C285.099 48.64 289.035 52.384 294.347 52.384ZM289.867 41.76C290.251 39.36 291.691 37.792 293.867 37.792C296.107 37.792 297.451 39.424 297.771 41.76H289.867ZM312.765 52.32C316.605 52.32 319.549 50.528 319.549 46.624V46.56C319.549 43.296 316.637 42.112 314.141 41.312C312.189 40.64 310.429 40.16 310.429 39.104V39.04C310.429 38.272 311.133 37.696 312.413 37.696C313.757 37.696 315.517 38.336 317.277 39.36L319.133 36C317.213 34.72 314.781 33.952 312.541 33.952C308.957 33.952 306.045 35.968 306.045 39.552V39.616C306.045 43.04 308.893 44.192 311.421 44.928C313.405 45.536 315.165 45.92 315.165 47.072V47.136C315.165 48 314.429 48.576 312.893 48.576C311.229 48.576 309.181 47.84 307.261 46.432L305.149 49.664C307.485 51.488 310.269 52.32 312.765 52.32ZM340.304 48.96C338.608 48.96 337.392 48.128 337.392 46.688V46.624C337.392 44.992 338.768 44.064 341.008 44.064C342.32 44.064 343.504 44.352 344.4 44.736V45.696C344.4 47.616 342.736 48.96 340.304 48.96ZM338.864 52.352C341.36 52.352 343.088 51.392 344.304 50.016V52H349.008V41.632C349.008 39.264 348.4 37.312 347.088 36C345.808 34.752 343.824 34.016 341.104 34.016C338.128 34.016 336.176 34.592 334.224 35.456L335.44 39.168C337.072 38.56 338.48 38.176 340.4 38.176C342.992 38.176 344.336 39.36 344.336 41.536V41.856C343.056 41.44 341.744 41.152 339.888 41.152C335.664 41.152 332.688 42.944 332.688 46.816V46.88C332.688 50.4 335.504 52.352 338.864 52.352ZM353.713 52H358.577V45.376C358.577 41.056 360.721 38.976 364.113 38.976H364.369V33.888C361.361 33.76 359.633 35.392 358.577 37.888V34.208H353.713V52ZM375.754 52.384C378.986 52.384 381.354 51.136 383.017 49.088L380.234 46.624C378.826 47.936 377.578 48.48 375.818 48.48C373.482 48.48 371.818 47.232 371.338 44.8H383.85C383.882 44.352 383.914 43.904 383.914 43.52C383.914 38.464 381.162 33.888 375.274 33.888C370.122 33.888 366.506 38.048 366.506 43.136V43.2C366.506 48.64 370.442 52.384 375.754 52.384ZM371.274 41.76C371.658 39.36 373.098 37.792 375.274 37.792C377.514 37.792 378.858 39.424 379.178 41.76H371.274ZM398.309 32.096H403.429V27.744H398.309V32.096ZM397.701 57.44C401.349 57.44 403.301 55.648 403.301 51.808V34.208H398.469V51.424C398.469 52.928 397.701 53.536 396.645 53.536C396.293 53.536 395.973 53.472 395.557 53.408V57.216C396.261 57.376 396.805 57.44 397.701 57.44ZM414.384 52.352C416.976 52.352 418.512 50.976 419.664 49.44V52H424.528V34.208H419.664V44.16C419.664 46.624 418.352 47.936 416.336 47.936C414.32 47.936 413.136 46.624 413.136 44.16V34.208H408.304V45.696C408.304 49.792 410.544 52.352 414.384 52.352ZM435.609 52.32C439.449 52.32 442.393 50.528 442.393 46.624V46.56C442.393 43.296 439.481 42.112 436.985 41.312C435.033 40.64 433.273 40.16 433.273 39.104V39.04C433.273 38.272 433.977 37.696 435.257 37.696C436.601 37.696 438.361 38.336 440.121 39.36L441.977 36C440.057 34.72 437.625 33.952 435.385 33.952C431.801 33.952 428.889 35.968 428.889 39.552V39.616C428.889 43.04 431.737 44.192 434.265 44.928C436.249 45.536 438.009 45.92 438.009 47.072V47.136C438.009 48 437.273 48.576 435.737 48.576C434.073 48.576 432.025 47.84 430.105 46.432L427.993 49.664C430.329 51.488 433.113 52.32 435.609 52.32ZM452.073 52.288C453.737 52.288 454.921 51.904 455.977 51.296V47.392C455.241 47.776 454.409 48 453.481 48C452.297 48 451.753 47.424 451.753 46.176V38.368H456.041V34.208H451.753V29.6H446.889V34.208H444.745V38.368H446.889V46.976C446.889 51.072 449.001 52.288 452.073 52.288ZM478.882 46.528C476.354 46.528 474.434 44.8 474.434 42.24V42.176C474.434 39.648 476.354 37.92 478.882 37.92C481.41 37.92 483.394 39.648 483.394 42.176V42.24C483.394 44.768 481.41 46.528 478.882 46.528ZM478.338 57.376C481.73 57.376 484.29 56.64 485.922 55.008C487.426 53.504 488.194 51.2 488.194 48.064V34.208H483.33V36.608C481.954 35.072 480.29 33.888 477.506 33.888C473.41 33.888 469.57 36.896 469.57 42.176V42.24C469.57 47.52 473.346 50.56 477.506 50.56C480.226 50.56 481.89 49.408 483.394 47.584V48.544C483.394 51.808 481.698 53.504 478.21 53.504C475.842 53.504 473.986 52.896 472.13 51.84L470.466 55.488C472.706 56.704 475.458 57.376 478.338 57.376ZM499.009 52.352C501.601 52.352 503.137 50.976 504.289 49.44V52H509.153V34.208H504.289V44.16C504.289 46.624 502.977 47.936 500.961 47.936C498.945 47.936 497.761 46.624 497.761 44.16V34.208H492.929V45.696C492.929 49.792 495.169 52.352 499.009 52.352ZM514.122 32.096H519.242V27.744H514.122V32.096ZM514.282 52H519.114V34.208H514.282V52ZM532.789 48.192C530.357 48.192 528.309 46.176 528.309 43.136V43.072C528.309 39.968 530.357 38.016 532.789 38.016C535.221 38.016 537.269 40.032 537.269 43.072V43.136C537.269 46.176 535.221 48.192 532.789 48.192ZM531.573 52.352C534.229 52.352 535.957 51.072 537.205 49.376V52H542.069V27.712H537.205V36.608C535.989 35.136 534.293 33.888 531.573 33.888C527.349 33.888 523.445 37.152 523.445 43.072V43.136C523.445 49.088 527.413 52.352 531.573 52.352ZM555.316 52.384C558.548 52.384 560.916 51.136 562.58 49.088L559.796 46.624C558.388 47.936 557.14 48.48 555.38 48.48C553.044 48.48 551.38 47.232 550.9 44.8H563.412C563.444 44.352 563.476 43.904 563.476 43.52C563.476 38.464 560.724 33.888 554.836 33.888C549.684 33.888 546.068 38.048 546.068 43.136V43.2C546.068 48.64 550.004 52.384 555.316 52.384ZM550.836 41.76C551.22 39.36 552.66 37.792 554.836 37.792C557.076 37.792 558.42 39.424 558.74 41.76H550.836ZM567.782 52H572.614V27.712H567.782V52ZM577.841 32.096H582.961V27.744H577.841V32.096ZM578.001 52H582.833V34.208H578.001V52ZM587.963 52H592.827V42.048C592.827 39.584 594.139 38.272 596.155 38.272C598.171 38.272 599.355 39.584 599.355 42.048V52H604.219V40.512C604.219 36.416 601.947 33.888 598.107 33.888C595.515 33.888 593.979 35.264 592.827 36.768V34.208H587.963V52ZM617.316 52.384C620.548 52.384 622.916 51.136 624.58 49.088L621.796 46.624C620.388 47.936 619.14 48.48 617.38 48.48C615.044 48.48 613.38 47.232 612.9 44.8H625.412C625.444 44.352 625.476 43.904 625.476 43.52C625.476 38.464 622.724 33.888 616.836 33.888C611.684 33.888 608.068 38.048 608.068 43.136V43.2C608.068 48.64 612.004 52.384 617.316 52.384ZM612.836 41.76C613.22 39.36 614.66 37.792 616.836 37.792C619.076 37.792 620.42 39.424 620.74 41.76H612.836ZM635.734 52.32C639.574 52.32 642.518 50.528 642.518 46.624V46.56C642.518 43.296 639.606 42.112 637.11 41.312C635.158 40.64 633.398 40.16 633.398 39.104V39.04C633.398 38.272 634.102 37.696 635.382 37.696C636.726 37.696 638.486 38.336 640.246 39.36L642.102 36C640.182 34.72 637.75 33.952 635.51 33.952C631.926 33.952 629.014 35.968 629.014 39.552V39.616C629.014 43.04 631.862 44.192 634.39 44.928C636.374 45.536 638.134 45.92 638.134 47.072V47.136C638.134 48 637.398 48.576 635.862 48.576C634.198 48.576 632.15 47.84 630.23 46.432L628.118 49.664C630.454 51.488 633.238 52.32 635.734 52.32ZM646.303 52H651.487V46.816H646.303V52ZM136.695 90H147.703C152.951 90 156.407 87.856 156.407 83.6V83.536C156.407 80.4 154.679 78.832 151.991 77.84C153.655 76.912 155.095 75.44 155.095 72.784V72.72C155.095 71.12 154.583 69.84 153.527 68.752C152.183 67.44 150.071 66.704 147.415 66.704H136.695V90ZM150.199 73.584C150.199 75.408 148.727 76.208 146.391 76.208H141.463V71.024H146.711C148.951 71.024 150.199 71.952 150.199 73.52V73.584ZM151.511 82.96V83.024C151.511 84.816 150.071 85.68 147.703 85.68H141.463V80.304H147.511C150.263 80.304 151.511 81.296 151.511 82.96ZM160.432 90H165.296V83.376C165.296 79.056 167.44 76.976 170.832 76.976H171.088V71.888C168.08 71.76 166.352 73.392 165.296 75.888V72.208H160.432V90ZM182.472 90.384C185.704 90.384 188.072 89.136 189.736 87.088L186.952 84.624C185.544 85.936 184.296 86.48 182.536 86.48C180.2 86.48 178.536 85.232 178.056 82.8H190.568C190.6 82.352 190.632 81.904 190.632 81.52C190.632 76.464 187.88 71.888 181.992 71.888C176.84 71.888 173.224 76.048 173.224 81.136V81.2C173.224 86.64 177.16 90.384 182.472 90.384ZM177.992 79.76C178.376 77.36 179.816 75.792 181.992 75.792C184.232 75.792 185.576 77.424 185.896 79.76H177.992ZM201.21 86.96C199.514 86.96 198.298 86.128 198.298 84.688V84.624C198.298 82.992 199.674 82.064 201.914 82.064C203.226 82.064 204.41 82.352 205.306 82.736V83.696C205.306 85.616 203.642 86.96 201.21 86.96ZM199.77 90.352C202.266 90.352 203.994 89.392 205.21 88.016V90H209.914V79.632C209.914 77.264 209.306 75.312 207.994 74C206.714 72.752 204.73 72.016 202.01 72.016C199.034 72.016 197.082 72.592 195.13 73.456L196.346 77.168C197.978 76.56 199.386 76.176 201.306 76.176C203.898 76.176 205.242 77.36 205.242 79.536V79.856C203.962 79.44 202.65 79.152 200.794 79.152C196.57 79.152 193.594 80.944 193.594 84.816V84.88C193.594 88.4 196.41 90.352 199.77 90.352ZM214.62 90H219.484V84.656L221.404 82.608L226.108 90H231.74L224.668 79.28L231.516 72.208H225.692L219.484 78.96V65.712H214.62V90ZM253.448 90.384C258.984 90.384 263.08 86.256 263.08 81.136V81.072C263.08 75.984 259.016 71.888 253.544 71.888C248.008 71.888 243.912 76.048 243.912 81.136V81.2C243.912 86.32 247.976 90.384 253.448 90.384ZM253.544 86.224C250.664 86.224 248.712 83.856 248.712 81.136V81.072C248.712 78.352 250.504 76.08 253.448 76.08C256.328 76.08 258.28 78.416 258.28 81.136V81.2C258.28 83.92 256.488 86.224 253.544 86.224ZM273.04 90.352C275.632 90.352 277.168 88.976 278.32 87.44V90H283.184V72.208H278.32V82.16C278.32 84.624 277.008 85.936 274.992 85.936C272.976 85.936 271.792 84.624 271.792 82.16V72.208H266.96V83.696C266.96 87.792 269.2 90.352 273.04 90.352ZM294.073 90.288C295.737 90.288 296.921 89.904 297.977 89.296V85.392C297.241 85.776 296.409 86 295.481 86C294.297 86 293.753 85.424 293.753 84.176V76.368H298.041V72.208H293.753V67.6H288.889V72.208H286.745V76.368H288.889V84.976C288.889 89.072 291.001 90.288 294.073 90.288ZM316.434 90.128H320.786L324.37 78.96L327.89 90.128H332.274L337.874 72.208H333.042L329.97 83.312L326.482 72.144H322.322L318.834 83.28L315.858 72.208H310.93L316.434 90.128ZM341.276 90H346.14V80.048C346.14 77.584 347.452 76.272 349.468 76.272C351.484 76.272 352.668 77.584 352.668 80.048V90H357.532V78.512C357.532 74.416 355.26 71.888 351.42 71.888C348.828 71.888 347.292 73.264 346.14 74.768V65.712H341.276V90ZM370.629 90.384C373.861 90.384 376.229 89.136 377.892 87.088L375.109 84.624C373.701 85.936 372.453 86.48 370.693 86.48C368.357 86.48 366.693 85.232 366.213 82.8H378.725C378.757 82.352 378.789 81.904 378.789 81.52C378.789 76.464 376.037 71.888 370.149 71.888C364.997 71.888 361.381 76.048 361.381 81.136V81.2C361.381 86.64 365.317 90.384 370.629 90.384ZM366.149 79.76C366.533 77.36 367.973 75.792 370.149 75.792C372.389 75.792 373.733 77.424 374.053 79.76H366.149ZM382.838 90H387.702V80.048C387.702 77.584 389.014 76.272 391.03 76.272C393.046 76.272 394.23 77.584 394.23 80.048V90H399.094V78.512C399.094 74.416 396.822 71.888 392.982 71.888C390.39 71.888 388.854 73.264 387.702 74.768V72.208H382.838V90ZM414.057 90H418.921V80.048C418.921 77.584 420.233 76.272 422.249 76.272C424.265 76.272 425.449 77.584 425.449 80.048V90H430.313V78.512C430.313 74.416 428.041 71.888 424.201 71.888C421.609 71.888 420.073 73.264 418.921 74.768V72.208H414.057V90ZM443.41 90.384C446.642 90.384 449.01 89.136 450.674 87.088L447.89 84.624C446.482 85.936 445.234 86.48 443.474 86.48C441.138 86.48 439.474 85.232 438.994 82.8H451.506C451.538 82.352 451.57 81.904 451.57 81.52C451.57 76.464 448.818 71.888 442.93 71.888C437.778 71.888 434.162 76.048 434.162 81.136V81.2C434.162 86.64 438.098 90.384 443.41 90.384ZM438.93 79.76C439.314 77.36 440.754 75.792 442.93 75.792C445.17 75.792 446.514 77.424 446.834 79.76H438.93ZM464.004 90.384C467.524 90.384 469.54 89.04 471.267 87.12L468.42 84.272C467.172 85.456 465.956 86.224 464.228 86.224C461.38 86.224 459.556 83.952 459.556 81.136V81.072C459.556 78.352 461.411 76.08 464.036 76.08C465.86 76.08 467.012 76.88 468.164 78.096L471.172 74.896C469.508 73.04 467.396 71.888 464.068 71.888C458.628 71.888 454.756 76.08 454.756 81.136V81.2C454.756 86.288 458.66 90.384 464.004 90.384ZM482.754 90.384C485.986 90.384 488.354 89.136 490.017 87.088L487.234 84.624C485.826 85.936 484.578 86.48 482.818 86.48C480.482 86.48 478.818 85.232 478.338 82.8H490.85C490.882 82.352 490.914 81.904 490.914 81.52C490.914 76.464 488.162 71.888 482.274 71.888C477.122 71.888 473.506 76.048 473.506 81.136V81.2C473.506 86.64 477.442 90.384 482.754 90.384ZM478.274 79.76C478.658 77.36 480.098 75.792 482.274 75.792C484.514 75.792 485.858 77.424 486.178 79.76H478.274ZM501.171 90.32C505.011 90.32 507.955 88.528 507.955 84.624V84.56C507.955 81.296 505.043 80.112 502.547 79.312C500.595 78.64 498.835 78.16 498.835 77.104V77.04C498.835 76.272 499.539 75.696 500.819 75.696C502.163 75.696 503.923 76.336 505.683 77.36L507.539 74C505.619 72.72 503.187 71.952 500.947 71.952C497.363 71.952 494.451 73.968 494.451 77.552V77.616C494.451 81.04 497.299 82.192 499.827 82.928C501.811 83.536 503.571 83.92 503.571 85.072V85.136C503.571 86 502.835 86.576 501.299 86.576C499.635 86.576 497.587 85.84 495.667 84.432L493.555 87.664C495.891 89.488 498.675 90.32 501.171 90.32ZM517.828 90.32C521.668 90.32 524.612 88.528 524.612 84.624V84.56C524.612 81.296 521.7 80.112 519.204 79.312C517.252 78.64 515.492 78.16 515.492 77.104V77.04C515.492 76.272 516.196 75.696 517.476 75.696C518.82 75.696 520.58 76.336 522.34 77.36L524.196 74C522.276 72.72 519.844 71.952 517.604 71.952C514.02 71.952 511.108 73.968 511.108 77.552V77.616C511.108 81.04 513.956 82.192 516.484 82.928C518.468 83.536 520.228 83.92 520.228 85.072V85.136C520.228 86 519.492 86.576 517.956 86.576C516.292 86.576 514.244 85.84 512.324 84.432L510.212 87.664C512.548 89.488 515.332 90.32 517.828 90.32ZM535.116 86.96C533.42 86.96 532.204 86.128 532.204 84.688V84.624C532.204 82.992 533.58 82.064 535.82 82.064C537.132 82.064 538.316 82.352 539.212 82.736V83.696C539.212 85.616 537.548 86.96 535.116 86.96ZM533.676 90.352C536.172 90.352 537.9 89.392 539.116 88.016V90H543.82V79.632C543.82 77.264 543.212 75.312 541.9 74C540.62 72.752 538.636 72.016 535.916 72.016C532.94 72.016 530.988 72.592 529.036 73.456L530.252 77.168C531.884 76.56 533.292 76.176 535.212 76.176C537.804 76.176 539.148 77.36 539.148 79.536V79.856C537.868 79.44 536.556 79.152 534.7 79.152C530.476 79.152 527.5 80.944 527.5 84.816V84.88C527.5 88.4 530.316 90.352 533.676 90.352ZM548.526 90H553.39V83.376C553.39 79.056 555.534 76.976 558.926 76.976H559.182V71.888C556.174 71.76 554.446 73.392 553.39 75.888V72.208H548.526V90ZM570.458 84.528L566.234 72.208H561.082L568.154 90.064C567.642 91.088 567.162 91.376 566.234 91.376C565.53 91.376 564.698 91.088 564.026 90.704L562.394 94.224C563.674 94.96 565.018 95.44 566.81 95.44C569.818 95.44 571.29 94.064 572.666 90.448L579.546 72.208H574.49L570.458 84.528ZM579.865 90H585.049V84.816H579.865V90Z" fill="#137BC2"/>
<path d="M148.25 387C148.25 391.971 144.221 396 139.25 396C134.279 396 130.25 391.971 130.25 387C130.25 382.029 134.279 378 139.25 378C144.221 378 148.25 382.029 148.25 387Z" fill="#137BC2" fill-opacity="0.3" stroke="#137BC2" stroke-width="2"/>
<path d="M162.5 401C162.5 405.971 158.471 410 153.5 410C148.529 410 144.5 405.971 144.5 401C144.5 396.029 148.529 392 153.5 392C158.471 392 162.5 396.029 162.5 401Z" fill="#137BC2" fill-opacity="0.3" stroke="#137BC2" stroke-width="2"/>
<path d="M589.75 387C589.75 391.971 585.721 396 580.75 396C575.779 396 571.75 391.971 571.75 387C571.75 382.029 575.779 378 580.75 378C585.721 378 589.75 382.029 589.75 387Z" fill="#137BC2" fill-opacity="0.3" stroke="#137BC2" stroke-width="2"/>
<path d="M575.75 401C575.75 405.971 571.721 410 566.75 410C561.779 410 557.75 405.971 557.75 401C557.75 396.029 561.779 392 566.75 392C571.721 392 575.75 396.029 575.75 401Z" fill="#137BC2" fill-opacity="0.3" stroke="#137BC2" stroke-width="2"/>
<rect x="88" y="520" width="132" height="2" fill="#137BC2"/>
<path d="M34.32 547H47.184V543.808H39.432L42.432 541.456C45.528 539.032 47.016 537.568 47.016 534.688V534.64C47.016 531.4 44.616 529.288 41.04 529.288C37.92 529.288 36.264 530.56 34.56 532.912L37.152 534.976C38.448 533.368 39.408 532.576 40.8 532.576C42.216 532.576 43.248 533.416 43.248 534.952C43.248 536.416 42.384 537.4 40.176 539.248L34.32 544.072V547ZM57.4871 544.144C55.6631 544.144 54.1271 542.632 54.1271 540.352V540.304C54.1271 538.024 55.6631 536.512 57.4871 536.512C59.3111 536.512 60.8471 538.024 60.8471 540.304V540.352C60.8471 542.68 59.3111 544.144 57.4871 544.144ZM50.5271 550.984H54.1751V545.2C55.0871 546.304 56.3591 547.264 58.3991 547.264C61.5671 547.264 64.4951 544.792 64.4951 540.352V540.304C64.4951 535.864 61.5191 533.416 58.3991 533.416C56.4071 533.416 55.1111 534.376 54.1751 535.648V533.656H50.5271V550.984ZM69.7688 533.656H65.8568L70.3928 540.208L65.6648 547H69.4808L72.2888 542.704L75.0968 547H79.0088L74.2808 540.16L78.8168 533.656H75.0008L72.3608 537.664L69.7688 533.656Z" fill="#137BC2"/>
<path d="M48.32 464H61.184V460.808H53.432L56.432 458.456C59.528 456.032 61.016 454.568 61.016 451.688V451.64C61.016 448.4 58.616 446.288 55.04 446.288C51.92 446.288 50.264 447.56 48.56 449.912L51.152 451.976C52.448 450.368 53.408 449.576 54.8 449.576C56.216 449.576 57.248 450.416 57.248 451.952C57.248 453.416 56.384 454.4 54.176 456.248L48.32 461.072V464ZM71.4871 461.144C69.6631 461.144 68.1271 459.632 68.1271 457.352V457.304C68.1271 455.024 69.6631 453.512 71.4871 453.512C73.3111 453.512 74.8471 455.024 74.8471 457.304V457.352C74.8471 459.68 73.3111 461.144 71.4871 461.144ZM64.5271 467.984H68.1751V462.2C69.0871 463.304 70.3591 464.264 72.3991 464.264C75.5671 464.264 78.4951 461.792 78.4951 457.352V457.304C78.4951 452.864 75.5191 450.416 72.3991 450.416C70.4071 450.416 69.1111 451.376 68.1751 452.648V450.656H64.5271V467.984ZM83.7688 450.656H79.8568L84.3928 457.208L79.6648 464H83.4808L86.2888 459.704L89.0968 464H93.0088L88.2808 457.16L92.8168 450.656H89.0008L86.3608 454.664L83.7688 450.656Z" fill="#137BC2"/>
<rect x="88" y="558" width="132" height="2" fill="#137BC2"/>
<rect x="581" y="377" width="51" height="2" fill="#137BC2"/>
<path d="M649.168 395.288C653.824 395.288 656.92 391.304 656.92 386.264V386.216C656.92 381.152 653.824 377.24 649.216 377.24C644.584 377.24 641.464 381.224 641.464 386.264V386.312C641.464 391.376 644.512 395.288 649.168 395.288ZM649.216 391.976C646.816 391.976 645.256 389.504 645.256 386.264V386.216C645.256 382.976 646.792 380.552 649.168 380.552C651.544 380.552 653.128 383.048 653.128 386.264V386.312C653.128 389.528 651.616 391.976 649.216 391.976ZM659.539 395H663.427V391.112H659.539V395ZM672.806 395.288C676.79 395.288 679.406 392.96 679.406 389.288V389.24C679.406 385.352 676.694 383.672 673.31 383.672C672.302 383.672 671.63 383.816 670.91 384.008L671.126 380.768H678.638V377.528H667.958L667.454 386.12L669.614 387.56C670.454 387.2 671.462 386.888 672.59 386.888C674.486 386.888 675.782 387.8 675.782 389.36V389.408C675.782 391.016 674.606 391.952 672.758 391.952C671.198 391.952 669.878 391.232 668.534 390.008L666.302 392.672C667.982 394.28 670.046 395.288 672.806 395.288ZM689.776 392.144C687.952 392.144 686.416 390.632 686.416 388.352V388.304C686.416 386.024 687.952 384.512 689.776 384.512C691.6 384.512 693.136 386.024 693.136 388.304V388.352C693.136 390.68 691.6 392.144 689.776 392.144ZM682.816 398.984H686.464V393.2C687.376 394.304 688.648 395.264 690.688 395.264C693.856 395.264 696.784 392.792 696.784 388.352V388.304C696.784 383.864 693.808 381.416 690.688 381.416C688.696 381.416 687.4 382.376 686.464 383.648V381.656H682.816V398.984ZM702.058 381.656H698.146L702.682 388.208L697.954 395H701.77L704.578 390.704L707.386 395H711.298L706.57 388.16L711.106 381.656H707.29L704.65 385.664L702.058 381.656Z" fill="#137BC2"/>
<path d="M538.974 541C538.471 550.697 530.697 558.471 521 558.974V541H538.974Z" fill="#137BC2" fill-opacity="0.3" stroke="#137BC2" stroke-width="2"/>
<path d="M318.974 541C318.471 550.697 310.697 558.471 301 558.974V541H318.974Z" fill="#137BC2" fill-opacity="0.3" stroke="#137BC2" stroke-width="2"/>
<path d="M419 541V558.974C409.303 558.471 401.529 550.697 401.026 541H419Z" fill="#137BC2" fill-opacity="0.3" stroke="#137BC2" stroke-width="2"/>
<path d="M199 541V558.974C189.303 558.471 181.529 550.697 181.026 541H199Z" fill="#137BC2" fill-opacity="0.3" stroke="#137BC2" stroke-width="2"/>
<rect x="520" y="540" width="112" height="2" fill="#137BC2"/>
<path d="M644.536 559H648.184V541.408H645.664L640.696 542.896L641.464 545.92L644.536 545.152V559ZM659.378 556.144C657.554 556.144 656.018 554.632 656.018 552.352V552.304C656.018 550.024 657.554 548.512 659.378 548.512C661.202 548.512 662.738 550.024 662.738 552.304V552.352C662.738 554.68 661.202 556.144 659.378 556.144ZM652.418 562.984H656.066V557.2C656.978 558.304 658.25 559.264 660.29 559.264C663.458 559.264 666.386 556.792 666.386 552.352V552.304C666.386 547.864 663.41 545.416 660.29 545.416C658.298 545.416 657.002 546.376 656.066 547.648V545.656H652.418V562.984ZM671.659 545.656H667.747L672.283 552.208L667.555 559H671.371L674.179 554.704L676.987 559H680.899L676.171 552.16L680.707 545.656H676.891L674.251 549.664L671.659 545.656Z" fill="#137BC2"/>
<rect x="520" y="558" width="112" height="2" fill="#137BC2"/>
<path d="M177.465 663H190.329V659.808H182.577L185.577 657.456C188.673 655.032 190.161 653.568 190.161 650.688V650.64C190.161 647.4 187.761 645.288 184.185 645.288C181.065 645.288 179.409 646.56 177.705 648.912L180.297 650.976C181.593 649.368 182.553 648.576 183.945 648.576C185.361 648.576 186.393 649.416 186.393 650.952C186.393 652.416 185.529 653.4 183.321 655.248L177.465 660.072V663ZM200.632 660.144C198.808 660.144 197.272 658.632 197.272 656.352V656.304C197.272 654.024 198.808 652.512 200.632 652.512C202.456 652.512 203.992 654.024 203.992 656.304V656.352C203.992 658.68 202.456 660.144 200.632 660.144ZM193.672 666.984H197.32V661.2C198.232 662.304 199.504 663.264 201.544 663.264C204.712 663.264 207.64 660.792 207.64 656.352V656.304C207.64 651.864 204.664 649.416 201.544 649.416C199.552 649.416 198.256 650.376 197.32 651.648V649.656H193.672V666.984ZM212.913 649.656H209.001L213.537 656.208L208.809 663H212.625L215.433 658.704L218.241 663H222.153L217.425 656.16L221.961 649.656H218.145L215.505 653.664L212.913 649.656Z" fill="#137BC2"/>
<rect x="218" y="520" width="2" height="112" fill="#137BC2"/>
<rect x="180" y="520" width="2" height="112" fill="#137BC2"/>
<path d="M295.235 664H298.883V646.408H296.363L291.395 647.896L292.163 650.92L295.235 650.152V664ZM310.077 661.144C308.253 661.144 306.717 659.632 306.717 657.352V657.304C306.717 655.024 308.253 653.512 310.077 653.512C311.901 653.512 313.437 655.024 313.437 657.304V657.352C313.437 659.68 311.901 661.144 310.077 661.144ZM303.117 667.984H306.765V662.2C307.677 663.304 308.949 664.264 310.989 664.264C314.157 664.264 317.085 661.792 317.085 657.352V657.304C317.085 652.864 314.109 650.416 310.989 650.416C308.997 650.416 307.701 651.376 306.765 652.648V650.656H303.117V667.984ZM322.359 650.656H318.447L322.983 657.208L318.255 664H322.071L324.879 659.704L327.687 664H331.599L326.871 657.16L331.407 650.656H327.591L324.951 654.664L322.359 650.656Z" fill="#137BC2"/>
<rect x="318" y="540" width="2" height="92" fill="#137BC2"/>
<rect x="300" y="540" width="2" height="92" fill="#137BC2"/>
<path d="M395.235 664H398.883V646.408H396.363L391.395 647.896L392.163 650.92L395.235 650.152V664ZM410.077 661.144C408.253 661.144 406.717 659.632 406.717 657.352V657.304C406.717 655.024 408.253 653.512 410.077 653.512C411.901 653.512 413.437 655.024 413.437 657.304V657.352C413.437 659.68 411.901 661.144 410.077 661.144ZM403.117 667.984H406.765V662.2C407.677 663.304 408.949 664.264 410.989 664.264C414.157 664.264 417.085 661.792 417.085 657.352V657.304C417.085 652.864 414.109 650.416 410.989 650.416C408.997 650.416 407.701 651.376 406.765 652.648V650.656H403.117V667.984ZM422.359 650.656H418.447L422.983 657.208L418.255 664H422.071L424.879 659.704L427.687 664H431.599L426.871 657.16L431.407 650.656H427.591L424.951 654.664L422.359 650.656Z" fill="#137BC2"/>
<rect x="418" y="540" width="2" height="92" fill="#137BC2"/>
<rect x="400" y="540" width="2" height="92" fill="#137BC2"/>
<rect x="581" y="395" width="51" height="2" fill="#137BC2"/>
<path d="M369 166C369 170.971 364.971 175 360 175C355.029 175 351 170.971 351 166C351 161.029 355.029 157 360 157C364.971 157 369 161.029 369 166Z" fill="#137BC2" fill-opacity="0.3" stroke="#137BC2" stroke-width="2"/>
<rect x="360" y="156" width="272" height="2" fill="#137BC2"/>
<path d="M649.168 174.288C653.824 174.288 656.92 170.304 656.92 165.264V165.216C656.92 160.152 653.824 156.24 649.216 156.24C644.584 156.24 641.464 160.224 641.464 165.264V165.312C641.464 170.376 644.512 174.288 649.168 174.288ZM649.216 170.976C646.816 170.976 645.256 168.504 645.256 165.264V165.216C645.256 161.976 646.792 159.552 649.168 159.552C651.544 159.552 653.128 162.048 653.128 165.264V165.312C653.128 168.528 651.616 170.976 649.216 170.976ZM659.539 174H663.427V170.112H659.539V174ZM672.806 174.288C676.79 174.288 679.406 171.96 679.406 168.288V168.24C679.406 164.352 676.694 162.672 673.31 162.672C672.302 162.672 671.63 162.816 670.91 163.008L671.126 159.768H678.638V156.528H667.958L667.454 165.12L669.614 166.56C670.454 166.2 671.462 165.888 672.59 165.888C674.486 165.888 675.782 166.8 675.782 168.36V168.408C675.782 170.016 674.606 170.952 672.758 170.952C671.198 170.952 669.878 170.232 668.534 169.008L666.302 171.672C667.982 173.28 670.046 174.288 672.806 174.288ZM689.776 171.144C687.952 171.144 686.416 169.632 686.416 167.352V167.304C686.416 165.024 687.952 163.512 689.776 163.512C691.6 163.512 693.136 165.024 693.136 167.304V167.352C693.136 169.68 691.6 171.144 689.776 171.144ZM682.816 177.984H686.464V172.2C687.376 173.304 688.648 174.264 690.688 174.264C693.856 174.264 696.784 171.792 696.784 167.352V167.304C696.784 162.864 693.808 160.416 690.688 160.416C688.696 160.416 687.4 161.376 686.464 162.648V160.656H682.816V177.984ZM702.058 160.656H698.146L702.682 167.208L697.954 174H701.77L704.578 169.704L707.386 174H711.298L706.57 167.16L711.106 160.656H707.29L704.65 164.664L702.058 160.656Z" fill="#137BC2"/>
<rect x="360" y="174" width="272" height="2" fill="#137BC2"/>
<rect width="2" height="239.996" transform="matrix(-0.707107 -0.707107 -0.707107 0.707107 247.627 267.627)" fill="#137BC2"/>
<rect width="2" height="239.996" transform="matrix(-0.707107 -0.707107 -0.707107 0.707107 274.497 294.497)" fill="#137BC2"/>
</svg>
