<svg xmlns="http://www.w3.org/2000/svg" xmlns:xlink="http://www.w3.org/1999/xlink" width="264" height="264" viewBox="0 0 264 264">
  <defs>
    <circle id="example-4-a" cx="72.8" cy="77.7" r="3.5"/>
    <circle id="example-4-b" cx="77.7" cy="72.8" r="3.5"/>
    <circle id="example-4-c" cx="3.5" cy="72.8" r="3.5"/>
    <circle id="example-4-d" cx="8.4" cy="77.7" r="3.5"/>
    <circle id="example-4-e" cx="8.4" cy="3.5" r="3.5"/>
    <circle id="example-4-f" cx="72.8" cy="3.5" r="3.5"/>
    <circle id="example-4-g" cx="77.7" cy="8.4" r="3.5"/>
    <circle id="example-4-h" cx="3.5" cy="8.4" r="3.5"/>
  </defs>
  <g fill="none" fill-rule="evenodd" transform="translate(28 35)">
    <g transform="translate(20 13)">
      <rect width="168" height="169.05" fill="#FFF"/>
      <g stroke="#000" stroke-width=".5" opacity=".4">
        <g opacity=".2">
          <rect width="7" height="168" x="161"/>
          <rect width="7" height="168" x="154"/>
          <rect width="7" height="168" x="147"/>
          <rect width="7" height="168" x="140"/>
          <rect width="7" height="168" x="133"/>
          <rect width="7" height="168" x="126"/>
          <rect width="7" height="168" x="119"/>
          <rect width="7" height="168" x="112"/>
          <rect width="7" height="168" x="105"/>
          <rect width="7" height="168" x="98"/>
          <rect width="7" height="168" x="91"/>
          <rect width="7" height="168" x="84"/>
          <rect width="7" height="168" x="77"/>
          <rect width="7" height="168" x="70"/>
          <rect width="7" height="168" x="63"/>
          <rect width="7" height="168" x="56"/>
          <rect width="7" height="168" x="49"/>
          <rect width="7" height="168" x="42"/>
          <rect width="7" height="168" x="35"/>
          <rect width="7" height="168" x="28"/>
          <rect width="7" height="168" x="21"/>
          <rect width="7" height="168" x="14"/>
          <rect width="7" height="168" x="7"/>
          <rect width="7" height="168"/>
        </g>
        <g opacity=".2" transform="rotate(90 84 84)">
          <rect width="7" height="168" x="161"/>
          <rect width="7" height="168" x="154"/>
          <rect width="7" height="168" x="147"/>
          <rect width="7" height="168" x="140"/>
          <rect width="7" height="168" x="133"/>
          <rect width="7" height="168" x="126"/>
          <rect width="7" height="168" x="119"/>
          <rect width="7" height="168" x="112"/>
          <rect width="7" height="168" x="105"/>
          <rect width="7" height="168" x="98"/>
          <rect width="7" height="168" x="91"/>
          <rect width="7" height="168" x="84"/>
          <rect width="7" height="168" x="77"/>
          <rect width="7" height="168" x="70"/>
          <rect width="7" height="168" x="63"/>
          <rect width="7" height="168" x="56"/>
          <rect width="7" height="168" x="49"/>
          <rect width="7" height="168" x="42"/>
          <rect width="7" height="168" x="35"/>
          <rect width="7" height="168" x="28"/>
          <rect width="7" height="168" x="21"/>
          <rect width="7" height="168" x="14"/>
          <rect width="7" height="168" x="7"/>
          <rect width="7" height="168"/>
        </g>
      </g>
      <rect width="166" height="166" x="1" y="1" stroke="#AAA" stroke-width="2"/>
    </g>
    <g opacity=".4" transform="translate(19.2 12.3)">
      <rect width="168" height="168" x=".8" y=".7"/>
      <path fill="#000" fill-rule="nonzero" d="M124.525126,50.3951263 L119.604874,45.4748737 C118.238039,44.1080387 116.021961,44.1080387 114.655126,45.4748737 L85,75.13 L55.3448737,45.4748737 C53.9780387,44.1080387 51.7619613,44.1080387 50.3951263,45.4748737 L45.4748737,50.3951263 C44.1080387,51.7619613 44.1080387,53.9780387 45.4748737,55.3448737 L75.13,85 L45.4748737,114.655126 C44.1080387,116.021961 44.1080387,118.238039 45.4748737,119.604874 L50.3951263,124.525126 C51.7619613,125.891961 53.9780387,125.891961 55.3448737,124.525126 L85,94.87 L114.655126,124.525126 C116.021961,125.891961 118.238039,125.891961 119.604874,124.525126 L124.525126,119.604874 C125.891961,118.238039 125.891961,116.021961 124.525126,114.655126 L94.87,85 L124.525126,55.3448737 C125.891961,53.9780387 125.891961,51.7619613 124.525126,50.3951263 Z"/>
    </g>
    <g transform="translate(63.6 56.7)">
      <use fill="#137BC2" fill-opacity=".3" xlink:href="#example-4-a"/>
      <circle cx="72.8" cy="77.7" r="3.15" stroke="#137BC2" stroke-width=".7"/>
      <use fill="#137BC2" fill-opacity=".3" xlink:href="#example-4-b"/>
      <circle cx="77.7" cy="72.8" r="3.15" stroke="#137BC2" stroke-width=".7"/>
      <use fill="#137BC2" fill-opacity=".3" xlink:href="#example-4-c"/>
      <circle cx="3.5" cy="72.8" r="3.15" stroke="#137BC2" stroke-width=".7"/>
      <use fill="#137BC2" fill-opacity=".3" xlink:href="#example-4-d"/>
      <circle cx="8.4" cy="77.7" r="3.15" stroke="#137BC2" stroke-width=".7"/>
      <g>
        <use fill="#137BC2" fill-opacity=".3" xlink:href="#example-4-e"/>
        <circle cx="8.4" cy="3.5" r="3.15" stroke="#137BC2" stroke-width=".7"/>
      </g>
      <g>
        <use fill="#137BC2" fill-opacity=".3" xlink:href="#example-4-f"/>
        <circle cx="72.8" cy="3.5" r="3.15" stroke="#137BC2" stroke-width=".7"/>
      </g>
      <g>
        <use fill="#137BC2" fill-opacity=".3" xlink:href="#example-4-g"/>
        <circle cx="77.7" cy="8.4" r="3.15" stroke="#137BC2" stroke-width=".7"/>
      </g>
      <g>
        <use fill="#137BC2" fill-opacity=".3" xlink:href="#example-4-h"/>
        <circle cx="3.5" cy="8.4" r="3.15" stroke="#137BC2" stroke-width=".7"/>
      </g>
      <rect width="63.7" height="1" x="77.7" y="4.9" fill="#137BC2"/>
      <path fill="#137BC2" d="M147.081,11.596 C145.529,11.596 144.513,10.292 144.513,8.604 L144.513,8.588 C144.513,6.908 145.553,5.58 147.097,5.58 C148.633,5.58 149.665,6.884 149.665,8.572 L149.665,8.588 C149.665,10.268 148.633,11.596 147.081,11.596 Z M147.097,10.492 C147.897,10.492 148.401,9.676 148.401,8.604 L148.401,8.588 C148.401,7.516 147.873,6.684 147.081,6.684 C146.289,6.684 145.777,7.492 145.777,8.572 L145.777,8.588 C145.777,9.668 146.297,10.492 147.097,10.492 Z M150.545,11.5 L150.545,10.204 L151.841,10.204 L151.841,11.5 L150.545,11.5 Z M154.969,11.596 C154.049,11.596 153.361,11.26 152.801,10.724 L153.545,9.836 C153.993,10.244 154.433,10.484 154.953,10.484 C155.569,10.484 155.961,10.172 155.961,9.636 L155.961,9.62 C155.961,9.1 155.529,8.796 154.897,8.796 C154.521,8.796 154.185,8.9 153.905,9.02 L153.185,8.54 L153.353,5.676 L156.913,5.676 L156.913,6.756 L154.409,6.756 L154.337,7.836 C154.577,7.772 154.801,7.724 155.137,7.724 C156.265,7.724 157.169,8.284 157.169,9.58 L157.169,9.596 C157.169,10.82 156.297,11.596 154.969,11.596 Z M160.625,10.548 C161.233,10.548 161.745,10.06 161.745,9.284 L161.745,9.268 C161.745,8.508 161.233,8.004 160.625,8.004 C160.017,8.004 159.505,8.508 159.505,9.268 L159.505,9.284 C159.505,10.044 160.017,10.548 160.625,10.548 Z M158.305,12.828 L158.305,7.052 L159.521,7.052 L159.521,7.716 C159.833,7.292 160.265,6.972 160.929,6.972 C161.969,6.972 162.961,7.788 162.961,9.268 L162.961,9.284 C162.961,10.764 161.985,11.588 160.929,11.588 C160.249,11.588 159.825,11.268 159.521,10.9 L159.521,12.828 L158.305,12.828 Z M164.721,7.052 L165.585,8.388 L166.465,7.052 L167.737,7.052 L166.225,9.22 L167.801,11.5 L166.497,11.5 L165.561,10.068 L164.625,11.5 L163.353,11.5 L164.929,9.236 L163.417,7.052 L164.721,7.052 Z"/>
      <rect width="63.7" height="1" x="77.7" y="11.2" fill="#137BC2"/>
    </g>
    <g fill="#137BC2" transform="rotate(-45 21.588 -5.943)">
      <rect width="1" height="118.544" x="13.3"/>
      <rect width="1" height="118.544"/>
    </g>
    <path fill="#137BC2" d="M1.306,8.30452019 L1.306,7.32852019 L3.258,5.72052019 C3.994,5.10452019 4.282,4.77652019 4.282,4.28852019 C4.282,3.77652019 3.938,3.49652019 3.466,3.49652019 C3.002,3.49652019 2.682,3.76052019 2.25,4.29652019 L1.386,3.60852019 C1.954,2.82452019 2.506,2.40052019 3.546,2.40052019 C4.738,2.40052019 5.538,3.10452019 5.538,4.18452019 L5.538,4.20052019 C5.538,5.16052019 5.042,5.64852019 4.01,6.45652019 L3.01,7.24052019 L5.594,7.24052019 L5.594,8.30452019 L1.306,8.30452019 Z M9.026,7.35252019 C9.634,7.35252019 10.146,6.86452019 10.146,6.08852019 L10.146,6.07252019 C10.146,5.31252019 9.634,4.80852019 9.026,4.80852019 C8.418,4.80852019 7.906,5.31252019 7.906,6.07252019 L7.906,6.08852019 C7.906,6.84852019 8.418,7.35252019 9.026,7.35252019 Z M6.706,9.63252019 L6.706,3.85652019 L7.922,3.85652019 L7.922,4.52052019 C8.234,4.09652019 8.666,3.77652019 9.33,3.77652019 C10.37,3.77652019 11.362,4.59252019 11.362,6.07252019 L11.362,6.08852019 C11.362,7.56852019 10.386,8.39252019 9.33,8.39252019 C8.65,8.39252019 8.226,8.07252019 7.922,7.70452019 L7.922,9.63252019 L6.706,9.63252019 Z M13.122,3.85652019 L13.986,5.19252019 L14.866,3.85652019 L16.138,3.85652019 L14.626,6.02452019 L16.202,8.30452019 L14.898,8.30452019 L13.962,6.87252019 L13.026,8.30452019 L11.754,8.30452019 L13.33,6.04052019 L11.818,3.85652019 L13.122,3.85652019 Z"/>
  </g>
</svg>
