<svg xmlns="http://www.w3.org/2000/svg" xmlns:xlink="http://www.w3.org/1999/xlink" width="264" height="264" viewBox="0 0 264 264">
  <defs>
    <rect id="example-6-a" width="168" height="168"/>
    <circle id="example-6-c" cx="42.788" cy="133.65" r="3.5"/>
    <circle id="example-6-d" cx="47.775" cy="138.55" r="3.5"/>
    <circle id="example-6-e" cx="197.313" cy="133.65" r="3.5"/>
    <circle id="example-6-f" cx="192.412" cy="138.55" r="3.5"/>
    <path id="example-6-g" d="M183.05,194.2 L183.05,187.2 C179.184007,187.2 176.05,190.334007 176.05,194.2 L183.05,194.2 Z"/>
    <path id="example-6-h" d="M106.05,194.2 L106.05,187.2 C102.184007,187.2 99.05,190.334007 99.05,194.2 L106.05,194.2 Z"/>
    <path id="example-6-i" d="M141.05,187.2 L141.05,194.2 C137.184007,194.2 134.05,191.065993 134.05,187.2 L141.05,187.2 Z"/>
    <path id="example-6-j" d="M64.05,187.2 L64.05,194.2 C60.1840068,194.2 57.05,191.065993 57.05,187.2 L64.05,187.2 Z"/>
    <circle id="example-6-k" cx="120.05" cy="56.3" r="3.5"/>
  </defs>
  <g fill="none" fill-rule="evenodd" transform="translate(12 8)">
    <g transform="translate(36.05 40.2)">
      <mask id="example-6-b" fill="#fff">
        <use xlink:href="#example-6-a"/>
      </mask>
      <g mask="url(#example-6-b)">
        <rect width="168" height="169.05" fill="#FFF"/>
        <g stroke="#000" stroke-width=".5" opacity=".4">
          <g opacity=".2">
            <rect width="7" height="168" x="161"/>
            <rect width="7" height="168" x="154"/>
            <rect width="7" height="168" x="147"/>
            <rect width="7" height="168" x="140"/>
            <rect width="7" height="168" x="133"/>
            <rect width="7" height="168" x="126"/>
            <rect width="7" height="168" x="119"/>
            <rect width="7" height="168" x="112"/>
            <rect width="7" height="168" x="105"/>
            <rect width="7" height="168" x="98"/>
            <rect width="7" height="168" x="91"/>
            <rect width="7" height="168" x="84"/>
            <rect width="7" height="168" x="77"/>
            <rect width="7" height="168" x="70"/>
            <rect width="7" height="168" x="63"/>
            <rect width="7" height="168" x="56"/>
            <rect width="7" height="168" x="49"/>
            <rect width="7" height="168" x="42"/>
            <rect width="7" height="168" x="35"/>
            <rect width="7" height="168" x="28"/>
            <rect width="7" height="168" x="21"/>
            <rect width="7" height="168" x="14"/>
            <rect width="7" height="168" x="7"/>
            <rect width="7" height="168"/>
          </g>
          <g opacity=".2" transform="rotate(90 84 84)">
            <rect width="7" height="168" x="161"/>
            <rect width="7" height="168" x="154"/>
            <rect width="7" height="168" x="147"/>
            <rect width="7" height="168" x="140"/>
            <rect width="7" height="168" x="133"/>
            <rect width="7" height="168" x="126"/>
            <rect width="7" height="168" x="119"/>
            <rect width="7" height="168" x="112"/>
            <rect width="7" height="168" x="105"/>
            <rect width="7" height="168" x="98"/>
            <rect width="7" height="168" x="91"/>
            <rect width="7" height="168" x="84"/>
            <rect width="7" height="168" x="77"/>
            <rect width="7" height="168" x="70"/>
            <rect width="7" height="168" x="63"/>
            <rect width="7" height="168" x="56"/>
            <rect width="7" height="168" x="49"/>
            <rect width="7" height="168" x="42"/>
            <rect width="7" height="168" x="35"/>
            <rect width="7" height="168" x="28"/>
            <rect width="7" height="168" x="21"/>
            <rect width="7" height="168" x="14"/>
            <rect width="7" height="168" x="7"/>
            <rect width="7" height="168"/>
          </g>
        </g>
        <rect width="166" height="166" x="1" y="1" stroke="#AAA" stroke-width="2"/>
      </g>
      <g stroke="#000" mask="url(#example-6-b)">
        <g stroke-width=".5" opacity=".3">
          <path d="M0,0 L168,168" transform="matrix(-1 0 0 1 168 0)"/>
          <path d="M0,0 L168,168"/>
          <circle cx="84" cy="84" r="35"/>
          <path d="M84 0L84 168.4375M112 0L112 168.4375M0 84L168 84M0 112L168 112M0 56L168 56"/>
        </g>
        <g stroke-width=".5" opacity=".7" transform="translate(14 14)">
          <circle cx="70" cy="70" r="70"/>
          <rect width="140" height="112" y="14" rx="32"/>
          <rect width="112" height="140" x="14" rx="32"/>
          <rect width="126" height="126" x="7" y="7" rx="32" transform="rotate(90 70 70)"/>
        </g>
      </g>
    </g>
    <g opacity=".4" transform="translate(36.05 40.2)">
      <rect width="168" height="168" x="-.05" y="-.2"/>
      <path fill="#000" fill-rule="nonzero" d="M147,93.9192421 L147,147.0035 C147,150.869493 143.865993,154.0035 140,154.0035 L105,154.0035 C101.134007,154.0035 98,150.869493 98,147.0035 L98,119 C98,111.268014 91.7319865,105 84,105 C76.2680135,105 70,111.268014 70,119 L70,147.0035 C70,150.869493 66.8659932,154.0035 63,154.0035 L28,154.0035 C24.1340068,154.0035 21,150.869493 21,147.0035 L21,93.9984452 L14.1686923,100.829753 C12.8018572,102.196588 10.5857798,102.196588 9.21894479,100.829753 L4.26921082,95.8800341 C2.9023758,94.513199 2.9023758,92.2971216 4.26921082,90.9302866 L81.5264931,13.6762406 C82.8927957,12.3099463 85.1078135,12.3093382 86.4748662,13.6748821 L163.820196,90.9298768 C165.187786,92.295957 165.189009,94.5120341 163.822929,95.8796235 C163.822558,95.8799951 163.822187,95.8803667 163.821815,95.8807381 L158.869228,100.829623 C157.503017,102.196112 155.287897,102.196894 153.920723,100.831369 L147,93.9192421 Z M133,79.9366316 L84.0004753,30.9979698 L35,79.9984452 L35,140.0035 L56,140.0035 L56,119 C56,103.536027 68.536027,91 84,91 C99.463973,91 112,103.536027 112,119 L112,140.0035 L133,140.0035 L133,79.9366316 Z"/>
    </g>
    <path fill="#137BC2" d="M11.403,12 L11.403,3.264 L13.239,3.264 L13.239,7.2 L16.887,3.264 L19.155,3.264 L15.567,6.984 L19.311,12 L17.091,12 L14.319,8.244 L13.239,9.36 L13.239,12 L11.403,12 Z M23.163,12.144 C21.171,12.144 19.695,10.74 19.695,8.7 L19.695,8.676 C19.695,6.768 21.051,5.208 22.983,5.208 C25.191,5.208 26.223,6.924 26.223,8.82 C26.223,8.964 26.211,9.132 26.199,9.3 L21.507,9.3 C21.687,10.212 22.311,10.68 23.187,10.68 C23.847,10.68 24.315,10.476 24.843,9.984 L25.887,10.908 C25.263,11.676 24.375,12.144 23.163,12.144 Z M21.483,8.16 L24.447,8.16 C24.327,7.284 23.823,6.672 22.983,6.672 C22.167,6.672 21.627,7.26 21.483,8.16 Z M30.351,9.948 L31.863,5.328 L33.759,5.328 L31.179,12.168 C30.663,13.524 30.111,14.04 28.983,14.04 C28.311,14.04 27.807,13.86 27.327,13.584 L27.939,12.264 C28.191,12.408 28.503,12.516 28.767,12.516 C29.115,12.516 29.295,12.408 29.487,12.024 L26.835,5.328 L28.767,5.328 L30.351,9.948 Z M35.103,12 L35.103,2.892 L36.915,2.892 L36.915,12 L35.103,12 Z M38.871,4.536 L38.871,2.904 L40.791,2.904 L40.791,4.536 L38.871,4.536 Z M38.931,12 L38.931,5.328 L40.743,5.328 L40.743,12 L38.931,12 Z M42.663,12 L42.663,5.328 L44.487,5.328 L44.487,6.288 C44.919,5.724 45.495,5.208 46.467,5.208 C47.907,5.208 48.759,6.156 48.759,7.692 L48.759,12 L46.935,12 L46.935,8.268 C46.935,7.344 46.491,6.852 45.735,6.852 C44.979,6.852 44.487,7.344 44.487,8.268 L44.487,12 L42.663,12 Z M53.667,12.144 C51.675,12.144 50.199,10.74 50.199,8.7 L50.199,8.676 C50.199,6.768 51.555,5.208 53.487,5.208 C55.695,5.208 56.727,6.924 56.727,8.82 C56.727,8.964 56.715,9.132 56.703,9.3 L52.011,9.3 C52.191,10.212 52.815,10.68 53.691,10.68 C54.351,10.68 54.819,10.476 55.347,9.984 L56.391,10.908 C55.767,11.676 54.879,12.144 53.667,12.144 Z M51.987,8.16 L54.951,8.16 C54.831,7.284 54.327,6.672 53.487,6.672 C52.671,6.672 52.131,7.26 51.987,8.16 Z M64.419,12.12 C63.483,12.12 62.439,11.808 61.563,11.124 L62.355,9.912 C63.075,10.44 63.843,10.716 64.467,10.716 C65.043,10.716 65.319,10.5 65.319,10.176 L65.319,10.152 C65.319,9.72 64.659,9.576 63.915,9.348 C62.967,9.072 61.899,8.64 61.899,7.356 L61.899,7.332 C61.899,5.988 62.991,5.232 64.335,5.232 C65.175,5.232 66.087,5.52 66.807,6 L66.111,7.26 C65.451,6.876 64.791,6.636 64.287,6.636 C63.807,6.636 63.543,6.852 63.543,7.14 L63.543,7.164 C63.543,7.56 64.203,7.74 64.935,7.992 C65.871,8.292 66.963,8.736 66.963,9.96 L66.963,9.984 C66.963,11.448 65.859,12.12 64.419,12.12 Z M68.451,12 L68.451,2.892 L70.275,2.892 L70.275,6.288 C70.707,5.724 71.283,5.208 72.255,5.208 C73.695,5.208 74.547,6.156 74.547,7.692 L74.547,12 L72.723,12 L72.723,8.268 C72.723,7.344 72.279,6.852 71.523,6.852 C70.767,6.852 70.275,7.344 70.275,8.268 L70.275,12 L68.451,12 Z M78.759,10.86 C79.671,10.86 80.295,10.356 80.295,9.636 L80.295,9.276 C79.959,9.132 79.515,9.024 79.023,9.024 C78.183,9.024 77.667,9.372 77.667,9.984 L77.667,10.008 C77.667,10.548 78.123,10.86 78.759,10.86 Z M78.219,12.132 C76.959,12.132 75.903,11.4 75.903,10.08 L75.903,10.056 C75.903,8.604 77.019,7.932 78.603,7.932 C79.299,7.932 79.791,8.04 80.271,8.196 L80.271,8.076 C80.271,7.26 79.767,6.816 78.795,6.816 C78.075,6.816 77.547,6.96 76.935,7.188 L76.479,5.796 C77.211,5.472 77.943,5.256 79.059,5.256 C80.079,5.256 80.823,5.532 81.303,6 C81.795,6.492 82.023,7.224 82.023,8.112 L82.023,12 L80.259,12 L80.259,11.256 C79.803,11.772 79.155,12.132 78.219,12.132 Z M87.267,10.572 C88.179,10.572 88.947,9.84 88.947,8.676 L88.947,8.652 C88.947,7.512 88.179,6.756 87.267,6.756 C86.355,6.756 85.587,7.512 85.587,8.652 L85.587,8.676 C85.587,9.816 86.355,10.572 87.267,10.572 Z M83.787,13.992 L83.787,5.328 L85.611,5.328 L85.611,6.324 C86.079,5.688 86.727,5.208 87.723,5.208 C89.283,5.208 90.771,6.432 90.771,8.652 L90.771,8.676 C90.771,10.896 89.307,12.132 87.723,12.132 C86.703,12.132 86.067,11.652 85.611,11.1 L85.611,13.992 L83.787,13.992 Z M95.439,12.144 C93.447,12.144 91.971,10.74 91.971,8.7 L91.971,8.676 C91.971,6.768 93.327,5.208 95.259,5.208 C97.467,5.208 98.499,6.924 98.499,8.82 C98.499,8.964 98.487,9.132 98.475,9.3 L93.783,9.3 C93.963,10.212 94.587,10.68 95.463,10.68 C96.123,10.68 96.591,10.476 97.119,9.984 L98.163,10.908 C97.539,11.676 96.651,12.144 95.439,12.144 Z M93.759,8.16 L96.723,8.16 C96.603,7.284 96.099,6.672 95.259,6.672 C94.443,6.672 93.903,7.26 93.759,8.16 Z M102.351,12.12 C101.415,12.12 100.371,11.808 99.495,11.124 L100.287,9.912 C101.007,10.44 101.775,10.716 102.399,10.716 C102.975,10.716 103.251,10.5 103.251,10.176 L103.251,10.152 C103.251,9.72 102.591,9.576 101.847,9.348 C100.899,9.072 99.831,8.64 99.831,7.356 L99.831,7.332 C99.831,5.988 100.923,5.232 102.267,5.232 C103.107,5.232 104.019,5.52 104.739,6 L104.043,7.26 C103.383,6.876 102.723,6.636 102.219,6.636 C101.739,6.636 101.475,6.852 101.475,7.14 L101.475,7.164 C101.475,7.56 102.135,7.74 102.867,7.992 C103.803,8.292 104.895,8.736 104.895,9.96 L104.895,9.984 C104.895,11.448 103.791,12.12 102.351,12.12 Z M112.671,10.86 C113.583,10.86 114.207,10.356 114.207,9.636 L114.207,9.276 C113.871,9.132 113.427,9.024 112.935,9.024 C112.095,9.024 111.579,9.372 111.579,9.984 L111.579,10.008 C111.579,10.548 112.035,10.86 112.671,10.86 Z M112.131,12.132 C110.871,12.132 109.815,11.4 109.815,10.08 L109.815,10.056 C109.815,8.604 110.931,7.932 112.515,7.932 C113.211,7.932 113.703,8.04 114.183,8.196 L114.183,8.076 C114.183,7.26 113.679,6.816 112.707,6.816 C111.987,6.816 111.459,6.96 110.847,7.188 L110.391,5.796 C111.123,5.472 111.855,5.256 112.971,5.256 C113.991,5.256 114.735,5.532 115.215,6 C115.707,6.492 115.935,7.224 115.935,8.112 L115.935,12 L114.171,12 L114.171,11.256 C113.715,11.772 113.067,12.132 112.131,12.132 Z M117.699,12 L117.699,5.328 L119.523,5.328 L119.523,6.708 C119.919,5.772 120.567,5.16 121.695,5.208 L121.695,7.116 L121.599,7.116 C120.327,7.116 119.523,7.896 119.523,9.516 L119.523,12 L117.699,12 Z M125.955,12.144 C123.963,12.144 122.487,10.74 122.487,8.7 L122.487,8.676 C122.487,6.768 123.843,5.208 125.775,5.208 C127.983,5.208 129.015,6.924 129.015,8.82 C129.015,8.964 129.003,9.132 128.991,9.3 L124.299,9.3 C124.479,10.212 125.103,10.68 125.979,10.68 C126.639,10.68 127.107,10.476 127.635,9.984 L128.679,10.908 C128.055,11.676 127.167,12.144 125.955,12.144 Z M124.275,8.16 L127.239,8.16 C127.119,7.284 126.615,6.672 125.775,6.672 C124.959,6.672 124.419,7.26 124.275,8.16 Z M134.415,4.536 L134.415,2.904 L136.335,2.904 L136.335,4.536 L134.415,4.536 Z M134.187,14.04 C133.851,14.04 133.647,14.016 133.383,13.956 L133.383,12.528 C133.539,12.552 133.659,12.576 133.791,12.576 C134.187,12.576 134.475,12.348 134.475,11.784 L134.475,5.328 L136.287,5.328 L136.287,11.928 C136.287,13.368 135.555,14.04 134.187,14.04 Z M140.439,12.132 C138.999,12.132 138.159,11.172 138.159,9.636 L138.159,5.328 L139.971,5.328 L139.971,9.06 C139.971,9.984 140.415,10.476 141.171,10.476 C141.927,10.476 142.419,9.984 142.419,9.06 L142.419,5.328 L144.243,5.328 L144.243,12 L142.419,12 L142.419,11.04 C141.987,11.616 141.411,12.132 140.439,12.132 Z M148.395,12.12 C147.459,12.12 146.415,11.808 145.539,11.124 L146.331,9.912 C147.051,10.44 147.819,10.716 148.443,10.716 C149.019,10.716 149.295,10.5 149.295,10.176 L149.295,10.152 C149.295,9.72 148.635,9.576 147.891,9.348 C146.943,9.072 145.875,8.64 145.875,7.356 L145.875,7.332 C145.875,5.988 146.967,5.232 148.311,5.232 C149.151,5.232 150.063,5.52 150.783,6 L150.087,7.26 C149.427,6.876 148.767,6.636 148.263,6.636 C147.783,6.636 147.519,6.852 147.519,7.14 L147.519,7.164 C147.519,7.56 148.179,7.74 148.911,7.992 C149.847,8.292 150.939,8.736 150.939,9.96 L150.939,9.984 C150.939,11.448 149.835,12.12 148.395,12.12 Z M154.563,12.108 C153.411,12.108 152.619,11.652 152.619,10.116 L152.619,6.888 L151.815,6.888 L151.815,5.328 L152.619,5.328 L152.619,3.6 L154.443,3.6 L154.443,5.328 L156.051,5.328 L156.051,6.888 L154.443,6.888 L154.443,9.816 C154.443,10.284 154.647,10.5 155.091,10.5 C155.439,10.5 155.751,10.416 156.027,10.272 L156.027,11.736 C155.631,11.964 155.187,12.108 154.563,12.108 Z M164.607,9.948 C165.555,9.948 166.299,9.288 166.299,8.34 L166.299,8.316 C166.299,7.368 165.555,6.72 164.607,6.72 C163.659,6.72 162.939,7.368 162.939,8.316 L162.939,8.34 C162.939,9.3 163.659,9.948 164.607,9.948 Z M164.403,14.016 C163.323,14.016 162.291,13.764 161.451,13.308 L162.075,11.94 C162.771,12.336 163.467,12.564 164.355,12.564 C165.663,12.564 166.299,11.928 166.299,10.704 L166.299,10.344 C165.735,11.028 165.111,11.46 164.091,11.46 C162.531,11.46 161.115,10.32 161.115,8.34 L161.115,8.316 C161.115,6.336 162.555,5.208 164.091,5.208 C165.135,5.208 165.759,5.652 166.275,6.228 L166.275,5.328 L168.099,5.328 L168.099,10.524 C168.099,11.7 167.811,12.564 167.247,13.128 C166.635,13.74 165.675,14.016 164.403,14.016 Z M172.155,12.132 C170.715,12.132 169.875,11.172 169.875,9.636 L169.875,5.328 L171.687,5.328 L171.687,9.06 C171.687,9.984 172.131,10.476 172.887,10.476 C173.643,10.476 174.135,9.984 174.135,9.06 L174.135,5.328 L175.959,5.328 L175.959,12 L174.135,12 L174.135,11.04 C173.703,11.616 173.127,12.132 172.155,12.132 Z M177.819,4.536 L177.819,2.904 L179.739,2.904 L179.739,4.536 L177.819,4.536 Z M177.879,12 L177.879,5.328 L179.691,5.328 L179.691,12 L177.879,12 Z M184.815,10.572 C185.727,10.572 186.495,9.816 186.495,8.676 L186.495,8.652 C186.495,7.512 185.727,6.756 184.815,6.756 C183.903,6.756 183.135,7.488 183.135,8.652 L183.135,8.676 C183.135,9.816 183.903,10.572 184.815,10.572 Z M184.359,12.132 C182.799,12.132 181.311,10.908 181.311,8.676 L181.311,8.652 C181.311,6.432 182.775,5.208 184.359,5.208 C185.379,5.208 186.015,5.676 186.471,6.228 L186.471,2.892 L188.295,2.892 L188.295,12 L186.471,12 L186.471,11.016 C186.003,11.652 185.355,12.132 184.359,12.132 Z M193.263,12.144 C191.271,12.144 189.795,10.74 189.795,8.7 L189.795,8.676 C189.795,6.768 191.151,5.208 193.083,5.208 C195.291,5.208 196.323,6.924 196.323,8.82 C196.323,8.964 196.311,9.132 196.299,9.3 L191.607,9.3 C191.787,10.212 192.411,10.68 193.287,10.68 C193.947,10.68 194.415,10.476 194.943,9.984 L195.987,10.908 C195.363,11.676 194.475,12.144 193.263,12.144 Z M191.583,8.16 L194.547,8.16 C194.427,7.284 193.923,6.672 193.083,6.672 C192.267,6.672 191.727,7.26 191.583,8.16 Z M197.943,12 L197.943,2.892 L199.755,2.892 L199.755,12 L197.943,12 Z M201.711,4.536 L201.711,2.904 L203.631,2.904 L203.631,4.536 L201.711,4.536 Z M201.771,12 L201.771,5.328 L203.583,5.328 L203.583,12 L201.771,12 Z M205.503,12 L205.503,5.328 L207.327,5.328 L207.327,6.288 C207.759,5.724 208.335,5.208 209.307,5.208 C210.747,5.208 211.599,6.156 211.599,7.692 L211.599,12 L209.775,12 L209.775,8.268 C209.775,7.344 209.331,6.852 208.575,6.852 C207.819,6.852 207.327,7.344 207.327,8.268 L207.327,12 L205.503,12 Z M216.507,12.144 C214.515,12.144 213.039,10.74 213.039,8.7 L213.039,8.676 C213.039,6.768 214.395,5.208 216.327,5.208 C218.535,5.208 219.567,6.924 219.567,8.82 C219.567,8.964 219.555,9.132 219.543,9.3 L214.851,9.3 C215.031,10.212 215.655,10.68 216.531,10.68 C217.191,10.68 217.659,10.476 218.187,9.984 L219.231,10.908 C218.607,11.676 217.719,12.144 216.507,12.144 Z M214.827,8.16 L217.791,8.16 C217.671,7.284 217.167,6.672 216.327,6.672 C215.511,6.672 214.971,7.26 214.827,8.16 Z M223.419,12.12 C222.483,12.12 221.439,11.808 220.563,11.124 L221.355,9.912 C222.075,10.44 222.843,10.716 223.467,10.716 C224.043,10.716 224.319,10.5 224.319,10.176 L224.319,10.152 C224.319,9.72 223.659,9.576 222.915,9.348 C221.967,9.072 220.899,8.64 220.899,7.356 L220.899,7.332 C220.899,5.988 221.991,5.232 223.335,5.232 C224.175,5.232 225.087,5.52 225.807,6 L225.111,7.26 C224.451,6.876 223.791,6.636 223.287,6.636 C222.807,6.636 222.543,6.852 222.543,7.14 L222.543,7.164 C222.543,7.56 223.203,7.74 223.935,7.992 C224.871,8.292 225.963,8.736 225.963,9.96 L225.963,9.984 C225.963,11.448 224.859,12.12 223.419,12.12 Z M227.379,12 L227.379,10.056 L229.323,10.056 L229.323,12 L227.379,12 Z M9.465,27 L9.465,18.264 L13.485,18.264 C14.481,18.264 15.273,18.54 15.777,19.032 C16.173,19.44 16.365,19.92 16.365,20.52 L16.365,20.544 C16.365,21.54 15.825,22.092 15.201,22.44 C16.209,22.812 16.857,23.4 16.857,24.576 L16.857,24.6 C16.857,26.196 15.561,27 13.593,27 L9.465,27 Z M14.529,20.844 L14.529,20.82 C14.529,20.232 14.061,19.884 13.221,19.884 L11.253,19.884 L11.253,21.828 L13.101,21.828 C13.977,21.828 14.529,21.528 14.529,20.844 Z M15.021,24.36 C15.021,23.736 14.553,23.364 13.521,23.364 L11.253,23.364 L11.253,25.38 L13.593,25.38 C14.481,25.38 15.021,25.056 15.021,24.384 L15.021,24.36 Z M18.369,27 L18.369,20.328 L20.193,20.328 L20.193,21.708 C20.589,20.772 21.237,20.16 22.365,20.208 L22.365,22.116 L22.269,22.116 C20.997,22.116 20.193,22.896 20.193,24.516 L20.193,27 L18.369,27 Z M26.625,27.144 C24.633,27.144 23.157,25.74 23.157,23.7 L23.157,23.676 C23.157,21.768 24.513,20.208 26.445,20.208 C28.653,20.208 29.685,21.924 29.685,23.82 C29.685,23.964 29.673,24.132 29.661,24.3 L24.969,24.3 C25.149,25.212 25.773,25.68 26.649,25.68 C27.309,25.68 27.777,25.476 28.305,24.984 L29.349,25.908 C28.725,26.676 27.837,27.144 26.625,27.144 Z M24.945,23.16 L27.909,23.16 C27.789,22.284 27.285,21.672 26.445,21.672 C25.629,21.672 25.089,22.26 24.945,23.16 Z M33.657,25.86 C34.569,25.86 35.193,25.356 35.193,24.636 L35.193,24.276 C34.857,24.132 34.413,24.024 33.921,24.024 C33.081,24.024 32.565,24.372 32.565,24.984 L32.565,25.008 C32.565,25.548 33.021,25.86 33.657,25.86 Z M33.117,27.132 C31.857,27.132 30.801,26.4 30.801,25.08 L30.801,25.056 C30.801,23.604 31.917,22.932 33.501,22.932 C34.197,22.932 34.689,23.04 35.169,23.196 L35.169,23.076 C35.169,22.26 34.665,21.816 33.693,21.816 C32.973,21.816 32.445,21.96 31.833,22.188 L31.377,20.796 C32.109,20.472 32.841,20.256 33.957,20.256 C34.977,20.256 35.721,20.532 36.201,21 C36.693,21.492 36.921,22.224 36.921,23.112 L36.921,27 L35.157,27 L35.157,26.256 C34.701,26.772 34.053,27.132 33.117,27.132 Z M38.685,27 L38.685,17.892 L40.509,17.892 L40.509,22.86 L42.837,20.328 L45.021,20.328 L42.453,22.98 L45.105,27 L42.993,27 L41.229,24.228 L40.509,24.996 L40.509,27 L38.685,27 Z M53.241,27.144 C51.189,27.144 49.665,25.62 49.665,23.7 L49.665,23.676 C49.665,21.768 51.201,20.208 53.277,20.208 C55.329,20.208 56.853,21.744 56.853,23.652 L56.853,23.676 C56.853,25.596 55.317,27.144 53.241,27.144 Z M53.277,25.584 C54.381,25.584 55.053,24.72 55.053,23.7 L55.053,23.676 C55.053,22.656 54.321,21.78 53.241,21.78 C52.137,21.78 51.465,22.632 51.465,23.652 L51.465,23.676 C51.465,24.696 52.197,25.584 53.277,25.584 Z M60.585,27.132 C59.145,27.132 58.305,26.172 58.305,24.636 L58.305,20.328 L60.117,20.328 L60.117,24.06 C60.117,24.984 60.561,25.476 61.317,25.476 C62.073,25.476 62.565,24.984 62.565,24.06 L62.565,20.328 L64.389,20.328 L64.389,27 L62.565,27 L62.565,26.04 C62.133,26.616 61.557,27.132 60.585,27.132 Z M68.469,27.108 C67.317,27.108 66.525,26.652 66.525,25.116 L66.525,21.888 L65.721,21.888 L65.721,20.328 L66.525,20.328 L66.525,18.6 L68.349,18.6 L68.349,20.328 L69.957,20.328 L69.957,21.888 L68.349,21.888 L68.349,24.816 C68.349,25.284 68.553,25.5 68.997,25.5 C69.345,25.5 69.657,25.416 69.933,25.272 L69.933,26.736 C69.537,26.964 69.093,27.108 68.469,27.108 Z M78.573,27.144 C76.521,27.144 74.997,25.62 74.997,23.7 L74.997,23.676 C74.997,21.768 76.533,20.208 78.609,20.208 C80.661,20.208 82.185,21.744 82.185,23.652 L82.185,23.676 C82.185,25.596 80.649,27.144 78.573,27.144 Z M78.609,25.584 C79.713,25.584 80.385,24.72 80.385,23.7 L80.385,23.676 C80.385,22.656 79.653,21.78 78.573,21.78 C77.469,21.78 76.797,22.632 76.797,23.652 L76.797,23.676 C76.797,24.696 77.529,25.584 78.609,25.584 Z M84.021,27 L84.021,21.888 L83.217,21.888 L83.217,20.388 L84.021,20.388 L84.021,19.956 C84.021,19.212 84.201,18.684 84.549,18.324 C84.897,17.976 85.413,17.808 86.073,17.808 C86.661,17.808 87.057,17.88 87.405,17.988 L87.405,19.5 C87.117,19.404 86.865,19.344 86.529,19.344 C86.073,19.344 85.809,19.584 85.809,20.112 L85.809,20.4 L87.393,20.4 L87.393,21.888 L85.833,21.888 L85.833,27 L84.021,27 Z M94.629,27.108 C93.477,27.108 92.685,26.652 92.685,25.116 L92.685,21.888 L91.881,21.888 L91.881,20.328 L92.685,20.328 L92.685,18.6 L94.509,18.6 L94.509,20.328 L96.117,20.328 L96.117,21.888 L94.509,21.888 L94.509,24.816 C94.509,25.284 94.713,25.5 95.157,25.5 C95.505,25.5 95.817,25.416 96.093,25.272 L96.093,26.736 C95.697,26.964 95.253,27.108 94.629,27.108 Z M97.641,27 L97.641,17.892 L99.465,17.892 L99.465,21.288 C99.897,20.724 100.473,20.208 101.445,20.208 C102.885,20.208 103.737,21.156 103.737,22.692 L103.737,27 L101.913,27 L101.913,23.268 C101.913,22.344 101.469,21.852 100.713,21.852 C99.957,21.852 99.465,22.344 99.465,23.268 L99.465,27 L97.641,27 Z M108.645,27.144 C106.653,27.144 105.177,25.74 105.177,23.7 L105.177,23.676 C105.177,21.768 106.533,20.208 108.465,20.208 C110.673,20.208 111.705,21.924 111.705,23.82 C111.705,23.964 111.693,24.132 111.681,24.3 L106.989,24.3 C107.169,25.212 107.793,25.68 108.669,25.68 C109.329,25.68 109.797,25.476 110.325,24.984 L111.369,25.908 C110.745,26.676 109.857,27.144 108.645,27.144 Z M106.965,23.16 L109.929,23.16 C109.809,22.284 109.305,21.672 108.465,21.672 C107.649,21.672 107.109,22.26 106.965,23.16 Z M113.229,27 L113.229,20.328 L115.053,20.328 L115.053,21.288 C115.485,20.724 116.061,20.208 117.033,20.208 C117.921,20.208 118.581,20.604 118.929,21.288 C119.505,20.592 120.213,20.208 121.137,20.208 C122.553,20.208 123.405,21.06 123.405,22.68 L123.405,27 L121.581,27 L121.581,23.268 C121.581,22.344 121.173,21.852 120.429,21.852 C119.697,21.852 119.229,22.344 119.229,23.268 L119.229,27 L117.405,27 L117.405,23.268 C117.405,22.344 116.985,21.852 116.253,21.852 C115.521,21.852 115.053,22.356 115.053,23.268 L115.053,27 L113.229,27 Z M130.545,27.048 L128.481,20.328 L130.329,20.328 L131.445,24.48 L132.753,20.304 L134.313,20.304 L135.621,24.492 L136.773,20.328 L138.585,20.328 L136.485,27.048 L134.841,27.048 L133.521,22.86 L132.177,27.048 L130.545,27.048 Z M139.857,27 L139.857,17.892 L141.681,17.892 L141.681,21.288 C142.113,20.724 142.689,20.208 143.661,20.208 C145.101,20.208 145.953,21.156 145.953,22.692 L145.953,27 L144.129,27 L144.129,23.268 C144.129,22.344 143.685,21.852 142.929,21.852 C142.173,21.852 141.681,22.344 141.681,23.268 L141.681,27 L139.857,27 Z M150.861,27.144 C148.869,27.144 147.393,25.74 147.393,23.7 L147.393,23.676 C147.393,21.768 148.749,20.208 150.681,20.208 C152.889,20.208 153.921,21.924 153.921,23.82 C153.921,23.964 153.909,24.132 153.897,24.3 L149.205,24.3 C149.385,25.212 150.009,25.68 150.885,25.68 C151.545,25.68 152.013,25.476 152.541,24.984 L153.585,25.908 C152.961,26.676 152.073,27.144 150.861,27.144 Z M149.181,23.16 L152.145,23.16 C152.025,22.284 151.521,21.672 150.681,21.672 C149.865,21.672 149.325,22.26 149.181,23.16 Z M155.445,27 L155.445,20.328 L157.269,20.328 L157.269,21.288 C157.701,20.724 158.277,20.208 159.249,20.208 C160.689,20.208 161.541,21.156 161.541,22.692 L161.541,27 L159.717,27 L159.717,23.268 C159.717,22.344 159.273,21.852 158.517,21.852 C157.761,21.852 157.269,22.344 157.269,23.268 L157.269,27 L155.445,27 Z M167.145,27 L167.145,20.328 L168.969,20.328 L168.969,21.288 C169.401,20.724 169.977,20.208 170.949,20.208 C172.389,20.208 173.241,21.156 173.241,22.692 L173.241,27 L171.417,27 L171.417,23.268 C171.417,22.344 170.973,21.852 170.217,21.852 C169.461,21.852 168.969,22.344 168.969,23.268 L168.969,27 L167.145,27 Z M178.149,27.144 C176.157,27.144 174.681,25.74 174.681,23.7 L174.681,23.676 C174.681,21.768 176.037,20.208 177.969,20.208 C180.177,20.208 181.209,21.924 181.209,23.82 C181.209,23.964 181.197,24.132 181.185,24.3 L176.493,24.3 C176.673,25.212 177.297,25.68 178.173,25.68 C178.833,25.68 179.301,25.476 179.829,24.984 L180.873,25.908 C180.249,26.676 179.361,27.144 178.149,27.144 Z M176.469,23.16 L179.433,23.16 C179.313,22.284 178.809,21.672 177.969,21.672 C177.153,21.672 176.613,22.26 176.469,23.16 Z M185.877,27.144 C183.873,27.144 182.409,25.608 182.409,23.7 L182.409,23.676 C182.409,21.78 183.861,20.208 185.901,20.208 C187.149,20.208 187.941,20.64 188.565,21.336 L187.437,22.536 C187.005,22.08 186.573,21.78 185.889,21.78 C184.905,21.78 184.209,22.632 184.209,23.652 L184.209,23.676 C184.209,24.732 184.893,25.584 185.961,25.584 C186.609,25.584 187.065,25.296 187.533,24.852 L188.601,25.92 C187.953,26.64 187.197,27.144 185.877,27.144 Z M192.909,27.144 C190.917,27.144 189.441,25.74 189.441,23.7 L189.441,23.676 C189.441,21.768 190.797,20.208 192.729,20.208 C194.937,20.208 195.969,21.924 195.969,23.82 C195.969,23.964 195.957,24.132 195.945,24.3 L191.253,24.3 C191.433,25.212 192.057,25.68 192.933,25.68 C193.593,25.68 194.061,25.476 194.589,24.984 L195.633,25.908 C195.009,26.676 194.121,27.144 192.909,27.144 Z M191.229,23.16 L194.193,23.16 C194.073,22.284 193.569,21.672 192.729,21.672 C191.913,21.672 191.373,22.26 191.229,23.16 Z M199.821,27.12 C198.885,27.12 197.841,26.808 196.965,26.124 L197.757,24.912 C198.477,25.44 199.245,25.716 199.869,25.716 C200.445,25.716 200.721,25.5 200.721,25.176 L200.721,25.152 C200.721,24.72 200.061,24.576 199.317,24.348 C198.369,24.072 197.301,23.64 197.301,22.356 L197.301,22.332 C197.301,20.988 198.393,20.232 199.737,20.232 C200.577,20.232 201.489,20.52 202.209,21 L201.513,22.26 C200.853,21.876 200.193,21.636 199.689,21.636 C199.209,21.636 198.945,21.852 198.945,22.14 L198.945,22.164 C198.945,22.56 199.605,22.74 200.337,22.992 C201.273,23.292 202.365,23.736 202.365,24.96 L202.365,24.984 C202.365,26.448 201.261,27.12 199.821,27.12 Z M206.061,27.12 C205.125,27.12 204.081,26.808 203.205,26.124 L203.997,24.912 C204.717,25.44 205.485,25.716 206.109,25.716 C206.685,25.716 206.961,25.5 206.961,25.176 L206.961,25.152 C206.961,24.72 206.301,24.576 205.557,24.348 C204.609,24.072 203.541,23.64 203.541,22.356 L203.541,22.332 C203.541,20.988 204.633,20.232 205.977,20.232 C206.817,20.232 207.729,20.52 208.449,21 L207.753,22.26 C207.093,21.876 206.433,21.636 205.929,21.636 C205.449,21.636 205.185,21.852 205.185,22.14 L205.185,22.164 C205.185,22.56 205.845,22.74 206.577,22.992 C207.513,23.292 208.605,23.736 208.605,24.96 L208.605,24.984 C208.605,26.448 207.501,27.12 206.061,27.12 Z M212.541,25.86 C213.453,25.86 214.077,25.356 214.077,24.636 L214.077,24.276 C213.741,24.132 213.297,24.024 212.805,24.024 C211.965,24.024 211.449,24.372 211.449,24.984 L211.449,25.008 C211.449,25.548 211.905,25.86 212.541,25.86 Z M212.001,27.132 C210.741,27.132 209.685,26.4 209.685,25.08 L209.685,25.056 C209.685,23.604 210.801,22.932 212.385,22.932 C213.081,22.932 213.573,23.04 214.053,23.196 L214.053,23.076 C214.053,22.26 213.549,21.816 212.577,21.816 C211.857,21.816 211.329,21.96 210.717,22.188 L210.261,20.796 C210.993,20.472 211.725,20.256 212.841,20.256 C213.861,20.256 214.605,20.532 215.085,21 C215.577,21.492 215.805,22.224 215.805,23.112 L215.805,27 L214.041,27 L214.041,26.256 C213.585,26.772 212.937,27.132 212.001,27.132 Z M217.569,27 L217.569,20.328 L219.393,20.328 L219.393,21.708 C219.789,20.772 220.437,20.16 221.565,20.208 L221.565,22.116 L221.469,22.116 C220.197,22.116 219.393,22.896 219.393,24.516 L219.393,27 L217.569,27 Z M225.789,24.948 L227.301,20.328 L229.197,20.328 L226.617,27.168 C226.101,28.524 225.549,29.04 224.421,29.04 C223.749,29.04 223.245,28.86 222.765,28.584 L223.377,27.264 C223.629,27.408 223.941,27.516 224.205,27.516 C224.553,27.516 224.733,27.408 224.925,27.024 L222.273,20.328 L224.205,20.328 L225.789,24.948 Z M229.317,27 L229.317,25.056 L231.261,25.056 L231.261,27 L229.317,27 Z"/>
    <use fill="#137BC2" fill-opacity=".3" xlink:href="#example-6-c"/>
    <circle cx="42.788" cy="133.65" r="3.15" stroke="#137BC2" stroke-width=".7"/>
    <use fill="#137BC2" fill-opacity=".3" xlink:href="#example-6-d"/>
    <circle cx="47.775" cy="138.55" r="3.15" stroke="#137BC2" stroke-width=".7"/>
    <use fill="#137BC2" fill-opacity=".3" xlink:href="#example-6-e"/>
    <circle cx="197.313" cy="133.65" r="3.15" stroke="#137BC2" stroke-width=".7"/>
    <use fill="#137BC2" fill-opacity=".3" xlink:href="#example-6-f"/>
    <circle cx="192.412" cy="138.55" r="3.15" stroke="#137BC2" stroke-width=".7"/>
    <rect width="51.8" height="1" x="19.25" y="180.2" fill="#137BC2"/>
    <path fill="#137BC2" d="M.44 189.6L.44 188.624 2.392 187.016C3.128 186.4 3.416 186.072 3.416 185.584 3.416 185.072 3.072 184.792 2.6 184.792 2.136 184.792 1.816 185.056 1.384 185.592L.52 184.904C1.088 184.12 1.64 183.696 2.68 183.696 3.872 183.696 4.672 184.4 4.672 185.48L4.672 185.496C4.672 186.456 4.176 186.944 3.144 187.752L2.144 188.536 4.728 188.536 4.728 189.6.44 189.6zM8.16 188.648C8.768 188.648 9.28 188.16 9.28 187.384L9.28 187.368C9.28 186.608 8.768 186.104 8.16 186.104 7.552 186.104 7.04 186.608 7.04 187.368L7.04 187.384C7.04 188.144 7.552 188.648 8.16 188.648zM5.84 190.928L5.84 185.152 7.056 185.152 7.056 185.816C7.368 185.392 7.8 185.072 8.464 185.072 9.504 185.072 10.496 185.888 10.496 187.368L10.496 187.384C10.496 188.864 9.52 189.688 8.464 189.688 7.784 189.688 7.36 189.368 7.056 189L7.056 190.928 5.84 190.928zM12.256 185.152L13.12 186.488 14 185.152 15.272 185.152 13.76 187.32 15.336 189.6 14.032 189.6 13.096 188.168 12.16 189.6 10.888 189.6 12.464 187.336 10.952 185.152 12.256 185.152zM10.94 160.55L10.94 159.574 12.892 157.966C13.628 157.35 13.916 157.022 13.916 156.534 13.916 156.022 13.572 155.742 13.1 155.742 12.636 155.742 12.316 156.006 11.884 156.542L11.02 155.854C11.588 155.07 12.14 154.646 13.18 154.646 14.372 154.646 15.172 155.35 15.172 156.43L15.172 156.446C15.172 157.406 14.676 157.894 13.644 158.702L12.644 159.486 15.228 159.486 15.228 160.55 10.94 160.55zM18.66 159.598C19.268 159.598 19.78 159.11 19.78 158.334L19.78 158.318C19.78 157.558 19.268 157.054 18.66 157.054 18.052 157.054 17.54 157.558 17.54 158.318L17.54 158.334C17.54 159.094 18.052 159.598 18.66 159.598zM16.34 161.878L16.34 156.102 17.556 156.102 17.556 156.766C17.868 156.342 18.3 156.022 18.964 156.022 20.004 156.022 20.996 156.838 20.996 158.318L20.996 158.334C20.996 159.814 20.02 160.638 18.964 160.638 18.284 160.638 17.86 160.318 17.556 159.95L17.556 161.878 16.34 161.878zM22.756 156.102L23.62 157.438 24.5 156.102 25.772 156.102 24.26 158.27 25.836 160.55 24.532 160.55 23.596 159.118 22.66 160.55 21.388 160.55 22.964 158.286 21.452 156.102 22.756 156.102z"/>
    <rect width="51.8" height="1" x="19.25" y="193.5" fill="#137BC2"/>
    <rect width="23.45" height="1" x="197.4" y="130.15" fill="#137BC2"/>
    <path fill="#137BC2" d="M226.706,136.496 C225.154,136.496 224.138,135.192 224.138,133.504 L224.138,133.488 C224.138,131.808 225.178,130.48 226.722,130.48 C228.258,130.48 229.29,131.784 229.29,133.472 L229.29,133.488 C229.29,135.168 228.258,136.496 226.706,136.496 Z M226.722,135.392 C227.522,135.392 228.026,134.576 228.026,133.504 L228.026,133.488 C228.026,132.416 227.498,131.584 226.706,131.584 C225.914,131.584 225.402,132.392 225.402,133.472 L225.402,133.488 C225.402,134.568 225.922,135.392 226.722,135.392 Z M230.17,136.4 L230.17,135.104 L231.466,135.104 L231.466,136.4 L230.17,136.4 Z M234.594,136.496 C233.674,136.496 232.986,136.16 232.426,135.624 L233.17,134.736 C233.618,135.144 234.058,135.384 234.578,135.384 C235.194,135.384 235.586,135.072 235.586,134.536 L235.586,134.52 C235.586,134 235.154,133.696 234.522,133.696 C234.146,133.696 233.81,133.8 233.53,133.92 L232.81,133.44 L232.978,130.576 L236.538,130.576 L236.538,131.656 L234.034,131.656 L233.962,132.736 C234.202,132.672 234.426,132.624 234.762,132.624 C235.89,132.624 236.794,133.184 236.794,134.48 L236.794,134.496 C236.794,135.72 235.922,136.496 234.594,136.496 Z M240.25,135.448 C240.858,135.448 241.37,134.96 241.37,134.184 L241.37,134.168 C241.37,133.408 240.858,132.904 240.25,132.904 C239.642,132.904 239.13,133.408 239.13,134.168 L239.13,134.184 C239.13,134.944 239.642,135.448 240.25,135.448 Z M237.93,137.728 L237.93,131.952 L239.146,131.952 L239.146,132.616 C239.458,132.192 239.89,131.872 240.554,131.872 C241.594,131.872 242.586,132.688 242.586,134.168 L242.586,134.184 C242.586,135.664 241.61,136.488 240.554,136.488 C239.874,136.488 239.45,136.168 239.146,135.8 L239.146,137.728 L237.93,137.728 Z M244.346,131.952 L245.21,133.288 L246.09,131.952 L247.362,131.952 L245.85,134.12 L247.426,136.4 L246.122,136.4 L245.186,134.968 L244.25,136.4 L242.978,136.4 L244.554,134.136 L243.042,131.952 L244.346,131.952 Z"/>
    <g transform="rotate(180 179.55 190.7)">
      <use fill="#137BC2" fill-opacity=".3" xlink:href="#example-6-g"/>
      <path stroke="#137BC2" stroke-width=".7" d="M182.7,193.85 L182.7,187.559052 C179.305909,187.735047 176.585047,190.455909 176.409052,193.85 L182.7,193.85 Z"/>
    </g>
    <g transform="rotate(180 102.55 190.7)">
      <use fill="#137BC2" fill-opacity=".3" xlink:href="#example-6-h"/>
      <path stroke="#137BC2" stroke-width=".7" d="M105.7,193.85 L105.7,187.559052 C102.305909,187.735047 99.5850468,190.455909 99.4090524,193.85 L105.7,193.85 Z"/>
    </g>
    <use fill="#137BC2" fill-opacity=".3" xlink:href="#example-6-i"/>
    <path stroke="#137BC2" stroke-width=".7" d="M140.7,187.55 L134.409052,187.55 C134.585047,190.944091 137.305909,193.664953 140.7,193.840948 L140.7,187.55 Z"/>
    <use fill="#137BC2" fill-opacity=".3" xlink:href="#example-6-j"/>
    <path stroke="#137BC2" stroke-width=".7" d="M63.7,187.55 L57.4090524,187.55 C57.5850468,190.944091 60.3059088,193.664953 63.7,193.840948 L63.7,187.55 Z"/>
    <rect width="44.8" height="1" x="176.05" y="187.2" fill="#137BC2"/>
    <path fill="#137BC2" d="M225.162,193.8 L225.162,189.184 L224.138,189.44 L223.882,188.432 L225.538,187.936 L226.378,187.936 L226.378,193.8 L225.162,193.8 Z M230.106,192.848 C230.714,192.848 231.226,192.36 231.226,191.584 L231.226,191.568 C231.226,190.808 230.714,190.304 230.106,190.304 C229.498,190.304 228.986,190.808 228.986,191.568 L228.986,191.584 C228.986,192.344 229.498,192.848 230.106,192.848 Z M227.786,195.128 L227.786,189.352 L229.002,189.352 L229.002,190.016 C229.314,189.592 229.746,189.272 230.41,189.272 C231.45,189.272 232.442,190.088 232.442,191.568 L232.442,191.584 C232.442,193.064 231.466,193.888 230.41,193.888 C229.73,193.888 229.306,193.568 229.002,193.2 L229.002,195.128 L227.786,195.128 Z M234.202,189.352 L235.066,190.688 L235.946,189.352 L237.218,189.352 L235.706,191.52 L237.282,193.8 L235.978,193.8 L235.042,192.368 L234.106,193.8 L232.834,193.8 L234.41,191.536 L232.898,189.352 L234.202,189.352 Z"/>
    <rect width="44.8" height="1" x="176.05" y="193.5" fill="#137BC2"/>
    <path fill="#137BC2" d="M56.531,235.8 L56.531,234.824 L58.483,233.216 C59.219,232.6 59.507,232.272 59.507,231.784 C59.507,231.272 59.163,230.992 58.691,230.992 C58.227,230.992 57.907,231.256 57.475,231.792 L56.611,231.104 C57.179,230.32 57.731,229.896 58.771,229.896 C59.963,229.896 60.763,230.6 60.763,231.68 L60.763,231.696 C60.763,232.656 60.267,233.144 59.235,233.952 L58.235,234.736 L60.819,234.736 L60.819,235.8 L56.531,235.8 Z M64.251,234.848 C64.859,234.848 65.371,234.36 65.371,233.584 L65.371,233.568 C65.371,232.808 64.859,232.304 64.251,232.304 C63.643,232.304 63.131,232.808 63.131,233.568 L63.131,233.584 C63.131,234.344 63.643,234.848 64.251,234.848 Z M61.931,237.128 L61.931,231.352 L63.147,231.352 L63.147,232.016 C63.459,231.592 63.891,231.272 64.555,231.272 C65.595,231.272 66.587,232.088 66.587,233.568 L66.587,233.584 C66.587,235.064 65.611,235.888 64.555,235.888 C63.875,235.888 63.451,235.568 63.147,235.2 L63.147,237.128 L61.931,237.128 Z M68.347,231.352 L69.211,232.688 L70.091,231.352 L71.363,231.352 L69.851,233.52 L71.427,235.8 L70.123,235.8 L69.187,234.368 L68.251,235.8 L66.979,235.8 L68.555,233.536 L67.043,231.352 L68.347,231.352 Z"/>
    <rect width="1" height="44.8" x="70.35" y="180.2" fill="#137BC2"/>
    <rect width="1" height="44.8" x="57.05" y="180.2" fill="#137BC2"/>
    <path fill="#137BC2" d="M97.655,236.15 L97.655,231.534 L96.631,231.79 L96.375,230.782 L98.031,230.286 L98.871,230.286 L98.871,236.15 L97.655,236.15 Z M102.599,235.198 C103.207,235.198 103.719,234.71 103.719,233.934 L103.719,233.918 C103.719,233.158 103.207,232.654 102.599,232.654 C101.991,232.654 101.479,233.158 101.479,233.918 L101.479,233.934 C101.479,234.694 101.991,235.198 102.599,235.198 Z M100.279,237.478 L100.279,231.702 L101.495,231.702 L101.495,232.366 C101.807,231.942 102.239,231.622 102.903,231.622 C103.943,231.622 104.935,232.438 104.935,233.918 L104.935,233.934 C104.935,235.414 103.959,236.238 102.903,236.238 C102.223,236.238 101.799,235.918 101.495,235.55 L101.495,237.478 L100.279,237.478 Z M106.695,231.702 L107.559,233.038 L108.439,231.702 L109.711,231.702 L108.199,233.87 L109.775,236.15 L108.471,236.15 L107.535,234.718 L106.599,236.15 L105.327,236.15 L106.903,233.886 L105.391,231.702 L106.695,231.702 Z"/>
    <rect width="1" height="37.8" x="105.35" y="187.2" fill="#137BC2"/>
    <rect width="1" height="37.8" x="99.05" y="187.2" fill="#137BC2"/>
    <path fill="#137BC2" d="M132.655,236.15 L132.655,231.534 L131.631,231.79 L131.375,230.782 L133.031,230.286 L133.871,230.286 L133.871,236.15 L132.655,236.15 Z M137.599,235.198 C138.207,235.198 138.719,234.71 138.719,233.934 L138.719,233.918 C138.719,233.158 138.207,232.654 137.599,232.654 C136.991,232.654 136.479,233.158 136.479,233.918 L136.479,233.934 C136.479,234.694 136.991,235.198 137.599,235.198 Z M135.279,237.478 L135.279,231.702 L136.495,231.702 L136.495,232.366 C136.807,231.942 137.239,231.622 137.903,231.622 C138.943,231.622 139.935,232.438 139.935,233.918 L139.935,233.934 C139.935,235.414 138.959,236.238 137.903,236.238 C137.223,236.238 136.799,235.918 136.495,235.55 L136.495,237.478 L135.279,237.478 Z M141.695,231.702 L142.559,233.038 L143.439,231.702 L144.711,231.702 L143.199,233.87 L144.775,236.15 L143.471,236.15 L142.535,234.718 L141.599,236.15 L140.327,236.15 L141.903,233.886 L140.391,231.702 L141.695,231.702 Z"/>
    <rect width="1" height="37.8" x="140.35" y="187.2" fill="#137BC2"/>
    <rect width="1" height="37.8" x="134.05" y="187.2" fill="#137BC2"/>
    <rect width="23.45" height="1" x="197.4" y="136.45" fill="#137BC2"/>
    <g>
      <use fill="#137BC2" fill-opacity=".3" xlink:href="#example-6-k"/>
      <circle cx="120.05" cy="56.3" r="3.15" stroke="#137BC2" stroke-width=".7"/>
    </g>
    <rect width="100.8" height="1" x="120.05" y="52.8" fill="#137BC2"/>
    <path fill="#137BC2" d="M226.706,59.146 C225.154,59.146 224.138,57.842 224.138,56.154 L224.138,56.138 C224.138,54.458 225.178,53.13 226.722,53.13 C228.258,53.13 229.29,54.434 229.29,56.122 L229.29,56.138 C229.29,57.818 228.258,59.146 226.706,59.146 Z M226.722,58.042 C227.522,58.042 228.026,57.226 228.026,56.154 L228.026,56.138 C228.026,55.066 227.498,54.234 226.706,54.234 C225.914,54.234 225.402,55.042 225.402,56.122 L225.402,56.138 C225.402,57.218 225.922,58.042 226.722,58.042 Z M230.17,59.05 L230.17,57.754 L231.466,57.754 L231.466,59.05 L230.17,59.05 Z M234.594,59.146 C233.674,59.146 232.986,58.81 232.426,58.274 L233.17,57.386 C233.618,57.794 234.058,58.034 234.578,58.034 C235.194,58.034 235.586,57.722 235.586,57.186 L235.586,57.17 C235.586,56.65 235.154,56.346 234.522,56.346 C234.146,56.346 233.81,56.45 233.53,56.57 L232.81,56.09 L232.978,53.226 L236.538,53.226 L236.538,54.306 L234.034,54.306 L233.962,55.386 C234.202,55.322 234.426,55.274 234.762,55.274 C235.89,55.274 236.794,55.834 236.794,57.13 L236.794,57.146 C236.794,58.37 235.922,59.146 234.594,59.146 Z M240.25,58.098 C240.858,58.098 241.37,57.61 241.37,56.834 L241.37,56.818 C241.37,56.058 240.858,55.554 240.25,55.554 C239.642,55.554 239.13,56.058 239.13,56.818 L239.13,56.834 C239.13,57.594 239.642,58.098 240.25,58.098 Z M237.93,60.378 L237.93,54.602 L239.146,54.602 L239.146,55.266 C239.458,54.842 239.89,54.522 240.554,54.522 C241.594,54.522 242.586,55.338 242.586,56.818 L242.586,56.834 C242.586,58.314 241.61,59.138 240.554,59.138 C239.874,59.138 239.45,58.818 239.146,58.45 L239.146,60.378 L237.93,60.378 Z M244.346,54.602 L245.21,55.938 L246.09,54.602 L247.362,54.602 L245.85,56.77 L247.426,59.05 L246.122,59.05 L245.186,57.618 L244.25,59.05 L242.978,59.05 L244.554,56.786 L243.042,54.602 L244.346,54.602 Z"/>
    <rect width="100.8" height="1" x="120.05" y="59.1" fill="#137BC2"/>
    <g fill="#137BC2" transform="scale(-1 1) rotate(-45 77.186 159.426)">
      <rect width="1" height="83.999" x="13.3"/>
      <rect width="1" height="83.999"/>
    </g>
  </g>
</svg>
