<svg xmlns="http://www.w3.org/2000/svg" xmlns:xlink="http://www.w3.org/1999/xlink" width="264" height="264" viewBox="0 0 264 264">
  <defs>
    <circle id="example-5-a" cx="28.35" cy="18.2" r="3.5"/>
    <circle id="example-5-b" cx="3.5" cy="32.9" r="3.5"/>
    <circle id="example-5-c" cx="3.5" cy="3.5" r="3.5"/>
    <path id="example-5-d" d="M190.05,183.75 L190.05,176.75 C186.184007,176.75 183.05,179.884007 183.05,183.75 L190.05,183.75 Z"/>
    <path id="example-5-e" d="M155.05,50.75 L155.05,43.75 C158.915993,43.75 162.05,46.8840068 162.05,50.75 L155.05,50.75 Z"/>
    <path id="example-5-f" d="M169.05,71.75 L169.05,64.75 C172.915993,64.75 176.05,67.8840068 176.05,71.75 L169.05,71.75 Z"/>
    <path id="example-5-g" d="M183.05,92.75 L183.05,85.75 C186.915993,85.75 190.05,88.8840068 190.05,92.75 L183.05,92.75 Z"/>
  </defs>
  <g fill="none" fill-rule="evenodd" transform="translate(12 18)">
    <g transform="translate(36.05 29.75)">
      <rect width="168" height="169.05" fill="#FFF"/>
      <g stroke="#000" stroke-width=".5" opacity=".4">
        <g opacity=".2">
          <rect width="7" height="168" x="161"/>
          <rect width="7" height="168" x="154"/>
          <rect width="7" height="168" x="147"/>
          <rect width="7" height="168" x="140"/>
          <rect width="7" height="168" x="133"/>
          <rect width="7" height="168" x="126"/>
          <rect width="7" height="168" x="119"/>
          <rect width="7" height="168" x="112"/>
          <rect width="7" height="168" x="105"/>
          <rect width="7" height="168" x="98"/>
          <rect width="7" height="168" x="91"/>
          <rect width="7" height="168" x="84"/>
          <rect width="7" height="168" x="77"/>
          <rect width="7" height="168" x="70"/>
          <rect width="7" height="168" x="63"/>
          <rect width="7" height="168" x="56"/>
          <rect width="7" height="168" x="49"/>
          <rect width="7" height="168" x="42"/>
          <rect width="7" height="168" x="35"/>
          <rect width="7" height="168" x="28"/>
          <rect width="7" height="168" x="21"/>
          <rect width="7" height="168" x="14"/>
          <rect width="7" height="168" x="7"/>
          <rect width="7" height="168"/>
        </g>
        <g opacity=".2" transform="rotate(90 84 84)">
          <rect width="7" height="168" x="161"/>
          <rect width="7" height="168" x="154"/>
          <rect width="7" height="168" x="147"/>
          <rect width="7" height="168" x="140"/>
          <rect width="7" height="168" x="133"/>
          <rect width="7" height="168" x="126"/>
          <rect width="7" height="168" x="119"/>
          <rect width="7" height="168" x="112"/>
          <rect width="7" height="168" x="105"/>
          <rect width="7" height="168" x="98"/>
          <rect width="7" height="168" x="91"/>
          <rect width="7" height="168" x="84"/>
          <rect width="7" height="168" x="77"/>
          <rect width="7" height="168" x="70"/>
          <rect width="7" height="168" x="63"/>
          <rect width="7" height="168" x="56"/>
          <rect width="7" height="168" x="49"/>
          <rect width="7" height="168" x="42"/>
          <rect width="7" height="168" x="35"/>
          <rect width="7" height="168" x="28"/>
          <rect width="7" height="168" x="21"/>
          <rect width="7" height="168" x="14"/>
          <rect width="7" height="168" x="7"/>
          <rect width="7" height="168"/>
        </g>
      </g>
      <rect width="166" height="166" x="1" y="1" stroke="#AAA" stroke-width="2"/>
    </g>
    <g opacity=".4" transform="translate(35.05 29.75)">
      <rect width="168" height="168" x=".95" y=".25"/>
      <path fill="#000" d="M22,56 L148,56 C151.865993,56 155,59.1340068 155,63 L155,147 C155,150.865993 151.865993,154 148,154 L22,154 C18.1340068,154 15,150.865993 15,147 L15,63 C15,59.1340068 18.1340068,56 22,56 Z M29,70 L29,140 L141,140 L141,70 L29,70 Z M76.3007351,87.1804411 L100.997958,101.998775 C102.655489,102.993293 103.192967,105.143204 102.198448,106.800735 C101.902874,107.293359 101.490582,107.705651 100.997958,108.001225 L76.3007351,122.819559 C74.6432042,123.814077 72.4932933,123.2766 71.4987748,121.619069 C71.1724024,121.075115 71,120.452687 71,119.818334 L71,90.1816663 C71,88.2486697 72.5670034,86.6816663 74.5,86.6816663 C75.1343538,86.6816663 75.7567812,86.8540687 76.3007351,87.1804411 Z M36,35 L134,35 C137.865993,35 141,38.1340068 141,42 L141,49 L29,49 L29,42 C29,38.1340068 32.1340068,35 36,35 Z M50,14 L120,14 C123.865993,14 127,17.1340068 127,21 L127,28 L43,28 L43,21 C43,17.1340068 46.1340068,14 50,14 Z"/>
    </g>
    <g transform="translate(106.05 116.55)">
      <use fill="#137BC2" fill-opacity=".3" xlink:href="#example-5-a"/>
      <circle cx="28.35" cy="18.2" r="3.15" stroke="#137BC2" stroke-width=".7"/>
      <use fill="#137BC2" fill-opacity=".3" xlink:href="#example-5-b"/>
      <circle cx="3.5" cy="32.9" r="3.15" stroke="#137BC2" stroke-width=".7"/>
      <use fill="#137BC2" fill-opacity=".3" xlink:href="#example-5-c"/>
      <circle cx="3.5" cy="3.5" r="3.15" stroke="#137BC2" stroke-width=".7"/>
      <rect width="86.45" height="1" x="28.35" y="14.7" fill="#137BC2"/>
      <path fill="#137BC2" d="M120.656,21.396 C119.104,21.396 118.088,20.092 118.088,18.404 L118.088,18.388 C118.088,16.708 119.128,15.38 120.672,15.38 C122.208,15.38 123.24,16.684 123.24,18.372 L123.24,18.388 C123.24,20.068 122.208,21.396 120.656,21.396 Z M120.672,20.292 C121.472,20.292 121.976,19.476 121.976,18.404 L121.976,18.388 C121.976,17.316 121.448,16.484 120.656,16.484 C119.864,16.484 119.352,17.292 119.352,18.372 L119.352,18.388 C119.352,19.468 119.872,20.292 120.672,20.292 Z M124.12,21.3 L124.12,20.004 L125.416,20.004 L125.416,21.3 L124.12,21.3 Z M128.544,21.396 C127.624,21.396 126.936,21.06 126.376,20.524 L127.12,19.636 C127.568,20.044 128.008,20.284 128.528,20.284 C129.144,20.284 129.536,19.972 129.536,19.436 L129.536,19.42 C129.536,18.9 129.104,18.596 128.472,18.596 C128.096,18.596 127.76,18.7 127.48,18.82 L126.76,18.34 L126.928,15.476 L130.488,15.476 L130.488,16.556 L127.984,16.556 L127.912,17.636 C128.152,17.572 128.376,17.524 128.712,17.524 C129.84,17.524 130.744,18.084 130.744,19.38 L130.744,19.396 C130.744,20.62 129.872,21.396 128.544,21.396 Z M134.2,20.348 C134.808,20.348 135.32,19.86 135.32,19.084 L135.32,19.068 C135.32,18.308 134.808,17.804 134.2,17.804 C133.592,17.804 133.08,18.308 133.08,19.068 L133.08,19.084 C133.08,19.844 133.592,20.348 134.2,20.348 Z M131.88,22.628 L131.88,16.852 L133.096,16.852 L133.096,17.516 C133.408,17.092 133.84,16.772 134.504,16.772 C135.544,16.772 136.536,17.588 136.536,19.068 L136.536,19.084 C136.536,20.564 135.56,21.388 134.504,21.388 C133.824,21.388 133.4,21.068 133.096,20.7 L133.096,22.628 L131.88,22.628 Z M138.296,16.852 L139.16,18.188 L140.04,16.852 L141.312,16.852 L139.8,19.02 L141.376,21.3 L140.072,21.3 L139.136,19.868 L138.2,21.3 L136.928,21.3 L138.504,19.036 L136.992,16.852 L138.296,16.852 Z"/>
      <rect width="86.45" height="1" x="28.35" y="21" fill="#137BC2"/>
    </g>
    <path fill="#137BC2" d="M49.79,8 L49.79,7.024 L51.742,5.416 C52.478,4.8 52.766,4.472 52.766,3.984 C52.766,3.472 52.422,3.192 51.95,3.192 C51.486,3.192 51.166,3.456 50.734,3.992 L49.87,3.304 C50.438,2.52 50.99,2.096 52.03,2.096 C53.222,2.096 54.022,2.8 54.022,3.88 L54.022,3.896 C54.022,4.856 53.526,5.344 52.494,6.152 L51.494,6.936 L54.078,6.936 L54.078,8 L49.79,8 Z M57.51,7.048 C58.118,7.048 58.63,6.56 58.63,5.784 L58.63,5.768 C58.63,5.008 58.118,4.504 57.51,4.504 C56.902,4.504 56.39,5.008 56.39,5.768 L56.39,5.784 C56.39,6.544 56.902,7.048 57.51,7.048 Z M55.19,9.328 L55.19,3.552 L56.406,3.552 L56.406,4.216 C56.718,3.792 57.15,3.472 57.814,3.472 C58.854,3.472 59.846,4.288 59.846,5.768 L59.846,5.784 C59.846,7.264 58.87,8.088 57.814,8.088 C57.134,8.088 56.71,7.768 56.406,7.4 L56.406,9.328 L55.19,9.328 Z M61.606,3.552 L62.47,4.888 L63.35,3.552 L64.622,3.552 L63.11,5.72 L64.686,8 L63.382,8 L62.446,6.568 L61.51,8 L60.238,8 L61.814,5.736 L60.302,3.552 L61.606,3.552 Z"/>
    <rect width="1" height="121.8" x="63.35" y="12.95" fill="#137BC2"/>
    <rect width="1" height="121.8" x="50.05" y="12.95" fill="#137BC2"/>
    <rect width="100.8" height="1" x="19.25" y="169.75" fill="#137BC2"/>
    <path fill="#137BC2" d="M0.44,178.8 L0.44,177.824 L2.392,176.216 C3.128,175.6 3.416,175.272 3.416,174.784 C3.416,174.272 3.072,173.992 2.6,173.992 C2.136,173.992 1.816,174.256 1.384,174.792 L0.52,174.104 C1.088,173.32 1.64,172.896 2.68,172.896 C3.872,172.896 4.672,173.6 4.672,174.68 L4.672,174.696 C4.672,175.656 4.176,176.144 3.144,176.952 L2.144,177.736 L4.728,177.736 L4.728,178.8 L0.44,178.8 Z M8.16,177.848 C8.768,177.848 9.28,177.36 9.28,176.584 L9.28,176.568 C9.28,175.808 8.768,175.304 8.16,175.304 C7.552,175.304 7.04,175.808 7.04,176.568 L7.04,176.584 C7.04,177.344 7.552,177.848 8.16,177.848 Z M5.84,180.128 L5.84,174.352 L7.056,174.352 L7.056,175.016 C7.368,174.592 7.8,174.272 8.464,174.272 C9.504,174.272 10.496,175.088 10.496,176.568 L10.496,176.584 C10.496,178.064 9.52,178.888 8.464,178.888 C7.784,178.888 7.36,178.568 7.056,178.2 L7.056,180.128 L5.84,180.128 Z M12.256,174.352 L13.12,175.688 L14,174.352 L15.272,174.352 L13.76,176.52 L15.336,178.8 L14.032,178.8 L13.096,177.368 L12.16,178.8 L10.888,178.8 L12.464,176.536 L10.952,174.352 L12.256,174.352 Z"/>
    <rect width="100.8" height="1" x="19.25" y="183.05" fill="#137BC2"/>
    <g transform="rotate(180 186.55 180.25)">
      <use fill="#137BC2" fill-opacity=".3" xlink:href="#example-5-d"/>
      <path stroke="#137BC2" stroke-width=".7" d="M189.7,183.4 L189.7,177.109052 C186.305909,177.285047 183.585047,180.005909 183.409052,183.4 L189.7,183.4 Z"/>
    </g>
    <rect width="37.8" height="1" x="183.05" y="176.75" fill="#137BC2"/>
    <path fill="#137BC2" d="M225.162,183.35 L225.162,178.734 L224.138,178.99 L223.882,177.982 L225.538,177.486 L226.378,177.486 L226.378,183.35 L225.162,183.35 Z M230.106,182.398 C230.714,182.398 231.226,181.91 231.226,181.134 L231.226,181.118 C231.226,180.358 230.714,179.854 230.106,179.854 C229.498,179.854 228.986,180.358 228.986,181.118 L228.986,181.134 C228.986,181.894 229.498,182.398 230.106,182.398 Z M227.786,184.678 L227.786,178.902 L229.002,178.902 L229.002,179.566 C229.314,179.142 229.746,178.822 230.41,178.822 C231.45,178.822 232.442,179.638 232.442,181.118 L232.442,181.134 C232.442,182.614 231.466,183.438 230.41,183.438 C229.73,183.438 229.306,183.118 229.002,182.75 L229.002,184.678 L227.786,184.678 Z M234.202,178.902 L235.066,180.238 L235.946,178.902 L237.218,178.902 L235.706,181.07 L237.282,183.35 L235.978,183.35 L235.042,181.918 L234.106,183.35 L232.834,183.35 L234.41,181.086 L232.898,178.902 L234.202,178.902 Z"/>
    <rect width="37.8" height="1" x="183.05" y="183.05" fill="#137BC2"/>
    <use fill="#137BC2" fill-opacity=".3" xlink:href="#example-5-e"/>
    <path stroke="#137BC2" stroke-width=".7" d="M155.4,50.4 L161.690948,50.4 C161.514953,47.0059088 158.794091,44.2850468 155.4,44.1090524 L155.4,50.4 Z"/>
    <rect width="65.8" height="1" x="155.05" y="43.75" fill="#137BC2"/>
    <path fill="#137BC2" d="M225.162,50.35 L225.162,45.734 L224.138,45.99 L223.882,44.982 L225.538,44.486 L226.378,44.486 L226.378,50.35 L225.162,50.35 Z M230.106,49.398 C230.714,49.398 231.226,48.91 231.226,48.134 L231.226,48.118 C231.226,47.358 230.714,46.854 230.106,46.854 C229.498,46.854 228.986,47.358 228.986,48.118 L228.986,48.134 C228.986,48.894 229.498,49.398 230.106,49.398 Z M227.786,51.678 L227.786,45.902 L229.002,45.902 L229.002,46.566 C229.314,46.142 229.746,45.822 230.41,45.822 C231.45,45.822 232.442,46.638 232.442,48.118 L232.442,48.134 C232.442,49.614 231.466,50.438 230.41,50.438 C229.73,50.438 229.306,50.118 229.002,49.75 L229.002,51.678 L227.786,51.678 Z M234.202,45.902 L235.066,47.238 L235.946,45.902 L237.218,45.902 L235.706,48.07 L237.282,50.35 L235.978,50.35 L235.042,48.918 L234.106,50.35 L232.834,50.35 L234.41,48.086 L232.898,45.902 L234.202,45.902 Z"/>
    <rect width="65.8" height="1" x="155.05" y="50.05" fill="#137BC2"/>
    <use fill="#137BC2" fill-opacity=".3" xlink:href="#example-5-f"/>
    <path stroke="#137BC2" stroke-width=".7" d="M169.4,71.4 L175.690948,71.4 C175.514953,68.0059088 172.794091,65.2850468 169.4,65.1090524 L169.4,71.4 Z"/>
    <rect width="51.8" height="1" x="169.05" y="64.75" fill="#137BC2"/>
    <path fill="#137BC2" d="M225.162,71.35 L225.162,66.734 L224.138,66.99 L223.882,65.982 L225.538,65.486 L226.378,65.486 L226.378,71.35 L225.162,71.35 Z M230.106,70.398 C230.714,70.398 231.226,69.91 231.226,69.134 L231.226,69.118 C231.226,68.358 230.714,67.854 230.106,67.854 C229.498,67.854 228.986,68.358 228.986,69.118 L228.986,69.134 C228.986,69.894 229.498,70.398 230.106,70.398 Z M227.786,72.678 L227.786,66.902 L229.002,66.902 L229.002,67.566 C229.314,67.142 229.746,66.822 230.41,66.822 C231.45,66.822 232.442,67.638 232.442,69.118 L232.442,69.134 C232.442,70.614 231.466,71.438 230.41,71.438 C229.73,71.438 229.306,71.118 229.002,70.75 L229.002,72.678 L227.786,72.678 Z M234.202,66.902 L235.066,68.238 L235.946,66.902 L237.218,66.902 L235.706,69.07 L237.282,71.35 L235.978,71.35 L235.042,69.918 L234.106,71.35 L232.834,71.35 L234.41,69.086 L232.898,66.902 L234.202,66.902 Z"/>
    <rect width="51.8" height="1" x="169.05" y="71.05" fill="#137BC2"/>
    <use fill="#137BC2" fill-opacity=".3" xlink:href="#example-5-g"/>
    <path stroke="#137BC2" stroke-width=".7" d="M183.4,92.4 L189.690948,92.4 C189.514953,89.0059088 186.794091,86.2850468 183.4,86.1090524 L183.4,92.4 Z"/>
    <rect width="37.8" height="1" x="183.05" y="85.75" fill="#137BC2"/>
    <path fill="#137BC2" d="M225.162,92.35 L225.162,87.734 L224.138,87.99 L223.882,86.982 L225.538,86.486 L226.378,86.486 L226.378,92.35 L225.162,92.35 Z M230.106,91.398 C230.714,91.398 231.226,90.91 231.226,90.134 L231.226,90.118 C231.226,89.358 230.714,88.854 230.106,88.854 C229.498,88.854 228.986,89.358 228.986,90.118 L228.986,90.134 C228.986,90.894 229.498,91.398 230.106,91.398 Z M227.786,93.678 L227.786,87.902 L229.002,87.902 L229.002,88.566 C229.314,88.142 229.746,87.822 230.41,87.822 C231.45,87.822 232.442,88.638 232.442,90.118 L232.442,90.134 C232.442,91.614 231.466,92.438 230.41,92.438 C229.73,92.438 229.306,92.118 229.002,91.75 L229.002,93.678 L227.786,93.678 Z M234.202,87.902 L235.066,89.238 L235.946,87.902 L237.218,87.902 L235.706,90.07 L237.282,92.35 L235.978,92.35 L235.042,90.918 L234.106,92.35 L232.834,92.35 L234.41,90.086 L232.898,87.902 L234.202,87.902 Z"/>
    <rect width="37.8" height="1" x="183.05" y="92.05" fill="#137BC2"/>
  </g>
</svg>
