<svg xmlns="http://www.w3.org/2000/svg" xmlns:xlink="http://www.w3.org/1999/xlink" width="264" height="264" viewBox="0 0 264 264">
  <defs>
    <rect id="keyline-shapes-horizontal-rectangle-a" width="168" height="168"/>
    <rect id="keyline-shapes-horizontal-rectangle-c" width="140" height="112" x="14" y="28" rx="5.6"/>
  </defs>
  <g fill="none" fill-rule="evenodd" transform="translate(48 18)">
    <g transform="translate(0 30)">
      <mask id="keyline-shapes-horizontal-rectangle-b" fill="#fff">
        <use xlink:href="#keyline-shapes-horizontal-rectangle-a"/>
      </mask>
      <g mask="url(#keyline-shapes-horizontal-rectangle-b)">
        <rect width="168" height="169.05" fill="#FFF"/>
        <g stroke="#000" stroke-width=".5" opacity=".4">
          <g opacity=".2">
            <rect width="7" height="168" x="161"/>
            <rect width="7" height="168" x="154"/>
            <rect width="7" height="168" x="147"/>
            <rect width="7" height="168" x="140"/>
            <rect width="7" height="168" x="133"/>
            <rect width="7" height="168" x="126"/>
            <rect width="7" height="168" x="119"/>
            <rect width="7" height="168" x="112"/>
            <rect width="7" height="168" x="105"/>
            <rect width="7" height="168" x="98"/>
            <rect width="7" height="168" x="91"/>
            <rect width="7" height="168" x="84"/>
            <rect width="7" height="168" x="77"/>
            <rect width="7" height="168" x="70"/>
            <rect width="7" height="168" x="63"/>
            <rect width="7" height="168" x="56"/>
            <rect width="7" height="168" x="49"/>
            <rect width="7" height="168" x="42"/>
            <rect width="7" height="168" x="35"/>
            <rect width="7" height="168" x="28"/>
            <rect width="7" height="168" x="21"/>
            <rect width="7" height="168" x="14"/>
            <rect width="7" height="168" x="7"/>
            <rect width="7" height="168"/>
          </g>
          <g opacity=".2" transform="rotate(90 84 84)">
            <rect width="7" height="168" x="161"/>
            <rect width="7" height="168" x="154"/>
            <rect width="7" height="168" x="147"/>
            <rect width="7" height="168" x="140"/>
            <rect width="7" height="168" x="133"/>
            <rect width="7" height="168" x="126"/>
            <rect width="7" height="168" x="119"/>
            <rect width="7" height="168" x="112"/>
            <rect width="7" height="168" x="105"/>
            <rect width="7" height="168" x="98"/>
            <rect width="7" height="168" x="91"/>
            <rect width="7" height="168" x="84"/>
            <rect width="7" height="168" x="77"/>
            <rect width="7" height="168" x="70"/>
            <rect width="7" height="168" x="63"/>
            <rect width="7" height="168" x="56"/>
            <rect width="7" height="168" x="49"/>
            <rect width="7" height="168" x="42"/>
            <rect width="7" height="168" x="35"/>
            <rect width="7" height="168" x="28"/>
            <rect width="7" height="168" x="21"/>
            <rect width="7" height="168" x="14"/>
            <rect width="7" height="168" x="7"/>
            <rect width="7" height="168"/>
          </g>
        </g>
        <rect width="166" height="166" x="1" y="1" stroke="#AAA" stroke-width="2"/>
      </g>
      <g stroke="#000" mask="url(#keyline-shapes-horizontal-rectangle-b)">
        <g stroke-width=".5" opacity=".3">
          <path d="M0,0 L168,168" transform="matrix(-1 0 0 1 168 0)"/>
          <path d="M0,0 L168,168"/>
          <circle cx="84" cy="84" r="35"/>
          <path d="M84 0L84 168.4375M112 0L112 168.4375M0 84L168 84M0 112L168 112M0 56L168 56"/>
        </g>
        <g stroke-width=".5" opacity=".7" transform="translate(14 14)">
          <circle cx="70" cy="70" r="70"/>
          <rect width="140" height="112" y="14" rx="32"/>
          <rect width="112" height="140" x="14" rx="32"/>
          <rect width="126" height="126" x="7" y="7" rx="32" transform="rotate(90 70 70)"/>
        </g>
      </g>
      <g>
        <use fill="#137BC2" fill-opacity=".3" xlink:href="#keyline-shapes-horizontal-rectangle-c"/>
        <rect width="138.6" height="110.6" x="14.7" y="28.7" stroke="#137BC2" stroke-width="1.4" rx="5.6"/>
      </g>
      <g fill="#137BC2" transform="translate(14 28)">
        <rect width="1" height="14" y="142.8"/>
        <path d="M59.592,167.6 L59.592,166.624 L61.544,165.016 C62.28,164.4 62.568,164.072 62.568,163.584 C62.568,163.072 62.224,162.792 61.752,162.792 C61.288,162.792 60.968,163.056 60.536,163.592 L59.672,162.904 C60.24,162.12 60.792,161.696 61.832,161.696 C63.024,161.696 63.824,162.4 63.824,163.48 L63.824,163.496 C63.824,164.456 63.328,164.944 62.296,165.752 L61.296,166.536 L63.88,166.536 L63.88,167.6 L59.592,167.6 Z M67.44,167.696 C65.888,167.696 64.872,166.392 64.872,164.704 L64.872,164.688 C64.872,163.008 65.912,161.68 67.456,161.68 C68.992,161.68 70.024,162.984 70.024,164.672 L70.024,164.688 C70.024,166.368 68.992,167.696 67.44,167.696 Z M67.456,166.592 C68.256,166.592 68.76,165.776 68.76,164.704 L68.76,164.688 C68.76,163.616 68.232,162.784 67.44,162.784 C66.648,162.784 66.136,163.592 66.136,164.672 L66.136,164.688 C66.136,165.768 66.656,166.592 67.456,166.592 Z M73.44,166.648 C74.048,166.648 74.56,166.16 74.56,165.384 L74.56,165.368 C74.56,164.608 74.048,164.104 73.44,164.104 C72.832,164.104 72.32,164.608 72.32,165.368 L72.32,165.384 C72.32,166.144 72.832,166.648 73.44,166.648 Z M71.12,168.928 L71.12,163.152 L72.336,163.152 L72.336,163.816 C72.648,163.392 73.08,163.072 73.744,163.072 C74.784,163.072 75.776,163.888 75.776,165.368 L75.776,165.384 C75.776,166.864 74.8,167.688 73.744,167.688 C73.064,167.688 72.64,167.368 72.336,167 L72.336,168.928 L71.12,168.928 Z M77.536,163.152 L78.4,164.488 L79.28,163.152 L80.552,163.152 L79.04,165.32 L80.616,167.6 L79.312,167.6 L78.376,166.168 L77.44,167.6 L76.168,167.6 L77.744,165.336 L76.232,163.152 L77.536,163.152 Z"/>
        <rect width="1" height="14" x="139.3" y="142.8"/>
        <rect width="14" height="1" x="156.8" y="111.3"/>
        <rect width="14" height="1" x="156.8"/>
        <path d="M165.112,59.1 L165.112,54.484 L164.088,54.74 L163.832,53.732 L165.488,53.236 L166.328,53.236 L166.328,59.1 L165.112,59.1 Z M169.976,59.196 C169.232,59.196 168.712,58.98 168.304,58.58 C167.88,58.148 167.616,57.532 167.616,56.372 L167.616,56.356 C167.616,54.556 168.44,53.18 170.16,53.18 C170.944,53.18 171.456,53.412 171.968,53.82 L171.32,54.772 C170.936,54.468 170.616,54.292 170.12,54.292 C169.2,54.292 168.936,55.196 168.896,55.756 L168.904,55.756 C169.208,55.508 169.6,55.324 170.144,55.324 C171.296,55.324 172.184,55.972 172.184,57.172 L172.184,57.196 C172.184,58.38 171.232,59.196 169.976,59.196 Z M169.928,58.148 C170.584,58.148 170.96,57.764 170.96,57.252 L170.96,57.228 C170.96,56.724 170.568,56.348 169.912,56.348 C169.264,56.348 168.88,56.724 168.88,57.228 L168.88,57.244 C168.88,57.756 169.28,58.148 169.928,58.148 Z M175.616,58.148 C176.224,58.148 176.736,57.66 176.736,56.884 L176.736,56.868 C176.736,56.108 176.224,55.604 175.616,55.604 C175.008,55.604 174.496,56.108 174.496,56.868 L174.496,56.884 C174.496,57.644 175.008,58.148 175.616,58.148 Z M173.296,60.428 L173.296,54.652 L174.512,54.652 L174.512,55.316 C174.824,54.892 175.256,54.572 175.92,54.572 C176.96,54.572 177.952,55.388 177.952,56.868 L177.952,56.884 C177.952,58.364 176.976,59.188 175.92,59.188 C175.24,59.188 174.816,58.868 174.512,58.5 L174.512,60.428 L173.296,60.428 Z M179.712,54.652 L180.576,55.988 L181.456,54.652 L182.728,54.652 L181.216,56.82 L182.792,59.1 L181.488,59.1 L180.552,57.668 L179.616,59.1 L178.344,59.1 L179.92,56.836 L178.408,54.652 L179.712,54.652 Z"/>
      </g>
    </g>
    <path fill="#137BC2" d="M20.03,10 L20.03,1.264 L21.866,1.264 L21.866,4.756 L25.538,4.756 L25.538,1.264 L27.386,1.264 L27.386,10 L25.538,10 L25.538,6.46 L21.866,6.46 L21.866,10 L20.03,10 Z M32.654,10.144 C30.602,10.144 29.078,8.62 29.078,6.7 L29.078,6.676 C29.078,4.768 30.614,3.208 32.69,3.208 C34.742,3.208 36.266,4.744 36.266,6.652 L36.266,6.676 C36.266,8.596 34.73,10.144 32.654,10.144 Z M32.69,8.584 C33.794,8.584 34.466,7.72 34.466,6.7 L34.466,6.676 C34.466,5.656 33.734,4.78 32.654,4.78 C31.55,4.78 30.878,5.632 30.878,6.652 L30.878,6.676 C30.878,7.696 31.61,8.584 32.69,8.584 Z M37.766,10 L37.766,3.328 L39.59,3.328 L39.59,4.708 C39.986,3.772 40.634,3.16 41.762,3.208 L41.762,5.116 L41.666,5.116 C40.394,5.116 39.59,5.896 39.59,7.516 L39.59,10 L37.766,10 Z M43.106,2.536 L43.106,0.904 L45.026,0.904 L45.026,2.536 L43.106,2.536 Z M43.166,10 L43.166,3.328 L44.978,3.328 L44.978,10 L43.166,10 Z M46.658,10 L46.658,8.728 L50.186,4.804 L46.778,4.804 L46.778,3.328 L52.466,3.328 L52.466,4.612 L48.926,8.524 L52.466,8.524 L52.466,10 L46.658,10 Z M57.074,10.144 C55.022,10.144 53.498,8.62 53.498,6.7 L53.498,6.676 C53.498,4.768 55.034,3.208 57.11,3.208 C59.162,3.208 60.686,4.744 60.686,6.652 L60.686,6.676 C60.686,8.596 59.15,10.144 57.074,10.144 Z M57.11,8.584 C58.214,8.584 58.886,7.72 58.886,6.7 L58.886,6.676 C58.886,5.656 58.154,4.78 57.074,4.78 C55.97,4.78 55.298,5.632 55.298,6.652 L55.298,6.676 C55.298,7.696 56.03,8.584 57.11,8.584 Z M62.186,10 L62.186,3.328 L64.01,3.328 L64.01,4.288 C64.442,3.724 65.018,3.208 65.99,3.208 C67.43,3.208 68.282,4.156 68.282,5.692 L68.282,10 L66.458,10 L66.458,6.268 C66.458,5.344 66.014,4.852 65.258,4.852 C64.502,4.852 64.01,5.344 64.01,6.268 L64.01,10 L62.186,10 Z M72.302,10.108 C71.15,10.108 70.358,9.652 70.358,8.116 L70.358,4.888 L69.554,4.888 L69.554,3.328 L70.358,3.328 L70.358,1.6 L72.182,1.6 L72.182,3.328 L73.79,3.328 L73.79,4.888 L72.182,4.888 L72.182,7.816 C72.182,8.284 72.386,8.5 72.83,8.5 C73.178,8.5 73.49,8.416 73.766,8.272 L73.766,9.736 C73.37,9.964 72.926,10.108 72.302,10.108 Z M77.762,8.86 C78.674,8.86 79.298,8.356 79.298,7.636 L79.298,7.276 C78.962,7.132 78.518,7.024 78.026,7.024 C77.186,7.024 76.67,7.372 76.67,7.984 L76.67,8.008 C76.67,8.548 77.126,8.86 77.762,8.86 Z M77.222,10.132 C75.962,10.132 74.906,9.4 74.906,8.08 L74.906,8.056 C74.906,6.604 76.022,5.932 77.606,5.932 C78.302,5.932 78.794,6.04 79.274,6.196 L79.274,6.076 C79.274,5.26 78.77,4.816 77.798,4.816 C77.078,4.816 76.55,4.96 75.938,5.188 L75.482,3.796 C76.214,3.472 76.946,3.256 78.062,3.256 C79.082,3.256 79.826,3.532 80.306,4 C80.798,4.492 81.026,5.224 81.026,6.112 L81.026,10 L79.262,10 L79.262,9.256 C78.806,9.772 78.158,10.132 77.222,10.132 Z M82.886,10 L82.886,0.892 L84.698,0.892 L84.698,10 L82.886,10 Z M92.498,5.524 L94.514,5.524 C95.474,5.524 96.05,5.008 96.05,4.24 L96.05,4.216 C96.05,3.376 95.45,2.932 94.478,2.932 L92.498,2.932 L92.498,5.524 Z M90.662,10 L90.662,1.264 L94.634,1.264 C95.738,1.264 96.602,1.576 97.178,2.152 C97.658,2.632 97.91,3.316 97.91,4.12 L97.91,4.144 C97.91,5.56 97.13,6.448 96.002,6.844 L98.186,10 L96.026,10 L94.094,7.156 L92.498,7.156 L92.498,10 L90.662,10 Z M102.602,10.144 C100.61,10.144 99.134,8.74 99.134,6.7 L99.134,6.676 C99.134,4.768 100.49,3.208 102.422,3.208 C104.63,3.208 105.662,4.924 105.662,6.82 C105.662,6.964 105.65,7.132 105.638,7.3 L100.946,7.3 C101.126,8.212 101.75,8.68 102.626,8.68 C103.286,8.68 103.754,8.476 104.282,7.984 L105.326,8.908 C104.702,9.676 103.814,10.144 102.602,10.144 Z M100.922,6.16 L103.886,6.16 C103.766,5.284 103.262,4.672 102.422,4.672 C101.606,4.672 101.066,5.26 100.922,6.16 Z M110.33,10.144 C108.326,10.144 106.862,8.608 106.862,6.7 L106.862,6.676 C106.862,4.78 108.314,3.208 110.354,3.208 C111.602,3.208 112.394,3.64 113.018,4.336 L111.89,5.536 C111.458,5.08 111.026,4.78 110.342,4.78 C109.358,4.78 108.662,5.632 108.662,6.652 L108.662,6.676 C108.662,7.732 109.346,8.584 110.414,8.584 C111.062,8.584 111.518,8.296 111.986,7.852 L113.054,8.92 C112.406,9.64 111.65,10.144 110.33,10.144 Z M116.666,10.108 C115.514,10.108 114.722,9.652 114.722,8.116 L114.722,4.888 L113.918,4.888 L113.918,3.328 L114.722,3.328 L114.722,1.6 L116.546,1.6 L116.546,3.328 L118.154,3.328 L118.154,4.888 L116.546,4.888 L116.546,7.816 C116.546,8.284 116.75,8.5 117.194,8.5 C117.542,8.5 117.854,8.416 118.13,8.272 L118.13,9.736 C117.734,9.964 117.29,10.108 116.666,10.108 Z M122.126,8.86 C123.038,8.86 123.662,8.356 123.662,7.636 L123.662,7.276 C123.326,7.132 122.882,7.024 122.39,7.024 C121.55,7.024 121.034,7.372 121.034,7.984 L121.034,8.008 C121.034,8.548 121.49,8.86 122.126,8.86 Z M121.586,10.132 C120.326,10.132 119.27,9.4 119.27,8.08 L119.27,8.056 C119.27,6.604 120.386,5.932 121.97,5.932 C122.666,5.932 123.158,6.04 123.638,6.196 L123.638,6.076 C123.638,5.26 123.134,4.816 122.162,4.816 C121.442,4.816 120.914,4.96 120.302,5.188 L119.846,3.796 C120.578,3.472 121.31,3.256 122.426,3.256 C123.446,3.256 124.19,3.532 124.67,4 C125.162,4.492 125.39,5.224 125.39,6.112 L125.39,10 L123.626,10 L123.626,9.256 C123.17,9.772 122.522,10.132 121.586,10.132 Z M127.154,10 L127.154,3.328 L128.978,3.328 L128.978,4.288 C129.41,3.724 129.986,3.208 130.958,3.208 C132.398,3.208 133.25,4.156 133.25,5.692 L133.25,10 L131.426,10 L131.426,6.268 C131.426,5.344 130.982,4.852 130.226,4.852 C129.47,4.852 128.978,5.344 128.978,6.268 L128.978,10 L127.154,10 Z M138.206,7.948 C139.154,7.948 139.898,7.288 139.898,6.34 L139.898,6.316 C139.898,5.368 139.154,4.72 138.206,4.72 C137.258,4.72 136.538,5.368 136.538,6.316 L136.538,6.34 C136.538,7.3 137.258,7.948 138.206,7.948 Z M138.002,12.016 C136.922,12.016 135.89,11.764 135.05,11.308 L135.674,9.94 C136.37,10.336 137.066,10.564 137.954,10.564 C139.262,10.564 139.898,9.928 139.898,8.704 L139.898,8.344 C139.334,9.028 138.71,9.46 137.69,9.46 C136.13,9.46 134.714,8.32 134.714,6.34 L134.714,6.316 C134.714,4.336 136.154,3.208 137.69,3.208 C138.734,3.208 139.358,3.652 139.874,4.228 L139.874,3.328 L141.698,3.328 L141.698,8.524 C141.698,9.7 141.41,10.564 140.846,11.128 C140.234,11.74 139.274,12.016 138.002,12.016 Z M143.618,10 L143.618,0.892 L145.43,0.892 L145.43,10 L143.618,10 Z M150.494,10.144 C148.502,10.144 147.026,8.74 147.026,6.7 L147.026,6.676 C147.026,4.768 148.382,3.208 150.314,3.208 C152.522,3.208 153.554,4.924 153.554,6.82 C153.554,6.964 153.542,7.132 153.53,7.3 L148.838,7.3 C149.018,8.212 149.642,8.68 150.518,8.68 C151.178,8.68 151.646,8.476 152.174,7.984 L153.218,8.908 C152.594,9.676 151.706,10.144 150.494,10.144 Z M148.814,6.16 L151.778,6.16 C151.658,5.284 151.154,4.672 150.314,4.672 C149.498,4.672 148.958,5.26 148.814,6.16 Z"/>
  </g>
</svg>
