<svg xmlns="http://www.w3.org/2000/svg" xmlns:xlink="http://www.w3.org/1999/xlink" width="264" height="264" viewBox="0 0 264 264">
  <defs>
    <rect id="keyline-shapes-vertical-rectangle-a" width="168" height="168"/>
    <rect id="keyline-shapes-vertical-rectangle-c" width="112" height="140" x="28" y="14" rx="5.6"/>
  </defs>
  <g fill="none" fill-rule="evenodd" transform="translate(48 18)">
    <g transform="translate(0 30)">
      <mask id="keyline-shapes-vertical-rectangle-b" fill="#fff">
        <use xlink:href="#keyline-shapes-vertical-rectangle-a"/>
      </mask>
      <g mask="url(#keyline-shapes-vertical-rectangle-b)">
        <rect width="168" height="169.05" fill="#FFF"/>
        <g stroke="#000" stroke-width=".5" opacity=".4">
          <g opacity=".2">
            <rect width="7" height="168" x="161"/>
            <rect width="7" height="168" x="154"/>
            <rect width="7" height="168" x="147"/>
            <rect width="7" height="168" x="140"/>
            <rect width="7" height="168" x="133"/>
            <rect width="7" height="168" x="126"/>
            <rect width="7" height="168" x="119"/>
            <rect width="7" height="168" x="112"/>
            <rect width="7" height="168" x="105"/>
            <rect width="7" height="168" x="98"/>
            <rect width="7" height="168" x="91"/>
            <rect width="7" height="168" x="84"/>
            <rect width="7" height="168" x="77"/>
            <rect width="7" height="168" x="70"/>
            <rect width="7" height="168" x="63"/>
            <rect width="7" height="168" x="56"/>
            <rect width="7" height="168" x="49"/>
            <rect width="7" height="168" x="42"/>
            <rect width="7" height="168" x="35"/>
            <rect width="7" height="168" x="28"/>
            <rect width="7" height="168" x="21"/>
            <rect width="7" height="168" x="14"/>
            <rect width="7" height="168" x="7"/>
            <rect width="7" height="168"/>
          </g>
          <g opacity=".2" transform="rotate(90 84 84)">
            <rect width="7" height="168" x="161"/>
            <rect width="7" height="168" x="154"/>
            <rect width="7" height="168" x="147"/>
            <rect width="7" height="168" x="140"/>
            <rect width="7" height="168" x="133"/>
            <rect width="7" height="168" x="126"/>
            <rect width="7" height="168" x="119"/>
            <rect width="7" height="168" x="112"/>
            <rect width="7" height="168" x="105"/>
            <rect width="7" height="168" x="98"/>
            <rect width="7" height="168" x="91"/>
            <rect width="7" height="168" x="84"/>
            <rect width="7" height="168" x="77"/>
            <rect width="7" height="168" x="70"/>
            <rect width="7" height="168" x="63"/>
            <rect width="7" height="168" x="56"/>
            <rect width="7" height="168" x="49"/>
            <rect width="7" height="168" x="42"/>
            <rect width="7" height="168" x="35"/>
            <rect width="7" height="168" x="28"/>
            <rect width="7" height="168" x="21"/>
            <rect width="7" height="168" x="14"/>
            <rect width="7" height="168" x="7"/>
            <rect width="7" height="168"/>
          </g>
        </g>
        <rect width="166" height="166" x="1" y="1" stroke="#AAA" stroke-width="2"/>
      </g>
      <g stroke="#000" mask="url(#keyline-shapes-vertical-rectangle-b)">
        <g stroke-width=".5" opacity=".3">
          <path d="M0,0 L168,168" transform="matrix(-1 0 0 1 168 0)"/>
          <path d="M0,0 L168,168"/>
          <circle cx="84" cy="84" r="35"/>
          <path d="M84 0L84 168.4375M112 0L112 168.4375M0 84L168 84M0 112L168 112M0 56L168 56"/>
        </g>
        <g stroke-width=".5" opacity=".7" transform="translate(14 14)">
          <circle cx="70" cy="70" r="70"/>
          <rect width="140" height="112" y="14" rx="32"/>
          <rect width="112" height="140" x="14" rx="32"/>
          <rect width="126" height="126" x="7" y="7" rx="32" transform="rotate(90 70 70)"/>
        </g>
      </g>
      <g>
        <use fill="#137BC2" fill-opacity=".3" xlink:href="#keyline-shapes-vertical-rectangle-c"/>
        <rect width="111.3" height="139.3" x="28.35" y="14.35" stroke="#137BC2" stroke-width=".7" rx="5.6"/>
      </g>
      <g fill="#137BC2" transform="translate(28 14)">
        <rect width="1" height="14" y="156.8"/>
        <path d="M47.975,181.6 L47.975,176.984 L46.951,177.24 L46.695,176.232 L48.351,175.736 L49.191,175.736 L49.191,181.6 L47.975,181.6 Z M52.839,181.696 C52.095,181.696 51.575,181.48 51.167,181.08 C50.743,180.648 50.479,180.032 50.479,178.872 L50.479,178.856 C50.479,177.056 51.303,175.68 53.023,175.68 C53.807,175.68 54.319,175.912 54.831,176.32 L54.183,177.272 C53.799,176.968 53.479,176.792 52.983,176.792 C52.063,176.792 51.799,177.696 51.759,178.256 L51.767,178.256 C52.071,178.008 52.463,177.824 53.007,177.824 C54.159,177.824 55.047,178.472 55.047,179.672 L55.047,179.696 C55.047,180.88 54.095,181.696 52.839,181.696 Z M52.791,180.648 C53.447,180.648 53.823,180.264 53.823,179.752 L53.823,179.728 C53.823,179.224 53.431,178.848 52.775,178.848 C52.127,178.848 51.743,179.224 51.743,179.728 L51.743,179.744 C51.743,180.256 52.143,180.648 52.791,180.648 Z M58.479,180.648 C59.087,180.648 59.599,180.16 59.599,179.384 L59.599,179.368 C59.599,178.608 59.087,178.104 58.479,178.104 C57.871,178.104 57.359,178.608 57.359,179.368 L57.359,179.384 C57.359,180.144 57.871,180.648 58.479,180.648 Z M56.159,182.928 L56.159,177.152 L57.375,177.152 L57.375,177.816 C57.687,177.392 58.119,177.072 58.783,177.072 C59.823,177.072 60.815,177.888 60.815,179.368 L60.815,179.384 C60.815,180.864 59.839,181.688 58.783,181.688 C58.103,181.688 57.679,181.368 57.375,181 L57.375,182.928 L56.159,182.928 Z M62.575,177.152 L63.439,178.488 L64.319,177.152 L65.591,177.152 L64.079,179.32 L65.655,181.6 L64.351,181.6 L63.415,180.168 L62.479,181.6 L61.207,181.6 L62.783,179.336 L61.271,177.152 L62.575,177.152 Z"/>
        <rect width="1" height="14" x="111.3" y="156.8"/>
        <rect width="14" height="1" x="142.8" y="139.3"/>
        <rect width="14" height="1" x="142.8"/>
        <path d="M150.04,72.75 L150.04,71.774 L151.992,70.166 C152.728,69.55 153.016,69.222 153.016,68.734 C153.016,68.222 152.672,67.942 152.2,67.942 C151.736,67.942 151.416,68.206 150.984,68.742 L150.12,68.054 C150.688,67.27 151.24,66.846 152.28,66.846 C153.472,66.846 154.272,67.55 154.272,68.63 L154.272,68.646 C154.272,69.606 153.776,70.094 152.744,70.902 L151.744,71.686 L154.328,71.686 L154.328,72.75 L150.04,72.75 Z M157.888,72.846 C156.336,72.846 155.32,71.542 155.32,69.854 L155.32,69.838 C155.32,68.158 156.36,66.83 157.904,66.83 C159.44,66.83 160.472,68.134 160.472,69.822 L160.472,69.838 C160.472,71.518 159.44,72.846 157.888,72.846 Z M157.904,71.742 C158.704,71.742 159.208,70.926 159.208,69.854 L159.208,69.838 C159.208,68.766 158.68,67.934 157.888,67.934 C157.096,67.934 156.584,68.742 156.584,69.822 L156.584,69.838 C156.584,70.918 157.104,71.742 157.904,71.742 Z M163.888,71.798 C164.496,71.798 165.008,71.31 165.008,70.534 L165.008,70.518 C165.008,69.758 164.496,69.254 163.888,69.254 C163.28,69.254 162.768,69.758 162.768,70.518 L162.768,70.534 C162.768,71.294 163.28,71.798 163.888,71.798 Z M161.568,74.078 L161.568,68.302 L162.784,68.302 L162.784,68.966 C163.096,68.542 163.528,68.222 164.192,68.222 C165.232,68.222 166.224,69.038 166.224,70.518 L166.224,70.534 C166.224,72.014 165.248,72.838 164.192,72.838 C163.512,72.838 163.088,72.518 162.784,72.15 L162.784,74.078 L161.568,74.078 Z M167.984,68.302 L168.848,69.638 L169.728,68.302 L171,68.302 L169.488,70.47 L171.064,72.75 L169.76,72.75 L168.824,71.318 L167.888,72.75 L166.616,72.75 L168.192,70.486 L166.68,68.302 L167.984,68.302 Z"/>
      </g>
    </g>
    <path fill="#137BC2" d="M31.464,10.06 L27.912,1.264 L29.952,1.264 L32.304,7.528 L34.656,1.264 L36.648,1.264 L33.096,10.06 L31.464,10.06 Z M40.188,10.144 C38.196,10.144 36.72,8.74 36.72,6.7 L36.72,6.676 C36.72,4.768 38.076,3.208 40.008,3.208 C42.216,3.208 43.248,4.924 43.248,6.82 C43.248,6.964 43.236,7.132 43.224,7.3 L38.532,7.3 C38.712,8.212 39.336,8.68 40.212,8.68 C40.872,8.68 41.34,8.476 41.868,7.984 L42.912,8.908 C42.288,9.676 41.4,10.144 40.188,10.144 Z M38.508,6.16 L41.472,6.16 C41.352,5.284 40.848,4.672 40.008,4.672 C39.192,4.672 38.652,5.26 38.508,6.16 Z M44.772,10 L44.772,3.328 L46.596,3.328 L46.596,4.708 C46.992,3.772 47.64,3.16 48.768,3.208 L48.768,5.116 L48.672,5.116 C47.4,5.116 46.596,5.896 46.596,7.516 L46.596,10 L44.772,10 Z M52.332,10.108 C51.18,10.108 50.388,9.652 50.388,8.116 L50.388,4.888 L49.584,4.888 L49.584,3.328 L50.388,3.328 L50.388,1.6 L52.212,1.6 L52.212,3.328 L53.82,3.328 L53.82,4.888 L52.212,4.888 L52.212,7.816 C52.212,8.284 52.416,8.5 52.86,8.5 C53.208,8.5 53.52,8.416 53.796,8.272 L53.796,9.736 C53.4,9.964 52.956,10.108 52.332,10.108 Z M55.38,2.536 L55.38,0.904 L57.3,0.904 L57.3,2.536 L55.38,2.536 Z M55.44,10 L55.44,3.328 L57.252,3.328 L57.252,10 L55.44,10 Z M62.316,10.144 C60.312,10.144 58.848,8.608 58.848,6.7 L58.848,6.676 C58.848,4.78 60.3,3.208 62.34,3.208 C63.588,3.208 64.38,3.64 65.004,4.336 L63.876,5.536 C63.444,5.08 63.012,4.78 62.328,4.78 C61.344,4.78 60.648,5.632 60.648,6.652 L60.648,6.676 C60.648,7.732 61.332,8.584 62.4,8.584 C63.048,8.584 63.504,8.296 63.972,7.852 L65.04,8.92 C64.392,9.64 63.636,10.144 62.316,10.144 Z M68.844,8.86 C69.756,8.86 70.38,8.356 70.38,7.636 L70.38,7.276 C70.044,7.132 69.6,7.024 69.108,7.024 C68.268,7.024 67.752,7.372 67.752,7.984 L67.752,8.008 C67.752,8.548 68.208,8.86 68.844,8.86 Z M68.304,10.132 C67.044,10.132 65.988,9.4 65.988,8.08 L65.988,8.056 C65.988,6.604 67.104,5.932 68.688,5.932 C69.384,5.932 69.876,6.04 70.356,6.196 L70.356,6.076 C70.356,5.26 69.852,4.816 68.88,4.816 C68.16,4.816 67.632,4.96 67.02,5.188 L66.564,3.796 C67.296,3.472 68.028,3.256 69.144,3.256 C70.164,3.256 70.908,3.532 71.388,4 C71.88,4.492 72.108,5.224 72.108,6.112 L72.108,10 L70.344,10 L70.344,9.256 C69.888,9.772 69.24,10.132 68.304,10.132 Z M73.968,10 L73.968,0.892 L75.78,0.892 L75.78,10 L73.968,10 Z M83.58,5.524 L85.596,5.524 C86.556,5.524 87.132,5.008 87.132,4.24 L87.132,4.216 C87.132,3.376 86.532,2.932 85.56,2.932 L83.58,2.932 L83.58,5.524 Z M81.744,10 L81.744,1.264 L85.716,1.264 C86.82,1.264 87.684,1.576 88.26,2.152 C88.74,2.632 88.992,3.316 88.992,4.12 L88.992,4.144 C88.992,5.56 88.212,6.448 87.084,6.844 L89.268,10 L87.108,10 L85.176,7.156 L83.58,7.156 L83.58,10 L81.744,10 Z M93.684,10.144 C91.692,10.144 90.216,8.74 90.216,6.7 L90.216,6.676 C90.216,4.768 91.572,3.208 93.504,3.208 C95.712,3.208 96.744,4.924 96.744,6.82 C96.744,6.964 96.732,7.132 96.72,7.3 L92.028,7.3 C92.208,8.212 92.832,8.68 93.708,8.68 C94.368,8.68 94.836,8.476 95.364,7.984 L96.408,8.908 C95.784,9.676 94.896,10.144 93.684,10.144 Z M92.004,6.16 L94.968,6.16 C94.848,5.284 94.344,4.672 93.504,4.672 C92.688,4.672 92.148,5.26 92.004,6.16 Z M101.412,10.144 C99.408,10.144 97.944,8.608 97.944,6.7 L97.944,6.676 C97.944,4.78 99.396,3.208 101.436,3.208 C102.684,3.208 103.476,3.64 104.1,4.336 L102.972,5.536 C102.54,5.08 102.108,4.78 101.424,4.78 C100.44,4.78 99.744,5.632 99.744,6.652 L99.744,6.676 C99.744,7.732 100.428,8.584 101.496,8.584 C102.144,8.584 102.6,8.296 103.068,7.852 L104.136,8.92 C103.488,9.64 102.732,10.144 101.412,10.144 Z M107.748,10.108 C106.596,10.108 105.804,9.652 105.804,8.116 L105.804,4.888 L105,4.888 L105,3.328 L105.804,3.328 L105.804,1.6 L107.628,1.6 L107.628,3.328 L109.236,3.328 L109.236,4.888 L107.628,4.888 L107.628,7.816 C107.628,8.284 107.832,8.5 108.276,8.5 C108.624,8.5 108.936,8.416 109.212,8.272 L109.212,9.736 C108.816,9.964 108.372,10.108 107.748,10.108 Z M113.208,8.86 C114.12,8.86 114.744,8.356 114.744,7.636 L114.744,7.276 C114.408,7.132 113.964,7.024 113.472,7.024 C112.632,7.024 112.116,7.372 112.116,7.984 L112.116,8.008 C112.116,8.548 112.572,8.86 113.208,8.86 Z M112.668,10.132 C111.408,10.132 110.352,9.4 110.352,8.08 L110.352,8.056 C110.352,6.604 111.468,5.932 113.052,5.932 C113.748,5.932 114.24,6.04 114.72,6.196 L114.72,6.076 C114.72,5.26 114.216,4.816 113.244,4.816 C112.524,4.816 111.996,4.96 111.384,5.188 L110.928,3.796 C111.66,3.472 112.392,3.256 113.508,3.256 C114.528,3.256 115.272,3.532 115.752,4 C116.244,4.492 116.472,5.224 116.472,6.112 L116.472,10 L114.708,10 L114.708,9.256 C114.252,9.772 113.604,10.132 112.668,10.132 Z M118.236,10 L118.236,3.328 L120.06,3.328 L120.06,4.288 C120.492,3.724 121.068,3.208 122.04,3.208 C123.48,3.208 124.332,4.156 124.332,5.692 L124.332,10 L122.508,10 L122.508,6.268 C122.508,5.344 122.064,4.852 121.308,4.852 C120.552,4.852 120.06,5.344 120.06,6.268 L120.06,10 L118.236,10 Z M129.288,7.948 C130.236,7.948 130.98,7.288 130.98,6.34 L130.98,6.316 C130.98,5.368 130.236,4.72 129.288,4.72 C128.34,4.72 127.62,5.368 127.62,6.316 L127.62,6.34 C127.62,7.3 128.34,7.948 129.288,7.948 Z M129.084,12.016 C128.004,12.016 126.972,11.764 126.132,11.308 L126.756,9.94 C127.452,10.336 128.148,10.564 129.036,10.564 C130.344,10.564 130.98,9.928 130.98,8.704 L130.98,8.344 C130.416,9.028 129.792,9.46 128.772,9.46 C127.212,9.46 125.796,8.32 125.796,6.34 L125.796,6.316 C125.796,4.336 127.236,3.208 128.772,3.208 C129.816,3.208 130.44,3.652 130.956,4.228 L130.956,3.328 L132.78,3.328 L132.78,8.524 C132.78,9.7 132.492,10.564 131.928,11.128 C131.316,11.74 130.356,12.016 129.084,12.016 Z M134.7,10 L134.7,0.892 L136.512,0.892 L136.512,10 L134.7,10 Z M141.576,10.144 C139.584,10.144 138.108,8.74 138.108,6.7 L138.108,6.676 C138.108,4.768 139.464,3.208 141.396,3.208 C143.604,3.208 144.636,4.924 144.636,6.82 C144.636,6.964 144.624,7.132 144.612,7.3 L139.92,7.3 C140.1,8.212 140.724,8.68 141.6,8.68 C142.26,8.68 142.728,8.476 143.256,7.984 L144.3,8.908 C143.676,9.676 142.788,10.144 141.576,10.144 Z M139.896,6.16 L142.86,6.16 C142.74,5.284 142.236,4.672 141.396,4.672 C140.58,4.672 140.04,5.26 139.896,6.16 Z"/>
  </g>
</svg>
