<svg xmlns="http://www.w3.org/2000/svg" xmlns:xlink="http://www.w3.org/1999/xlink" width="264" height="264" viewBox="0 0 264 264">
  <defs>
    <circle id="avoid-4-a" cx="55.55" cy="81.9" r="14"/>
    <circle id="avoid-4-b" cx="55.55" cy="149.8" r="14"/>
    <circle id="avoid-4-c" cx="123.1" cy="81.9" r="14"/>
    <circle id="avoid-4-d" cx="123.1" cy="149.8" r="14"/>
  </defs>
  <g fill="none" fill-rule="evenodd" transform="translate(42 16)">
    <g transform="translate(5.95 32.2)">
      <rect width="168" height="169.05" fill="#FFF"/>
      <g stroke="#000" stroke-width=".5" opacity=".4">
        <g opacity=".2">
          <rect width="7" height="168" x="161"/>
          <rect width="7" height="168" x="154"/>
          <rect width="7" height="168" x="147"/>
          <rect width="7" height="168" x="140"/>
          <rect width="7" height="168" x="133"/>
          <rect width="7" height="168" x="126"/>
          <rect width="7" height="168" x="119"/>
          <rect width="7" height="168" x="112"/>
          <rect width="7" height="168" x="105"/>
          <rect width="7" height="168" x="98"/>
          <rect width="7" height="168" x="91"/>
          <rect width="7" height="168" x="84"/>
          <rect width="7" height="168" x="77"/>
          <rect width="7" height="168" x="70"/>
          <rect width="7" height="168" x="63"/>
          <rect width="7" height="168" x="56"/>
          <rect width="7" height="168" x="49"/>
          <rect width="7" height="168" x="42"/>
          <rect width="7" height="168" x="35"/>
          <rect width="7" height="168" x="28"/>
          <rect width="7" height="168" x="21"/>
          <rect width="7" height="168" x="14"/>
          <rect width="7" height="168" x="7"/>
          <rect width="7" height="168"/>
        </g>
        <g opacity=".2" transform="rotate(90 84 84)">
          <rect width="7" height="168" x="161"/>
          <rect width="7" height="168" x="154"/>
          <rect width="7" height="168" x="147"/>
          <rect width="7" height="168" x="140"/>
          <rect width="7" height="168" x="133"/>
          <rect width="7" height="168" x="126"/>
          <rect width="7" height="168" x="119"/>
          <rect width="7" height="168" x="112"/>
          <rect width="7" height="168" x="105"/>
          <rect width="7" height="168" x="98"/>
          <rect width="7" height="168" x="91"/>
          <rect width="7" height="168" x="84"/>
          <rect width="7" height="168" x="77"/>
          <rect width="7" height="168" x="70"/>
          <rect width="7" height="168" x="63"/>
          <rect width="7" height="168" x="56"/>
          <rect width="7" height="168" x="49"/>
          <rect width="7" height="168" x="42"/>
          <rect width="7" height="168" x="35"/>
          <rect width="7" height="168" x="28"/>
          <rect width="7" height="168" x="21"/>
          <rect width="7" height="168" x="14"/>
          <rect width="7" height="168" x="7"/>
          <rect width="7" height="168"/>
        </g>
      </g>
      <rect width="166" height="166" x="1" y="1" stroke="#AAA" stroke-width="2"/>
    </g>
    <g opacity=".4" transform="translate(5.95 32.2)">
      <rect width="168" height="168"/>
      <polygon fill="#000" fill-rule="nonzero" points="126 51.87 116.13 42 84 74.13 51.87 42 42 51.87 74.13 84 42 116.13 51.87 126 84 93.87 116.13 126 126 116.13 93.87 84"/>
    </g>
    <path fill="#DE3636" d="M5.723,12.132 C3.395,12.132 1.955,10.824 1.955,8.268 L1.955,3.264 L3.803,3.264 L3.803,8.208 C3.803,9.672 4.535,10.44 5.747,10.44 C6.959,10.44 7.703,9.708 7.703,8.28 L7.703,3.264 L9.539,3.264 L9.539,8.196 C9.539,10.836 8.063,12.132 5.723,12.132 Z M11.423,12 L11.423,5.328 L13.247,5.328 L13.247,6.288 C13.679,5.724 14.255,5.208 15.227,5.208 C16.667,5.208 17.519,6.156 17.519,7.692 L17.519,12 L15.695,12 L15.695,8.268 C15.695,7.344 15.251,6.852 14.495,6.852 C13.739,6.852 13.247,7.344 13.247,8.268 L13.247,12 L11.423,12 Z M19.283,12 L19.283,5.328 L21.107,5.328 L21.107,6.708 C21.503,5.772 22.151,5.16 23.279,5.208 L23.279,7.116 L23.183,7.116 C21.911,7.116 21.107,7.896 21.107,9.516 L21.107,12 L19.283,12 Z M27.647,12.144 C25.595,12.144 24.071,10.62 24.071,8.7 L24.071,8.676 C24.071,6.768 25.607,5.208 27.683,5.208 C29.735,5.208 31.259,6.744 31.259,8.652 L31.259,8.676 C31.259,10.596 29.723,12.144 27.647,12.144 Z M27.683,10.584 C28.787,10.584 29.459,9.72 29.459,8.7 L29.459,8.676 C29.459,7.656 28.727,6.78 27.647,6.78 C26.543,6.78 25.871,7.632 25.871,8.652 L25.871,8.676 C25.871,9.696 26.603,10.584 27.683,10.584 Z M34.991,12.132 C33.551,12.132 32.711,11.172 32.711,9.636 L32.711,5.328 L34.523,5.328 L34.523,9.06 C34.523,9.984 34.967,10.476 35.723,10.476 C36.479,10.476 36.971,9.984 36.971,9.06 L36.971,5.328 L38.795,5.328 L38.795,12 L36.971,12 L36.971,11.04 C36.539,11.616 35.963,12.132 34.991,12.132 Z M40.619,12 L40.619,5.328 L42.443,5.328 L42.443,6.288 C42.875,5.724 43.451,5.208 44.423,5.208 C45.863,5.208 46.715,6.156 46.715,7.692 L46.715,12 L44.891,12 L44.891,8.268 C44.891,7.344 44.447,6.852 43.691,6.852 C42.935,6.852 42.443,7.344 42.443,8.268 L42.443,12 L40.619,12 Z M51.683,10.572 C52.595,10.572 53.363,9.816 53.363,8.676 L53.363,8.652 C53.363,7.512 52.595,6.756 51.683,6.756 C50.771,6.756 50.003,7.488 50.003,8.652 L50.003,8.676 C50.003,9.816 50.771,10.572 51.683,10.572 Z M51.227,12.132 C49.667,12.132 48.179,10.908 48.179,8.676 L48.179,8.652 C48.179,6.432 49.643,5.208 51.227,5.208 C52.247,5.208 52.883,5.676 53.339,6.228 L53.339,2.892 L55.163,2.892 L55.163,12 L53.339,12 L53.339,11.016 C52.871,11.652 52.223,12.132 51.227,12.132 Z M60.131,12.144 C58.139,12.144 56.663,10.74 56.663,8.7 L56.663,8.676 C56.663,6.768 58.019,5.208 59.951,5.208 C62.159,5.208 63.191,6.924 63.191,8.82 C63.191,8.964 63.179,9.132 63.167,9.3 L58.475,9.3 C58.655,10.212 59.279,10.68 60.155,10.68 C60.815,10.68 61.283,10.476 61.811,9.984 L62.855,10.908 C62.231,11.676 61.343,12.144 60.131,12.144 Z M58.451,8.16 L61.415,8.16 C61.295,7.284 60.791,6.672 59.951,6.672 C59.135,6.672 58.595,7.26 58.451,8.16 Z M67.919,10.572 C68.831,10.572 69.599,9.816 69.599,8.676 L69.599,8.652 C69.599,7.512 68.831,6.756 67.919,6.756 C67.007,6.756 66.239,7.488 66.239,8.652 L66.239,8.676 C66.239,9.816 67.007,10.572 67.919,10.572 Z M67.463,12.132 C65.903,12.132 64.415,10.908 64.415,8.676 L64.415,8.652 C64.415,6.432 65.879,5.208 67.463,5.208 C68.483,5.208 69.119,5.676 69.575,6.228 L69.575,2.892 L71.399,2.892 L71.399,12 L69.575,12 L69.575,11.016 C69.107,11.652 68.459,12.132 67.463,12.132 Z M79.391,12.12 C78.455,12.12 77.411,11.808 76.535,11.124 L77.327,9.912 C78.047,10.44 78.815,10.716 79.439,10.716 C80.015,10.716 80.291,10.5 80.291,10.176 L80.291,10.152 C80.291,9.72 79.631,9.576 78.887,9.348 C77.939,9.072 76.871,8.64 76.871,7.356 L76.871,7.332 C76.871,5.988 77.963,5.232 79.307,5.232 C80.147,5.232 81.059,5.52 81.779,6 L81.083,7.26 C80.423,6.876 79.763,6.636 79.259,6.636 C78.779,6.636 78.515,6.852 78.515,7.14 L78.515,7.164 C78.515,7.56 79.175,7.74 79.907,7.992 C80.843,8.292 81.935,8.736 81.935,9.96 L81.935,9.984 C81.935,11.448 80.831,12.12 79.391,12.12 Z M85.559,12.108 C84.407,12.108 83.615,11.652 83.615,10.116 L83.615,6.888 L82.811,6.888 L82.811,5.328 L83.615,5.328 L83.615,3.6 L85.439,3.6 L85.439,5.328 L87.047,5.328 L87.047,6.888 L85.439,6.888 L85.439,9.816 C85.439,10.284 85.643,10.5 86.087,10.5 C86.435,10.5 86.747,10.416 87.023,10.272 L87.023,11.736 C86.627,11.964 86.183,12.108 85.559,12.108 Z M88.571,12 L88.571,5.328 L90.395,5.328 L90.395,6.708 C90.791,5.772 91.439,5.16 92.567,5.208 L92.567,7.116 L92.471,7.116 C91.199,7.116 90.395,7.896 90.395,9.516 L90.395,12 L88.571,12 Z M96.935,12.144 C94.883,12.144 93.359,10.62 93.359,8.7 L93.359,8.676 C93.359,6.768 94.895,5.208 96.971,5.208 C99.023,5.208 100.547,6.744 100.547,8.652 L100.547,8.676 C100.547,10.596 99.011,12.144 96.935,12.144 Z M96.971,10.584 C98.075,10.584 98.747,9.72 98.747,8.7 L98.747,8.676 C98.747,7.656 98.015,6.78 96.935,6.78 C95.831,6.78 95.159,7.632 95.159,8.652 L95.159,8.676 C95.159,9.696 95.891,10.584 96.971,10.584 Z M102.047,12 L102.047,2.892 L103.871,2.892 L103.871,7.86 L106.199,5.328 L108.383,5.328 L105.815,7.98 L108.467,12 L106.355,12 L104.591,9.228 L103.871,9.996 L103.871,12 L102.047,12 Z M112.343,12.144 C110.351,12.144 108.875,10.74 108.875,8.7 L108.875,8.676 C108.875,6.768 110.231,5.208 112.163,5.208 C114.371,5.208 115.403,6.924 115.403,8.82 C115.403,8.964 115.391,9.132 115.379,9.3 L110.687,9.3 C110.867,10.212 111.491,10.68 112.367,10.68 C113.027,10.68 113.495,10.476 114.023,9.984 L115.067,10.908 C114.443,11.676 113.555,12.144 112.343,12.144 Z M110.663,8.16 L113.627,8.16 C113.507,7.284 113.003,6.672 112.163,6.672 C111.347,6.672 110.807,7.26 110.663,8.16 Z M123.023,12.108 C121.871,12.108 121.079,11.652 121.079,10.116 L121.079,6.888 L120.275,6.888 L120.275,5.328 L121.079,5.328 L121.079,3.6 L122.903,3.6 L122.903,5.328 L124.511,5.328 L124.511,6.888 L122.903,6.888 L122.903,9.816 C122.903,10.284 123.107,10.5 123.551,10.5 C123.899,10.5 124.211,10.416 124.487,10.272 L124.487,11.736 C124.091,11.964 123.647,12.108 123.023,12.108 Z M128.987,12.144 C126.995,12.144 125.519,10.74 125.519,8.7 L125.519,8.676 C125.519,6.768 126.875,5.208 128.807,5.208 C131.015,5.208 132.047,6.924 132.047,8.82 C132.047,8.964 132.035,9.132 132.023,9.3 L127.331,9.3 C127.511,10.212 128.135,10.68 129.011,10.68 C129.671,10.68 130.139,10.476 130.667,9.984 L131.711,10.908 C131.087,11.676 130.199,12.144 128.987,12.144 Z M127.307,8.16 L130.271,8.16 C130.151,7.284 129.647,6.672 128.807,6.672 C127.991,6.672 127.451,7.26 127.307,8.16 Z M133.571,12 L133.571,5.328 L135.395,5.328 L135.395,6.708 C135.791,5.772 136.439,5.16 137.567,5.208 L137.567,7.116 L137.471,7.116 C136.199,7.116 135.395,7.896 135.395,9.516 L135.395,12 L133.571,12 Z M138.875,12 L138.875,5.328 L140.699,5.328 L140.699,6.288 C141.131,5.724 141.707,5.208 142.679,5.208 C143.567,5.208 144.227,5.604 144.575,6.288 C145.151,5.592 145.859,5.208 146.783,5.208 C148.199,5.208 149.051,6.06 149.051,7.68 L149.051,12 L147.227,12 L147.227,8.268 C147.227,7.344 146.819,6.852 146.075,6.852 C145.343,6.852 144.875,7.344 144.875,8.268 L144.875,12 L143.051,12 L143.051,8.268 C143.051,7.344 142.631,6.852 141.899,6.852 C141.167,6.852 140.699,7.356 140.699,8.268 L140.699,12 L138.875,12 Z M150.863,4.536 L150.863,2.904 L152.783,2.904 L152.783,4.536 L150.863,4.536 Z M150.923,12 L150.923,5.328 L152.735,5.328 L152.735,12 L150.923,12 Z M154.655,12 L154.655,5.328 L156.479,5.328 L156.479,6.288 C156.911,5.724 157.487,5.208 158.459,5.208 C159.899,5.208 160.751,6.156 160.751,7.692 L160.751,12 L158.927,12 L158.927,8.268 C158.927,7.344 158.483,6.852 157.727,6.852 C156.971,6.852 156.479,7.344 156.479,8.268 L156.479,12 L154.655,12 Z M164.963,10.86 C165.875,10.86 166.499,10.356 166.499,9.636 L166.499,9.276 C166.163,9.132 165.719,9.024 165.227,9.024 C164.387,9.024 163.871,9.372 163.871,9.984 L163.871,10.008 C163.871,10.548 164.327,10.86 164.963,10.86 Z M164.423,12.132 C163.163,12.132 162.107,11.4 162.107,10.08 L162.107,10.056 C162.107,8.604 163.223,7.932 164.807,7.932 C165.503,7.932 165.995,8.04 166.475,8.196 L166.475,8.076 C166.475,7.26 165.971,6.816 164.999,6.816 C164.279,6.816 163.751,6.96 163.139,7.188 L162.683,5.796 C163.415,5.472 164.147,5.256 165.263,5.256 C166.283,5.256 167.027,5.532 167.507,6 C167.999,6.492 168.227,7.224 168.227,8.112 L168.227,12 L166.463,12 L166.463,11.256 C166.007,11.772 165.359,12.132 164.423,12.132 Z M170.087,12 L170.087,2.892 L171.899,2.892 L171.899,12 L170.087,12 Z M176.147,12.12 C175.211,12.12 174.167,11.808 173.291,11.124 L174.083,9.912 C174.803,10.44 175.571,10.716 176.195,10.716 C176.771,10.716 177.047,10.5 177.047,10.176 L177.047,10.152 C177.047,9.72 176.387,9.576 175.643,9.348 C174.695,9.072 173.627,8.64 173.627,7.356 L173.627,7.332 C173.627,5.988 174.719,5.232 176.063,5.232 C176.903,5.232 177.815,5.52 178.535,6 L177.839,7.26 C177.179,6.876 176.519,6.636 176.015,6.636 C175.535,6.636 175.271,6.852 175.271,7.14 L175.271,7.164 C175.271,7.56 175.931,7.74 176.663,7.992 C177.599,8.292 178.691,8.736 178.691,9.96 L178.691,9.984 C178.691,11.448 177.587,12.12 176.147,12.12 Z"/>
    <use fill="#DE3636" fill-opacity=".3" xlink:href="#avoid-4-a"/>
    <circle cx="55.55" cy="81.9" r="13.688" stroke="#DE3636" stroke-width=".625"/>
    <use fill="#DE3636" fill-opacity=".3" xlink:href="#avoid-4-b"/>
    <circle cx="55.55" cy="149.8" r="13.688" stroke="#DE3636" stroke-width=".625"/>
    <g>
      <use fill="#DE3636" fill-opacity=".3" xlink:href="#avoid-4-c"/>
      <circle cx="123.1" cy="81.9" r="13.688" stroke="#DE3636" stroke-width=".625"/>
    </g>
    <g>
      <use fill="#DE3636" fill-opacity=".3" xlink:href="#avoid-4-d"/>
      <circle cx="123.1" cy="149.8" r="13.688" stroke="#DE3636" stroke-width=".625"/>
    </g>
  </g>
</svg>
