<svg xmlns="http://www.w3.org/2000/svg" width="264" height="264" viewBox="0 0 264 264">
  <g fill="none" fill-rule="evenodd" transform="translate(48 48)">
    <g transform="translate(.1 .7)">
      <rect width="168" height="169.05" fill="#FFF"/>
      <g stroke="#000" stroke-width=".5" opacity=".4">
        <g opacity=".2">
          <rect width="7" height="168" x="161"/>
          <rect width="7" height="168" x="154"/>
          <rect width="7" height="168" x="147"/>
          <rect width="7" height="168" x="140"/>
          <rect width="7" height="168" x="133"/>
          <rect width="7" height="168" x="126"/>
          <rect width="7" height="168" x="119"/>
          <rect width="7" height="168" x="112"/>
          <rect width="7" height="168" x="105"/>
          <rect width="7" height="168" x="98"/>
          <rect width="7" height="168" x="91"/>
          <rect width="7" height="168" x="84"/>
          <rect width="7" height="168" x="77"/>
          <rect width="7" height="168" x="70"/>
          <rect width="7" height="168" x="63"/>
          <rect width="7" height="168" x="56"/>
          <rect width="7" height="168" x="49"/>
          <rect width="7" height="168" x="42"/>
          <rect width="7" height="168" x="35"/>
          <rect width="7" height="168" x="28"/>
          <rect width="7" height="168" x="21"/>
          <rect width="7" height="168" x="14"/>
          <rect width="7" height="168" x="7"/>
          <rect width="7" height="168"/>
        </g>
        <g opacity=".2" transform="rotate(90 84 84)">
          <rect width="7" height="168" x="161"/>
          <rect width="7" height="168" x="154"/>
          <rect width="7" height="168" x="147"/>
          <rect width="7" height="168" x="140"/>
          <rect width="7" height="168" x="133"/>
          <rect width="7" height="168" x="126"/>
          <rect width="7" height="168" x="119"/>
          <rect width="7" height="168" x="112"/>
          <rect width="7" height="168" x="105"/>
          <rect width="7" height="168" x="98"/>
          <rect width="7" height="168" x="91"/>
          <rect width="7" height="168" x="84"/>
          <rect width="7" height="168" x="77"/>
          <rect width="7" height="168" x="70"/>
          <rect width="7" height="168" x="63"/>
          <rect width="7" height="168" x="56"/>
          <rect width="7" height="168" x="49"/>
          <rect width="7" height="168" x="42"/>
          <rect width="7" height="168" x="35"/>
          <rect width="7" height="168" x="28"/>
          <rect width="7" height="168" x="21"/>
          <rect width="7" height="168" x="14"/>
          <rect width="7" height="168" x="7"/>
          <rect width="7" height="168"/>
        </g>
      </g>
      <rect width="166" height="166" x="1" y="1" stroke="#AAA" stroke-width="2"/>
    </g>
    <g opacity=".4" transform="translate(.1 .7)">
      <rect width="168" height="168"/>
      <path fill="#000" fill-rule="nonzero" d="M133,94.5 L94.5,94.5 L94.5,133 C94.5,134.932997 92.9329966,136.5 91,136.5 L84,136.5 C82.0670034,136.5 80.5,134.932997 80.5,133 L80.5,94.5 L42,94.5 C40.0670034,94.5 38.5,92.9329966 38.5,91 L38.5,84 C38.5,82.0670034 40.0670034,80.5 42,80.5 L80.5,80.5 L80.5,42 C80.5,40.0670034 82.0670034,38.5 84,38.5 L91,38.5 C92.9329966,38.5 94.5,40.0670034 94.5,42 L94.5,80.5 L133,80.5 C134.932997,80.5 136.5,82.0670034 136.5,84 L136.5,91 C136.5,92.9329966 134.932997,94.5 133,94.5 Z"/>
    </g>
    <g fill="#DE3636" transform="translate(0 14)">
      <path d="M1.607,-34 L1.607,-42.736 L3.443,-42.736 L3.443,-39.244 L7.115,-39.244 L7.115,-42.736 L8.963,-42.736 L8.963,-34 L7.115,-34 L7.115,-37.54 L3.443,-37.54 L3.443,-34 L1.607,-34 Z M13.427,-35.14 C14.339,-35.14 14.963,-35.644 14.963,-36.364 L14.963,-36.724 C14.627,-36.868 14.183,-36.976 13.691,-36.976 C12.851,-36.976 12.335,-36.628 12.335,-36.016 L12.335,-35.992 C12.335,-35.452 12.791,-35.14 13.427,-35.14 Z M12.887,-33.868 C11.627,-33.868 10.571,-34.6 10.571,-35.92 L10.571,-35.944 C10.571,-37.396 11.687,-38.068 13.271,-38.068 C13.967,-38.068 14.459,-37.96 14.939,-37.804 L14.939,-37.924 C14.939,-38.74 14.435,-39.184 13.463,-39.184 C12.743,-39.184 12.215,-39.04 11.603,-38.812 L11.147,-40.204 C11.879,-40.528 12.611,-40.744 13.727,-40.744 C14.747,-40.744 15.491,-40.468 15.971,-40 C16.463,-39.508 16.691,-38.776 16.691,-37.888 L16.691,-34 L14.927,-34 L14.927,-34.744 C14.471,-34.228 13.823,-33.868 12.887,-33.868 Z M18.551,-34 L18.551,-43.108 L20.363,-43.108 L20.363,-34 L18.551,-34 Z M22.619,-34 L22.619,-39.112 L21.815,-39.112 L21.815,-40.612 L22.619,-40.612 L22.619,-41.044 C22.619,-41.788 22.799,-42.316 23.147,-42.676 C23.495,-43.024 24.011,-43.192 24.671,-43.192 C25.259,-43.192 25.655,-43.12 26.003,-43.012 L26.003,-41.5 C25.715,-41.596 25.463,-41.656 25.127,-41.656 C24.671,-41.656 24.407,-41.416 24.407,-40.888 L24.407,-40.6 L25.991,-40.6 L25.991,-39.112 L24.431,-39.112 L24.431,-34 L22.619,-34 Z M34.451,-35.428 C35.363,-35.428 36.131,-36.16 36.131,-37.324 L36.131,-37.348 C36.131,-38.488 35.363,-39.244 34.451,-39.244 C33.539,-39.244 32.771,-38.488 32.771,-37.348 L32.771,-37.324 C32.771,-36.184 33.539,-35.428 34.451,-35.428 Z M30.971,-32.008 L30.971,-40.672 L32.795,-40.672 L32.795,-39.676 C33.263,-40.312 33.911,-40.792 34.907,-40.792 C36.467,-40.792 37.955,-39.568 37.955,-37.348 L37.955,-37.324 C37.955,-35.104 36.491,-33.868 34.907,-33.868 C33.887,-33.868 33.251,-34.348 32.795,-34.9 L32.795,-32.008 L30.971,-32.008 Z M39.515,-41.464 L39.515,-43.096 L41.435,-43.096 L41.435,-41.464 L39.515,-41.464 Z M39.575,-34 L39.575,-40.672 L41.387,-40.672 L41.387,-34 L39.575,-34 Z M44.795,-40.672 L46.091,-38.668 L47.411,-40.672 L49.319,-40.672 L47.051,-37.42 L49.415,-34 L47.459,-34 L46.055,-36.148 L44.651,-34 L42.743,-34 L45.107,-37.396 L42.839,-40.672 L44.795,-40.672 Z M53.387,-33.856 C51.395,-33.856 49.919,-35.26 49.919,-37.3 L49.919,-37.324 C49.919,-39.232 51.275,-40.792 53.207,-40.792 C55.415,-40.792 56.447,-39.076 56.447,-37.18 C56.447,-37.036 56.435,-36.868 56.423,-36.7 L51.731,-36.7 C51.911,-35.788 52.535,-35.32 53.411,-35.32 C54.071,-35.32 54.539,-35.524 55.067,-36.016 L56.111,-35.092 C55.487,-34.324 54.599,-33.856 53.387,-33.856 Z M51.707,-37.84 L54.671,-37.84 C54.551,-38.716 54.047,-39.328 53.207,-39.328 C52.391,-39.328 51.851,-38.74 51.707,-37.84 Z M58.067,-34 L58.067,-43.108 L59.879,-43.108 L59.879,-34 L58.067,-34 Z M64.127,-33.88 C63.191,-33.88 62.147,-34.192 61.271,-34.876 L62.063,-36.088 C62.783,-35.56 63.551,-35.284 64.175,-35.284 C64.751,-35.284 65.027,-35.5 65.027,-35.824 L65.027,-35.848 C65.027,-36.28 64.367,-36.424 63.623,-36.652 C62.675,-36.928 61.607,-37.36 61.607,-38.644 L61.607,-38.668 C61.607,-40.012 62.699,-40.768 64.043,-40.768 C64.883,-40.768 65.795,-40.48 66.515,-40 L65.819,-38.74 C65.159,-39.124 64.499,-39.364 63.995,-39.364 C63.515,-39.364 63.251,-39.148 63.251,-38.86 L63.251,-38.836 C63.251,-38.44 63.911,-38.26 64.643,-38.008 C65.579,-37.708 66.671,-37.264 66.671,-36.04 L66.671,-36.016 C66.671,-34.552 65.567,-33.88 64.127,-33.88 Z M70.799,-32.404 L76.343,-43.96 L77.891,-43.96 L72.347,-32.404 L70.799,-32.404 Z M82.523,-34 L82.523,-40.672 L84.347,-40.672 L84.347,-39.712 C84.779,-40.276 85.355,-40.792 86.327,-40.792 C87.215,-40.792 87.875,-40.396 88.223,-39.712 C88.799,-40.408 89.507,-40.792 90.431,-40.792 C91.847,-40.792 92.699,-39.94 92.699,-38.32 L92.699,-34 L90.875,-34 L90.875,-37.732 C90.875,-38.656 90.467,-39.148 89.723,-39.148 C88.991,-39.148 88.523,-38.656 88.523,-37.732 L88.523,-34 L86.699,-34 L86.699,-37.732 C86.699,-38.656 86.279,-39.148 85.547,-39.148 C84.815,-39.148 84.347,-38.644 84.347,-37.732 L84.347,-34 L82.523,-34 Z M94.511,-41.464 L94.511,-43.096 L96.431,-43.096 L96.431,-41.464 L94.511,-41.464 Z M94.571,-34 L94.571,-40.672 L96.383,-40.672 L96.383,-34 L94.571,-34 Z M100.631,-33.88 C99.695,-33.88 98.651,-34.192 97.775,-34.876 L98.567,-36.088 C99.287,-35.56 100.055,-35.284 100.679,-35.284 C101.255,-35.284 101.531,-35.5 101.531,-35.824 L101.531,-35.848 C101.531,-36.28 100.871,-36.424 100.127,-36.652 C99.179,-36.928 98.111,-37.36 98.111,-38.644 L98.111,-38.668 C98.111,-40.012 99.203,-40.768 100.547,-40.768 C101.387,-40.768 102.299,-40.48 103.019,-40 L102.323,-38.74 C101.663,-39.124 101.003,-39.364 100.499,-39.364 C100.019,-39.364 99.755,-39.148 99.755,-38.86 L99.755,-38.836 C99.755,-38.44 100.415,-38.26 101.147,-38.008 C102.083,-37.708 103.175,-37.264 103.175,-36.04 L103.175,-36.016 C103.175,-34.552 102.071,-33.88 100.631,-33.88 Z M107.111,-35.14 C108.023,-35.14 108.647,-35.644 108.647,-36.364 L108.647,-36.724 C108.311,-36.868 107.867,-36.976 107.375,-36.976 C106.535,-36.976 106.019,-36.628 106.019,-36.016 L106.019,-35.992 C106.019,-35.452 106.475,-35.14 107.111,-35.14 Z M106.571,-33.868 C105.311,-33.868 104.255,-34.6 104.255,-35.92 L104.255,-35.944 C104.255,-37.396 105.371,-38.068 106.955,-38.068 C107.651,-38.068 108.143,-37.96 108.623,-37.804 L108.623,-37.924 C108.623,-38.74 108.119,-39.184 107.147,-39.184 C106.427,-39.184 105.899,-39.04 105.287,-38.812 L104.831,-40.204 C105.563,-40.528 106.295,-40.744 107.411,-40.744 C108.431,-40.744 109.175,-40.468 109.655,-40 C110.147,-39.508 110.375,-38.776 110.375,-37.888 L110.375,-34 L108.611,-34 L108.611,-34.744 C108.155,-34.228 107.507,-33.868 106.571,-33.868 Z M112.235,-34 L112.235,-43.108 L114.047,-43.108 L114.047,-34 L112.235,-34 Z M116.003,-41.464 L116.003,-43.096 L117.923,-43.096 L117.923,-41.464 L116.003,-41.464 Z M116.063,-34 L116.063,-40.672 L117.875,-40.672 L117.875,-34 L116.063,-34 Z M122.987,-36.052 C123.935,-36.052 124.679,-36.712 124.679,-37.66 L124.679,-37.684 C124.679,-38.632 123.935,-39.28 122.987,-39.28 C122.039,-39.28 121.319,-38.632 121.319,-37.684 L121.319,-37.66 C121.319,-36.7 122.039,-36.052 122.987,-36.052 Z M122.783,-31.984 C121.703,-31.984 120.671,-32.236 119.831,-32.692 L120.455,-34.06 C121.151,-33.664 121.847,-33.436 122.735,-33.436 C124.043,-33.436 124.679,-34.072 124.679,-35.296 L124.679,-35.656 C124.115,-34.972 123.491,-34.54 122.471,-34.54 C120.911,-34.54 119.495,-35.68 119.495,-37.66 L119.495,-37.684 C119.495,-39.664 120.935,-40.792 122.471,-40.792 C123.515,-40.792 124.139,-40.348 124.655,-39.772 L124.655,-40.672 L126.479,-40.672 L126.479,-35.476 C126.479,-34.3 126.191,-33.436 125.627,-32.872 C125.015,-32.26 124.055,-31.984 122.783,-31.984 Z M128.303,-34 L128.303,-40.672 L130.127,-40.672 L130.127,-39.712 C130.559,-40.276 131.135,-40.792 132.107,-40.792 C133.547,-40.792 134.399,-39.844 134.399,-38.308 L134.399,-34 L132.575,-34 L132.575,-37.732 C132.575,-38.656 132.131,-39.148 131.375,-39.148 C130.619,-39.148 130.127,-38.656 130.127,-37.732 L130.127,-34 L128.303,-34 Z M136.163,-34 L136.163,-40.672 L137.987,-40.672 L137.987,-39.712 C138.419,-40.276 138.995,-40.792 139.967,-40.792 C140.855,-40.792 141.515,-40.396 141.863,-39.712 C142.439,-40.408 143.147,-40.792 144.071,-40.792 C145.487,-40.792 146.339,-39.94 146.339,-38.32 L146.339,-34 L144.515,-34 L144.515,-37.732 C144.515,-38.656 144.107,-39.148 143.363,-39.148 C142.631,-39.148 142.163,-38.656 142.163,-37.732 L142.163,-34 L140.339,-34 L140.339,-37.732 C140.339,-38.656 139.919,-39.148 139.187,-39.148 C138.455,-39.148 137.987,-38.644 137.987,-37.732 L137.987,-34 L136.163,-34 Z M151.259,-33.856 C149.267,-33.856 147.791,-35.26 147.791,-37.3 L147.791,-37.324 C147.791,-39.232 149.147,-40.792 151.079,-40.792 C153.287,-40.792 154.319,-39.076 154.319,-37.18 C154.319,-37.036 154.307,-36.868 154.295,-36.7 L149.603,-36.7 C149.783,-35.788 150.407,-35.32 151.283,-35.32 C151.943,-35.32 152.411,-35.524 152.939,-36.016 L153.983,-35.092 C153.359,-34.324 152.471,-33.856 151.259,-33.856 Z M149.579,-37.84 L152.543,-37.84 C152.423,-38.716 151.919,-39.328 151.079,-39.328 C150.263,-39.328 149.723,-38.74 149.579,-37.84 Z M155.843,-34 L155.843,-40.672 L157.667,-40.672 L157.667,-39.712 C158.099,-40.276 158.675,-40.792 159.647,-40.792 C161.087,-40.792 161.939,-39.844 161.939,-38.308 L161.939,-34 L160.115,-34 L160.115,-37.732 C160.115,-38.656 159.671,-39.148 158.915,-39.148 C158.159,-39.148 157.667,-38.656 157.667,-37.732 L157.667,-34 L155.843,-34 Z M165.959,-33.892 C164.807,-33.892 164.015,-34.348 164.015,-35.884 L164.015,-39.112 L163.211,-39.112 L163.211,-40.672 L164.015,-40.672 L164.015,-42.4 L165.839,-42.4 L165.839,-40.672 L167.447,-40.672 L167.447,-39.112 L165.839,-39.112 L165.839,-36.184 C165.839,-35.716 166.043,-35.5 166.487,-35.5 C166.835,-35.5 167.147,-35.584 167.423,-35.728 L167.423,-34.264 C167.027,-34.036 166.583,-33.892 165.959,-33.892 Z"/>
      <rect width="140" height="1" x="14.1" y="63.7"/>
      <rect width="140" height="1" x="14.1" y="77"/>
      <rect width="1" height="140" x="77.1" y=".7"/>
      <rect width="1" height="140" x="90.4" y=".7"/>
    </g>
  </g>
</svg>
