<svg xmlns="http://www.w3.org/2000/svg" xmlns:xlink="http://www.w3.org/1999/xlink" width="264" height="264" viewBox="0 0 264 264">
  <defs>
    <circle id="avoid--5-a" cx="158.45" cy="53.9" r="11.2"/>
    <circle id="avoid--5-b" cx="74.45" cy="53.9" r="11.2"/>
    <circle id="avoid--5-c" cx="60.45" cy="73.5" r="11.2"/>
    <circle id="avoid--5-d" cx="172.45" cy="73.5" r="11.2"/>
    <circle id="avoid--5-e" cx="186.45" cy="90.3" r="11.2"/>
    <circle id="avoid--5-f" cx="135" cy="137.2" r="8.4"/>
    <circle id="avoid--5-g" cx="103.5" cy="156.1" r="8.4"/>
    <circle id="avoid--5-h" cx="103.5" cy="119" r="8.4"/>
    <circle id="avoid--5-i" cx="46.45" cy="90.3" r="11.2"/>
    <circle id="avoid--5-j" cx="183.65" cy="185.85" r="11.2"/>
    <circle id="avoid--5-k" cx="46.45" cy="185.85" r="11.2"/>
  </defs>
  <g fill="none" fill-rule="evenodd">
    <g transform="translate(48.2 48.2)">
      <rect width="168" height="169.05" fill="#FFF"/>
      <g stroke="#000" stroke-width=".5" opacity=".4">
        <g opacity=".2">
          <rect width="7" height="168" x="161"/>
          <rect width="7" height="168" x="154"/>
          <rect width="7" height="168" x="147"/>
          <rect width="7" height="168" x="140"/>
          <rect width="7" height="168" x="133"/>
          <rect width="7" height="168" x="126"/>
          <rect width="7" height="168" x="119"/>
          <rect width="7" height="168" x="112"/>
          <rect width="7" height="168" x="105"/>
          <rect width="7" height="168" x="98"/>
          <rect width="7" height="168" x="91"/>
          <rect width="7" height="168" x="84"/>
          <rect width="7" height="168" x="77"/>
          <rect width="7" height="168" x="70"/>
          <rect width="7" height="168" x="63"/>
          <rect width="7" height="168" x="56"/>
          <rect width="7" height="168" x="49"/>
          <rect width="7" height="168" x="42"/>
          <rect width="7" height="168" x="35"/>
          <rect width="7" height="168" x="28"/>
          <rect width="7" height="168" x="21"/>
          <rect width="7" height="168" x="14"/>
          <rect width="7" height="168" x="7"/>
          <rect width="7" height="168"/>
        </g>
        <g opacity=".2" transform="rotate(90 84 84)">
          <rect width="7" height="168" x="161"/>
          <rect width="7" height="168" x="154"/>
          <rect width="7" height="168" x="147"/>
          <rect width="7" height="168" x="140"/>
          <rect width="7" height="168" x="133"/>
          <rect width="7" height="168" x="126"/>
          <rect width="7" height="168" x="119"/>
          <rect width="7" height="168" x="112"/>
          <rect width="7" height="168" x="105"/>
          <rect width="7" height="168" x="98"/>
          <rect width="7" height="168" x="91"/>
          <rect width="7" height="168" x="84"/>
          <rect width="7" height="168" x="77"/>
          <rect width="7" height="168" x="70"/>
          <rect width="7" height="168" x="63"/>
          <rect width="7" height="168" x="56"/>
          <rect width="7" height="168" x="49"/>
          <rect width="7" height="168" x="42"/>
          <rect width="7" height="168" x="35"/>
          <rect width="7" height="168" x="28"/>
          <rect width="7" height="168" x="21"/>
          <rect width="7" height="168" x="14"/>
          <rect width="7" height="168" x="7"/>
          <rect width="7" height="168"/>
        </g>
      </g>
      <rect width="166" height="166" x="1" y="1" stroke="#AAA" stroke-width="2"/>
    </g>
    <g opacity=".4" transform="translate(48.2 48.2)">
      <rect width="168" height="168"/>
      <path fill="#000" d="M14,56 L154,56 L154,154 L14,154 L14,56 Z M28,70 L28,140 L140,140 L140,70 L28,70 Z M70,84 L105,105 L70,126 L70,84 Z M28,35 L140,35 L140,49 L28,49 L28,35 Z M42,14 L126,14 L126,28 L42,28 L42,14 Z"/>
    </g>
    <g transform="translate(16 16)">
      <path fill="#DE3636" d="M5.945,12.132 C3.617,12.132 2.177,10.824 2.177,8.268 L2.177,3.264 L4.025,3.264 L4.025,8.208 C4.025,9.672 4.757,10.44 5.969,10.44 C7.181,10.44 7.925,9.708 7.925,8.28 L7.925,3.264 L9.761,3.264 L9.761,8.196 C9.761,10.836 8.285,12.132 5.945,12.132 Z M11.645,12 L11.645,5.328 L13.469,5.328 L13.469,6.288 C13.901,5.724 14.477,5.208 15.449,5.208 C16.889,5.208 17.741,6.156 17.741,7.692 L17.741,12 L15.917,12 L15.917,8.268 C15.917,7.344 15.473,6.852 14.717,6.852 C13.961,6.852 13.469,7.344 13.469,8.268 L13.469,12 L11.645,12 Z M19.505,12 L19.505,5.328 L21.329,5.328 L21.329,6.708 C21.725,5.772 22.373,5.16 23.501,5.208 L23.501,7.116 L23.405,7.116 C22.133,7.116 21.329,7.896 21.329,9.516 L21.329,12 L19.505,12 Z M27.869,12.144 C25.817,12.144 24.293,10.62 24.293,8.7 L24.293,8.676 C24.293,6.768 25.829,5.208 27.905,5.208 C29.957,5.208 31.481,6.744 31.481,8.652 L31.481,8.676 C31.481,10.596 29.945,12.144 27.869,12.144 Z M27.905,10.584 C29.009,10.584 29.681,9.72 29.681,8.7 L29.681,8.676 C29.681,7.656 28.949,6.78 27.869,6.78 C26.765,6.78 26.093,7.632 26.093,8.652 L26.093,8.676 C26.093,9.696 26.825,10.584 27.905,10.584 Z M35.213,12.132 C33.773,12.132 32.933,11.172 32.933,9.636 L32.933,5.328 L34.745,5.328 L34.745,9.06 C34.745,9.984 35.189,10.476 35.945,10.476 C36.701,10.476 37.193,9.984 37.193,9.06 L37.193,5.328 L39.017,5.328 L39.017,12 L37.193,12 L37.193,11.04 C36.761,11.616 36.185,12.132 35.213,12.132 Z M40.841,12 L40.841,5.328 L42.665,5.328 L42.665,6.288 C43.097,5.724 43.673,5.208 44.645,5.208 C46.085,5.208 46.937,6.156 46.937,7.692 L46.937,12 L45.113,12 L45.113,8.268 C45.113,7.344 44.669,6.852 43.913,6.852 C43.157,6.852 42.665,7.344 42.665,8.268 L42.665,12 L40.841,12 Z M51.905,10.572 C52.817,10.572 53.585,9.816 53.585,8.676 L53.585,8.652 C53.585,7.512 52.817,6.756 51.905,6.756 C50.993,6.756 50.225,7.488 50.225,8.652 L50.225,8.676 C50.225,9.816 50.993,10.572 51.905,10.572 Z M51.449,12.132 C49.889,12.132 48.401,10.908 48.401,8.676 L48.401,8.652 C48.401,6.432 49.865,5.208 51.449,5.208 C52.469,5.208 53.105,5.676 53.561,6.228 L53.561,2.892 L55.385,2.892 L55.385,12 L53.561,12 L53.561,11.016 C53.093,11.652 52.445,12.132 51.449,12.132 Z M60.353,12.144 C58.361,12.144 56.885,10.74 56.885,8.7 L56.885,8.676 C56.885,6.768 58.241,5.208 60.173,5.208 C62.381,5.208 63.413,6.924 63.413,8.82 C63.413,8.964 63.401,9.132 63.389,9.3 L58.697,9.3 C58.877,10.212 59.501,10.68 60.377,10.68 C61.037,10.68 61.505,10.476 62.033,9.984 L63.077,10.908 C62.453,11.676 61.565,12.144 60.353,12.144 Z M58.673,8.16 L61.637,8.16 C61.517,7.284 61.013,6.672 60.173,6.672 C59.357,6.672 58.817,7.26 58.673,8.16 Z M68.141,10.572 C69.053,10.572 69.821,9.816 69.821,8.676 L69.821,8.652 C69.821,7.512 69.053,6.756 68.141,6.756 C67.229,6.756 66.461,7.488 66.461,8.652 L66.461,8.676 C66.461,9.816 67.229,10.572 68.141,10.572 Z M67.685,12.132 C66.125,12.132 64.637,10.908 64.637,8.676 L64.637,8.652 C64.637,6.432 66.101,5.208 67.685,5.208 C68.705,5.208 69.341,5.676 69.797,6.228 L69.797,2.892 L71.621,2.892 L71.621,12 L69.797,12 L69.797,11.016 C69.329,11.652 68.681,12.132 67.685,12.132 Z M80.429,12.144 C78.437,12.144 76.961,10.74 76.961,8.7 L76.961,8.676 C76.961,6.768 78.317,5.208 80.249,5.208 C82.457,5.208 83.489,6.924 83.489,8.82 C83.489,8.964 83.477,9.132 83.465,9.3 L78.773,9.3 C78.953,10.212 79.577,10.68 80.453,10.68 C81.113,10.68 81.581,10.476 82.109,9.984 L83.153,10.908 C82.529,11.676 81.641,12.144 80.429,12.144 Z M78.749,8.16 L81.713,8.16 C81.593,7.284 81.089,6.672 80.249,6.672 C79.433,6.672 78.893,7.26 78.749,8.16 Z M86.129,5.328 L87.425,7.332 L88.745,5.328 L90.653,5.328 L88.385,8.58 L90.749,12 L88.793,12 L87.389,9.852 L85.985,12 L84.077,12 L86.441,8.604 L84.173,5.328 L86.129,5.328 Z M94.265,12.108 C93.113,12.108 92.321,11.652 92.321,10.116 L92.321,6.888 L91.517,6.888 L91.517,5.328 L92.321,5.328 L92.321,3.6 L94.145,3.6 L94.145,5.328 L95.753,5.328 L95.753,6.888 L94.145,6.888 L94.145,9.816 C94.145,10.284 94.349,10.5 94.793,10.5 C95.141,10.5 95.453,10.416 95.729,10.272 L95.729,11.736 C95.333,11.964 94.889,12.108 94.265,12.108 Z M100.229,12.144 C98.237,12.144 96.761,10.74 96.761,8.7 L96.761,8.676 C96.761,6.768 98.117,5.208 100.049,5.208 C102.257,5.208 103.289,6.924 103.289,8.82 C103.289,8.964 103.277,9.132 103.265,9.3 L98.573,9.3 C98.753,10.212 99.377,10.68 100.253,10.68 C100.913,10.68 101.381,10.476 101.909,9.984 L102.953,10.908 C102.329,11.676 101.441,12.144 100.229,12.144 Z M98.549,8.16 L101.513,8.16 C101.393,7.284 100.889,6.672 100.049,6.672 C99.233,6.672 98.693,7.26 98.549,8.16 Z M104.813,12 L104.813,5.328 L106.637,5.328 L106.637,6.708 C107.033,5.772 107.681,5.16 108.809,5.208 L108.809,7.116 L108.713,7.116 C107.441,7.116 106.637,7.896 106.637,9.516 L106.637,12 L104.813,12 Z M110.153,4.536 L110.153,2.904 L112.073,2.904 L112.073,4.536 L110.153,4.536 Z M110.213,12 L110.213,5.328 L112.025,5.328 L112.025,12 L110.213,12 Z M117.197,12.144 C115.145,12.144 113.621,10.62 113.621,8.7 L113.621,8.676 C113.621,6.768 115.157,5.208 117.233,5.208 C119.285,5.208 120.809,6.744 120.809,8.652 L120.809,8.676 C120.809,10.596 119.273,12.144 117.197,12.144 Z M117.233,10.584 C118.337,10.584 119.009,9.72 119.009,8.7 L119.009,8.676 C119.009,7.656 118.277,6.78 117.197,6.78 C116.093,6.78 115.421,7.632 115.421,8.652 L115.421,8.676 C115.421,9.696 116.153,10.584 117.233,10.584 Z M122.309,12 L122.309,5.328 L124.133,5.328 L124.133,6.708 C124.529,5.772 125.177,5.16 126.305,5.208 L126.305,7.116 L126.209,7.116 C124.937,7.116 124.133,7.896 124.133,9.516 L124.133,12 L122.309,12 Z M125.489,13.596 L131.033,2.04 L132.581,2.04 L127.037,13.596 L125.489,13.596 Z M133.409,4.536 L133.409,2.904 L135.329,2.904 L135.329,4.536 L133.409,4.536 Z M133.469,12 L133.469,5.328 L135.281,5.328 L135.281,12 L133.469,12 Z M137.201,12 L137.201,5.328 L139.025,5.328 L139.025,6.288 C139.457,5.724 140.033,5.208 141.005,5.208 C142.445,5.208 143.297,6.156 143.297,7.692 L143.297,12 L141.473,12 L141.473,8.268 C141.473,7.344 141.029,6.852 140.273,6.852 C139.517,6.852 139.025,7.344 139.025,8.268 L139.025,12 L137.201,12 Z M147.317,12.108 C146.165,12.108 145.373,11.652 145.373,10.116 L145.373,6.888 L144.569,6.888 L144.569,5.328 L145.373,5.328 L145.373,3.6 L147.197,3.6 L147.197,5.328 L148.805,5.328 L148.805,6.888 L147.197,6.888 L147.197,9.816 C147.197,10.284 147.401,10.5 147.845,10.5 C148.193,10.5 148.505,10.416 148.781,10.272 L148.781,11.736 C148.385,11.964 147.941,12.108 147.317,12.108 Z M153.281,12.144 C151.289,12.144 149.813,10.74 149.813,8.7 L149.813,8.676 C149.813,6.768 151.169,5.208 153.101,5.208 C155.309,5.208 156.341,6.924 156.341,8.82 C156.341,8.964 156.329,9.132 156.317,9.3 L151.625,9.3 C151.805,10.212 152.429,10.68 153.305,10.68 C153.965,10.68 154.433,10.476 154.961,9.984 L156.005,10.908 C155.381,11.676 154.493,12.144 153.281,12.144 Z M151.601,8.16 L154.565,8.16 C154.445,7.284 153.941,6.672 153.101,6.672 C152.285,6.672 151.745,7.26 151.601,8.16 Z M157.865,12 L157.865,5.328 L159.689,5.328 L159.689,6.708 C160.085,5.772 160.733,5.16 161.861,5.208 L161.861,7.116 L161.765,7.116 C160.493,7.116 159.689,7.896 159.689,9.516 L159.689,12 L157.865,12 Z M163.205,4.536 L163.205,2.904 L165.125,2.904 L165.125,4.536 L163.205,4.536 Z M163.265,12 L163.265,5.328 L165.077,5.328 L165.077,12 L163.265,12 Z M170.249,12.144 C168.197,12.144 166.673,10.62 166.673,8.7 L166.673,8.676 C166.673,6.768 168.209,5.208 170.285,5.208 C172.337,5.208 173.861,6.744 173.861,8.652 L173.861,8.676 C173.861,10.596 172.325,12.144 170.249,12.144 Z M170.285,10.584 C171.389,10.584 172.061,9.72 172.061,8.7 L172.061,8.676 C172.061,7.656 171.329,6.78 170.249,6.78 C169.145,6.78 168.473,7.632 168.473,8.652 L168.473,8.676 C168.473,9.696 169.205,10.584 170.285,10.584 Z M175.361,12 L175.361,5.328 L177.185,5.328 L177.185,6.708 C177.581,5.772 178.229,5.16 179.357,5.208 L179.357,7.116 L179.261,7.116 C177.989,7.116 177.185,7.896 177.185,9.516 L177.185,12 L175.361,12 Z M187.649,12.144 C185.645,12.144 184.181,10.608 184.181,8.7 L184.181,8.676 C184.181,6.78 185.633,5.208 187.673,5.208 C188.921,5.208 189.713,5.64 190.337,6.336 L189.209,7.536 C188.777,7.08 188.345,6.78 187.661,6.78 C186.677,6.78 185.981,7.632 185.981,8.652 L185.981,8.676 C185.981,9.732 186.665,10.584 187.733,10.584 C188.381,10.584 188.837,10.296 189.305,9.852 L190.373,10.92 C189.725,11.64 188.969,12.144 187.649,12.144 Z M194.789,12.144 C192.737,12.144 191.213,10.62 191.213,8.7 L191.213,8.676 C191.213,6.768 192.749,5.208 194.825,5.208 C196.877,5.208 198.401,6.744 198.401,8.652 L198.401,8.676 C198.401,10.596 196.865,12.144 194.789,12.144 Z M194.825,10.584 C195.929,10.584 196.601,9.72 196.601,8.7 L196.601,8.676 C196.601,7.656 195.869,6.78 194.789,6.78 C193.685,6.78 193.013,7.632 193.013,8.652 L193.013,8.676 C193.013,9.696 193.745,10.584 194.825,10.584 Z M199.901,12 L199.901,5.328 L201.725,5.328 L201.725,6.708 C202.121,5.772 202.769,5.16 203.897,5.208 L203.897,7.116 L203.801,7.116 C202.529,7.116 201.725,7.896 201.725,9.516 L201.725,12 L199.901,12 Z M205.205,12 L205.205,5.328 L207.029,5.328 L207.029,6.288 C207.461,5.724 208.037,5.208 209.009,5.208 C210.449,5.208 211.301,6.156 211.301,7.692 L211.301,12 L209.477,12 L209.477,8.268 C209.477,7.344 209.033,6.852 208.277,6.852 C207.521,6.852 207.029,7.344 207.029,8.268 L207.029,12 L205.205,12 Z M216.209,12.144 C214.217,12.144 212.741,10.74 212.741,8.7 L212.741,8.676 C212.741,6.768 214.097,5.208 216.029,5.208 C218.237,5.208 219.269,6.924 219.269,8.82 C219.269,8.964 219.257,9.132 219.245,9.3 L214.553,9.3 C214.733,10.212 215.357,10.68 216.233,10.68 C216.893,10.68 217.361,10.476 217.889,9.984 L218.933,10.908 C218.309,11.676 217.421,12.144 216.209,12.144 Z M214.529,8.16 L217.493,8.16 C217.373,7.284 216.869,6.672 216.029,6.672 C215.213,6.672 214.673,7.26 214.529,8.16 Z M220.793,12 L220.793,5.328 L222.617,5.328 L222.617,6.708 C223.013,5.772 223.661,5.16 224.789,5.208 L224.789,7.116 L224.693,7.116 C223.421,7.116 222.617,7.896 222.617,9.516 L222.617,12 L220.793,12 Z M228.425,12.12 C227.489,12.12 226.445,11.808 225.569,11.124 L226.361,9.912 C227.081,10.44 227.849,10.716 228.473,10.716 C229.049,10.716 229.325,10.5 229.325,10.176 L229.325,10.152 C229.325,9.72 228.665,9.576 227.921,9.348 C226.973,9.072 225.905,8.64 225.905,7.356 L225.905,7.332 C225.905,5.988 226.997,5.232 228.341,5.232 C229.181,5.232 230.093,5.52 230.813,6 L230.117,7.26 C229.457,6.876 228.797,6.636 228.293,6.636 C227.813,6.636 227.549,6.852 227.549,7.14 L227.549,7.164 C227.549,7.56 228.209,7.74 228.941,7.992 C229.877,8.292 230.969,8.736 230.969,9.96 L230.969,9.984 C230.969,11.448 229.865,12.12 228.425,12.12 Z"/>
      <use fill="#DE3636" fill-opacity=".3" xlink:href="#avoid--5-a"/>
      <circle cx="158.45" cy="53.9" r="10.887" stroke="#DE3636" stroke-width=".625"/>
      <use fill="#DE3636" fill-opacity=".3" xlink:href="#avoid--5-b"/>
      <circle cx="74.45" cy="53.9" r="10.887" stroke="#DE3636" stroke-width=".625"/>
      <use fill="#DE3636" fill-opacity=".3" xlink:href="#avoid--5-c"/>
      <circle cx="60.45" cy="73.5" r="10.887" stroke="#DE3636" stroke-width=".625"/>
      <use fill="#DE3636" fill-opacity=".3" xlink:href="#avoid--5-d"/>
      <circle cx="172.45" cy="73.5" r="10.887" stroke="#DE3636" stroke-width=".625"/>
      <use fill="#DE3636" fill-opacity=".3" xlink:href="#avoid--5-e"/>
      <circle cx="186.45" cy="90.3" r="10.887" stroke="#DE3636" stroke-width=".625"/>
      <use fill="#DE3636" fill-opacity=".3" xlink:href="#avoid--5-f"/>
      <circle cx="135" cy="137.2" r="8.088" stroke="#DE3636" stroke-width=".625"/>
      <g>
        <use fill="#DE3636" fill-opacity=".3" xlink:href="#avoid--5-g"/>
        <circle cx="103.5" cy="156.1" r="8.088" stroke="#DE3636" stroke-width=".625"/>
      </g>
      <g>
        <use fill="#DE3636" fill-opacity=".3" xlink:href="#avoid--5-h"/>
        <circle cx="103.5" cy="119" r="8.088" stroke="#DE3636" stroke-width=".625"/>
      </g>
      <g>
        <use fill="#DE3636" fill-opacity=".3" xlink:href="#avoid--5-i"/>
        <circle cx="46.45" cy="90.3" r="10.887" stroke="#DE3636" stroke-width=".625"/>
      </g>
      <g>
        <use fill="#DE3636" fill-opacity=".3" xlink:href="#avoid--5-j"/>
        <circle cx="183.65" cy="185.85" r="10.887" stroke="#DE3636" stroke-width=".625"/>
      </g>
      <g>
        <use fill="#DE3636" fill-opacity=".3" xlink:href="#avoid--5-k"/>
        <circle cx="46.45" cy="185.85" r="10.887" stroke="#DE3636" stroke-width=".625"/>
      </g>
    </g>
  </g>
</svg>
