<?xml version="1.0" encoding="UTF-8"?>
<svg width="264px" height="264px" viewBox="0 0 264 264" version="1.1" xmlns="http://www.w3.org/2000/svg" xmlns:xlink="http://www.w3.org/1999/xlink">
    <!-- Generator: Sketch 48 (47235) - http://www.bohemiancoding.com/sketch -->
    <title>Avoid 2</title>
    <desc>Created with Sketch.</desc>
    <defs>
        <circle id="path-1" cx="107.7" cy="7" r="7"></circle>
        <circle id="path-2" cx="33.15" cy="61.6" r="7"></circle>
        <circle id="path-3" cx="59.75" cy="150.15" r="7"></circle>
        <circle id="path-4" cx="155.65" cy="150.15" r="7"></circle>
        <circle id="path-5" cx="182.6" cy="61.6" r="7"></circle>
    </defs>
    <g id="Page-1" stroke="none" stroke-width="1" fill="none" fill-rule="evenodd">
        <g id="Avoid-2">
            <g id="Group" transform="translate(24.000000, 48.000000)">
                <g id="Icon-Grid---Base---Zoomed" transform="translate(23.700000, 0.200000)">
                    <g id="Grid">
                        <rect id="Rectangle" fill="#FFFFFF" x="0" y="0" width="168" height="169.05"></rect>
                        <g id="pixels" opacity="0.400000006" stroke="#000000" stroke-width="0.5">
                            <g id="Group" opacity="0.200000003">
                                <rect id="Rectangle-3" x="161" y="0" width="7" height="168"></rect>
                                <rect id="Rectangle-3" x="154" y="0" width="7" height="168"></rect>
                                <rect id="Rectangle-3" x="147" y="0" width="7" height="168"></rect>
                                <rect id="Rectangle-3" x="140" y="0" width="7" height="168"></rect>
                                <rect id="Rectangle-3" x="133" y="0" width="7" height="168"></rect>
                                <rect id="Rectangle-3" x="126" y="0" width="7" height="168"></rect>
                                <rect id="Rectangle-3" x="119" y="0" width="7" height="168"></rect>
                                <rect id="Rectangle-3" x="112" y="0" width="7" height="168"></rect>
                                <rect id="Rectangle-3" x="105" y="0" width="7" height="168"></rect>
                                <rect id="Rectangle-3" x="98" y="0" width="7" height="168"></rect>
                                <rect id="Rectangle-3" x="91" y="0" width="7" height="168"></rect>
                                <rect id="Rectangle-3" x="84" y="0" width="7" height="168"></rect>
                                <rect id="Rectangle-3" x="77" y="0" width="7" height="168"></rect>
                                <rect id="Rectangle-3" x="70" y="0" width="7" height="168"></rect>
                                <rect id="Rectangle-3" x="63" y="0" width="7" height="168"></rect>
                                <rect id="Rectangle-3" x="56" y="0" width="7" height="168"></rect>
                                <rect id="Rectangle-3" x="49" y="0" width="7" height="168"></rect>
                                <rect id="Rectangle-3" x="42" y="0" width="7" height="168"></rect>
                                <rect id="Rectangle-3" x="35" y="0" width="7" height="168"></rect>
                                <rect id="Rectangle-3" x="28" y="0" width="7" height="168"></rect>
                                <rect id="Rectangle-3" x="21" y="0" width="7" height="168"></rect>
                                <rect id="Rectangle-3" x="14" y="0" width="7" height="168"></rect>
                                <rect id="Rectangle-3" x="7" y="0" width="7" height="168"></rect>
                                <rect id="Rectangle-3" x="0" y="0" width="7" height="168"></rect>
                            </g>
                            <g id="Group" opacity="0.200000003" transform="translate(84.000000, 84.000000) rotate(90.000000) translate(-84.000000, -84.000000) ">
                                <rect id="Rectangle-3" x="161" y="0" width="7" height="168"></rect>
                                <rect id="Rectangle-3" x="154" y="0" width="7" height="168"></rect>
                                <rect id="Rectangle-3" x="147" y="0" width="7" height="168"></rect>
                                <rect id="Rectangle-3" x="140" y="0" width="7" height="168"></rect>
                                <rect id="Rectangle-3" x="133" y="0" width="7" height="168"></rect>
                                <rect id="Rectangle-3" x="126" y="0" width="7" height="168"></rect>
                                <rect id="Rectangle-3" x="119" y="0" width="7" height="168"></rect>
                                <rect id="Rectangle-3" x="112" y="0" width="7" height="168"></rect>
                                <rect id="Rectangle-3" x="105" y="0" width="7" height="168"></rect>
                                <rect id="Rectangle-3" x="98" y="0" width="7" height="168"></rect>
                                <rect id="Rectangle-3" x="91" y="0" width="7" height="168"></rect>
                                <rect id="Rectangle-3" x="84" y="0" width="7" height="168"></rect>
                                <rect id="Rectangle-3" x="77" y="0" width="7" height="168"></rect>
                                <rect id="Rectangle-3" x="70" y="0" width="7" height="168"></rect>
                                <rect id="Rectangle-3" x="63" y="0" width="7" height="168"></rect>
                                <rect id="Rectangle-3" x="56" y="0" width="7" height="168"></rect>
                                <rect id="Rectangle-3" x="49" y="0" width="7" height="168"></rect>
                                <rect id="Rectangle-3" x="42" y="0" width="7" height="168"></rect>
                                <rect id="Rectangle-3" x="35" y="0" width="7" height="168"></rect>
                                <rect id="Rectangle-3" x="28" y="0" width="7" height="168"></rect>
                                <rect id="Rectangle-3" x="21" y="0" width="7" height="168"></rect>
                                <rect id="Rectangle-3" x="14" y="0" width="7" height="168"></rect>
                                <rect id="Rectangle-3" x="7" y="0" width="7" height="168"></rect>
                                <rect id="Rectangle-3" x="0" y="0" width="7" height="168"></rect>
                            </g>
                        </g>
                        <rect id="bounds" stroke="#AAAAAA" stroke-width="2" x="1" y="1" width="166" height="166"></rect>
                    </g>
                </g>
                <g id="Icons/star" opacity="0.400000006" transform="translate(23.700000, 0.200000)">
                    <rect id="bounds" x="0" y="0" width="168" height="168"></rect>
                    <path d="M54.0113533,96.9659401 L7,63 L65.3099995,63 L84,7 L102.707077,63 L161,63 L113.988647,96.9659401 L133,154 L84.0150739,118.621998 L35,154 L54.0113533,96.9659401 Z M69.7175753,91.9055666 L60.6607256,119.076116 L84.0174689,102.217732 L107.332752,119.056547 L98.2824247,91.9055666 L119.881674,76.2999998 L93.127539,76.2999998 L84.0057605,48.9937778 L74.8923086,76.2999998 L48.1183259,76.2999998 L69.7175753,91.9055666 Z" id="star" fill="#000000" fill-rule="nonzero"></path>
                </g>
                <g id="Guides" transform="translate(0.000000, 3.000000)">
                    <g id="guide">
                        <use fill-opacity="0.3" fill="#DE3636" fill-rule="evenodd" xlink:href="#path-1"></use>
                        <circle stroke="#DE3636" stroke-width="0.625" cx="107.7" cy="7" r="6.6875"></circle>
                    </g>
                    <g id="guide">
                        <use fill-opacity="0.3" fill="#DE3636" fill-rule="evenodd" xlink:href="#path-2"></use>
                        <circle stroke="#DE3636" stroke-width="0.625" cx="33.15" cy="61.6" r="6.6875"></circle>
                    </g>
                    <g id="guide">
                        <use fill-opacity="0.3" fill="#DE3636" fill-rule="evenodd" xlink:href="#path-3"></use>
                        <circle stroke="#DE3636" stroke-width="0.625" cx="59.75" cy="150.15" r="6.6875"></circle>
                    </g>
                    <g id="guide">
                        <use fill-opacity="0.3" fill="#DE3636" fill-rule="evenodd" xlink:href="#path-4"></use>
                        <circle stroke="#DE3636" stroke-width="0.625" cx="155.65" cy="150.15" r="6.6875"></circle>
                    </g>
                    <g id="guide">
                        <use fill-opacity="0.3" fill="#DE3636" fill-rule="evenodd" xlink:href="#path-5"></use>
                        <circle stroke="#DE3636" stroke-width="0.625" cx="182.6" cy="61.6" r="6.6875"></circle>
                    </g>
                    <text id="Unrounded-small-exte" font-family="GothamSSm-Bold, Gotham SSm" font-size="12" font-weight="bold" fill="#DE3636">
                        <tspan x="0.414" y="-23">Unrounded small exterior corners</tspan>
                    </text>
                </g>
            </g>
        </g>
    </g>
</svg>