<svg width="720" height="720" viewBox="0 0 720 720" fill="none" xmlns="http://www.w3.org/2000/svg">
<rect width="480" height="480" transform="translate(120 120)" fill="white"/>
<g opacity="0.4">
<g opacity="0.2">
<rect x="580" y="120" width="20" height="480" stroke="black"/>
<rect x="560" y="120" width="20" height="480" stroke="black"/>
<rect x="540" y="120" width="20" height="480" stroke="black"/>
<rect x="520" y="120" width="20" height="480" stroke="black"/>
<rect x="500" y="120" width="20" height="480" stroke="black"/>
<rect x="480" y="120" width="20" height="480" stroke="black"/>
<rect x="460" y="120" width="20" height="480" stroke="black"/>
<rect x="440" y="120" width="20" height="480" stroke="black"/>
<rect x="420" y="120" width="20" height="480" stroke="black"/>
<rect x="400" y="120" width="20" height="480" stroke="black"/>
<rect x="380" y="120" width="20" height="480" stroke="black"/>
<rect x="360" y="120" width="20" height="480" stroke="black"/>
<rect x="340" y="120" width="20" height="480" stroke="black"/>
<rect x="320" y="120" width="20" height="480" stroke="black"/>
<rect x="300" y="120" width="20" height="480" stroke="black"/>
<rect x="280" y="120" width="20" height="480" stroke="black"/>
<rect x="260" y="120" width="20" height="480" stroke="black"/>
<rect x="240" y="120" width="20" height="480" stroke="black"/>
<rect x="220" y="120" width="20" height="480" stroke="black"/>
<rect x="200" y="120" width="20" height="480" stroke="black"/>
<rect x="180" y="120" width="20" height="480" stroke="black"/>
<rect x="160" y="120" width="20" height="480" stroke="black"/>
<rect x="140" y="120" width="20" height="480" stroke="black"/>
<rect x="120" y="120" width="20" height="480" stroke="black"/>
</g>
<g opacity="0.2">
<rect x="600" y="580" width="20" height="480" transform="rotate(90 600 580)" stroke="black"/>
<rect x="600" y="560" width="20" height="480" transform="rotate(90 600 560)" stroke="black"/>
<rect x="600" y="540" width="20" height="480" transform="rotate(90 600 540)" stroke="black"/>
<rect x="600" y="520" width="20" height="480" transform="rotate(90 600 520)" stroke="black"/>
<rect x="600" y="500" width="20" height="480" transform="rotate(90 600 500)" stroke="black"/>
<rect x="600" y="480" width="20" height="480" transform="rotate(90 600 480)" stroke="black"/>
<rect x="600" y="460" width="20" height="480" transform="rotate(90 600 460)" stroke="black"/>
<rect x="600" y="440" width="20" height="480" transform="rotate(90 600 440)" stroke="black"/>
<rect x="600" y="420" width="20" height="480" transform="rotate(90 600 420)" stroke="black"/>
<rect x="600" y="400" width="20" height="480" transform="rotate(90 600 400)" stroke="black"/>
<rect x="600" y="380" width="20" height="480" transform="rotate(90 600 380)" stroke="black"/>
<rect x="600" y="360" width="20" height="480" transform="rotate(90 600 360)" stroke="black"/>
<rect x="600" y="340" width="20" height="480" transform="rotate(90 600 340)" stroke="black"/>
<rect x="600" y="320" width="20" height="480" transform="rotate(90 600 320)" stroke="black"/>
<rect x="600" y="300" width="20" height="480" transform="rotate(90 600 300)" stroke="black"/>
<rect x="600" y="280" width="20" height="480" transform="rotate(90 600 280)" stroke="black"/>
<rect x="600" y="260" width="20" height="480" transform="rotate(90 600 260)" stroke="black"/>
<rect x="600" y="240" width="20" height="480" transform="rotate(90 600 240)" stroke="black"/>
<rect x="600" y="220" width="20" height="480" transform="rotate(90 600 220)" stroke="black"/>
<rect x="600" y="200" width="20" height="480" transform="rotate(90 600 200)" stroke="black"/>
<rect x="600" y="180" width="20" height="480" transform="rotate(90 600 180)" stroke="black"/>
<rect x="600" y="160" width="20" height="480" transform="rotate(90 600 160)" stroke="black"/>
<rect x="600" y="140" width="20" height="480" transform="rotate(90 600 140)" stroke="black"/>
<rect x="600" y="120" width="20" height="480" transform="rotate(90 600 120)" stroke="black"/>
</g>
</g>
<rect x="121" y="121" width="478" height="478" stroke="#AAAAAA" stroke-width="2"/>
<g opacity="0.4">
<path fill-rule="evenodd" clip-rule="evenodd" d="M140 300L274.318 397.046L220 560L360.043 458.92L500 560L445.682 397.046L580 300H413.449L360 140L306.6 300H140ZM293.316 460.217L319.193 382.587L257.481 338H333.978L360.016 259.982L386.079 338H462.519L400.807 382.587L426.665 460.162L360.05 412.051L293.316 460.217Z" fill="black"/>
</g>
<path d="M379.2 148C379.2 158.604 370.604 167.2 360 167.2C349.396 167.2 340.8 158.604 340.8 148C340.8 137.396 349.396 128.8 360 128.8C370.604 128.8 379.2 137.396 379.2 148Z" fill="#DE3636" fill-opacity="0.3" stroke="#DE3636" stroke-width="1.6"/>
<path d="M166.2 304C166.2 314.604 157.604 323.2 147 323.2C136.396 323.2 127.8 314.604 127.8 304C127.8 293.396 136.396 284.8 147 284.8C157.604 284.8 166.2 293.396 166.2 304Z" fill="#DE3636" fill-opacity="0.3" stroke="#DE3636" stroke-width="1.6"/>
<path d="M242.2 557C242.2 567.604 233.604 576.2 223 576.2C212.396 576.2 203.8 567.604 203.8 557C203.8 546.396 212.396 537.8 223 537.8C233.604 537.8 242.2 546.396 242.2 557Z" fill="#DE3636" fill-opacity="0.3" stroke="#DE3636" stroke-width="1.6"/>
<path d="M516.2 557C516.2 567.604 507.604 576.2 497 576.2C486.396 576.2 477.8 567.604 477.8 557C477.8 546.396 486.396 537.8 497 537.8C507.604 537.8 516.2 546.396 516.2 557Z" fill="#DE3636" fill-opacity="0.3" stroke="#DE3636" stroke-width="1.6"/>
<path d="M593.2 304C593.2 314.604 584.604 323.2 574 323.2C563.396 323.2 554.8 314.604 554.8 304C554.8 293.396 563.396 284.8 574 284.8C584.604 284.8 593.2 293.396 593.2 304Z" fill="#DE3636" fill-opacity="0.3" stroke="#DE3636" stroke-width="1.6"/>
<path d="M86.4525 71.352C92.6925 71.352 96.6285 67.896 96.6285 60.856V47.704H91.7325V61.08C91.7325 64.888 89.7485 66.84 86.5165 66.84C83.2845 66.84 81.3325 64.792 81.3325 60.888V47.704H76.4045V61.048C76.4045 67.864 80.2445 71.352 86.4525 71.352ZM101.651 71H106.515V61.048C106.515 58.584 107.827 57.272 109.843 57.272C111.859 57.272 113.043 58.584 113.043 61.048V71H117.907V59.512C117.907 55.416 115.635 52.888 111.795 52.888C109.203 52.888 107.667 54.264 106.515 55.768V53.208H101.651V71ZM122.62 71H127.484V64.376C127.484 60.056 129.628 57.976 133.02 57.976H133.276V52.888C130.268 52.76 128.54 54.392 127.484 56.888V53.208H122.62V71ZM144.948 71.384C150.484 71.384 154.58 67.256 154.58 62.136V62.072C154.58 56.984 150.516 52.888 145.044 52.888C139.508 52.888 135.412 57.048 135.412 62.136V62.2C135.412 67.32 139.476 71.384 144.948 71.384ZM145.044 67.224C142.164 67.224 140.212 64.856 140.212 62.136V62.072C140.212 59.352 142.004 57.08 144.948 57.08C147.828 57.08 149.78 59.416 149.78 62.136V62.2C149.78 64.92 147.988 67.224 145.044 67.224ZM164.54 71.352C167.132 71.352 168.668 69.976 169.82 68.44V71H174.684V53.208H169.82V63.16C169.82 65.624 168.508 66.936 166.492 66.936C164.476 66.936 163.292 65.624 163.292 63.16V53.208H158.46V64.696C158.46 68.792 160.7 71.352 164.54 71.352ZM179.557 71H184.421V61.048C184.421 58.584 185.733 57.272 187.749 57.272C189.765 57.272 190.949 58.584 190.949 61.048V71H195.813V59.512C195.813 55.416 193.541 52.888 189.701 52.888C187.109 52.888 185.573 54.264 184.421 55.768V53.208H179.557V71ZM209.07 67.192C206.638 67.192 204.59 65.176 204.59 62.136V62.072C204.59 58.968 206.638 57.016 209.07 57.016C211.502 57.016 213.55 59.032 213.55 62.072V62.136C213.55 65.176 211.502 67.192 209.07 67.192ZM207.854 71.352C210.51 71.352 212.238 70.072 213.486 68.376V71H218.35V46.712H213.486V55.608C212.27 54.136 210.574 52.888 207.854 52.888C203.63 52.888 199.726 56.152 199.726 62.072V62.136C199.726 68.088 203.694 71.352 207.854 71.352ZM231.597 71.384C234.829 71.384 237.197 70.136 238.861 68.088L236.077 65.624C234.669 66.936 233.421 67.48 231.661 67.48C229.325 67.48 227.661 66.232 227.181 63.8H239.693C239.725 63.352 239.757 62.904 239.757 62.52C239.757 57.464 237.005 52.888 231.117 52.888C225.965 52.888 222.349 57.048 222.349 62.136V62.2C222.349 67.64 226.285 71.384 231.597 71.384ZM227.117 60.76C227.501 58.36 228.941 56.792 231.117 56.792C233.357 56.792 234.701 58.424 235.021 60.76H227.117ZM252.351 67.192C249.919 67.192 247.871 65.176 247.871 62.136V62.072C247.871 58.968 249.919 57.016 252.351 57.016C254.783 57.016 256.831 59.032 256.831 62.072V62.136C256.831 65.176 254.783 67.192 252.351 67.192ZM251.135 71.352C253.791 71.352 255.519 70.072 256.767 68.376V71H261.631V46.712H256.767V55.608C255.551 54.136 253.855 52.888 251.135 52.888C246.911 52.888 243.007 56.152 243.007 62.072V62.136C243.007 68.088 246.975 71.352 251.135 71.352ZM282.953 71.32C286.793 71.32 289.737 69.528 289.737 65.624V65.56C289.737 62.296 286.825 61.112 284.329 60.312C282.377 59.64 280.617 59.16 280.617 58.104V58.04C280.617 57.272 281.321 56.696 282.601 56.696C283.945 56.696 285.705 57.336 287.465 58.36L289.321 55C287.401 53.72 284.969 52.952 282.729 52.952C279.145 52.952 276.233 54.968 276.233 58.552V58.616C276.233 62.04 279.081 63.192 281.609 63.928C283.593 64.536 285.353 64.92 285.353 66.072V66.136C285.353 67 284.617 67.576 283.081 67.576C281.417 67.576 279.369 66.84 277.449 65.432L275.337 68.664C277.673 70.488 280.457 71.32 282.953 71.32ZM293.713 71H298.577V61.048C298.577 58.616 299.825 57.272 301.777 57.272C303.729 57.272 304.849 58.584 304.849 61.048V71H309.713V61.048C309.713 58.584 310.961 57.272 312.913 57.272C314.897 57.272 315.985 58.584 315.985 61.048V71H320.849V59.48C320.849 55.16 318.577 52.888 314.801 52.888C312.337 52.888 310.449 53.912 308.913 55.768C307.985 53.944 306.225 52.888 303.857 52.888C301.265 52.888 299.729 54.264 298.577 55.768V53.208H293.713V71ZM332.116 67.96C330.42 67.96 329.204 67.128 329.204 65.688V65.624C329.204 63.992 330.58 63.064 332.82 63.064C334.132 63.064 335.316 63.352 336.212 63.736V64.696C336.212 66.616 334.548 67.96 332.116 67.96ZM330.676 71.352C333.172 71.352 334.9 70.392 336.116 69.016V71H340.82V60.632C340.82 58.264 340.212 56.312 338.9 55C337.62 53.752 335.636 53.016 332.916 53.016C329.94 53.016 327.988 53.592 326.036 54.456L327.252 58.168C328.884 57.56 330.292 57.176 332.212 57.176C334.804 57.176 336.148 58.36 336.148 60.536V60.856C334.868 60.44 333.556 60.152 331.7 60.152C327.476 60.152 324.5 61.944 324.5 65.816V65.88C324.5 69.4 327.316 71.352 330.676 71.352ZM345.782 71H350.614V46.712H345.782V71ZM356.001 71H360.833V46.712H356.001V71ZM384.597 71.384C387.829 71.384 390.197 70.136 391.861 68.088L389.077 65.624C387.669 66.936 386.421 67.48 384.661 67.48C382.325 67.48 380.661 66.232 380.181 63.8H392.693C392.725 63.352 392.757 62.904 392.757 62.52C392.757 57.464 390.005 52.888 384.117 52.888C378.965 52.888 375.349 57.048 375.349 62.136V62.2C375.349 67.64 379.285 71.384 384.597 71.384ZM380.117 60.76C380.501 58.36 381.941 56.792 384.117 56.792C386.357 56.792 387.701 58.424 388.021 60.76H380.117ZM399.775 53.208H394.559L400.607 61.944L394.303 71H399.391L403.135 65.272L406.879 71H412.095L405.791 61.88L411.839 53.208H406.751L403.231 58.552L399.775 53.208ZM421.479 71.288C423.143 71.288 424.327 70.904 425.383 70.296V66.392C424.647 66.776 423.815 67 422.887 67C421.703 67 421.159 66.424 421.159 65.176V57.368H425.447V53.208H421.159V48.6H416.295V53.208H414.151V57.368H416.295V65.976C416.295 70.072 418.407 71.288 421.479 71.288ZM437.41 71.384C440.642 71.384 443.01 70.136 444.674 68.088L441.89 65.624C440.482 66.936 439.234 67.48 437.474 67.48C435.138 67.48 433.474 66.232 432.994 63.8H445.506C445.538 63.352 445.57 62.904 445.57 62.52C445.57 57.464 442.818 52.888 436.93 52.888C431.778 52.888 428.162 57.048 428.162 62.136V62.2C428.162 67.64 432.098 71.384 437.41 71.384ZM432.93 60.76C433.314 58.36 434.754 56.792 436.93 56.792C439.17 56.792 440.514 58.424 440.834 60.76H432.93ZM449.62 71H454.484V64.376C454.484 60.056 456.628 57.976 460.02 57.976H460.276V52.888C457.268 52.76 455.54 54.392 454.484 56.888V53.208H449.62V71ZM463.872 51.096H468.992V46.744H463.872V51.096ZM464.032 71H468.864V53.208H464.032V71ZM482.667 71.384C488.203 71.384 492.299 67.256 492.299 62.136V62.072C492.299 56.984 488.235 52.888 482.763 52.888C477.227 52.888 473.131 57.048 473.131 62.136V62.2C473.131 67.32 477.195 71.384 482.667 71.384ZM482.763 67.224C479.883 67.224 477.931 64.856 477.931 62.136V62.072C477.931 59.352 479.723 57.08 482.667 57.08C485.547 57.08 487.499 59.416 487.499 62.136V62.2C487.499 64.92 485.707 67.224 482.763 67.224ZM496.307 71H501.171V64.376C501.171 60.056 503.315 57.976 506.707 57.976H506.963V52.888C503.955 52.76 502.227 54.392 501.171 56.888V53.208H496.307V71ZM529.097 71.384C532.617 71.384 534.633 70.04 536.361 68.12L533.513 65.272C532.265 66.456 531.049 67.224 529.321 67.224C526.473 67.224 524.649 64.952 524.649 62.136V62.072C524.649 59.352 526.505 57.08 529.129 57.08C530.953 57.08 532.105 57.88 533.257 59.096L536.265 55.896C534.601 54.04 532.489 52.888 529.161 52.888C523.721 52.888 519.849 57.08 519.849 62.136V62.2C519.849 67.288 523.753 71.384 529.097 71.384ZM548.135 71.384C553.671 71.384 557.767 67.256 557.767 62.136V62.072C557.767 56.984 553.703 52.888 548.231 52.888C542.695 52.888 538.599 57.048 538.599 62.136V62.2C538.599 67.32 542.663 71.384 548.135 71.384ZM548.231 67.224C545.351 67.224 543.399 64.856 543.399 62.136V62.072C543.399 59.352 545.191 57.08 548.135 57.08C551.015 57.08 552.967 59.416 552.967 62.136V62.2C552.967 64.92 551.175 67.224 548.231 67.224ZM561.776 71H566.64V64.376C566.64 60.056 568.784 57.976 572.176 57.976H572.432V52.888C569.424 52.76 567.696 54.392 566.64 56.888V53.208H561.776V71ZM575.932 71H580.796V61.048C580.796 58.584 582.108 57.272 584.124 57.272C586.14 57.272 587.324 58.584 587.324 61.048V71H592.188V59.512C592.188 55.416 589.916 52.888 586.076 52.888C583.484 52.888 581.948 54.264 580.796 55.768V53.208H575.932V71ZM605.285 71.384C608.517 71.384 610.885 70.136 612.549 68.088L609.765 65.624C608.357 66.936 607.109 67.48 605.349 67.48C603.013 67.48 601.349 66.232 600.869 63.8H613.381C613.413 63.352 613.445 62.904 613.445 62.52C613.445 57.464 610.693 52.888 604.805 52.888C599.653 52.888 596.037 57.048 596.037 62.136V62.2C596.037 67.64 599.973 71.384 605.285 71.384ZM600.805 60.76C601.189 58.36 602.629 56.792 604.805 56.792C607.045 56.792 608.389 58.424 608.709 60.76H600.805ZM617.495 71H622.359V64.376C622.359 60.056 624.503 57.976 627.895 57.976H628.151V52.888C625.143 52.76 623.415 54.392 622.359 56.888V53.208H617.495V71ZM637.859 71.32C641.699 71.32 644.643 69.528 644.643 65.624V65.56C644.643 62.296 641.731 61.112 639.235 60.312C637.283 59.64 635.523 59.16 635.523 58.104V58.04C635.523 57.272 636.227 56.696 637.507 56.696C638.851 56.696 640.611 57.336 642.371 58.36L644.227 55C642.307 53.72 639.875 52.952 637.635 52.952C634.051 52.952 631.139 54.968 631.139 58.552V58.616C631.139 62.04 633.987 63.192 636.515 63.928C638.499 64.536 640.259 64.92 640.259 66.072V66.136C640.259 67 639.523 67.576 637.987 67.576C636.323 67.576 634.275 66.84 632.355 65.432L630.243 68.664C632.579 70.488 635.363 71.32 637.859 71.32Z" fill="#DE3636"/>
</svg>
