<svg xmlns="http://www.w3.org/2000/svg" xmlns:xlink="http://www.w3.org/1999/xlink" width="264" height="264" viewBox="0 0 264 264">
  <defs>
    <circle id="avoid-2-a" cx="107.7" cy="42" r="7"/>
    <circle id="avoid-2-b" cx="33.15" cy="96.6" r="7"/>
    <circle id="avoid-2-c" cx="59.75" cy="185.15" r="7"/>
    <circle id="avoid-2-d" cx="155.65" cy="185.15" r="7"/>
    <circle id="avoid-2-e" cx="182.6" cy="96.6" r="7"/>
  </defs>
  <g fill="none" fill-rule="evenodd" transform="translate(24 16)">
    <g transform="translate(23.7 32.2)">
      <rect width="168" height="169.05" fill="#FFF"/>
      <g stroke="#000" stroke-width=".5" opacity=".4">
        <g opacity=".2">
          <rect width="7" height="168" x="161"/>
          <rect width="7" height="168" x="154"/>
          <rect width="7" height="168" x="147"/>
          <rect width="7" height="168" x="140"/>
          <rect width="7" height="168" x="133"/>
          <rect width="7" height="168" x="126"/>
          <rect width="7" height="168" x="119"/>
          <rect width="7" height="168" x="112"/>
          <rect width="7" height="168" x="105"/>
          <rect width="7" height="168" x="98"/>
          <rect width="7" height="168" x="91"/>
          <rect width="7" height="168" x="84"/>
          <rect width="7" height="168" x="77"/>
          <rect width="7" height="168" x="70"/>
          <rect width="7" height="168" x="63"/>
          <rect width="7" height="168" x="56"/>
          <rect width="7" height="168" x="49"/>
          <rect width="7" height="168" x="42"/>
          <rect width="7" height="168" x="35"/>
          <rect width="7" height="168" x="28"/>
          <rect width="7" height="168" x="21"/>
          <rect width="7" height="168" x="14"/>
          <rect width="7" height="168" x="7"/>
          <rect width="7" height="168"/>
        </g>
        <g opacity=".2" transform="rotate(90 84 84)">
          <rect width="7" height="168" x="161"/>
          <rect width="7" height="168" x="154"/>
          <rect width="7" height="168" x="147"/>
          <rect width="7" height="168" x="140"/>
          <rect width="7" height="168" x="133"/>
          <rect width="7" height="168" x="126"/>
          <rect width="7" height="168" x="119"/>
          <rect width="7" height="168" x="112"/>
          <rect width="7" height="168" x="105"/>
          <rect width="7" height="168" x="98"/>
          <rect width="7" height="168" x="91"/>
          <rect width="7" height="168" x="84"/>
          <rect width="7" height="168" x="77"/>
          <rect width="7" height="168" x="70"/>
          <rect width="7" height="168" x="63"/>
          <rect width="7" height="168" x="56"/>
          <rect width="7" height="168" x="49"/>
          <rect width="7" height="168" x="42"/>
          <rect width="7" height="168" x="35"/>
          <rect width="7" height="168" x="28"/>
          <rect width="7" height="168" x="21"/>
          <rect width="7" height="168" x="14"/>
          <rect width="7" height="168" x="7"/>
          <rect width="7" height="168"/>
        </g>
      </g>
      <rect width="166" height="166" x="1" y="1" stroke="#AAA" stroke-width="2"/>
    </g>
    <g opacity=".4" transform="translate(23.7 32.2)">
      <rect width="168" height="168"/>
      <path fill="#000" fill-rule="nonzero" d="M54.0113533,96.9659401 L7,63 L65.3099995,63 L84,7 L102.707077,63 L161,63 L113.988647,96.9659401 L133,154 L84.0150739,118.621998 L35,154 L54.0113533,96.9659401 Z M69.7175753,91.9055666 L60.6607256,119.076116 L84.0174689,102.217732 L107.332752,119.056547 L98.2824247,91.9055666 L119.881674,76.2999998 L93.127539,76.2999998 L84.0057605,48.9937778 L74.8923086,76.2999998 L48.1183259,76.2999998 L69.7175753,91.9055666 Z"/>
    </g>
    <use fill="#DE3636" fill-opacity=".3" xlink:href="#avoid-2-a"/>
    <circle cx="107.7" cy="42" r="6.688" stroke="#DE3636" stroke-width=".625"/>
    <use fill="#DE3636" fill-opacity=".3" xlink:href="#avoid-2-b"/>
    <circle cx="33.15" cy="96.6" r="6.688" stroke="#DE3636" stroke-width=".625"/>
    <use fill="#DE3636" fill-opacity=".3" xlink:href="#avoid-2-c"/>
    <circle cx="59.75" cy="185.15" r="6.688" stroke="#DE3636" stroke-width=".625"/>
    <g>
      <use fill="#DE3636" fill-opacity=".3" xlink:href="#avoid-2-d"/>
      <circle cx="155.65" cy="185.15" r="6.688" stroke="#DE3636" stroke-width=".625"/>
    </g>
    <g>
      <use fill="#DE3636" fill-opacity=".3" xlink:href="#avoid-2-e"/>
      <circle cx="182.6" cy="96.6" r="6.688" stroke="#DE3636" stroke-width=".625"/>
    </g>
    <path fill="#DE3636" d="M5.154,12.132 C2.826,12.132 1.386,10.824 1.386,8.268 L1.386,3.264 L3.234,3.264 L3.234,8.208 C3.234,9.672 3.966,10.44 5.178,10.44 C6.39,10.44 7.134,9.708 7.134,8.28 L7.134,3.264 L8.97,3.264 L8.97,8.196 C8.97,10.836 7.494,12.132 5.154,12.132 Z M10.854,12 L10.854,5.328 L12.678,5.328 L12.678,6.288 C13.11,5.724 13.686,5.208 14.658,5.208 C16.098,5.208 16.95,6.156 16.95,7.692 L16.95,12 L15.126,12 L15.126,8.268 C15.126,7.344 14.682,6.852 13.926,6.852 C13.17,6.852 12.678,7.344 12.678,8.268 L12.678,12 L10.854,12 Z M18.714,12 L18.714,5.328 L20.538,5.328 L20.538,6.708 C20.934,5.772 21.582,5.16 22.71,5.208 L22.71,7.116 L22.614,7.116 C21.342,7.116 20.538,7.896 20.538,9.516 L20.538,12 L18.714,12 Z M27.078,12.144 C25.026,12.144 23.502,10.62 23.502,8.7 L23.502,8.676 C23.502,6.768 25.038,5.208 27.114,5.208 C29.166,5.208 30.69,6.744 30.69,8.652 L30.69,8.676 C30.69,10.596 29.154,12.144 27.078,12.144 Z M27.114,10.584 C28.218,10.584 28.89,9.72 28.89,8.7 L28.89,8.676 C28.89,7.656 28.158,6.78 27.078,6.78 C25.974,6.78 25.302,7.632 25.302,8.652 L25.302,8.676 C25.302,9.696 26.034,10.584 27.114,10.584 Z M34.422,12.132 C32.982,12.132 32.142,11.172 32.142,9.636 L32.142,5.328 L33.954,5.328 L33.954,9.06 C33.954,9.984 34.398,10.476 35.154,10.476 C35.91,10.476 36.402,9.984 36.402,9.06 L36.402,5.328 L38.226,5.328 L38.226,12 L36.402,12 L36.402,11.04 C35.97,11.616 35.394,12.132 34.422,12.132 Z M40.05,12 L40.05,5.328 L41.874,5.328 L41.874,6.288 C42.306,5.724 42.882,5.208 43.854,5.208 C45.294,5.208 46.146,6.156 46.146,7.692 L46.146,12 L44.322,12 L44.322,8.268 C44.322,7.344 43.878,6.852 43.122,6.852 C42.366,6.852 41.874,7.344 41.874,8.268 L41.874,12 L40.05,12 Z M51.114,10.572 C52.026,10.572 52.794,9.816 52.794,8.676 L52.794,8.652 C52.794,7.512 52.026,6.756 51.114,6.756 C50.202,6.756 49.434,7.488 49.434,8.652 L49.434,8.676 C49.434,9.816 50.202,10.572 51.114,10.572 Z M50.658,12.132 C49.098,12.132 47.61,10.908 47.61,8.676 L47.61,8.652 C47.61,6.432 49.074,5.208 50.658,5.208 C51.678,5.208 52.314,5.676 52.77,6.228 L52.77,2.892 L54.594,2.892 L54.594,12 L52.77,12 L52.77,11.016 C52.302,11.652 51.654,12.132 50.658,12.132 Z M59.562,12.144 C57.57,12.144 56.094,10.74 56.094,8.7 L56.094,8.676 C56.094,6.768 57.45,5.208 59.382,5.208 C61.59,5.208 62.622,6.924 62.622,8.82 C62.622,8.964 62.61,9.132 62.598,9.3 L57.906,9.3 C58.086,10.212 58.71,10.68 59.586,10.68 C60.246,10.68 60.714,10.476 61.242,9.984 L62.286,10.908 C61.662,11.676 60.774,12.144 59.562,12.144 Z M57.882,8.16 L60.846,8.16 C60.726,7.284 60.222,6.672 59.382,6.672 C58.566,6.672 58.026,7.26 57.882,8.16 Z M67.35,10.572 C68.262,10.572 69.03,9.816 69.03,8.676 L69.03,8.652 C69.03,7.512 68.262,6.756 67.35,6.756 C66.438,6.756 65.67,7.488 65.67,8.652 L65.67,8.676 C65.67,9.816 66.438,10.572 67.35,10.572 Z M66.894,12.132 C65.334,12.132 63.846,10.908 63.846,8.676 L63.846,8.652 C63.846,6.432 65.31,5.208 66.894,5.208 C67.914,5.208 68.55,5.676 69.006,6.228 L69.006,2.892 L70.83,2.892 L70.83,12 L69.006,12 L69.006,11.016 C68.538,11.652 67.89,12.132 66.894,12.132 Z M78.822,12.12 C77.886,12.12 76.842,11.808 75.966,11.124 L76.758,9.912 C77.478,10.44 78.246,10.716 78.87,10.716 C79.446,10.716 79.722,10.5 79.722,10.176 L79.722,10.152 C79.722,9.72 79.062,9.576 78.318,9.348 C77.37,9.072 76.302,8.64 76.302,7.356 L76.302,7.332 C76.302,5.988 77.394,5.232 78.738,5.232 C79.578,5.232 80.49,5.52 81.21,6 L80.514,7.26 C79.854,6.876 79.194,6.636 78.69,6.636 C78.21,6.636 77.946,6.852 77.946,7.14 L77.946,7.164 C77.946,7.56 78.606,7.74 79.338,7.992 C80.274,8.292 81.366,8.736 81.366,9.96 L81.366,9.984 C81.366,11.448 80.262,12.12 78.822,12.12 Z M82.854,12 L82.854,5.328 L84.678,5.328 L84.678,6.288 C85.11,5.724 85.686,5.208 86.658,5.208 C87.546,5.208 88.206,5.604 88.554,6.288 C89.13,5.592 89.838,5.208 90.762,5.208 C92.178,5.208 93.03,6.06 93.03,7.68 L93.03,12 L91.206,12 L91.206,8.268 C91.206,7.344 90.798,6.852 90.054,6.852 C89.322,6.852 88.854,7.344 88.854,8.268 L88.854,12 L87.03,12 L87.03,8.268 C87.03,7.344 86.61,6.852 85.878,6.852 C85.146,6.852 84.678,7.356 84.678,8.268 L84.678,12 L82.854,12 Z M97.254,10.86 C98.166,10.86 98.79,10.356 98.79,9.636 L98.79,9.276 C98.454,9.132 98.01,9.024 97.518,9.024 C96.678,9.024 96.162,9.372 96.162,9.984 L96.162,10.008 C96.162,10.548 96.618,10.86 97.254,10.86 Z M96.714,12.132 C95.454,12.132 94.398,11.4 94.398,10.08 L94.398,10.056 C94.398,8.604 95.514,7.932 97.098,7.932 C97.794,7.932 98.286,8.04 98.766,8.196 L98.766,8.076 C98.766,7.26 98.262,6.816 97.29,6.816 C96.57,6.816 96.042,6.96 95.43,7.188 L94.974,5.796 C95.706,5.472 96.438,5.256 97.554,5.256 C98.574,5.256 99.318,5.532 99.798,6 C100.29,6.492 100.518,7.224 100.518,8.112 L100.518,12 L98.754,12 L98.754,11.256 C98.298,11.772 97.65,12.132 96.714,12.132 Z M102.378,12 L102.378,2.892 L104.19,2.892 L104.19,12 L102.378,12 Z M106.206,12 L106.206,2.892 L108.018,2.892 L108.018,12 L106.206,12 Z M116.922,12.144 C114.93,12.144 113.454,10.74 113.454,8.7 L113.454,8.676 C113.454,6.768 114.81,5.208 116.742,5.208 C118.95,5.208 119.982,6.924 119.982,8.82 C119.982,8.964 119.97,9.132 119.958,9.3 L115.266,9.3 C115.446,10.212 116.07,10.68 116.946,10.68 C117.606,10.68 118.074,10.476 118.602,9.984 L119.646,10.908 C119.022,11.676 118.134,12.144 116.922,12.144 Z M115.242,8.16 L118.206,8.16 C118.086,7.284 117.582,6.672 116.742,6.672 C115.926,6.672 115.386,7.26 115.242,8.16 Z M122.622,5.328 L123.918,7.332 L125.238,5.328 L127.146,5.328 L124.878,8.58 L127.242,12 L125.286,12 L123.882,9.852 L122.478,12 L120.57,12 L122.934,8.604 L120.666,5.328 L122.622,5.328 Z M130.758,12.108 C129.606,12.108 128.814,11.652 128.814,10.116 L128.814,6.888 L128.01,6.888 L128.01,5.328 L128.814,5.328 L128.814,3.6 L130.638,3.6 L130.638,5.328 L132.246,5.328 L132.246,6.888 L130.638,6.888 L130.638,9.816 C130.638,10.284 130.842,10.5 131.286,10.5 C131.634,10.5 131.946,10.416 132.222,10.272 L132.222,11.736 C131.826,11.964 131.382,12.108 130.758,12.108 Z M136.722,12.144 C134.73,12.144 133.254,10.74 133.254,8.7 L133.254,8.676 C133.254,6.768 134.61,5.208 136.542,5.208 C138.75,5.208 139.782,6.924 139.782,8.82 C139.782,8.964 139.77,9.132 139.758,9.3 L135.066,9.3 C135.246,10.212 135.87,10.68 136.746,10.68 C137.406,10.68 137.874,10.476 138.402,9.984 L139.446,10.908 C138.822,11.676 137.934,12.144 136.722,12.144 Z M135.042,8.16 L138.006,8.16 C137.886,7.284 137.382,6.672 136.542,6.672 C135.726,6.672 135.186,7.26 135.042,8.16 Z M141.306,12 L141.306,5.328 L143.13,5.328 L143.13,6.708 C143.526,5.772 144.174,5.16 145.302,5.208 L145.302,7.116 L145.206,7.116 C143.934,7.116 143.13,7.896 143.13,9.516 L143.13,12 L141.306,12 Z M146.646,4.536 L146.646,2.904 L148.566,2.904 L148.566,4.536 L146.646,4.536 Z M146.706,12 L146.706,5.328 L148.518,5.328 L148.518,12 L146.706,12 Z M153.69,12.144 C151.638,12.144 150.114,10.62 150.114,8.7 L150.114,8.676 C150.114,6.768 151.65,5.208 153.726,5.208 C155.778,5.208 157.302,6.744 157.302,8.652 L157.302,8.676 C157.302,10.596 155.766,12.144 153.69,12.144 Z M153.726,10.584 C154.83,10.584 155.502,9.72 155.502,8.7 L155.502,8.676 C155.502,7.656 154.77,6.78 153.69,6.78 C152.586,6.78 151.914,7.632 151.914,8.652 L151.914,8.676 C151.914,9.696 152.646,10.584 153.726,10.584 Z M158.802,12 L158.802,5.328 L160.626,5.328 L160.626,6.708 C161.022,5.772 161.67,5.16 162.798,5.208 L162.798,7.116 L162.702,7.116 C161.43,7.116 160.626,7.896 160.626,9.516 L160.626,12 L158.802,12 Z M171.09,12.144 C169.086,12.144 167.622,10.608 167.622,8.7 L167.622,8.676 C167.622,6.78 169.074,5.208 171.114,5.208 C172.362,5.208 173.154,5.64 173.778,6.336 L172.65,7.536 C172.218,7.08 171.786,6.78 171.102,6.78 C170.118,6.78 169.422,7.632 169.422,8.652 L169.422,8.676 C169.422,9.732 170.106,10.584 171.174,10.584 C171.822,10.584 172.278,10.296 172.746,9.852 L173.814,10.92 C173.166,11.64 172.41,12.144 171.09,12.144 Z M178.23,12.144 C176.178,12.144 174.654,10.62 174.654,8.7 L174.654,8.676 C174.654,6.768 176.19,5.208 178.266,5.208 C180.318,5.208 181.842,6.744 181.842,8.652 L181.842,8.676 C181.842,10.596 180.306,12.144 178.23,12.144 Z M178.266,10.584 C179.37,10.584 180.042,9.72 180.042,8.7 L180.042,8.676 C180.042,7.656 179.31,6.78 178.23,6.78 C177.126,6.78 176.454,7.632 176.454,8.652 L176.454,8.676 C176.454,9.696 177.186,10.584 178.266,10.584 Z M183.342,12 L183.342,5.328 L185.166,5.328 L185.166,6.708 C185.562,5.772 186.21,5.16 187.338,5.208 L187.338,7.116 L187.242,7.116 C185.97,7.116 185.166,7.896 185.166,9.516 L185.166,12 L183.342,12 Z M188.646,12 L188.646,5.328 L190.47,5.328 L190.47,6.288 C190.902,5.724 191.478,5.208 192.45,5.208 C193.89,5.208 194.742,6.156 194.742,7.692 L194.742,12 L192.918,12 L192.918,8.268 C192.918,7.344 192.474,6.852 191.718,6.852 C190.962,6.852 190.47,7.344 190.47,8.268 L190.47,12 L188.646,12 Z M199.65,12.144 C197.658,12.144 196.182,10.74 196.182,8.7 L196.182,8.676 C196.182,6.768 197.538,5.208 199.47,5.208 C201.678,5.208 202.71,6.924 202.71,8.82 C202.71,8.964 202.698,9.132 202.686,9.3 L197.994,9.3 C198.174,10.212 198.798,10.68 199.674,10.68 C200.334,10.68 200.802,10.476 201.33,9.984 L202.374,10.908 C201.75,11.676 200.862,12.144 199.65,12.144 Z M197.97,8.16 L200.934,8.16 C200.814,7.284 200.31,6.672 199.47,6.672 C198.654,6.672 198.114,7.26 197.97,8.16 Z M204.234,12 L204.234,5.328 L206.058,5.328 L206.058,6.708 C206.454,5.772 207.102,5.16 208.23,5.208 L208.23,7.116 L208.134,7.116 C206.862,7.116 206.058,7.896 206.058,9.516 L206.058,12 L204.234,12 Z M211.866,12.12 C210.93,12.12 209.886,11.808 209.01,11.124 L209.802,9.912 C210.522,10.44 211.29,10.716 211.914,10.716 C212.49,10.716 212.766,10.5 212.766,10.176 L212.766,10.152 C212.766,9.72 212.106,9.576 211.362,9.348 C210.414,9.072 209.346,8.64 209.346,7.356 L209.346,7.332 C209.346,5.988 210.438,5.232 211.782,5.232 C212.622,5.232 213.534,5.52 214.254,6 L213.558,7.26 C212.898,6.876 212.238,6.636 211.734,6.636 C211.254,6.636 210.99,6.852 210.99,7.14 L210.99,7.164 C210.99,7.56 211.65,7.74 212.382,7.992 C213.318,8.292 214.41,8.736 214.41,9.96 L214.41,9.984 C214.41,11.448 213.306,12.12 211.866,12.12 Z"/>
  </g>
</svg>
