<?xml version="1.0" encoding="UTF-8"?>
<svg width="264px" height="264px" viewBox="0 0 264 264" version="1.1" xmlns="http://www.w3.org/2000/svg" xmlns:xlink="http://www.w3.org/1999/xlink">
    <!-- Generator: Sketch 48 (47235) - http://www.bohemiancoding.com/sketch -->
    <title>Avoid 1</title>
    <desc>Created with Sketch.</desc>
    <defs>
        <circle id="path-1" cx="35.6" cy="18.4" r="18.2"></circle>
        <circle id="path-2" cx="154.6" cy="17" r="16.8"></circle>
        <circle id="path-3" cx="35.6" cy="108" r="18.2"></circle>
        <circle id="path-4" cx="153.2" cy="108" r="18.2"></circle>
    </defs>
    <g id="Page-1" stroke="none" stroke-width="1" fill="none" fill-rule="evenodd">
        <g id="Avoid-1">
            <g id="Group-2" transform="translate(38.000000, 48.000000)">
                <g id="Icon-Grid---Base---Zoomed" transform="translate(10.400000, 0.200000)">
                    <g id="Grid">
                        <rect id="Rectangle" fill="#FFFFFF" x="0" y="0" width="168" height="169.05"></rect>
                        <g id="pixels" opacity="0.400000006" stroke="#000000" stroke-width="0.5">
                            <g id="Group" opacity="0.200000003">
                                <rect id="Rectangle-3" x="161" y="0" width="7" height="168"></rect>
                                <rect id="Rectangle-3" x="154" y="0" width="7" height="168"></rect>
                                <rect id="Rectangle-3" x="147" y="0" width="7" height="168"></rect>
                                <rect id="Rectangle-3" x="140" y="0" width="7" height="168"></rect>
                                <rect id="Rectangle-3" x="133" y="0" width="7" height="168"></rect>
                                <rect id="Rectangle-3" x="126" y="0" width="7" height="168"></rect>
                                <rect id="Rectangle-3" x="119" y="0" width="7" height="168"></rect>
                                <rect id="Rectangle-3" x="112" y="0" width="7" height="168"></rect>
                                <rect id="Rectangle-3" x="105" y="0" width="7" height="168"></rect>
                                <rect id="Rectangle-3" x="98" y="0" width="7" height="168"></rect>
                                <rect id="Rectangle-3" x="91" y="0" width="7" height="168"></rect>
                                <rect id="Rectangle-3" x="84" y="0" width="7" height="168"></rect>
                                <rect id="Rectangle-3" x="77" y="0" width="7" height="168"></rect>
                                <rect id="Rectangle-3" x="70" y="0" width="7" height="168"></rect>
                                <rect id="Rectangle-3" x="63" y="0" width="7" height="168"></rect>
                                <rect id="Rectangle-3" x="56" y="0" width="7" height="168"></rect>
                                <rect id="Rectangle-3" x="49" y="0" width="7" height="168"></rect>
                                <rect id="Rectangle-3" x="42" y="0" width="7" height="168"></rect>
                                <rect id="Rectangle-3" x="35" y="0" width="7" height="168"></rect>
                                <rect id="Rectangle-3" x="28" y="0" width="7" height="168"></rect>
                                <rect id="Rectangle-3" x="21" y="0" width="7" height="168"></rect>
                                <rect id="Rectangle-3" x="14" y="0" width="7" height="168"></rect>
                                <rect id="Rectangle-3" x="7" y="0" width="7" height="168"></rect>
                                <rect id="Rectangle-3" x="0" y="0" width="7" height="168"></rect>
                            </g>
                            <g id="Group" opacity="0.200000003" transform="translate(84.000000, 84.000000) rotate(90.000000) translate(-84.000000, -84.000000) ">
                                <rect id="Rectangle-3" x="161" y="0" width="7" height="168"></rect>
                                <rect id="Rectangle-3" x="154" y="0" width="7" height="168"></rect>
                                <rect id="Rectangle-3" x="147" y="0" width="7" height="168"></rect>
                                <rect id="Rectangle-3" x="140" y="0" width="7" height="168"></rect>
                                <rect id="Rectangle-3" x="133" y="0" width="7" height="168"></rect>
                                <rect id="Rectangle-3" x="126" y="0" width="7" height="168"></rect>
                                <rect id="Rectangle-3" x="119" y="0" width="7" height="168"></rect>
                                <rect id="Rectangle-3" x="112" y="0" width="7" height="168"></rect>
                                <rect id="Rectangle-3" x="105" y="0" width="7" height="168"></rect>
                                <rect id="Rectangle-3" x="98" y="0" width="7" height="168"></rect>
                                <rect id="Rectangle-3" x="91" y="0" width="7" height="168"></rect>
                                <rect id="Rectangle-3" x="84" y="0" width="7" height="168"></rect>
                                <rect id="Rectangle-3" x="77" y="0" width="7" height="168"></rect>
                                <rect id="Rectangle-3" x="70" y="0" width="7" height="168"></rect>
                                <rect id="Rectangle-3" x="63" y="0" width="7" height="168"></rect>
                                <rect id="Rectangle-3" x="56" y="0" width="7" height="168"></rect>
                                <rect id="Rectangle-3" x="49" y="0" width="7" height="168"></rect>
                                <rect id="Rectangle-3" x="42" y="0" width="7" height="168"></rect>
                                <rect id="Rectangle-3" x="35" y="0" width="7" height="168"></rect>
                                <rect id="Rectangle-3" x="28" y="0" width="7" height="168"></rect>
                                <rect id="Rectangle-3" x="21" y="0" width="7" height="168"></rect>
                                <rect id="Rectangle-3" x="14" y="0" width="7" height="168"></rect>
                                <rect id="Rectangle-3" x="7" y="0" width="7" height="168"></rect>
                                <rect id="Rectangle-3" x="0" y="0" width="7" height="168"></rect>
                            </g>
                        </g>
                        <rect id="bounds" stroke="#AAAAAA" stroke-width="2" x="1" y="1" width="166" height="166"></rect>
                    </g>
                </g>
                <g id="Icons/envelope" opacity="0.400000006" transform="translate(10.400000, 0.200000)">
                    <rect id="bounds" x="0" y="0" width="168" height="168"></rect>
                    <path d="M37.8994949,42 L84,88.1005051 L130.100505,42 L37.8994949,42 Z M140,51.8994949 L86.4748737,105.424621 C85.1080387,106.791456 82.8919613,106.791456 81.5251263,105.424621 L28,51.8994949 L28,126 L140,126 L140,51.8994949 Z M28,28 L140,28 C147.731986,28 154,34.2680135 154,42 L154,126 C154,133.731986 147.731986,140 140,140 L28,140 C20.2680135,140 14,133.731986 14,126 L14,42 C14,34.2680135 20.2680135,28 28,28 Z" id="envelope" fill="#000000"></path>
                </g>
                <g id="Guides" transform="translate(0.000000, 21.000000)">
                    <g id="Group" transform="translate(-0.000000, 0.000000)">
                        <g id="guide">
                            <use fill-opacity="0.3" fill="#DE3636" fill-rule="evenodd" xlink:href="#path-1"></use>
                            <circle stroke="#DE3636" stroke-width="0.625" cx="35.6" cy="18.4" r="17.8875"></circle>
                        </g>
                        <g id="guide">
                            <use fill-opacity="0.3" fill="#DE3636" fill-rule="evenodd" xlink:href="#path-2"></use>
                            <circle stroke="#DE3636" stroke-width="0.625" cx="154.6" cy="17" r="16.4875"></circle>
                        </g>
                        <g id="guide">
                            <use fill-opacity="0.3" fill="#DE3636" fill-rule="evenodd" xlink:href="#path-3"></use>
                            <circle stroke="#DE3636" stroke-width="0.625" cx="35.6" cy="108" r="17.8875"></circle>
                        </g>
                        <g id="guide">
                            <use fill-opacity="0.3" fill="#DE3636" fill-rule="evenodd" xlink:href="#path-4"></use>
                            <circle stroke="#DE3636" stroke-width="0.625" cx="153.2" cy="108" r="17.8875"></circle>
                        </g>
                        <text id="2px-rounded-exterior" font-family="GothamSSm-Bold, Gotham SSm" font-size="12" font-weight="bold" fill="#DE3636">
                            <tspan x="1.029" y="-41">2px rounded exterior corners</tspan>
                        </text>
                    </g>
                </g>
            </g>
        </g>
    </g>
</svg>