<svg width="720" height="720" viewBox="0 0 720 720" fill="none" xmlns="http://www.w3.org/2000/svg">
<rect width="480" height="480" transform="translate(120 120)" fill="white"/>
<g opacity="0.4">
<g opacity="0.2">
<rect x="580" y="120" width="20" height="480" stroke="black"/>
<rect x="560" y="120" width="20" height="480" stroke="black"/>
<rect x="540" y="120" width="20" height="480" stroke="black"/>
<rect x="520" y="120" width="20" height="480" stroke="black"/>
<rect x="500" y="120" width="20" height="480" stroke="black"/>
<rect x="480" y="120" width="20" height="480" stroke="black"/>
<rect x="460" y="120" width="20" height="480" stroke="black"/>
<rect x="440" y="120" width="20" height="480" stroke="black"/>
<rect x="420" y="120" width="20" height="480" stroke="black"/>
<rect x="400" y="120" width="20" height="480" stroke="black"/>
<rect x="380" y="120" width="20" height="480" stroke="black"/>
<rect x="360" y="120" width="20" height="480" stroke="black"/>
<rect x="340" y="120" width="20" height="480" stroke="black"/>
<rect x="320" y="120" width="20" height="480" stroke="black"/>
<rect x="300" y="120" width="20" height="480" stroke="black"/>
<rect x="280" y="120" width="20" height="480" stroke="black"/>
<rect x="260" y="120" width="20" height="480" stroke="black"/>
<rect x="240" y="120" width="20" height="480" stroke="black"/>
<rect x="220" y="120" width="20" height="480" stroke="black"/>
<rect x="200" y="120" width="20" height="480" stroke="black"/>
<rect x="180" y="120" width="20" height="480" stroke="black"/>
<rect x="160" y="120" width="20" height="480" stroke="black"/>
<rect x="140" y="120" width="20" height="480" stroke="black"/>
<rect x="120" y="120" width="20" height="480" stroke="black"/>
</g>
<g opacity="0.2">
<rect x="600" y="580" width="20" height="480" transform="rotate(90 600 580)" stroke="black"/>
<rect x="600" y="560" width="20" height="480" transform="rotate(90 600 560)" stroke="black"/>
<rect x="600" y="540" width="20" height="480" transform="rotate(90 600 540)" stroke="black"/>
<rect x="600" y="520" width="20" height="480" transform="rotate(90 600 520)" stroke="black"/>
<rect x="600" y="500" width="20" height="480" transform="rotate(90 600 500)" stroke="black"/>
<rect x="600" y="480" width="20" height="480" transform="rotate(90 600 480)" stroke="black"/>
<rect x="600" y="460" width="20" height="480" transform="rotate(90 600 460)" stroke="black"/>
<rect x="600" y="440" width="20" height="480" transform="rotate(90 600 440)" stroke="black"/>
<rect x="600" y="420" width="20" height="480" transform="rotate(90 600 420)" stroke="black"/>
<rect x="600" y="400" width="20" height="480" transform="rotate(90 600 400)" stroke="black"/>
<rect x="600" y="380" width="20" height="480" transform="rotate(90 600 380)" stroke="black"/>
<rect x="600" y="360" width="20" height="480" transform="rotate(90 600 360)" stroke="black"/>
<rect x="600" y="340" width="20" height="480" transform="rotate(90 600 340)" stroke="black"/>
<rect x="600" y="320" width="20" height="480" transform="rotate(90 600 320)" stroke="black"/>
<rect x="600" y="300" width="20" height="480" transform="rotate(90 600 300)" stroke="black"/>
<rect x="600" y="280" width="20" height="480" transform="rotate(90 600 280)" stroke="black"/>
<rect x="600" y="260" width="20" height="480" transform="rotate(90 600 260)" stroke="black"/>
<rect x="600" y="240" width="20" height="480" transform="rotate(90 600 240)" stroke="black"/>
<rect x="600" y="220" width="20" height="480" transform="rotate(90 600 220)" stroke="black"/>
<rect x="600" y="200" width="20" height="480" transform="rotate(90 600 200)" stroke="black"/>
<rect x="600" y="180" width="20" height="480" transform="rotate(90 600 180)" stroke="black"/>
<rect x="600" y="160" width="20" height="480" transform="rotate(90 600 160)" stroke="black"/>
<rect x="600" y="140" width="20" height="480" transform="rotate(90 600 140)" stroke="black"/>
<rect x="600" y="120" width="20" height="480" transform="rotate(90 600 120)" stroke="black"/>
</g>
</g>
<rect x="121" y="121" width="478" height="478" stroke="#AAAAAA" stroke-width="2"/>
<mask id="mask0" mask-type="alpha" maskUnits="userSpaceOnUse" x="120" y="120" width="480" height="480">
<rect x="120" y="120" width="480" height="480" fill="white"/>
</mask>
<g mask="url(#mask0)">
<g opacity="0.3">
<path d="M600 120L120 600" stroke="black" stroke-width="3"/>
<path d="M120 120L600 600" stroke="black" stroke-width="3"/>
<path fill-rule="evenodd" clip-rule="evenodd" d="M360 460C415.228 460 460 415.228 460 360C460 304.772 415.228 260 360 260C304.772 260 260 304.772 260 360C260 415.228 304.772 460 360 460Z" stroke="black" stroke-width="3"/>
<path d="M360 120V600" stroke="black" stroke-width="3"/>
<path d="M280 120V600" stroke="black" stroke-width="3"/>
<path d="M440 120V600" stroke="black" stroke-width="3"/>
<path d="M120 360H600" stroke="black" stroke-width="3"/>
<path d="M120 440H600" stroke="black" stroke-width="3"/>
<path d="M120 280H600" stroke="black" stroke-width="3"/>
</g>
<g opacity="0.7">
<path fill-rule="evenodd" clip-rule="evenodd" d="M360 560C470.457 560 560 470.457 560 360C560 249.543 470.457 160 360 160C249.543 160 160 249.543 160 360C160 470.457 249.543 560 360 560Z" stroke="black" stroke-width="3"/>
<rect x="160" y="200" width="400" height="320" rx="16" stroke="black" stroke-width="3"/>
<rect x="200" y="160" width="320" height="400" rx="16" stroke="black" stroke-width="3"/>
<rect x="540" y="180" width="360" height="360" rx="16" transform="rotate(90 540 180)" stroke="black" stroke-width="3"/>
</g>
</g>
<path opacity="0.3" fill-rule="evenodd" clip-rule="evenodd" d="M160 120H120V160V560V600H160H560H600V560V160V120H560H160ZM560 560V160H160V560H560Z" fill="#137BC2"/>
<rect x="560" y="608" width="2" height="40" fill="#137BC2"/>
<path d="M557.465 679H570.329V675.808H562.577L565.577 673.456C568.673 671.032 570.161 669.568 570.161 666.688V666.64C570.161 663.4 567.761 661.288 564.185 661.288C561.065 661.288 559.409 662.56 557.705 664.912L560.297 666.976C561.593 665.368 562.553 664.576 563.945 664.576C565.361 664.576 566.393 665.416 566.393 666.952C566.393 668.416 565.529 669.4 563.321 671.248L557.465 676.072V679ZM580.632 676.144C578.808 676.144 577.272 674.632 577.272 672.352V672.304C577.272 670.024 578.808 668.512 580.632 668.512C582.456 668.512 583.992 670.024 583.992 672.304V672.352C583.992 674.68 582.456 676.144 580.632 676.144ZM573.672 682.984H577.32V677.2C578.232 678.304 579.504 679.264 581.544 679.264C584.712 679.264 587.64 676.792 587.64 672.352V672.304C587.64 667.864 584.664 665.416 581.544 665.416C579.552 665.416 578.256 666.376 577.32 667.648V665.656H573.672V682.984ZM592.913 665.656H589.001L593.537 672.208L588.809 679H592.625L595.433 674.704L598.241 679H602.153L597.425 672.16L601.961 665.656H598.145L595.505 669.664L592.913 665.656Z" fill="#137BC2"/>
<rect x="598" y="608" width="2" height="40" fill="#137BC2"/>
<rect x="608" y="598" width="40" height="2" fill="#137BC2"/>
<rect x="608" y="560" width="40" height="2" fill="#137BC2"/>
<path d="M656.32 587H669.184V583.808H661.432L664.432 581.456C667.528 579.032 669.016 577.568 669.016 574.688V574.64C669.016 571.4 666.616 569.288 663.04 569.288C659.92 569.288 658.264 570.56 656.56 572.912L659.152 574.976C660.448 573.368 661.408 572.576 662.8 572.576C664.216 572.576 665.248 573.416 665.248 574.952C665.248 576.416 664.384 577.4 662.176 579.248L656.32 584.072V587ZM679.487 584.144C677.663 584.144 676.127 582.632 676.127 580.352V580.304C676.127 578.024 677.663 576.512 679.487 576.512C681.311 576.512 682.847 578.024 682.847 580.304V580.352C682.847 582.68 681.311 584.144 679.487 584.144ZM672.527 590.984H676.175V585.2C677.087 586.304 678.359 587.264 680.399 587.264C683.567 587.264 686.495 584.792 686.495 580.352V580.304C686.495 575.864 683.519 573.416 680.399 573.416C678.407 573.416 677.111 574.376 676.175 575.648V573.656H672.527V590.984ZM691.769 573.656H687.857L692.393 580.208L687.665 587H691.481L694.289 582.704L697.097 587H701.009L696.281 580.16L700.817 573.656H697.001L694.361 577.664L691.769 573.656Z" fill="#137BC2"/>
<path d="M292.289 71H297.185V63.896H301.249C306.433 63.896 310.625 61.144 310.625 55.768V55.704C310.625 50.968 307.265 47.704 301.729 47.704H292.289V71ZM297.185 59.512V52.152H301.313C303.969 52.152 305.665 53.432 305.665 55.8V55.864C305.665 57.944 304.065 59.512 301.409 59.512H297.185ZM320.46 67.96C318.764 67.96 317.548 67.128 317.548 65.688V65.624C317.548 63.992 318.924 63.064 321.164 63.064C322.476 63.064 323.66 63.352 324.556 63.736V64.696C324.556 66.616 322.892 67.96 320.46 67.96ZM319.02 71.352C321.516 71.352 323.244 70.392 324.46 69.016V71H329.164V60.632C329.164 58.264 328.556 56.312 327.244 55C325.964 53.752 323.98 53.016 321.26 53.016C318.284 53.016 316.332 53.592 314.38 54.456L315.596 58.168C317.228 57.56 318.636 57.176 320.556 57.176C323.148 57.176 324.492 58.36 324.492 60.536V60.856C323.212 60.44 321.9 60.152 320.044 60.152C315.82 60.152 312.844 61.944 312.844 65.816V65.88C312.844 69.4 315.66 71.352 319.02 71.352ZM342.414 67.192C339.982 67.192 337.934 65.176 337.934 62.136V62.072C337.934 58.968 339.982 57.016 342.414 57.016C344.846 57.016 346.894 59.032 346.894 62.072V62.136C346.894 65.176 344.846 67.192 342.414 67.192ZM341.198 71.352C343.854 71.352 345.582 70.072 346.83 68.376V71H351.694V46.712H346.83V55.608C345.614 54.136 343.918 52.888 341.198 52.888C336.974 52.888 333.07 56.152 333.07 62.072V62.136C333.07 68.088 337.038 71.352 341.198 71.352ZM365.101 67.192C362.669 67.192 360.621 65.176 360.621 62.136V62.072C360.621 58.968 362.669 57.016 365.101 57.016C367.533 57.016 369.581 59.032 369.581 62.072V62.136C369.581 65.176 367.533 67.192 365.101 67.192ZM363.885 71.352C366.541 71.352 368.269 70.072 369.517 68.376V71H374.381V46.712H369.517V55.608C368.301 54.136 366.605 52.888 363.885 52.888C359.661 52.888 355.757 56.152 355.757 62.072V62.136C355.757 68.088 359.725 71.352 363.885 71.352ZM379.341 51.096H384.461V46.744H379.341V51.096ZM379.501 71H384.333V53.208H379.501V71ZM389.463 71H394.327V61.048C394.327 58.584 395.639 57.272 397.655 57.272C399.671 57.272 400.855 58.584 400.855 61.048V71H405.719V59.512C405.719 55.416 403.447 52.888 399.607 52.888C397.015 52.888 395.479 54.264 394.327 55.768V53.208H389.463V71ZM418.944 65.528C416.416 65.528 414.496 63.8 414.496 61.24V61.176C414.496 58.648 416.416 56.92 418.944 56.92C421.472 56.92 423.456 58.648 423.456 61.176V61.24C423.456 63.768 421.472 65.528 418.944 65.528ZM418.4 76.376C421.792 76.376 424.352 75.64 425.984 74.008C427.488 72.504 428.256 70.2 428.256 67.064V53.208H423.392V55.608C422.016 54.072 420.352 52.888 417.568 52.888C413.472 52.888 409.632 55.896 409.632 61.176V61.24C409.632 66.52 413.408 69.56 417.568 69.56C420.288 69.56 421.952 68.408 423.456 66.584V67.544C423.456 70.808 421.76 72.504 418.272 72.504C415.904 72.504 414.048 71.896 412.192 70.84L410.528 74.488C412.768 75.704 415.52 76.376 418.4 76.376Z" fill="#137BC2"/>
</svg>
