<svg xmlns="http://www.w3.org/2000/svg" xmlns:xlink="http://www.w3.org/1999/xlink" width="264" height="264" viewBox="0 0 264 264">
  <defs>
    <rect id="canvas-size-a" width="168" height="168"/>
  </defs>
  <g fill="none" fill-rule="evenodd">
    <g transform="translate(48 48)">
      <g transform="translate(.25 .25)">
        <mask id="canvas-size-b" fill="#fff">
          <use xlink:href="#canvas-size-a"/>
        </mask>
        <g mask="url(#canvas-size-b)">
          <rect width="168" height="169.05" fill="#FFF"/>
          <g stroke="#000" stroke-width=".5" opacity=".4">
            <g opacity=".2">
              <rect width="7" height="168" x="161"/>
              <rect width="7" height="168" x="154"/>
              <rect width="7" height="168" x="147"/>
              <rect width="7" height="168" x="140"/>
              <rect width="7" height="168" x="133"/>
              <rect width="7" height="168" x="126"/>
              <rect width="7" height="168" x="119"/>
              <rect width="7" height="168" x="112"/>
              <rect width="7" height="168" x="105"/>
              <rect width="7" height="168" x="98"/>
              <rect width="7" height="168" x="91"/>
              <rect width="7" height="168" x="84"/>
              <rect width="7" height="168" x="77"/>
              <rect width="7" height="168" x="70"/>
              <rect width="7" height="168" x="63"/>
              <rect width="7" height="168" x="56"/>
              <rect width="7" height="168" x="49"/>
              <rect width="7" height="168" x="42"/>
              <rect width="7" height="168" x="35"/>
              <rect width="7" height="168" x="28"/>
              <rect width="7" height="168" x="21"/>
              <rect width="7" height="168" x="14"/>
              <rect width="7" height="168" x="7"/>
              <rect width="7" height="168"/>
            </g>
            <g opacity=".2" transform="rotate(90 84 84)">
              <rect width="7" height="168" x="161"/>
              <rect width="7" height="168" x="154"/>
              <rect width="7" height="168" x="147"/>
              <rect width="7" height="168" x="140"/>
              <rect width="7" height="168" x="133"/>
              <rect width="7" height="168" x="126"/>
              <rect width="7" height="168" x="119"/>
              <rect width="7" height="168" x="112"/>
              <rect width="7" height="168" x="105"/>
              <rect width="7" height="168" x="98"/>
              <rect width="7" height="168" x="91"/>
              <rect width="7" height="168" x="84"/>
              <rect width="7" height="168" x="77"/>
              <rect width="7" height="168" x="70"/>
              <rect width="7" height="168" x="63"/>
              <rect width="7" height="168" x="56"/>
              <rect width="7" height="168" x="49"/>
              <rect width="7" height="168" x="42"/>
              <rect width="7" height="168" x="35"/>
              <rect width="7" height="168" x="28"/>
              <rect width="7" height="168" x="21"/>
              <rect width="7" height="168" x="14"/>
              <rect width="7" height="168" x="7"/>
              <rect width="7" height="168"/>
            </g>
          </g>
          <rect width="166" height="166" x="1" y="1" stroke="#AAA" stroke-width="2"/>
        </g>
        <g stroke="#000" mask="url(#canvas-size-b)">
          <g stroke-width=".5" opacity=".3">
            <path d="M0,0 L168,168" transform="matrix(-1 0 0 1 168 0)"/>
            <path d="M0,0 L168,168"/>
            <circle cx="84" cy="84" r="35"/>
            <path d="M84 0L84 168.4375M112 0L112 168.4375M0 84L168 84M0 112L168 112M0 56L168 56"/>
          </g>
          <g stroke-width=".5" opacity=".7" transform="translate(14 14)">
            <circle cx="70" cy="70" r="70"/>
            <rect width="140" height="112" y="14" rx="32"/>
            <rect width="112" height="140" x="14" rx="32"/>
            <rect width="126" height="126" x="7" y="7" rx="32" transform="rotate(90 70 70)"/>
          </g>
        </g>
      </g>
      <g fill="#137BC2" transform="translate(.25 .25)">
        <rect width="168" height="168" opacity=".3"/>
        <rect width="1" height="14" y="170.8"/>
        <path d="M74.182,190 L74.182,189.024 L76.134,187.416 C76.87,186.8 77.158,186.472 77.158,185.984 C77.158,185.472 76.814,185.192 76.342,185.192 C75.878,185.192 75.558,185.456 75.126,185.992 L74.262,185.304 C74.83,184.52 75.382,184.096 76.422,184.096 C77.614,184.096 78.414,184.8 78.414,185.88 L78.414,185.896 C78.414,186.856 77.918,187.344 76.886,188.152 L75.886,188.936 L78.47,188.936 L78.47,190 L74.182,190 Z M82.206,190 L82.206,188.736 L79.342,188.736 L79.134,187.864 L82.342,184.136 L83.382,184.136 L83.382,187.736 L84.174,187.736 L84.174,188.736 L83.382,188.736 L83.382,190 L82.206,190 Z M80.582,187.736 L82.206,187.736 L82.206,185.824 L80.582,187.736 Z M87.55,189.048 C88.158,189.048 88.67,188.56 88.67,187.784 L88.67,187.768 C88.67,187.008 88.158,186.504 87.55,186.504 C86.942,186.504 86.43,187.008 86.43,187.768 L86.43,187.784 C86.43,188.544 86.942,189.048 87.55,189.048 Z M85.23,191.328 L85.23,185.552 L86.446,185.552 L86.446,186.216 C86.758,185.792 87.19,185.472 87.854,185.472 C88.894,185.472 89.886,186.288 89.886,187.768 L89.886,187.784 C89.886,189.264 88.91,190.088 87.854,190.088 C87.174,190.088 86.75,189.768 86.446,189.4 L86.446,191.328 L85.23,191.328 Z M91.646,185.552 L92.51,186.888 L93.39,185.552 L94.662,185.552 L93.15,187.72 L94.726,190 L93.422,190 L92.486,188.568 L91.55,190 L90.278,190 L91.854,187.736 L90.342,185.552 L91.646,185.552 Z"/>
        <rect width="1" height="14" x="167.3" y="170.8"/>
        <rect width="14" height="1" x="170.8" y="167.3"/>
        <rect width="14" height="1" x="170.8"/>
        <path d="M178.44,87.1 L178.44,86.124 L180.392,84.516 C181.128,83.9 181.416,83.572 181.416,83.084 C181.416,82.572 181.072,82.292 180.6,82.292 C180.136,82.292 179.816,82.556 179.384,83.092 L178.52,82.404 C179.088,81.62 179.64,81.196 180.68,81.196 C181.872,81.196 182.672,81.9 182.672,82.98 L182.672,82.996 C182.672,83.956 182.176,84.444 181.144,85.252 L180.144,86.036 L182.728,86.036 L182.728,87.1 L178.44,87.1 Z M186.464,87.1 L186.464,85.836 L183.6,85.836 L183.392,84.964 L186.6,81.236 L187.64,81.236 L187.64,84.836 L188.432,84.836 L188.432,85.836 L187.64,85.836 L187.64,87.1 L186.464,87.1 Z M184.84,84.836 L186.464,84.836 L186.464,82.924 L184.84,84.836 Z M191.808,86.148 C192.416,86.148 192.928,85.66 192.928,84.884 L192.928,84.868 C192.928,84.108 192.416,83.604 191.808,83.604 C191.2,83.604 190.688,84.108 190.688,84.868 L190.688,84.884 C190.688,85.644 191.2,86.148 191.808,86.148 Z M189.488,88.428 L189.488,82.652 L190.704,82.652 L190.704,83.316 C191.016,82.892 191.448,82.572 192.112,82.572 C193.152,82.572 194.144,83.388 194.144,84.868 L194.144,84.884 C194.144,86.364 193.168,87.188 192.112,87.188 C191.432,87.188 191.008,86.868 190.704,86.5 L190.704,88.428 L189.488,88.428 Z M195.904,82.652 L196.768,83.988 L197.648,82.652 L198.92,82.652 L197.408,84.82 L198.984,87.1 L197.68,87.1 L196.744,85.668 L195.808,87.1 L194.536,87.1 L196.112,84.836 L194.6,82.652 L195.904,82.652 Z"/>
      </g>
    </g>
    <path fill="#137BC2" d="M101.786,28.144 C99.218,28.144 97.31,26.164 97.31,23.656 L97.31,23.632 C97.31,21.148 99.182,19.12 101.858,19.12 C103.502,19.12 104.486,19.66 105.302,20.464 L104.126,21.82 C103.442,21.196 102.746,20.812 101.846,20.812 C100.334,20.812 99.242,22.072 99.242,23.608 L99.242,23.632 C99.242,25.168 100.31,26.452 101.846,26.452 C102.866,26.452 103.49,26.044 104.186,25.408 L105.362,26.596 C104.462,27.544 103.466,28.144 101.786,28.144 Z M109.262,26.86 C110.174,26.86 110.798,26.356 110.798,25.636 L110.798,25.276 C110.462,25.132 110.018,25.024 109.526,25.024 C108.686,25.024 108.17,25.372 108.17,25.984 L108.17,26.008 C108.17,26.548 108.626,26.86 109.262,26.86 Z M108.722,28.132 C107.462,28.132 106.406,27.4 106.406,26.08 L106.406,26.056 C106.406,24.604 107.522,23.932 109.106,23.932 C109.802,23.932 110.294,24.04 110.774,24.196 L110.774,24.076 C110.774,23.26 110.27,22.816 109.298,22.816 C108.578,22.816 108.05,22.96 107.438,23.188 L106.982,21.796 C107.714,21.472 108.446,21.256 109.562,21.256 C110.582,21.256 111.326,21.532 111.806,22 C112.298,22.492 112.526,23.224 112.526,24.112 L112.526,28 L110.762,28 L110.762,27.256 C110.306,27.772 109.658,28.132 108.722,28.132 Z M114.29,28 L114.29,21.328 L116.114,21.328 L116.114,22.288 C116.546,21.724 117.122,21.208 118.094,21.208 C119.534,21.208 120.386,22.156 120.386,23.692 L120.386,28 L118.562,28 L118.562,24.268 C118.562,23.344 118.118,22.852 117.362,22.852 C116.606,22.852 116.114,23.344 116.114,24.268 L116.114,28 L114.29,28 Z M123.95,28.048 L121.298,21.328 L123.23,21.328 L124.778,25.888 L126.35,21.328 L128.246,21.328 L125.594,28.048 L123.95,28.048 Z M131.606,26.86 C132.518,26.86 133.142,26.356 133.142,25.636 L133.142,25.276 C132.806,25.132 132.362,25.024 131.87,25.024 C131.03,25.024 130.514,25.372 130.514,25.984 L130.514,26.008 C130.514,26.548 130.97,26.86 131.606,26.86 Z M131.066,28.132 C129.806,28.132 128.75,27.4 128.75,26.08 L128.75,26.056 C128.75,24.604 129.866,23.932 131.45,23.932 C132.146,23.932 132.638,24.04 133.118,24.196 L133.118,24.076 C133.118,23.26 132.614,22.816 131.642,22.816 C130.922,22.816 130.394,22.96 129.782,23.188 L129.326,21.796 C130.058,21.472 130.79,21.256 131.906,21.256 C132.926,21.256 133.67,21.532 134.15,22 C134.642,22.492 134.87,23.224 134.87,24.112 L134.87,28 L133.106,28 L133.106,27.256 C132.65,27.772 132.002,28.132 131.066,28.132 Z M138.962,28.12 C138.026,28.12 136.982,27.808 136.106,27.124 L136.898,25.912 C137.618,26.44 138.386,26.716 139.01,26.716 C139.586,26.716 139.862,26.5 139.862,26.176 L139.862,26.152 C139.862,25.72 139.202,25.576 138.458,25.348 C137.51,25.072 136.442,24.64 136.442,23.356 L136.442,23.332 C136.442,21.988 137.534,21.232 138.878,21.232 C139.718,21.232 140.63,21.52 141.35,22 L140.654,23.26 C139.994,22.876 139.334,22.636 138.83,22.636 C138.35,22.636 138.086,22.852 138.086,23.14 L138.086,23.164 C138.086,23.56 138.746,23.74 139.478,23.992 C140.414,24.292 141.506,24.736 141.506,25.96 L141.506,25.984 C141.506,27.448 140.402,28.12 138.962,28.12 Z M150.134,28.12 C148.802,28.12 147.482,27.664 146.438,26.728 L147.53,25.42 C148.322,26.08 149.15,26.5 150.17,26.5 C150.986,26.5 151.49,26.152 151.49,25.612 L151.49,25.588 C151.49,25.072 151.178,24.808 149.69,24.436 C147.902,23.992 146.786,23.488 146.786,21.772 L146.786,21.748 C146.786,20.188 148.058,19.144 149.834,19.144 C151.106,19.144 152.174,19.54 153.062,20.248 L152.09,21.64 C151.322,21.088 150.554,20.764 149.798,20.764 C149.03,20.764 148.622,21.136 148.622,21.58 L148.622,21.604 C148.622,22.204 149.006,22.408 150.542,22.804 C152.33,23.26 153.326,23.908 153.326,25.408 L153.326,25.432 C153.326,27.148 152.006,28.12 150.134,28.12 Z M154.958,20.536 L154.958,18.904 L156.878,18.904 L156.878,20.536 L154.958,20.536 Z M155.018,28 L155.018,21.328 L156.83,21.328 L156.83,28 L155.018,28 Z M158.51,28 L158.51,26.728 L162.038,22.804 L158.63,22.804 L158.63,21.328 L164.318,21.328 L164.318,22.612 L160.778,26.524 L164.318,26.524 L164.318,28 L158.51,28 Z M168.818,28.144 C166.826,28.144 165.35,26.74 165.35,24.7 L165.35,24.676 C165.35,22.768 166.706,21.208 168.638,21.208 C170.846,21.208 171.878,22.924 171.878,24.82 C171.878,24.964 171.866,25.132 171.854,25.3 L167.162,25.3 C167.342,26.212 167.966,26.68 168.842,26.68 C169.502,26.68 169.97,26.476 170.498,25.984 L171.542,26.908 C170.918,27.676 170.03,28.144 168.818,28.144 Z M167.138,24.16 L170.102,24.16 C169.982,23.284 169.478,22.672 168.638,22.672 C167.822,22.672 167.282,23.26 167.138,24.16 Z"/>
  </g>
</svg>
