<svg width="720" height="720" viewBox="0 0 720 720" fill="none" xmlns="http://www.w3.org/2000/svg">
<rect width="480" height="480" transform="translate(120 120)" fill="white"/>
<g opacity="0.4">
<g opacity="0.2">
<rect x="580" y="120" width="20" height="480" stroke="black"/>
<rect x="560" y="120" width="20" height="480" stroke="black"/>
<rect x="540" y="120" width="20" height="480" stroke="black"/>
<rect x="520" y="120" width="20" height="480" stroke="black"/>
<rect x="500" y="120" width="20" height="480" stroke="black"/>
<rect x="480" y="120" width="20" height="480" stroke="black"/>
<rect x="460" y="120" width="20" height="480" stroke="black"/>
<rect x="440" y="120" width="20" height="480" stroke="black"/>
<rect x="420" y="120" width="20" height="480" stroke="black"/>
<rect x="400" y="120" width="20" height="480" stroke="black"/>
<rect x="380" y="120" width="20" height="480" stroke="black"/>
<rect x="360" y="120" width="20" height="480" stroke="black"/>
<rect x="340" y="120" width="20" height="480" stroke="black"/>
<rect x="320" y="120" width="20" height="480" stroke="black"/>
<rect x="300" y="120" width="20" height="480" stroke="black"/>
<rect x="280" y="120" width="20" height="480" stroke="black"/>
<rect x="260" y="120" width="20" height="480" stroke="black"/>
<rect x="240" y="120" width="20" height="480" stroke="black"/>
<rect x="220" y="120" width="20" height="480" stroke="black"/>
<rect x="200" y="120" width="20" height="480" stroke="black"/>
<rect x="180" y="120" width="20" height="480" stroke="black"/>
<rect x="160" y="120" width="20" height="480" stroke="black"/>
<rect x="140" y="120" width="20" height="480" stroke="black"/>
<rect x="120" y="120" width="20" height="480" stroke="black"/>
</g>
<g opacity="0.2">
<rect x="600" y="580" width="20" height="480" transform="rotate(90 600 580)" stroke="black"/>
<rect x="600" y="560" width="20" height="480" transform="rotate(90 600 560)" stroke="black"/>
<rect x="600" y="540" width="20" height="480" transform="rotate(90 600 540)" stroke="black"/>
<rect x="600" y="520" width="20" height="480" transform="rotate(90 600 520)" stroke="black"/>
<rect x="600" y="500" width="20" height="480" transform="rotate(90 600 500)" stroke="black"/>
<rect x="600" y="480" width="20" height="480" transform="rotate(90 600 480)" stroke="black"/>
<rect x="600" y="460" width="20" height="480" transform="rotate(90 600 460)" stroke="black"/>
<rect x="600" y="440" width="20" height="480" transform="rotate(90 600 440)" stroke="black"/>
<rect x="600" y="420" width="20" height="480" transform="rotate(90 600 420)" stroke="black"/>
<rect x="600" y="400" width="20" height="480" transform="rotate(90 600 400)" stroke="black"/>
<rect x="600" y="380" width="20" height="480" transform="rotate(90 600 380)" stroke="black"/>
<rect x="600" y="360" width="20" height="480" transform="rotate(90 600 360)" stroke="black"/>
<rect x="600" y="340" width="20" height="480" transform="rotate(90 600 340)" stroke="black"/>
<rect x="600" y="320" width="20" height="480" transform="rotate(90 600 320)" stroke="black"/>
<rect x="600" y="300" width="20" height="480" transform="rotate(90 600 300)" stroke="black"/>
<rect x="600" y="280" width="20" height="480" transform="rotate(90 600 280)" stroke="black"/>
<rect x="600" y="260" width="20" height="480" transform="rotate(90 600 260)" stroke="black"/>
<rect x="600" y="240" width="20" height="480" transform="rotate(90 600 240)" stroke="black"/>
<rect x="600" y="220" width="20" height="480" transform="rotate(90 600 220)" stroke="black"/>
<rect x="600" y="200" width="20" height="480" transform="rotate(90 600 200)" stroke="black"/>
<rect x="600" y="180" width="20" height="480" transform="rotate(90 600 180)" stroke="black"/>
<rect x="600" y="160" width="20" height="480" transform="rotate(90 600 160)" stroke="black"/>
<rect x="600" y="140" width="20" height="480" transform="rotate(90 600 140)" stroke="black"/>
<rect x="600" y="120" width="20" height="480" transform="rotate(90 600 120)" stroke="black"/>
</g>
</g>
<rect x="121" y="121" width="478" height="478" stroke="#AAAAAA" stroke-width="2"/>
<g opacity="0.4">
<path fill-rule="evenodd" clip-rule="evenodd" d="M470.025 160H300C255.88 160 220 195.9 220 240V554.292C220 563.412 231.209 567.772 237.372 561.049L330 460L422.628 561.049C428.791 567.772 440 563.412 440 554.292V320H520C531.04 320 540 311.06 540 300V240C540 195.9 514.165 160 470.025 160ZM400 240V480L330 400L260 480V240C260 217.92 277.94 200 300 200H410.72C403.92 211.78 400 225.44 400 240ZM440 280H500V240C500 217.92 492.065 200 470.025 200C447.965 200 440 217.92 440 240V280Z" fill="black"/>
</g>
<path d="M439 554C439 558.971 434.971 563 430 563C425.029 563 421 558.971 421 554C421 549.029 425.029 545 430 545C434.971 545 439 549.029 439 554Z" fill="#137BC2" fill-opacity="0.3" stroke="#137BC2" stroke-width="2"/>
<path d="M239 554C239 558.971 234.971 563 230 563C225.029 563 221 558.971 221 554C221 549.029 225.029 545 230 545C234.971 545 239 549.029 239 554Z" fill="#137BC2" fill-opacity="0.3" stroke="#137BC2" stroke-width="2"/>
<rect x="430" y="544" width="202" height="2" fill="#137BC2"/>
<path d="M649.168 562.288C653.824 562.288 656.92 558.304 656.92 553.264V553.216C656.92 548.152 653.824 544.24 649.216 544.24C644.584 544.24 641.464 548.224 641.464 553.264V553.312C641.464 558.376 644.512 562.288 649.168 562.288ZM649.216 558.976C646.816 558.976 645.256 556.504 645.256 553.264V553.216C645.256 549.976 646.792 547.552 649.168 547.552C651.544 547.552 653.128 550.048 653.128 553.264V553.312C653.128 556.528 651.616 558.976 649.216 558.976ZM659.539 562H663.427V558.112H659.539V562ZM672.806 562.288C676.79 562.288 679.406 559.96 679.406 556.288V556.24C679.406 552.352 676.694 550.672 673.31 550.672C672.302 550.672 671.63 550.816 670.91 551.008L671.126 547.768H678.638V544.528H667.958L667.454 553.12L669.614 554.56C670.454 554.2 671.462 553.888 672.59 553.888C674.486 553.888 675.782 554.8 675.782 556.36V556.408C675.782 558.016 674.606 558.952 672.758 558.952C671.198 558.952 669.878 558.232 668.534 557.008L666.302 559.672C667.982 561.28 670.046 562.288 672.806 562.288ZM689.776 559.144C687.952 559.144 686.416 557.632 686.416 555.352V555.304C686.416 553.024 687.952 551.512 689.776 551.512C691.6 551.512 693.136 553.024 693.136 555.304V555.352C693.136 557.68 691.6 559.144 689.776 559.144ZM682.816 565.984H686.464V560.2C687.376 561.304 688.648 562.264 690.688 562.264C693.856 562.264 696.784 559.792 696.784 555.352V555.304C696.784 550.864 693.808 548.416 690.688 548.416C688.696 548.416 687.4 549.376 686.464 550.648V548.656H682.816V565.984ZM702.058 548.656H698.146L702.682 555.208L697.954 562H701.77L704.578 557.704L707.386 562H711.298L706.57 555.16L711.106 548.656H707.29L704.65 552.664L702.058 548.656Z" fill="#137BC2"/>
<rect x="430" y="562" width="202" height="2" fill="#137BC2"/>
<path d="M538.974 301C538.471 310.697 530.697 318.471 521 318.974V301H538.974Z" fill="#137BC2" fill-opacity="0.3" stroke="#137BC2" stroke-width="2"/>
<rect x="520" y="300" width="112" height="2" fill="#137BC2"/>
<path d="M644.536 319H648.184V301.408H645.664L640.696 302.896L641.464 305.92L644.536 305.152V319ZM659.378 316.144C657.554 316.144 656.018 314.632 656.018 312.352V312.304C656.018 310.024 657.554 308.512 659.378 308.512C661.202 308.512 662.738 310.024 662.738 312.304V312.352C662.738 314.68 661.202 316.144 659.378 316.144ZM652.418 322.984H656.066V317.2C656.978 318.304 658.25 319.264 660.29 319.264C663.458 319.264 666.386 316.792 666.386 312.352V312.304C666.386 307.864 663.41 305.416 660.29 305.416C658.298 305.416 657.002 306.376 656.066 307.648V305.656H652.418V322.984ZM671.659 305.656H667.747L672.283 312.208L667.555 319H671.371L674.179 314.704L676.987 319H680.899L676.171 312.16L680.707 305.656H676.891L674.251 309.664L671.659 305.656Z" fill="#137BC2"/>
<path d="M217.465 74H230.329V70.808H222.577L225.577 68.456C228.673 66.032 230.161 64.568 230.161 61.688V61.64C230.161 58.4 227.761 56.288 224.185 56.288C221.065 56.288 219.409 57.56 217.705 59.912L220.297 61.976C221.593 60.368 222.553 59.576 223.945 59.576C225.361 59.576 226.393 60.416 226.393 61.952C226.393 63.416 225.529 64.4 223.321 66.248L217.465 71.072V74ZM240.632 71.144C238.808 71.144 237.272 69.632 237.272 67.352V67.304C237.272 65.024 238.808 63.512 240.632 63.512C242.456 63.512 243.992 65.024 243.992 67.304V67.352C243.992 69.68 242.456 71.144 240.632 71.144ZM233.672 77.984H237.32V72.2C238.232 73.304 239.504 74.264 241.544 74.264C244.712 74.264 247.64 71.792 247.64 67.352V67.304C247.64 62.864 244.664 60.416 241.544 60.416C239.552 60.416 238.256 61.376 237.32 62.648V60.656H233.672V77.984ZM252.913 60.656H249.001L253.537 67.208L248.809 74H252.625L255.433 69.704L258.241 74H262.153L257.425 67.16L261.961 60.656H258.145L255.505 64.664L252.913 60.656Z" fill="#137BC2"/>
<rect x="258" y="88" width="2" height="272" fill="#137BC2"/>
<rect x="220" y="88" width="2" height="272" fill="#137BC2"/>
<rect x="360" y="160" width="272" height="2" fill="#137BC2"/>
<path d="M641.32 188H654.184V184.808H646.432L649.432 182.456C652.528 180.032 654.016 178.568 654.016 175.688V175.64C654.016 172.4 651.616 170.288 648.04 170.288C644.92 170.288 643.264 171.56 641.56 173.912L644.152 175.976C645.448 174.368 646.408 173.576 647.8 173.576C649.216 173.576 650.248 174.416 650.248 175.952C650.248 177.416 649.384 178.4 647.176 180.248L641.32 185.072V188ZM664.487 185.144C662.663 185.144 661.127 183.632 661.127 181.352V181.304C661.127 179.024 662.663 177.512 664.487 177.512C666.311 177.512 667.847 179.024 667.847 181.304V181.352C667.847 183.68 666.311 185.144 664.487 185.144ZM657.527 191.984H661.175V186.2C662.087 187.304 663.359 188.264 665.399 188.264C668.567 188.264 671.495 185.792 671.495 181.352V181.304C671.495 176.864 668.519 174.416 665.399 174.416C663.407 174.416 662.111 175.376 661.175 176.648V174.656H657.527V191.984ZM676.769 174.656H672.857L677.393 181.208L672.665 188H676.481L679.289 183.704L682.097 188H686.009L681.281 181.16L685.817 174.656H682.001L679.361 178.664L676.769 174.656Z" fill="#137BC2"/>
<rect x="360" y="198" width="272" height="2" fill="#137BC2"/>
<rect x="520" y="318" width="112" height="2" fill="#137BC2"/>
</svg>
