<?xml version="1.0" encoding="UTF-8"?>
<svg width="264px" height="264px" viewBox="0 0 264 264" version="1.1" xmlns="http://www.w3.org/2000/svg" xmlns:xlink="http://www.w3.org/1999/xlink">
    <!-- Generator: Sketch 48 (47235) - http://www.bohemiancoding.com/sketch -->
    <title>Example 4</title>
    <desc>Created with Sketch.</desc>
    <defs>
        <circle id="path-1" cx="72.8" cy="77.7" r="3.5"></circle>
        <circle id="path-2" cx="77.7" cy="72.8" r="3.5"></circle>
        <circle id="path-3" cx="3.5" cy="72.8" r="3.5"></circle>
        <circle id="path-4" cx="8.4" cy="77.7" r="3.5"></circle>
        <circle id="path-5" cx="8.4" cy="3.5" r="3.5"></circle>
        <circle id="path-6" cx="72.8" cy="3.5" r="3.5"></circle>
        <circle id="path-7" cx="77.7" cy="8.4" r="3.5"></circle>
        <circle id="path-8" cx="3.5" cy="8.4" r="3.5"></circle>
    </defs>
    <g id="Page-1" stroke="none" stroke-width="1" fill="none" fill-rule="evenodd">
        <g id="Example-4">
            <g id="Group-3" transform="translate(28.000000, 35.000000)">
                <g id="Icon-Grid---Base---Zoomed" transform="translate(20.000000, 13.000000)">
                    <g id="Grid">
                        <rect id="Rectangle" fill="#FFFFFF" x="0" y="0" width="168" height="169.05"></rect>
                        <g id="pixels" opacity="0.400000006" stroke="#000000" stroke-width="0.5">
                            <g id="Group" opacity="0.200000003">
                                <rect id="Rectangle-3" x="161" y="0" width="7" height="168"></rect>
                                <rect id="Rectangle-3" x="154" y="0" width="7" height="168"></rect>
                                <rect id="Rectangle-3" x="147" y="0" width="7" height="168"></rect>
                                <rect id="Rectangle-3" x="140" y="0" width="7" height="168"></rect>
                                <rect id="Rectangle-3" x="133" y="0" width="7" height="168"></rect>
                                <rect id="Rectangle-3" x="126" y="0" width="7" height="168"></rect>
                                <rect id="Rectangle-3" x="119" y="0" width="7" height="168"></rect>
                                <rect id="Rectangle-3" x="112" y="0" width="7" height="168"></rect>
                                <rect id="Rectangle-3" x="105" y="0" width="7" height="168"></rect>
                                <rect id="Rectangle-3" x="98" y="0" width="7" height="168"></rect>
                                <rect id="Rectangle-3" x="91" y="0" width="7" height="168"></rect>
                                <rect id="Rectangle-3" x="84" y="0" width="7" height="168"></rect>
                                <rect id="Rectangle-3" x="77" y="0" width="7" height="168"></rect>
                                <rect id="Rectangle-3" x="70" y="0" width="7" height="168"></rect>
                                <rect id="Rectangle-3" x="63" y="0" width="7" height="168"></rect>
                                <rect id="Rectangle-3" x="56" y="0" width="7" height="168"></rect>
                                <rect id="Rectangle-3" x="49" y="0" width="7" height="168"></rect>
                                <rect id="Rectangle-3" x="42" y="0" width="7" height="168"></rect>
                                <rect id="Rectangle-3" x="35" y="0" width="7" height="168"></rect>
                                <rect id="Rectangle-3" x="28" y="0" width="7" height="168"></rect>
                                <rect id="Rectangle-3" x="21" y="0" width="7" height="168"></rect>
                                <rect id="Rectangle-3" x="14" y="0" width="7" height="168"></rect>
                                <rect id="Rectangle-3" x="7" y="0" width="7" height="168"></rect>
                                <rect id="Rectangle-3" x="0" y="0" width="7" height="168"></rect>
                            </g>
                            <g id="Group" opacity="0.200000003" transform="translate(84.000000, 84.000000) rotate(90.000000) translate(-84.000000, -84.000000) ">
                                <rect id="Rectangle-3" x="161" y="0" width="7" height="168"></rect>
                                <rect id="Rectangle-3" x="154" y="0" width="7" height="168"></rect>
                                <rect id="Rectangle-3" x="147" y="0" width="7" height="168"></rect>
                                <rect id="Rectangle-3" x="140" y="0" width="7" height="168"></rect>
                                <rect id="Rectangle-3" x="133" y="0" width="7" height="168"></rect>
                                <rect id="Rectangle-3" x="126" y="0" width="7" height="168"></rect>
                                <rect id="Rectangle-3" x="119" y="0" width="7" height="168"></rect>
                                <rect id="Rectangle-3" x="112" y="0" width="7" height="168"></rect>
                                <rect id="Rectangle-3" x="105" y="0" width="7" height="168"></rect>
                                <rect id="Rectangle-3" x="98" y="0" width="7" height="168"></rect>
                                <rect id="Rectangle-3" x="91" y="0" width="7" height="168"></rect>
                                <rect id="Rectangle-3" x="84" y="0" width="7" height="168"></rect>
                                <rect id="Rectangle-3" x="77" y="0" width="7" height="168"></rect>
                                <rect id="Rectangle-3" x="70" y="0" width="7" height="168"></rect>
                                <rect id="Rectangle-3" x="63" y="0" width="7" height="168"></rect>
                                <rect id="Rectangle-3" x="56" y="0" width="7" height="168"></rect>
                                <rect id="Rectangle-3" x="49" y="0" width="7" height="168"></rect>
                                <rect id="Rectangle-3" x="42" y="0" width="7" height="168"></rect>
                                <rect id="Rectangle-3" x="35" y="0" width="7" height="168"></rect>
                                <rect id="Rectangle-3" x="28" y="0" width="7" height="168"></rect>
                                <rect id="Rectangle-3" x="21" y="0" width="7" height="168"></rect>
                                <rect id="Rectangle-3" x="14" y="0" width="7" height="168"></rect>
                                <rect id="Rectangle-3" x="7" y="0" width="7" height="168"></rect>
                                <rect id="Rectangle-3" x="0" y="0" width="7" height="168"></rect>
                            </g>
                        </g>
                        <rect id="bounds" stroke="#AAAAAA" stroke-width="2" x="1" y="1" width="166" height="166"></rect>
                    </g>
                </g>
                <g id="Icons/close" opacity="0.400000006" transform="translate(19.200000, 12.300000)">
                    <rect id="bounds" x="0.8" y="0.7" width="168" height="168"></rect>
                    <path d="M124.525126,50.3951263 L119.604874,45.4748737 C118.238039,44.1080387 116.021961,44.1080387 114.655126,45.4748737 L85,75.13 L55.3448737,45.4748737 C53.9780387,44.1080387 51.7619613,44.1080387 50.3951263,45.4748737 L45.4748737,50.3951263 C44.1080387,51.7619613 44.1080387,53.9780387 45.4748737,55.3448737 L75.13,85 L45.4748737,114.655126 C44.1080387,116.021961 44.1080387,118.238039 45.4748737,119.604874 L50.3951263,124.525126 C51.7619613,125.891961 53.9780387,125.891961 55.3448737,124.525126 L85,94.87 L114.655126,124.525126 C116.021961,125.891961 118.238039,125.891961 119.604874,124.525126 L124.525126,119.604874 C125.891961,118.238039 125.891961,116.021961 124.525126,114.655126 L94.87,85 L124.525126,55.3448737 C125.891961,53.9780387 125.891961,51.7619613 124.525126,50.3951263 Z" id="close" fill="#000000" fill-rule="nonzero"></path>
                </g>
                <g id="Guides" transform="translate(63.600000, 56.700000)">
                    <g id="Group-2">
                        <g id="guide">
                            <use fill-opacity="0.3" fill="#137BC2" fill-rule="evenodd" xlink:href="#path-1"></use>
                            <circle stroke="#137BC2" stroke-width="0.7" cx="72.8" cy="77.7" r="3.15"></circle>
                        </g>
                        <g id="guide">
                            <use fill-opacity="0.3" fill="#137BC2" fill-rule="evenodd" xlink:href="#path-2"></use>
                            <circle stroke="#137BC2" stroke-width="0.7" cx="77.7" cy="72.8" r="3.15"></circle>
                        </g>
                        <g id="guide">
                            <use fill-opacity="0.3" fill="#137BC2" fill-rule="evenodd" xlink:href="#path-3"></use>
                            <circle stroke="#137BC2" stroke-width="0.7" cx="3.5" cy="72.8" r="3.15"></circle>
                        </g>
                        <g id="guide">
                            <use fill-opacity="0.3" fill="#137BC2" fill-rule="evenodd" xlink:href="#path-4"></use>
                            <circle stroke="#137BC2" stroke-width="0.7" cx="8.4" cy="77.7" r="3.15"></circle>
                        </g>
                        <g id="guide">
                            <use fill-opacity="0.3" fill="#137BC2" fill-rule="evenodd" xlink:href="#path-5"></use>
                            <circle stroke="#137BC2" stroke-width="0.7" cx="8.4" cy="3.5" r="3.15"></circle>
                        </g>
                        <g id="guide">
                            <use fill-opacity="0.3" fill="#137BC2" fill-rule="evenodd" xlink:href="#path-6"></use>
                            <circle stroke="#137BC2" stroke-width="0.7" cx="72.8" cy="3.5" r="3.15"></circle>
                        </g>
                        <g id="guide">
                            <use fill-opacity="0.3" fill="#137BC2" fill-rule="evenodd" xlink:href="#path-7"></use>
                            <circle stroke="#137BC2" stroke-width="0.7" cx="77.7" cy="8.4" r="3.15"></circle>
                        </g>
                        <g id="guide">
                            <use fill-opacity="0.3" fill="#137BC2" fill-rule="evenodd" xlink:href="#path-8"></use>
                            <circle stroke="#137BC2" stroke-width="0.7" cx="3.5" cy="8.4" r="3.15"></circle>
                        </g>
                    </g>
                    <rect id="marker" fill="#137BC2" x="77.7" y="4.9" width="63.7" height="1"></rect>
                    <text id="0.5px" font-family="GothamSSm-Bold, Gotham SSm" font-size="8" font-weight="bold" fill="#137BC2">
                        <tspan x="144.025" y="11.5">0.5px</tspan>
                    </text>
                    <rect id="marker" fill="#137BC2" x="77.7" y="11.2" width="63.7" height="1"></rect>
                </g>
                <g id="Group" transform="translate(57.424110, 50.524110) rotate(-45.000000) translate(-57.424110, -50.524110) translate(50.424110, -8.800890)" fill="#137BC2">
                    <rect id="marker" x="13.3" y="0" width="1" height="118.543952"></rect>
                    <rect id="marker" x="0" y="0" width="1" height="118.543952"></rect>
                </g>
                <text id="2px" font-family="GothamSSm-Bold, Gotham SSm" font-size="8" font-weight="bold" fill="#137BC2">
                    <tspan x="0.866" y="8.30452019">2px</tspan>
                </text>
            </g>
        </g>
    </g>
</svg>