<?xml version="1.0" encoding="UTF-8"?>
<svg width="264px" height="264px" viewBox="0 0 264 264" version="1.1" xmlns="http://www.w3.org/2000/svg" xmlns:xlink="http://www.w3.org/1999/xlink">
    <!-- Generator: Sketch 48 (47235) - http://www.bohemiancoding.com/sketch -->
    <title>Example 2</title>
    <desc>Created with Sketch.</desc>
    <defs>
        <circle id="path-1" cx="69.65" cy="3.56999893" r="3.5"></circle>
        <circle id="path-2" cx="3.5" cy="52.15" r="3.5"></circle>
        <circle id="path-3" cx="135.8" cy="52.15" r="3.5"></circle>
        <circle id="path-4" cx="112" cy="130.55" r="3.5"></circle>
        <circle id="path-5" cx="27.3" cy="130.55" r="3.5"></circle>
    </defs>
    <g id="Page-1" stroke="none" stroke-width="1" fill="none" fill-rule="evenodd">
        <g id="Example-2">
            <g id="Group" transform="translate(48.000000, 48.000000)">
                <g id="Icon-Grid---Base---Zoomed">
                    <g id="Grid">
                        <rect id="Rectangle" fill="#FFFFFF" x="0" y="0" width="168" height="169.05"></rect>
                        <g id="pixels" opacity="0.400000006" stroke="#000000" stroke-width="0.5">
                            <g id="Group" opacity="0.200000003">
                                <rect id="Rectangle-3" x="161" y="0" width="7" height="168"></rect>
                                <rect id="Rectangle-3" x="154" y="0" width="7" height="168"></rect>
                                <rect id="Rectangle-3" x="147" y="0" width="7" height="168"></rect>
                                <rect id="Rectangle-3" x="140" y="0" width="7" height="168"></rect>
                                <rect id="Rectangle-3" x="133" y="0" width="7" height="168"></rect>
                                <rect id="Rectangle-3" x="126" y="0" width="7" height="168"></rect>
                                <rect id="Rectangle-3" x="119" y="0" width="7" height="168"></rect>
                                <rect id="Rectangle-3" x="112" y="0" width="7" height="168"></rect>
                                <rect id="Rectangle-3" x="105" y="0" width="7" height="168"></rect>
                                <rect id="Rectangle-3" x="98" y="0" width="7" height="168"></rect>
                                <rect id="Rectangle-3" x="91" y="0" width="7" height="168"></rect>
                                <rect id="Rectangle-3" x="84" y="0" width="7" height="168"></rect>
                                <rect id="Rectangle-3" x="77" y="0" width="7" height="168"></rect>
                                <rect id="Rectangle-3" x="70" y="0" width="7" height="168"></rect>
                                <rect id="Rectangle-3" x="63" y="0" width="7" height="168"></rect>
                                <rect id="Rectangle-3" x="56" y="0" width="7" height="168"></rect>
                                <rect id="Rectangle-3" x="49" y="0" width="7" height="168"></rect>
                                <rect id="Rectangle-3" x="42" y="0" width="7" height="168"></rect>
                                <rect id="Rectangle-3" x="35" y="0" width="7" height="168"></rect>
                                <rect id="Rectangle-3" x="28" y="0" width="7" height="168"></rect>
                                <rect id="Rectangle-3" x="21" y="0" width="7" height="168"></rect>
                                <rect id="Rectangle-3" x="14" y="0" width="7" height="168"></rect>
                                <rect id="Rectangle-3" x="7" y="0" width="7" height="168"></rect>
                                <rect id="Rectangle-3" x="0" y="0" width="7" height="168"></rect>
                            </g>
                            <g id="Group" opacity="0.200000003" transform="translate(84.000000, 84.000000) rotate(90.000000) translate(-84.000000, -84.000000) ">
                                <rect id="Rectangle-3" x="161" y="0" width="7" height="168"></rect>
                                <rect id="Rectangle-3" x="154" y="0" width="7" height="168"></rect>
                                <rect id="Rectangle-3" x="147" y="0" width="7" height="168"></rect>
                                <rect id="Rectangle-3" x="140" y="0" width="7" height="168"></rect>
                                <rect id="Rectangle-3" x="133" y="0" width="7" height="168"></rect>
                                <rect id="Rectangle-3" x="126" y="0" width="7" height="168"></rect>
                                <rect id="Rectangle-3" x="119" y="0" width="7" height="168"></rect>
                                <rect id="Rectangle-3" x="112" y="0" width="7" height="168"></rect>
                                <rect id="Rectangle-3" x="105" y="0" width="7" height="168"></rect>
                                <rect id="Rectangle-3" x="98" y="0" width="7" height="168"></rect>
                                <rect id="Rectangle-3" x="91" y="0" width="7" height="168"></rect>
                                <rect id="Rectangle-3" x="84" y="0" width="7" height="168"></rect>
                                <rect id="Rectangle-3" x="77" y="0" width="7" height="168"></rect>
                                <rect id="Rectangle-3" x="70" y="0" width="7" height="168"></rect>
                                <rect id="Rectangle-3" x="63" y="0" width="7" height="168"></rect>
                                <rect id="Rectangle-3" x="56" y="0" width="7" height="168"></rect>
                                <rect id="Rectangle-3" x="49" y="0" width="7" height="168"></rect>
                                <rect id="Rectangle-3" x="42" y="0" width="7" height="168"></rect>
                                <rect id="Rectangle-3" x="35" y="0" width="7" height="168"></rect>
                                <rect id="Rectangle-3" x="28" y="0" width="7" height="168"></rect>
                                <rect id="Rectangle-3" x="21" y="0" width="7" height="168"></rect>
                                <rect id="Rectangle-3" x="14" y="0" width="7" height="168"></rect>
                                <rect id="Rectangle-3" x="7" y="0" width="7" height="168"></rect>
                                <rect id="Rectangle-3" x="0" y="0" width="7" height="168"></rect>
                            </g>
                        </g>
                        <rect id="bounds" stroke="#AAAAAA" stroke-width="2" x="1" y="1" width="166" height="166"></rect>
                    </g>
                </g>
                <g id="Icons/star" opacity="0.400000006">
                    <rect id="bounds" x="0" y="0" width="168" height="168"></rect>
                    <path d="M54.0113533,96.9659401 L15.770868,69.3369964 C14.2040381,68.2049539 13.8515733,66.0170856 14.9836158,64.4502558 C15.6416628,63.5394705 16.6969772,63 17.8206122,63 L65.3099995,63 L80.6815396,16.9429522 C81.2934944,15.1093799 83.2759858,14.1190632 85.109558,14.731018 C86.1533482,15.079383 86.9725368,15.8983468 87.3211881,16.9420414 L102.707077,63 L150.179388,63 C152.112384,63 153.679388,64.5670034 153.679388,66.5 C153.679388,67.623635 153.139917,68.6789494 152.229132,69.3369964 L113.988647,96.9659401 L129.565852,143.697557 C130.17712,145.531359 129.18606,147.513479 127.352258,148.124746 C126.283813,148.480894 125.109263,148.301135 124.196244,147.641732 L84.0150739,118.621998 L43.8012109,147.64748 C42.2338403,148.778773 40.0461407,148.425263 38.9148471,146.857892 C38.2559218,145.944973 38.0763967,144.77081 38.4324311,143.702707 L54.0113533,96.9659401 Z M69.7175753,91.9055666 L60.6607256,119.076116 L84.0174689,102.217732 L107.332752,119.056547 L98.2824247,91.9055666 L119.881674,76.2999998 L93.127539,76.2999998 L84.0057605,48.9937778 L74.8923086,76.2999998 L48.1183259,76.2999998 L69.7175753,91.9055666 Z" id="star" fill="#000000" fill-rule="nonzero"></path>
                </g>
                <g id="Guides" transform="translate(14.350000, 14.350000)">
                    <g id="guide">
                        <use fill-opacity="0.3" fill="#137BC2" fill-rule="evenodd" xlink:href="#path-1"></use>
                        <circle stroke="#137BC2" stroke-width="0.7" cx="69.65" cy="3.56999893" r="3.15"></circle>
                    </g>
                    <g id="guide">
                        <use fill-opacity="0.3" fill="#137BC2" fill-rule="evenodd" xlink:href="#path-2"></use>
                        <circle stroke="#137BC2" stroke-width="0.7" cx="3.5" cy="52.15" r="3.15"></circle>
                    </g>
                    <g id="guide">
                        <use fill-opacity="0.3" fill="#137BC2" fill-rule="evenodd" xlink:href="#path-3"></use>
                        <circle stroke="#137BC2" stroke-width="0.7" cx="135.8" cy="52.15" r="3.15"></circle>
                    </g>
                    <g id="guide">
                        <use fill-opacity="0.3" fill="#137BC2" fill-rule="evenodd" xlink:href="#path-4"></use>
                        <circle stroke="#137BC2" stroke-width="0.7" cx="112" cy="130.55" r="3.15"></circle>
                    </g>
                    <g id="guide">
                        <use fill-opacity="0.3" fill="#137BC2" fill-rule="evenodd" xlink:href="#path-5"></use>
                        <circle stroke="#137BC2" stroke-width="0.7" cx="27.3" cy="130.55" r="3.15"></circle>
                    </g>
                    <rect id="marker" fill="#137BC2" x="135.8" y="48.65" width="34.65" height="1"></rect>
                    <text id="0.5px" font-family="GothamSSm-Bold, Gotham SSm" font-size="8" font-weight="bold" fill="#137BC2">
                        <tspan x="173.25" y="55.25">0.5px</tspan>
                    </text>
                    <rect id="marker" fill="#137BC2" x="135.8" y="54.95" width="34.65" height="1"></rect>
                </g>
            </g>
        </g>
    </g>
</svg>