<svg xmlns="http://www.w3.org/2000/svg" xmlns:xlink="http://www.w3.org/1999/xlink" width="264" height="264" viewBox="0 0 264 264">
  <defs>
    <circle id="example-2-a" cx="69.65" cy="3.57" r="3.5"/>
    <circle id="example-2-b" cx="3.5" cy="52.15" r="3.5"/>
    <circle id="example-2-c" cx="135.8" cy="52.15" r="3.5"/>
    <circle id="example-2-d" cx="112" cy="130.55" r="3.5"/>
    <circle id="example-2-e" cx="27.3" cy="130.55" r="3.5"/>
  </defs>
  <g fill="none" fill-rule="evenodd" transform="translate(48 48)">
    <rect width="168" height="169.05" fill="#FFF"/>
    <g stroke="#000" stroke-width=".5" opacity=".4">
      <g opacity=".2">
        <rect width="7" height="168" x="161"/>
        <rect width="7" height="168" x="154"/>
        <rect width="7" height="168" x="147"/>
        <rect width="7" height="168" x="140"/>
        <rect width="7" height="168" x="133"/>
        <rect width="7" height="168" x="126"/>
        <rect width="7" height="168" x="119"/>
        <rect width="7" height="168" x="112"/>
        <rect width="7" height="168" x="105"/>
        <rect width="7" height="168" x="98"/>
        <rect width="7" height="168" x="91"/>
        <rect width="7" height="168" x="84"/>
        <rect width="7" height="168" x="77"/>
        <rect width="7" height="168" x="70"/>
        <rect width="7" height="168" x="63"/>
        <rect width="7" height="168" x="56"/>
        <rect width="7" height="168" x="49"/>
        <rect width="7" height="168" x="42"/>
        <rect width="7" height="168" x="35"/>
        <rect width="7" height="168" x="28"/>
        <rect width="7" height="168" x="21"/>
        <rect width="7" height="168" x="14"/>
        <rect width="7" height="168" x="7"/>
        <rect width="7" height="168"/>
      </g>
      <g opacity=".2" transform="rotate(90 84 84)">
        <rect width="7" height="168" x="161"/>
        <rect width="7" height="168" x="154"/>
        <rect width="7" height="168" x="147"/>
        <rect width="7" height="168" x="140"/>
        <rect width="7" height="168" x="133"/>
        <rect width="7" height="168" x="126"/>
        <rect width="7" height="168" x="119"/>
        <rect width="7" height="168" x="112"/>
        <rect width="7" height="168" x="105"/>
        <rect width="7" height="168" x="98"/>
        <rect width="7" height="168" x="91"/>
        <rect width="7" height="168" x="84"/>
        <rect width="7" height="168" x="77"/>
        <rect width="7" height="168" x="70"/>
        <rect width="7" height="168" x="63"/>
        <rect width="7" height="168" x="56"/>
        <rect width="7" height="168" x="49"/>
        <rect width="7" height="168" x="42"/>
        <rect width="7" height="168" x="35"/>
        <rect width="7" height="168" x="28"/>
        <rect width="7" height="168" x="21"/>
        <rect width="7" height="168" x="14"/>
        <rect width="7" height="168" x="7"/>
        <rect width="7" height="168"/>
      </g>
    </g>
    <rect width="166" height="166" x="1" y="1" stroke="#AAA" stroke-width="2"/>
    <g opacity=".4">
      <rect width="168" height="168"/>
      <path fill="#000" fill-rule="nonzero" d="M54.0113533,96.9659401 L15.770868,69.3369964 C14.2040381,68.2049539 13.8515733,66.0170856 14.9836158,64.4502558 C15.6416628,63.5394705 16.6969772,63 17.8206122,63 L65.3099995,63 L80.6815396,16.9429522 C81.2934944,15.1093799 83.2759858,14.1190632 85.109558,14.731018 C86.1533482,15.079383 86.9725368,15.8983468 87.3211881,16.9420414 L102.707077,63 L150.179388,63 C152.112384,63 153.679388,64.5670034 153.679388,66.5 C153.679388,67.623635 153.139917,68.6789494 152.229132,69.3369964 L113.988647,96.9659401 L129.565852,143.697557 C130.17712,145.531359 129.18606,147.513479 127.352258,148.124746 C126.283813,148.480894 125.109263,148.301135 124.196244,147.641732 L84.0150739,118.621998 L43.8012109,147.64748 C42.2338403,148.778773 40.0461407,148.425263 38.9148471,146.857892 C38.2559218,145.944973 38.0763967,144.77081 38.4324311,143.702707 L54.0113533,96.9659401 Z M69.7175753,91.9055666 L60.6607256,119.076116 L84.0174689,102.217732 L107.332752,119.056547 L98.2824247,91.9055666 L119.881674,76.2999998 L93.127539,76.2999998 L84.0057605,48.9937778 L74.8923086,76.2999998 L48.1183259,76.2999998 L69.7175753,91.9055666 Z"/>
    </g>
    <g transform="translate(14.35 14.35)">
      <use fill="#137BC2" fill-opacity=".3" xlink:href="#example-2-a"/>
      <circle cx="69.65" cy="3.57" r="3.15" stroke="#137BC2" stroke-width=".7"/>
      <use fill="#137BC2" fill-opacity=".3" xlink:href="#example-2-b"/>
      <circle cx="3.5" cy="52.15" r="3.15" stroke="#137BC2" stroke-width=".7"/>
      <use fill="#137BC2" fill-opacity=".3" xlink:href="#example-2-c"/>
      <circle cx="135.8" cy="52.15" r="3.15" stroke="#137BC2" stroke-width=".7"/>
      <use fill="#137BC2" fill-opacity=".3" xlink:href="#example-2-d"/>
      <circle cx="112" cy="130.55" r="3.15" stroke="#137BC2" stroke-width=".7"/>
      <g>
        <use fill="#137BC2" fill-opacity=".3" xlink:href="#example-2-e"/>
        <circle cx="27.3" cy="130.55" r="3.15" stroke="#137BC2" stroke-width=".7"/>
      </g>
      <rect width="34.65" height="1" x="135.8" y="48.65" fill="#137BC2"/>
      <path fill="#137BC2" d="M176.306,55.346 C174.754,55.346 173.738,54.042 173.738,52.354 L173.738,52.338 C173.738,50.658 174.778,49.33 176.322,49.33 C177.858,49.33 178.89,50.634 178.89,52.322 L178.89,52.338 C178.89,54.018 177.858,55.346 176.306,55.346 Z M176.322,54.242 C177.122,54.242 177.626,53.426 177.626,52.354 L177.626,52.338 C177.626,51.266 177.098,50.434 176.306,50.434 C175.514,50.434 175.002,51.242 175.002,52.322 L175.002,52.338 C175.002,53.418 175.522,54.242 176.322,54.242 Z M179.77,55.25 L179.77,53.954 L181.066,53.954 L181.066,55.25 L179.77,55.25 Z M184.194,55.346 C183.274,55.346 182.586,55.01 182.026,54.474 L182.77,53.586 C183.218,53.994 183.658,54.234 184.178,54.234 C184.794,54.234 185.186,53.922 185.186,53.386 L185.186,53.37 C185.186,52.85 184.754,52.546 184.122,52.546 C183.746,52.546 183.41,52.65 183.13,52.77 L182.41,52.29 L182.578,49.426 L186.138,49.426 L186.138,50.506 L183.634,50.506 L183.562,51.586 C183.802,51.522 184.026,51.474 184.362,51.474 C185.49,51.474 186.394,52.034 186.394,53.33 L186.394,53.346 C186.394,54.57 185.522,55.346 184.194,55.346 Z M189.85,54.298 C190.458,54.298 190.97,53.81 190.97,53.034 L190.97,53.018 C190.97,52.258 190.458,51.754 189.85,51.754 C189.242,51.754 188.73,52.258 188.73,53.018 L188.73,53.034 C188.73,53.794 189.242,54.298 189.85,54.298 Z M187.53,56.578 L187.53,50.802 L188.746,50.802 L188.746,51.466 C189.058,51.042 189.49,50.722 190.154,50.722 C191.194,50.722 192.186,51.538 192.186,53.018 L192.186,53.034 C192.186,54.514 191.21,55.338 190.154,55.338 C189.474,55.338 189.05,55.018 188.746,54.65 L188.746,56.578 L187.53,56.578 Z M193.946,50.802 L194.81,52.138 L195.69,50.802 L196.962,50.802 L195.45,52.97 L197.026,55.25 L195.722,55.25 L194.786,53.818 L193.85,55.25 L192.578,55.25 L194.154,52.986 L192.642,50.802 L193.946,50.802 Z"/>
      <rect width="34.65" height="1" x="135.8" y="54.95" fill="#137BC2"/>
    </g>
  </g>
</svg>
