<svg width="720" height="720" viewBox="0 0 720 720" fill="none" xmlns="http://www.w3.org/2000/svg">
<rect width="480" height="480" transform="translate(120 120)" fill="white"/>
<g opacity="0.4">
<g opacity="0.2">
<rect x="580" y="120" width="20" height="480" stroke="black"/>
<rect x="560" y="120" width="20" height="480" stroke="black"/>
<rect x="540" y="120" width="20" height="480" stroke="black"/>
<rect x="520" y="120" width="20" height="480" stroke="black"/>
<rect x="500" y="120" width="20" height="480" stroke="black"/>
<rect x="480" y="120" width="20" height="480" stroke="black"/>
<rect x="460" y="120" width="20" height="480" stroke="black"/>
<rect x="440" y="120" width="20" height="480" stroke="black"/>
<rect x="420" y="120" width="20" height="480" stroke="black"/>
<rect x="400" y="120" width="20" height="480" stroke="black"/>
<rect x="380" y="120" width="20" height="480" stroke="black"/>
<rect x="360" y="120" width="20" height="480" stroke="black"/>
<rect x="340" y="120" width="20" height="480" stroke="black"/>
<rect x="320" y="120" width="20" height="480" stroke="black"/>
<rect x="300" y="120" width="20" height="480" stroke="black"/>
<rect x="280" y="120" width="20" height="480" stroke="black"/>
<rect x="260" y="120" width="20" height="480" stroke="black"/>
<rect x="240" y="120" width="20" height="480" stroke="black"/>
<rect x="220" y="120" width="20" height="480" stroke="black"/>
<rect x="200" y="120" width="20" height="480" stroke="black"/>
<rect x="180" y="120" width="20" height="480" stroke="black"/>
<rect x="160" y="120" width="20" height="480" stroke="black"/>
<rect x="140" y="120" width="20" height="480" stroke="black"/>
<rect x="120" y="120" width="20" height="480" stroke="black"/>
</g>
<g opacity="0.2">
<rect x="600" y="580" width="20" height="480" transform="rotate(90 600 580)" stroke="black"/>
<rect x="600" y="560" width="20" height="480" transform="rotate(90 600 560)" stroke="black"/>
<rect x="600" y="540" width="20" height="480" transform="rotate(90 600 540)" stroke="black"/>
<rect x="600" y="520" width="20" height="480" transform="rotate(90 600 520)" stroke="black"/>
<rect x="600" y="500" width="20" height="480" transform="rotate(90 600 500)" stroke="black"/>
<rect x="600" y="480" width="20" height="480" transform="rotate(90 600 480)" stroke="black"/>
<rect x="600" y="460" width="20" height="480" transform="rotate(90 600 460)" stroke="black"/>
<rect x="600" y="440" width="20" height="480" transform="rotate(90 600 440)" stroke="black"/>
<rect x="600" y="420" width="20" height="480" transform="rotate(90 600 420)" stroke="black"/>
<rect x="600" y="400" width="20" height="480" transform="rotate(90 600 400)" stroke="black"/>
<rect x="600" y="380" width="20" height="480" transform="rotate(90 600 380)" stroke="black"/>
<rect x="600" y="360" width="20" height="480" transform="rotate(90 600 360)" stroke="black"/>
<rect x="600" y="340" width="20" height="480" transform="rotate(90 600 340)" stroke="black"/>
<rect x="600" y="320" width="20" height="480" transform="rotate(90 600 320)" stroke="black"/>
<rect x="600" y="300" width="20" height="480" transform="rotate(90 600 300)" stroke="black"/>
<rect x="600" y="280" width="20" height="480" transform="rotate(90 600 280)" stroke="black"/>
<rect x="600" y="260" width="20" height="480" transform="rotate(90 600 260)" stroke="black"/>
<rect x="600" y="240" width="20" height="480" transform="rotate(90 600 240)" stroke="black"/>
<rect x="600" y="220" width="20" height="480" transform="rotate(90 600 220)" stroke="black"/>
<rect x="600" y="200" width="20" height="480" transform="rotate(90 600 200)" stroke="black"/>
<rect x="600" y="180" width="20" height="480" transform="rotate(90 600 180)" stroke="black"/>
<rect x="600" y="160" width="20" height="480" transform="rotate(90 600 160)" stroke="black"/>
<rect x="600" y="140" width="20" height="480" transform="rotate(90 600 140)" stroke="black"/>
<rect x="600" y="120" width="20" height="480" transform="rotate(90 600 120)" stroke="black"/>
</g>
</g>
<rect x="121" y="121" width="478" height="478" stroke="#AAAAAA" stroke-width="2"/>
<mask id="mask0" mask-type="alpha" maskUnits="userSpaceOnUse" x="120" y="120" width="480" height="480">
<rect x="120" y="120" width="480" height="480" fill="white"/>
</mask>
<g mask="url(#mask0)">
<g opacity="0.3">
<path d="M600 120L120 600" stroke="black" stroke-width="3"/>
<path d="M120 120L600 600" stroke="black" stroke-width="3"/>
<path fill-rule="evenodd" clip-rule="evenodd" d="M360 460C415.228 460 460 415.228 460 360C460 304.772 415.228 260 360 260C304.772 260 260 304.772 260 360C260 415.228 304.772 460 360 460Z" stroke="black" stroke-width="3"/>
<path d="M360 120V600" stroke="black" stroke-width="3"/>
<path d="M280 120V600" stroke="black" stroke-width="3"/>
<path d="M440 120V600" stroke="black" stroke-width="3"/>
<path d="M120 360H600" stroke="black" stroke-width="3"/>
<path d="M120 440H600" stroke="black" stroke-width="3"/>
<path d="M120 280H600" stroke="black" stroke-width="3"/>
</g>
<g opacity="0.7">
<path fill-rule="evenodd" clip-rule="evenodd" d="M360 560C470.457 560 560 470.457 560 360C560 249.543 470.457 160 360 160C249.543 160 160 249.543 160 360C160 470.457 249.543 560 360 560Z" stroke="black" stroke-width="3"/>
<rect x="160" y="200" width="400" height="320" rx="16" stroke="black" stroke-width="3"/>
<rect x="200" y="160" width="320" height="400" rx="16" stroke="black" stroke-width="3"/>
<rect x="540" y="180" width="360" height="360" rx="16" transform="rotate(90 540 180)" stroke="black" stroke-width="3"/>
</g>
</g>
<rect x="162" y="202" width="396" height="316" rx="14" fill="#137BC2" fill-opacity="0.3" stroke="#137BC2" stroke-width="4"/>
<rect x="160" y="608" width="2" height="40" fill="#137BC2"/>
<path d="M328.777 679H341.641V675.808H333.889L336.889 673.456C339.985 671.032 341.473 669.568 341.473 666.688V666.64C341.473 663.4 339.073 661.288 335.497 661.288C332.377 661.288 330.721 662.56 329.017 664.912L331.609 666.976C332.905 665.368 333.865 664.576 335.257 664.576C336.673 664.576 337.705 665.416 337.705 666.952C337.705 668.416 336.841 669.4 334.633 671.248L328.777 676.072V679ZM352.328 679.288C356.984 679.288 360.08 675.304 360.08 670.264V670.216C360.08 665.152 356.984 661.24 352.376 661.24C347.744 661.24 344.624 665.224 344.624 670.264V670.312C344.624 675.376 347.672 679.288 352.328 679.288ZM352.376 675.976C349.976 675.976 348.416 673.504 348.416 670.264V670.216C348.416 666.976 349.952 664.552 352.328 664.552C354.704 664.552 356.288 667.048 356.288 670.264V670.312C356.288 673.528 354.776 675.976 352.376 675.976ZM370.319 676.144C368.495 676.144 366.959 674.632 366.959 672.352V672.304C366.959 670.024 368.495 668.512 370.319 668.512C372.143 668.512 373.679 670.024 373.679 672.304V672.352C373.679 674.68 372.143 676.144 370.319 676.144ZM363.359 682.984H367.007V677.2C367.919 678.304 369.191 679.264 371.231 679.264C374.399 679.264 377.327 676.792 377.327 672.352V672.304C377.327 667.864 374.351 665.416 371.231 665.416C369.239 665.416 367.943 666.376 367.007 667.648V665.656H363.359V682.984ZM382.601 665.656H378.689L383.225 672.208L378.497 679H382.313L385.121 674.704L387.929 679H391.841L387.113 672.16L391.649 665.656H387.833L385.193 669.664L382.601 665.656Z" fill="#137BC2"/>
<rect x="558" y="608" width="2" height="40" fill="#137BC2"/>
<rect x="608" y="518" width="40" height="2" fill="#137BC2"/>
<rect x="608" y="200" width="40" height="2" fill="#137BC2"/>
<path d="M660.536 369H664.184V351.408H661.664L656.696 352.896L657.464 355.92L660.536 355.152V369ZM675.138 369.288C678.906 369.288 681.762 366.84 681.762 363.288V363.216C681.762 359.616 679.098 357.672 675.642 357.672C674.01 357.672 672.834 358.224 671.922 358.968H671.898C672.018 357.288 672.81 354.576 675.57 354.576C677.058 354.576 678.018 355.104 679.17 356.016L681.114 353.16C679.578 351.936 678.042 351.24 675.69 351.24C670.53 351.24 668.058 355.368 668.058 360.768V360.816C668.058 364.296 668.85 366.144 670.122 367.44C671.346 368.64 672.906 369.288 675.138 369.288ZM674.994 366.144C673.05 366.144 671.85 364.968 671.85 363.432V363.384C671.85 361.872 673.002 360.744 674.946 360.744C676.914 360.744 678.09 361.872 678.09 363.384V363.456C678.09 364.992 676.962 366.144 674.994 366.144ZM692.065 366.144C690.241 366.144 688.705 364.632 688.705 362.352V362.304C688.705 360.024 690.241 358.512 692.065 358.512C693.889 358.512 695.425 360.024 695.425 362.304V362.352C695.425 364.68 693.889 366.144 692.065 366.144ZM685.105 372.984H688.753V367.2C689.665 368.304 690.937 369.264 692.977 369.264C696.145 369.264 699.073 366.792 699.073 362.352V362.304C699.073 357.864 696.097 355.416 692.977 355.416C690.985 355.416 689.689 356.376 688.753 357.648V355.656H685.105V372.984ZM704.347 355.656H700.435L704.971 362.208L700.243 369H704.059L706.867 364.704L709.675 369H713.587L708.859 362.16L713.395 355.656H709.579L706.939 359.664L704.347 355.656Z" fill="#137BC2"/>
<path d="M183.101 71H187.997V61.56H197.789V71H202.717V47.704H197.789V57.016H187.997V47.704H183.101V71ZM216.76 71.384C222.296 71.384 226.392 67.256 226.392 62.136V62.072C226.392 56.984 222.328 52.888 216.856 52.888C211.32 52.888 207.224 57.048 207.224 62.136V62.2C207.224 67.32 211.288 71.384 216.76 71.384ZM216.856 67.224C213.976 67.224 212.024 64.856 212.024 62.136V62.072C212.024 59.352 213.816 57.08 216.76 57.08C219.64 57.08 221.592 59.416 221.592 62.136V62.2C221.592 64.92 219.8 67.224 216.856 67.224ZM230.401 71H235.265V64.376C235.265 60.056 237.409 57.976 240.801 57.976H241.057V52.888C238.049 52.76 236.321 54.392 235.265 56.888V53.208H230.401V71ZM244.653 51.096H249.773V46.744H244.653V51.096ZM244.813 71H249.645V53.208H244.813V71ZM254.136 71H269.624V67.064H260.184L269.624 56.632V53.208H254.456V57.144H263.544L254.136 67.608V71ZM281.917 71.384C287.453 71.384 291.549 67.256 291.549 62.136V62.072C291.549 56.984 287.485 52.888 282.013 52.888C276.477 52.888 272.381 57.048 272.381 62.136V62.2C272.381 67.32 276.445 71.384 281.917 71.384ZM282.013 67.224C279.133 67.224 277.181 64.856 277.181 62.136V62.072C277.181 59.352 278.973 57.08 281.917 57.08C284.797 57.08 286.749 59.416 286.749 62.136V62.2C286.749 64.92 284.957 67.224 282.013 67.224ZM295.557 71H300.421V61.048C300.421 58.584 301.733 57.272 303.749 57.272C305.765 57.272 306.949 58.584 306.949 61.048V71H311.813V59.512C311.813 55.416 309.541 52.888 305.701 52.888C303.109 52.888 301.573 54.264 300.421 55.768V53.208H295.557V71ZM322.542 71.288C324.206 71.288 325.39 70.904 326.446 70.296V66.392C325.71 66.776 324.878 67 323.95 67C322.766 67 322.222 66.424 322.222 65.176V57.368H326.51V53.208H322.222V48.6H317.358V53.208H315.214V57.368H317.358V65.976C317.358 70.072 319.47 71.288 322.542 71.288ZM337.116 67.96C335.42 67.96 334.204 67.128 334.204 65.688V65.624C334.204 63.992 335.58 63.064 337.82 63.064C339.132 63.064 340.316 63.352 341.212 63.736V64.696C341.212 66.616 339.548 67.96 337.116 67.96ZM335.676 71.352C338.172 71.352 339.9 70.392 341.116 69.016V71H345.82V60.632C345.82 58.264 345.212 56.312 343.9 55C342.62 53.752 340.636 53.016 337.916 53.016C334.94 53.016 332.988 53.592 331.036 54.456L332.252 58.168C333.884 57.56 335.292 57.176 337.212 57.176C339.804 57.176 341.148 58.36 341.148 60.536V60.856C339.868 60.44 338.556 60.152 336.7 60.152C332.476 60.152 329.5 61.944 329.5 65.816V65.88C329.5 69.4 332.316 71.352 335.676 71.352ZM350.782 71H355.614V46.712H350.782V71ZM376.435 59.064V52.152H381.715C384.307 52.152 385.907 53.336 385.907 55.576V55.64C385.907 57.688 384.371 59.064 381.811 59.064H376.435ZM371.539 71H376.435V63.416H380.691L385.843 71H391.603L385.779 62.584C388.787 61.528 390.867 59.16 390.867 55.384V55.32C390.867 53.176 390.195 51.352 388.915 50.072C387.378 48.536 385.075 47.704 382.131 47.704H371.539V71ZM403.379 71.384C406.611 71.384 408.979 70.136 410.642 68.088L407.859 65.624C406.451 66.936 405.203 67.48 403.443 67.48C401.107 67.48 399.443 66.232 398.963 63.8H411.475C411.507 63.352 411.539 62.904 411.539 62.52C411.539 57.464 408.787 52.888 402.899 52.888C397.747 52.888 394.131 57.048 394.131 62.136V62.2C394.131 67.64 398.067 71.384 403.379 71.384ZM398.899 60.76C399.283 58.36 400.723 56.792 402.899 56.792C405.139 56.792 406.483 58.424 406.803 60.76H398.899ZM423.972 71.384C427.492 71.384 429.508 70.04 431.236 68.12L428.388 65.272C427.14 66.456 425.924 67.224 424.196 67.224C421.348 67.224 419.524 64.952 419.524 62.136V62.072C419.524 59.352 421.38 57.08 424.004 57.08C425.828 57.08 426.98 57.88 428.132 59.096L431.14 55.896C429.476 54.04 427.364 52.888 424.036 52.888C418.596 52.888 414.724 57.08 414.724 62.136V62.2C414.724 67.288 418.628 71.384 423.972 71.384ZM440.854 71.288C442.518 71.288 443.702 70.904 444.758 70.296V66.392C444.022 66.776 443.19 67 442.262 67C441.078 67 440.534 66.424 440.534 65.176V57.368H444.822V53.208H440.534V48.6H435.67V53.208H433.526V57.368H435.67V65.976C435.67 70.072 437.782 71.288 440.854 71.288ZM455.429 67.96C453.733 67.96 452.517 67.128 452.517 65.688V65.624C452.517 63.992 453.893 63.064 456.133 63.064C457.445 63.064 458.629 63.352 459.525 63.736V64.696C459.525 66.616 457.861 67.96 455.429 67.96ZM453.989 71.352C456.485 71.352 458.213 70.392 459.429 69.016V71H464.133V60.632C464.133 58.264 463.525 56.312 462.213 55C460.933 53.752 458.949 53.016 456.229 53.016C453.253 53.016 451.301 53.592 449.349 54.456L450.565 58.168C452.197 57.56 453.605 57.176 455.525 57.176C458.117 57.176 459.461 58.36 459.461 60.536V60.856C458.181 60.44 456.869 60.152 455.013 60.152C450.789 60.152 447.813 61.944 447.813 65.816V65.88C447.813 69.4 450.629 71.352 453.989 71.352ZM468.838 71H473.702V61.048C473.702 58.584 475.014 57.272 477.03 57.272C479.046 57.272 480.23 58.584 480.23 61.048V71H485.094V59.512C485.094 55.416 482.822 52.888 478.982 52.888C476.39 52.888 474.854 54.264 473.702 55.768V53.208H468.838V71ZM498.319 65.528C495.791 65.528 493.871 63.8 493.871 61.24V61.176C493.871 58.648 495.791 56.92 498.319 56.92C500.847 56.92 502.831 58.648 502.831 61.176V61.24C502.831 63.768 500.847 65.528 498.319 65.528ZM497.775 76.376C501.167 76.376 503.727 75.64 505.359 74.008C506.863 72.504 507.631 70.2 507.631 67.064V53.208H502.767V55.608C501.391 54.072 499.727 52.888 496.943 52.888C492.847 52.888 489.007 55.896 489.007 61.176V61.24C489.007 66.52 492.783 69.56 496.943 69.56C499.663 69.56 501.327 68.408 502.831 66.584V67.544C502.831 70.808 501.135 72.504 497.647 72.504C495.279 72.504 493.423 71.896 491.567 70.84L489.903 74.488C492.143 75.704 494.895 76.376 497.775 76.376ZM512.751 71H517.583V46.712H512.751V71ZM531.097 71.384C534.329 71.384 536.697 70.136 538.361 68.088L535.577 65.624C534.169 66.936 532.921 67.48 531.161 67.48C528.825 67.48 527.161 66.232 526.681 63.8H539.193C539.225 63.352 539.257 62.904 539.257 62.52C539.257 57.464 536.505 52.888 530.617 52.888C525.465 52.888 521.849 57.048 521.849 62.136V62.2C521.849 67.64 525.785 71.384 531.097 71.384ZM526.617 60.76C527.001 58.36 528.441 56.792 530.617 56.792C532.857 56.792 534.201 58.424 534.521 60.76H526.617Z" fill="#137BC2"/>
</svg>
