<svg width="720" height="720" viewBox="0 0 720 720" fill="none" xmlns="http://www.w3.org/2000/svg">
<rect width="480" height="480" transform="translate(120 120)" fill="white"/>
<g opacity="0.4">
<g opacity="0.2">
<rect x="580" y="120" width="20" height="480" stroke="black"/>
<rect x="560" y="120" width="20" height="480" stroke="black"/>
<rect x="540" y="120" width="20" height="480" stroke="black"/>
<rect x="520" y="120" width="20" height="480" stroke="black"/>
<rect x="500" y="120" width="20" height="480" stroke="black"/>
<rect x="480" y="120" width="20" height="480" stroke="black"/>
<rect x="460" y="120" width="20" height="480" stroke="black"/>
<rect x="440" y="120" width="20" height="480" stroke="black"/>
<rect x="420" y="120" width="20" height="480" stroke="black"/>
<rect x="400" y="120" width="20" height="480" stroke="black"/>
<rect x="380" y="120" width="20" height="480" stroke="black"/>
<rect x="360" y="120" width="20" height="480" stroke="black"/>
<rect x="340" y="120" width="20" height="480" stroke="black"/>
<rect x="320" y="120" width="20" height="480" stroke="black"/>
<rect x="300" y="120" width="20" height="480" stroke="black"/>
<rect x="280" y="120" width="20" height="480" stroke="black"/>
<rect x="260" y="120" width="20" height="480" stroke="black"/>
<rect x="240" y="120" width="20" height="480" stroke="black"/>
<rect x="220" y="120" width="20" height="480" stroke="black"/>
<rect x="200" y="120" width="20" height="480" stroke="black"/>
<rect x="180" y="120" width="20" height="480" stroke="black"/>
<rect x="160" y="120" width="20" height="480" stroke="black"/>
<rect x="140" y="120" width="20" height="480" stroke="black"/>
<rect x="120" y="120" width="20" height="480" stroke="black"/>
</g>
<g opacity="0.2">
<rect x="600" y="580" width="20" height="480" transform="rotate(90 600 580)" stroke="black"/>
<rect x="600" y="560" width="20" height="480" transform="rotate(90 600 560)" stroke="black"/>
<rect x="600" y="540" width="20" height="480" transform="rotate(90 600 540)" stroke="black"/>
<rect x="600" y="520" width="20" height="480" transform="rotate(90 600 520)" stroke="black"/>
<rect x="600" y="500" width="20" height="480" transform="rotate(90 600 500)" stroke="black"/>
<rect x="600" y="480" width="20" height="480" transform="rotate(90 600 480)" stroke="black"/>
<rect x="600" y="460" width="20" height="480" transform="rotate(90 600 460)" stroke="black"/>
<rect x="600" y="440" width="20" height="480" transform="rotate(90 600 440)" stroke="black"/>
<rect x="600" y="420" width="20" height="480" transform="rotate(90 600 420)" stroke="black"/>
<rect x="600" y="400" width="20" height="480" transform="rotate(90 600 400)" stroke="black"/>
<rect x="600" y="380" width="20" height="480" transform="rotate(90 600 380)" stroke="black"/>
<rect x="600" y="360" width="20" height="480" transform="rotate(90 600 360)" stroke="black"/>
<rect x="600" y="340" width="20" height="480" transform="rotate(90 600 340)" stroke="black"/>
<rect x="600" y="320" width="20" height="480" transform="rotate(90 600 320)" stroke="black"/>
<rect x="600" y="300" width="20" height="480" transform="rotate(90 600 300)" stroke="black"/>
<rect x="600" y="280" width="20" height="480" transform="rotate(90 600 280)" stroke="black"/>
<rect x="600" y="260" width="20" height="480" transform="rotate(90 600 260)" stroke="black"/>
<rect x="600" y="240" width="20" height="480" transform="rotate(90 600 240)" stroke="black"/>
<rect x="600" y="220" width="20" height="480" transform="rotate(90 600 220)" stroke="black"/>
<rect x="600" y="200" width="20" height="480" transform="rotate(90 600 200)" stroke="black"/>
<rect x="600" y="180" width="20" height="480" transform="rotate(90 600 180)" stroke="black"/>
<rect x="600" y="160" width="20" height="480" transform="rotate(90 600 160)" stroke="black"/>
<rect x="600" y="140" width="20" height="480" transform="rotate(90 600 140)" stroke="black"/>
<rect x="600" y="120" width="20" height="480" transform="rotate(90 600 120)" stroke="black"/>
</g>
</g>
<rect x="121" y="121" width="478" height="478" stroke="#AAAAAA" stroke-width="2"/>
<mask id="mask0" mask-type="alpha" maskUnits="userSpaceOnUse" x="120" y="120" width="480" height="480">
<rect x="120" y="120" width="480" height="480" fill="white"/>
</mask>
<g mask="url(#mask0)">
<g opacity="0.3">
<path d="M600 120L120 600" stroke="black" stroke-width="3"/>
<path d="M120 120L600 600" stroke="black" stroke-width="3"/>
<path fill-rule="evenodd" clip-rule="evenodd" d="M360 460C415.228 460 460 415.228 460 360C460 304.772 415.228 260 360 260C304.772 260 260 304.772 260 360C260 415.228 304.772 460 360 460Z" stroke="black" stroke-width="3"/>
<path d="M360 120V600" stroke="black" stroke-width="3"/>
<path d="M280 120V600" stroke="black" stroke-width="3"/>
<path d="M440 120V600" stroke="black" stroke-width="3"/>
<path d="M120 360H600" stroke="black" stroke-width="3"/>
<path d="M120 440H600" stroke="black" stroke-width="3"/>
<path d="M120 280H600" stroke="black" stroke-width="3"/>
</g>
<g opacity="0.7">
<path fill-rule="evenodd" clip-rule="evenodd" d="M360 560C470.457 560 560 470.457 560 360C560 249.543 470.457 160 360 160C249.543 160 160 249.543 160 360C160 470.457 249.543 560 360 560Z" stroke="black" stroke-width="3"/>
<rect x="160" y="200" width="400" height="320" rx="16" stroke="black" stroke-width="3"/>
<rect x="200" y="160" width="320" height="400" rx="16" stroke="black" stroke-width="3"/>
<rect x="540" y="180" width="360" height="360" rx="16" transform="rotate(90 540 180)" stroke="black" stroke-width="3"/>
</g>
</g>
<rect x="182" y="182" width="356" height="356" rx="14" fill="#137BC2" fill-opacity="0.3" stroke="#137BC2" stroke-width="4"/>
<rect x="180" y="608" width="2" height="40" fill="#137BC2"/>
<path d="M334.778 679H338.426V661.408H335.906L330.938 662.896L331.706 665.92L334.778 665.152V679ZM348.804 679.24C352.644 679.24 355.524 677.344 355.524 674.128V674.08C355.524 671.992 354.444 670.864 352.644 669.952C354.012 669.136 354.924 667.984 354.924 666.112V666.064C354.924 663.352 352.452 661.288 348.804 661.288C345.132 661.288 342.66 663.376 342.66 666.064V666.112C342.66 667.984 343.572 669.136 344.964 669.952C343.092 670.792 342.06 672.04 342.06 674.176V674.224C342.06 677.248 344.94 679.24 348.804 679.24ZM348.804 668.704C347.22 668.704 346.164 667.768 346.164 666.472V666.424C346.164 665.296 347.172 664.336 348.804 664.336C350.436 664.336 351.42 665.32 351.42 666.448V666.496C351.42 667.792 350.364 668.704 348.804 668.704ZM348.804 676.192C346.812 676.192 345.636 675.184 345.636 673.936V673.888C345.636 672.496 346.98 671.656 348.804 671.656C350.604 671.656 351.948 672.496 351.948 673.888V673.936C351.948 675.208 350.772 676.192 348.804 676.192ZM365.534 676.144C363.71 676.144 362.174 674.632 362.174 672.352V672.304C362.174 670.024 363.71 668.512 365.534 668.512C367.358 668.512 368.894 670.024 368.894 672.304V672.352C368.894 674.68 367.358 676.144 365.534 676.144ZM358.574 682.984H362.222V677.2C363.134 678.304 364.406 679.264 366.446 679.264C369.614 679.264 372.542 676.792 372.542 672.352V672.304C372.542 667.864 369.566 665.416 366.446 665.416C364.454 665.416 363.158 666.376 362.222 667.648V665.656H358.574V682.984ZM377.816 665.656H373.904L378.44 672.208L373.712 679H377.528L380.336 674.704L383.144 679H387.056L382.328 672.16L386.864 665.656H383.048L380.408 669.664L377.816 665.656Z" fill="#137BC2"/>
<rect x="538" y="608" width="2" height="40" fill="#137BC2"/>
<rect x="608" y="538" width="40" height="2" fill="#137BC2"/>
<rect x="608" y="180" width="40" height="2" fill="#137BC2"/>
<path d="M652.536 369H656.184V351.408H653.664L648.696 352.896L649.464 355.92L652.536 355.152V369ZM666.562 369.24C670.402 369.24 673.282 367.344 673.282 364.128V364.08C673.282 361.992 672.202 360.864 670.402 359.952C671.77 359.136 672.682 357.984 672.682 356.112V356.064C672.682 353.352 670.21 351.288 666.562 351.288C662.89 351.288 660.418 353.376 660.418 356.064V356.112C660.418 357.984 661.33 359.136 662.722 359.952C660.85 360.792 659.818 362.04 659.818 364.176V364.224C659.818 367.248 662.698 369.24 666.562 369.24ZM666.562 358.704C664.978 358.704 663.922 357.768 663.922 356.472V356.424C663.922 355.296 664.93 354.336 666.562 354.336C668.194 354.336 669.178 355.32 669.178 356.448V356.496C669.178 357.792 668.122 358.704 666.562 358.704ZM666.562 366.192C664.57 366.192 663.394 365.184 663.394 363.936V363.888C663.394 362.496 664.738 361.656 666.562 361.656C668.362 361.656 669.706 362.496 669.706 363.888V363.936C669.706 365.208 668.53 366.192 666.562 366.192ZM683.292 366.144C681.468 366.144 679.932 364.632 679.932 362.352V362.304C679.932 360.024 681.468 358.512 683.292 358.512C685.116 358.512 686.652 360.024 686.652 362.304V362.352C686.652 364.68 685.116 366.144 683.292 366.144ZM676.332 372.984H679.98V367.2C680.892 368.304 682.164 369.264 684.204 369.264C687.372 369.264 690.3 366.792 690.3 362.352V362.304C690.3 357.864 687.324 355.416 684.204 355.416C682.212 355.416 680.916 356.376 679.98 357.648V355.656H676.332V372.984ZM695.573 355.656H691.661L696.197 362.208L691.469 369H695.285L698.093 364.704L700.901 369H704.813L700.085 362.16L704.621 355.656H700.805L698.165 359.664L695.573 355.656Z" fill="#137BC2"/>
<path d="M311.529 71.32C316.521 71.32 320.041 68.728 320.041 64.152V64.088C320.041 60.088 317.385 58.36 312.617 57.144C308.521 56.088 307.497 55.544 307.497 53.944V53.88C307.497 52.696 308.585 51.704 310.633 51.704C312.649 51.704 314.697 52.568 316.745 54.04L319.337 50.328C316.969 48.44 314.121 47.384 310.729 47.384C305.993 47.384 302.601 50.168 302.601 54.328V54.392C302.601 58.968 305.577 60.312 310.345 61.496C314.313 62.488 315.145 63.192 315.145 64.568V64.632C315.145 66.072 313.801 67 311.625 67C308.905 67 306.697 65.88 304.585 64.12L301.673 67.608C304.457 70.104 307.977 71.32 311.529 71.32ZM337.251 76.312H342.115V53.208H337.251V55.608C336.035 54.136 334.339 52.888 331.619 52.888C327.395 52.888 323.491 56.152 323.491 62.072V62.136C323.491 68.088 327.459 71.352 331.619 71.352C334.275 71.352 336.003 70.072 337.251 68.376V76.312ZM332.835 67.192C330.403 67.192 328.355 65.176 328.355 62.136V62.072C328.355 58.968 330.403 57.016 332.835 57.016C335.267 57.016 337.315 59.032 337.315 62.072V62.136C337.315 65.176 335.267 67.192 332.835 67.192ZM352.931 71.352C355.523 71.352 357.059 69.976 358.211 68.44V71H363.075V53.208H358.211V63.16C358.211 65.624 356.899 66.936 354.883 66.936C352.867 66.936 351.683 65.624 351.683 63.16V53.208H346.851V64.696C346.851 68.792 349.091 71.352 352.931 71.352ZM374.476 67.96C372.78 67.96 371.564 67.128 371.564 65.688V65.624C371.564 63.992 372.94 63.064 375.18 63.064C376.492 63.064 377.676 63.352 378.572 63.736V64.696C378.572 66.616 376.908 67.96 374.476 67.96ZM373.036 71.352C375.532 71.352 377.26 70.392 378.476 69.016V71H383.18V60.632C383.18 58.264 382.572 56.312 381.26 55C379.98 53.752 377.996 53.016 375.276 53.016C372.3 53.016 370.348 53.592 368.396 54.456L369.612 58.168C371.244 57.56 372.652 57.176 374.572 57.176C377.164 57.176 378.508 58.36 378.508 60.536V60.856C377.228 60.44 375.916 60.152 374.06 60.152C369.836 60.152 366.86 61.944 366.86 65.816V65.88C366.86 69.4 369.676 71.352 373.036 71.352ZM387.885 71H392.749V64.376C392.749 60.056 394.893 57.976 398.285 57.976H398.541V52.888C395.533 52.76 393.805 54.392 392.749 56.888V53.208H387.885V71ZM409.925 71.384C413.157 71.384 415.525 70.136 417.189 68.088L414.405 65.624C412.997 66.936 411.749 67.48 409.989 67.48C407.653 67.48 405.989 66.232 405.509 63.8H418.021C418.053 63.352 418.085 62.904 418.085 62.52C418.085 57.464 415.333 52.888 409.445 52.888C404.293 52.888 400.677 57.048 400.677 62.136V62.2C400.677 67.64 404.613 71.384 409.925 71.384ZM405.445 60.76C405.829 58.36 407.269 56.792 409.445 56.792C411.685 56.792 413.029 58.424 413.349 60.76H405.445Z" fill="#137BC2"/>
</svg>
