<svg xmlns="http://www.w3.org/2000/svg" xmlns:xlink="http://www.w3.org/1999/xlink" width="264" height="264" viewBox="0 0 264 264">
  <defs>
    <rect id="keyline-shapes-circle-a" width="168" height="168"/>
    <circle id="keyline-shapes-circle-c" cx="84" cy="84" r="70"/>
  </defs>
  <g fill="none" fill-rule="evenodd" transform="translate(48 18)">
    <g transform="translate(0 30)">
      <mask id="keyline-shapes-circle-b" fill="#fff">
        <use xlink:href="#keyline-shapes-circle-a"/>
      </mask>
      <g mask="url(#keyline-shapes-circle-b)">
        <rect width="168" height="169.05" fill="#FFF"/>
        <g stroke="#000" stroke-width=".5" opacity=".4">
          <g opacity=".2">
            <rect width="7" height="168" x="161"/>
            <rect width="7" height="168" x="154"/>
            <rect width="7" height="168" x="147"/>
            <rect width="7" height="168" x="140"/>
            <rect width="7" height="168" x="133"/>
            <rect width="7" height="168" x="126"/>
            <rect width="7" height="168" x="119"/>
            <rect width="7" height="168" x="112"/>
            <rect width="7" height="168" x="105"/>
            <rect width="7" height="168" x="98"/>
            <rect width="7" height="168" x="91"/>
            <rect width="7" height="168" x="84"/>
            <rect width="7" height="168" x="77"/>
            <rect width="7" height="168" x="70"/>
            <rect width="7" height="168" x="63"/>
            <rect width="7" height="168" x="56"/>
            <rect width="7" height="168" x="49"/>
            <rect width="7" height="168" x="42"/>
            <rect width="7" height="168" x="35"/>
            <rect width="7" height="168" x="28"/>
            <rect width="7" height="168" x="21"/>
            <rect width="7" height="168" x="14"/>
            <rect width="7" height="168" x="7"/>
            <rect width="7" height="168"/>
          </g>
          <g opacity=".2" transform="rotate(90 84 84)">
            <rect width="7" height="168" x="161"/>
            <rect width="7" height="168" x="154"/>
            <rect width="7" height="168" x="147"/>
            <rect width="7" height="168" x="140"/>
            <rect width="7" height="168" x="133"/>
            <rect width="7" height="168" x="126"/>
            <rect width="7" height="168" x="119"/>
            <rect width="7" height="168" x="112"/>
            <rect width="7" height="168" x="105"/>
            <rect width="7" height="168" x="98"/>
            <rect width="7" height="168" x="91"/>
            <rect width="7" height="168" x="84"/>
            <rect width="7" height="168" x="77"/>
            <rect width="7" height="168" x="70"/>
            <rect width="7" height="168" x="63"/>
            <rect width="7" height="168" x="56"/>
            <rect width="7" height="168" x="49"/>
            <rect width="7" height="168" x="42"/>
            <rect width="7" height="168" x="35"/>
            <rect width="7" height="168" x="28"/>
            <rect width="7" height="168" x="21"/>
            <rect width="7" height="168" x="14"/>
            <rect width="7" height="168" x="7"/>
            <rect width="7" height="168"/>
          </g>
        </g>
        <rect width="166" height="166" x="1" y="1" stroke="#AAA" stroke-width="2"/>
      </g>
      <g stroke="#000" mask="url(#keyline-shapes-circle-b)">
        <g stroke-width=".5" opacity=".3">
          <path d="M0,0 L168,168" transform="matrix(-1 0 0 1 168 0)"/>
          <path d="M0,0 L168,168"/>
          <circle cx="84" cy="84" r="35"/>
          <path d="M84 0L84 168.4375M112 0L112 168.4375M0 84L168 84M0 112L168 112M0 56L168 56"/>
        </g>
        <g stroke-width=".5" opacity=".7" transform="translate(14 14)">
          <circle cx="70" cy="70" r="70"/>
          <rect width="140" height="112" y="14" rx="32"/>
          <rect width="112" height="140" x="14" rx="32"/>
          <rect width="126" height="126" x="7" y="7" rx="32" transform="rotate(90 70 70)"/>
        </g>
      </g>
      <g>
        <use fill="#137BC2" fill-opacity=".3" xlink:href="#keyline-shapes-circle-c"/>
        <circle cx="84" cy="84" r="69.3" stroke="#137BC2" stroke-width="1.4"/>
      </g>
      <g fill="#137BC2" transform="translate(14 14)">
        <rect width="1" height="14" y="156.8"/>
        <path d="M59.592,181.6 L59.592,180.624 L61.544,179.016 C62.28,178.4 62.568,178.072 62.568,177.584 C62.568,177.072 62.224,176.792 61.752,176.792 C61.288,176.792 60.968,177.056 60.536,177.592 L59.672,176.904 C60.24,176.12 60.792,175.696 61.832,175.696 C63.024,175.696 63.824,176.4 63.824,177.48 L63.824,177.496 C63.824,178.456 63.328,178.944 62.296,179.752 L61.296,180.536 L63.88,180.536 L63.88,181.6 L59.592,181.6 Z M67.44,181.696 C65.888,181.696 64.872,180.392 64.872,178.704 L64.872,178.688 C64.872,177.008 65.912,175.68 67.456,175.68 C68.992,175.68 70.024,176.984 70.024,178.672 L70.024,178.688 C70.024,180.368 68.992,181.696 67.44,181.696 Z M67.456,180.592 C68.256,180.592 68.76,179.776 68.76,178.704 L68.76,178.688 C68.76,177.616 68.232,176.784 67.44,176.784 C66.648,176.784 66.136,177.592 66.136,178.672 L66.136,178.688 C66.136,179.768 66.656,180.592 67.456,180.592 Z M73.44,180.648 C74.048,180.648 74.56,180.16 74.56,179.384 L74.56,179.368 C74.56,178.608 74.048,178.104 73.44,178.104 C72.832,178.104 72.32,178.608 72.32,179.368 L72.32,179.384 C72.32,180.144 72.832,180.648 73.44,180.648 Z M71.12,182.928 L71.12,177.152 L72.336,177.152 L72.336,177.816 C72.648,177.392 73.08,177.072 73.744,177.072 C74.784,177.072 75.776,177.888 75.776,179.368 L75.776,179.384 C75.776,180.864 74.8,181.688 73.744,181.688 C73.064,181.688 72.64,181.368 72.336,181 L72.336,182.928 L71.12,182.928 Z M77.536,177.152 L78.4,178.488 L79.28,177.152 L80.552,177.152 L79.04,179.32 L80.616,181.6 L79.312,181.6 L78.376,180.168 L77.44,181.6 L76.168,181.6 L77.744,179.336 L76.232,177.152 L77.536,177.152 Z"/>
        <rect width="1" height="14" x="139.3" y="156.8"/>
        <rect width="14" height="1" x="156.8" y="139.3"/>
        <rect width="14" height="1" x="156.8"/>
        <path d="M164.04,73.1 L164.04,72.124 L165.992,70.516 C166.728,69.9 167.016,69.572 167.016,69.084 C167.016,68.572 166.672,68.292 166.2,68.292 C165.736,68.292 165.416,68.556 164.984,69.092 L164.12,68.404 C164.688,67.62 165.24,67.196 166.28,67.196 C167.472,67.196 168.272,67.9 168.272,68.98 L168.272,68.996 C168.272,69.956 167.776,70.444 166.744,71.252 L165.744,72.036 L168.328,72.036 L168.328,73.1 L164.04,73.1 Z M171.888,73.196 C170.336,73.196 169.32,71.892 169.32,70.204 L169.32,70.188 C169.32,68.508 170.36,67.18 171.904,67.18 C173.44,67.18 174.472,68.484 174.472,70.172 L174.472,70.188 C174.472,71.868 173.44,73.196 171.888,73.196 Z M171.904,72.092 C172.704,72.092 173.208,71.276 173.208,70.204 L173.208,70.188 C173.208,69.116 172.68,68.284 171.888,68.284 C171.096,68.284 170.584,69.092 170.584,70.172 L170.584,70.188 C170.584,71.268 171.104,72.092 171.904,72.092 Z M177.888,72.148 C178.496,72.148 179.008,71.66 179.008,70.884 L179.008,70.868 C179.008,70.108 178.496,69.604 177.888,69.604 C177.28,69.604 176.768,70.108 176.768,70.868 L176.768,70.884 C176.768,71.644 177.28,72.148 177.888,72.148 Z M175.568,74.428 L175.568,68.652 L176.784,68.652 L176.784,69.316 C177.096,68.892 177.528,68.572 178.192,68.572 C179.232,68.572 180.224,69.388 180.224,70.868 L180.224,70.884 C180.224,72.364 179.248,73.188 178.192,73.188 C177.512,73.188 177.088,72.868 176.784,72.5 L176.784,74.428 L175.568,74.428 Z M181.984,68.652 L182.848,69.988 L183.728,68.652 L185,68.652 L183.488,70.82 L185.064,73.1 L183.76,73.1 L182.824,71.668 L181.888,73.1 L180.616,73.1 L182.192,70.836 L180.68,68.652 L181.984,68.652 Z"/>
      </g>
    </g>
    <path fill="#137BC2" d="M73.22,10.144 C70.652,10.144 68.744,8.164 68.744,5.656 L68.744,5.632 C68.744,3.148 70.616,1.12 73.292,1.12 C74.936,1.12 75.92,1.66 76.736,2.464 L75.56,3.82 C74.876,3.196 74.18,2.812 73.28,2.812 C71.768,2.812 70.676,4.072 70.676,5.608 L70.676,5.632 C70.676,7.168 71.744,8.452 73.28,8.452 C74.3,8.452 74.924,8.044 75.62,7.408 L76.796,8.596 C75.896,9.544 74.9,10.144 73.22,10.144 Z M78.284,2.536 L78.284,0.904 L80.204,0.904 L80.204,2.536 L78.284,2.536 Z M78.344,10 L78.344,3.328 L80.156,3.328 L80.156,10 L78.344,10 Z M82.076,10 L82.076,3.328 L83.9,3.328 L83.9,4.708 C84.296,3.772 84.944,3.16 86.072,3.208 L86.072,5.116 L85.976,5.116 C84.704,5.116 83.9,5.896 83.9,7.516 L83.9,10 L82.076,10 Z M90.332,10.144 C88.328,10.144 86.864,8.608 86.864,6.7 L86.864,6.676 C86.864,4.78 88.316,3.208 90.356,3.208 C91.604,3.208 92.396,3.64 93.02,4.336 L91.892,5.536 C91.46,5.08 91.028,4.78 90.344,4.78 C89.36,4.78 88.664,5.632 88.664,6.652 L88.664,6.676 C88.664,7.732 89.348,8.584 90.416,8.584 C91.064,8.584 91.52,8.296 91.988,7.852 L93.056,8.92 C92.408,9.64 91.652,10.144 90.332,10.144 Z M94.508,10 L94.508,0.892 L96.32,0.892 L96.32,10 L94.508,10 Z M101.384,10.144 C99.392,10.144 97.916,8.74 97.916,6.7 L97.916,6.676 C97.916,4.768 99.272,3.208 101.204,3.208 C103.412,3.208 104.444,4.924 104.444,6.82 C104.444,6.964 104.432,7.132 104.42,7.3 L99.728,7.3 C99.908,8.212 100.532,8.68 101.408,8.68 C102.068,8.68 102.536,8.476 103.064,7.984 L104.108,8.908 C103.484,9.676 102.596,10.144 101.384,10.144 Z M99.704,6.16 L102.668,6.16 C102.548,5.284 102.044,4.672 101.204,4.672 C100.388,4.672 99.848,5.26 99.704,6.16 Z"/>
  </g>
</svg>
